<?xml version="1.0" encoding="UTF-8" standalone="no"?>
<!DOCTYPE svg PUBLIC "-//W3C//DTD SVG 1.1//EN" "http://www.w3.org/Graphics/SVG/1.1/DTD/svg11.dtd">
<svg xmlns="http://www.w3.org/2000/svg" version="1.1" viewBox="0.00 0.00 1000.00 1000.00">
<g stroke-width="2.00" fill="none" stroke-linecap="butt">
<path stroke="#919090" vector-effect="non-scaling-stroke" d="
  M 58.70 567.10
  Q 65.25 569.11 71.44 571.57
  Q 90.77 579.24 109.95 587.27
  C 119.79 591.39 129.19 592.63 138.69 595.14
  Q 145.39 596.92 149.18 597.05
  Q 159.39 597.39 166.35 595.11
  C 177.76 591.36 191.69 582.06 195.11 569.82
  A 0.61 0.61 0.0 0 0 194.34 569.07
  Q 190.39 570.29 187.31 572.81
  C 173.83 583.83 161.65 592.11 143.16 587.80
  C 121.66 582.79 103.75 567.32 95.59 546.85
  Q 89.26 530.96 87.40 512.72
  C 83.36 473.17 92.33 432.64 111.27 397.81
  Q 120.45 380.93 133.02 368.03
  C 150.99 349.59 179.11 338.19 204.43 347.95
  Q 215.52 352.22 222.20 361.18
  C 228.21 369.25 231.84 384.30 230.92 394.19
  A 0.49 0.49 0.0 0 0 231.64 394.67
  Q 232.76 394.06 233.33 392.81
  Q 239.83 378.31 234.32 364.33
  C 230.72 355.19 223.26 347.38 214.59 342.38
  C 210.14 339.81 204.29 337.65 198.95 334.72
  Q 183.32 326.12 164.93 319.88
  Q 151.93 315.46 147.49 313.78
  Q 144.68 312.71 141.74 312.37"
/>
<path stroke="#dedddd" vector-effect="non-scaling-stroke" d="
  M 796.89 511.25
  Q 797.05 514.12 800.27 515.03
  Q 808.34 517.31 815.87 516.58
  C 841.05 514.14 851.96 489.42 855.39 467.73
  Q 858.26 449.57 857.74 432.61
  C 856.99 408.80 854.03 385.62 846.84 362.65
  C 838.20 335.00 820.43 305.24 791.39 295.85
  Q 780.57 292.36 767.54 294.88"
/>
<path stroke="#919090" vector-effect="non-scaling-stroke" d="
  M 767.54 294.88
  C 777.61 288.81 791.08 284.88 802.66 287.38
  C 806.66 288.24 809.77 289.25 812.91 288.23
  Q 813.39 288.07 813.47 287.57
  C 814.38 281.49 809.18 279.93 804.29 279.15
  Q 784.67 276.00 767.60 283.95
  Q 766.50 284.47 767.31 283.56
  Q 772.24 278.01 779.85 271.34
  Q 795.26 257.83 805.83 250.07
  Q 812.81 244.94 817.84 239.43
  C 819.86 237.21 820.92 235.09 821.50 232.34
  A 0.44 0.44 0.0 0 0 820.86 231.86
  C 819.02 232.84 816.61 234.09 814.97 235.38
  Q 803.10 244.75 794.88 250.72
  C 784.45 258.28 778.09 264.47 765.12 275.87
  Q 755.40 284.41 746.93 298.66
  C 745.21 301.56 741.76 305.19 739.77 308.50
  C 730.27 324.27 726.15 340.73 731.57 358.64
  Q 732.52 361.78 735.80 363.48
  A 0.70 0.69 -48.1 0 1 735.86 364.68
  Q 716.58 377.35 695.45 395.45
  C 691.21 399.08 679.57 409.88 670.75 417.75
  Q 655.08 431.73 642.12 448.62
  Q 637.68 454.42 638.01 461.44
  A 0.84 0.84 0.0 0 0 639.36 462.06
  Q 641.21 460.63 642.34 459.34
  Q 645.44 455.82 655.20 443.71
  Q 662.47 434.70 675.76 422.51
  Q 692.11 407.51 709.54 393.30
  Q 725.34 380.43 751.42 363.64
  Q 771.24 350.89 793.62 340.85
  A 1.52 1.50 -33.4 0 1 795.34 341.19
  C 807.41 354.00 815.76 371.03 821.57 387.96
  Q 830.17 413.04 832.70 438.97
  Q 832.74 439.45 832.25 439.43
  Q 829.14 439.30 828.77 439.29
  Q 826.61 439.25 818.94 442.13
  Q 805.58 447.17 792.60 453.12
  Q 774.79 461.29 756.68 474.43
  Q 742.74 484.54 740.51 486.19
  Q 732.27 492.27 724.79 499.28
  C 720.05 503.72 717.59 505.93 717.91 512.19
  Q 717.99 513.77 719.51 513.30
  Q 721.54 512.68 723.35 511.10
  Q 727.22 507.73 733.64 501.39
  Q 738.71 496.38 751.13 487.39
  Q 755.19 484.45 767.32 476.08
  Q 771.62 473.12 776.03 470.74
  A 0.69 0.69 0.0 0 1 776.96 471.01
  C 780.54 477.22 785.34 484.20 789.35 489.26
  Q 796.42 498.17 804.69 503.23
  Q 806.00 504.03 804.48 503.88
  C 799.89 503.42 794.68 500.12 791.21 497.38
  Q 782.06 490.14 776.28 485.93
  C 774.72 484.80 773.54 483.42 772.23 482.33
  A 0.57 0.57 0.0 0 0 771.30 482.69
  Q 771.24 483.16 771.43 483.82
  C 775.10 496.44 785.24 505.81 796.89 511.25"
/>
<path stroke="#706d6e" vector-effect="non-scaling-stroke" d="
  M 767.54 294.88
  Q 755.03 301.30 746.64 314.90
  C 741.32 323.50 737.04 333.84 737.53 343.51
  Q 737.83 349.43 739.41 354.98
  Q 739.84 356.50 739.97 354.92
  Q 741.08 342.04 748.26 331.27
  C 754.81 321.43 765.14 318.56 776.49 320.34
  C 786.88 321.97 797.82 329.80 804.94 338.39
  C 816.39 352.23 823.93 367.75 829.77 385.05
  Q 836.93 406.25 840.35 430.95
  C 843.62 454.65 843.77 505.11 812.02 512.00
  Q 804.19 513.69 796.89 511.25"
/>
<path stroke="#dedddd" vector-effect="non-scaling-stroke" d="
  M 472.07 419.46
  L 474.53 413.54"
/>
<path stroke="#919090" vector-effect="non-scaling-stroke" d="
  M 474.53 413.54
  L 491.05 430.77
  A 2.02 2.02 0.0 0 1 491.58 432.52
  Q 488.13 451.95 487.12 467.01
  Q 485.99 483.88 485.82 487.53
  Q 485.80 488.03 485.32 488.16
  Q 474.71 490.98 462.91 496.68
  Q 442.85 506.36 426.87 519.11
  C 415.98 527.80 408.77 535.51 403.09 546.73
  C 399.53 553.75 395.44 563.85 388.88 568.89
  Q 378.57 576.80 377.41 577.70
  A 0.33 0.33 0.0 0 1 376.88 577.41
  Q 377.25 573.45 377.61 564.88
  Q 377.63 564.57 377.48 564.40
  Q 377.36 564.25 377.19 564.20
  Q 376.69 564.04 376.43 564.49
  Q 373.43 569.81 372.24 574.00
  Q 367.31 591.49 367.73 610.26
  Q 367.78 612.34 368.06 613.04
  C 375.92 632.35 382.67 653.84 384.10 674.43
  Q 384.70 683.11 381.96 691.25
  C 379.74 697.82 371.73 705.90 364.42 701.41
  Q 360.84 699.21 358.78 696.25
  Q 352.67 687.45 348.22 677.04
  C 339.70 657.13 332.58 639.92 326.05 620.96
  Q 323.91 614.73 322.41 608.81
  C 321.86 606.67 322.00 604.02 321.77 602.22
  Q 321.40 599.41 321.66 597.26
  C 322.14 593.19 321.90 587.92 322.43 583.09
  Q 324.31 566.00 327.34 546.55
  Q 327.96 542.62 328.15 538.88
  A 1.15 1.14 -14.8 0 0 326.39 537.86
  C 322.28 540.48 320.07 547.97 319.22 552.48
  A 0.41 0.40 -67.1 0 1 318.59 552.74
  Q 312.77 548.61 305.23 545.52
  Q 279.92 535.15 257.99 529.34
  Q 242.46 525.23 219.97 520.12
  Q 185.29 512.23 152.42 510.35
  Q 151.92 510.32 151.87 509.82
  Q 150.67 496.53 150.67 492.96
  Q 150.68 468.15 157.16 442.52
  Q 162.88 419.90 176.66 403.14
  Q 180.09 398.97 182.24 397.43
  Q 191.43 390.82 201.15 395.44
  Q 256.37 421.73 268.40 427.43
  Q 290.09 437.71 306.62 443.92
  Q 328.41 452.11 364.94 460.44
  C 390.25 466.22 417.39 472.49 431.68 495.84
  Q 435.17 501.55 438.08 506.91
  A 0.70 0.69 -50.7 0 0 439.35 506.78
  C 442.39 497.09 434.29 485.30 427.55 478.96
  C 415.94 468.05 401.67 461.67 386.67 458.06
  Q 345.15 448.08 337.38 445.89
  Q 309.83 438.12 282.39 425.35
  Q 245.01 407.95 221.81 396.67
  Q 220.35 395.96 216.26 393.61"
/>
<path stroke="#dedddd" vector-effect="non-scaling-stroke" d="
  M 216.26 393.61
  Q 217.82 392.05 216.62 389.66
  C 209.92 376.37 196.24 367.81 181.32 369.41
  C 162.80 371.41 147.30 390.76 139.10 406.13
  C 124.20 434.04 117.63 465.72 118.40 498.26
  Q 118.93 520.55 126.17 541.22
  C 132.78 560.13 147.38 579.14 170.34 573.83
  C 178.41 571.97 187.71 567.22 191.60 559.75
  A 0.76 0.71 -77.0 0 0 190.96 558.64
  Q 190.57 558.67 190.31 557.64"
/>
<path stroke="#919090" vector-effect="non-scaling-stroke" d="
  M 190.31 557.64
  Q 206.38 551.13 210.44 535.28
  A 0.56 0.55 -69.3 0 0 210.16 534.65
  Q 210.00 534.56 209.80 534.60
  Q 209.56 534.64 209.28 535.02
  Q 200.97 546.42 187.34 550.86
  Q 186.66 551.08 187.09 550.51
  Q 195.43 539.65 199.90 524.53
  Q 200.14 523.70 200.98 523.87
  Q 233.44 530.27 266.98 539.32
  C 278.22 542.35 292.99 548.76 299.46 551.08
  C 305.45 553.22 310.81 556.29 316.94 558.69
  A 1.35 1.34 15.4 0 1 317.78 560.15
  Q 315.25 575.87 314.50 592.75
  C 314.04 602.96 314.64 610.07 317.00 617.33
  Q 326.50 646.69 339.75 676.22
  C 345.13 688.21 348.72 696.49 356.38 704.57
  Q 360.64 709.07 367.98 710.03
  Q 369.27 710.20 375.12 709.10
  Q 379.01 708.36 381.44 706.41
  Q 387.37 701.65 390.21 696.75
  Q 395.06 688.40 395.67 677.82
  Q 395.70 677.23 396.26 677.42
  C 401.80 679.28 406.72 679.01 412.79 678.95
  C 415.41 678.93 417.06 679.63 419.62 680.38
  Q 420.12 680.53 419.93 681.01
  L 417.18 688.14
  Q 416.43 690.08 418.14 688.88
  C 423.53 685.07 431.77 674.64 440.86 667.49
  C 451.90 658.80 467.60 649.97 480.25 661.32
  Q 484.11 664.79 481.70 669.90
  C 478.07 677.60 471.67 683.93 465.38 689.11
  Q 443.39 707.23 414.99 722.20
  C 409.31 725.19 404.91 728.05 399.24 727.49
  Q 394.26 727.01 389.40 725.41
  Q 374.42 720.48 359.54 712.48
  C 342.57 703.36 327.82 694.81 312.77 684.24
  Q 307.28 680.39 305.90 678.32
  Q 304.43 676.12 303.52 668.99
  Q 303.26 666.95 303.43 660.67
  Q 303.54 656.68 304.01 652.36
  Q 305.63 637.42 306.57 626.83
  C 307.32 618.32 307.80 609.13 306.50 599.28
  Q 305.63 592.67 301.59 588.03
  Q 299.18 585.27 299.05 588.93
  Q 299.01 590.20 299.20 592.99
  Q 300.35 609.21 299.54 618.52
  Q 298.27 633.05 296.43 651.03
  Q 295.87 656.53 295.80 661.48
  C 295.67 670.32 295.65 680.20 301.85 685.58
  Q 306.69 689.79 311.42 693.02
  Q 335.00 709.13 361.32 721.96
  Q 376.55 729.39 388.64 732.89
  Q 396.43 735.15 401.95 735.05
  Q 407.72 734.94 415.19 731.93
  C 431.01 725.55 444.02 717.34 456.82 707.09
  C 463.88 701.43 473.08 694.78 479.51 687.02
  Q 482.32 683.62 484.98 682.05
  C 491.17 678.37 499.59 673.76 505.92 674.69
  C 509.58 675.23 513.81 677.92 514.82 681.76
  C 516.69 688.94 486.25 710.04 480.52 714.01
  C 462.01 726.84 448.93 735.87 431.58 744.76
  C 425.21 748.03 417.08 751.93 409.47 751.12
  C 394.17 749.50 379.78 745.75 364.12 740.93
  Q 349.60 736.46 338.59 732.23
  Q 331.90 729.66 329.55 727.63
  C 324.06 722.87 323.46 715.09 321.98 709.31
  A 1.19 1.19 0.0 0 0 319.95 708.81
  C 317.05 711.99 317.40 715.85 318.11 720.18
  Q 319.42 728.13 325.40 733.37
  C 328.28 735.90 331.78 737.29 335.75 738.76
  Q 366.26 750.02 391.51 755.64
  C 399.04 757.32 408.12 758.90 415.85 758.20
  Q 418.91 757.93 421.13 758.38
  Q 425.61 759.29 438.75 762.68
  Q 442.97 763.77 448.70 763.52
  C 455.22 763.24 462.28 758.31 467.26 754.03
  C 473.62 748.58 478.90 745.43 484.38 739.13
  Q 487.15 735.93 488.21 731.40
  A 1.01 1.01 0.0 0 0 486.85 730.24
  Q 484.28 731.30 481.91 733.41
  Q 468.45 745.45 455.50 753.70
  Q 451.38 756.32 449.79 756.34
  Q 442.57 756.40 435.29 754.01
  Q 434.76 753.83 435.22 753.52
  C 443.55 747.96 450.20 743.15 458.89 737.52
  Q 483.19 721.76 505.95 703.85
  C 509.22 701.28 511.91 698.77 514.62 695.89
  Q 515.04 695.44 515.21 696.03
  Q 517.30 703.16 524.84 706.97
  Q 529.53 709.34 531.73 710.05
  Q 548.04 715.33 555.86 718.18
  Q 569.75 723.25 574.80 726.19
  C 583.91 731.48 593.66 737.12 604.37 733.86
  C 610.41 732.03 615.65 730.09 618.98 725.18
  A 0.38 0.38 0.0 0 0 618.71 724.59
  Q 617.82 724.48 616.75 724.73
  Q 609.91 726.27 603.11 728.10
  C 595.74 730.09 590.98 727.41 583.28 723.57
  C 573.72 718.80 563.96 713.30 553.77 709.98
  Q 541.36 705.94 532.24 702.32
  Q 527.76 700.54 524.73 698.10
  C 522.37 696.19 521.01 692.50 523.26 689.93
  C 525.52 687.35 531.54 684.70 535.06 686.04
  C 555.35 693.74 574.31 700.95 594.03 707.74
  Q 602.87 710.79 621.85 717.70
  Q 631.14 721.09 635.08 721.49
  C 646.94 722.71 661.48 720.16 671.57 713.15
  C 673.81 711.59 675.58 708.66 677.65 706.88
  Q 679.97 704.89 676.98 705.51
  C 674.01 706.12 671.28 706.38 668.18 707.58
  C 656.44 712.12 645.28 717.11 633.44 713.91
  Q 624.78 711.58 614.46 707.61
  Q 572.35 691.39 547.09 681.82
  C 541.05 679.54 534.42 676.51 529.93 674.18
  Q 525.56 671.91 523.30 669.77
  Q 522.05 668.59 522.12 666.26
  C 522.36 658.44 530.66 656.00 537.00 658.15
  Q 541.49 659.66 552.77 664.76
  C 563.86 669.77 575.21 674.08 584.99 677.76
  C 592.67 680.65 603.42 683.01 611.28 685.53
  C 622.62 689.16 636.73 693.17 649.65 697.89
  Q 655.59 700.06 659.07 700.14
  Q 664.08 700.25 668.83 698.59
  Q 688.32 691.78 704.25 678.54
  C 706.41 676.75 708.70 674.29 709.68 671.90
  C 716.17 656.11 720.58 639.29 725.87 621.08
  Q 728.62 611.66 728.03 602.34
  Q 727.86 599.64 726.36 601.90
  Q 724.41 604.83 722.89 608.89
  C 718.26 621.23 715.53 631.61 709.12 653.37
  Q 705.56 665.45 703.81 668.55
  Q 702.00 671.78 699.12 674.12
  C 689.44 681.99 667.19 697.12 654.15 692.12
  Q 650.16 690.59 645.52 689.07
  Q 601.17 674.56 592.02 671.45
  Q 583.69 668.62 570.36 663.44
  Q 561.70 660.08 552.61 654.88
  Q 550.06 653.42 547.54 651.05
  Q 547.14 650.69 547.37 650.19
  C 549.68 645.09 554.78 642.50 560.05 640.80
  Q 563.20 639.79 567.85 639.67
  Q 574.35 639.49 575.77 639.69
  Q 591.27 641.78 603.61 651.92
  Q 610.31 657.42 612.16 658.85
  Q 613.22 659.66 614.70 659.75
  Q 615.14 659.78 615.19 659.34
  Q 615.82 653.71 612.08 650.48
  A 0.46 0.46 0.0 0 1 612.34 649.68
  C 621.61 648.89 629.17 646.98 637.62 641.38
  Q 639.73 639.98 641.67 639.57
  A 0.87 0.87 0.0 0 1 642.70 640.25
  Q 642.81 640.82 644.02 646.56
  Q 646.20 656.95 653.00 666.09
  C 656.29 670.52 661.42 673.21 666.34 675.77
  C 676.07 680.82 686.23 675.10 691.21 666.19
  C 698.37 653.37 700.40 638.49 703.22 622.95
  C 704.45 616.23 706.50 611.39 709.34 605.60
  C 716.53 590.94 722.44 578.44 724.80 563.81
  Q 725.84 557.41 724.77 552.31
  Q 723.44 545.92 721.41 540.69
  Q 711.74 515.76 693.48 494.86
  Q 685.19 485.37 673.61 481.55
  Q 670.63 480.56 672.91 482.73
  Q 685.18 494.39 695.83 508.43
  Q 706.84 522.95 714.26 540.38
  C 716.90 546.60 719.64 554.31 718.79 561.04
  C 716.89 576.12 709.48 590.06 702.38 603.83
  C 700.28 607.91 697.94 613.19 697.10 617.17
  Q 694.14 631.16 692.47 638.71
  C 690.84 646.07 684.36 671.88 672.51 668.93
  C 666.29 667.38 660.55 659.87 658.18 654.32
  Q 655.36 647.70 654.75 642.29
  Q 654.38 639.00 654.44 631.11
  C 654.56 616.00 660.04 601.01 665.67 587.33
  Q 668.66 580.08 668.99 576.88
  C 669.86 568.58 667.16 560.15 660.25 555.15
  A 0.91 0.91 0.0 0 0 658.81 555.87
  Q 658.67 561.97 661.33 568.04
  Q 661.37 568.14 661.27 568.20
  L 660.99 568.36
  Q 660.88 568.43 660.81 568.31
  Q 658.83 564.91 656.71 561.63
  Q 645.29 543.97 624.29 538.78
  C 621.36 538.06 613.99 536.17 607.52 534.65
  Q 592.46 531.12 581.24 520.83
  C 574.39 514.55 566.38 506.37 559.24 501.25
  Q 544.09 490.39 524.72 486.59
  Q 510.73 483.85 495.84 485.85
  A 0.96 0.96 0.0 0 1 494.75 484.86
  Q 495.96 451.52 502.95 417.96
  Q 504.87 408.77 507.80 400.31
  Q 514.20 381.89 521.34 364.21
  C 523.21 359.59 524.39 355.07 524.62 350.30
  Q 524.69 348.79 523.62 349.86
  C 518.51 354.96 514.45 362.29 511.65 368.64
  Q 506.66 379.98 503.02 389.91
  Q 502.77 390.59 502.19 390.15
  C 492.23 382.69 485.63 371.39 485.92 358.93
  C 486.23 345.14 495.13 333.19 504.39 323.63
  C 514.06 313.66 528.46 302.29 536.57 295.11
  A 0.28 0.27 -37.3 0 1 536.98 295.16
  C 543.03 304.01 547.25 314.63 549.63 324.46
  Q 551.64 332.78 551.83 343.58
  Q 552.17 362.86 543.80 377.90
  C 542.13 380.90 541.05 383.24 538.82 384.82
  Q 531.81 389.76 522.02 392.06
  C 520.17 392.50 517.60 393.40 515.90 394.17
  A 1.02 1.02 0.0 0 0 515.66 395.87
  C 517.25 397.23 518.46 397.92 520.73 398.10
  Q 527.66 398.63 534.01 395.98
  C 552.31 388.33 563.42 371.49 566.75 351.99
  C 569.58 335.47 567.03 317.07 562.40 300.04
  Q 557.97 283.72 550.77 268.09
  A 0.49 0.49 0.0 0 0 549.90 268.06
  Q 544.31 278.17 535.67 285.91
  Q 509.55 309.34 508.29 310.54
  C 498.81 319.52 491.09 327.07 485.16 337.73
  C 476.78 352.77 476.86 369.73 487.17 383.81
  C 490.86 388.86 495.04 392.05 500.96 393.51
  A 0.75 0.75 0.0 0 1 501.48 394.49
  Q 496.50 408.39 493.30 423.42
  A 0.59 0.59 0.0 0 1 492.27 423.68
  Q 487.54 417.96 485.01 414.96
  C 483.18 412.79 479.00 409.79 478.18 408.19
  Q 477.78 407.43 477.77 406.97
  Q 477.30 392.52 467.79 382.80
  Q 451.81 366.48 427.80 365.28
  Q 421.79 364.98 415.10 365.39
  C 408.99 365.76 404.62 365.09 397.75 364.80
  Q 393.93 364.63 386.58 363.23
  C 384.26 362.79 377.19 361.90 376.26 364.78
  Q 374.90 368.95 376.76 373.12
  C 385.14 391.90 396.48 409.20 412.21 422.58
  C 419.79 429.03 429.27 434.19 439.25 435.02
  Q 453.90 436.24 467.08 428.09
  C 468.94 426.94 473.36 423.38 473.48 420.73
  Q 473.50 420.19 473.02 419.95
  L 472.07 419.46"
/>
<path stroke="#706d6e" vector-effect="non-scaling-stroke" d="
  M 190.31 557.64
  Q 184.81 559.58 178.88 559.78
  Q 173.32 559.97 169.46 558.47
  C 156.65 553.49 148.95 536.38 146.25 524.03
  C 141.62 502.84 141.77 481.01 145.10 459.10
  C 147.51 443.25 150.66 427.38 157.79 412.79
  C 163.82 400.45 174.78 388.19 188.42 386.44
  Q 197.85 385.23 203.88 388.08
  Q 210.01 390.98 216.26 393.61"
/>
<path stroke="#706d6e" vector-effect="non-scaling-stroke" d="
  M 474.53 413.54
  Q 468.46 408.90 461.83 404.94
  C 457.09 402.11 452.76 401.07 447.98 399.20
  Q 446.63 398.67 447.21 397.33
  Q 447.45 396.79 448.55 396.23
  C 454.47 393.22 463.91 399.05 469.35 402.26
  Q 470.40 402.88 470.00 401.72
  C 464.93 387.00 452.40 379.41 438.12 375.27
  C 429.54 372.79 419.56 373.44 410.87 373.84
  A 0.29 0.29 0.0 0 0 410.60 374.20
  C 416.53 398.19 432.73 417.58 457.43 423.43
  C 458.39 423.66 458.85 423.49 459.68 423.11
  Q 467.03 419.75 467.19 419.68
  Q 469.39 418.68 472.07 419.46"
/>
<path stroke="#919090" vector-effect="non-scaling-stroke" d="
  M 891.39 500.98
  C 897.24 487.28 900.10 471.27 901.46 456.50
  Q 902.17 448.85 901.82 427.81
  C 901.63 415.68 899.79 404.05 897.35 392.90
  Q 889.17 355.39 867.26 325.12
  Q 857.92 312.21 847.36 303.45
  Q 842.46 299.39 837.42 298.37
  A 0.48 0.48 0.0 0 0 836.86 298.95
  Q 838.27 304.88 842.64 309.56
  Q 850.95 318.46 852.95 320.85
  C 883.31 357.06 894.70 403.76 892.79 450.25
  C 891.95 470.58 887.33 492.76 876.64 510.15
  Q 864.22 530.36 840.46 535.15
  Q 829.66 537.32 824.48 536.73
  C 808.58 534.90 796.45 527.99 784.87 516.97
  Q 781.99 514.22 772.55 505.60
  Q 770.99 504.17 771.27 506.27
  C 773.30 521.80 788.48 533.15 801.61 539.25
  C 826.52 550.82 857.97 544.69 876.54 524.72
  C 885.14 515.47 895.34 507.91 907.77 497.82
  Q 913.27 493.35 919.86 488.95
  Q 931.46 481.19 932.36 480.57
  Q 935.00 478.74 936.51 475.18
  A 1.10 1.10 0.0 0 0 935.40 473.66
  C 929.87 474.19 927.34 476.13 921.77 479.71
  Q 906.02 489.84 892.08 501.50
  Q 890.66 502.68 891.39 500.98"
/>
<path stroke="#919090" vector-effect="non-scaling-stroke" d="
  M 598.59 482.60
  C 603.13 481.44 615.34 483.53 617.20 477.87
  A 1.63 1.63 0.0 0 0 616.19 475.82
  C 608.95 473.29 598.46 474.33 591.81 476.33
  Q 586.25 478.01 581.40 479.90
  C 575.83 482.06 568.00 487.07 565.15 493.20
  C 563.99 495.69 567.18 497.97 569.28 497.41
  Q 570.29 497.14 571.89 495.61
  C 578.80 488.96 589.25 485.00 598.59 482.60"
/>
<path stroke="#919090" vector-effect="non-scaling-stroke" d="
  M 750.75 355.09
  Q 751.67 354.56 751.70 353.51
  Q 751.76 350.83 752.49 345.20
  Q 753.30 339.00 751.06 344.84
  Q 749.20 349.69 747.17 356.26
  Q 746.83 357.36 747.82 356.79
  L 750.75 355.09"
/>
<path stroke="#5a5758" vector-effect="non-scaling-stroke" d="
  M 511.01 547.48
  A 0.47 0.47 0.0 0 1 511.03 548.15
  C 505.28 554.13 498.28 554.63 490.27 554.58
  Q 488.08 554.56 487.23 553.09
  Q 484.92 549.09 487.77 545.83
  Q 488.63 544.84 492.81 543.04
  Q 493.27 542.84 493.12 542.37
  Q 486.95 522.04 486.45 498.79
  A 0.64 0.63 81.8 0 0 485.66 498.19
  C 467.82 502.95 451.46 513.58 436.86 523.35
  C 426.05 530.59 417.32 540.90 412.60 553.24
  C 409.18 562.15 407.06 569.50 399.68 575.38
  C 391.06 582.24 382.41 587.25 379.89 599.42
  C 379.10 603.24 379.76 609.61 381.01 612.73
  C 387.47 628.93 390.38 645.56 392.52 663.74
  Q 392.66 665.01 394.01 665.61
  Q 398.33 667.54 403.56 667.97
  Q 413.49 668.79 420.04 669.61
  C 421.78 669.83 423.68 669.52 424.70 668.46
  C 432.59 660.31 440.02 654.13 450.80 649.77
  Q 468.51 642.59 483.46 654.26
  Q 491.77 660.73 488.80 670.97
  A 0.55 0.54 -5.9 0 0 489.58 671.60
  C 496.82 667.79 505.38 665.80 513.00 669.60
  A 0.37 0.37 0.0 0 0 513.54 669.25
  C 512.52 652.99 525.50 649.43 538.60 651.02
  A 0.48 0.48 0.0 0 0 539.14 650.60
  C 540.31 641.11 549.73 635.18 558.26 633.38
  Q 583.01 628.13 603.80 642.50
  A 2.92 2.91 59.3 0 0 605.79 643.01
  Q 615.92 641.96 623.55 640.20
  Q 625.53 639.74 626.30 639.31
  Q 634.99 634.46 638.54 632.08
  Q 643.46 628.79 644.61 624.81
  C 646.50 618.29 648.41 608.50 651.09 601.02
  Q 654.62 591.14 658.89 581.63
  A 2.09 2.08 41.1 0 0 658.75 579.66
  Q 654.11 572.23 650.21 566.79
  Q 639.86 552.36 622.70 547.56
  Q 618.60 546.41 602.30 542.44
  Q 589.53 539.33 576.71 528.16
  C 569.64 521.99 561.83 513.83 554.57 508.83
  C 537.36 496.97 516.59 491.57 495.75 495.07
  A 0.76 0.75 86.0 0 0 495.12 495.81
  Q 494.95 508.82 497.14 520.89
  Q 499.79 535.41 500.79 542.43
  Q 500.87 542.97 501.41 543.01
  Q 506.74 543.45 511.01 547.48"
/>
<path stroke="#706d6e" vector-effect="non-scaling-stroke" d="
  M 523.3251 681.7773
  A 1.15 0.71 65.6 0 0 523.4966 680.4367
  A 1.15 0.71 65.6 0 0 522.3749 679.6827
  A 1.15 0.71 65.6 0 0 522.2034 681.0233
  A 1.15 0.71 65.6 0 0 523.3251 681.7773"
/>
<path stroke="#919090" vector-effect="non-scaling-stroke" d="
  M 52.84 561.83
  Q 63.37 562.24 70.58 564.90
  Q 78.50 567.83 80.90 568.70
  Q 83.40 569.60 85.51 569.33
  Q 89.12 568.86 93.00 569.29
  A 0.38 0.34 81.7 0 0 93.34 568.78
  Q 93.18 568.37 89.48 559.74
  Q 85.52 550.50 84.00 543.26
  C 80.59 526.99 77.50 511.47 77.65 495.50
  Q 78.07 448.63 97.09 405.82
  Q 106.66 384.28 122.75 366.10
  C 129.21 358.81 137.55 351.95 144.39 346.39
  Q 156.40 336.62 171.56 332.25
  C 172.48 331.98 173.40 331.99 174.58 331.86
  Q 175.10 331.80 174.75 331.40
  Q 174.03 330.60 169.10 328.70
  Q 155.08 323.29 140.76 318.00"
/>
<path stroke="#5a5758" vector-effect="non-scaling-stroke" d="
  M 593.05 556.95
  C 585.88 556.40 582.49 556.25 576.83 552.75
  Q 575.76 552.09 575.76 553.34
  L 575.76 553.73
  A 2.76 2.73 -66.8 0 0 576.50 555.61
  Q 578.88 558.18 582.23 559.30
  C 585.72 560.46 590.65 560.73 593.74 562.35
  C 597.84 564.52 600.59 567.62 604.11 571.38
  C 605.72 573.09 607.89 573.74 610.00 572.75
  A 1.05 1.04 83.5 0 0 610.57 572.03
  C 611.42 568.09 604.55 562.45 601.89 560.67
  Q 596.73 557.24 593.05 556.95"
/>
<path stroke="#5a5758" vector-effect="non-scaling-stroke" d="
  M 430.42 638.31
  C 420.87 640.03 414.05 638.38 408.18 630.79
  A 1.88 1.55 38.8 0 0 405.16 630.83
  Q 404.88 631.64 405.72 632.87
  Q 411.82 641.73 423.06 641.07
  Q 427.65 640.79 430.36 639.78
  A 0.77 0.77 0.0 0 0 430.85 639.06
  L 430.85 638.67
  A 0.37 0.36 84.8 0 0 430.42 638.31"
/>
</g>
<path fill="#ffffff" d="
  M 1000.00 471.69
  L 1000.00 555.70
  Q 994.44 557.73 988.75 559.69
  Q 982.07 562.01 977.59 563.90
  Q 953.30 574.13 933.03 589.28
  Q 884.46 625.60 865.60 683.15
  C 858.70 704.20 855.43 726.97 854.93 749.01
  C 854.29 776.53 857.67 804.20 863.57 831.42
  A 1.78 1.75 -29.0 0 1 863.09 833.05
  L 808.66 887.48
  A 1.24 1.23 -57.0 0 1 807.37 887.76
  C 787.86 880.35 767.55 875.49 746.94 872.56
  C 721.11 868.90 694.01 869.30 668.30 875.70
  C 631.94 884.76 602.43 906.20 582.51 938.27
  Q 569.75 958.82 562.68 981.83
  Q 560.02 990.47 557.57 998.53
  Q 557.43 998.97 556.97 998.97
  L 447.21 998.97
  A 1.24 1.22 79.7 0 1 446.06 998.16
  C 423.87 937.04 377.62 882.60 312.00 867.78
  C 283.69 861.39 254.25 862.59 225.47 868.98
  Q 196.17 875.48 168.56 887.77
  A 0.82 0.82 0.0 0 1 167.65 887.61
  L 112.24 832.82
  A 0.40 0.38 28.9 0 1 112.13 832.47
  Q 125.16 774.35 120.91 715.03
  Q 118.82 685.79 110.92 657.60
  C 101.29 623.25 84.20 592.32 58.70 567.10
  Q 65.25 569.11 71.44 571.57
  Q 90.77 579.24 109.95 587.27
  C 119.79 591.39 129.19 592.63 138.69 595.14
  Q 145.39 596.92 149.18 597.05
  Q 159.39 597.39 166.35 595.11
  C 177.76 591.36 191.69 582.06 195.11 569.82
  A 0.61 0.61 0.0 0 0 194.34 569.07
  Q 190.39 570.29 187.31 572.81
  C 173.83 583.83 161.65 592.11 143.16 587.80
  C 121.66 582.79 103.75 567.32 95.59 546.85
  Q 89.26 530.96 87.40 512.72
  C 83.36 473.17 92.33 432.64 111.27 397.81
  Q 120.45 380.93 133.02 368.03
  C 150.99 349.59 179.11 338.19 204.43 347.95
  Q 215.52 352.22 222.20 361.18
  C 228.21 369.25 231.84 384.30 230.92 394.19
  A 0.49 0.49 0.0 0 0 231.64 394.67
  Q 232.76 394.06 233.33 392.81
  Q 239.83 378.31 234.32 364.33
  C 230.72 355.19 223.26 347.38 214.59 342.38
  C 210.14 339.81 204.29 337.65 198.95 334.72
  Q 183.32 326.12 164.93 319.88
  Q 151.93 315.46 147.49 313.78
  Q 144.68 312.71 141.74 312.37
  Q 144.95 289.93 141.02 267.99
  C 136.50 242.78 125.78 217.65 112.32 195.39
  Q 112.13 195.07 112.39 194.80
  L 195.08 112.11
  A 0.86 0.85 36.1 0 1 196.08 111.96
  Q 206.05 117.24 218.08 121.46
  C 263.42 137.36 313.18 137.35 356.80 117.76
  Q 391.62 102.12 418.70 74.69
  C 422.35 70.99 428.40 65.07 432.69 60.04
  C 448.65 41.32 461.58 22.30 473.43 1.56
  A 1.76 1.74 14.5 0 1 474.96 0.67
  L 556.74 0.67
  A 1.24 1.23 -10.2 0 1 557.90 1.47
  Q 559.06 4.59 560.06 6.72
  Q 578.09 45.26 604.41 77.22
  C 619.94 96.09 638.35 113.16 659.68 125.91
  Q 706.28 153.77 759.13 144.35
  C 785.59 139.63 811.85 127.55 834.73 112.24
  A 1.40 1.39 -39.3 0 1 836.50 112.41
  L 890.68 166.59
  A 1.99 1.98 -62.6 0 1 891.23 168.34
  C 883.65 209.24 880.19 250.97 882.09 292.29
  C 883.36 319.74 887.44 347.36 895.44 372.58
  Q 901.25 390.92 911.35 408.95
  C 925.84 434.81 949.06 455.48 977.24 465.51
  Q 987.50 469.17 1000.00 471.69
  Z
  M 796.89 511.25
  Q 797.05 514.12 800.27 515.03
  Q 808.34 517.31 815.87 516.58
  C 841.05 514.14 851.96 489.42 855.39 467.73
  Q 858.26 449.57 857.74 432.61
  C 856.99 408.80 854.03 385.62 846.84 362.65
  C 838.20 335.00 820.43 305.24 791.39 295.85
  Q 780.57 292.36 767.54 294.88
  C 777.61 288.81 791.08 284.88 802.66 287.38
  C 806.66 288.24 809.77 289.25 812.91 288.23
  Q 813.39 288.07 813.47 287.57
  C 814.38 281.49 809.18 279.93 804.29 279.15
  Q 784.67 276.00 767.60 283.95
  Q 766.50 284.47 767.31 283.56
  Q 772.24 278.01 779.85 271.34
  Q 795.26 257.83 805.83 250.07
  Q 812.81 244.94 817.84 239.43
  C 819.86 237.21 820.92 235.09 821.50 232.34
  A 0.44 0.44 0.0 0 0 820.86 231.86
  C 819.02 232.84 816.61 234.09 814.97 235.38
  Q 803.10 244.75 794.88 250.72
  C 784.45 258.28 778.09 264.47 765.12 275.87
  Q 755.40 284.41 746.93 298.66
  C 745.21 301.56 741.76 305.19 739.77 308.50
  C 730.27 324.27 726.15 340.73 731.57 358.64
  Q 732.52 361.78 735.80 363.48
  A 0.70 0.69 -48.1 0 1 735.86 364.68
  Q 716.58 377.35 695.45 395.45
  C 691.21 399.08 679.57 409.88 670.75 417.75
  Q 655.08 431.73 642.12 448.62
  Q 637.68 454.42 638.01 461.44
  A 0.84 0.84 0.0 0 0 639.36 462.06
  Q 641.21 460.63 642.34 459.34
  Q 645.44 455.82 655.20 443.71
  Q 662.47 434.70 675.76 422.51
  Q 692.11 407.51 709.54 393.30
  Q 725.34 380.43 751.42 363.64
  Q 771.24 350.89 793.62 340.85
  A 1.52 1.50 -33.4 0 1 795.34 341.19
  C 807.41 354.00 815.76 371.03 821.57 387.96
  Q 830.17 413.04 832.70 438.97
  Q 832.74 439.45 832.25 439.43
  Q 829.14 439.30 828.77 439.29
  Q 826.61 439.25 818.94 442.13
  Q 805.58 447.17 792.60 453.12
  Q 774.79 461.29 756.68 474.43
  Q 742.74 484.54 740.51 486.19
  Q 732.27 492.27 724.79 499.28
  C 720.05 503.72 717.59 505.93 717.91 512.19
  Q 717.99 513.77 719.51 513.30
  Q 721.54 512.68 723.35 511.10
  Q 727.22 507.73 733.64 501.39
  Q 738.71 496.38 751.13 487.39
  Q 755.19 484.45 767.32 476.08
  Q 771.62 473.12 776.03 470.74
  A 0.69 0.69 0.0 0 1 776.96 471.01
  C 780.54 477.22 785.34 484.20 789.35 489.26
  Q 796.42 498.17 804.69 503.23
  Q 806.00 504.03 804.48 503.88
  C 799.89 503.42 794.68 500.12 791.21 497.38
  Q 782.06 490.14 776.28 485.93
  C 774.72 484.80 773.54 483.42 772.23 482.33
  A 0.57 0.57 0.0 0 0 771.30 482.69
  Q 771.24 483.16 771.43 483.82
  C 775.10 496.44 785.24 505.81 796.89 511.25
  Z
  M 472.07 419.46
  L 474.53 413.54
  L 491.05 430.77
  A 2.02 2.02 0.0 0 1 491.58 432.52
  Q 488.13 451.95 487.12 467.01
  Q 485.99 483.88 485.82 487.53
  Q 485.80 488.03 485.32 488.16
  Q 474.71 490.98 462.91 496.68
  Q 442.85 506.36 426.87 519.11
  C 415.98 527.80 408.77 535.51 403.09 546.73
  C 399.53 553.75 395.44 563.85 388.88 568.89
  Q 378.57 576.80 377.41 577.70
  A 0.33 0.33 0.0 0 1 376.88 577.41
  Q 377.25 573.45 377.61 564.88
  Q 377.63 564.57 377.48 564.40
  Q 377.36 564.25 377.19 564.20
  Q 376.69 564.04 376.43 564.49
  Q 373.43 569.81 372.24 574.00
  Q 367.31 591.49 367.73 610.26
  Q 367.78 612.34 368.06 613.04
  C 375.92 632.35 382.67 653.84 384.10 674.43
  Q 384.70 683.11 381.96 691.25
  C 379.74 697.82 371.73 705.90 364.42 701.41
  Q 360.84 699.21 358.78 696.25
  Q 352.67 687.45 348.22 677.04
  C 339.70 657.13 332.58 639.92 326.05 620.96
  Q 323.91 614.73 322.41 608.81
  C 321.86 606.67 322.00 604.02 321.77 602.22
  Q 321.40 599.41 321.66 597.26
  C 322.14 593.19 321.90 587.92 322.43 583.09
  Q 324.31 566.00 327.34 546.55
  Q 327.96 542.62 328.15 538.88
  A 1.15 1.14 -14.8 0 0 326.39 537.86
  C 322.28 540.48 320.07 547.97 319.22 552.48
  A 0.41 0.40 -67.1 0 1 318.59 552.74
  Q 312.77 548.61 305.23 545.52
  Q 279.92 535.15 257.99 529.34
  Q 242.46 525.23 219.97 520.12
  Q 185.29 512.23 152.42 510.35
  Q 151.92 510.32 151.87 509.82
  Q 150.67 496.53 150.67 492.96
  Q 150.68 468.15 157.16 442.52
  Q 162.88 419.90 176.66 403.14
  Q 180.09 398.97 182.24 397.43
  Q 191.43 390.82 201.15 395.44
  Q 256.37 421.73 268.40 427.43
  Q 290.09 437.71 306.62 443.92
  Q 328.41 452.11 364.94 460.44
  C 390.25 466.22 417.39 472.49 431.68 495.84
  Q 435.17 501.55 438.08 506.91
  A 0.70 0.69 -50.7 0 0 439.35 506.78
  C 442.39 497.09 434.29 485.30 427.55 478.96
  C 415.94 468.05 401.67 461.67 386.67 458.06
  Q 345.15 448.08 337.38 445.89
  Q 309.83 438.12 282.39 425.35
  Q 245.01 407.95 221.81 396.67
  Q 220.35 395.96 216.26 393.61
  Q 217.82 392.05 216.62 389.66
  C 209.92 376.37 196.24 367.81 181.32 369.41
  C 162.80 371.41 147.30 390.76 139.10 406.13
  C 124.20 434.04 117.63 465.72 118.40 498.26
  Q 118.93 520.55 126.17 541.22
  C 132.78 560.13 147.38 579.14 170.34 573.83
  C 178.41 571.97 187.71 567.22 191.60 559.75
  A 0.76 0.71 -77.0 0 0 190.96 558.64
  Q 190.57 558.67 190.31 557.64
  Q 206.38 551.13 210.44 535.28
  A 0.56 0.55 -69.3 0 0 210.16 534.65
  Q 210.00 534.56 209.80 534.60
  Q 209.56 534.64 209.28 535.02
  Q 200.97 546.42 187.34 550.86
  Q 186.66 551.08 187.09 550.51
  Q 195.43 539.65 199.90 524.53
  Q 200.14 523.70 200.98 523.87
  Q 233.44 530.27 266.98 539.32
  C 278.22 542.35 292.99 548.76 299.46 551.08
  C 305.45 553.22 310.81 556.29 316.94 558.69
  A 1.35 1.34 15.4 0 1 317.78 560.15
  Q 315.25 575.87 314.50 592.75
  C 314.04 602.96 314.64 610.07 317.00 617.33
  Q 326.50 646.69 339.75 676.22
  C 345.13 688.21 348.72 696.49 356.38 704.57
  Q 360.64 709.07 367.98 710.03
  Q 369.27 710.20 375.12 709.10
  Q 379.01 708.36 381.44 706.41
  Q 387.37 701.65 390.21 696.75
  Q 395.06 688.40 395.67 677.82
  Q 395.70 677.23 396.26 677.42
  C 401.80 679.28 406.72 679.01 412.79 678.95
  C 415.41 678.93 417.06 679.63 419.62 680.38
  Q 420.12 680.53 419.93 681.01
  L 417.18 688.14
  Q 416.43 690.08 418.14 688.88
  C 423.53 685.07 431.77 674.64 440.86 667.49
  C 451.90 658.80 467.60 649.97 480.25 661.32
  Q 484.11 664.79 481.70 669.90
  C 478.07 677.60 471.67 683.93 465.38 689.11
  Q 443.39 707.23 414.99 722.20
  C 409.31 725.19 404.91 728.05 399.24 727.49
  Q 394.26 727.01 389.40 725.41
  Q 374.42 720.48 359.54 712.48
  C 342.57 703.36 327.82 694.81 312.77 684.24
  Q 307.28 680.39 305.90 678.32
  Q 304.43 676.12 303.52 668.99
  Q 303.26 666.95 303.43 660.67
  Q 303.54 656.68 304.01 652.36
  Q 305.63 637.42 306.57 626.83
  C 307.32 618.32 307.80 609.13 306.50 599.28
  Q 305.63 592.67 301.59 588.03
  Q 299.18 585.27 299.05 588.93
  Q 299.01 590.20 299.20 592.99
  Q 300.35 609.21 299.54 618.52
  Q 298.27 633.05 296.43 651.03
  Q 295.87 656.53 295.80 661.48
  C 295.67 670.32 295.65 680.20 301.85 685.58
  Q 306.69 689.79 311.42 693.02
  Q 335.00 709.13 361.32 721.96
  Q 376.55 729.39 388.64 732.89
  Q 396.43 735.15 401.95 735.05
  Q 407.72 734.94 415.19 731.93
  C 431.01 725.55 444.02 717.34 456.82 707.09
  C 463.88 701.43 473.08 694.78 479.51 687.02
  Q 482.32 683.62 484.98 682.05
  C 491.17 678.37 499.59 673.76 505.92 674.69
  C 509.58 675.23 513.81 677.92 514.82 681.76
  C 516.69 688.94 486.25 710.04 480.52 714.01
  C 462.01 726.84 448.93 735.87 431.58 744.76
  C 425.21 748.03 417.08 751.93 409.47 751.12
  C 394.17 749.50 379.78 745.75 364.12 740.93
  Q 349.60 736.46 338.59 732.23
  Q 331.90 729.66 329.55 727.63
  C 324.06 722.87 323.46 715.09 321.98 709.31
  A 1.19 1.19 0.0 0 0 319.95 708.81
  C 317.05 711.99 317.40 715.85 318.11 720.18
  Q 319.42 728.13 325.40 733.37
  C 328.28 735.90 331.78 737.29 335.75 738.76
  Q 366.26 750.02 391.51 755.64
  C 399.04 757.32 408.12 758.90 415.85 758.20
  Q 418.91 757.93 421.13 758.38
  Q 425.61 759.29 438.75 762.68
  Q 442.97 763.77 448.70 763.52
  C 455.22 763.24 462.28 758.31 467.26 754.03
  C 473.62 748.58 478.90 745.43 484.38 739.13
  Q 487.15 735.93 488.21 731.40
  A 1.01 1.01 0.0 0 0 486.85 730.24
  Q 484.28 731.30 481.91 733.41
  Q 468.45 745.45 455.50 753.70
  Q 451.38 756.32 449.79 756.34
  Q 442.57 756.40 435.29 754.01
  Q 434.76 753.83 435.22 753.52
  C 443.55 747.96 450.20 743.15 458.89 737.52
  Q 483.19 721.76 505.95 703.85
  C 509.22 701.28 511.91 698.77 514.62 695.89
  Q 515.04 695.44 515.21 696.03
  Q 517.30 703.16 524.84 706.97
  Q 529.53 709.34 531.73 710.05
  Q 548.04 715.33 555.86 718.18
  Q 569.75 723.25 574.80 726.19
  C 583.91 731.48 593.66 737.12 604.37 733.86
  C 610.41 732.03 615.65 730.09 618.98 725.18
  A 0.38 0.38 0.0 0 0 618.71 724.59
  Q 617.82 724.48 616.75 724.73
  Q 609.91 726.27 603.11 728.10
  C 595.74 730.09 590.98 727.41 583.28 723.57
  C 573.72 718.80 563.96 713.30 553.77 709.98
  Q 541.36 705.94 532.24 702.32
  Q 527.76 700.54 524.73 698.10
  C 522.37 696.19 521.01 692.50 523.26 689.93
  C 525.52 687.35 531.54 684.70 535.06 686.04
  C 555.35 693.74 574.31 700.95 594.03 707.74
  Q 602.87 710.79 621.85 717.70
  Q 631.14 721.09 635.08 721.49
  C 646.94 722.71 661.48 720.16 671.57 713.15
  C 673.81 711.59 675.58 708.66 677.65 706.88
  Q 679.97 704.89 676.98 705.51
  C 674.01 706.12 671.28 706.38 668.18 707.58
  C 656.44 712.12 645.28 717.11 633.44 713.91
  Q 624.78 711.58 614.46 707.61
  Q 572.35 691.39 547.09 681.82
  C 541.05 679.54 534.42 676.51 529.93 674.18
  Q 525.56 671.91 523.30 669.77
  Q 522.05 668.59 522.12 666.26
  C 522.36 658.44 530.66 656.00 537.00 658.15
  Q 541.49 659.66 552.77 664.76
  C 563.86 669.77 575.21 674.08 584.99 677.76
  C 592.67 680.65 603.42 683.01 611.28 685.53
  C 622.62 689.16 636.73 693.17 649.65 697.89
  Q 655.59 700.06 659.07 700.14
  Q 664.08 700.25 668.83 698.59
  Q 688.32 691.78 704.25 678.54
  C 706.41 676.75 708.70 674.29 709.68 671.90
  C 716.17 656.11 720.58 639.29 725.87 621.08
  Q 728.62 611.66 728.03 602.34
  Q 727.86 599.64 726.36 601.90
  Q 724.41 604.83 722.89 608.89
  C 718.26 621.23 715.53 631.61 709.12 653.37
  Q 705.56 665.45 703.81 668.55
  Q 702.00 671.78 699.12 674.12
  C 689.44 681.99 667.19 697.12 654.15 692.12
  Q 650.16 690.59 645.52 689.07
  Q 601.17 674.56 592.02 671.45
  Q 583.69 668.62 570.36 663.44
  Q 561.70 660.08 552.61 654.88
  Q 550.06 653.42 547.54 651.05
  Q 547.14 650.69 547.37 650.19
  C 549.68 645.09 554.78 642.50 560.05 640.80
  Q 563.20 639.79 567.85 639.67
  Q 574.35 639.49 575.77 639.69
  Q 591.27 641.78 603.61 651.92
  Q 610.31 657.42 612.16 658.85
  Q 613.22 659.66 614.70 659.75
  Q 615.14 659.78 615.19 659.34
  Q 615.82 653.71 612.08 650.48
  A 0.46 0.46 0.0 0 1 612.34 649.68
  C 621.61 648.89 629.17 646.98 637.62 641.38
  Q 639.73 639.98 641.67 639.57
  A 0.87 0.87 0.0 0 1 642.70 640.25
  Q 642.81 640.82 644.02 646.56
  Q 646.20 656.95 653.00 666.09
  C 656.29 670.52 661.42 673.21 666.34 675.77
  C 676.07 680.82 686.23 675.10 691.21 666.19
  C 698.37 653.37 700.40 638.49 703.22 622.95
  C 704.45 616.23 706.50 611.39 709.34 605.60
  C 716.53 590.94 722.44 578.44 724.80 563.81
  Q 725.84 557.41 724.77 552.31
  Q 723.44 545.92 721.41 540.69
  Q 711.74 515.76 693.48 494.86
  Q 685.19 485.37 673.61 481.55
  Q 670.63 480.56 672.91 482.73
  Q 685.18 494.39 695.83 508.43
  Q 706.84 522.95 714.26 540.38
  C 716.90 546.60 719.64 554.31 718.79 561.04
  C 716.89 576.12 709.48 590.06 702.38 603.83
  C 700.28 607.91 697.94 613.19 697.10 617.17
  Q 694.14 631.16 692.47 638.71
  C 690.84 646.07 684.36 671.88 672.51 668.93
  C 666.29 667.38 660.55 659.87 658.18 654.32
  Q 655.36 647.70 654.75 642.29
  Q 654.38 639.00 654.44 631.11
  C 654.56 616.00 660.04 601.01 665.67 587.33
  Q 668.66 580.08 668.99 576.88
  C 669.86 568.58 667.16 560.15 660.25 555.15
  A 0.91 0.91 0.0 0 0 658.81 555.87
  Q 658.67 561.97 661.33 568.04
  Q 661.37 568.14 661.27 568.20
  L 660.99 568.36
  Q 660.88 568.43 660.81 568.31
  Q 658.83 564.91 656.71 561.63
  Q 645.29 543.97 624.29 538.78
  C 621.36 538.06 613.99 536.17 607.52 534.65
  Q 592.46 531.12 581.24 520.83
  C 574.39 514.55 566.38 506.37 559.24 501.25
  Q 544.09 490.39 524.72 486.59
  Q 510.73 483.85 495.84 485.85
  A 0.96 0.96 0.0 0 1 494.75 484.86
  Q 495.96 451.52 502.95 417.96
  Q 504.87 408.77 507.80 400.31
  Q 514.20 381.89 521.34 364.21
  C 523.21 359.59 524.39 355.07 524.62 350.30
  Q 524.69 348.79 523.62 349.86
  C 518.51 354.96 514.45 362.29 511.65 368.64
  Q 506.66 379.98 503.02 389.91
  Q 502.77 390.59 502.19 390.15
  C 492.23 382.69 485.63 371.39 485.92 358.93
  C 486.23 345.14 495.13 333.19 504.39 323.63
  C 514.06 313.66 528.46 302.29 536.57 295.11
  A 0.28 0.27 -37.3 0 1 536.98 295.16
  C 543.03 304.01 547.25 314.63 549.63 324.46
  Q 551.64 332.78 551.83 343.58
  Q 552.17 362.86 543.80 377.90
  C 542.13 380.90 541.05 383.24 538.82 384.82
  Q 531.81 389.76 522.02 392.06
  C 520.17 392.50 517.60 393.40 515.90 394.17
  A 1.02 1.02 0.0 0 0 515.66 395.87
  C 517.25 397.23 518.46 397.92 520.73 398.10
  Q 527.66 398.63 534.01 395.98
  C 552.31 388.33 563.42 371.49 566.75 351.99
  C 569.58 335.47 567.03 317.07 562.40 300.04
  Q 557.97 283.72 550.77 268.09
  A 0.49 0.49 0.0 0 0 549.90 268.06
  Q 544.31 278.17 535.67 285.91
  Q 509.55 309.34 508.29 310.54
  C 498.81 319.52 491.09 327.07 485.16 337.73
  C 476.78 352.77 476.86 369.73 487.17 383.81
  C 490.86 388.86 495.04 392.05 500.96 393.51
  A 0.75 0.75 0.0 0 1 501.48 394.49
  Q 496.50 408.39 493.30 423.42
  A 0.59 0.59 0.0 0 1 492.27 423.68
  Q 487.54 417.96 485.01 414.96
  C 483.18 412.79 479.00 409.79 478.18 408.19
  Q 477.78 407.43 477.77 406.97
  Q 477.30 392.52 467.79 382.80
  Q 451.81 366.48 427.80 365.28
  Q 421.79 364.98 415.10 365.39
  C 408.99 365.76 404.62 365.09 397.75 364.80
  Q 393.93 364.63 386.58 363.23
  C 384.26 362.79 377.19 361.90 376.26 364.78
  Q 374.90 368.95 376.76 373.12
  C 385.14 391.90 396.48 409.20 412.21 422.58
  C 419.79 429.03 429.27 434.19 439.25 435.02
  Q 453.90 436.24 467.08 428.09
  C 468.94 426.94 473.36 423.38 473.48 420.73
  Q 473.50 420.19 473.02 419.95
  L 472.07 419.46
  Z
  M 891.39 500.98
  C 897.24 487.28 900.10 471.27 901.46 456.50
  Q 902.17 448.85 901.82 427.81
  C 901.63 415.68 899.79 404.05 897.35 392.90
  Q 889.17 355.39 867.26 325.12
  Q 857.92 312.21 847.36 303.45
  Q 842.46 299.39 837.42 298.37
  A 0.48 0.48 0.0 0 0 836.86 298.95
  Q 838.27 304.88 842.64 309.56
  Q 850.95 318.46 852.95 320.85
  C 883.31 357.06 894.70 403.76 892.79 450.25
  C 891.95 470.58 887.33 492.76 876.64 510.15
  Q 864.22 530.36 840.46 535.15
  Q 829.66 537.32 824.48 536.73
  C 808.58 534.90 796.45 527.99 784.87 516.97
  Q 781.99 514.22 772.55 505.60
  Q 770.99 504.17 771.27 506.27
  C 773.30 521.80 788.48 533.15 801.61 539.25
  C 826.52 550.82 857.97 544.69 876.54 524.72
  C 885.14 515.47 895.34 507.91 907.77 497.82
  Q 913.27 493.35 919.86 488.95
  Q 931.46 481.19 932.36 480.57
  Q 935.00 478.74 936.51 475.18
  A 1.10 1.10 0.0 0 0 935.40 473.66
  C 929.87 474.19 927.34 476.13 921.77 479.71
  Q 906.02 489.84 892.08 501.50
  Q 890.66 502.68 891.39 500.98
  Z
  M 598.59 482.60
  C 603.13 481.44 615.34 483.53 617.20 477.87
  A 1.63 1.63 0.0 0 0 616.19 475.82
  C 608.95 473.29 598.46 474.33 591.81 476.33
  Q 586.25 478.01 581.40 479.90
  C 575.83 482.06 568.00 487.07 565.15 493.20
  C 563.99 495.69 567.18 497.97 569.28 497.41
  Q 570.29 497.14 571.89 495.61
  C 578.80 488.96 589.25 485.00 598.59 482.60
  Z"
/>
<path fill="#232021" d="
  M 767.54 294.88
  Q 755.03 301.30 746.64 314.90
  C 741.32 323.50 737.04 333.84 737.53 343.51
  Q 737.83 349.43 739.41 354.98
  Q 739.84 356.50 739.97 354.92
  Q 741.08 342.04 748.26 331.27
  C 754.81 321.43 765.14 318.56 776.49 320.34
  C 786.88 321.97 797.82 329.80 804.94 338.39
  C 816.39 352.23 823.93 367.75 829.77 385.05
  Q 836.93 406.25 840.35 430.95
  C 843.62 454.65 843.77 505.11 812.02 512.00
  Q 804.19 513.69 796.89 511.25
  C 785.24 505.81 775.10 496.44 771.43 483.82
  Q 771.24 483.16 771.30 482.69
  A 0.57 0.57 0.0 0 1 772.23 482.33
  C 773.54 483.42 774.72 484.80 776.28 485.93
  Q 782.06 490.14 791.21 497.38
  C 794.68 500.12 799.89 503.42 804.48 503.88
  Q 806.00 504.03 804.69 503.23
  Q 796.42 498.17 789.35 489.26
  C 785.34 484.20 780.54 477.22 776.96 471.01
  A 0.69 0.69 0.0 0 0 776.03 470.74
  Q 771.62 473.12 767.32 476.08
  Q 755.19 484.45 751.13 487.39
  Q 738.71 496.38 733.64 501.39
  Q 727.22 507.73 723.35 511.10
  Q 721.54 512.68 719.51 513.30
  Q 717.99 513.77 717.91 512.19
  C 717.59 505.93 720.05 503.72 724.79 499.28
  Q 732.27 492.27 740.51 486.19
  Q 742.74 484.54 756.68 474.43
  Q 774.79 461.29 792.60 453.12
  Q 805.58 447.17 818.94 442.13
  Q 826.61 439.25 828.77 439.29
  Q 829.14 439.30 832.25 439.43
  Q 832.74 439.45 832.70 438.97
  Q 830.17 413.04 821.57 387.96
  C 815.76 371.03 807.41 354.00 795.34 341.19
  A 1.52 1.50 -33.4 0 0 793.62 340.85
  Q 771.24 350.89 751.42 363.64
  Q 725.34 380.43 709.54 393.30
  Q 692.11 407.51 675.76 422.51
  Q 662.47 434.70 655.20 443.71
  Q 645.44 455.82 642.34 459.34
  Q 641.21 460.63 639.36 462.06
  A 0.84 0.84 0.0 0 1 638.01 461.44
  Q 637.68 454.42 642.12 448.62
  Q 655.08 431.73 670.75 417.75
  C 679.57 409.88 691.21 399.08 695.45 395.45
  Q 716.58 377.35 735.86 364.68
  A 0.70 0.69 -48.1 0 0 735.80 363.48
  Q 732.52 361.78 731.57 358.64
  C 726.15 340.73 730.27 324.27 739.77 308.50
  C 741.76 305.19 745.21 301.56 746.93 298.66
  Q 755.40 284.41 765.12 275.87
  C 778.09 264.47 784.45 258.28 794.88 250.72
  Q 803.10 244.75 814.97 235.38
  C 816.61 234.09 819.02 232.84 820.86 231.86
  A 0.44 0.44 0.0 0 1 821.50 232.34
  C 820.92 235.09 819.86 237.21 817.84 239.43
  Q 812.81 244.94 805.83 250.07
  Q 795.26 257.83 779.85 271.34
  Q 772.24 278.01 767.31 283.56
  Q 766.50 284.47 767.60 283.95
  Q 784.67 276.00 804.29 279.15
  C 809.18 279.93 814.38 281.49 813.47 287.57
  Q 813.39 288.07 812.91 288.23
  C 809.77 289.25 806.66 288.24 802.66 287.38
  C 791.08 284.88 777.61 288.81 767.54 294.88
  Z
  M 750.75 355.09
  Q 751.67 354.56 751.70 353.51
  Q 751.76 350.83 752.49 345.20
  Q 753.30 339.00 751.06 344.84
  Q 749.20 349.69 747.17 356.26
  Q 746.83 357.36 747.82 356.79
  L 750.75 355.09
  Z"
/>
<path fill="#232021" d="
  M 190.31 557.64
  Q 184.81 559.58 178.88 559.78
  Q 173.32 559.97 169.46 558.47
  C 156.65 553.49 148.95 536.38 146.25 524.03
  C 141.62 502.84 141.77 481.01 145.10 459.10
  C 147.51 443.25 150.66 427.38 157.79 412.79
  C 163.82 400.45 174.78 388.19 188.42 386.44
  Q 197.85 385.23 203.88 388.08
  Q 210.01 390.98 216.26 393.61
  Q 220.35 395.96 221.81 396.67
  Q 245.01 407.95 282.39 425.35
  Q 309.83 438.12 337.38 445.89
  Q 345.15 448.08 386.67 458.06
  C 401.67 461.67 415.94 468.05 427.55 478.96
  C 434.29 485.30 442.39 497.09 439.35 506.78
  A 0.70 0.69 -50.7 0 1 438.08 506.91
  Q 435.17 501.55 431.68 495.84
  C 417.39 472.49 390.25 466.22 364.94 460.44
  Q 328.41 452.11 306.62 443.92
  Q 290.09 437.71 268.40 427.43
  Q 256.37 421.73 201.15 395.44
  Q 191.43 390.82 182.24 397.43
  Q 180.09 398.97 176.66 403.14
  Q 162.88 419.90 157.16 442.52
  Q 150.68 468.15 150.67 492.96
  Q 150.67 496.53 151.87 509.82
  Q 151.92 510.32 152.42 510.35
  Q 185.29 512.23 219.97 520.12
  Q 242.46 525.23 257.99 529.34
  Q 279.92 535.15 305.23 545.52
  Q 312.77 548.61 318.59 552.74
  A 0.41 0.40 -67.1 0 0 319.22 552.48
  C 320.07 547.97 322.28 540.48 326.39 537.86
  A 1.15 1.14 -14.8 0 1 328.15 538.88
  Q 327.96 542.62 327.34 546.55
  Q 324.31 566.00 322.43 583.09
  C 321.90 587.92 322.14 593.19 321.66 597.26
  Q 321.40 599.41 321.77 602.22
  C 322.00 604.02 321.86 606.67 322.41 608.81
  Q 323.91 614.73 326.05 620.96
  C 332.58 639.92 339.70 657.13 348.22 677.04
  Q 352.67 687.45 358.78 696.25
  Q 360.84 699.21 364.42 701.41
  C 371.73 705.90 379.74 697.82 381.96 691.25
  Q 384.70 683.11 384.10 674.43
  C 382.67 653.84 375.92 632.35 368.06 613.04
  Q 367.78 612.34 367.73 610.26
  Q 367.31 591.49 372.24 574.00
  Q 373.43 569.81 376.43 564.49
  Q 376.69 564.04 377.19 564.20
  Q 377.36 564.25 377.48 564.40
  Q 377.63 564.57 377.61 564.88
  Q 377.25 573.45 376.88 577.41
  A 0.33 0.33 0.0 0 0 377.41 577.70
  Q 378.57 576.80 388.88 568.89
  C 395.44 563.85 399.53 553.75 403.09 546.73
  C 408.77 535.51 415.98 527.80 426.87 519.11
  Q 442.85 506.36 462.91 496.68
  Q 474.71 490.98 485.32 488.16
  Q 485.80 488.03 485.82 487.53
  Q 485.99 483.88 487.12 467.01
  Q 488.13 451.95 491.58 432.52
  A 2.02 2.02 0.0 0 0 491.05 430.77
  L 474.53 413.54
  Q 468.46 408.90 461.83 404.94
  C 457.09 402.11 452.76 401.07 447.98 399.20
  Q 446.63 398.67 447.21 397.33
  Q 447.45 396.79 448.55 396.23
  C 454.47 393.22 463.91 399.05 469.35 402.26
  Q 470.40 402.88 470.00 401.72
  C 464.93 387.00 452.40 379.41 438.12 375.27
  C 429.54 372.79 419.56 373.44 410.87 373.84
  A 0.29 0.29 0.0 0 0 410.60 374.20
  C 416.53 398.19 432.73 417.58 457.43 423.43
  C 458.39 423.66 458.85 423.49 459.68 423.11
  Q 467.03 419.75 467.19 419.68
  Q 469.39 418.68 472.07 419.46
  L 473.02 419.95
  Q 473.50 420.19 473.48 420.73
  C 473.36 423.38 468.94 426.94 467.08 428.09
  Q 453.90 436.24 439.25 435.02
  C 429.27 434.19 419.79 429.03 412.21 422.58
  C 396.48 409.20 385.14 391.90 376.76 373.12
  Q 374.90 368.95 376.26 364.78
  C 377.19 361.90 384.26 362.79 386.58 363.23
  Q 393.93 364.63 397.75 364.80
  C 404.62 365.09 408.99 365.76 415.10 365.39
  Q 421.79 364.98 427.80 365.28
  Q 451.81 366.48 467.79 382.80
  Q 477.30 392.52 477.77 406.97
  Q 477.78 407.43 478.18 408.19
  C 479.00 409.79 483.18 412.79 485.01 414.96
  Q 487.54 417.96 492.27 423.68
  A 0.59 0.59 0.0 0 0 493.30 423.42
  Q 496.50 408.39 501.48 394.49
  A 0.75 0.75 0.0 0 0 500.96 393.51
  C 495.04 392.05 490.86 388.86 487.17 383.81
  C 476.86 369.73 476.78 352.77 485.16 337.73
  C 491.09 327.07 498.81 319.52 508.29 310.54
  Q 509.55 309.34 535.67 285.91
  Q 544.31 278.17 549.90 268.06
  A 0.49 0.49 0.0 0 1 550.77 268.09
  Q 557.97 283.72 562.40 300.04
  C 567.03 317.07 569.58 335.47 566.75 351.99
  C 563.42 371.49 552.31 388.33 534.01 395.98
  Q 527.66 398.63 520.73 398.10
  C 518.46 397.92 517.25 397.23 515.66 395.87
  A 1.02 1.02 0.0 0 1 515.90 394.17
  C 517.60 393.40 520.17 392.50 522.02 392.06
  Q 531.81 389.76 538.82 384.82
  C 541.05 383.24 542.13 380.90 543.80 377.90
  Q 552.17 362.86 551.83 343.58
  Q 551.64 332.78 549.63 324.46
  C 547.25 314.63 543.03 304.01 536.98 295.16
  A 0.28 0.27 -37.3 0 0 536.57 295.11
  C 528.46 302.29 514.06 313.66 504.39 323.63
  C 495.13 333.19 486.23 345.14 485.92 358.93
  C 485.63 371.39 492.23 382.69 502.19 390.15
  Q 502.77 390.59 503.02 389.91
  Q 506.66 379.98 511.65 368.64
  C 514.45 362.29 518.51 354.96 523.62 349.86
  Q 524.69 348.79 524.62 350.30
  C 524.39 355.07 523.21 359.59 521.34 364.21
  Q 514.20 381.89 507.80 400.31
  Q 504.87 408.77 502.95 417.96
  Q 495.96 451.52 494.75 484.86
  A 0.96 0.96 0.0 0 0 495.84 485.85
  Q 510.73 483.85 524.72 486.59
  Q 544.09 490.39 559.24 501.25
  C 566.38 506.37 574.39 514.55 581.24 520.83
  Q 592.46 531.12 607.52 534.65
  C 613.99 536.17 621.36 538.06 624.29 538.78
  Q 645.29 543.97 656.71 561.63
  Q 658.83 564.91 660.81 568.31
  Q 660.88 568.43 660.99 568.36
  L 661.27 568.20
  Q 661.37 568.14 661.33 568.04
  Q 658.67 561.97 658.81 555.87
  A 0.91 0.91 0.0 0 1 660.25 555.15
  C 667.16 560.15 669.86 568.58 668.99 576.88
  Q 668.66 580.08 665.67 587.33
  C 660.04 601.01 654.56 616.00 654.44 631.11
  Q 654.38 639.00 654.75 642.29
  Q 655.36 647.70 658.18 654.32
  C 660.55 659.87 666.29 667.38 672.51 668.93
  C 684.36 671.88 690.84 646.07 692.47 638.71
  Q 694.14 631.16 697.10 617.17
  C 697.94 613.19 700.28 607.91 702.38 603.83
  C 709.48 590.06 716.89 576.12 718.79 561.04
  C 719.64 554.31 716.90 546.60 714.26 540.38
  Q 706.84 522.95 695.83 508.43
  Q 685.18 494.39 672.91 482.73
  Q 670.63 480.56 673.61 481.55
  Q 685.19 485.37 693.48 494.86
  Q 711.74 515.76 721.41 540.69
  Q 723.44 545.92 724.77 552.31
  Q 725.84 557.41 724.80 563.81
  C 722.44 578.44 716.53 590.94 709.34 605.60
  C 706.50 611.39 704.45 616.23 703.22 622.95
  C 700.40 638.49 698.37 653.37 691.21 666.19
  C 686.23 675.10 676.07 680.82 666.34 675.77
  C 661.42 673.21 656.29 670.52 653.00 666.09
  Q 646.20 656.95 644.02 646.56
  Q 642.81 640.82 642.70 640.25
  A 0.87 0.87 0.0 0 0 641.67 639.57
  Q 639.73 639.98 637.62 641.38
  C 629.17 646.98 621.61 648.89 612.34 649.68
  A 0.46 0.46 0.0 0 0 612.08 650.48
  Q 615.82 653.71 615.19 659.34
  Q 615.14 659.78 614.70 659.75
  Q 613.22 659.66 612.16 658.85
  Q 610.31 657.42 603.61 651.92
  Q 591.27 641.78 575.77 639.69
  Q 574.35 639.49 567.85 639.67
  Q 563.20 639.79 560.05 640.80
  C 554.78 642.50 549.68 645.09 547.37 650.19
  Q 547.14 650.69 547.54 651.05
  Q 550.06 653.42 552.61 654.88
  Q 561.70 660.08 570.36 663.44
  Q 583.69 668.62 592.02 671.45
  Q 601.17 674.56 645.52 689.07
  Q 650.16 690.59 654.15 692.12
  C 667.19 697.12 689.44 681.99 699.12 674.12
  Q 702.00 671.78 703.81 668.55
  Q 705.56 665.45 709.12 653.37
  C 715.53 631.61 718.26 621.23 722.89 608.89
  Q 724.41 604.83 726.36 601.90
  Q 727.86 599.64 728.03 602.34
  Q 728.62 611.66 725.87 621.08
  C 720.58 639.29 716.17 656.11 709.68 671.90
  C 708.70 674.29 706.41 676.75 704.25 678.54
  Q 688.32 691.78 668.83 698.59
  Q 664.08 700.25 659.07 700.14
  Q 655.59 700.06 649.65 697.89
  C 636.73 693.17 622.62 689.16 611.28 685.53
  C 603.42 683.01 592.67 680.65 584.99 677.76
  C 575.21 674.08 563.86 669.77 552.77 664.76
  Q 541.49 659.66 537.00 658.15
  C 530.66 656.00 522.36 658.44 522.12 666.26
  Q 522.05 668.59 523.30 669.77
  Q 525.56 671.91 529.93 674.18
  C 534.42 676.51 541.05 679.54 547.09 681.82
  Q 572.35 691.39 614.46 707.61
  Q 624.78 711.58 633.44 713.91
  C 645.28 717.11 656.44 712.12 668.18 707.58
  C 671.28 706.38 674.01 706.12 676.98 705.51
  Q 679.97 704.89 677.65 706.88
  C 675.58 708.66 673.81 711.59 671.57 713.15
  C 661.48 720.16 646.94 722.71 635.08 721.49
  Q 631.14 721.09 621.85 717.70
  Q 602.87 710.79 594.03 707.74
  C 574.31 700.95 555.35 693.74 535.06 686.04
  C 531.54 684.70 525.52 687.35 523.26 689.93
  C 521.01 692.50 522.37 696.19 524.73 698.10
  Q 527.76 700.54 532.24 702.32
  Q 541.36 705.94 553.77 709.98
  C 563.96 713.30 573.72 718.80 583.28 723.57
  C 590.98 727.41 595.74 730.09 603.11 728.10
  Q 609.91 726.27 616.75 724.73
  Q 617.82 724.48 618.71 724.59
  A 0.38 0.38 0.0 0 1 618.98 725.18
  C 615.65 730.09 610.41 732.03 604.37 733.86
  C 593.66 737.12 583.91 731.48 574.80 726.19
  Q 569.75 723.25 555.86 718.18
  Q 548.04 715.33 531.73 710.05
  Q 529.53 709.34 524.84 706.97
  Q 517.30 703.16 515.21 696.03
  Q 515.04 695.44 514.62 695.89
  C 511.91 698.77 509.22 701.28 505.95 703.85
  Q 483.19 721.76 458.89 737.52
  C 450.20 743.15 443.55 747.96 435.22 753.52
  Q 434.76 753.83 435.29 754.01
  Q 442.57 756.40 449.79 756.34
  Q 451.38 756.32 455.50 753.70
  Q 468.45 745.45 481.91 733.41
  Q 484.28 731.30 486.85 730.24
  A 1.01 1.01 0.0 0 1 488.21 731.40
  Q 487.15 735.93 484.38 739.13
  C 478.90 745.43 473.62 748.58 467.26 754.03
  C 462.28 758.31 455.22 763.24 448.70 763.52
  Q 442.97 763.77 438.75 762.68
  Q 425.61 759.29 421.13 758.38
  Q 418.91 757.93 415.85 758.20
  C 408.12 758.90 399.04 757.32 391.51 755.64
  Q 366.26 750.02 335.75 738.76
  C 331.78 737.29 328.28 735.90 325.40 733.37
  Q 319.42 728.13 318.11 720.18
  C 317.40 715.85 317.05 711.99 319.95 708.81
  A 1.19 1.19 0.0 0 1 321.98 709.31
  C 323.46 715.09 324.06 722.87 329.55 727.63
  Q 331.90 729.66 338.59 732.23
  Q 349.60 736.46 364.12 740.93
  C 379.78 745.75 394.17 749.50 409.47 751.12
  C 417.08 751.93 425.21 748.03 431.58 744.76
  C 448.93 735.87 462.01 726.84 480.52 714.01
  C 486.25 710.04 516.69 688.94 514.82 681.76
  C 513.81 677.92 509.58 675.23 505.92 674.69
  C 499.59 673.76 491.17 678.37 484.98 682.05
  Q 482.32 683.62 479.51 687.02
  C 473.08 694.78 463.88 701.43 456.82 707.09
  C 444.02 717.34 431.01 725.55 415.19 731.93
  Q 407.72 734.94 401.95 735.05
  Q 396.43 735.15 388.64 732.89
  Q 376.55 729.39 361.32 721.96
  Q 335.00 709.13 311.42 693.02
  Q 306.69 689.79 301.85 685.58
  C 295.65 680.20 295.67 670.32 295.80 661.48
  Q 295.87 656.53 296.43 651.03
  Q 298.27 633.05 299.54 618.52
  Q 300.35 609.21 299.20 592.99
  Q 299.01 590.20 299.05 588.93
  Q 299.18 585.27 301.59 588.03
  Q 305.63 592.67 306.50 599.28
  C 307.80 609.13 307.32 618.32 306.57 626.83
  Q 305.63 637.42 304.01 652.36
  Q 303.54 656.68 303.43 660.67
  Q 303.26 666.95 303.52 668.99
  Q 304.43 676.12 305.90 678.32
  Q 307.28 680.39 312.77 684.24
  C 327.82 694.81 342.57 703.36 359.54 712.48
  Q 374.42 720.48 389.40 725.41
  Q 394.26 727.01 399.24 727.49
  C 404.91 728.05 409.31 725.19 414.99 722.20
  Q 443.39 707.23 465.38 689.11
  C 471.67 683.93 478.07 677.60 481.70 669.90
  Q 484.11 664.79 480.25 661.32
  C 467.60 649.97 451.90 658.80 440.86 667.49
  C 431.77 674.64 423.53 685.07 418.14 688.88
  Q 416.43 690.08 417.18 688.14
  L 419.93 681.01
  Q 420.12 680.53 419.62 680.38
  C 417.06 679.63 415.41 678.93 412.79 678.95
  C 406.72 679.01 401.80 679.28 396.26 677.42
  Q 395.70 677.23 395.67 677.82
  Q 395.06 688.40 390.21 696.75
  Q 387.37 701.65 381.44 706.41
  Q 379.01 708.36 375.12 709.10
  Q 369.27 710.20 367.98 710.03
  Q 360.64 709.07 356.38 704.57
  C 348.72 696.49 345.13 688.21 339.75 676.22
  Q 326.50 646.69 317.00 617.33
  C 314.64 610.07 314.04 602.96 314.50 592.75
  Q 315.25 575.87 317.78 560.15
  A 1.35 1.34 15.4 0 0 316.94 558.69
  C 310.81 556.29 305.45 553.22 299.46 551.08
  C 292.99 548.76 278.22 542.35 266.98 539.32
  Q 233.44 530.27 200.98 523.87
  Q 200.14 523.70 199.90 524.53
  Q 195.43 539.65 187.09 550.51
  Q 186.66 551.08 187.34 550.86
  Q 200.97 546.42 209.28 535.02
  Q 209.56 534.64 209.80 534.60
  Q 210.00 534.56 210.16 534.65
  A 0.56 0.55 -69.3 0 1 210.44 535.28
  Q 206.38 551.13 190.31 557.64
  Z
  M 511.01 547.48
  A 0.47 0.47 0.0 0 1 511.03 548.15
  C 505.28 554.13 498.28 554.63 490.27 554.58
  Q 488.08 554.56 487.23 553.09
  Q 484.92 549.09 487.77 545.83
  Q 488.63 544.84 492.81 543.04
  Q 493.27 542.84 493.12 542.37
  Q 486.95 522.04 486.45 498.79
  A 0.64 0.63 81.8 0 0 485.66 498.19
  C 467.82 502.95 451.46 513.58 436.86 523.35
  C 426.05 530.59 417.32 540.90 412.60 553.24
  C 409.18 562.15 407.06 569.50 399.68 575.38
  C 391.06 582.24 382.41 587.25 379.89 599.42
  C 379.10 603.24 379.76 609.61 381.01 612.73
  C 387.47 628.93 390.38 645.56 392.52 663.74
  Q 392.66 665.01 394.01 665.61
  Q 398.33 667.54 403.56 667.97
  Q 413.49 668.79 420.04 669.61
  C 421.78 669.83 423.68 669.52 424.70 668.46
  C 432.59 660.31 440.02 654.13 450.80 649.77
  Q 468.51 642.59 483.46 654.26
  Q 491.77 660.73 488.80 670.97
  A 0.55 0.54 -5.9 0 0 489.58 671.60
  C 496.82 667.79 505.38 665.80 513.00 669.60
  A 0.37 0.37 0.0 0 0 513.54 669.25
  C 512.52 652.99 525.50 649.43 538.60 651.02
  A 0.48 0.48 0.0 0 0 539.14 650.60
  C 540.31 641.11 549.73 635.18 558.26 633.38
  Q 583.01 628.13 603.80 642.50
  A 2.92 2.91 59.3 0 0 605.79 643.01
  Q 615.92 641.96 623.55 640.20
  Q 625.53 639.74 626.30 639.31
  Q 634.99 634.46 638.54 632.08
  Q 643.46 628.79 644.61 624.81
  C 646.50 618.29 648.41 608.50 651.09 601.02
  Q 654.62 591.14 658.89 581.63
  A 2.09 2.08 41.1 0 0 658.75 579.66
  Q 654.11 572.23 650.21 566.79
  Q 639.86 552.36 622.70 547.56
  Q 618.60 546.41 602.30 542.44
  Q 589.53 539.33 576.71 528.16
  C 569.64 521.99 561.83 513.83 554.57 508.83
  C 537.36 496.97 516.59 491.57 495.75 495.07
  A 0.76 0.75 86.0 0 0 495.12 495.81
  Q 494.95 508.82 497.14 520.89
  Q 499.79 535.41 500.79 542.43
  Q 500.87 542.97 501.41 543.01
  Q 506.74 543.45 511.01 547.48
  Z
  M 523.3251 681.7773
  A 1.15 0.71 65.6 0 0 523.4966 680.4367
  A 1.15 0.71 65.6 0 0 522.3749 679.6827
  A 1.15 0.71 65.6 0 0 522.2034 681.0233
  A 1.15 0.71 65.6 0 0 523.3251 681.7773
  Z"
/>
<path fill="#bcbabb" d="
  M 796.89 511.25
  Q 804.19 513.69 812.02 512.00
  C 843.77 505.11 843.62 454.65 840.35 430.95
  Q 836.93 406.25 829.77 385.05
  C 823.93 367.75 816.39 352.23 804.94 338.39
  C 797.82 329.80 786.88 321.97 776.49 320.34
  C 765.14 318.56 754.81 321.43 748.26 331.27
  Q 741.08 342.04 739.97 354.92
  Q 739.84 356.50 739.41 354.98
  Q 737.83 349.43 737.53 343.51
  C 737.04 333.84 741.32 323.50 746.64 314.90
  Q 755.03 301.30 767.54 294.88
  Q 780.57 292.36 791.39 295.85
  C 820.43 305.24 838.20 335.00 846.84 362.65
  C 854.03 385.62 856.99 408.80 857.74 432.61
  Q 858.26 449.57 855.39 467.73
  C 851.96 489.42 841.05 514.14 815.87 516.58
  Q 808.34 517.31 800.27 515.03
  Q 797.05 514.12 796.89 511.25
  Z"
/>
<path fill="#232021" d="
  M 891.39 500.98
  Q 890.66 502.68 892.08 501.50
  Q 906.02 489.84 921.77 479.71
  C 927.34 476.13 929.87 474.19 935.40 473.66
  A 1.10 1.10 0.0 0 1 936.51 475.18
  Q 935.00 478.74 932.36 480.57
  Q 931.46 481.19 919.86 488.95
  Q 913.27 493.35 907.77 497.82
  C 895.34 507.91 885.14 515.47 876.54 524.72
  C 857.97 544.69 826.52 550.82 801.61 539.25
  C 788.48 533.15 773.30 521.80 771.27 506.27
  Q 770.99 504.17 772.55 505.60
  Q 781.99 514.22 784.87 516.97
  C 796.45 527.99 808.58 534.90 824.48 536.73
  Q 829.66 537.32 840.46 535.15
  Q 864.22 530.36 876.64 510.15
  C 887.33 492.76 891.95 470.58 892.79 450.25
  C 894.70 403.76 883.31 357.06 852.95 320.85
  Q 850.95 318.46 842.64 309.56
  Q 838.27 304.88 836.86 298.95
  A 0.48 0.48 0.0 0 1 837.42 298.37
  Q 842.46 299.39 847.36 303.45
  Q 857.92 312.21 867.26 325.12
  Q 889.17 355.39 897.35 392.90
  C 899.79 404.05 901.63 415.68 901.82 427.81
  Q 902.17 448.85 901.46 456.50
  C 900.10 471.27 897.24 487.28 891.39 500.98
  Z"
/>
<path fill="#232021" d="
  M 58.70 567.10
  L 52.84 561.83
  Q 63.37 562.24 70.58 564.90
  Q 78.50 567.83 80.90 568.70
  Q 83.40 569.60 85.51 569.33
  Q 89.12 568.86 93.00 569.29
  A 0.38 0.34 81.7 0 0 93.34 568.78
  Q 93.18 568.37 89.48 559.74
  Q 85.52 550.50 84.00 543.26
  C 80.59 526.99 77.50 511.47 77.65 495.50
  Q 78.07 448.63 97.09 405.82
  Q 106.66 384.28 122.75 366.10
  C 129.21 358.81 137.55 351.95 144.39 346.39
  Q 156.40 336.62 171.56 332.25
  C 172.48 331.98 173.40 331.99 174.58 331.86
  Q 175.10 331.80 174.75 331.40
  Q 174.03 330.60 169.10 328.70
  Q 155.08 323.29 140.76 318.00
  L 141.74 312.37
  Q 144.68 312.71 147.49 313.78
  Q 151.93 315.46 164.93 319.88
  Q 183.32 326.12 198.95 334.72
  C 204.29 337.65 210.14 339.81 214.59 342.38
  C 223.26 347.38 230.72 355.19 234.32 364.33
  Q 239.83 378.31 233.33 392.81
  Q 232.76 394.06 231.64 394.67
  A 0.49 0.49 0.0 0 1 230.92 394.19
  C 231.84 384.30 228.21 369.25 222.20 361.18
  Q 215.52 352.22 204.43 347.95
  C 179.11 338.19 150.99 349.59 133.02 368.03
  Q 120.45 380.93 111.27 397.81
  C 92.33 432.64 83.36 473.17 87.40 512.72
  Q 89.26 530.96 95.59 546.85
  C 103.75 567.32 121.66 582.79 143.16 587.80
  C 161.65 592.11 173.83 583.83 187.31 572.81
  Q 190.39 570.29 194.34 569.07
  A 0.61 0.61 0.0 0 1 195.11 569.82
  C 191.69 582.06 177.76 591.36 166.35 595.11
  Q 159.39 597.39 149.18 597.05
  Q 145.39 596.92 138.69 595.14
  C 129.19 592.63 119.79 591.39 109.95 587.27
  Q 90.77 579.24 71.44 571.57
  Q 65.25 569.11 58.70 567.10
  Z"
/>
<path fill="#ffffff" d="
  M 52.84 561.83
  Q 39.49 550.37 29.41 544.34
  Q 15.58 536.06 0.92 529.36
  A 0.46 0.45 -78.2 0 1 0.65 528.94
  L 0.65 445.03
  A 0.74 0.73 81.4 0 1 1.16 444.33
  Q 27.21 435.99 52.35 422.35
  Q 72.89 411.20 90.80 396.29
  Q 106.90 382.90 119.26 365.80
  Q 134.91 344.15 140.76 318.00
  Q 155.08 323.29 169.10 328.70
  Q 174.03 330.60 174.75 331.40
  Q 175.10 331.80 174.58 331.86
  C 173.40 331.99 172.48 331.98 171.56 332.25
  Q 156.40 336.62 144.39 346.39
  C 137.55 351.95 129.21 358.81 122.75 366.10
  Q 106.66 384.28 97.09 405.82
  Q 78.07 448.63 77.65 495.50
  C 77.50 511.47 80.59 526.99 84.00 543.26
  Q 85.52 550.50 89.48 559.74
  Q 93.18 568.37 93.34 568.78
  A 0.38 0.34 81.7 0 1 93.00 569.29
  Q 89.12 568.86 85.51 569.33
  Q 83.40 569.60 80.90 568.70
  Q 78.50 567.83 70.58 564.90
  Q 63.37 562.24 52.84 561.83
  Z"
/>
<path fill="#ffffff" d="
  M 750.75 355.09
  L 747.82 356.79
  Q 746.83 357.36 747.17 356.26
  Q 749.20 349.69 751.06 344.84
  Q 753.30 339.00 752.49 345.20
  Q 751.76 350.83 751.70 353.51
  Q 751.67 354.56 750.75 355.09
  Z"
/>
<path fill="#bcbabb" d="
  M 216.26 393.61
  Q 210.01 390.98 203.88 388.08
  Q 197.85 385.23 188.42 386.44
  C 174.78 388.19 163.82 400.45 157.79 412.79
  C 150.66 427.38 147.51 443.25 145.10 459.10
  C 141.77 481.01 141.62 502.84 146.25 524.03
  C 148.95 536.38 156.65 553.49 169.46 558.47
  Q 173.32 559.97 178.88 559.78
  Q 184.81 559.58 190.31 557.64
  Q 190.57 558.67 190.96 558.64
  A 0.76 0.71 -77.0 0 1 191.60 559.75
  C 187.71 567.22 178.41 571.97 170.34 573.83
  C 147.38 579.14 132.78 560.13 126.17 541.22
  Q 118.93 520.55 118.40 498.26
  C 117.63 465.72 124.20 434.04 139.10 406.13
  C 147.30 390.76 162.80 371.41 181.32 369.41
  C 196.24 367.81 209.92 376.37 216.62 389.66
  Q 217.82 392.05 216.26 393.61
  Z"
/>
<path fill="#bcbabb" d="
  M 474.53 413.54
  L 472.07 419.46
  Q 469.39 418.68 467.19 419.68
  Q 467.03 419.75 459.68 423.11
  C 458.85 423.49 458.39 423.66 457.43 423.43
  C 432.73 417.58 416.53 398.19 410.60 374.20
  A 0.29 0.29 0.0 0 1 410.87 373.84
  C 419.56 373.44 429.54 372.79 438.12 375.27
  C 452.40 379.41 464.93 387.00 470.00 401.72
  Q 470.40 402.88 469.35 402.26
  C 463.91 399.05 454.47 393.22 448.55 396.23
  Q 447.45 396.79 447.21 397.33
  Q 446.63 398.67 447.98 399.20
  C 452.76 401.07 457.09 402.11 461.83 404.94
  Q 468.46 408.90 474.53 413.54
  Z"
/>
<path fill="#232021" d="
  M 598.59 482.60
  C 589.25 485.00 578.80 488.96 571.89 495.61
  Q 570.29 497.14 569.28 497.41
  C 567.18 497.97 563.99 495.69 565.15 493.20
  C 568.00 487.07 575.83 482.06 581.40 479.90
  Q 586.25 478.01 591.81 476.33
  C 598.46 474.33 608.95 473.29 616.19 475.82
  A 1.63 1.63 0.0 0 1 617.20 477.87
  C 615.34 483.53 603.13 481.44 598.59 482.60
  Z"
/>
<path fill="#908e8f" d="
  M 511.01 547.48
  Q 506.74 543.45 501.41 543.01
  Q 500.87 542.97 500.79 542.43
  Q 499.79 535.41 497.14 520.89
  Q 494.95 508.82 495.12 495.81
  A 0.76 0.75 86.0 0 1 495.75 495.07
  C 516.59 491.57 537.36 496.97 554.57 508.83
  C 561.83 513.83 569.64 521.99 576.71 528.16
  Q 589.53 539.33 602.30 542.44
  Q 618.60 546.41 622.70 547.56
  Q 639.86 552.36 650.21 566.79
  Q 654.11 572.23 658.75 579.66
  A 2.09 2.08 41.1 0 1 658.89 581.63
  Q 654.62 591.14 651.09 601.02
  C 648.41 608.50 646.50 618.29 644.61 624.81
  Q 643.46 628.79 638.54 632.08
  Q 634.99 634.46 626.30 639.31
  Q 625.53 639.74 623.55 640.20
  Q 615.92 641.96 605.79 643.01
  A 2.92 2.91 59.3 0 1 603.80 642.50
  Q 583.01 628.13 558.26 633.38
  C 549.73 635.18 540.31 641.11 539.14 650.60
  A 0.48 0.48 0.0 0 1 538.60 651.02
  C 525.50 649.43 512.52 652.99 513.54 669.25
  A 0.37 0.37 0.0 0 1 513.00 669.60
  C 505.38 665.80 496.82 667.79 489.58 671.60
  A 0.55 0.54 -5.9 0 1 488.80 670.97
  Q 491.77 660.73 483.46 654.26
  Q 468.51 642.59 450.80 649.77
  C 440.02 654.13 432.59 660.31 424.70 668.46
  C 423.68 669.52 421.78 669.83 420.04 669.61
  Q 413.49 668.79 403.56 667.97
  Q 398.33 667.54 394.01 665.61
  Q 392.66 665.01 392.52 663.74
  C 390.38 645.56 387.47 628.93 381.01 612.73
  C 379.76 609.61 379.10 603.24 379.89 599.42
  C 382.41 587.25 391.06 582.24 399.68 575.38
  C 407.06 569.50 409.18 562.15 412.60 553.24
  C 417.32 540.90 426.05 530.59 436.86 523.35
  C 451.46 513.58 467.82 502.95 485.66 498.19
  A 0.64 0.63 81.8 0 1 486.45 498.79
  Q 486.95 522.04 493.12 542.37
  Q 493.27 542.84 492.81 543.04
  Q 488.63 544.84 487.77 545.83
  Q 484.92 549.09 487.23 553.09
  Q 488.08 554.56 490.27 554.58
  C 498.28 554.63 505.28 554.13 511.03 548.15
  A 0.47 0.47 0.0 0 0 511.01 547.48
  Z
  M 593.05 556.95
  C 585.88 556.40 582.49 556.25 576.83 552.75
  Q 575.76 552.09 575.76 553.34
  L 575.76 553.73
  A 2.76 2.73 -66.8 0 0 576.50 555.61
  Q 578.88 558.18 582.23 559.30
  C 585.72 560.46 590.65 560.73 593.74 562.35
  C 597.84 564.52 600.59 567.62 604.11 571.38
  C 605.72 573.09 607.89 573.74 610.00 572.75
  A 1.05 1.04 83.5 0 0 610.57 572.03
  C 611.42 568.09 604.55 562.45 601.89 560.67
  Q 596.73 557.24 593.05 556.95
  Z
  M 430.42 638.31
  C 420.87 640.03 414.05 638.38 408.18 630.79
  A 1.88 1.55 38.8 0 0 405.16 630.83
  Q 404.88 631.64 405.72 632.87
  Q 411.82 641.73 423.06 641.07
  Q 427.65 640.79 430.36 639.78
  A 0.77 0.77 0.0 0 0 430.85 639.06
  L 430.85 638.67
  A 0.37 0.36 84.8 0 0 430.42 638.31
  Z"
/>
<path fill="#232021" d="
  M 576.83 552.75
  C 582.49 556.25 585.88 556.40 593.05 556.95
  Q 596.73 557.24 601.89 560.67
  C 604.55 562.45 611.42 568.09 610.57 572.03
  A 1.05 1.04 83.5 0 1 610.00 572.75
  C 607.89 573.74 605.72 573.09 604.11 571.38
  C 600.59 567.62 597.84 564.52 593.74 562.35
  C 590.65 560.73 585.72 560.46 582.23 559.30
  Q 578.88 558.18 576.50 555.61
  A 2.76 2.73 -66.8 0 1 575.76 553.73
  L 575.76 553.34
  Q 575.76 552.09 576.83 552.75
  Z"
/>
<path fill="#232021" d="
  M 408.18 630.79
  C 414.05 638.38 420.87 640.03 430.42 638.31
  A 0.37 0.36 84.8 0 1 430.85 638.67
  L 430.85 639.06
  A 0.77 0.77 0.0 0 1 430.36 639.78
  Q 427.65 640.79 423.06 641.07
  Q 411.82 641.73 405.72 632.87
  Q 404.88 631.64 405.16 630.83
  A 1.88 1.55 38.8 0 1 408.18 630.79
  Z"
/>
<ellipse fill="#bcbabb" cx="0.00" cy="0.00" transform="translate(522.85,680.73) rotate(65.6)" rx="1.15" ry="0.71"/>
</svg>
