<?xml version="1.0" encoding="UTF-8" standalone="no"?>
<!DOCTYPE svg PUBLIC "-//W3C//DTD SVG 1.1//EN" "http://www.w3.org/Graphics/SVG/1.1/DTD/svg11.dtd">
<svg xmlns="http://www.w3.org/2000/svg" version="1.1" viewBox="0.00 0.00 1024.00 1024.00">
<g stroke-width="2.00" fill="none" stroke-linecap="butt">
<path stroke="#918f90" vector-effect="non-scaling-stroke" d="
  M 428.69 1017.21
  C 432.52 1015.70 437.15 1013.44 436.05 1008.54
  C 434.99 1003.86 427.08 1000.31 422.15 997.54
  C 418.59 995.54 416.59 993.86 414.53 990.56
  Q 409.31 982.22 405.21 972.76
  A 0.69 0.69 0.0 0 1 405.93 971.80
  Q 419.35 973.53 432.02 974.01
  C 438.52 974.25 447.82 974.33 451.35 967.60
  Q 453.44 963.62 455.60 957.10
  Q 459.42 945.54 462.52 933.76
  C 471.35 900.15 479.44 865.30 485.61 829.86
  Q 487.52 818.84 490.29 809.59
  Q 490.95 807.38 491.35 809.65
  C 493.50 821.94 494.71 834.16 496.21 845.11
  Q 496.64 848.18 497.43 851.08
  Q 503.53 873.41 506.11 885.10
  Q 510.28 904.04 515.75 933.27
  Q 516.57 937.66 519.10 947.03
  Q 520.53 952.29 525.89 952.70
  Q 530.49 953.05 536.02 952.04
  Q 547.53 949.92 561.05 945.11
  Q 562.10 944.74 561.97 945.84
  Q 560.27 960.08 555.18 972.95
  C 553.50 977.21 550.29 982.36 548.50 986.49
  C 546.56 990.98 549.10 992.94 553.12 993.54
  Q 556.24 994.00 557.27 993.86
  Q 566.95 992.59 580.50 988.76
  Q 581.96 988.35 583.84 987.27
  A 0.54 0.54 0.0 0 0 583.75 986.29
  Q 580.02 985.01 575.50 985.20
  Q 574.61 985.24 575.08 984.49
  Q 584.08 969.88 590.70 953.86
  A 0.64 0.63 30.5 0 1 591.68 953.61
  C 594.63 955.97 596.27 957.95 600.00 959.06
  A 0.58 0.58 0.0 0 0 600.71 958.29
  C 599.40 955.01 594.85 948.03 590.92 946.46
  Q 589.77 946.00 589.08 946.49
  C 587.71 947.45 586.42 950.25 585.84 951.60
  Q 578.80 967.81 574.20 975.73
  Q 571.54 980.32 568.15 983.92
  C 564.80 987.48 559.78 988.37 554.94 988.32
  A 0.55 0.55 0.0 0 1 554.47 987.50
  Q 557.93 981.49 560.40 975.89
  Q 561.63 973.08 565.64 957.56
  Q 566.91 952.63 568.42 950.03
  C 570.30 946.80 573.59 940.27 577.46 938.44
  Q 583.56 935.55 600.96 926.71
  Q 606.31 923.99 610.46 921.32
  C 615.93 917.78 620.04 914.60 619.33 908.26
  C 618.04 896.84 615.19 888.09 610.95 875.82
  C 602.45 851.24 590.50 823.28 579.21 798.78
  Q 569.99 778.77 546.05 729.46
  Q 533.71 704.03 515.19 669.34
  Q 505.81 651.79 491.50 629.27
  C 484.64 618.49 477.56 606.75 473.29 594.75
  A 1.27 1.27 0.0 0 1 474.00 593.15
  L 484.61 588.72
  Q 487.00 587.73 484.92 586.18
  L 484.46 585.84
  Q 482.35 584.27 479.89 585.20
  L 450.10 596.48
  A 0.45 0.45 0.0 0 1 449.50 596.01
  L 450.22 589.60
  Q 450.49 587.23 448.22 586.51
  L 446.85 586.08
  Q 444.46 585.32 444.04 587.79
  Q 443.59 590.38 442.45 593.77
  C 441.81 595.64 442.29 597.40 441.81 599.26
  Q 441.68 599.76 441.19 599.97
  C 411.17 612.69 395.78 618.86 373.14 630.29
  C 365.55 634.12 355.19 638.40 347.47 642.96
  Q 345.37 644.19 333.84 651.61
  C 330.08 654.04 327.20 656.65 326.11 660.75
  Q 325.40 663.44 327.64 661.78
  L 337.57 654.40
  A 0.62 0.62 0.0 0 1 338.55 655.00
  C 335.86 670.51 345.05 689.08 352.71 702.92
  Q 352.91 703.27 370.13 734.66
  C 377.31 747.73 384.26 764.39 382.99 779.83
  Q 382.52 785.53 381.19 791.27
  C 372.70 827.85 361.62 862.79 350.67 897.52
  C 346.94 909.33 343.21 923.41 340.50 933.41
  Q 338.92 939.22 338.82 940.25
  C 337.28 956.27 375.98 965.33 388.72 968.76
  C 392.17 969.69 395.79 973.28 397.37 975.64
  Q 403.35 984.60 409.50 993.46
  C 412.69 998.07 415.59 1001.19 420.19 1003.42
  Q 426.27 1006.35 429.99 1008.52
  A 1.42 1.41 -46.3 0 1 430.04 1010.93
  Q 423.61 1015.08 415.83 1014.90"
/>
<path stroke="#918f90" vector-effect="non-scaling-stroke" d="
  M 405.62 1012.97
  Q 400.10 1009.61 396.42 1003.58
  Q 387.91 989.62 379.13 979.40
  C 376.41 976.24 372.39 970.25 368.69 975.61
  Q 363.94 982.50 362.61 989.96
  Q 362.28 991.82 363.80 990.69
  C 366.55 988.63 368.62 984.17 371.08 979.84
  Q 371.54 979.04 372.00 979.01
  A 1.98 1.82 67.1 0 1 373.58 979.73
  Q 379.61 987.13 385.34 994.86
  Q 387.12 997.26 390.49 1002.78
  Q 392.99 1006.88 395.86 1010.66"
/>
<path stroke="#cecdcd" vector-effect="non-scaling-stroke" d="
  M 76.40 259.87
  Q 68.73 260.72 63.44 267.47"
/>
<path stroke="#918f90" vector-effect="non-scaling-stroke" d="
  M 63.44 267.47
  Q 59.55 272.29 57.61 278.61"
/>
<path stroke="#cecdcd" vector-effect="non-scaling-stroke" d="
  M 57.61 278.61
  Q 54.63 286.65 56.31 295.17"
/>
<path stroke="#918f90" vector-effect="non-scaling-stroke" d="
  M 56.31 295.17
  Q 57.16 302.35 57.87 304.60
  Q 62.06 317.76 75.18 318.53
  C 79.69 318.80 85.43 316.62 87.36 312.89
  C 90.73 306.38 88.90 296.97 88.23 289.51
  C 87.61 282.63 95.46 268.57 101.39 265.64
  C 111.23 260.79 121.16 258.30 132.21 255.92
  C 139.76 254.29 149.15 253.36 157.96 252.19
  Q 163.08 251.50 168.57 251.02
  Q 222.05 246.35 272.98 247.03
  Q 277.62 247.10 278.75 247.10
  Q 332.53 247.17 384.52 250.94
  Q 385.31 251.00 385.42 251.78
  C 385.84 254.68 386.90 258.12 390.33 258.55
  Q 391.96 258.76 392.91 258.82
  A 0.75 0.75 0.0 0 1 393.59 259.70
  C 392.62 264.80 395.38 270.70 397.97 274.93
  C 401.01 279.87 408.36 283.97 413.39 287.38
  Q 419.39 291.45 421.40 299.31
  C 423.92 309.11 425.43 314.52 425.73 319.91
  A 0.62 0.62 0.0 0 1 425.29 320.53
  C 418.29 322.73 407.89 326.65 401.23 331.48
  C 398.01 333.82 399.68 339.06 400.39 341.82
  Q 405.62 362.28 408.17 383.11
  Q 409.21 391.59 408.75 402.33
  C 408.43 409.92 406.54 417.62 400.95 422.96
  Q 392.16 431.36 380.81 435.82
  Q 368.35 440.73 353.42 445.26
  Q 352.73 445.46 353.11 444.86
  C 354.86 442.07 356.12 440.23 359.77 439.32
  C 368.11 437.23 373.64 435.60 381.12 430.31
  C 382.93 429.02 385.70 428.29 387.23 426.53
  C 392.74 420.16 394.85 409.35 392.13 401.71
  C 391.09 398.82 388.81 396.93 385.71 393.28
  Q 384.03 391.29 384.59 389.36
  C 386.97 381.27 389.35 374.04 389.28 366.17
  C 389.20 357.16 386.97 347.94 380.63 341.44
  C 372.78 333.40 360.57 330.76 350.94 328.26
  Q 346.46 327.11 344.54 325.58
  C 339.55 321.62 336.53 316.02 332.54 309.87
  C 325.15 298.50 312.52 288.90 298.59 287.72
  Q 288.23 286.84 280.83 290.36
  Q 262.28 299.16 256.61 318.99
  A 0.42 0.42 0.0 0 1 256.05 319.26
  C 234.06 310.16 205.72 321.18 204.21 347.61
  Q 203.83 354.41 204.67 360.42
  A 2.10 2.09 77.7 0 1 203.21 362.71
  C 190.63 366.57 177.69 372.46 173.58 385.79
  C 170.67 395.22 173.34 407.61 177.65 416.67
  A 0.63 0.63 0.0 0 1 177.18 417.56
  C 168.66 419.04 158.60 426.91 154.18 434.14
  C 146.65 446.47 148.32 461.53 159.84 470.64
  C 165.88 475.41 173.60 478.32 181.40 477.65
  C 185.59 477.28 190.23 476.32 193.23 477.60
  C 198.64 479.90 201.24 485.74 205.05 491.60
  Q 209.16 497.92 216.94 502.34
  C 227.51 508.34 240.51 507.03 250.33 500.33
  Q 257.65 495.33 263.14 488.22
  C 264.02 487.08 264.55 485.58 265.21 484.24
  A 0.85 0.84 -76.9 0 1 265.94 483.78
  Q 269.07 483.71 269.76 483.75
  Q 279.67 484.36 288.90 477.92
  A 0.54 0.54 0.0 0 1 289.75 478.42
  C 287.00 505.90 289.19 532.63 292.98 560.08
  Q 296.00 581.91 304.16 618.19
  Q 305.68 624.92 309.75 638.18
  Q 311.94 645.32 315.91 652.55
  Q 318.12 656.56 316.92 652.14
  C 312.99 637.59 308.26 620.51 305.37 604.42
  C 302.52 588.56 299.40 573.22 297.58 557.79
  Q 297.47 556.81 296.17 544.98
  Q 293.16 517.57 294.09 490.00
  Q 294.35 482.14 295.73 474.81
  C 296.23 472.14 296.27 470.29 298.13 468.15
  Q 304.95 460.32 314.77 463.03
  Q 316.46 463.50 316.88 463.87
  Q 318.59 465.37 316.83 467.32
  Q 315.67 468.60 315.42 470.12
  Q 315.29 470.90 315.93 470.43
  Q 324.95 463.79 329.62 460.87
  Q 338.61 455.24 350.27 451.31
  Q 369.11 444.96 377.15 442.10
  Q 391.08 437.15 401.42 428.81
  Q 406.34 424.86 408.48 421.63
  C 414.12 413.13 414.56 399.38 413.90 389.51
  Q 412.73 371.91 410.04 359.34
  Q 408.51 352.23 406.03 341.68
  Q 405.21 338.18 405.99 336.43
  Q 407.20 333.75 409.79 332.22
  Q 414.41 329.50 423.62 326.30
  Q 443.27 319.45 462.00 316.54
  Q 466.05 315.92 466.77 313.76"
/>
<path stroke="#efefef" vector-effect="non-scaling-stroke" d="
  M 466.77 313.76
  L 475.40 312.03"
/>
<path stroke="#918f90" vector-effect="non-scaling-stroke" d="
  M 475.40 312.03
  Q 478.30 314.49 482.09 313.63
  Q 493.76 310.99 504.25 309.02
  A 1.89 1.88 -10.6 0 1 506.45 310.52
  L 511.02 334.62
  A 1.30 1.30 0.0 0 1 509.99 336.14
  Q 494.18 339.20 492.26 339.82
  Q 490.35 340.44 489.14 341.80
  A 1.01 1.00 -36.7 0 0 488.98 342.88
  Q 489.31 343.58 490.05 343.39
  C 493.36 342.55 496.93 342.50 499.21 342.19
  Q 506.43 341.23 510.81 340.35
  Q 511.79 340.16 511.92 341.14
  Q 516.59 375.76 516.35 409.50
  Q 516.32 413.68 516.02 416.91
  A 0.48 0.48 0.0 0 1 515.23 417.24
  L 509.44 412.49
  Q 508.82 411.97 508.79 412.78
  C 508.60 419.09 511.24 423.29 514.85 427.85
  Q 515.16 428.23 515.12 428.72
  C 513.97 445.36 510.58 465.30 499.82 477.83
  C 490.51 488.67 479.48 499.04 469.08 509.95
  C 465.90 513.28 464.15 515.90 461.65 519.86
  Q 460.86 521.12 462.09 520.28
  Q 465.27 518.12 467.46 516.20
  Q 481.05 504.34 493.87 490.87
  C 501.99 482.34 507.65 476.88 511.01 468.24
  Q 519.08 447.55 520.11 426.49
  Q 520.15 425.82 521.11 408.82
  Q 521.84 395.84 520.60 375.00
  Q 519.47 355.77 515.77 331.74
  Q 514.03 320.41 511.58 309.77
  C 510.53 305.22 509.33 303.15 504.24 303.66
  Q 495.33 304.56 486.18 307.43
  A 0.86 0.86 0.0 0 1 485.08 306.77
  Q 483.53 298.60 483.50 290.76
  Q 483.49 288.18 484.75 285.49
  C 488.08 278.34 491.20 271.67 489.88 263.71
  Q 489.77 263.07 490.42 263.12
  Q 495.55 263.56 498.24 263.36
  C 503.82 262.96 504.80 253.97 504.66 249.68
  Q 504.46 243.90 498.86 243.13
  Q 490.89 242.03 487.03 242.54
  Q 486.36 242.63 486.53 241.97
  Q 487.60 237.91 483.12 235.42
  Q 477.30 232.17 473.39 235.67
  Q 473.03 235.99 472.60 235.78
  C 471.40 235.20 470.56 233.87 469.43 233.32
  C 467.23 232.24 463.74 231.57 462.09 233.99
  Q 461.57 234.76 460.73 234.33
  C 455.25 231.49 454.25 235.35 452.26 239.33
  Q 452.01 239.82 451.57 239.82
  C 449.51 239.84 447.80 239.87 445.88 238.06
  C 442.76 235.13 440.40 233.43 435.94 234.31
  Q 435.45 234.40 435.02 234.15
  Q 431.03 231.78 426.83 232.34
  Q 424.82 232.61 422.83 232.29
  Q 418.50 231.58 415.17 234.15
  A 0.82 0.81 -49.3 0 1 414.29 234.22
  C 409.14 231.46 399.79 232.68 397.95 239.06
  A 0.70 0.70 0.0 0 1 397.31 239.56
  C 393.00 239.70 388.35 237.80 386.42 243.20
  Q 385.88 244.70 385.52 245.45
  A 0.62 0.62 0.0 0 1 384.82 245.79
  Q 375.93 243.94 368.63 243.63
  Q 337.48 242.29 296.05 241.48
  Q 227.91 240.14 161.21 246.56
  Q 152.00 247.44 142.91 248.86
  C 129.94 250.89 118.29 253.17 106.26 258.46
  Q 105.80 258.67 105.35 258.42
  Q 100.79 255.92 92.25 256.52
  Q 82.46 257.21 76.40 259.87"
/>
<path stroke="#817f7f" vector-effect="non-scaling-stroke" d="
  M 475.40 312.03
  Q 479.49 309.94 480.79 306.84
  Q 481.70 304.67 480.80 300.42
  Q 479.86 295.97 479.50 291.05
  Q 479.25 287.73 480.40 285.16
  C 483.05 279.26 485.27 273.97 485.60 267.90
  C 485.76 264.82 480.05 264.14 478.00 264.19
  C 475.22 264.26 474.38 266.87 471.49 266.49
  Q 469.34 266.20 466.64 264.79
  A 0.95 0.94 -48.3 0 0 465.67 264.85
  Q 462.68 266.86 459.13 265.42
  Q 458.63 265.22 458.10 265.31
  Q 455.95 265.68 454.32 264.87
  Q 453.82 264.63 453.65 265.16
  C 450.85 274.25 454.92 280.49 459.47 288.74
  Q 464.51 297.85 463.26 307.89
  Q 462.92 310.63 461.61 308.14
  Q 461.43 307.80 461.10 306.46
  Q 459.04 298.13 457.95 294.59
  C 457.23 292.26 454.18 288.78 452.50 285.14
  Q 451.32 282.57 451.32 282.56
  Q 451.14 281.64 450.78 282.62
  Q 450.42 283.60 450.88 286.13
  C 452.57 295.49 454.73 299.91 459.04 311.51
  Q 459.21 311.97 459.70 311.94
  Q 463.37 311.72 466.77 313.76"
/>
<path stroke="#605d5e" vector-effect="non-scaling-stroke" d="
  M 56.31 295.17
  L 57.61 278.61"
/>
<path stroke="#605d5e" vector-effect="non-scaling-stroke" d="
  M 63.44 267.47
  L 76.40 259.87"
/>
<path stroke="#918f90" vector-effect="non-scaling-stroke" d="
  M 953.84 264.19
  Q 964.00 259.94 974.53 258.62
  A 0.44 0.44 0.0 0 1 974.94 259.31
  Q 959.25 280.86 946.94 303.21
  Q 945.56 305.71 943.73 307.57
  Q 942.37 308.96 941.34 307.31
  Q 934.43 296.16 926.78 286.75
  Q 925.05 284.61 922.88 283.40
  Q 921.73 282.76 921.20 283.66
  A 0.28 0.27 -48.0 0 0 921.21 283.93
  L 937.39 310.05
  A 0.53 0.53 0.0 0 1 937.11 310.83
  Q 930.28 313.25 923.01 312.80
  C 909.09 311.94 894.61 308.83 880.52 306.82
  Q 868.60 305.11 854.31 305.73
  Q 852.85 305.80 852.78 304.34
  Q 852.67 301.86 854.55 300.79
  Q 866.65 293.88 871.77 290.87
  C 877.33 287.60 881.85 285.65 887.60 282.61
  Q 891.18 280.72 892.86 278.27
  A 0.83 0.82 -69.4 0 0 892.28 276.98
  Q 890.63 276.79 889.22 277.47
  Q 881.16 281.38 871.86 285.62
  C 867.08 287.80 861.72 290.95 856.78 293.71
  Q 855.76 294.28 856.14 293.17
  C 856.79 291.26 857.83 288.87 859.38 286.91
  Q 866.44 277.94 873.98 264.76
  C 876.98 259.51 880.13 253.86 880.69 246.57
  Q 880.84 244.62 879.30 245.41
  A 0.74 0.74 0.0 0 0 878.97 245.74
  C 876.43 250.64 874.33 255.61 871.58 260.43
  Q 863.64 274.35 855.17 284.66
  Q 839.45 303.80 837.11 307.10
  Q 836.08 308.54 835.75 309.64
  A 1.79 1.79 0.0 0 0 836.97 311.89
  Q 840.11 312.79 843.04 312.38
  C 861.08 309.83 876.99 311.71 895.69 314.92
  C 910.48 317.46 922.03 319.04 934.53 318.98
  C 940.51 318.95 946.03 317.35 948.66 311.75
  Q 956.98 294.05 966.34 280.33
  Q 981.31 258.36 981.83 257.59
  Q 982.68 256.33 983.40 254.81
  A 2.24 2.22 41.0 0 0 983.24 252.65
  C 980.90 249.07 975.72 247.37 971.69 246.32
  Q 962.46 243.90 953.00 242.78
  Q 933.87 240.51 909.85 240.61
  Q 899.19 240.66 891.87 242.61
  Q 887.15 243.87 892.02 244.27
  C 898.56 244.82 905.87 245.17 911.38 245.19
  Q 931.72 245.25 953.07 247.45
  Q 964.09 248.58 974.56 251.82
  Q 975.66 252.16 976.45 253.00
  Q 976.80 253.37 976.05 253.44
  C 974.45 253.58 971.83 253.38 969.52 253.98
  Q 954.97 257.76 941.08 262.87
  Q 921.57 270.04 904.20 277.45
  A 0.54 0.53 -25.5 0 1 903.51 277.21
  Q 897.60 265.85 890.42 254.85
  C 889.12 252.85 887.57 251.62 885.51 250.68
  A 0.28 0.27 9.1 0 0 885.12 250.96
  Q 885.62 254.89 887.42 258.19
  Q 893.30 268.90 899.25 279.62
  C 901.85 284.30 904.56 282.53 909.07 280.98
  Q 926.38 275.00 940.96 270.50
  Q 947.50 268.49 954.54 265.54
  Q 955.24 265.25 955.26 264.63
  Q 955.29 264.09 954.78 264.25
  Q 954.17 264.43 953.92 264.47
  Q 952.63 264.69 953.84 264.19"
/>
<path stroke="#918f90" vector-effect="non-scaling-stroke" d="
  M 592.19 740.89
  Q 598.08 731.20 602.67 722.95
  Q 630.16 673.60 654.56 622.32
  Q 671.44 586.83 685.61 547.10
  Q 697.49 513.78 703.26 478.52
  Q 707.88 450.29 706.35 423.19
  Q 706.11 418.87 705.67 416.16
  C 704.69 410.16 704.42 404.61 703.14 398.61
  C 701.49 390.88 700.39 384.92 698.24 378.59
  C 685.12 339.97 659.72 306.92 624.88 285.26
  C 603.82 272.18 580.58 262.50 556.23 257.00
  C 544.29 254.30 533.65 251.29 522.95 251.72
  Q 520.97 251.80 522.54 253.01
  C 526.68 256.22 533.88 257.67 539.78 258.79
  C 556.02 261.89 571.45 267.09 586.14 272.65
  Q 625.07 287.39 653.65 316.75
  C 672.19 335.81 685.56 359.34 693.48 384.60
  Q 695.33 390.49 697.17 399.93
  Q 699.41 411.37 699.77 415.52
  Q 702.93 452.44 695.59 488.13
  Q 684.14 543.81 657.54 601.77
  C 645.13 628.83 631.79 655.40 617.88 682.15
  C 612.67 692.16 604.50 706.72 599.01 718.49
  Q 594.00 729.23 590.45 740.98
  Q 589.89 742.81 591.53 741.83
  Q 591.68 741.75 592.19 740.89"
/>
<path stroke="#918f90" vector-effect="non-scaling-stroke" d="
  M 444.17 474.12
  Q 441.66 476.38 438.48 478.48
  C 420.07 490.61 405.26 498.46 380.29 511.57
  Q 365.50 519.34 361.81 522.55
  Q 358.78 525.20 357.89 526.66
  A 0.73 0.73 0.0 0 0 358.56 527.76
  L 361.76 527.55
  Q 362.33 527.51 362.15 528.05
  Q 361.41 530.22 361.41 531.01
  Q 361.41 532.62 362.72 532.71
  A 0.89 0.88 17.7 0 0 363.54 532.29
  Q 367.19 526.40 373.85 521.63
  Q 380.59 516.80 385.70 514.20
  Q 409.50 502.11 426.39 492.37
  Q 444.77 481.79 459.95 467.46
  C 470.94 457.08 479.31 443.72 481.17 428.56
  Q 482.07 421.24 482.07 408.54
  Q 482.09 373.44 474.80 336.76
  Q 472.78 326.60 467.23 318.02
  Q 466.35 316.66 466.37 318.28
  C 466.42 323.35 468.43 329.76 469.12 333.51
  Q 473.54 357.83 473.88 360.10
  Q 477.93 387.16 477.33 414.42
  C 477.17 421.45 476.43 430.51 474.53 436.52
  C 470.51 449.27 460.88 461.14 450.71 469.13
  A 1.70 1.70 0.0 0 1 449.12 469.41
  Q 442.98 467.32 434.96 467.28
  Q 433.07 467.26 432.86 469.14
  L 432.70 470.60
  Q 432.50 472.33 434.24 472.52
  L 444.01 473.62
  Q 444.64 473.69 444.17 474.12"
/>
<path stroke="#918f90" vector-effect="non-scaling-stroke" d="
  M 820.05 394.81
  Q 835.22 377.95 851.19 364.32
  Q 856.01 360.21 864.98 353.99
  C 871.51 349.46 877.66 344.77 884.08 340.35
  Q 884.89 339.79 883.93 340.01
  C 872.43 342.56 861.39 349.29 851.96 356.62
  Q 834.54 370.19 820.29 386.04
  Q 804.49 403.62 795.62 415.35
  Q 765.85 454.72 742.49 497.96
  C 712.89 552.72 688.43 610.02 669.60 669.63
  Q 657.21 708.89 649.27 749.28
  Q 647.65 757.52 646.78 765.11
  C 646.55 767.10 646.82 768.70 646.80 770.69
  A 0.52 0.52 0.0 0 0 647.66 771.09
  C 651.41 767.79 653.02 759.71 654.11 754.34
  Q 663.36 708.93 677.06 666.32
  Q 699.41 596.88 733.08 528.48
  C 740.22 513.98 750.31 495.33 756.27 484.52
  C 766.19 466.52 779.18 446.42 792.78 428.29
  Q 805.27 411.64 809.16 407.16
  Q 815.31 400.09 820.05 394.81"
/>
<path stroke="#918f90" vector-effect="non-scaling-stroke" d="
  M 447.80 353.37
  C 444.92 354.34 441.38 354.95 438.89 355.66
  A 4.49 2.92 -3.7 0 0 436.19 357.68
  L 435.90 358.34
  Q 435.21 359.93 436.92 359.66
  Q 449.56 357.65 461.54 353.97
  Q 465.18 352.85 467.89 351.08
  Q 469.69 349.90 468.93 347.88
  L 468.73 347.37
  Q 467.88 345.12 465.85 346.40
  C 460.32 349.90 453.94 351.29 447.80 353.37"
/>
<path stroke="#918f90" vector-effect="non-scaling-stroke" d="
  M 464.46 405.21
  L 461.81 402.87
  A 1.49 1.49 0.0 0 0 459.70 403.01
  L 456.52 406.62
  A 6.13 3.26 -48.6 0 0 454.91 413.38
  L 454.91 413.38
  A 6.13 3.26 -48.6 0 0 461.41 410.93
  L 464.59 407.32
  A 1.49 1.49 0.0 0 0 464.46 405.21"
/>
<path stroke="#918f90" vector-effect="non-scaling-stroke" d="
  M 336.36 517.16
  L 333.86 515.14
  A 1.15 1.15 0.0 0 0 332.24 515.31
  L 328.37 520.09
  A 9.76 2.67 -51.0 0 0 324.30 529.35
  L 324.44 529.47
  A 9.76 2.67 -51.0 0 0 332.66 523.56
  L 336.53 518.78
  A 1.15 1.15 0.0 0 0 336.36 517.16"
/>
<path stroke="#918f90" vector-effect="non-scaling-stroke" d="
  M 446.65 535.33
  L 438.60 535.85
  Q 437.07 535.95 437.17 537.48
  L 437.39 540.82
  Q 437.45 541.79 438.43 541.77
  Q 440.63 541.74 445.07 542.12
  C 447.14 542.30 448.39 541.63 450.47 541.12
  Q 451.03 540.99 451.37 541.44
  Q 461.31 554.54 477.34 572.78
  Q 483.58 579.88 486.69 582.61
  Q 487.87 583.64 489.33 583.05
  Q 490.26 582.67 490.29 582.58
  Q 491.03 580.06 489.60 578.56
  Q 473.65 561.91 455.57 539.59
  Q 452.63 535.97 448.70 529.76
  C 446.25 525.88 443.55 522.12 441.04 518.20
  Q 439.90 516.42 438.35 515.52
  Q 436.32 514.34 437.10 516.56
  C 439.36 522.97 443.10 528.83 446.89 534.85
  A 0.32 0.31 72.1 0 1 446.65 535.33"
/>
<path stroke="#918f90" vector-effect="non-scaling-stroke" d="
  M 356.9603 606.3294
  A 7.85 3.27 36.5 0 0 352.5951 599.0314
  A 7.85 3.27 36.5 0 0 344.3397 596.9906
  A 7.85 3.27 36.5 0 0 348.7049 604.2886
  A 7.85 3.27 36.5 0 0 356.9603 606.3294"
/>
<path stroke="#817f7f" vector-effect="non-scaling-stroke" d="
  M 441.50 248.08
  Q 442.21 252.75 439.49 249.20
  C 437.15 246.16 435.04 236.90 430.30 237.25
  Q 429.71 237.29 429.93 237.84
  Q 432.49 244.06 432.83 249.38
  A 0.81 0.81 0.0 0 1 431.57 250.11
  Q 429.64 248.81 429.11 247.15
  Q 427.66 242.69 425.15 239.20
  Q 423.87 237.41 421.68 237.16
  L 420.91 237.07
  Q 418.73 236.83 419.83 238.73
  Q 422.82 243.88 424.60 249.97
  A 0.77 0.77 0.0 0 1 423.69 250.94
  C 420.77 250.29 419.32 247.02 418.41 244.70
  C 416.36 239.52 411.65 235.87 406.07 237.53
  Q 402.04 238.73 406.07 239.95
  C 413.43 242.18 417.77 255.07 418.70 261.79
  C 419.18 265.28 418.17 271.52 413.31 270.59
  Q 412.50 270.43 411.77 269.71
  C 407.69 265.65 404.27 261.43 399.84 260.98
  A 1.44 1.43 0.2 0 0 398.26 262.54
  C 398.74 267.51 400.61 272.88 404.99 275.95
  Q 409.27 278.96 413.40 281.88
  C 420.64 287.02 423.64 290.40 425.83 298.18
  Q 427.32 303.48 429.88 313.10
  Q 430.49 315.37 432.68 315.39
  Q 443.52 315.44 453.93 312.03
  A 0.69 0.69 0.0 0 0 454.34 311.08
  C 449.78 301.19 445.21 289.91 445.89 279.18
  Q 446.20 274.32 447.07 264.01
  C 447.96 253.49 447.77 242.89 438.64 236.82
  Q 436.87 235.65 437.84 237.54
  Q 440.75 243.22 441.50 248.08"
/>
<path stroke="#817f7f" vector-effect="non-scaling-stroke" d="
  M 466.86 250.36
  Q 467.08 247.70 469.25 241.84
  Q 470.13 239.45 468.12 237.88
  L 467.79 237.63
  Q 465.23 235.65 464.18 238.70
  Q 460.49 249.44 462.53 259.98
  A 0.55 0.55 0.0 0 0 463.41 260.31
  C 466.15 258.12 466.52 254.49 466.86 250.36"
/>
<path stroke="#817f7f" vector-effect="non-scaling-stroke" d="
  M 457.26 258.91
  C 456.90 251.41 457.43 244.97 459.42 238.39
  Q 459.75 237.29 458.67 237.70
  L 458.23 237.86
  Q 457.56 238.12 457.20 238.74
  C 454.50 243.37 454.64 250.43 454.64 255.73
  Q 454.64 258.75 455.45 259.77
  Q 456.01 260.47 456.34 260.35
  A 1.46 1.37 79.4 0 0 457.26 258.91"
/>
<path stroke="#817f7f" vector-effect="non-scaling-stroke" d="
  M 479.19 247.28
  Q 480.26 247.24 480.87 249.06
  A 0.67 0.66 57.0 0 0 481.99 249.30
  Q 484.21 246.90 483.58 244.32
  Q 483.42 243.65 483.97 243.24
  L 484.41 242.91
  Q 484.81 242.61 484.49 242.23
  C 481.06 238.13 476.88 235.97 474.13 242.45
  Q 470.31 251.45 471.33 259.66
  Q 471.73 262.86 473.63 260.25
  C 476.30 256.56 476.75 251.33 478.56 247.69
  A 0.74 0.73 11.4 0 1 479.19 247.28"
/>
<path stroke="#918f90" vector-effect="non-scaling-stroke" d="
  M 393.23 253.99
  L 393.52 244.22
  A 0.42 0.42 0.0 0 0 393.12 243.79
  L 392.83 243.78
  A 2.76 2.41 -88.3 0 0 390.34 246.46
  L 390.19 251.56
  A 2.76 2.41 -88.3 0 0 392.51 254.39
  L 392.80 254.40
  A 0.42 0.42 0.0 0 0 393.23 253.99"
/>
<path stroke="#817f7f" vector-effect="non-scaling-stroke" d="
  M 410.27 261.50
  L 412.60 264.06
  A 0.23 0.23 0.0 0 0 412.92 264.07
  L 413.02 263.99
  A 1.96 1.94 -42.4 0 0 413.16 261.23
  L 413.13 261.20
  A 1.96 1.94 -42.4 0 0 410.38 261.09
  L 410.28 261.18
  A 0.23 0.23 0.0 0 0 410.27 261.50"
/>
<path stroke="#918f90" vector-effect="non-scaling-stroke" d="
  M 62.49 283.94
  Q 60.49 295.16 63.69 305.03
  Q 65.61 310.94 71.46 312.03"
/>
<path stroke="#605d5e" vector-effect="non-scaling-stroke" d="
  M 71.46 312.03
  Q 81.55 311.62 81.76 302.76
  C 82.00 292.45 81.72 285.38 85.41 278.00
  C 88.40 272.03 92.12 265.33 98.23 262.35
  Q 99.57 261.70 98.09 261.62
  C 93.60 261.38 87.08 261.65 82.59 263.13
  Q 79.65 264.10 77.23 264.30
  Q 74.52 264.51 71.72 266.37
  Q 62.58 272.43 62.49 283.94"
/>
<path stroke="#cecdcd" vector-effect="non-scaling-stroke" d="
  M 71.46 312.03
  Q 69.02 307.53 68.09 303.43
  C 65.06 289.94 66.93 277.76 75.84 267.02
  Q 76.90 265.74 75.25 265.97
  C 71.38 266.51 66.47 272.16 64.80 275.82
  C 63.75 278.10 63.27 281.25 62.49 283.94"
/>
<path stroke="#817f7f" vector-effect="non-scaling-stroke" d="
  M 340.25 381.37
  A 1.02 1.02 0.0 0 1 339.74 382.88
  Q 336.61 384.03 333.35 382.72
  Q 326.55 379.98 321.25 375.41
  Q 320.78 375.00 320.51 375.57
  C 316.57 383.75 304.84 384.80 297.29 381.57
  A 2.43 2.42 -72.2 0 1 295.88 378.81
  L 295.98 378.39
  Q 296.53 375.94 298.88 376.82
  C 304.23 378.82 312.49 379.26 315.87 373.66
  C 317.63 370.75 313.95 368.00 312.76 366.00
  C 307.85 357.77 309.46 347.26 320.65 346.02
  Q 321.49 345.92 320.73 345.55
  Q 307.62 339.07 293.83 341.09
  C 286.41 342.19 279.61 343.56 273.07 346.58
  A 0.82 0.81 -17.9 0 0 272.61 347.46
  C 274.00 355.74 275.22 364.70 273.18 372.20
  C 271.16 379.57 265.07 383.05 257.74 385.72
  Q 257.23 385.91 257.62 386.30
  Q 262.06 390.79 264.74 396.27
  C 266.99 400.85 268.31 408.22 262.63 410.72
  C 260.72 411.56 258.20 411.49 256.16 411.30
  Q 248.55 410.62 245.77 410.43
  Q 241.27 410.13 238.45 411.61
  C 223.66 419.33 236.64 436.92 249.46 429.92
  Q 251.20 428.97 255.10 425.59
  Q 256.55 424.33 258.68 424.79
  Q 259.27 424.91 259.57 425.43
  Q 260.58 427.14 263.66 428.57
  C 269.13 431.12 275.58 432.24 278.50 433.24
  Q 290.89 437.50 295.47 449.78
  Q 296.03 451.29 297.07 454.22
  Q 297.30 454.86 297.97 454.94
  C 305.40 455.87 312.84 457.05 319.40 456.24
  C 346.63 452.88 364.09 429.74 363.09 402.66
  C 362.40 383.96 351.54 366.23 336.75 355.00
  Q 333.17 352.28 329.02 349.60
  Q 328.34 349.16 328.11 349.94
  C 327.17 353.27 324.09 352.74 320.52 352.99
  Q 319.89 353.03 317.14 354.36
  C 313.58 356.09 316.61 362.09 318.01 364.26
  C 319.08 365.91 320.09 366.08 322.23 366.82
  Q 327.44 368.63 331.99 365.73
  A 1.60 1.59 52.3 0 0 332.30 363.29
  L 330.97 361.88
  A 2.54 2.54 0.0 0 1 331.45 358.01
  Q 333.26 356.83 335.21 358.87
  C 342.24 366.23 334.00 372.46 326.79 372.47
  Q 326.01 372.47 326.66 372.91
  Q 330.35 375.44 331.06 375.77
  C 334.35 377.31 338.95 379.33 340.25 381.37"
/>
<path stroke="#918f90" vector-effect="non-scaling-stroke" d="
  M 282.26 474.75
  Q 281.39 475.81 282.62 475.20
  Q 288.78 472.10 291.51 465.92
  C 294.47 459.21 291.28 450.82 287.26 444.80
  Q 283.86 439.71 277.61 438.08
  Q 276.94 437.91 277.42 438.40
  Q 283.98 445.18 286.50 454.51
  Q 289.53 465.77 282.26 474.75"
/>
<path stroke="#817f7f" vector-effect="non-scaling-stroke" d="
  M 301.35 360.32
  A 2.30 2.29 -78.3 0 0 304.30 358.38
  L 304.35 357.92
  A 2.80 2.80 0.0 0 0 302.62 355.01
  C 295.41 352.07 288.78 355.21 283.86 360.64
  Q 282.24 362.42 284.07 364.31
  Q 284.11 364.36 284.14 364.38
  Q 286.03 366.01 287.78 364.37
  Q 290.20 362.09 293.26 360.25
  Q 295.93 358.64 301.35 360.32"
/>
<path stroke="#817f7f" vector-effect="non-scaling-stroke" d="
  M 324.72 417.54
  C 327.45 418.02 336.96 416.72 334.21 411.75
  A 2.34 2.34 0.0 0 0 331.29 410.72
  C 329.15 411.58 327.87 412.44 325.68 412.06
  C 323.48 411.68 322.57 410.43 320.85 408.89
  A 2.34 2.34 0.0 0 0 317.75 408.87
  C 313.49 412.61 321.98 417.06 324.72 417.54"
/>
</g>
<path fill="#ffffff" d="
  M 523.38 0.00
  Q 539.45 0.71 555.50 1.74
  C 559.08 1.97 564.02 2.92 567.46 2.93
  C 570.05 2.94 572.28 3.78 574.57 3.87
  Q 576.90 3.97 579.90 4.50
  Q 580.22 4.56 587.46 5.62
  Q 619.52 10.31 651.61 19.43
  Q 737.49 43.85 809.27 95.18
  Q 809.67 95.47 810.16 95.36
  Q 825.43 91.83 830.58 91.17
  C 847.90 88.95 865.78 89.02 882.95 92.19
  Q 889.41 93.39 892.82 94.19
  Q 928.55 102.64 957.00 124.52
  Q 999.58 157.26 1016.15 208.62
  Q 1023.11 230.20 1024.00 255.00
  L 1024.00 264.39
  Q 1022.36 310.13 998.67 348.96
  C 997.76 350.46 997.99 350.95 998.50 352.50
  Q 1010.86 390.13 1017.22 429.27
  Q 1018.79 438.89 1019.02 441.39
  Q 1019.14 442.60 1019.58 444.74
  C 1020.18 447.58 1019.95 450.49 1020.60 453.13
  C 1021.21 455.60 1021.01 458.93 1021.47 461.84
  Q 1021.72 463.45 1021.85 465.06
  Q 1023.36 483.37 1024.00 501.75
  L 1024.00 521.64
  Q 1023.07 550.32 1021.86 559.50
  Q 1021.05 565.63 1021.06 566.53
  C 1021.10 569.24 1020.30 571.59 1020.11 574.33
  Q 1019.82 578.31 1019.35 580.14
  Q 1019.07 581.21 1018.81 584.31
  Q 1018.71 585.57 1018.26 588.47
  Q 998.06 718.72 918.66 822.94
  Q 887.06 864.42 847.99 898.23
  Q 753.40 980.11 632.24 1009.71
  Q 623.76 1011.78 612.70 1014.01
  Q 591.06 1018.37 584.24 1018.88
  Q 580.72 1019.15 580.05 1019.34
  C 576.87 1020.20 574.51 1019.90 571.13 1020.56
  Q 568.95 1020.98 566.35 1021.11
  Q 565.17 1021.17 560.75 1021.80
  Q 551.58 1023.11 523.51 1024.00
  L 500.62 1024.00
  Q 477.77 1023.37 455.08 1020.90
  C 453.02 1020.67 450.97 1020.07 448.90 1020.01
  C 445.61 1019.92 443.22 1018.91 440.15 1018.90
  Q 439.15 1018.90 435.97 1018.29
  Q 432.44 1017.62 428.69 1017.21
  C 432.52 1015.70 437.15 1013.44 436.05 1008.54
  C 434.99 1003.86 427.08 1000.31 422.15 997.54
  C 418.59 995.54 416.59 993.86 414.53 990.56
  Q 409.31 982.22 405.21 972.76
  A 0.69 0.69 0.0 0 1 405.93 971.80
  Q 419.35 973.53 432.02 974.01
  C 438.52 974.25 447.82 974.33 451.35 967.60
  Q 453.44 963.62 455.60 957.10
  Q 459.42 945.54 462.52 933.76
  C 471.35 900.15 479.44 865.30 485.61 829.86
  Q 487.52 818.84 490.29 809.59
  Q 490.95 807.38 491.35 809.65
  C 493.50 821.94 494.71 834.16 496.21 845.11
  Q 496.64 848.18 497.43 851.08
  Q 503.53 873.41 506.11 885.10
  Q 510.28 904.04 515.75 933.27
  Q 516.57 937.66 519.10 947.03
  Q 520.53 952.29 525.89 952.70
  Q 530.49 953.05 536.02 952.04
  Q 547.53 949.92 561.05 945.11
  Q 562.10 944.74 561.97 945.84
  Q 560.27 960.08 555.18 972.95
  C 553.50 977.21 550.29 982.36 548.50 986.49
  C 546.56 990.98 549.10 992.94 553.12 993.54
  Q 556.24 994.00 557.27 993.86
  Q 566.95 992.59 580.50 988.76
  Q 581.96 988.35 583.84 987.27
  A 0.54 0.54 0.0 0 0 583.75 986.29
  Q 580.02 985.01 575.50 985.20
  Q 574.61 985.24 575.08 984.49
  Q 584.08 969.88 590.70 953.86
  A 0.64 0.63 30.5 0 1 591.68 953.61
  C 594.63 955.97 596.27 957.95 600.00 959.06
  A 0.58 0.58 0.0 0 0 600.71 958.29
  C 599.40 955.01 594.85 948.03 590.92 946.46
  Q 589.77 946.00 589.08 946.49
  C 587.71 947.45 586.42 950.25 585.84 951.60
  Q 578.80 967.81 574.20 975.73
  Q 571.54 980.32 568.15 983.92
  C 564.80 987.48 559.78 988.37 554.94 988.32
  A 0.55 0.55 0.0 0 1 554.47 987.50
  Q 557.93 981.49 560.40 975.89
  Q 561.63 973.08 565.64 957.56
  Q 566.91 952.63 568.42 950.03
  C 570.30 946.80 573.59 940.27 577.46 938.44
  Q 583.56 935.55 600.96 926.71
  Q 606.31 923.99 610.46 921.32
  C 615.93 917.78 620.04 914.60 619.33 908.26
  C 618.04 896.84 615.19 888.09 610.95 875.82
  C 602.45 851.24 590.50 823.28 579.21 798.78
  Q 569.99 778.77 546.05 729.46
  Q 533.71 704.03 515.19 669.34
  Q 505.81 651.79 491.50 629.27
  C 484.64 618.49 477.56 606.75 473.29 594.75
  A 1.27 1.27 0.0 0 1 474.00 593.15
  L 484.61 588.72
  Q 487.00 587.73 484.92 586.18
  L 484.46 585.84
  Q 482.35 584.27 479.89 585.20
  L 450.10 596.48
  A 0.45 0.45 0.0 0 1 449.50 596.01
  L 450.22 589.60
  Q 450.49 587.23 448.22 586.51
  L 446.85 586.08
  Q 444.46 585.32 444.04 587.79
  Q 443.59 590.38 442.45 593.77
  C 441.81 595.64 442.29 597.40 441.81 599.26
  Q 441.68 599.76 441.19 599.97
  C 411.17 612.69 395.78 618.86 373.14 630.29
  C 365.55 634.12 355.19 638.40 347.47 642.96
  Q 345.37 644.19 333.84 651.61
  C 330.08 654.04 327.20 656.65 326.11 660.75
  Q 325.40 663.44 327.64 661.78
  L 337.57 654.40
  A 0.62 0.62 0.0 0 1 338.55 655.00
  C 335.86 670.51 345.05 689.08 352.71 702.92
  Q 352.91 703.27 370.13 734.66
  C 377.31 747.73 384.26 764.39 382.99 779.83
  Q 382.52 785.53 381.19 791.27
  C 372.70 827.85 361.62 862.79 350.67 897.52
  C 346.94 909.33 343.21 923.41 340.50 933.41
  Q 338.92 939.22 338.82 940.25
  C 337.28 956.27 375.98 965.33 388.72 968.76
  C 392.17 969.69 395.79 973.28 397.37 975.64
  Q 403.35 984.60 409.50 993.46
  C 412.69 998.07 415.59 1001.19 420.19 1003.42
  Q 426.27 1006.35 429.99 1008.52
  A 1.42 1.41 -46.3 0 1 430.04 1010.93
  Q 423.61 1015.08 415.83 1014.90
  L 405.62 1012.97
  Q 400.10 1009.61 396.42 1003.58
  Q 387.91 989.62 379.13 979.40
  C 376.41 976.24 372.39 970.25 368.69 975.61
  Q 363.94 982.50 362.61 989.96
  Q 362.28 991.82 363.80 990.69
  C 366.55 988.63 368.62 984.17 371.08 979.84
  Q 371.54 979.04 372.00 979.01
  A 1.98 1.82 67.1 0 1 373.58 979.73
  Q 379.61 987.13 385.34 994.86
  Q 387.12 997.26 390.49 1002.78
  Q 392.99 1006.88 395.86 1010.66
  C 339.45 997.51 285.68 974.88 236.85 943.80
  Q 227.87 938.09 220.30 932.77
  Q 107.58 853.67 49.14 730.78
  Q 16.81 662.79 5.33 585.60
  Q 5.22 584.92 5.04 582.77
  C 4.84 580.32 3.97 577.96 3.99 575.73
  C 4.02 572.44 2.88 569.34 2.91 565.75
  Q 2.91 565.41 2.10 559.19
  Q 1.00 550.65 0.00 522.26
  L 0.00 501.87
  Q 0.96 473.91 2.11 464.79
  Q 2.88 458.67 2.92 457.58
  C 3.03 454.31 4.07 451.07 4.01 448.28
  C 3.95 445.95 4.85 443.71 5.05 441.23
  Q 5.22 438.99 5.31 438.38
  Q 19.86 341.22 66.96 259.02
  Q 121.20 164.38 206.76 100.98
  Q 292.32 37.59 395.28 13.62
  Q 420.12 7.84 430.25 6.50
  C 434.47 5.94 436.70 5.39 440.27 5.09
  Q 442.68 4.88 443.62 4.60
  C 446.38 3.77 449.08 4.12 451.79 3.55
  C 455.52 2.76 458.74 3.03 462.59 2.31
  Q 464.08 2.03 466.93 1.85
  Q 483.69 0.75 500.49 0.00
  L 523.38 0.00
  Z
  M 76.40 259.87
  Q 68.73 260.72 63.44 267.47
  Q 59.55 272.29 57.61 278.61
  Q 54.63 286.65 56.31 295.17
  Q 57.16 302.35 57.87 304.60
  Q 62.06 317.76 75.18 318.53
  C 79.69 318.80 85.43 316.62 87.36 312.89
  C 90.73 306.38 88.90 296.97 88.23 289.51
  C 87.61 282.63 95.46 268.57 101.39 265.64
  C 111.23 260.79 121.16 258.30 132.21 255.92
  C 139.76 254.29 149.15 253.36 157.96 252.19
  Q 163.08 251.50 168.57 251.02
  Q 222.05 246.35 272.98 247.03
  Q 277.62 247.10 278.75 247.10
  Q 332.53 247.17 384.52 250.94
  Q 385.31 251.00 385.42 251.78
  C 385.84 254.68 386.90 258.12 390.33 258.55
  Q 391.96 258.76 392.91 258.82
  A 0.75 0.75 0.0 0 1 393.59 259.70
  C 392.62 264.80 395.38 270.70 397.97 274.93
  C 401.01 279.87 408.36 283.97 413.39 287.38
  Q 419.39 291.45 421.40 299.31
  C 423.92 309.11 425.43 314.52 425.73 319.91
  A 0.62 0.62 0.0 0 1 425.29 320.53
  C 418.29 322.73 407.89 326.65 401.23 331.48
  C 398.01 333.82 399.68 339.06 400.39 341.82
  Q 405.62 362.28 408.17 383.11
  Q 409.21 391.59 408.75 402.33
  C 408.43 409.92 406.54 417.62 400.95 422.96
  Q 392.16 431.36 380.81 435.82
  Q 368.35 440.73 353.42 445.26
  Q 352.73 445.46 353.11 444.86
  C 354.86 442.07 356.12 440.23 359.77 439.32
  C 368.11 437.23 373.64 435.60 381.12 430.31
  C 382.93 429.02 385.70 428.29 387.23 426.53
  C 392.74 420.16 394.85 409.35 392.13 401.71
  C 391.09 398.82 388.81 396.93 385.71 393.28
  Q 384.03 391.29 384.59 389.36
  C 386.97 381.27 389.35 374.04 389.28 366.17
  C 389.20 357.16 386.97 347.94 380.63 341.44
  C 372.78 333.40 360.57 330.76 350.94 328.26
  Q 346.46 327.11 344.54 325.58
  C 339.55 321.62 336.53 316.02 332.54 309.87
  C 325.15 298.50 312.52 288.90 298.59 287.72
  Q 288.23 286.84 280.83 290.36
  Q 262.28 299.16 256.61 318.99
  A 0.42 0.42 0.0 0 1 256.05 319.26
  C 234.06 310.16 205.72 321.18 204.21 347.61
  Q 203.83 354.41 204.67 360.42
  A 2.10 2.09 77.7 0 1 203.21 362.71
  C 190.63 366.57 177.69 372.46 173.58 385.79
  C 170.67 395.22 173.34 407.61 177.65 416.67
  A 0.63 0.63 0.0 0 1 177.18 417.56
  C 168.66 419.04 158.60 426.91 154.18 434.14
  C 146.65 446.47 148.32 461.53 159.84 470.64
  C 165.88 475.41 173.60 478.32 181.40 477.65
  C 185.59 477.28 190.23 476.32 193.23 477.60
  C 198.64 479.90 201.24 485.74 205.05 491.60
  Q 209.16 497.92 216.94 502.34
  C 227.51 508.34 240.51 507.03 250.33 500.33
  Q 257.65 495.33 263.14 488.22
  C 264.02 487.08 264.55 485.58 265.21 484.24
  A 0.85 0.84 -76.9 0 1 265.94 483.78
  Q 269.07 483.71 269.76 483.75
  Q 279.67 484.36 288.90 477.92
  A 0.54 0.54 0.0 0 1 289.75 478.42
  C 287.00 505.90 289.19 532.63 292.98 560.08
  Q 296.00 581.91 304.16 618.19
  Q 305.68 624.92 309.75 638.18
  Q 311.94 645.32 315.91 652.55
  Q 318.12 656.56 316.92 652.14
  C 312.99 637.59 308.26 620.51 305.37 604.42
  C 302.52 588.56 299.40 573.22 297.58 557.79
  Q 297.47 556.81 296.17 544.98
  Q 293.16 517.57 294.09 490.00
  Q 294.35 482.14 295.73 474.81
  C 296.23 472.14 296.27 470.29 298.13 468.15
  Q 304.95 460.32 314.77 463.03
  Q 316.46 463.50 316.88 463.87
  Q 318.59 465.37 316.83 467.32
  Q 315.67 468.60 315.42 470.12
  Q 315.29 470.90 315.93 470.43
  Q 324.95 463.79 329.62 460.87
  Q 338.61 455.24 350.27 451.31
  Q 369.11 444.96 377.15 442.10
  Q 391.08 437.15 401.42 428.81
  Q 406.34 424.86 408.48 421.63
  C 414.12 413.13 414.56 399.38 413.90 389.51
  Q 412.73 371.91 410.04 359.34
  Q 408.51 352.23 406.03 341.68
  Q 405.21 338.18 405.99 336.43
  Q 407.20 333.75 409.79 332.22
  Q 414.41 329.50 423.62 326.30
  Q 443.27 319.45 462.00 316.54
  Q 466.05 315.92 466.77 313.76
  L 475.40 312.03
  Q 478.30 314.49 482.09 313.63
  Q 493.76 310.99 504.25 309.02
  A 1.89 1.88 -10.6 0 1 506.45 310.52
  L 511.02 334.62
  A 1.30 1.30 0.0 0 1 509.99 336.14
  Q 494.18 339.20 492.26 339.82
  Q 490.35 340.44 489.14 341.80
  A 1.01 1.00 -36.7 0 0 488.98 342.88
  Q 489.31 343.58 490.05 343.39
  C 493.36 342.55 496.93 342.50 499.21 342.19
  Q 506.43 341.23 510.81 340.35
  Q 511.79 340.16 511.92 341.14
  Q 516.59 375.76 516.35 409.50
  Q 516.32 413.68 516.02 416.91
  A 0.48 0.48 0.0 0 1 515.23 417.24
  L 509.44 412.49
  Q 508.82 411.97 508.79 412.78
  C 508.60 419.09 511.24 423.29 514.85 427.85
  Q 515.16 428.23 515.12 428.72
  C 513.97 445.36 510.58 465.30 499.82 477.83
  C 490.51 488.67 479.48 499.04 469.08 509.95
  C 465.90 513.28 464.15 515.90 461.65 519.86
  Q 460.86 521.12 462.09 520.28
  Q 465.27 518.12 467.46 516.20
  Q 481.05 504.34 493.87 490.87
  C 501.99 482.34 507.65 476.88 511.01 468.24
  Q 519.08 447.55 520.11 426.49
  Q 520.15 425.82 521.11 408.82
  Q 521.84 395.84 520.60 375.00
  Q 519.47 355.77 515.77 331.74
  Q 514.03 320.41 511.58 309.77
  C 510.53 305.22 509.33 303.15 504.24 303.66
  Q 495.33 304.56 486.18 307.43
  A 0.86 0.86 0.0 0 1 485.08 306.77
  Q 483.53 298.60 483.50 290.76
  Q 483.49 288.18 484.75 285.49
  C 488.08 278.34 491.20 271.67 489.88 263.71
  Q 489.77 263.07 490.42 263.12
  Q 495.55 263.56 498.24 263.36
  C 503.82 262.96 504.80 253.97 504.66 249.68
  Q 504.46 243.90 498.86 243.13
  Q 490.89 242.03 487.03 242.54
  Q 486.36 242.63 486.53 241.97
  Q 487.60 237.91 483.12 235.42
  Q 477.30 232.17 473.39 235.67
  Q 473.03 235.99 472.60 235.78
  C 471.40 235.20 470.56 233.87 469.43 233.32
  C 467.23 232.24 463.74 231.57 462.09 233.99
  Q 461.57 234.76 460.73 234.33
  C 455.25 231.49 454.25 235.35 452.26 239.33
  Q 452.01 239.82 451.57 239.82
  C 449.51 239.84 447.80 239.87 445.88 238.06
  C 442.76 235.13 440.40 233.43 435.94 234.31
  Q 435.45 234.40 435.02 234.15
  Q 431.03 231.78 426.83 232.34
  Q 424.82 232.61 422.83 232.29
  Q 418.50 231.58 415.17 234.15
  A 0.82 0.81 -49.3 0 1 414.29 234.22
  C 409.14 231.46 399.79 232.68 397.95 239.06
  A 0.70 0.70 0.0 0 1 397.31 239.56
  C 393.00 239.70 388.35 237.80 386.42 243.20
  Q 385.88 244.70 385.52 245.45
  A 0.62 0.62 0.0 0 1 384.82 245.79
  Q 375.93 243.94 368.63 243.63
  Q 337.48 242.29 296.05 241.48
  Q 227.91 240.14 161.21 246.56
  Q 152.00 247.44 142.91 248.86
  C 129.94 250.89 118.29 253.17 106.26 258.46
  Q 105.80 258.67 105.35 258.42
  Q 100.79 255.92 92.25 256.52
  Q 82.46 257.21 76.40 259.87
  Z
  M 953.84 264.19
  Q 964.00 259.94 974.53 258.62
  A 0.44 0.44 0.0 0 1 974.94 259.31
  Q 959.25 280.86 946.94 303.21
  Q 945.56 305.71 943.73 307.57
  Q 942.37 308.96 941.34 307.31
  Q 934.43 296.16 926.78 286.75
  Q 925.05 284.61 922.88 283.40
  Q 921.73 282.76 921.20 283.66
  A 0.28 0.27 -48.0 0 0 921.21 283.93
  L 937.39 310.05
  A 0.53 0.53 0.0 0 1 937.11 310.83
  Q 930.28 313.25 923.01 312.80
  C 909.09 311.94 894.61 308.83 880.52 306.82
  Q 868.60 305.11 854.31 305.73
  Q 852.85 305.80 852.78 304.34
  Q 852.67 301.86 854.55 300.79
  Q 866.65 293.88 871.77 290.87
  C 877.33 287.60 881.85 285.65 887.60 282.61
  Q 891.18 280.72 892.86 278.27
  A 0.83 0.82 -69.4 0 0 892.28 276.98
  Q 890.63 276.79 889.22 277.47
  Q 881.16 281.38 871.86 285.62
  C 867.08 287.80 861.72 290.95 856.78 293.71
  Q 855.76 294.28 856.14 293.17
  C 856.79 291.26 857.83 288.87 859.38 286.91
  Q 866.44 277.94 873.98 264.76
  C 876.98 259.51 880.13 253.86 880.69 246.57
  Q 880.84 244.62 879.30 245.41
  A 0.74 0.74 0.0 0 0 878.97 245.74
  C 876.43 250.64 874.33 255.61 871.58 260.43
  Q 863.64 274.35 855.17 284.66
  Q 839.45 303.80 837.11 307.10
  Q 836.08 308.54 835.75 309.64
  A 1.79 1.79 0.0 0 0 836.97 311.89
  Q 840.11 312.79 843.04 312.38
  C 861.08 309.83 876.99 311.71 895.69 314.92
  C 910.48 317.46 922.03 319.04 934.53 318.98
  C 940.51 318.95 946.03 317.35 948.66 311.75
  Q 956.98 294.05 966.34 280.33
  Q 981.31 258.36 981.83 257.59
  Q 982.68 256.33 983.40 254.81
  A 2.24 2.22 41.0 0 0 983.24 252.65
  C 980.90 249.07 975.72 247.37 971.69 246.32
  Q 962.46 243.90 953.00 242.78
  Q 933.87 240.51 909.85 240.61
  Q 899.19 240.66 891.87 242.61
  Q 887.15 243.87 892.02 244.27
  C 898.56 244.82 905.87 245.17 911.38 245.19
  Q 931.72 245.25 953.07 247.45
  Q 964.09 248.58 974.56 251.82
  Q 975.66 252.16 976.45 253.00
  Q 976.80 253.37 976.05 253.44
  C 974.45 253.58 971.83 253.38 969.52 253.98
  Q 954.97 257.76 941.08 262.87
  Q 921.57 270.04 904.20 277.45
  A 0.54 0.53 -25.5 0 1 903.51 277.21
  Q 897.60 265.85 890.42 254.85
  C 889.12 252.85 887.57 251.62 885.51 250.68
  A 0.28 0.27 9.1 0 0 885.12 250.96
  Q 885.62 254.89 887.42 258.19
  Q 893.30 268.90 899.25 279.62
  C 901.85 284.30 904.56 282.53 909.07 280.98
  Q 926.38 275.00 940.96 270.50
  Q 947.50 268.49 954.54 265.54
  Q 955.24 265.25 955.26 264.63
  Q 955.29 264.09 954.78 264.25
  Q 954.17 264.43 953.92 264.47
  Q 952.63 264.69 953.84 264.19
  Z
  M 592.19 740.89
  Q 598.08 731.20 602.67 722.95
  Q 630.16 673.60 654.56 622.32
  Q 671.44 586.83 685.61 547.10
  Q 697.49 513.78 703.26 478.52
  Q 707.88 450.29 706.35 423.19
  Q 706.11 418.87 705.67 416.16
  C 704.69 410.16 704.42 404.61 703.14 398.61
  C 701.49 390.88 700.39 384.92 698.24 378.59
  C 685.12 339.97 659.72 306.92 624.88 285.26
  C 603.82 272.18 580.58 262.50 556.23 257.00
  C 544.29 254.30 533.65 251.29 522.95 251.72
  Q 520.97 251.80 522.54 253.01
  C 526.68 256.22 533.88 257.67 539.78 258.79
  C 556.02 261.89 571.45 267.09 586.14 272.65
  Q 625.07 287.39 653.65 316.75
  C 672.19 335.81 685.56 359.34 693.48 384.60
  Q 695.33 390.49 697.17 399.93
  Q 699.41 411.37 699.77 415.52
  Q 702.93 452.44 695.59 488.13
  Q 684.14 543.81 657.54 601.77
  C 645.13 628.83 631.79 655.40 617.88 682.15
  C 612.67 692.16 604.50 706.72 599.01 718.49
  Q 594.00 729.23 590.45 740.98
  Q 589.89 742.81 591.53 741.83
  Q 591.68 741.75 592.19 740.89
  Z
  M 444.17 474.12
  Q 441.66 476.38 438.48 478.48
  C 420.07 490.61 405.26 498.46 380.29 511.57
  Q 365.50 519.34 361.81 522.55
  Q 358.78 525.20 357.89 526.66
  A 0.73 0.73 0.0 0 0 358.56 527.76
  L 361.76 527.55
  Q 362.33 527.51 362.15 528.05
  Q 361.41 530.22 361.41 531.01
  Q 361.41 532.62 362.72 532.71
  A 0.89 0.88 17.7 0 0 363.54 532.29
  Q 367.19 526.40 373.85 521.63
  Q 380.59 516.80 385.70 514.20
  Q 409.50 502.11 426.39 492.37
  Q 444.77 481.79 459.95 467.46
  C 470.94 457.08 479.31 443.72 481.17 428.56
  Q 482.07 421.24 482.07 408.54
  Q 482.09 373.44 474.80 336.76
  Q 472.78 326.60 467.23 318.02
  Q 466.35 316.66 466.37 318.28
  C 466.42 323.35 468.43 329.76 469.12 333.51
  Q 473.54 357.83 473.88 360.10
  Q 477.93 387.16 477.33 414.42
  C 477.17 421.45 476.43 430.51 474.53 436.52
  C 470.51 449.27 460.88 461.14 450.71 469.13
  A 1.70 1.70 0.0 0 1 449.12 469.41
  Q 442.98 467.32 434.96 467.28
  Q 433.07 467.26 432.86 469.14
  L 432.70 470.60
  Q 432.50 472.33 434.24 472.52
  L 444.01 473.62
  Q 444.64 473.69 444.17 474.12
  Z
  M 820.05 394.81
  Q 835.22 377.95 851.19 364.32
  Q 856.01 360.21 864.98 353.99
  C 871.51 349.46 877.66 344.77 884.08 340.35
  Q 884.89 339.79 883.93 340.01
  C 872.43 342.56 861.39 349.29 851.96 356.62
  Q 834.54 370.19 820.29 386.04
  Q 804.49 403.62 795.62 415.35
  Q 765.85 454.72 742.49 497.96
  C 712.89 552.72 688.43 610.02 669.60 669.63
  Q 657.21 708.89 649.27 749.28
  Q 647.65 757.52 646.78 765.11
  C 646.55 767.10 646.82 768.70 646.80 770.69
  A 0.52 0.52 0.0 0 0 647.66 771.09
  C 651.41 767.79 653.02 759.71 654.11 754.34
  Q 663.36 708.93 677.06 666.32
  Q 699.41 596.88 733.08 528.48
  C 740.22 513.98 750.31 495.33 756.27 484.52
  C 766.19 466.52 779.18 446.42 792.78 428.29
  Q 805.27 411.64 809.16 407.16
  Q 815.31 400.09 820.05 394.81
  Z
  M 447.80 353.37
  C 444.92 354.34 441.38 354.95 438.89 355.66
  A 4.49 2.92 -3.7 0 0 436.19 357.68
  L 435.90 358.34
  Q 435.21 359.93 436.92 359.66
  Q 449.56 357.65 461.54 353.97
  Q 465.18 352.85 467.89 351.08
  Q 469.69 349.90 468.93 347.88
  L 468.73 347.37
  Q 467.88 345.12 465.85 346.40
  C 460.32 349.90 453.94 351.29 447.80 353.37
  Z
  M 464.46 405.21
  L 461.81 402.87
  A 1.49 1.49 0.0 0 0 459.70 403.01
  L 456.52 406.62
  A 6.13 3.26 -48.6 0 0 454.91 413.38
  L 454.91 413.38
  A 6.13 3.26 -48.6 0 0 461.41 410.93
  L 464.59 407.32
  A 1.49 1.49 0.0 0 0 464.46 405.21
  Z
  M 336.36 517.16
  L 333.86 515.14
  A 1.15 1.15 0.0 0 0 332.24 515.31
  L 328.37 520.09
  A 9.76 2.67 -51.0 0 0 324.30 529.35
  L 324.44 529.47
  A 9.76 2.67 -51.0 0 0 332.66 523.56
  L 336.53 518.78
  A 1.15 1.15 0.0 0 0 336.36 517.16
  Z
  M 446.65 535.33
  L 438.60 535.85
  Q 437.07 535.95 437.17 537.48
  L 437.39 540.82
  Q 437.45 541.79 438.43 541.77
  Q 440.63 541.74 445.07 542.12
  C 447.14 542.30 448.39 541.63 450.47 541.12
  Q 451.03 540.99 451.37 541.44
  Q 461.31 554.54 477.34 572.78
  Q 483.58 579.88 486.69 582.61
  Q 487.87 583.64 489.33 583.05
  Q 490.26 582.67 490.29 582.58
  Q 491.03 580.06 489.60 578.56
  Q 473.65 561.91 455.57 539.59
  Q 452.63 535.97 448.70 529.76
  C 446.25 525.88 443.55 522.12 441.04 518.20
  Q 439.90 516.42 438.35 515.52
  Q 436.32 514.34 437.10 516.56
  C 439.36 522.97 443.10 528.83 446.89 534.85
  A 0.32 0.31 72.1 0 1 446.65 535.33
  Z
  M 356.9603 606.3294
  A 7.85 3.27 36.5 0 0 352.5951 599.0314
  A 7.85 3.27 36.5 0 0 344.3397 596.9906
  A 7.85 3.27 36.5 0 0 348.7049 604.2886
  A 7.85 3.27 36.5 0 0 356.9603 606.3294
  Z"
/>
<path fill="#231f20" d="
  M 475.40 312.03
  Q 479.49 309.94 480.79 306.84
  Q 481.70 304.67 480.80 300.42
  Q 479.86 295.97 479.50 291.05
  Q 479.25 287.73 480.40 285.16
  C 483.05 279.26 485.27 273.97 485.60 267.90
  C 485.76 264.82 480.05 264.14 478.00 264.19
  C 475.22 264.26 474.38 266.87 471.49 266.49
  Q 469.34 266.20 466.64 264.79
  A 0.95 0.94 -48.3 0 0 465.67 264.85
  Q 462.68 266.86 459.13 265.42
  Q 458.63 265.22 458.10 265.31
  Q 455.95 265.68 454.32 264.87
  Q 453.82 264.63 453.65 265.16
  C 450.85 274.25 454.92 280.49 459.47 288.74
  Q 464.51 297.85 463.26 307.89
  Q 462.92 310.63 461.61 308.14
  Q 461.43 307.80 461.10 306.46
  Q 459.04 298.13 457.95 294.59
  C 457.23 292.26 454.18 288.78 452.50 285.14
  Q 451.32 282.57 451.32 282.56
  Q 451.14 281.64 450.78 282.62
  Q 450.42 283.60 450.88 286.13
  C 452.57 295.49 454.73 299.91 459.04 311.51
  Q 459.21 311.97 459.70 311.94
  Q 463.37 311.72 466.77 313.76
  Q 466.05 315.92 462.00 316.54
  Q 443.27 319.45 423.62 326.30
  Q 414.41 329.50 409.79 332.22
  Q 407.20 333.75 405.99 336.43
  Q 405.21 338.18 406.03 341.68
  Q 408.51 352.23 410.04 359.34
  Q 412.73 371.91 413.90 389.51
  C 414.56 399.38 414.12 413.13 408.48 421.63
  Q 406.34 424.86 401.42 428.81
  Q 391.08 437.15 377.15 442.10
  Q 369.11 444.96 350.27 451.31
  Q 338.61 455.24 329.62 460.87
  Q 324.95 463.79 315.93 470.43
  Q 315.29 470.90 315.42 470.12
  Q 315.67 468.60 316.83 467.32
  Q 318.59 465.37 316.88 463.87
  Q 316.46 463.50 314.77 463.03
  Q 304.95 460.32 298.13 468.15
  C 296.27 470.29 296.23 472.14 295.73 474.81
  Q 294.35 482.14 294.09 490.00
  Q 293.16 517.57 296.17 544.98
  Q 297.47 556.81 297.58 557.79
  C 299.40 573.22 302.52 588.56 305.37 604.42
  C 308.26 620.51 312.99 637.59 316.92 652.14
  Q 318.12 656.56 315.91 652.55
  Q 311.94 645.32 309.75 638.18
  Q 305.68 624.92 304.16 618.19
  Q 296.00 581.91 292.98 560.08
  C 289.19 532.63 287.00 505.90 289.75 478.42
  A 0.54 0.54 0.0 0 0 288.90 477.92
  Q 279.67 484.36 269.76 483.75
  Q 269.07 483.71 265.94 483.78
  A 0.85 0.84 -76.9 0 0 265.21 484.24
  C 264.55 485.58 264.02 487.08 263.14 488.22
  Q 257.65 495.33 250.33 500.33
  C 240.51 507.03 227.51 508.34 216.94 502.34
  Q 209.16 497.92 205.05 491.60
  C 201.24 485.74 198.64 479.90 193.23 477.60
  C 190.23 476.32 185.59 477.28 181.40 477.65
  C 173.60 478.32 165.88 475.41 159.84 470.64
  C 148.32 461.53 146.65 446.47 154.18 434.14
  C 158.60 426.91 168.66 419.04 177.18 417.56
  A 0.63 0.63 0.0 0 0 177.65 416.67
  C 173.34 407.61 170.67 395.22 173.58 385.79
  C 177.69 372.46 190.63 366.57 203.21 362.71
  A 2.10 2.09 77.7 0 0 204.67 360.42
  Q 203.83 354.41 204.21 347.61
  C 205.72 321.18 234.06 310.16 256.05 319.26
  A 0.42 0.42 0.0 0 0 256.61 318.99
  Q 262.28 299.16 280.83 290.36
  Q 288.23 286.84 298.59 287.72
  C 312.52 288.90 325.15 298.50 332.54 309.87
  C 336.53 316.02 339.55 321.62 344.54 325.58
  Q 346.46 327.11 350.94 328.26
  C 360.57 330.76 372.78 333.40 380.63 341.44
  C 386.97 347.94 389.20 357.16 389.28 366.17
  C 389.35 374.04 386.97 381.27 384.59 389.36
  Q 384.03 391.29 385.71 393.28
  C 388.81 396.93 391.09 398.82 392.13 401.71
  C 394.85 409.35 392.74 420.16 387.23 426.53
  C 385.70 428.29 382.93 429.02 381.12 430.31
  C 373.64 435.60 368.11 437.23 359.77 439.32
  C 356.12 440.23 354.86 442.07 353.11 444.86
  Q 352.73 445.46 353.42 445.26
  Q 368.35 440.73 380.81 435.82
  Q 392.16 431.36 400.95 422.96
  C 406.54 417.62 408.43 409.92 408.75 402.33
  Q 409.21 391.59 408.17 383.11
  Q 405.62 362.28 400.39 341.82
  C 399.68 339.06 398.01 333.82 401.23 331.48
  C 407.89 326.65 418.29 322.73 425.29 320.53
  A 0.62 0.62 0.0 0 0 425.73 319.91
  C 425.43 314.52 423.92 309.11 421.40 299.31
  Q 419.39 291.45 413.39 287.38
  C 408.36 283.97 401.01 279.87 397.97 274.93
  C 395.38 270.70 392.62 264.80 393.59 259.70
  A 0.75 0.75 0.0 0 0 392.91 258.82
  Q 391.96 258.76 390.33 258.55
  C 386.90 258.12 385.84 254.68 385.42 251.78
  Q 385.31 251.00 384.52 250.94
  Q 332.53 247.17 278.75 247.10
  Q 277.62 247.10 272.98 247.03
  Q 222.05 246.35 168.57 251.02
  Q 163.08 251.50 157.96 252.19
  C 149.15 253.36 139.76 254.29 132.21 255.92
  C 121.16 258.30 111.23 260.79 101.39 265.64
  C 95.46 268.57 87.61 282.63 88.23 289.51
  C 88.90 296.97 90.73 306.38 87.36 312.89
  C 85.43 316.62 79.69 318.80 75.18 318.53
  Q 62.06 317.76 57.87 304.60
  Q 57.16 302.35 56.31 295.17
  L 57.61 278.61
  Q 59.55 272.29 63.44 267.47
  L 76.40 259.87
  Q 82.46 257.21 92.25 256.52
  Q 100.79 255.92 105.35 258.42
  Q 105.80 258.67 106.26 258.46
  C 118.29 253.17 129.94 250.89 142.91 248.86
  Q 152.00 247.44 161.21 246.56
  Q 227.91 240.14 296.05 241.48
  Q 337.48 242.29 368.63 243.63
  Q 375.93 243.94 384.82 245.79
  A 0.62 0.62 0.0 0 0 385.52 245.45
  Q 385.88 244.70 386.42 243.20
  C 388.35 237.80 393.00 239.70 397.31 239.56
  A 0.70 0.70 0.0 0 0 397.95 239.06
  C 399.79 232.68 409.14 231.46 414.29 234.22
  A 0.82 0.81 -49.3 0 0 415.17 234.15
  Q 418.50 231.58 422.83 232.29
  Q 424.82 232.61 426.83 232.34
  Q 431.03 231.78 435.02 234.15
  Q 435.45 234.40 435.94 234.31
  C 440.40 233.43 442.76 235.13 445.88 238.06
  C 447.80 239.87 449.51 239.84 451.57 239.82
  Q 452.01 239.82 452.26 239.33
  C 454.25 235.35 455.25 231.49 460.73 234.33
  Q 461.57 234.76 462.09 233.99
  C 463.74 231.57 467.23 232.24 469.43 233.32
  C 470.56 233.87 471.40 235.20 472.60 235.78
  Q 473.03 235.99 473.39 235.67
  Q 477.30 232.17 483.12 235.42
  Q 487.60 237.91 486.53 241.97
  Q 486.36 242.63 487.03 242.54
  Q 490.89 242.03 498.86 243.13
  Q 504.46 243.90 504.66 249.68
  C 504.80 253.97 503.82 262.96 498.24 263.36
  Q 495.55 263.56 490.42 263.12
  Q 489.77 263.07 489.88 263.71
  C 491.20 271.67 488.08 278.34 484.75 285.49
  Q 483.49 288.18 483.50 290.76
  Q 483.53 298.60 485.08 306.77
  A 0.86 0.86 0.0 0 0 486.18 307.43
  Q 495.33 304.56 504.24 303.66
  C 509.33 303.15 510.53 305.22 511.58 309.77
  Q 514.03 320.41 515.77 331.74
  Q 519.47 355.77 520.60 375.00
  Q 521.84 395.84 521.11 408.82
  Q 520.15 425.82 520.11 426.49
  Q 519.08 447.55 511.01 468.24
  C 507.65 476.88 501.99 482.34 493.87 490.87
  Q 481.05 504.34 467.46 516.20
  Q 465.27 518.12 462.09 520.28
  Q 460.86 521.12 461.65 519.86
  C 464.15 515.90 465.90 513.28 469.08 509.95
  C 479.48 499.04 490.51 488.67 499.82 477.83
  C 510.58 465.30 513.97 445.36 515.12 428.72
  Q 515.16 428.23 514.85 427.85
  C 511.24 423.29 508.60 419.09 508.79 412.78
  Q 508.82 411.97 509.44 412.49
  L 515.23 417.24
  A 0.48 0.48 0.0 0 0 516.02 416.91
  Q 516.32 413.68 516.35 409.50
  Q 516.59 375.76 511.92 341.14
  Q 511.79 340.16 510.81 340.35
  Q 506.43 341.23 499.21 342.19
  C 496.93 342.50 493.36 342.55 490.05 343.39
  Q 489.31 343.58 488.98 342.88
  A 1.01 1.00 -36.7 0 1 489.14 341.80
  Q 490.35 340.44 492.26 339.82
  Q 494.18 339.20 509.99 336.14
  A 1.30 1.30 0.0 0 0 511.02 334.62
  L 506.45 310.52
  A 1.89 1.88 -10.6 0 0 504.25 309.02
  Q 493.76 310.99 482.09 313.63
  Q 478.30 314.49 475.40 312.03
  Z
  M 441.50 248.08
  Q 442.21 252.75 439.49 249.20
  C 437.15 246.16 435.04 236.90 430.30 237.25
  Q 429.71 237.29 429.93 237.84
  Q 432.49 244.06 432.83 249.38
  A 0.81 0.81 0.0 0 1 431.57 250.11
  Q 429.64 248.81 429.11 247.15
  Q 427.66 242.69 425.15 239.20
  Q 423.87 237.41 421.68 237.16
  L 420.91 237.07
  Q 418.73 236.83 419.83 238.73
  Q 422.82 243.88 424.60 249.97
  A 0.77 0.77 0.0 0 1 423.69 250.94
  C 420.77 250.29 419.32 247.02 418.41 244.70
  C 416.36 239.52 411.65 235.87 406.07 237.53
  Q 402.04 238.73 406.07 239.95
  C 413.43 242.18 417.77 255.07 418.70 261.79
  C 419.18 265.28 418.17 271.52 413.31 270.59
  Q 412.50 270.43 411.77 269.71
  C 407.69 265.65 404.27 261.43 399.84 260.98
  A 1.44 1.43 0.2 0 0 398.26 262.54
  C 398.74 267.51 400.61 272.88 404.99 275.95
  Q 409.27 278.96 413.40 281.88
  C 420.64 287.02 423.64 290.40 425.83 298.18
  Q 427.32 303.48 429.88 313.10
  Q 430.49 315.37 432.68 315.39
  Q 443.52 315.44 453.93 312.03
  A 0.69 0.69 0.0 0 0 454.34 311.08
  C 449.78 301.19 445.21 289.91 445.89 279.18
  Q 446.20 274.32 447.07 264.01
  C 447.96 253.49 447.77 242.89 438.64 236.82
  Q 436.87 235.65 437.84 237.54
  Q 440.75 243.22 441.50 248.08
  Z
  M 466.86 250.36
  Q 467.08 247.70 469.25 241.84
  Q 470.13 239.45 468.12 237.88
  L 467.79 237.63
  Q 465.23 235.65 464.18 238.70
  Q 460.49 249.44 462.53 259.98
  A 0.55 0.55 0.0 0 0 463.41 260.31
  C 466.15 258.12 466.52 254.49 466.86 250.36
  Z
  M 457.26 258.91
  C 456.90 251.41 457.43 244.97 459.42 238.39
  Q 459.75 237.29 458.67 237.70
  L 458.23 237.86
  Q 457.56 238.12 457.20 238.74
  C 454.50 243.37 454.64 250.43 454.64 255.73
  Q 454.64 258.75 455.45 259.77
  Q 456.01 260.47 456.34 260.35
  A 1.46 1.37 79.4 0 0 457.26 258.91
  Z
  M 479.19 247.28
  Q 480.26 247.24 480.87 249.06
  A 0.67 0.66 57.0 0 0 481.99 249.30
  Q 484.21 246.90 483.58 244.32
  Q 483.42 243.65 483.97 243.24
  L 484.41 242.91
  Q 484.81 242.61 484.49 242.23
  C 481.06 238.13 476.88 235.97 474.13 242.45
  Q 470.31 251.45 471.33 259.66
  Q 471.73 262.86 473.63 260.25
  C 476.30 256.56 476.75 251.33 478.56 247.69
  A 0.74 0.73 11.4 0 1 479.19 247.28
  Z
  M 393.23 253.99
  L 393.52 244.22
  A 0.42 0.42 0.0 0 0 393.12 243.79
  L 392.83 243.78
  A 2.76 2.41 -88.3 0 0 390.34 246.46
  L 390.19 251.56
  A 2.76 2.41 -88.3 0 0 392.51 254.39
  L 392.80 254.40
  A 0.42 0.42 0.0 0 0 393.23 253.99
  Z
  M 410.27 261.50
  L 412.60 264.06
  A 0.23 0.23 0.0 0 0 412.92 264.07
  L 413.02 263.99
  A 1.96 1.94 -42.4 0 0 413.16 261.23
  L 413.13 261.20
  A 1.96 1.94 -42.4 0 0 410.38 261.09
  L 410.28 261.18
  A 0.23 0.23 0.0 0 0 410.27 261.50
  Z
  M 62.49 283.94
  Q 60.49 295.16 63.69 305.03
  Q 65.61 310.94 71.46 312.03
  Q 81.55 311.62 81.76 302.76
  C 82.00 292.45 81.72 285.38 85.41 278.00
  C 88.40 272.03 92.12 265.33 98.23 262.35
  Q 99.57 261.70 98.09 261.62
  C 93.60 261.38 87.08 261.65 82.59 263.13
  Q 79.65 264.10 77.23 264.30
  Q 74.52 264.51 71.72 266.37
  Q 62.58 272.43 62.49 283.94
  Z
  M 340.25 381.37
  A 1.02 1.02 0.0 0 1 339.74 382.88
  Q 336.61 384.03 333.35 382.72
  Q 326.55 379.98 321.25 375.41
  Q 320.78 375.00 320.51 375.57
  C 316.57 383.75 304.84 384.80 297.29 381.57
  A 2.43 2.42 -72.2 0 1 295.88 378.81
  L 295.98 378.39
  Q 296.53 375.94 298.88 376.82
  C 304.23 378.82 312.49 379.26 315.87 373.66
  C 317.63 370.75 313.95 368.00 312.76 366.00
  C 307.85 357.77 309.46 347.26 320.65 346.02
  Q 321.49 345.92 320.73 345.55
  Q 307.62 339.07 293.83 341.09
  C 286.41 342.19 279.61 343.56 273.07 346.58
  A 0.82 0.81 -17.9 0 0 272.61 347.46
  C 274.00 355.74 275.22 364.70 273.18 372.20
  C 271.16 379.57 265.07 383.05 257.74 385.72
  Q 257.23 385.91 257.62 386.30
  Q 262.06 390.79 264.74 396.27
  C 266.99 400.85 268.31 408.22 262.63 410.72
  C 260.72 411.56 258.20 411.49 256.16 411.30
  Q 248.55 410.62 245.77 410.43
  Q 241.27 410.13 238.45 411.61
  C 223.66 419.33 236.64 436.92 249.46 429.92
  Q 251.20 428.97 255.10 425.59
  Q 256.55 424.33 258.68 424.79
  Q 259.27 424.91 259.57 425.43
  Q 260.58 427.14 263.66 428.57
  C 269.13 431.12 275.58 432.24 278.50 433.24
  Q 290.89 437.50 295.47 449.78
  Q 296.03 451.29 297.07 454.22
  Q 297.30 454.86 297.97 454.94
  C 305.40 455.87 312.84 457.05 319.40 456.24
  C 346.63 452.88 364.09 429.74 363.09 402.66
  C 362.40 383.96 351.54 366.23 336.75 355.00
  Q 333.17 352.28 329.02 349.60
  Q 328.34 349.16 328.11 349.94
  C 327.17 353.27 324.09 352.74 320.52 352.99
  Q 319.89 353.03 317.14 354.36
  C 313.58 356.09 316.61 362.09 318.01 364.26
  C 319.08 365.91 320.09 366.08 322.23 366.82
  Q 327.44 368.63 331.99 365.73
  A 1.60 1.59 52.3 0 0 332.30 363.29
  L 330.97 361.88
  A 2.54 2.54 0.0 0 1 331.45 358.01
  Q 333.26 356.83 335.21 358.87
  C 342.24 366.23 334.00 372.46 326.79 372.47
  Q 326.01 372.47 326.66 372.91
  Q 330.35 375.44 331.06 375.77
  C 334.35 377.31 338.95 379.33 340.25 381.37
  Z
  M 282.26 474.75
  Q 281.39 475.81 282.62 475.20
  Q 288.78 472.10 291.51 465.92
  C 294.47 459.21 291.28 450.82 287.26 444.80
  Q 283.86 439.71 277.61 438.08
  Q 276.94 437.91 277.42 438.40
  Q 283.98 445.18 286.50 454.51
  Q 289.53 465.77 282.26 474.75
  Z"
/>
<path fill="#dedede" d="
  M 441.50 248.08
  Q 440.75 243.22 437.84 237.54
  Q 436.87 235.65 438.64 236.82
  C 447.77 242.89 447.96 253.49 447.07 264.01
  Q 446.20 274.32 445.89 279.18
  C 445.21 289.91 449.78 301.19 454.34 311.08
  A 0.69 0.69 0.0 0 1 453.93 312.03
  Q 443.52 315.44 432.68 315.39
  Q 430.49 315.37 429.88 313.10
  Q 427.32 303.48 425.83 298.18
  C 423.64 290.40 420.64 287.02 413.40 281.88
  Q 409.27 278.96 404.99 275.95
  C 400.61 272.88 398.74 267.51 398.26 262.54
  A 1.44 1.43 0.2 0 1 399.84 260.98
  C 404.27 261.43 407.69 265.65 411.77 269.71
  Q 412.50 270.43 413.31 270.59
  C 418.17 271.52 419.18 265.28 418.70 261.79
  C 417.77 255.07 413.43 242.18 406.07 239.95
  Q 402.04 238.73 406.07 237.53
  C 411.65 235.87 416.36 239.52 418.41 244.70
  C 419.32 247.02 420.77 250.29 423.69 250.94
  A 0.77 0.77 0.0 0 0 424.60 249.97
  Q 422.82 243.88 419.83 238.73
  Q 418.73 236.83 420.91 237.07
  L 421.68 237.16
  Q 423.87 237.41 425.15 239.20
  Q 427.66 242.69 429.11 247.15
  Q 429.64 248.81 431.57 250.11
  A 0.81 0.81 0.0 0 0 432.83 249.38
  Q 432.49 244.06 429.93 237.84
  Q 429.71 237.29 430.30 237.25
  C 435.04 236.90 437.15 246.16 439.49 249.20
  Q 442.21 252.75 441.50 248.08
  Z"
/>
<path fill="#dedede" d="
  M 466.86 250.36
  C 466.52 254.49 466.15 258.12 463.41 260.31
  A 0.55 0.55 0.0 0 1 462.53 259.98
  Q 460.49 249.44 464.18 238.70
  Q 465.23 235.65 467.79 237.63
  L 468.12 237.88
  Q 470.13 239.45 469.25 241.84
  Q 467.08 247.70 466.86 250.36
  Z"
/>
<path fill="#dedede" d="
  M 459.42 238.39
  C 457.43 244.97 456.90 251.41 457.26 258.91
  A 1.46 1.37 79.4 0 1 456.34 260.35
  Q 456.01 260.47 455.45 259.77
  Q 454.64 258.75 454.64 255.73
  C 454.64 250.43 454.50 243.37 457.20 238.74
  Q 457.56 238.12 458.23 237.86
  L 458.67 237.70
  Q 459.75 237.29 459.42 238.39
  Z"
/>
<path fill="#dedede" d="
  M 479.19 247.28
  A 0.74 0.73 11.4 0 0 478.56 247.69
  C 476.75 251.33 476.30 256.56 473.63 260.25
  Q 471.73 262.86 471.33 259.66
  Q 470.31 251.45 474.13 242.45
  C 476.88 235.97 481.06 238.13 484.49 242.23
  Q 484.81 242.61 484.41 242.91
  L 483.97 243.24
  Q 483.42 243.65 483.58 244.32
  Q 484.21 246.90 481.99 249.30
  A 0.67 0.66 57.0 0 1 480.87 249.06
  Q 480.26 247.24 479.19 247.28
  Z"
/>
<path fill="#231f20" d="
  M 953.92 264.47
  Q 954.17 264.43 954.78 264.25
  Q 955.29 264.09 955.26 264.63
  Q 955.24 265.25 954.54 265.54
  Q 947.50 268.49 940.96 270.50
  Q 926.38 275.00 909.07 280.98
  C 904.56 282.53 901.85 284.30 899.25 279.62
  Q 893.30 268.90 887.42 258.19
  Q 885.62 254.89 885.12 250.96
  A 0.28 0.27 9.1 0 1 885.51 250.68
  C 887.57 251.62 889.12 252.85 890.42 254.85
  Q 897.60 265.85 903.51 277.21
  A 0.54 0.53 -25.5 0 0 904.20 277.45
  Q 921.57 270.04 941.08 262.87
  Q 954.97 257.76 969.52 253.98
  C 971.83 253.38 974.45 253.58 976.05 253.44
  Q 976.80 253.37 976.45 253.00
  Q 975.66 252.16 974.56 251.82
  Q 964.09 248.58 953.07 247.45
  Q 931.72 245.25 911.38 245.19
  C 905.87 245.17 898.56 244.82 892.02 244.27
  Q 887.15 243.87 891.87 242.61
  Q 899.19 240.66 909.85 240.61
  Q 933.87 240.51 953.00 242.78
  Q 962.46 243.90 971.69 246.32
  C 975.72 247.37 980.90 249.07 983.24 252.65
  A 2.24 2.22 41.0 0 1 983.40 254.81
  Q 982.68 256.33 981.83 257.59
  Q 981.31 258.36 966.34 280.33
  Q 956.98 294.05 948.66 311.75
  C 946.03 317.35 940.51 318.95 934.53 318.98
  C 922.03 319.04 910.48 317.46 895.69 314.92
  C 876.99 311.71 861.08 309.83 843.04 312.38
  Q 840.11 312.79 836.97 311.89
  A 1.79 1.79 0.0 0 1 835.75 309.64
  Q 836.08 308.54 837.11 307.10
  Q 839.45 303.80 855.17 284.66
  Q 863.64 274.35 871.58 260.43
  C 874.33 255.61 876.43 250.64 878.97 245.74
  A 0.74 0.74 0.0 0 1 879.30 245.41
  Q 880.84 244.62 880.69 246.57
  C 880.13 253.86 876.98 259.51 873.98 264.76
  Q 866.44 277.94 859.38 286.91
  C 857.83 288.87 856.79 291.26 856.14 293.17
  Q 855.76 294.28 856.78 293.71
  C 861.72 290.95 867.08 287.80 871.86 285.62
  Q 881.16 281.38 889.22 277.47
  Q 890.63 276.79 892.28 276.98
  A 0.83 0.82 -69.4 0 1 892.86 278.27
  Q 891.18 280.72 887.60 282.61
  C 881.85 285.65 877.33 287.60 871.77 290.87
  Q 866.65 293.88 854.55 300.79
  Q 852.67 301.86 852.78 304.34
  Q 852.85 305.80 854.31 305.73
  Q 868.60 305.11 880.52 306.82
  C 894.61 308.83 909.09 311.94 923.01 312.80
  Q 930.28 313.25 937.11 310.83
  A 0.53 0.53 0.0 0 0 937.39 310.05
  L 921.21 283.93
  A 0.28 0.27 -48.0 0 1 921.20 283.66
  Q 921.73 282.76 922.88 283.40
  Q 925.05 284.61 926.78 286.75
  Q 934.43 296.16 941.34 307.31
  Q 942.37 308.96 943.73 307.57
  Q 945.56 305.71 946.94 303.21
  Q 959.25 280.86 974.94 259.31
  A 0.44 0.44 0.0 0 0 974.53 258.62
  Q 964.00 259.94 953.84 264.19
  Q 952.63 264.69 953.92 264.47
  Z"
/>
<path fill="#ffffff" d="
  M 393.23 253.99
  A 0.42 0.42 0.0 0 1 392.80 254.40
  L 392.51 254.39
  A 2.76 2.41 -88.3 0 1 390.19 251.56
  L 390.34 246.46
  A 2.76 2.41 -88.3 0 1 392.83 243.78
  L 393.12 243.79
  A 0.42 0.42 0.0 0 1 393.52 244.22
  L 393.23 253.99
  Z"
/>
<path fill="#231f20" d="
  M 592.19 740.89
  Q 591.68 741.75 591.53 741.83
  Q 589.89 742.81 590.45 740.98
  Q 594.00 729.23 599.01 718.49
  C 604.50 706.72 612.67 692.16 617.88 682.15
  C 631.79 655.40 645.13 628.83 657.54 601.77
  Q 684.14 543.81 695.59 488.13
  Q 702.93 452.44 699.77 415.52
  Q 699.41 411.37 697.17 399.93
  Q 695.33 390.49 693.48 384.60
  C 685.56 359.34 672.19 335.81 653.65 316.75
  Q 625.07 287.39 586.14 272.65
  C 571.45 267.09 556.02 261.89 539.78 258.79
  C 533.88 257.67 526.68 256.22 522.54 253.01
  Q 520.97 251.80 522.95 251.72
  C 533.65 251.29 544.29 254.30 556.23 257.00
  C 580.58 262.50 603.82 272.18 624.88 285.26
  C 659.72 306.92 685.12 339.97 698.24 378.59
  C 700.39 384.92 701.49 390.88 703.14 398.61
  C 704.42 404.61 704.69 410.16 705.67 416.16
  Q 706.11 418.87 706.35 423.19
  Q 707.88 450.29 703.26 478.52
  Q 697.49 513.78 685.61 547.10
  Q 671.44 586.83 654.56 622.32
  Q 630.16 673.60 602.67 722.95
  Q 598.08 731.20 592.19 740.89
  Z"
/>
<path fill="#9c9a9b" d="
  M 76.40 259.87
  L 63.44 267.47
  Q 68.73 260.72 76.40 259.87
  Z"
/>
<path fill="#dedede" d="
  M 410.27 261.50
  A 0.23 0.23 0.0 0 1 410.28 261.18
  L 410.38 261.09
  A 1.96 1.94 -42.4 0 1 413.13 261.20
  L 413.16 261.23
  A 1.96 1.94 -42.4 0 1 413.02 263.99
  L 412.92 264.07
  A 0.23 0.23 0.0 0 1 412.60 264.06
  L 410.27 261.50
  Z"
/>
<path fill="#9c9a9b" d="
  M 71.46 312.03
  Q 69.02 307.53 68.09 303.43
  C 65.06 289.94 66.93 277.76 75.84 267.02
  Q 76.90 265.74 75.25 265.97
  C 71.38 266.51 66.47 272.16 64.80 275.82
  C 63.75 278.10 63.27 281.25 62.49 283.94
  Q 62.58 272.43 71.72 266.37
  Q 74.52 264.51 77.23 264.30
  Q 79.65 264.10 82.59 263.13
  C 87.08 261.65 93.60 261.38 98.09 261.62
  Q 99.57 261.70 98.23 262.35
  C 92.12 265.33 88.40 272.03 85.41 278.00
  C 81.72 285.38 82.00 292.45 81.76 302.76
  Q 81.55 311.62 71.46 312.03
  Z"
/>
<path fill="#dedede" d="
  M 475.40 312.03
  L 466.77 313.76
  Q 463.37 311.72 459.70 311.94
  Q 459.21 311.97 459.04 311.51
  C 454.73 299.91 452.57 295.49 450.88 286.13
  Q 450.42 283.60 450.78 282.62
  Q 451.14 281.64 451.32 282.56
  Q 451.32 282.57 452.50 285.14
  C 454.18 288.78 457.23 292.26 457.95 294.59
  Q 459.04 298.13 461.10 306.46
  Q 461.43 307.80 461.61 308.14
  Q 462.92 310.63 463.26 307.89
  Q 464.51 297.85 459.47 288.74
  C 454.92 280.49 450.85 274.25 453.65 265.16
  Q 453.82 264.63 454.32 264.87
  Q 455.95 265.68 458.10 265.31
  Q 458.63 265.22 459.13 265.42
  Q 462.68 266.86 465.67 264.85
  A 0.95 0.94 -48.3 0 1 466.64 264.79
  Q 469.34 266.20 471.49 266.49
  C 474.38 266.87 475.22 264.26 478.00 264.19
  C 480.05 264.14 485.76 264.82 485.60 267.90
  C 485.27 273.97 483.05 279.26 480.40 285.16
  Q 479.25 287.73 479.50 291.05
  Q 479.86 295.97 480.80 300.42
  Q 481.70 304.67 480.79 306.84
  Q 479.49 309.94 475.40 312.03
  Z"
/>
<path fill="#ffffff" d="
  M 71.46 312.03
  Q 65.61 310.94 63.69 305.03
  Q 60.49 295.16 62.49 283.94
  C 63.27 281.25 63.75 278.10 64.80 275.82
  C 66.47 272.16 71.38 266.51 75.25 265.97
  Q 76.90 265.74 75.84 267.02
  C 66.93 277.76 65.06 289.94 68.09 303.43
  Q 69.02 307.53 71.46 312.03
  Z"
/>
<path fill="#9c9a9b" d="
  M 57.61 278.61
  L 56.31 295.17
  Q 54.63 286.65 57.61 278.61
  Z"
/>
<path fill="#231f20" d="
  M 444.01 473.62
  L 434.24 472.52
  Q 432.50 472.33 432.70 470.60
  L 432.86 469.14
  Q 433.07 467.26 434.96 467.28
  Q 442.98 467.32 449.12 469.41
  A 1.70 1.70 0.0 0 0 450.71 469.13
  C 460.88 461.14 470.51 449.27 474.53 436.52
  C 476.43 430.51 477.17 421.45 477.33 414.42
  Q 477.93 387.16 473.88 360.10
  Q 473.54 357.83 469.12 333.51
  C 468.43 329.76 466.42 323.35 466.37 318.28
  Q 466.35 316.66 467.23 318.02
  Q 472.78 326.60 474.80 336.76
  Q 482.09 373.44 482.07 408.54
  Q 482.07 421.24 481.17 428.56
  C 479.31 443.72 470.94 457.08 459.95 467.46
  Q 444.77 481.79 426.39 492.37
  Q 409.50 502.11 385.70 514.20
  Q 380.59 516.80 373.85 521.63
  Q 367.19 526.40 363.54 532.29
  A 0.89 0.88 17.7 0 1 362.72 532.71
  Q 361.41 532.62 361.41 531.01
  Q 361.41 530.22 362.15 528.05
  Q 362.33 527.51 361.76 527.55
  L 358.56 527.76
  A 0.73 0.73 0.0 0 1 357.89 526.66
  Q 358.78 525.20 361.81 522.55
  Q 365.50 519.34 380.29 511.57
  C 405.26 498.46 420.07 490.61 438.48 478.48
  Q 441.66 476.38 444.17 474.12
  Q 444.64 473.69 444.01 473.62
  Z"
/>
<path fill="#231f20" d="
  M 820.05 394.81
  Q 815.31 400.09 809.16 407.16
  Q 805.27 411.64 792.78 428.29
  C 779.18 446.42 766.19 466.52 756.27 484.52
  C 750.31 495.33 740.22 513.98 733.08 528.48
  Q 699.41 596.88 677.06 666.32
  Q 663.36 708.93 654.11 754.34
  C 653.02 759.71 651.41 767.79 647.66 771.09
  A 0.52 0.52 0.0 0 1 646.80 770.69
  C 646.82 768.70 646.55 767.10 646.78 765.11
  Q 647.65 757.52 649.27 749.28
  Q 657.21 708.89 669.60 669.63
  C 688.43 610.02 712.89 552.72 742.49 497.96
  Q 765.85 454.72 795.62 415.35
  Q 804.49 403.62 820.29 386.04
  Q 834.54 370.19 851.96 356.62
  C 861.39 349.29 872.43 342.56 883.93 340.01
  Q 884.89 339.79 884.08 340.35
  C 877.66 344.77 871.51 349.46 864.98 353.99
  Q 856.01 360.21 851.19 364.32
  Q 835.22 377.95 820.05 394.81
  Z"
/>
<path fill="#dedede" d="
  M 340.25 381.37
  C 338.95 379.33 334.35 377.31 331.06 375.77
  Q 330.35 375.44 326.66 372.91
  Q 326.01 372.47 326.79 372.47
  C 334.00 372.46 342.24 366.23 335.21 358.87
  Q 333.26 356.83 331.45 358.01
  A 2.54 2.54 0.0 0 0 330.97 361.88
  L 332.30 363.29
  A 1.60 1.59 52.3 0 1 331.99 365.73
  Q 327.44 368.63 322.23 366.82
  C 320.09 366.08 319.08 365.91 318.01 364.26
  C 316.61 362.09 313.58 356.09 317.14 354.36
  Q 319.89 353.03 320.52 352.99
  C 324.09 352.74 327.17 353.27 328.11 349.94
  Q 328.34 349.16 329.02 349.60
  Q 333.17 352.28 336.75 355.00
  C 351.54 366.23 362.40 383.96 363.09 402.66
  C 364.09 429.74 346.63 452.88 319.40 456.24
  C 312.84 457.05 305.40 455.87 297.97 454.94
  Q 297.30 454.86 297.07 454.22
  Q 296.03 451.29 295.47 449.78
  Q 290.89 437.50 278.50 433.24
  C 275.58 432.24 269.13 431.12 263.66 428.57
  Q 260.58 427.14 259.57 425.43
  Q 259.27 424.91 258.68 424.79
  Q 256.55 424.33 255.10 425.59
  Q 251.20 428.97 249.46 429.92
  C 236.64 436.92 223.66 419.33 238.45 411.61
  Q 241.27 410.13 245.77 410.43
  Q 248.55 410.62 256.16 411.30
  C 258.20 411.49 260.72 411.56 262.63 410.72
  C 268.31 408.22 266.99 400.85 264.74 396.27
  Q 262.06 390.79 257.62 386.30
  Q 257.23 385.91 257.74 385.72
  C 265.07 383.05 271.16 379.57 273.18 372.20
  C 275.22 364.70 274.00 355.74 272.61 347.46
  A 0.82 0.81 -17.9 0 1 273.07 346.58
  C 279.61 343.56 286.41 342.19 293.83 341.09
  Q 307.62 339.07 320.73 345.55
  Q 321.49 345.92 320.65 346.02
  C 309.46 347.26 307.85 357.77 312.76 366.00
  C 313.95 368.00 317.63 370.75 315.87 373.66
  C 312.49 379.26 304.23 378.82 298.88 376.82
  Q 296.53 375.94 295.98 378.39
  L 295.88 378.81
  A 2.43 2.42 -72.2 0 0 297.29 381.57
  C 304.84 384.80 316.57 383.75 320.51 375.57
  Q 320.78 375.00 321.25 375.41
  Q 326.55 379.98 333.35 382.72
  Q 336.61 384.03 339.74 382.88
  A 1.02 1.02 0.0 0 0 340.25 381.37
  Z
  M 301.35 360.32
  A 2.30 2.29 -78.3 0 0 304.30 358.38
  L 304.35 357.92
  A 2.80 2.80 0.0 0 0 302.62 355.01
  C 295.41 352.07 288.78 355.21 283.86 360.64
  Q 282.24 362.42 284.07 364.31
  Q 284.11 364.36 284.14 364.38
  Q 286.03 366.01 287.78 364.37
  Q 290.20 362.09 293.26 360.25
  Q 295.93 358.64 301.35 360.32
  Z
  M 324.72 417.54
  C 327.45 418.02 336.96 416.72 334.21 411.75
  A 2.34 2.34 0.0 0 0 331.29 410.72
  C 329.15 411.58 327.87 412.44 325.68 412.06
  C 323.48 411.68 322.57 410.43 320.85 408.89
  A 2.34 2.34 0.0 0 0 317.75 408.87
  C 313.49 412.61 321.98 417.06 324.72 417.54
  Z"
/>
<path fill="#231f20" d="
  M 447.80 353.37
  C 453.94 351.29 460.32 349.90 465.85 346.40
  Q 467.88 345.12 468.73 347.37
  L 468.93 347.88
  Q 469.69 349.90 467.89 351.08
  Q 465.18 352.85 461.54 353.97
  Q 449.56 357.65 436.92 359.66
  Q 435.21 359.93 435.90 358.34
  L 436.19 357.68
  A 4.49 2.92 -3.7 0 1 438.89 355.66
  C 441.38 354.95 444.92 354.34 447.80 353.37
  Z"
/>
<path fill="#231f20" d="
  M 301.35 360.32
  Q 295.93 358.64 293.26 360.25
  Q 290.20 362.09 287.78 364.37
  Q 286.03 366.01 284.14 364.38
  Q 284.11 364.36 284.07 364.31
  Q 282.24 362.42 283.86 360.64
  C 288.78 355.21 295.41 352.07 302.62 355.01
  A 2.80 2.80 0.0 0 1 304.35 357.92
  L 304.30 358.38
  A 2.30 2.29 -78.3 0 1 301.35 360.32
  Z"
/>
<path fill="#231f20" d="
  M 464.46 405.21
  A 1.49 1.49 0.0 0 1 464.59 407.32
  L 461.41 410.93
  A 6.13 3.26 -48.6 0 1 454.91 413.38
  L 454.91 413.38
  A 6.13 3.26 -48.6 0 1 456.52 406.62
  L 459.70 403.01
  A 1.49 1.49 0.0 0 1 461.81 402.87
  L 464.46 405.21
  Z"
/>
<path fill="#231f20" d="
  M 325.68 412.06
  C 327.87 412.44 329.15 411.58 331.29 410.72
  A 2.34 2.34 0.0 0 1 334.21 411.75
  C 336.96 416.72 327.45 418.02 324.72 417.54
  C 321.98 417.06 313.49 412.61 317.75 408.87
  A 2.34 2.34 0.0 0 1 320.85 408.89
  C 322.57 410.43 323.48 411.68 325.68 412.06
  Z"
/>
<path fill="#ffffff" d="
  M 282.26 474.75
  Q 289.53 465.77 286.50 454.51
  Q 283.98 445.18 277.42 438.40
  Q 276.94 437.91 277.61 438.08
  Q 283.86 439.71 287.26 444.80
  C 291.28 450.82 294.47 459.21 291.51 465.92
  Q 288.78 472.10 282.62 475.20
  Q 281.39 475.81 282.26 474.75
  Z"
/>
<path fill="#231f20" d="
  M 336.36 517.16
  A 1.15 1.15 0.0 0 1 336.53 518.78
  L 332.66 523.56
  A 9.76 2.67 -51.0 0 1 324.44 529.47
  L 324.30 529.35
  A 9.76 2.67 -51.0 0 1 328.37 520.09
  L 332.24 515.31
  A 1.15 1.15 0.0 0 1 333.86 515.14
  L 336.36 517.16
  Z"
/>
<path fill="#231f20" d="
  M 446.65 535.33
  A 0.32 0.31 72.1 0 0 446.89 534.85
  C 443.10 528.83 439.36 522.97 437.10 516.56
  Q 436.32 514.34 438.35 515.52
  Q 439.90 516.42 441.04 518.20
  C 443.55 522.12 446.25 525.88 448.70 529.76
  Q 452.63 535.97 455.57 539.59
  Q 473.65 561.91 489.60 578.56
  Q 491.03 580.06 490.29 582.58
  Q 490.26 582.67 489.33 583.05
  Q 487.87 583.64 486.69 582.61
  Q 483.58 579.88 477.34 572.78
  Q 461.31 554.54 451.37 541.44
  Q 451.03 540.99 450.47 541.12
  C 448.39 541.63 447.14 542.30 445.07 542.12
  Q 440.63 541.74 438.43 541.77
  Q 437.45 541.79 437.39 540.82
  L 437.17 537.48
  Q 437.07 535.95 438.60 535.85
  L 446.65 535.33
  Z"
/>
<path fill="#231f20" d="
  M 428.69 1017.21
  C 425.28 1018.12 421.88 1019.35 418.45 1019.71
  C 410.20 1020.58 402.06 1022.05 393.80 1022.04
  Q 390.49 1022.04 393.03 1019.92
  Q 395.52 1017.83 399.54 1016.31
  A 0.97 0.97 0.0 0 0 399.88 1014.72
  L 395.86 1010.66
  Q 392.99 1006.88 390.49 1002.78
  Q 387.12 997.26 385.34 994.86
  Q 379.61 987.13 373.58 979.73
  A 1.98 1.82 67.1 0 0 372.00 979.01
  Q 371.54 979.04 371.08 979.84
  C 368.62 984.17 366.55 988.63 363.80 990.69
  Q 362.28 991.82 362.61 989.96
  Q 363.94 982.50 368.69 975.61
  C 372.39 970.25 376.41 976.24 379.13 979.40
  Q 387.91 989.62 396.42 1003.58
  Q 400.10 1009.61 405.62 1012.97
  Q 410.48 1016.42 415.83 1014.90
  Q 423.61 1015.08 430.04 1010.93
  A 1.42 1.41 -46.3 0 0 429.99 1008.52
  Q 426.27 1006.35 420.19 1003.42
  C 415.59 1001.19 412.69 998.07 409.50 993.46
  Q 403.35 984.60 397.37 975.64
  C 395.79 973.28 392.17 969.69 388.72 968.76
  C 375.98 965.33 337.28 956.27 338.82 940.25
  Q 338.92 939.22 340.50 933.41
  C 343.21 923.41 346.94 909.33 350.67 897.52
  C 361.62 862.79 372.70 827.85 381.19 791.27
  Q 382.52 785.53 382.99 779.83
  C 384.26 764.39 377.31 747.73 370.13 734.66
  Q 352.91 703.27 352.71 702.92
  C 345.05 689.08 335.86 670.51 338.55 655.00
  A 0.62 0.62 0.0 0 0 337.57 654.40
  L 327.64 661.78
  Q 325.40 663.44 326.11 660.75
  C 327.20 656.65 330.08 654.04 333.84 651.61
  Q 345.37 644.19 347.47 642.96
  C 355.19 638.40 365.55 634.12 373.14 630.29
  C 395.78 618.86 411.17 612.69 441.19 599.97
  Q 441.68 599.76 441.81 599.26
  C 442.29 597.40 441.81 595.64 442.45 593.77
  Q 443.59 590.38 444.04 587.79
  Q 444.46 585.32 446.85 586.08
  L 448.22 586.51
  Q 450.49 587.23 450.22 589.60
  L 449.50 596.01
  A 0.45 0.45 0.0 0 0 450.10 596.48
  L 479.89 585.20
  Q 482.35 584.27 484.46 585.84
  L 484.92 586.18
  Q 487.00 587.73 484.61 588.72
  L 474.00 593.15
  A 1.27 1.27 0.0 0 0 473.29 594.75
  C 477.56 606.75 484.64 618.49 491.50 629.27
  Q 505.81 651.79 515.19 669.34
  Q 533.71 704.03 546.05 729.46
  Q 569.99 778.77 579.21 798.78
  C 590.50 823.28 602.45 851.24 610.95 875.82
  C 615.19 888.09 618.04 896.84 619.33 908.26
  C 620.04 914.60 615.93 917.78 610.46 921.32
  Q 606.31 923.99 600.96 926.71
  Q 583.56 935.55 577.46 938.44
  C 573.59 940.27 570.30 946.80 568.42 950.03
  Q 566.91 952.63 565.64 957.56
  Q 561.63 973.08 560.40 975.89
  Q 557.93 981.49 554.47 987.50
  A 0.55 0.55 0.0 0 0 554.94 988.32
  C 559.78 988.37 564.80 987.48 568.15 983.92
  Q 571.54 980.32 574.20 975.73
  Q 578.80 967.81 585.84 951.60
  C 586.42 950.25 587.71 947.45 589.08 946.49
  Q 589.77 946.00 590.92 946.46
  C 594.85 948.03 599.40 955.01 600.71 958.29
  A 0.58 0.58 0.0 0 1 600.00 959.06
  C 596.27 957.95 594.63 955.97 591.68 953.61
  A 0.64 0.63 30.5 0 0 590.70 953.86
  Q 584.08 969.88 575.08 984.49
  Q 574.61 985.24 575.50 985.20
  Q 580.02 985.01 583.75 986.29
  A 0.54 0.54 0.0 0 1 583.84 987.27
  Q 581.96 988.35 580.50 988.76
  Q 566.95 992.59 557.27 993.86
  Q 556.24 994.00 553.12 993.54
  C 549.10 992.94 546.56 990.98 548.50 986.49
  C 550.29 982.36 553.50 977.21 555.18 972.95
  Q 560.27 960.08 561.97 945.84
  Q 562.10 944.74 561.05 945.11
  Q 547.53 949.92 536.02 952.04
  Q 530.49 953.05 525.89 952.70
  Q 520.53 952.29 519.10 947.03
  Q 516.57 937.66 515.75 933.27
  Q 510.28 904.04 506.11 885.10
  Q 503.53 873.41 497.43 851.08
  Q 496.64 848.18 496.21 845.11
  C 494.71 834.16 493.50 821.94 491.35 809.65
  Q 490.95 807.38 490.29 809.59
  Q 487.52 818.84 485.61 829.86
  C 479.44 865.30 471.35 900.15 462.52 933.76
  Q 459.42 945.54 455.60 957.10
  Q 453.44 963.62 451.35 967.60
  C 447.82 974.33 438.52 974.25 432.02 974.01
  Q 419.35 973.53 405.93 971.80
  A 0.69 0.69 0.0 0 0 405.21 972.76
  Q 409.31 982.22 414.53 990.56
  C 416.59 993.86 418.59 995.54 422.15 997.54
  C 427.08 1000.31 434.99 1003.86 436.05 1008.54
  C 437.15 1013.44 432.52 1015.70 428.69 1017.21
  Z"
/>
<ellipse fill="#231f20" cx="0.00" cy="0.00" transform="translate(350.65,601.66) rotate(36.5)" rx="7.85" ry="3.27"/>
</svg>
