<?xml version="1.0" encoding="UTF-8" standalone="no"?>
<!DOCTYPE svg PUBLIC "-//W3C//DTD SVG 1.1//EN" "http://www.w3.org/Graphics/SVG/1.1/DTD/svg11.dtd">
<svg xmlns="http://www.w3.org/2000/svg" version="1.1" viewBox="0.00 0.00 1024.00 125.00">
<path fill="#f6f6f6" d="
  M 1024.00 117.50
  L 1024.00 125.00
  L 994.51 125.00
  Q 993.71 124.66 993.48 125.00
  L 989.26 125.00
  Q 988.43 124.65 988.23 125.00
  L 983.51 125.00
  Q 982.69 124.63 982.48 125.00
  L 978.28 125.00
  Q 977.48 124.61 977.49 125.00
  L 973.02 125.00
  Q 972.19 124.50 971.50 125.00
  L 968.36 125.00
  L 967.65 107.30
  Q 967.60 106.16 966.50 106.48
  Q 966.37 106.52 966.24 106.55
  A 1.92 1.91 84.9 0 0 964.72 108.38
  L 964.38 125.00
  L 819.65 125.00
  L 820.06 120.10
  A 1.07 1.07 0.0 0 0 819.74 119.25
  Q 818.93 118.47 817.40 117.90
  C 812.67 116.12 801.60 113.80 797.79 117.41
  Q 797.41 117.77 797.44 118.30
  L 797.84 125.00
  L 779.75 125.00
  L 779.09 124.51
  Q 778.90 124.37 779.12 124.27
  Q 779.29 124.19 779.41 124.05
  Q 779.62 123.83 779.62 123.44
  Q 779.65 121.06 779.49 118.42
  A 0.85 0.85 0.0 0 0 778.98 117.69
  C 775.55 116.17 770.15 116.95 766.58 117.80
  C 763.44 118.54 764.18 120.91 764.15 123.54
  A 0.55 0.55 0.0 0 0 764.70 124.09
  L 778.25 124.07
  Q 778.39 124.07 778.50 124.23
  Q 778.52 124.27 778.53 124.30
  Q 778.56 124.38 778.34 124.37
  Q 771.22 124.10 764.17 125.00
  L 750.56 125.00
  Q 745.56 123.75 740.75 125.00
  L 375.81 125.00
  L 375.83 116.85
  A 1.48 1.47 -89.0 0 0 374.41 115.37
  Q 369.98 115.22 366.30 117.66
  Q 365.89 117.93 365.91 118.42
  L 366.11 125.00
  L 245.89 125.00
  Q 218.73 122.73 191.60 125.00
  L 0.00 125.00
  L 0.00 111.26
  C 0.26 109.30 -0.09 106.74 0.68 104.95
  Q 0.98 104.26 1.00 105.02
  L 1.18 112.07
  A 0.34 0.34 0.0 0 0 1.44 112.39
  L 9.09 114.12
  Q 9.34 114.17 9.38 113.92
  L 10.63 106.22
  Q 10.87 104.72 11.09 106.22
  L 12.25 114.33
  Q 12.30 114.66 12.63 114.68
  Q 17.74 115.00 19.99 112.89
  Q 20.75 112.17 20.61 113.21
  Q 20.59 113.33 20.71 113.47
  Q 20.89 113.68 21.15 113.61
  C 26.71 112.17 30.32 111.50 34.65 107.84
  Q 35.04 107.51 35.01 107.00
  Q 34.60 99.72 36.83 93.51
  C 37.33 92.11 37.12 90.44 37.31 89.01
  Q 37.32 88.93 37.40 88.92
  L 37.72 88.90
  A 0.18 0.18 0.0 0 1 37.92 89.07
  L 38.43 94.93
  A 0.48 0.47 63.5 0 0 39.25 95.21
  Q 41.23 92.99 40.86 89.90
  Q 40.86 89.84 40.90 89.81
  L 41.16 89.61
  Q 41.34 89.48 41.40 89.69
  Q 43.49 97.33 43.47 105.23
  A 0.72 0.72 0.0 0 0 44.36 105.93
  Q 62.77 101.53 78.98 90.68
  Q 79.52 90.32 79.57 89.67
  C 79.71 87.79 79.44 86.39 80.32 84.98
  Q 81.03 83.86 81.37 81.75
  A 0.18 0.18 0.0 0 1 81.56 81.60
  L 81.86 81.63
  A 0.07 0.07 0.0 0 1 81.92 81.70
  C 81.77 83.83 82.72 85.25 82.96 87.04
  C 83.27 89.41 83.04 91.04 84.66 92.41
  C 95.40 101.45 106.37 106.08 119.62 110.00
  A 0.57 0.57 0.0 0 0 120.35 109.42
  Q 119.95 101.84 120.64 95.94
  Q 120.99 92.90 122.39 90.00
  Q 122.91 88.94 123.10 87.75
  Q 123.49 85.43 123.48 85.36
  Q 123.33 83.96 123.80 85.34
  C 124.13 86.32 124.19 87.54 124.50 88.47
  Q 126.34 94.10 126.45 97.27
  Q 126.71 105.25 126.56 112.97
  Q 126.55 113.44 127.02 113.55
  Q 139.83 116.68 151.90 113.78
  Q 156.06 112.77 159.65 110.25
  Q 164.23 107.05 166.63 105.13
  Q 170.12 102.34 174.85 95.85
  Q 176.78 93.20 176.67 90.31
  Q 176.33 81.17 177.09 73.92
  Q 177.53 69.73 178.45 73.81
  Q 178.69 74.87 178.77 77.91
  Q 178.79 78.58 179.43 78.40
  L 179.73 78.32
  Q 180.00 78.24 180.03 77.96
  Q 180.59 71.80 180.68 70.28
  C 180.87 67.08 182.17 63.79 182.51 60.21
  Q 182.54 59.92 182.73 60.00
  Q 182.75 60.00 182.83 60.04
  Q 182.91 60.07 182.93 60.19
  C 183.10 61.70 183.15 63.37 183.70 65.13
  Q 185.02 69.37 185.43 72.53
  Q 185.52 73.23 186.76 75.37
  Q 186.93 75.67 187.13 75.72
  Q 187.30 75.76 187.44 75.71
  Q 187.74 75.59 187.71 75.27
  Q 187.53 73.56 187.63 72.99
  Q 187.89 71.48 188.13 73.01
  Q 189.32 80.65 189.10 87.26
  Q 189.08 87.81 189.63 87.82
  Q 199.89 87.99 202.99 87.77
  Q 210.09 87.25 212.89 87.43
  Q 213.29 87.45 214.00 86.96
  Q 214.40 86.68 214.89 86.68
  L 218.54 86.68
  A 0.81 0.80 11.7 0 0 219.28 86.20
  L 219.45 85.83
  Q 220.05 84.50 219.78 85.93
  Q 219.69 86.41 219.79 86.78
  Q 219.95 87.38 220.57 87.39
  L 246.56 87.97
  Q 247.09 87.98 247.15 87.45
  Q 247.53 83.65 247.86 74.51
  Q 247.91 73.30 247.93 73.07
  Q 248.21 70.38 248.56 73.10
  Q 248.90 75.70 248.89 77.99
  Q 248.89 78.70 249.33 78.14
  C 250.23 76.99 250.37 74.82 250.84 71.88
  C 251.45 68.09 252.72 64.93 253.08 61.46
  Q 253.19 60.44 253.47 61.43
  L 257.71 76.51
  Q 257.72 76.55 257.79 76.52
  Q 257.95 76.46 257.92 76.33
  Q 257.41 74.07 257.80 72.62
  Q 258.13 71.38 258.40 72.64
  Q 260.27 81.41 260.12 90.82
  A 3.26 3.21 -62.7 0 0 260.71 92.72
  Q 263.65 96.94 268.08 101.67
  Q 275.73 109.86 286.33 112.22
  A 0.69 0.69 0.0 0 0 287.17 111.55
  L 287.17 102.20
  A 0.92 0.92 0.0 0 1 288.66 101.48
  Q 289.33 102.02 289.56 103.42
  Q 289.66 104.02 290.24 103.82
  Q 290.85 103.60 291.29 102.37
  A 0.66 0.47 80.8 0 1 291.37 102.21
  Q 291.98 101.32 292.93 102.19
  Q 293.31 102.55 293.77 102.29
  Q 295.12 101.53 295.99 102.52
  A 0.85 0.83 -22.9 0 0 296.70 102.80
  L 298.62 102.63
  Q 299.10 102.59 299.11 102.11
  Q 299.16 97.92 300.11 88.51
  Q 305.92 30.73 309.14 2.85
  Q 309.35 1.04 310.93 1.59
  Q 310.95 1.59 311.00 1.60
  A 2.18 1.95 -87.4 0 1 312.67 3.64
  Q 313.08 13.66 313.94 23.14
  C 315.37 38.82 315.97 46.69 317.25 62.53
  Q 317.33 63.54 319.07 82.46
  Q 320.14 94.01 320.85 109.43
  Q 320.87 109.93 320.50 110.28
  Q 320.30 110.46 320.33 110.66
  Q 320.38 110.98 320.58 110.72
  Q 321.18 109.91 322.04 110.55
  Q 322.48 110.87 322.75 110.40
  L 323.33 109.40
  A 1.33 1.33 0.0 0 1 325.75 109.66
  Q 325.95 110.30 326.31 110.62
  A 0.50 0.49 -42.3 0 0 326.92 110.64
  Q 328.01 109.83 329.04 110.60
  Q 329.43 110.89 329.77 110.55
  L 330.81 109.52
  Q 331.18 109.14 331.20 108.61
  Q 331.95 93.23 333.04 77.87
  Q 333.82 66.85 333.90 66.14
  Q 334.42 61.67 336.33 54.66
  Q 336.95 52.38 338.30 50.99
  A 1.31 1.30 49.4 0 1 340.30 51.15
  Q 342.33 54.00 343.09 57.38
  Q 344.70 64.49 345.47 71.75
  Q 345.92 76.09 347.27 102.86
  Q 347.31 103.51 347.87 103.18
  Q 349.37 102.33 350.63 103.10
  Q 351.10 103.39 351.61 103.18
  Q 351.89 103.07 352.04 102.88
  Q 352.35 102.48 352.80 102.69
  Q 353.71 103.11 354.67 102.73
  A 0.85 0.83 45.8 0 1 355.37 102.75
  L 356.45 103.26
  Q 356.84 103.44 357.18 103.18
  L 358.41 102.24
  Q 358.99 101.80 359.27 102.48
  L 361.21 107.26
  Q 361.36 107.64 361.76 107.70
  Q 362.46 107.80 363.27 107.40
  Q 363.75 107.17 363.75 106.63
  L 363.75 104.00
  Q 363.75 102.90 364.85 103.03
  Q 365.07 103.06 365.21 103.06
  A 0.97 0.97 0.0 0 1 366.15 104.25
  Q 365.77 105.87 366.05 106.41
  Q 367.11 108.48 367.32 106.11
  L 367.45 104.70
  Q 367.52 103.87 368.33 103.64
  L 369.18 103.40
  A 0.57 0.57 0.0 0 1 369.89 104.07
  Q 369.53 105.78 369.86 106.95
  Q 370.26 108.43 370.99 107.08
  Q 371.64 105.90 371.16 104.60
  Q 370.94 104.01 371.56 103.94
  Q 373.60 103.69 374.61 104.93
  A 1.17 1.15 69.8 0 0 375.50 105.35
  L 381.47 105.35
  Q 382.35 105.35 381.91 104.58
  L 381.27 103.48
  Q 381.00 103.01 381.15 102.50
  Q 382.73 96.74 383.28 89.95
  Q 383.74 84.18 384.65 89.90
  Q 385.58 95.76 386.06 101.50
  Q 386.10 102.00 386.44 102.38
  Q 388.55 104.71 388.99 108.38
  Q 389.08 109.09 389.46 108.49
  Q 390.01 107.61 389.79 106.49
  Q 389.07 102.92 390.62 99.93
  Q 391.06 99.09 391.32 100.00
  L 392.12 102.84
  Q 392.26 103.35 392.63 102.97
  C 393.52 102.04 393.89 100.97 393.38 99.66
  Q 391.05 93.68 390.93 87.34
  Q 390.92 86.58 390.42 87.15
  Q 390.16 87.44 389.94 88.03
  Q 389.76 88.50 389.27 88.46
  Q 388.23 88.38 387.30 87.32
  A 0.87 0.87 0.0 0 1 387.88 85.88
  L 389.64 85.73
  A 0.71 0.71 0.0 0 0 390.26 85.23
  L 391.83 79.87
  Q 392.04 79.14 391.41 79.56
  Q 389.53 80.80 388.83 79.48
  Q 388.25 78.37 388.79 77.69
  Q 389.11 77.29 389.61 77.38
  L 391.43 77.67
  Q 391.97 77.76 392.13 77.23
  C 393.10 73.90 393.54 71.93 395.09 69.47
  C 396.19 67.72 397.33 65.06 398.90 63.05
  Q 401.39 59.86 403.85 57.84
  A 0.89 0.88 47.9 0 0 403.91 56.54
  L 402.37 55.01
  A 0.72 0.72 0.0 0 1 402.59 53.84
  Q 404.29 53.09 405.36 55.92
  Q 405.74 56.94 406.53 56.20
  Q 408.05 54.76 409.86 54.04
  A 0.60 0.60 0.0 0 0 410.16 53.18
  L 409.18 51.49
  Q 408.93 51.05 409.18 50.61
  L 409.39 50.25
  A 0.58 0.58 0.0 0 1 410.35 50.19
  L 411.93 52.27
  Q 412.08 52.46 412.30 52.40
  L 415.95 51.37
  Q 416.53 51.20 416.53 50.59
  L 416.53 49.06
  A 0.73 0.72 67.8 0 1 416.74 48.55
  Q 417.36 47.92 418.14 48.85
  Q 418.18 48.90 419.25 50.32
  A 0.90 0.89 69.7 0 0 420.02 50.68
  Q 421.95 50.54 423.68 49.38
  A 0.97 0.97 0.0 0 0 424.10 48.58
  Q 424.07 46.81 425.35 46.08
  Q 425.89 45.77 426.13 46.34
  Q 426.94 48.24 425.86 49.22
  Q 425.29 49.73 426.03 49.53
  L 426.80 49.31
  Q 427.14 49.21 427.49 49.28
  L 439.02 51.55
  Q 439.86 51.71 440.06 50.88
  Q 440.31 49.80 441.02 49.17
  Q 441.52 48.72 441.90 49.27
  Q 442.36 49.91 441.50 51.47
  Q 441.01 52.34 441.88 52.83
  L 446.27 55.37
  Q 446.50 55.50 446.64 55.28
  Q 447.69 53.63 448.14 53.43
  Q 450.56 52.30 449.32 54.73
  L 448.64 56.05
  A 0.70 0.69 -54.6 0 0 448.77 56.85
  L 452.07 60.15
  Q 452.44 60.52 452.73 60.08
  Q 454.03 58.14 455.97 59.21
  A 0.61 0.60 41.3 0 1 456.04 60.23
  Q 455.21 60.82 454.23 61.08
  A 0.72 0.72 0.0 0 0 453.89 62.27
  Q 458.38 66.95 459.85 72.79
  A 0.52 0.52 0.0 0 0 460.50 73.17
  L 462.68 72.56
  Q 463.07 72.45 463.31 72.76
  Q 463.75 73.32 463.21 74.22
  Q 462.89 74.75 461.21 75.65
  Q 460.72 75.91 460.87 76.45
  L 462.14 80.95
  Q 462.26 81.38 462.70 81.45
  L 464.89 81.80
  Q 465.50 81.90 465.54 82.52
  C 465.62 84.07 463.86 84.41 462.56 84.37
  A 0.38 0.38 0.0 0 0 462.17 84.75
  L 462.17 89.75
  Q 462.17 90.14 462.53 90.00
  Q 463.08 89.78 464.12 89.76
  Q 464.67 89.75 464.80 90.28
  C 465.12 91.48 464.48 92.38 463.25 92.79
  Q 460.84 93.59 461.87 96.74
  Q 462.32 98.10 461.17 99.17
  Q 460.91 99.41 461.01 99.68
  Q 461.17 100.15 461.54 99.81
  Q 463.05 98.43 464.52 99.87
  A 0.48 0.47 -63.3 0 0 465.32 99.60
  L 465.41 99.07
  A 0.22 0.22 0.0 0 1 465.84 99.07
  L 466.82 105.16
  Q 467.14 107.15 467.79 105.24
  C 468.90 102.01 468.62 100.61 469.01 96.00
  Q 469.24 93.26 469.87 91.07
  C 470.53 88.79 470.32 86.63 470.96 84.43
  C 472.00 80.83 472.02 77.20 473.14 73.87
  Q 474.12 70.96 475.52 65.33
  Q 475.73 64.48 476.07 65.28
  Q 476.90 67.19 477.37 69.41
  Q 480.68 84.90 480.81 89.25
  Q 480.99 94.91 481.22 104.60
  Q 481.23 105.12 481.73 104.98
  L 485.70 103.86
  Q 486.28 103.70 486.43 103.10
  L 488.04 96.53
  Q 488.72 93.79 489.58 96.48
  L 490.81 100.32
  Q 491.24 101.65 491.39 100.27
  L 492.13 93.74
  Q 492.48 90.66 492.78 93.75
  Q 493.07 96.73 493.57 106.00
  A 1.28 1.28 0.0 0 0 495.80 106.80
  C 497.56 104.86 497.68 101.72 498.50 98.16
  C 499.46 93.99 498.98 90.55 499.82 86.60
  C 501.09 80.58 501.37 73.11 502.93 68.72
  Q 504.76 63.60 506.90 56.98
  Q 507.06 56.50 507.23 56.98
  Q 511.52 69.25 511.88 72.21
  Q 512.60 78.10 513.69 84.65
  C 514.74 90.93 514.95 96.21 515.07 102.45
  Q 515.08 103.18 515.88 103.68
  Q 516.32 103.96 516.61 103.54
  L 517.83 101.81
  Q 518.10 101.42 518.34 101.83
  L 520.42 105.44
  Q 520.68 105.89 521.19 105.76
  Q 521.93 105.57 522.34 105.32
  Q 522.73 105.09 522.78 104.63
  L 523.95 92.14
  Q 524.04 91.15 525.04 91.06
  L 525.67 91.00
  A 0.85 0.85 0.0 0 1 526.59 91.88
  L 526.04 104.83
  A 1.04 1.04 0.0 0 0 526.91 105.90
  L 528.80 106.21
  Q 529.57 106.33 529.60 105.55
  Q 529.82 98.03 529.53 87.95
  C 529.45 85.00 529.99 81.46 530.08 78.22
  Q 530.09 78.02 530.28 78.03
  Q 530.29 78.03 530.39 78.06
  Q 530.47 78.07 530.50 78.17
  Q 531.35 81.38 531.73 85.75
  C 532.62 95.98 532.37 100.57 534.74 106.73
  Q 534.99 107.37 535.23 106.73
  L 536.05 104.52
  Q 536.23 104.04 536.74 103.94
  Q 537.08 103.86 537.41 103.93
  Q 537.96 104.06 537.96 104.63
  L 537.96 106.12
  A 0.37 0.37 0.0 0 0 538.43 106.47
  L 538.86 106.35
  Q 539.09 106.29 539.11 106.05
  L 539.27 104.34
  Q 539.29 104.13 539.51 104.13
  L 539.83 104.13
  A 0.37 0.37 0.0 0 1 540.20 104.51
  Q 540.12 105.98 540.96 106.17
  A 0.46 0.46 0.0 0 0 541.52 105.69
  L 539.79 85.76
  Q 539.74 85.20 540.02 84.71
  C 540.44 83.98 541.11 82.86 541.26 81.84
  C 541.90 77.62 543.53 69.18 546.75 66.26
  C 548.38 64.79 549.26 63.97 549.77 61.57
  Q 551.25 54.49 552.28 46.95
  Q 552.59 44.67 553.02 46.93
  Q 554.74 55.90 555.50 61.54
  C 555.82 63.87 557.01 64.90 558.65 67.09
  C 561.51 70.91 562.58 77.27 562.97 81.90
  C 563.09 83.32 563.53 83.92 564.71 84.37
  A 0.85 0.85 0.0 0 1 565.24 85.14
  Q 565.42 93.45 565.47 101.76
  Q 565.48 103.14 566.77 103.71
  A 1.17 1.15 -88.4 0 1 567.40 104.39
  L 567.79 105.49
  Q 568.28 106.85 568.45 105.42
  C 568.73 103.02 569.16 101.09 569.19 99.02
  Q 569.34 88.89 569.40 78.76
  C 569.42 76.33 570.78 72.09 572.16 69.12
  Q 575.92 61.02 578.41 54.79
  Q 578.60 54.31 579.11 54.31
  L 584.86 54.31
  Q 585.46 54.31 585.46 54.91
  L 585.46 101.51
  Q 585.46 103.10 586.54 104.26
  L 587.47 105.25
  Q 588.47 106.33 588.50 104.85
  L 588.89 81.43
  A 0.93 0.92 -89.4 0 1 589.81 80.52
  L 596.88 80.52
  A 0.87 0.86 12.1 0 0 597.67 80.02
  L 599.05 77.08
  A 0.61 0.58 -83.7 0 1 599.42 76.77
  L 602.53 75.89
  Q 603.08 75.74 603.33 76.26
  Q 604.38 78.46 604.39 79.50
  Q 604.47 86.36 604.73 96.78
  C 604.83 101.13 604.68 105.57 606.33 107.89
  Q 606.73 108.45 606.86 107.78
  L 608.21 101.21
  Q 608.32 100.65 608.89 100.70
  L 611.34 100.93
  A 0.93 0.92 4.1 0 0 612.36 100.05
  C 612.45 98.06 613.85 96.27 614.00 94.25
  Q 614.51 87.43 614.49 85.25
  Q 614.27 59.50 614.73 37.25
  Q 614.77 35.54 615.20 34.00
  Q 615.35 33.49 615.87 33.39
  C 622.93 32.10 626.60 36.83 628.01 42.95
  Q 629.06 47.54 629.29 48.61
  A 1.82 1.78 17.0 0 0 629.78 49.51
  Q 632.67 52.36 633.95 57.63
  Q 635.95 65.95 637.22 72.83
  Q 637.64 75.12 638.80 77.39
  C 640.37 80.48 641.77 82.55 642.34 86.45
  Q 642.63 88.38 643.12 97.76
  C 643.29 100.90 644.08 103.48 644.33 106.67
  Q 644.39 107.37 645.07 107.24
  A 0.87 0.87 0.0 0 0 645.79 106.37
  Q 645.59 84.05 646.81 66.52
  Q 647.71 53.60 651.80 35.36
  Q 652.04 34.30 652.36 35.34
  C 653.46 38.92 654.29 42.46 655.67 46.26
  Q 657.46 51.21 658.12 58.12
  Q 659.19 69.17 659.59 87.12
  A 0.53 0.52 4.2 0 1 658.98 87.64
  Q 657.01 87.33 656.61 89.72
  Q 656.07 92.88 656.28 96.12
  A 0.65 0.65 0.0 0 0 657.11 96.71
  L 658.73 96.25
  A 0.97 0.96 -7.9 0 0 659.44 95.32
  L 659.44 88.99
  Q 659.44 88.50 659.75 88.12
  Q 660.61 87.06 661.78 84.49
  C 663.20 81.39 664.39 80.23 667.31 78.62
  Q 667.68 78.42 667.75 78.01
  L 670.24 62.66
  Q 670.35 62.00 670.58 62.66
  C 670.97 63.74 671.29 65.62 671.87 67.05
  Q 673.17 70.24 673.14 70.74
  Q 672.93 74.03 673.39 77.27
  Q 673.47 77.81 673.95 78.05
  C 679.04 80.62 680.76 84.33 682.46 89.53
  Q 683.32 92.16 683.24 95.07
  Q 683.20 96.10 684.23 96.19
  L 686.07 96.37
  Q 687.72 96.52 687.57 98.17
  L 687.06 103.59
  Q 686.97 104.47 687.83 104.72
  L 689.44 105.20
  Q 689.93 105.34 689.98 104.84
  L 693.37 68.75
  A 0.23 0.23 0.0 0 1 693.55 68.54
  Q 693.81 68.48 693.86 68.88
  Q 695.85 85.35 697.23 101.84
  Q 697.26 102.18 697.60 102.21
  L 697.97 102.25
  Q 698.13 102.26 698.14 102.11
  L 698.80 95.10
  Q 698.83 94.75 699.18 94.81
  L 699.52 94.86
  Q 699.59 94.88 699.60 94.94
  L 700.40 100.07
  A 0.92 0.89 9.0 0 0 700.91 100.75
  Q 701.67 101.12 702.67 100.97
  Q 703.14 100.89 703.39 101.31
  L 704.35 102.98
  Q 705.09 104.27 705.36 102.81
  L 706.07 98.85
  A 0.88 0.88 0.0 0 1 707.66 98.51
  Q 708.47 99.72 709.68 100.57
  Q 710.08 100.85 710.09 100.35
  Q 710.15 96.85 709.91 80.24
  Q 709.77 70.37 709.90 65.18
  C 710.04 59.94 714.05 56.50 715.15 51.76
  Q 717.60 41.14 718.84 31.27
  A 0.27 0.26 12.8 0 1 719.19 31.06
  Q 719.28 31.08 719.41 31.19
  Q 719.54 31.29 719.56 31.45
  Q 720.87 43.63 723.22 52.63
  Q 724.02 55.72 726.07 59.98
  Q 727.46 62.86 727.75 70.28
  Q 727.91 74.59 728.14 89.89
  Q 728.15 90.53 728.78 90.53
  L 737.80 90.53
  A 0.79 0.79 0.0 0 1 738.59 91.30
  L 738.91 108.58
  Q 738.94 109.67 739.50 108.74
  L 740.52 107.03
  Q 740.84 106.51 741.27 106.95
  Q 741.70 107.39 742.04 108.25
  A 0.43 0.42 78.3 0 0 742.45 108.53
  Q 742.62 108.52 742.74 108.40
  Q 742.83 108.31 742.86 108.14
  Q 742.98 107.49 742.86 106.14
  A 0.41 0.41 0.0 0 1 743.42 105.72
  Q 743.60 105.80 743.69 105.85
  Q 743.83 105.92 743.91 106.17
  Q 744.18 107.03 744.27 107.79
  Q 744.34 108.50 745.05 108.43
  L 746.14 108.34
  Q 746.83 108.28 746.82 107.59
  L 746.80 106.00
  Q 746.79 105.37 747.49 105.80
  Q 747.57 105.85 747.99 107.15
  Q 748.17 107.70 748.70 107.47
  Q 749.45 107.13 749.53 106.11
  Q 749.59 105.40 750.30 105.40
  L 753.46 105.40
  Q 753.95 105.40 754.20 105.83
  L 754.76 106.81
  Q 755.04 107.28 755.58 107.27
  C 757.90 107.26 757.74 103.96 757.74 102.63
  Q 757.74 102.04 758.33 102.08
  Q 761.91 102.31 762.82 102.53
  Q 765.03 103.06 767.22 103.15
  Q 776.68 103.53 784.09 103.50
  Q 784.97 103.50 785.35 102.70
  L 788.28 96.45
  Q 788.52 95.94 788.92 96.34
  L 794.70 102.12
  A 0.62 0.60 67.0 0 0 795.13 102.30
  L 822.55 102.71
  Q 823.22 102.72 823.38 102.06
  L 823.52 101.51
  Q 824.09 99.23 824.92 101.43
  Q 825.75 103.65 827.82 103.56
  Q 828.32 103.54 828.65 103.15
  Q 829.21 102.49 829.53 102.34
  A 0.71 0.69 -31.6 0 1 830.38 102.53
  Q 831.24 103.63 833.37 103.95
  A 1.37 1.36 4.1 0 1 834.54 105.30
  L 834.54 115.76
  Q 834.54 116.59 835.36 116.73
  L 837.60 117.09
  A 0.66 0.66 0.0 0 0 838.36 116.54
  L 838.83 113.69
  Q 838.91 113.19 839.40 113.30
  Q 841.85 113.88 842.63 115.99
  Q 842.88 116.65 843.21 116.02
  L 843.40 115.65
  Q 843.65 115.18 844.17 115.24
  Q 846.15 115.46 847.67 117.50
  A 0.48 0.48 0.0 0 0 848.48 117.45
  Q 848.79 116.89 848.64 116.12
  Q 848.53 115.55 849.07 115.33
  Q 851.69 114.27 852.56 116.85
  Q 852.82 117.61 853.16 116.89
  L 853.38 116.42
  A 0.67 0.66 -64.4 0 1 854.27 116.10
  L 857.34 117.54
  A 1.43 1.42 -77.4 0 0 859.37 116.25
  L 859.37 113.80
  Q 859.37 113.20 858.83 112.94
  Q 857.92 112.50 858.04 111.72
  A 0.81 0.81 0.0 0 1 859.44 111.30
  C 860.84 112.83 860.55 114.45 860.40 116.83
  Q 860.34 117.81 861.32 117.81
  L 862.83 117.81
  Q 863.77 117.81 863.77 116.86
  L 863.77 115.54
  Q 863.77 114.90 864.30 115.27
  Q 865.40 116.05 866.32 117.01
  Q 867.10 117.83 867.84 117.49
  Q 868.33 117.26 868.27 116.73
  Q 868.08 115.02 868.18 114.48
  Q 868.79 111.16 869.88 114.34
  Q 870.07 114.89 870.31 116.37
  Q 870.40 116.87 870.79 117.18
  C 871.44 117.71 872.46 117.78 873.02 117.95
  Q 875.63 118.70 877.22 116.65
  Q 877.62 116.14 877.86 116.74
  Q 877.94 116.96 878.07 117.07
  A 1.15 1.04 23.0 0 0 879.95 116.42
  L 879.99 114.75
  Q 880.00 114.21 880.53 114.31
  C 882.33 114.65 882.52 116.03 883.05 117.22
  Q 883.24 117.66 883.69 117.85
  Q 884.82 118.33 885.17 118.74
  Q 886.76 120.59 887.00 118.19
  Q 887.49 113.31 890.20 108.44
  Q 891.05 106.91 899.36 94.21
  C 900.86 91.91 900.65 89.70 902.32 87.84
  Q 902.67 87.45 902.67 86.92
  L 902.67 77.69
  Q 902.67 77.00 903.02 76.40
  L 903.75 75.14
  A 0.42 0.42 0.0 0 1 904.54 75.37
  C 904.20 83.29 904.34 90.27 907.86 97.55
  C 910.52 103.05 912.66 109.79 916.78 115.81
  A 1.09 1.09 0.0 0 0 918.69 115.60
  Q 919.10 114.60 918.86 113.17
  Q 918.85 113.15 918.87 113.15
  L 919.15 113.07
  Q 919.42 112.99 919.44 113.27
  Q 919.53 114.76 920.29 115.61
  A 0.74 0.74 0.0 0 0 921.58 115.11
  L 921.58 111.78
  Q 921.58 111.31 921.89 110.95
  Q 923.60 108.98 923.87 105.77
  Q 923.91 105.18 924.46 105.41
  Q 924.83 105.56 924.92 106.08
  Q 925.13 107.25 925.23 108.68
  Q 925.27 109.19 925.78 109.19
  L 927.56 109.19
  Q 928.15 109.19 928.15 109.78
  L 928.15 113.23
  A 1.49 1.49 0.0 0 0 929.64 114.72
  L 931.06 114.72
  Q 932.29 114.72 932.16 113.50
  Q 931.55 107.50 932.62 99.18
  Q 932.65 98.94 932.87 99.04
  L 937.15 101.06
  Q 937.42 101.18 937.43 101.48
  L 937.80 113.23
  Q 937.82 113.84 938.16 113.34
  Q 938.76 112.48 939.76 112.26
  Q 940.26 112.15 940.40 111.66
  L 940.82 110.25
  Q 941.36 108.39 941.92 110.24
  Q 942.34 111.66 943.76 112.93
  A 0.84 0.84 0.0 0 0 945.16 112.38
  L 946.25 99.86
  Q 946.26 99.72 946.40 99.73
  L 946.65 99.76
  Q 946.75 99.77 946.76 99.86
  Q 947.05 103.07 947.30 108.99
  Q 947.38 110.68 949.05 111.57
  Q 949.52 111.82 949.57 112.36
  L 950.13 118.82
  A 1.04 1.04 0.0 0 0 951.17 119.77
  L 953.92 119.77
  A 0.94 0.94 0.0 0 0 954.86 118.86
  Q 955.20 106.57 955.26 94.27
  Q 955.26 93.82 956.04 90.48
  Q 956.17 89.90 956.47 90.41
  L 959.22 95.17
  A 0.71 0.70 42.5 0 0 960.47 95.12
  L 961.97 91.94
  Q 962.21 91.41 962.35 91.98
  Q 963.05 95.04 963.52 98.27
  Q 963.88 100.79 964.53 101.57
  Q 965.73 103.02 968.13 102.38
  Q 968.65 102.25 968.70 101.71
  L 969.60 92.10
  Q 969.71 91.01 970.21 91.98
  Q 971.44 94.32 972.42 95.18
  Q 973.28 95.93 973.39 94.79
  L 973.79 90.57
  Q 973.88 89.62 974.32 90.47
  C 976.56 94.73 976.48 99.01 976.89 103.69
  Q 976.97 104.56 977.25 104.72
  Q 977.58 104.91 978.10 104.81
  Q 978.59 104.72 978.80 104.27
  L 979.61 102.55
  A 0.41 0.40 -51.1 0 1 980.30 102.47
  L 981.67 104.27
  Q 981.93 104.61 982.35 104.62
  Q 982.51 104.62 982.64 104.58
  Q 983.17 104.42 983.25 103.88
  L 983.47 102.52
  Q 983.59 101.82 984.29 101.89
  L 986.85 102.13
  A 0.43 0.43 0.0 0 0 987.32 101.70
  Q 987.28 95.28 987.72 91.35
  Q 987.92 89.56 988.40 91.30
  Q 989.56 95.55 989.86 100.32
  Q 989.90 100.82 990.25 100.46
  L 990.96 99.75
  Q 991.38 99.33 991.83 99.72
  Q 994.12 101.69 997.49 101.60
  Q 998.00 101.58 997.95 101.07
  Q 997.66 98.22 998.05 95.91
  Q 998.11 95.55 998.28 95.41
  Q 998.39 95.32 998.58 95.31
  Q 998.94 95.30 999.00 95.65
  Q 999.57 98.70 999.14 101.31
  A 0.65 0.65 0.0 0 0 999.78 102.06
  L 1000.21 102.06
  Q 1000.66 102.06 1000.73 101.62
  Q 1001.02 99.69 1000.94 98.48
  Q 1000.03 86.10 1000.73 81.74
  Q 1000.96 80.37 1004.24 73.46
  Q 1004.90 72.08 1004.49 69.95
  Q 1004.40 69.48 1004.61 69.06
  C 1006.71 64.79 1007.48 59.49 1008.22 54.83
  Q 1008.24 54.74 1008.33 54.74
  L 1008.61 54.74
  Q 1008.72 54.74 1008.73 54.84
  Q 1009.53 61.99 1009.53 62.00
  C 1009.90 64.87 1011.24 67.73 1011.44 70.42
  C 1011.82 75.44 1015.14 78.92 1015.17 84.06
  Q 1015.22 90.87 1015.04 114.36
  Q 1015.04 114.63 1015.28 114.74
  L 1015.56 114.87
  A 0.39 0.38 15.5 0 0 1016.11 114.56
  L 1016.34 112.11
  Q 1016.39 111.55 1016.95 111.53
  Q 1017.57 111.51 1018.19 112.41
  Q 1018.56 112.96 1018.77 112.34
  Q 1019.22 111.05 1019.13 109.70
  A 0.80 0.80 0.0 0 1 1020.63 109.28
  Q 1020.84 109.70 1020.91 110.47
  Q 1021.20 113.98 1021.40 117.97
  Q 1021.45 119.01 1021.55 119.21
  Q 1022.16 120.38 1022.27 119.04
  Q 1022.38 117.66 1023.02 116.54
  Q 1023.38 115.92 1023.64 116.59
  L 1024.00 117.50
  Z
  M 413.29 106.78
  Q 413.05 110.86 415.56 109.77
  A 1.30 1.29 79.7 0 0 416.33 108.65
  Q 416.96 97.48 416.20 87.50
  Q 416.09 85.99 417.13 79.76
  Q 417.19 79.43 417.44 79.19
  Q 417.81 78.84 418.09 78.86
  A 1.43 1.18 86.8 0 1 419.19 80.06
  L 419.84 84.39
  A 0.39 0.39 0.0 0 0 420.55 84.56
  Q 421.10 83.78 421.07 82.40
  Q 421.06 82.24 421.14 82.13
  Q 421.25 81.97 421.45 81.90
  A 0.29 0.29 0.0 0 1 421.81 82.09
  Q 422.51 84.27 424.38 85.91
  A 0.55 0.55 0.0 0 0 425.27 85.65
  L 426.35 81.98
  Q 426.52 81.40 427.11 81.29
  C 429.78 80.79 430.52 81.69 430.75 84.24
  Q 431.24 89.66 431.49 93.47
  Q 431.63 95.61 431.10 98.53
  Q 430.55 101.62 431.20 104.32
  A 1.92 1.89 14.1 0 0 431.82 105.34
  L 432.65 106.06
  Q 432.96 106.32 432.78 106.68
  C 431.51 109.34 431.60 114.29 432.01 117.09
  A 2.27 2.26 -12.7 0 0 434.92 118.92
  Q 448.23 114.81 454.39 102.68
  C 454.76 101.95 455.34 101.51 455.71 100.75
  C 459.60 92.70 459.94 84.55 457.31 76.09
  C 455.20 69.31 451.91 63.56 446.16 59.63
  Q 443.61 57.89 442.50 57.07
  Q 440.55 55.63 438.63 54.95
  Q 426.05 50.43 414.10 55.60
  C 410.83 57.02 406.05 60.48 403.72 62.77
  Q 393.05 73.25 394.51 89.77
  Q 395.17 97.28 399.02 101.84
  Q 399.36 102.23 399.85 102.09
  Q 400.48 101.91 400.83 101.96
  Q 401.36 102.03 401.25 102.55
  Q 400.93 104.11 401.71 105.06
  Q 402.56 106.11 402.88 104.80
  Q 403.26 103.26 404.97 102.42
  Q 405.67 102.08 405.45 102.83
  L 404.74 105.26
  Q 404.60 105.75 405.01 106.05
  Q 406.08 106.83 406.23 108.36
  Q 406.28 108.89 406.81 108.92
  Q 407.23 108.95 408.01 108.33
  Q 408.45 107.98 408.75 108.45
  Q 409.56 109.72 411.45 108.81
  Q 411.86 108.61 412.08 108.22
  L 412.90 106.67
  Q 413.35 105.84 413.29 106.78
  Z
  M 185.2229 81.9212
  A 1.33 0.67 83.4 0 0 185.7356 80.5230
  A 1.33 0.67 83.4 0 0 184.9171 79.2788
  A 1.33 0.67 83.4 0 0 184.4044 80.6770
  A 1.33 0.67 83.4 0 0 185.2229 81.9212
  Z
  M 181.3549 81.7312
  A 1.14 0.77 105.0 0 0 182.3938 80.8293
  A 1.14 0.77 105.0 0 0 181.9451 79.5288
  A 1.14 0.77 105.0 0 0 180.9062 80.4307
  A 1.14 0.77 105.0 0 0 181.3549 81.7312
  Z
  M 253.44 79.90
  A 0.43 0.43 0.0 0 0 252.69 80.11
  Q 252.53 80.98 252.71 81.73
  Q 252.89 82.42 253.39 81.91
  Q 254.35 80.94 253.44 79.90
  Z
  M 551.56 80.09
  Q 551.68 80.11 551.57 80.05
  Q 550.82 79.67 549.89 79.90
  Q 549.87 79.90 549.87 79.89
  Q 549.87 79.87 549.87 79.88
  Q 549.97 79.89 551.56 80.09
  Z
  M 555.5511 81.0406
  A 1.27 0.42 20.3 0 0 554.5057 80.2061
  A 1.27 0.42 20.3 0 0 553.1689 80.1594
  A 1.27 0.42 20.3 0 0 554.2143 80.9939
  A 1.27 0.42 20.3 0 0 555.5511 81.0406
  Z
  M 558.20 81.21
  Q 558.87 81.43 559.22 81.30
  Q 559.67 81.13 559.24 80.93
  L 557.81 80.25
  Q 557.36 80.05 557.37 80.53
  Q 557.37 80.72 557.44 80.91
  Q 557.48 81.03 557.60 81.09
  Q 557.71 81.14 557.84 81.16
  Q 558.19 81.21 558.20 81.21
  Z
  M 546.61 80.51
  Q 546.50 80.85 546.59 81.09
  Q 546.83 81.66 547.26 81.23
  L 547.73 80.76
  A 0.39 0.39 0.0 0 0 547.48 80.10
  Q 546.77 80.05 546.61 80.51
  Z
  M 550.3418 91.5195
  A 2.51 0.60 91.1 0 0 550.9899 89.0215
  A 2.51 0.60 91.1 0 0 550.4382 86.5005
  A 2.51 0.60 91.1 0 0 549.7901 88.9985
  A 2.51 0.60 91.1 0 0 550.3418 91.5195
  Z
  M 552.7867 91.5494
  A 2.50 0.48 88.7 0 0 553.2099 89.0391
  A 2.50 0.48 88.7 0 0 552.6733 86.5506
  A 2.50 0.48 88.7 0 0 552.2501 89.0609
  A 2.50 0.48 88.7 0 0 552.7867 91.5494
  Z
  M 555.1442 91.2399
  A 2.26 0.56 90.4 0 0 555.7200 88.9839
  A 2.26 0.56 90.4 0 0 555.1758 86.7201
  A 2.26 0.56 90.4 0 0 554.6000 88.9761
  A 2.26 0.56 90.4 0 0 555.1442 91.2399
  Z
  M 547.8913 91.1594
  A 2.10 0.30 88.6 0 0 548.1399 89.0527
  A 2.10 0.30 88.6 0 0 547.7887 86.9606
  A 2.10 0.30 88.6 0 0 547.5401 89.0673
  A 2.10 0.30 88.6 0 0 547.8913 91.1594
  Z
  M 557.74 91.12
  L 557.99 91.10
  Q 558.04 91.09 558.04 91.00
  L 558.08 87.27
  A 0.23 0.23 0.0 0 0 557.83 87.04
  L 557.55 87.07
  Q 557.37 87.08 557.39 87.27
  L 557.72 91.11
  Q 557.72 91.12 557.74 91.12
  Z
  M 563.71 92.13
  Q 563.92 92.12 563.99 87.63
  Q 563.99 87.45 563.84 87.37
  Q 563.72 87.30 563.59 87.30
  Q 563.47 87.31 563.35 87.38
  Q 563.20 87.47 563.21 87.65
  Q 563.49 92.13 563.71 92.13
  Z
  M 218.20 91.67
  Q 216.52 91.67 189.70 91.93
  Q 189.14 91.93 189.14 92.49
  L 189.14 120.64
  A 1.72 1.72 0.0 0 0 190.98 122.36
  Q 201.82 121.57 218.24 121.54
  Q 234.66 121.52 245.50 122.28
  A 1.72 1.72 0.0 0 0 247.34 120.56
  L 247.26 92.41
  Q 247.26 91.85 246.70 91.85
  Q 219.89 91.67 218.20 91.67
  Z
  M 913.04 122.87
  C 912.35 120.68 911.89 118.77 911.19 117.21
  Q 909.58 113.59 909.14 112.16
  C 907.25 105.88 906.04 99.17 903.42 92.74
  Q 903.17 92.12 902.91 92.74
  Q 900.91 97.68 900.57 99.08
  Q 897.99 109.85 897.32 121.16
  Q 897.29 121.67 897.78 121.83
  Q 904.82 124.17 912.42 123.76
  A 0.69 0.68 80.1 0 0 913.04 122.87
  Z
  M 668.54 93.54
  A 0.28 0.18 48.2 0 0 668.58 93.78
  Q 668.63 93.84 668.72 93.87
  Q 668.89 93.92 668.88 93.72
  Q 668.87 93.56 668.77 93.44
  A 0.12 0.08 39.0 0 0 668.59 93.42
  Q 668.57 93.49 668.54 93.54
  Z
  M 79.11 118.13
  Q 79.62 118.14 79.62 117.64
  L 79.62 93.84
  A 0.11 0.11 0.0 0 0 79.45 93.75
  Q 62.78 105.28 43.02 109.54
  Q 42.87 109.57 42.87 109.71
  L 42.87 117.98
  Q 42.87 118.27 43.17 118.26
  Q 61.41 117.47 79.11 118.13
  Z
  M 553.96 94.66
  L 543.12 95.02
  Q 542.83 95.03 542.86 95.32
  L 542.89 95.66
  A 0.47 0.46 84.6 0 0 543.40 96.09
  L 553.84 95.19
  Q 553.95 95.18 553.98 95.07
  L 554.07 94.79
  Q 554.10 94.66 553.96 94.66
  Z
  M 556.3649 95.6274
  A 0.83 0.50 21.0 0 0 555.7692 94.8632
  A 0.83 0.50 21.0 0 0 554.8151 95.0326
  A 0.83 0.50 21.0 0 0 555.4108 95.7968
  A 0.83 0.50 21.0 0 0 556.3649 95.6274
  Z
  M 558.8770 96.1000
  A 0.75 0.58 63.3 0 0 559.0582 95.1694
  A 0.75 0.58 63.3 0 0 558.2030 94.7600
  A 0.75 0.58 63.3 0 0 558.0218 95.6906
  A 0.75 0.58 63.3 0 0 558.8770 96.1000
  Z
  M 119.53 119.33
  A 0.38 0.38 0.0 0 0 119.93 118.92
  Q 119.82 116.95 120.31 115.16
  Q 120.50 114.43 119.77 114.23
  Q 102.30 109.30 87.64 98.36
  C 86.37 97.41 85.26 96.15 84.02 95.06
  A 0.16 0.16 0.0 0 0 83.76 95.18
  L 83.76 117.14
  A 0.72 0.71 -88.8 0 0 84.44 117.86
  L 119.53 119.33
  Z
  M 561.92 94.96
  Q 561.31 94.85 561.24 94.86
  Q 560.94 94.88 560.84 95.11
  Q 560.77 95.25 560.80 95.42
  Q 560.84 95.73 561.14 95.79
  Q 562.24 96.00 563.35 95.83
  A 0.37 0.36 7.2 0 0 563.63 95.62
  Q 563.64 95.59 563.67 95.42
  Q 563.75 95.02 563.34 94.96
  C 562.94 94.90 562.45 95.05 561.92 94.96
  Z
  M 263.73 112.80
  Q 264.14 112.78 264.96 113.67
  Q 265.28 114.02 265.69 113.77
  Q 267.56 112.63 269.69 114.55
  A 0.51 0.50 -66.1 0 0 270.53 114.22
  L 270.80 111.34
  Q 270.82 111.12 270.99 110.98
  Q 271.25 110.77 271.67 111.03
  A 0.47 0.44 -75.0 0 1 271.88 111.42
  L 271.88 113.79
  Q 271.88 114.06 272.13 114.17
  Q 272.32 114.26 272.49 114.25
  Q 272.82 114.23 272.96 113.93
  Q 273.41 112.96 273.47 111.70
  Q 273.56 110.06 274.64 111.30
  Q 275.49 112.28 275.95 113.36
  A 0.90 0.90 0.0 0 0 277.52 113.52
  Q 277.86 113.03 278.46 112.62
  Q 278.92 112.30 279.27 112.75
  L 280.06 113.80
  Q 280.40 114.25 280.96 114.17
  Q 281.42 114.11 281.69 113.94
  A 0.67 0.67 0.0 0 0 281.39 112.71
  Q 279.44 112.55 276.05 110.90
  C 269.90 107.92 264.78 101.89 261.00 96.29
  Q 259.89 94.65 259.88 96.63
  C 259.85 105.44 259.41 111.94 260.71 117.03
  Q 260.83 117.51 261.16 117.14
  Q 263.25 114.80 263.20 113.36
  Q 263.18 112.82 263.73 112.80
  Z
  M 614.05 97.91
  L 614.03 98.59
  Q 614.02 98.74 614.23 98.71
  Q 614.27 98.71 614.35 98.63
  Q 614.43 98.56 614.42 98.43
  Q 614.40 98.16 614.31 97.87
  Q 614.07 97.12 614.05 97.91
  Z
  M 167.14 113.36
  Q 167.24 114.21 167.43 114.67
  Q 168.14 116.38 168.62 114.64
  Q 168.68 114.45 169.29 114.08
  Q 169.80 113.77 170.02 114.33
  Q 170.53 115.68 171.74 114.74
  A 0.61 0.60 54.0 0 1 172.60 114.88
  Q 172.79 115.15 172.86 115.48
  A 0.47 0.47 0.0 0 0 173.74 115.59
  L 173.97 115.10
  Q 174.33 114.35 174.92 114.93
  L 175.46 115.45
  Q 175.89 115.87 176.22 115.38
  Q 176.61 114.80 176.61 113.52
  Q 176.57 105.90 176.68 98.69
  Q 176.72 96.40 175.52 98.35
  Q 170.21 106.96 161.42 111.86
  Q 160.00 112.65 157.15 114.05
  A 0.18 0.18 0.0 0 0 157.15 114.37
  L 157.93 114.74
  A 0.30 0.28 46.3 0 0 158.15 114.75
  L 164.30 112.56
  A 0.45 0.44 -2.5 0 1 164.88 113.09
  Q 164.65 113.99 165.00 115.33
  Q 165.22 116.20 165.61 115.38
  L 166.60 113.28
  Q 167.02 112.38 167.14 113.36
  Z
  M 429.6186 105.4300
  A 3.55 0.78 89.7 0 0 430.3800 101.8759
  A 3.55 0.78 89.7 0 0 429.5814 98.3300
  A 3.55 0.78 89.7 0 0 428.8200 101.8841
  A 3.55 0.78 89.7 0 0 429.6186 105.4300
  Z
  M 614.15 99.57
  Q 614.07 99.77 614.11 99.92
  A 0.08 0.08 0.0 0 0 614.27 99.90
  Q 614.30 99.22 614.15 99.57
  Z
  M 668.76 103.00
  Q 668.79 105.42 669.22 105.42
  Q 669.65 105.41 669.62 102.99
  Q 669.59 100.57 669.16 100.57
  Q 668.73 100.58 668.76 103.00
  Z
  M 672.02 105.40
  Q 672.22 105.40 672.58 101.00
  Q 672.60 100.76 672.39 100.64
  Q 672.27 100.56 672.11 100.56
  Q 671.94 100.55 671.81 100.63
  Q 671.60 100.74 671.62 100.98
  Q 671.82 105.39 672.02 105.40
  Z
  M 666.82 101.43
  A 0.23 0.22 60.3 0 0 666.39 101.31
  Q 666.19 101.82 666.45 102.47
  Q 666.59 102.82 666.65 102.45
  L 666.82 101.43
  Z
  M 675.04 101.26
  A 0.33 0.33 0.0 0 0 674.71 100.93
  A 0.33 0.33 0.0 0 0 674.38 101.26
  A 0.33 0.33 0.0 0 0 674.71 101.59
  A 0.33 0.33 0.0 0 0 675.04 101.26
  Z
  M 677.6297 101.1745
  A 1.08 0.06 1.3 0 0 676.5514 101.0900
  A 1.08 0.06 1.3 0 0 675.4703 101.1255
  A 1.08 0.06 1.3 0 0 676.5486 101.2100
  A 1.08 0.06 1.3 0 0 677.6297 101.1745
  Z
  M 395.62 101.89
  L 395.27 105.63
  Q 395.21 106.24 395.77 106.49
  Q 397.52 107.30 398.74 107.25
  Q 399.24 107.23 398.99 106.81
  L 396.09 101.79
  Q 395.70 101.10 395.62 101.89
  Z
  M 557.0605 105.4393
  A 1.93 0.53 88.5 0 0 557.5398 103.4961
  A 1.93 0.53 88.5 0 0 556.9595 101.5807
  A 1.93 0.53 88.5 0 0 556.4802 103.5239
  A 1.93 0.53 88.5 0 0 557.0605 105.4393
  Z
  M 548.1709 102.2104
  A 0.26 0.26 0.0 0 0 547.9229 101.9389
  L 547.2636 101.9090
  A 0.26 0.26 0.0 0 0 546.9921 102.1569
  L 546.6691 109.2696
  A 0.26 0.26 0.0 0 0 546.9171 109.5411
  L 547.5764 109.5710
  A 0.26 0.26 0.0 0 0 547.8479 109.3231
  L 548.1709 102.2104
  Z
  M 686.34 104.67
  Q 686.02 103.39 686.25 102.33
  A 0.36 0.35 -75.8 0 0 686.00 101.90
  L 685.29 101.69
  A 0.28 0.28 0.0 0 0 684.93 101.98
  L 685.18 104.84
  Q 685.21 105.14 685.50 105.12
  L 686.06 105.07
  A 0.33 0.32 80.7 0 0 686.34 104.67
  Z
  M 679.5101 103.9999
  A 0.95 0.17 90.6 0 0 679.6900 103.0518
  A 0.95 0.17 90.6 0 0 679.5299 102.1001
  A 0.95 0.17 90.6 0 0 679.3500 103.0482
  A 0.95 0.17 90.6 0 0 679.5101 103.9999
  Z
  M 959.37 102.60
  Q 959.37 102.68 959.44 102.82
  Q 959.58 103.10 959.70 102.80
  Q 959.71 102.75 959.65 102.57
  A 0.15 0.14 37.6 0 0 959.37 102.60
  Z
  M 666.43 104.91
  Q 666.43 105.30 666.68 105.00
  Q 666.95 104.68 666.69 104.19
  Q 666.43 103.72 666.43 104.26
  L 666.43 104.91
  Z
  M 502.5886 104.9172
  A 1.13 0.63 2.9 0 0 501.4919 104.2308
  A 1.13 0.63 2.9 0 0 500.3314 104.8028
  A 1.13 0.63 2.9 0 0 501.4281 105.4892
  A 1.13 0.63 2.9 0 0 502.5886 104.9172
  Z
  M 463.9518 106.1978
  A 0.84 0.39 76.8 0 0 464.1397 105.2909
  A 0.84 0.39 76.8 0 0 463.5682 104.5622
  A 0.84 0.39 76.8 0 0 463.3803 105.4691
  A 0.84 0.39 76.8 0 0 463.9518 106.1978
  Z
  M 794.61 106.32
  Q 794.85 106.45 795.03 106.33
  Q 795.25 106.21 795.03 106.09
  Q 794.81 105.97 794.64 105.99
  Q 794.10 106.06 794.61 106.32
  Z
  M 821.0696 107.3168
  A 0.53 0.53 0.0 0 0 820.5461 106.7803
  L 804.1273 106.5797
  A 0.53 0.53 0.0 0 0 803.5909 107.1032
  L 803.5904 107.1432
  A 0.53 0.53 0.0 0 0 804.1139 107.6797
  L 820.5327 107.8803
  A 0.53 0.53 0.0 0 0 821.0691 107.3568
  L 821.0696 107.3168
  Z
  M 767.63 107.44
  A 0.21 0.21 0.0 0 0 767.78 107.74
  Q 767.97 107.77 768.04 107.62
  Q 768.12 107.47 767.98 107.37
  Q 767.74 107.21 767.63 107.44
  Z
  M 770.58 107.50
  Q 770.58 107.73 770.85 107.63
  A 0.15 0.14 45.4 0 0 770.85 107.36
  Q 770.59 107.25 770.58 107.50
  Z
  M 774.19 107.64
  Q 774.31 107.52 774.18 107.42
  Q 773.97 107.26 773.80 107.35
  Q 773.56 107.47 773.68 107.70
  Q 773.82 107.99 774.19 107.64
  Z
  M 777.85 107.67
  Q 778.10 107.80 778.25 107.80
  Q 779.63 107.85 778.31 107.42
  Q 778.12 107.35 777.89 107.40
  Q 777.48 107.47 777.85 107.67
  Z
  M 972.0688 110.6198
  A 1.35 0.26 90.9 0 0 972.3500 109.2741
  A 1.35 0.26 90.9 0 0 972.1112 107.9202
  A 1.35 0.26 90.9 0 0 971.8300 109.2659
  A 1.35 0.26 90.9 0 0 972.0688 110.6198
  Z
  M 982.7210 110.9244
  A 1.48 0.63 95.0 0 0 983.4776 109.5049
  A 1.48 0.63 95.0 0 0 982.9790 107.9756
  A 1.48 0.63 95.0 0 0 982.2224 109.3951
  A 1.48 0.63 95.0 0 0 982.7210 110.9244
  Z
  M 977.68 116.15
  Q 978.97 116.20 978.53 114.51
  Q 977.78 111.63 978.37 110.19
  Q 978.61 109.62 978.55 109.31
  Q 978.40 108.52 977.93 108.51
  Q 977.45 108.49 977.25 109.26
  Q 977.17 109.57 977.38 110.16
  Q 977.87 111.63 976.93 114.45
  Q 976.38 116.11 977.68 116.15
  Z
  M 993.8675 110.7090
  A 1.09 0.72 87.5 0 0 994.5393 109.5886
  A 1.09 0.72 87.5 0 0 993.7725 108.5310
  A 1.09 0.72 87.5 0 0 993.1007 109.6514
  A 1.09 0.72 87.5 0 0 993.8675 110.7090
  Z
  M 988.2363 111.0888
  A 1.23 0.71 92.5 0 0 988.9993 109.8910
  A 1.23 0.71 92.5 0 0 988.3437 108.6312
  A 1.23 0.71 92.5 0 0 987.5807 109.8290
  A 1.23 0.71 92.5 0 0 988.2363 111.0888
  Z
  M 999.5898 110.9896
  A 1.22 0.71 88.6 0 0 1000.2698 109.7527
  A 1.22 0.71 88.6 0 0 999.5302 108.5504
  A 1.22 0.71 88.6 0 0 998.8502 109.7873
  A 1.22 0.71 88.6 0 0 999.5898 110.9896
  Z
  M 451.01 114.15
  Q 452.47 116.75 452.79 117.24
  Q 453.43 118.24 454.50 117.41
  A 1.70 1.68 -19.2 0 0 455.15 116.08
  L 455.15 109.78
  A 0.32 0.32 0.0 0 0 454.60 109.55
  L 451.18 112.98
  A 0.98 0.98 0.0 0 0 451.01 114.15
  Z
  M 793.81 109.95
  L 793.85 112.77
  A 0.31 0.31 0.0 0 0 794.17 113.08
  L 794.32 113.08
  A 28.06 1.68 -0.9 0 0 822.35 110.96
  L 822.35 110.88
  A 28.06 1.68 -0.9 0 0 794.26 109.64
  L 794.11 109.64
  A 0.31 0.31 0.0 0 0 793.81 109.95
  Z
  M 960.2052 116.2584
  A 2.22 0.50 87.8 0 0 960.6196 114.0208
  A 2.22 0.50 87.8 0 0 960.0348 111.8216
  A 2.22 0.50 87.8 0 0 959.6204 114.0592
  A 2.22 0.50 87.8 0 0 960.2052 116.2584
  Z
  M 24.24 116.27
  Q 24.22 116.46 24.21 116.64
  Q 24.19 117.43 24.97 117.43
  L 34.63 117.43
  Q 35.16 117.43 35.16 116.90
  L 35.16 112.59
  A 0.71 0.70 -16.6 0 0 34.07 112.00
  Q 30.46 114.38 25.11 115.33
  Q 24.32 115.47 24.24 116.27
  Z
  M 784.09 112.99
  L 784.09 112.23
  A 0.20 0.20 0.0 0 0 783.89 112.03
  L 783.78 112.03
  A 8.65 0.44 -0.3 0 0 775.13 112.51
  L 775.13 112.79
  A 8.65 0.44 -0.3 0 0 783.78 113.19
  L 783.89 113.19
  A 0.20 0.20 0.0 0 0 784.09 112.99
  Z
  M 972.2034 116.4499
  A 1.90 0.42 90.5 0 0 972.6400 114.5537
  A 1.90 0.42 90.5 0 0 972.2366 112.6501
  A 1.90 0.42 90.5 0 0 971.8000 114.5463
  A 1.90 0.42 90.5 0 0 972.2034 116.4499
  Z
  M 988.2695 116.2187
  A 1.81 0.77 87.8 0 0 988.9694 114.3804
  A 1.81 0.77 87.8 0 0 988.1305 112.6013
  A 1.81 0.77 87.8 0 0 987.4306 114.4396
  A 1.81 0.77 87.8 0 0 988.2695 116.2187
  Z
  M 27.76 113.06
  Q 27.29 113.12 26.87 113.49
  Q 26.22 114.05 27.23 113.98
  Q 27.61 113.95 28.06 113.52
  Q 28.68 112.93 27.76 113.06
  Z
  M 285.5475 113.6852
  A 0.85 0.52 4.4 0 0 284.7399 113.1015
  A 0.85 0.52 4.4 0 0 283.8525 113.5548
  A 0.85 0.52 4.4 0 0 284.6601 114.1385
  A 0.85 0.52 4.4 0 0 285.5475 113.6852
  Z
  M 982.8204 115.9880
  A 1.59 0.81 87.1 0 0 983.5490 114.3590
  A 1.59 0.81 87.1 0 0 982.6596 112.8120
  A 1.59 0.81 87.1 0 0 981.9310 114.4410
  A 1.59 0.81 87.1 0 0 982.8204 115.9880
  Z
  M 993.5525 116.1563
  A 1.58 0.94 93.9 0 0 994.5978 114.6439
  A 1.58 0.94 93.9 0 0 993.7675 113.0037
  A 1.58 0.94 93.9 0 0 992.7222 114.5161
  A 1.58 0.94 93.9 0 0 993.5525 116.1563
  Z
  M 999.4824 116.2799
  A 1.68 0.82 90.6 0 0 1000.3200 114.6086
  A 1.68 0.82 90.6 0 0 999.5176 112.9201
  A 1.68 0.82 90.6 0 0 998.6800 114.5914
  A 1.68 0.82 90.6 0 0 999.4824 116.2799
  Z
  M 162.64 117.52
  L 163.29 114.41
  A 0.16 0.16 0.0 0 0 163.16 114.22
  L 163.08 114.20
  A 1.69 1.54 -78.2 0 0 161.23 115.54
  L 161.21 115.66
  A 1.69 1.54 -78.2 0 0 162.37 117.63
  L 162.45 117.64
  A 0.16 0.16 0.0 0 0 162.64 117.52
  Z
  M 24.70 114.33
  A 0.25 0.25 0.0 0 0 24.86 114.71
  Q 25.14 114.77 25.55 114.55
  Q 25.96 114.34 25.53 114.18
  Q 24.94 113.97 24.70 114.33
  Z
  M 451.20 118.26
  L 449.76 115.58
  A 0.46 0.46 0.0 0 0 449.14 115.39
  L 448.97 115.48
  A 6.19 1.64 -28.3 0 0 444.30 119.86
  L 444.62 120.46
  A 6.19 1.64 -28.3 0 0 450.85 118.97
  L 451.01 118.88
  A 0.46 0.46 0.0 0 0 451.20 118.26
  Z
  M 748.92 124.06
  Q 750.34 124.06 750.34 122.64
  L 750.34 118.23
  A 2.50 2.50 0.0 0 0 748.05 115.74
  Q 744.14 115.41 741.00 118.55
  Q 740.59 118.95 740.59 119.53
  L 740.59 122.71
  Q 740.59 124.06 741.94 124.06
  L 748.92 124.06
  Z
  M 126.57 116.50
  L 126.57 118.86
  Q 126.57 119.59 127.28 119.46
  L 134.31 118.21
  A 0.52 0.51 -26.5 0 0 134.60 117.36
  Q 134.33 117.06 133.94 117.02
  Q 128.81 116.43 127.17 116.03
  Q 126.57 115.88 126.57 116.50
  Z
  M 157.13 117.50
  Q 157.08 117.59 157.08 117.71
  Q 157.08 118.10 157.25 117.77
  Q 157.28 117.72 157.24 117.50
  Q 157.20 117.35 157.13 117.50
  Z
  M 960.1934 121.2599
  A 1.90 0.60 90.5 0 0 960.8100 119.3652
  A 1.90 0.60 90.5 0 0 960.2266 117.4601
  A 1.90 0.60 90.5 0 0 959.6100 119.3548
  A 1.90 0.60 90.5 0 0 960.1934 121.2599
  Z
  M 972.27 121.19
  Q 973.17 119.97 972.81 118.86
  Q 972.10 116.70 971.57 118.83
  Q 971.44 119.36 971.87 121.06
  A 1.61 1.58 48.5 0 1 971.82 122.00
  Q 971.49 122.93 971.69 123.56
  Q 971.83 123.99 972.27 123.86
  L 972.54 123.79
  Q 972.96 123.67 972.93 123.23
  Q 972.88 122.45 972.36 121.99
  Q 971.96 121.63 972.27 121.19
  Z
  M 988.1762 120.4293
  A 1.32 0.73 91.9 0 0 988.9496 119.1342
  A 1.32 0.73 91.9 0 0 988.2638 117.7907
  A 1.32 0.73 91.9 0 0 987.4904 119.0858
  A 1.32 0.73 91.9 0 0 988.1762 120.4293
  Z
  M 982.5323 120.3419
  A 1.18 0.82 96.7 0 0 983.4844 119.2657
  A 1.18 0.82 96.7 0 0 982.8077 117.9981
  A 1.18 0.82 96.7 0 0 981.8556 119.0743
  A 1.18 0.82 96.7 0 0 982.5323 120.3419
  Z
  M 977.3425 120.7309
  A 1.37 0.89 96.6 0 0 978.3841 119.4723
  A 1.37 0.89 96.6 0 0 977.6575 118.0091
  A 1.37 0.89 96.6 0 0 976.6159 119.2677
  A 1.37 0.89 96.6 0 0 977.3425 120.7309
  Z
  M 993.5409 120.6791
  A 1.28 0.87 92.2 0 0 994.4594 119.4334
  A 1.28 0.87 92.2 0 0 993.6391 118.1209
  A 1.28 0.87 92.2 0 0 992.7206 119.3666
  A 1.28 0.87 92.2 0 0 993.5409 120.6791
  Z
  M 999.4316 120.4800
  A 1.21 0.78 90.4 0 0 1000.2200 119.2754
  A 1.21 0.78 90.4 0 0 999.4484 118.0600
  A 1.21 0.78 90.4 0 0 998.6600 119.2646
  A 1.21 0.78 90.4 0 0 999.4316 120.4800
  Z
  M 783.5735 119.4733
  A 0.80 0.80 0.0 0 0 782.7597 118.6874
  L 782.4197 118.6933
  A 0.80 0.80 0.0 0 0 781.6338 119.5072
  L 781.6865 122.5267
  A 0.80 0.80 0.0 0 0 782.5003 123.3126
  L 782.8403 123.3067
  A 0.80 0.80 0.0 0 0 783.6262 122.4928
  L 783.5735 119.4733
  Z
  M 79.34 122.67
  L 79.34 120.11
  A 0.28 0.28 0.0 0 0 79.07 119.83
  L 78.85 119.83
  A 36.02 1.46 0.2 0 0 42.82 121.17
  L 42.82 121.37
  A 36.02 1.46 0.2 0 0 78.83 122.95
  L 79.05 122.95
  A 0.28 0.28 0.0 0 0 79.34 122.67
  Z
  M 442.7718 120.3204
  A 1.19 0.84 -22.2 0 0 441.3526 119.9923
  A 1.19 0.84 -22.2 0 0 440.5682 121.2196
  A 1.19 0.84 -22.2 0 0 441.9874 121.5477
  A 1.19 0.84 -22.2 0 0 442.7718 120.3204
  Z
  M 83.81 120.80
  L 83.91 121.71
  A 0.23 0.23 0.0 0 0 84.16 121.92
  L 84.34 121.90
  A 6.11 0.67 -6.1 0 0 90.34 120.58
  L 90.34 120.54
  A 6.11 0.67 -6.1 0 0 84.19 120.53
  L 84.01 120.55
  A 0.23 0.23 0.0 0 0 83.81 120.80
  Z
  M 977.6821 124.1599
  A 1.15 0.87 82.4 0 0 978.3924 122.9049
  A 1.15 0.87 82.4 0 0 977.3779 121.8801
  A 1.15 0.87 82.4 0 0 976.6676 123.1351
  A 1.15 0.87 82.4 0 0 977.6821 124.1599
  Z
  M 983.81 122.99
  A 1.09 1.09 0.0 0 0 982.72 121.90
  A 1.09 1.09 0.0 0 0 981.63 122.99
  A 1.09 1.09 0.0 0 0 982.72 124.08
  A 1.09 1.09 0.0 0 0 983.81 122.99
  Z
  M 989.24 123.06
  A 0.95 0.95 0.0 0 0 988.29 122.11
  A 0.95 0.95 0.0 0 0 987.34 123.06
  A 0.95 0.95 0.0 0 0 988.29 124.01
  A 0.95 0.95 0.0 0 0 989.24 123.06
  Z
  M 994.8827 123.2204
  A 1.17 0.78 6.4 0 0 993.8069 122.3149
  A 1.17 0.78 6.4 0 0 992.5573 122.9596
  A 1.17 0.78 6.4 0 0 993.6331 123.8651
  A 1.17 0.78 6.4 0 0 994.8827 123.2204
  Z
  M 1000.17 123.16
  A 0.80 0.80 0.0 0 0 999.37 122.36
  A 0.80 0.80 0.0 0 0 998.57 123.16
  A 0.80 0.80 0.0 0 0 999.37 123.96
  A 0.80 0.80 0.0 0 0 1000.17 123.16
  Z"
/>
<ellipse fill="#f6f6f6" cx="0.00" cy="0.00" transform="translate(432.98,48.30) rotate(112.7)" rx="1.47" ry="1.16"/>
<path fill="#f6f6f6" d="
  M 427.40 55.10
  A 0.08 0.08 0.0 0 1 427.55 55.08
  Q 427.65 55.24 427.58 55.58
  Q 427.42 56.41 427.31 55.59
  Q 427.29 55.45 427.40 55.10
  Z"
/>
<circle fill="#f6f6f6" cx="396.30" cy="62.75" r="1.23"/>
<ellipse fill="#f6f6f6" cx="0.00" cy="0.00" transform="translate(459.57,66.21) rotate(-41.0)" rx="1.64" ry="1.01"/>
<path fill="#f6f6f6" d="
  M 450.99 68.75
  Q 451.45 68.23 451.47 68.60
  A 0.29 0.29 0.0 0 1 451.30 68.88
  Q 451.17 68.94 451.04 68.91
  A 0.10 0.09 -63.8 0 1 450.99 68.75
  Z"
/>
<path fill="#f6f6f6" d="
  M 393.04 69.54
  Q 393.40 70.00 393.37 70.47
  Q 393.35 71.01 392.82 71.13
  Q 391.31 71.46 391.03 71.11
  Q 390.76 70.75 391.46 69.37
  Q 391.70 68.89 392.23 69.00
  Q 392.69 69.09 393.04 69.54
  Z"
/>
<ellipse fill="#f6f6f6" cx="0.00" cy="0.00" transform="translate(448.55,70.55) rotate(-33.8)" rx="0.51" ry="0.24"/>
<path fill="#f6f6f6" d="
  M 870.53 84.42
  L 879.43 87.03
  Q 880.55 87.36 879.39 87.33
  L 867.28 87.04
  Q 866.83 87.03 866.79 86.58
  Q 866.63 84.84 867.34 83.90
  Q 867.88 83.19 868.68 83.25
  Q 869.40 83.30 870.27 84.26
  A 0.57 0.52 74.1 0 0 870.53 84.42
  Z"
/>
<path fill="#f6f6f6" d="
  M 930.06 90.94
  L 916.79 89.29
  A 0.20 0.19 -1.9 0 1 916.63 89.15
  Q 916.63 89.13 916.62 89.10
  Q 916.61 89.07 916.66 89.07
  Q 923.56 88.98 929.76 86.09
  Q 930.31 85.83 930.31 86.44
  L 930.31 90.71
  A 0.23 0.22 -86.7 0 1 930.06 90.94
  Z"
/>
<path fill="#f6f6f6" d="
  M 907.35 89.95
  L 906.81 89.79
  Q 906.46 89.69 906.71 89.43
  Q 906.89 89.25 907.24 89.32
  Q 907.38 89.35 907.52 89.48
  C 909.62 91.54 912.74 92.65 914.55 93.78
  Q 917.54 95.63 920.52 97.49
  Q 920.60 97.53 920.58 97.75
  L 920.58 97.76
  Q 920.57 97.98 920.31 97.83
  Q 911.79 92.97 908.98 91.28
  Q 908.59 91.05 908.00 90.37
  Q 907.73 90.07 907.35 89.95
  Z"
/>
<ellipse fill="#f6f6f6" cx="0.00" cy="0.00" transform="translate(454.43,93.47) rotate(9.8)" rx="1.00" ry="0.15"/>
<path fill="#f6f6f6" d="
  M 391.12 94.60
  Q 391.54 95.32 390.12 96.43
  A 0.85 0.84 38.3 0 1 389.23 96.53
  Q 388.87 96.36 388.68 96.03
  Q 388.49 95.71 388.51 95.31
  A 0.85 0.84 81.0 0 1 389.04 94.58
  Q 390.71 93.89 391.12 94.60
  Z"
/>
<ellipse fill="#f6f6f6" cx="0.00" cy="0.00" transform="translate(862.81,97.54) rotate(121.7)" rx="1.68" ry="1.39"/>
<path fill="#f6f6f6" d="
  M 927.71 100.27
  A 0.12 0.12 0.0 0 0 927.85 100.14
  L 927.82 99.79
  Q 927.80 99.58 927.60 99.53
  Q 925.15 98.93 923.84 97.04
  Q 923.46 96.48 924.13 96.59
  Q 927.07 97.06 928.17 99.68
  Q 928.36 100.14 928.83 100.28
  L 930.48 100.79
  Q 932.36 101.35 930.44 101.78
  Q 929.91 101.90 928.82 101.89
  Q 928.20 101.88 928.02 102.47
  L 927.92 102.83
  Q 927.75 103.41 927.14 103.31
  Q 923.86 102.78 923.05 99.88
  A 0.78 0.78 0.0 0 1 924.18 98.99
  Q 925.95 99.99 927.71 100.27
  Z"
/>
<path fill="#f6f6f6" d="
  M 452.72 96.91
  L 454.48 97.43
  Q 455.02 97.58 454.46 97.64
  Q 453.53 97.73 452.62 97.12
  Q 452.01 96.70 452.72 96.91
  Z"
/>
<path fill="#f6f6f6" d="
  M 868.59 104.26
  A 0.18 0.18 0.0 0 1 868.68 104.02
  L 868.86 103.94
  A 11.86 0.50 -24.9 0 1 879.83 99.40
  L 879.85 99.45
  A 11.86 0.50 -24.9 0 1 869.31 104.90
  L 869.13 104.98
  A 0.18 0.18 0.0 0 1 868.89 104.89
  L 868.59 104.26
  Z"
/>
<ellipse fill="#f6f6f6" cx="0.00" cy="0.00" transform="translate(887.11,102.65) rotate(128.8)" rx="4.42" ry="0.35"/>
<path fill="#f6f6f6" d="
  M 892.44 100.11
  Q 892.46 100.13 892.48 100.15
  Q 892.51 100.19 892.48 100.24
  Q 887.46 108.50 886.96 108.16
  Q 886.47 107.83 892.31 100.13
  Q 892.35 100.08 892.40 100.09
  Q 892.42 100.10 892.44 100.11
  Z"
/>
<path fill="#f6f6f6" d="
  M 401.22 101.13
  Q 401.33 100.58 401.54 100.86
  A 0.30 0.30 0.0 0 1 401.56 101.19
  Q 401.47 101.36 401.31 101.29
  A 0.15 0.14 -75.5 0 1 401.22 101.13
  Z"
/>
<ellipse fill="#f6f6f6" cx="0.00" cy="0.00" transform="translate(921.14,102.83) rotate(76.8)" rx="1.42" ry="1.24"/>
<path fill="#f6f6f6" d="
  M 882.09 102.34
  A 0.21 0.21 0.0 0 1 882.42 102.46
  Q 882.50 102.84 882.33 103.08
  Q 879.33 107.31 876.43 110.77
  Q 875.67 111.68 874.61 111.18
  L 873.17 110.50
  Q 872.04 109.97 873.04 109.21
  L 882.09 102.34
  Z"
/>
<ellipse fill="#f6f6f6" cx="0.00" cy="0.00" transform="translate(864.92,105.96) rotate(49.8)" rx="1.57" ry="1.31"/>
<ellipse fill="#f6f6f6" cx="0.00" cy="0.00" transform="translate(876.85,114.09) rotate(129.3)" rx="1.05" ry="0.28"/>
<ellipse fill="#f6f6f6" cx="0.00" cy="0.00" transform="translate(434.41,116.45) rotate(84.7)" rx="1.48" ry="0.32"/>
</svg>
