<?xml version="1.0" encoding="UTF-8" standalone="no"?>
<!DOCTYPE svg PUBLIC "-//W3C//DTD SVG 1.1//EN" "http://www.w3.org/Graphics/SVG/1.1/DTD/svg11.dtd">
<svg xmlns="http://www.w3.org/2000/svg" version="1.1" viewBox="0.00 0.00 1024.00 1024.00">
<g stroke-width="2.00" fill="none" stroke-linecap="butt">
<path stroke="#918f90" vector-effect="non-scaling-stroke" d="
  M 423.37 269.08
  C 423.15 275.61 418.97 285.65 413.14 289.39
  Q 410.31 291.22 406.07 293.75
  Q 403.99 294.99 405.74 296.28
  Q 405.89 296.39 407.33 296.40
  C 416.32 296.44 423.45 288.41 426.83 280.82
  Q 434.10 264.47 428.49 246.32
  Q 422.30 226.26 400.65 227.42
  A 0.65 0.65 0.0 0 1 400.02 226.50
  Q 411.32 201.73 399.36 180.04
  C 392.19 167.01 380.07 158.30 365.64 153.68
  Q 346.13 147.44 330.45 159.38
  Q 329.80 159.87 329.49 159.12
  Q 317.90 130.68 289.26 120.38
  C 272.63 114.39 255.29 113.37 239.09 120.75
  Q 209.42 134.29 201.95 164.94
  Q 201.72 165.91 201.62 168.20
  Q 201.59 168.99 200.84 168.71
  Q 191.37 165.13 181.34 163.42
  Q 176.77 162.65 166.68 162.81
  Q 158.55 162.94 152.27 164.83
  C 138.31 169.05 124.85 177.06 117.10 188.84
  Q 109.01 201.13 105.61 217.67
  Q 102.60 232.26 105.83 246.00
  Q 107.10 251.37 110.15 256.51
  A 0.27 0.26 71.9 0 1 109.95 256.91
  C 95.90 258.39 82.75 268.39 74.39 279.90
  Q 68.24 288.38 66.26 299.62
  C 64.41 310.14 65.51 318.65 68.07 329.50
  C 71.44 343.76 79.98 355.28 94.66 359.86
  C 98.12 360.94 100.74 359.70 104.16 358.63
  Q 105.78 358.12 104.19 357.53
  Q 100.31 356.09 95.89 354.20
  C 86.36 350.12 79.56 342.38 76.33 332.48
  Q 75.85 331.03 76.96 332.08
  Q 79.42 334.42 82.01 336.91
  Q 88.46 343.10 97.64 346.56
  C 103.22 348.66 108.03 348.86 113.69 348.13
  A 0.59 0.57 87.1 0 1 114.34 348.73
  C 113.90 365.86 123.95 381.39 141.65 383.92
  Q 144.71 384.36 148.91 384.20
  C 156.82 383.91 163.19 381.67 169.22 376.58
  Q 171.58 374.58 168.67 375.65
  C 155.26 380.57 134.34 381.15 126.08 366.46
  Q 121.71 358.69 121.98 349.86
  Q 122.08 346.61 122.29 345.61
  Q 123.80 338.57 128.79 334.17
  Q 133.45 330.08 140.24 329.51
  Q 152.67 328.45 158.13 341.38
  C 162.32 351.31 168.31 361.18 181.14 355.96
  C 187.04 353.56 188.63 345.33 187.75 339.75
  C 186.17 329.74 182.47 319.96 178.78 310.75
  A 1.09 1.09 0.0 0 1 179.34 309.34
  Q 185.59 306.52 191.10 303.85
  Q 207.41 295.96 211.78 279.27
  Q 211.94 278.65 212.56 278.82
  Q 227.52 282.86 240.55 278.01
  C 252.54 273.55 264.01 264.65 270.99 253.30
  C 272.66 250.58 273.79 247.16 274.96 244.42
  Q 275.22 243.83 275.67 244.29
  Q 283.08 251.88 294.23 257.96
  Q 300.05 261.14 310.27 264.23
  Q 323.66 268.29 326.88 268.86
  Q 337.86 270.82 349.59 270.07
  Q 350.13 270.04 350.34 270.53
  Q 356.11 284.31 360.23 296.04
  Q 367.64 317.13 369.92 339.53
  Q 370.69 347.05 370.24 364.81
  C 370.05 372.07 368.69 380.25 367.37 386.39
  C 361.21 414.89 344.03 438.32 315.84 448.29
  Q 293.75 456.09 272.54 453.03
  Q 248.70 449.58 227.10 435.34
  C 216.40 428.28 205.69 419.06 198.30 409.17
  Q 187.97 395.33 183.61 388.77
  Q 181.61 385.76 182.34 389.30
  C 185.88 406.45 196.97 421.82 210.31 433.21
  Q 211.95 434.61 212.98 435.68
  Q 213.29 436.00 212.85 436.11
  Q 205.17 438.01 196.50 444.75
  Q 183.00 455.25 173.71 464.21
  C 144.90 492.03 119.03 521.78 97.53 555.00
  Q 93.41 561.37 87.07 572.04
  Q 65.21 608.80 54.58 650.06
  Q 50.06 667.59 48.58 682.53
  Q 45.75 711.11 54.53 738.78
  Q 55.73 742.57 58.36 748.02
  Q 61.50 754.55 63.22 756.53
  Q 67.21 761.12 70.95 766.13
  Q 71.05 766.26 71.17 766.30
  Q 71.29 766.34 71.43 766.30
  Q 71.72 766.20 71.61 765.92
  Q 68.10 757.54 62.95 741.86
  Q 54.70 716.75 55.79 692.09
  Q 57.08 663.05 67.99 632.48
  Q 82.37 592.23 105.46 557.96
  Q 131.81 518.85 163.06 486.32
  Q 173.53 475.41 184.04 466.55
  Q 191.45 460.31 196.84 457.37
  Q 212.01 449.13 228.38 454.19
  C 239.80 457.72 252.72 462.70 265.25 465.25
  C 295.24 471.35 323.47 465.09 344.92 442.17
  Q 349.77 436.99 351.71 434.75
  A 1.63 1.63 0.0 0 1 353.55 434.30
  Q 369.38 440.53 383.85 451.60
  Q 384.45 452.06 385.94 452.41
  A 1.43 1.42 -84.3 0 0 387.68 450.98
  Q 387.62 448.99 386.24 447.34
  C 378.83 438.43 370.38 430.63 359.47 426.96
  A 0.70 0.70 0.0 0 1 359.12 425.90
  C 370.39 409.79 376.47 391.25 378.07 372.17
  Q 379.86 350.80 377.16 330.22
  A 1.30 1.29 73.2 0 1 377.87 328.89
  C 390.90 322.36 398.15 306.33 396.22 292.18
  A 0.95 0.95 0.0 0 1 396.80 291.17
  C 406.28 287.40 415.66 281.89 421.01 272.17
  Q 422.01 270.35 422.98 268.95
  Q 423.40 268.34 423.37 269.08"
/>
<path stroke="#918f90" vector-effect="non-scaling-stroke" d="
  M 999.17 533.21
  Q 998.77 531.55 999.85 532.90
  C 1015.75 552.72 1014.03 581.00 1000.62 601.86
  Q 986.63 623.63 962.26 632.01
  Q 946.36 637.49 931.38 640.07
  C 926.98 640.83 923.55 642.17 919.98 644.19
  A 0.83 0.82 -49.7 0 0 920.10 645.68
  Q 921.04 646.03 922.75 646.05
  C 928.54 646.11 933.18 646.20 938.97 645.29
  Q 955.63 642.67 970.35 636.60
  Q 985.63 630.30 994.46 622.22
  Q 1018.66 600.06 1020.36 568.26
  Q 1020.92 557.86 1018.38 548.49
  Q 1012.70 527.52 995.19 513.65
  A 0.55 0.55 0.0 0 1 995.07 512.93
  Q 1000.52 504.32 1002.97 493.51
  Q 1009.08 466.51 996.46 442.36
  C 988.50 427.13 973.75 417.19 957.47 412.86
  Q 957.08 412.76 957.28 412.41
  C 959.24 409.12 961.62 405.90 963.32 402.64
  Q 971.12 387.69 972.61 371.84
  C 973.01 367.59 973.64 361.38 973.08 356.39
  Q 970.65 334.96 959.98 319.22
  Q 947.05 300.16 924.41 293.30
  Q 923.47 293.02 924.13 292.29
  Q 929.74 286.11 932.23 279.02
  Q 937.47 264.12 936.37 246.81
  C 935.70 236.25 932.92 227.30 928.67 218.06
  Q 925.63 211.42 921.57 206.52
  Q 917.77 201.93 917.45 201.50
  Q 915.10 198.35 912.41 196.15
  Q 906.27 191.13 903.14 189.38
  Q 885.32 179.45 865.21 180.86
  Q 864.52 180.91 864.54 180.21
  Q 864.74 172.43 862.40 166.90
  C 856.86 153.78 846.85 141.46 833.71 135.14
  Q 819.35 128.23 803.50 127.58
  C 786.18 126.87 770.74 133.05 758.11 144.79
  C 755.84 146.90 753.74 149.83 752.02 152.02
  Q 751.65 152.49 751.11 152.23
  Q 721.92 138.44 691.49 146.24
  Q 675.07 150.45 662.87 161.84
  Q 658.20 166.20 651.73 174.48
  Q 637.73 192.38 639.51 214.69
  Q 639.56 215.24 639.01 215.26
  C 634.74 215.41 630.33 215.18 625.87 215.93
  C 615.31 217.71 605.20 221.09 596.57 227.49
  Q 569.75 247.39 571.22 282.49
  Q 571.57 290.87 575.04 298.89
  A 0.51 0.50 -13.0 0 1 574.60 299.59
  Q 571.00 299.83 564.73 301.94
  C 547.32 307.78 534.88 321.23 531.41 339.06
  C 529.94 346.63 529.40 353.16 531.28 359.78
  A 1.39 1.39 0.0 0 1 530.38 361.48
  Q 511.24 367.82 505.60 386.71
  C 504.33 390.95 503.13 398.88 506.51 401.95
  A 1.44 1.44 0.0 0 0 508.86 401.31
  C 509.87 398.01 510.25 393.86 511.01 391.13
  C 513.98 380.44 523.10 372.23 533.88 368.77
  A 1.70 1.70 0.0 0 1 535.73 369.33
  L 538.72 373.13
  Q 539.14 373.67 538.51 373.95
  Q 536.62 374.78 534.34 375.51
  C 522.75 379.22 516.32 391.13 516.32 402.82
  C 516.31 409.80 519.35 414.64 524.25 419.23
  Q 525.58 420.47 523.76 420.48
  Q 518.33 420.51 514.49 420.54
  C 510.74 420.58 508.32 421.53 505.52 423.34
  A 0.76 0.75 43.8 0 0 505.55 424.62
  C 513.13 429.14 525.30 427.23 534.18 426.93
  Q 553.94 426.25 556.63 425.94
  Q 580.37 423.19 587.23 422.66
  Q 597.89 421.83 608.51 420.60
  C 625.85 418.60 638.01 422.43 650.37 434.91
  Q 655.73 440.33 659.18 442.98
  C 674.49 454.73 691.90 460.27 711.18 460.35
  C 721.68 460.40 730.50 459.35 741.01 457.97
  Q 752.59 456.46 759.08 456.53
  Q 770.45 456.65 781.57 459.53
  Q 785.07 460.44 786.88 461.79
  C 795.48 468.18 804.51 477.85 810.85 484.31
  C 824.55 498.25 836.21 514.34 847.29 531.95
  Q 871.80 570.91 885.63 612.71
  Q 893.52 636.56 897.61 662.51
  Q 902.30 692.27 896.94 724.23
  Q 893.51 744.70 885.75 762.05
  Q 880.61 773.53 876.85 784.42
  Q 876.51 785.41 876.83 786.25
  A 0.37 0.37 0.0 0 0 877.44 786.38
  Q 888.32 775.00 894.33 760.86
  Q 902.48 741.69 905.13 720.93
  Q 906.68 708.70 906.89 704.38
  Q 907.13 699.43 907.00 682.71
  C 906.95 675.90 905.95 669.25 905.27 662.00
  Q 904.63 655.21 900.71 636.33
  Q 900.41 634.85 900.41 633.80
  A 0.85 0.84 -85.6 0 1 901.38 632.96
  C 911.09 634.48 922.13 633.20 930.59 632.06
  C 950.27 629.41 970.14 621.66 984.63 608.88
  C 1004.43 591.42 1007.38 564.91 1001.07 540.57
  Q 999.23 533.46 999.17 533.21"
/>
<path stroke="#918f90" vector-effect="non-scaling-stroke" d="
  M 305.17 344.36
  C 307.36 344.59 309.64 345.33 311.81 345.34
  Q 326.86 345.37 327.49 329.77
  Q 327.75 323.32 325.73 316.83
  Q 324.70 313.52 321.19 314.21
  Q 321.18 314.22 321.05 314.25
  Q 317.58 315.08 318.44 318.50
  C 319.96 324.56 322.63 336.56 314.00 337.60
  C 305.44 338.63 299.21 331.94 297.29 324.07
  C 295.43 316.43 293.96 308.08 298.01 301.10
  C 301.29 295.44 309.44 293.90 315.52 294.31
  C 317.86 294.46 322.39 296.00 325.48 295.65
  C 328.20 295.35 331.66 293.57 330.80 290.30
  C 330.22 288.11 326.82 286.32 324.84 285.66
  Q 317.06 283.10 308.48 285.22
  Q 292.34 289.21 288.67 305.97
  Q 288.21 308.09 288.52 313.87
  Q 288.53 314.01 288.63 320.91
  Q 288.67 324.07 289.33 327.76
  C 290.92 336.57 287.80 344.88 277.11 343.62
  Q 265.47 342.24 259.46 331.14
  Q 257.85 328.16 254.82 329.56
  L 254.54 329.72
  Q 251.67 331.29 252.92 334.32
  C 257.62 345.73 269.64 352.21 281.83 350.88
  C 287.66 350.25 292.05 347.66 294.95 342.73
  A 0.84 0.84 0.0 0 1 296.46 342.84
  C 300.15 351.98 306.84 363.11 316.69 366.65
  A 0.40 0.40 0.0 0 0 317.19 366.11
  C 314.96 361.02 311.38 356.37 307.11 349.89
  Q 307.05 349.80 304.77 344.92
  Q 304.48 344.29 305.17 344.36"
/>
<path stroke="#918f90" vector-effect="non-scaling-stroke" d="
  M 257.05 303.52
  C 261.75 303.81 266.36 305.06 271.38 304.47
  C 273.34 304.25 274.02 303.15 274.43 301.41
  C 275.62 296.35 270.89 293.70 266.52 293.58
  Q 252.42 293.19 242.78 303.01
  Q 239.03 306.83 237.43 310.10
  A 2.29 2.29 0.0 0 0 238.34 313.10
  C 240.51 314.36 242.27 313.22 243.91 311.41
  C 247.23 307.74 252.50 303.23 257.05 303.52"
/>
<path stroke="#918f90" vector-effect="non-scaling-stroke" d="
  M 279.92 395.49
  C 276.73 393.14 277.26 387.85 273.51 387.53
  Q 271.26 387.33 269.60 389.46
  C 267.11 392.66 271.81 399.45 274.05 401.21
  Q 283.56 408.70 296.01 406.46
  Q 299.51 405.83 302.19 404.13
  C 306.53 401.38 303.27 394.60 297.65 397.32
  C 292.61 399.76 284.77 399.07 279.92 395.49"
/>
<path stroke="#918f90" vector-effect="non-scaling-stroke" d="
  M 521.99 465.63
  Q 520.29 457.90 515.24 452.00
  Q 505.89 441.07 496.86 432.35
  C 490.89 426.59 487.53 423.36 481.73 419.74
  Q 457.70 404.76 431.86 396.77
  Q 422.47 393.88 414.84 392.75
  Q 410.07 392.04 406.77 392.79
  Q 406.26 392.90 406.02 393.36
  C 404.06 397.02 408.13 399.17 411.18 399.68
  Q 431.75 403.07 452.31 412.64
  C 467.56 419.73 481.40 426.47 493.05 438.50
  Q 505.49 451.35 515.09 462.95
  Q 517.00 465.27 521.23 467.53
  A 0.65 0.64 14.8 0 0 522.18 466.98
  Q 522.19 466.53 521.99 465.63"
/>
<path stroke="#918f90" vector-effect="non-scaling-stroke" d="
  M 447.21 424.30
  Q 449.56 422.98 451.28 422.50
  Q 453.04 422.01 451.31 421.44
  Q 444.69 419.22 437.26 422.02
  Q 427.45 425.73 419.90 433.19
  Q 399.30 453.58 399.06 483.81
  C 398.92 500.00 409.90 521.48 427.30 524.70
  Q 430.42 525.27 433.13 523.96
  A 2.22 2.22 0.0 0 0 434.21 521.09
  C 433.34 519.05 431.82 518.37 429.58 517.86
  Q 421.20 515.97 415.69 509.24
  A 0.51 0.51 0.0 0 1 416.03 508.41
  Q 416.57 508.35 418.68 508.02
  C 429.02 506.40 436.74 487.11 439.48 478.50
  Q 440.84 474.21 442.16 478.50
  C 443.41 482.58 439.40 491.62 438.54 499.18
  C 438.04 503.55 437.43 507.39 437.91 511.83
  Q 438.50 517.21 438.89 518.89
  C 440.23 524.49 442.61 528.31 445.91 533.36
  Q 446.72 534.59 447.31 536.01
  Q 448.20 538.20 448.10 539.01
  Q 446.91 548.78 442.03 557.27
  Q 437.21 565.67 436.47 567.01
  C 434.43 570.75 432.93 574.76 436.67 577.64
  C 439.12 579.53 442.64 579.22 446.07 578.87
  A 0.70 0.70 0.0 0 1 446.84 579.59
  Q 446.71 582.85 449.01 585.40
  Q 450.78 587.37 454.11 587.57
  C 457.93 587.80 462.40 585.86 465.33 582.93
  Q 465.96 582.29 466.61 582.92
  C 473.31 589.36 481.16 584.95 485.69 578.95
  A 0.69 0.69 0.0 0 1 486.82 578.99
  C 487.61 580.23 488.19 581.35 489.75 581.66
  C 500.71 583.83 510.79 565.54 513.82 557.33
  Q 517.40 547.63 518.58 533.63
  Q 518.87 530.17 518.30 524.95
  Q 517.52 517.70 517.25 516.29
  Q 514.68 502.94 508.35 490.99
  Q 499.20 473.74 487.64 460.41
  Q 482.14 454.07 473.53 446.36
  Q 462.86 436.80 454.10 430.22
  Q 451.10 427.97 447.23 425.89
  A 0.91 0.91 0.0 0 1 447.21 424.30"
/>
<path stroke="#918f90" vector-effect="non-scaling-stroke" d="
  M 676.8731 499.6458
  A 8.38 7.88 81.4 0 0 683.4114 490.1817
  A 8.38 7.88 81.4 0 0 674.3669 483.0742
  A 8.38 7.88 81.4 0 0 667.8286 492.5383
  A 8.38 7.88 81.4 0 0 676.8731 499.6458"
/>
<path stroke="#918f90" vector-effect="non-scaling-stroke" d="
  M 283.25 504.80
  Q 276.50 504.13 265.53 502.54
  Q 260.49 501.81 255.62 502.55
  Q 254.49 502.72 254.40 503.49
  A 0.97 0.97 0.0 0 0 254.93 504.46
  C 261.76 507.89 267.94 508.43 276.94 509.76
  C 291.46 511.89 306.52 510.80 320.65 507.31
  Q 333.02 504.26 344.14 497.39
  C 346.60 495.87 352.57 491.81 352.92 488.55
  Q 352.98 488.03 352.64 487.63
  Q 350.13 484.67 346.89 486.87
  Q 345.60 487.75 341.87 490.62
  Q 336.26 494.97 328.19 497.93
  Q 312.93 503.53 297.40 504.53
  C 293.31 504.79 287.86 505.26 283.25 504.80"
/>
<path stroke="#918f90" vector-effect="non-scaling-stroke" d="
  M 663.9466 534.8437
  A 9.37 8.76 92.1 0 0 673.0441 525.8010
  A 9.37 8.76 92.1 0 0 664.6334 516.1163
  A 9.37 8.76 92.1 0 0 655.5359 525.1590
  A 9.37 8.76 92.1 0 0 663.9466 534.8437"
/>
<path stroke="#918f90" vector-effect="non-scaling-stroke" d="
  M 523.08 594.19
  Q 526.17 602.05 527.55 610.49
  Q 528.37 615.49 528.95 628.09
  C 529.06 630.46 529.67 632.82 530.33 635.08
  Q 531.00 637.37 533.38 637.37
  L 535.70 637.37
  Q 538.28 637.37 537.79 634.84
  Q 536.69 629.16 535.49 617.24
  Q 534.47 607.11 527.87 592.95
  Q 526.75 590.53 523.84 586.77
  Q 521.91 584.27 518.80 584.20
  A 0.61 0.61 0.0 0 0 518.21 585.02
  C 519.33 588.07 521.85 591.07 523.08 594.19"
/>
<path stroke="#918f90" vector-effect="non-scaling-stroke" d="
  M 496.94 731.41
  Q 497.91 732.80 498.82 735.11
  C 500.76 740.11 506.74 743.50 511.60 744.37
  Q 526.74 747.06 541.14 741.60
  Q 545.15 740.08 547.84 737.59
  C 550.94 734.71 550.79 732.42 550.55 728.65
  A 0.34 0.33 2.8 0 1 550.95 728.30
  C 557.14 729.32 565.99 729.44 571.68 728.17
  C 580.28 726.26 589.24 722.38 595.70 716.81
  A 1.39 1.39 0.0 0 1 597.32 716.66
  L 608.75 723.25
  A 1.63 1.63 0.0 0 1 609.53 724.93
  Q 606.13 744.92 604.80 760.51
  C 603.90 771.02 603.09 778.15 604.64 786.11
  Q 604.89 787.40 603.79 788.12
  C 601.68 789.48 597.92 791.77 595.93 788.76
  Q 594.52 786.65 594.49 784.09
  Q 594.38 773.01 595.42 764.02
  Q 598.12 740.70 598.21 739.39
  Q 598.53 734.56 597.60 729.36
  Q 597.48 728.71 597.13 728.29
  A 0.50 0.49 -51.7 0 0 596.30 728.39
  Q 593.28 734.73 591.82 741.58
  Q 588.25 758.31 587.02 775.57
  Q 586.80 778.75 586.91 781.44
  C 587.23 788.91 588.63 796.26 597.06 797.41
  C 605.02 798.51 612.02 792.18 616.41 785.88
  Q 626.30 771.69 632.32 755.87
  Q 640.16 735.25 641.94 712.31
  Q 642.77 701.63 640.97 691.13
  A 1.21 1.20 -16.7 0 1 641.68 689.82
  C 645.61 688.11 648.87 688.37 653.39 689.54
  Q 665.80 692.76 682.91 696.81
  C 699.30 700.70 716.15 703.08 733.12 703.50
  Q 745.03 703.80 750.28 703.90
  Q 762.17 704.12 777.98 700.55
  Q 784.25 699.13 788.72 694.17
  A 0.78 0.78 0.0 0 0 788.10 692.87
  Q 786.55 692.95 784.91 691.72
  Q 784.51 691.41 784.01 691.35
  C 777.57 690.54 770.85 693.39 762.20 696.14
  C 757.38 697.67 750.27 697.20 746.81 697.23
  Q 742.65 697.26 738.71 696.96
  Q 717.67 695.35 712.22 694.60
  C 693.15 691.97 669.43 685.75 647.15 680.00
  C 634.59 676.76 618.61 673.58 605.79 669.98
  C 591.24 665.89 567.76 657.83 548.39 653.88
  Q 536.38 651.44 524.75 652.45
  Q 519.15 652.94 514.10 655.74
  C 507.07 659.64 504.11 667.71 500.90 674.51
  Q 500.02 676.36 499.58 674.36
  C 497.07 662.81 489.68 652.59 478.06 648.56
  Q 472.92 646.78 465.77 646.13
  C 452.89 644.95 439.55 645.80 428.01 646.80
  Q 403.16 648.96 374.62 653.96
  C 371.03 654.58 365.60 655.03 361.10 655.94
  Q 351.58 657.89 351.44 657.91
  Q 281.38 670.07 270.00 672.02
  Q 248.73 675.66 218.93 678.44
  C 207.27 679.53 193.07 679.53 183.25 679.17
  Q 174.39 678.85 166.78 674.51
  C 163.39 672.58 161.71 670.13 160.83 666.66
  Q 160.24 664.30 159.73 666.67
  C 157.55 676.71 169.45 683.30 177.18 685.31
  Q 180.01 686.05 185.67 686.43
  Q 191.80 686.84 194.25 686.81
  Q 213.58 686.58 229.47 684.66
  C 241.79 683.18 260.17 680.86 275.46 678.19
  Q 294.42 674.88 331.27 668.31
  Q 334.31 667.77 337.23 667.62
  A 0.95 0.94 75.0 0 1 338.12 668.14
  C 340.34 672.54 339.08 676.18 338.09 682.84
  Q 337.47 687.08 337.31 691.70
  C 337.14 696.97 336.38 702.78 336.26 707.44
  Q 335.62 732.16 340.15 756.37
  C 341.85 765.44 346.64 786.97 358.12 788.69
  Q 368.21 790.20 374.61 781.52
  Q 381.69 771.93 384.52 760.01
  Q 388.36 743.82 388.28 729.04
  C 388.26 723.97 387.49 720.74 385.59 716.36
  Q 384.59 714.05 384.12 716.52
  Q 382.78 723.47 382.28 729.82
  C 381.15 743.91 378.45 759.11 371.86 772.14
  C 369.58 776.65 365.73 781.51 359.94 781.15
  A 1.06 1.06 0.0 0 1 359.14 779.48
  C 364.00 772.50 365.86 764.30 367.30 755.30
  Q 369.32 742.60 369.85 734.01
  Q 370.58 722.31 370.73 709.52
  A 1.24 1.24 0.0 0 1 371.64 708.34
  L 394.70 701.85
  A 1.42 1.41 74.1 0 1 396.45 702.83
  C 399.32 712.88 407.60 720.21 417.17 723.74
  C 424.28 726.36 433.70 726.22 442.44 726.06
  A 0.72 0.72 0.0 0 1 443.02 727.23
  Q 438.88 732.49 443.04 737.69
  C 448.20 744.16 458.95 747.34 467.00 747.80
  C 480.44 748.56 491.62 745.40 496.30 731.50
  A 0.36 0.36 0.0 0 1 496.94 731.41"
/>
<path stroke="#918f90" vector-effect="non-scaling-stroke" d="
  M 541.10 758.55
  C 540.92 762.21 540.88 765.91 541.08 769.75
  Q 541.29 773.89 540.02 783.05
  C 539.55 786.44 539.82 789.75 539.24 793.16
  Q 536.09 811.53 535.05 820.53
  Q 534.74 823.26 536.12 827.09
  Q 536.28 827.56 536.71 827.79
  Q 539.21 829.16 541.81 828.24
  A 2.06 2.05 -8.9 0 0 543.19 826.36
  Q 543.45 817.11 544.87 807.91
  C 545.63 802.93 545.83 799.25 546.46 794.91
  C 547.26 789.37 546.73 781.21 546.81 775.97
  Q 546.87 771.86 546.40 769.15
  C 545.74 765.37 545.16 760.96 542.51 758.04
  Q 541.19 756.59 541.10 758.55"
/>
<path stroke="#918f90" vector-effect="non-scaling-stroke" d="
  M 454.16 826.01
  C 454.62 829.95 454.44 832.65 455.97 834.81
  A 1.24 1.23 -41.0 0 0 457.88 834.94
  Q 460.01 832.70 460.16 829.50
  Q 460.63 819.36 460.49 806.26
  Q 460.30 787.16 455.45 769.88
  Q 454.57 766.75 451.70 761.88
  Q 449.63 758.35 445.76 759.87
  C 442.32 761.22 443.10 765.67 443.76 768.78
  Q 446.15 780.13 447.67 786.40
  C 450.91 799.79 452.52 812.00 454.16 826.01"
/>
<path stroke="#918f90" vector-effect="non-scaling-stroke" d="
  M 84.30 778.53
  Q 88.34 783.11 92.26 785.90
  C 110.72 799.07 132.65 806.79 154.29 810.42
  Q 170.20 813.09 177.25 813.18
  Q 194.34 813.41 199.99 813.11
  Q 233.50 811.30 254.31 808.04
  Q 276.52 804.57 302.14 800.42
  C 305.13 799.93 308.49 799.64 311.67 799.19
  C 316.26 798.53 322.16 798.35 327.36 796.86
  A 1.32 1.32 0.0 0 0 328.17 795.00
  Q 326.27 791.29 321.65 791.19
  Q 312.16 791.00 306.06 792.06
  C 277.55 796.99 255.25 800.71 228.98 803.55
  Q 211.60 805.43 197.57 805.81
  C 182.14 806.22 165.50 805.87 150.40 802.90
  Q 123.36 797.58 99.37 783.72
  C 93.86 780.54 89.41 778.49 83.98 776.52
  Q 82.60 776.02 83.38 777.40
  Q 83.52 777.65 84.30 778.53"
/>
<path stroke="#918f90" vector-effect="non-scaling-stroke" d="
  M 861.22 803.36
  Q 862.30 802.25 860.77 802.42
  Q 857.16 802.81 852.81 804.33
  Q 838.24 809.41 828.94 812.44
  Q 812.57 817.77 794.72 820.34
  Q 775.84 823.05 770.53 823.13
  Q 764.76 823.21 759.00 823.49
  C 750.58 823.90 745.23 823.54 737.02 823.26
  Q 731.11 823.06 726.57 822.48
  Q 694.51 818.36 671.83 813.41
  Q 647.54 808.11 629.48 805.05
  Q 623.93 804.10 618.78 804.97
  A 1.04 1.03 77.0 0 0 617.96 806.29
  C 619.40 811.10 624.50 812.36 629.29 813.37
  Q 629.50 813.42 687.61 825.32
  Q 721.76 832.31 757.80 831.65
  C 771.24 831.40 785.59 829.54 798.71 827.38
  Q 825.69 822.93 850.69 811.14
  Q 856.16 808.55 861.22 803.36"
/>
<path stroke="#918f90" vector-effect="non-scaling-stroke" d="
  M 159.55 848.50
  C 159.24 852.37 160.15 858.38 160.51 863.46
  A 2.43 2.43 0.0 0 0 163.25 865.70
  L 163.92 865.61
  Q 166.44 865.27 166.34 862.72
  C 165.94 853.43 167.27 843.49 168.49 836.25
  C 169.27 831.63 168.81 825.49 162.45 826.84
  Q 161.95 826.95 161.83 827.45
  C 160.27 834.33 160.11 841.39 159.55 848.50"
/>
<path stroke="#918f90" vector-effect="non-scaling-stroke" d="
  M 840.35 856.27
  C 839.97 853.92 840.81 851.40 840.49 849.17
  C 839.82 844.47 840.53 839.47 839.45 835.24
  Q 838.81 832.73 836.22 832.73
  L 834.23 832.73
  Q 831.87 832.73 832.03 835.09
  C 832.22 837.71 832.71 839.83 832.71 842.71
  Q 832.70 849.71 834.00 859.53
  C 834.60 864.06 835.94 868.15 836.73 873.28
  C 837.14 875.94 838.67 881.09 841.07 883.03
  A 0.71 0.71 0.0 0 0 842.22 882.55
  Q 842.43 880.69 842.17 879.13
  Q 841.05 872.30 841.03 866.26
  C 841.01 862.93 840.69 858.43 840.35 856.27"
/>
<path stroke="#918f90" vector-effect="non-scaling-stroke" d="
  M 388.85 301.01
  C 389.52 292.19 386.65 283.35 378.28 279.70
  C 373.14 277.46 367.92 281.02 365.68 285.44
  A 1.49 1.48 -42.8 0 0 365.63 286.66
  Q 372.85 304.56 376.21 324.09
  A 0.61 0.61 0.0 0 0 377.21 324.45
  C 382.47 319.82 388.02 312.39 388.52 305.36
  Q 388.58 304.54 388.85 301.01"
/>
<path stroke="#918f90" vector-effect="non-scaling-stroke" d="
  M 784.50 140.86
  Q 784.49 140.86 784.40 140.87
  L 784.39 140.88
  Q 784.39 140.89 784.39 140.91
  Q 784.39 140.93 784.42 140.93
  C 788.76 140.55 792.41 139.67 797.28 139.80
  Q 800.00 139.87 802.79 140.34
  C 824.50 143.97 843.30 159.51 851.54 179.46
  Q 852.17 180.98 852.27 182.57
  Q 852.34 183.69 853.42 183.39
  L 860.31 181.45
  Q 861.43 181.14 860.97 180.07
  Q 854.94 166.26 843.86 153.70
  Q 840.68 150.09 838.33 148.61
  Q 825.40 140.42 809.86 138.03
  Q 802.85 136.95 797.07 137.77
  Q 790.47 138.70 784.50 140.86"
/>
<path stroke="#7b7979" vector-effect="non-scaling-stroke" d="
  M 783.7240 141.1525
  A 0.84 0.16 -14.3 0 0 782.8705 141.2050
  A 0.84 0.16 -14.3 0 0 782.0960 141.5675
  A 0.84 0.16 -14.3 0 0 782.9495 141.5150
  A 0.84 0.16 -14.3 0 0 783.7240 141.1525"
/>
<path stroke="#918f90" vector-effect="non-scaling-stroke" d="
  M 917.35 217.38
  Q 925.22 236.79 923.88 258.76
  C 923.26 268.74 920.59 281.64 914.91 290.06
  Q 914.23 291.07 915.41 291.35
  L 919.49 292.32
  A 1.68 1.68 0.0 0 0 921.34 291.51
  C 926.55 282.11 929.01 271.62 929.31 261.00
  C 929.52 253.61 929.97 248.35 928.43 242.01
  C 926.34 233.42 922.65 224.64 917.51 217.30
  Q 917.06 216.67 917.35 217.38"
/>
<path stroke="#7b7979" vector-effect="non-scaling-stroke" d="
  M 837.80 343.75
  Q 840.04 356.17 836.84 367.59
  Q 835.98 370.67 835.33 372.94
  Q 835.19 373.42 835.68 373.50
  Q 841.48 374.46 843.29 374.61
  C 855.69 375.64 866.52 369.54 873.15 358.92
  Q 882.67 343.66 872.93 327.75
  C 870.71 324.13 867.11 320.16 862.56 321.11
  Q 856.35 322.40 848.58 322.69
  C 845.93 322.80 843.40 324.53 841.62 325.33
  Q 839.52 326.28 840.21 324.12
  L 840.61 322.83
  Q 840.83 322.16 840.13 322.12
  Q 829.39 321.46 818.83 315.99
  C 798.48 305.45 785.50 285.33 786.07 262.51
  Q 786.09 261.62 785.33 262.09
  C 778.19 266.44 772.17 267.25 761.57 269.34
  Q 749.02 271.81 735.84 269.68
  Q 714.82 266.26 703.16 249.88
  A 0.47 0.46 48.7 0 0 702.45 249.83
  C 699.26 253.14 695.19 254.71 689.99 256.82
  C 681.72 260.18 673.93 261.37 665.17 260.52
  Q 664.86 260.49 664.69 260.74
  Q 638.67 296.37 633.85 340.28
  C 630.11 374.36 638.30 413.56 669.90 432.56
  C 713.86 458.99 766.78 449.51 801.22 412.69
  Q 820.79 391.76 830.16 362.99
  Q 834.24 350.47 836.40 343.66
  Q 837.28 340.88 837.80 343.75"
/>
<path stroke="#918f90" vector-effect="non-scaling-stroke" d="
  M 570.84 310.97
  Q 571.67 310.52 570.72 310.55
  Q 567.84 310.63 564.68 311.88
  Q 545.96 319.25 539.74 338.27
  C 536.76 347.37 536.07 357.37 541.49 366.15
  Q 543.13 368.80 545.44 372.34
  Q 546.20 373.52 545.72 372.20
  Q 543.61 366.37 542.73 360.22
  Q 540.60 345.36 548.11 332.96
  Q 556.83 318.60 570.84 310.97"
/>
<path stroke="#7b7979" vector-effect="non-scaling-stroke" d="
  M 691.30 285.22
  C 697.25 285.61 699.21 290.62 702.97 293.28
  C 708.42 297.15 713.07 291.26 710.04 285.99
  C 705.00 277.21 692.03 275.38 683.62 278.10
  C 680.96 278.96 678.67 279.62 678.54 282.45
  Q 678.38 286.02 682.31 287.11
  Q 682.82 287.25 683.31 287.06
  Q 688.54 285.04 691.30 285.22"
/>
<path stroke="#7b7979" vector-effect="non-scaling-stroke" d="
  M 756.57 300.43
  C 757.85 301.65 760.53 304.46 762.49 304.48
  C 764.31 304.49 766.59 303.27 766.74 301.22
  C 766.96 298.20 764.95 296.02 762.57 294.15
  Q 752.81 286.46 740.27 287.87
  C 735.92 288.36 730.22 290.67 729.35 295.26
  C 728.68 298.78 731.19 301.54 734.76 301.46
  C 742.47 301.29 748.95 293.09 756.57 300.43"
/>
<path stroke="#7b7979" vector-effect="non-scaling-stroke" d="
  M 685.06 337.69
  A 0.42 0.42 0.0 0 1 685.37 338.38
  Q 680.91 343.57 673.46 349.19
  Q 669.68 352.04 670.12 356.31
  Q 670.17 356.82 670.68 356.89
  Q 673.41 357.24 674.82 356.31
  C 681.89 351.70 688.00 347.19 693.14 340.80
  Q 696.02 337.22 698.63 333.66
  C 702.69 328.12 708.25 317.18 705.49 310.20
  A 1.14 1.13 -2.1 0 0 704.76 309.53
  Q 702.07 308.72 699.65 309.34
  Q 698.71 309.58 698.60 310.54
  C 697.64 318.61 695.94 324.73 688.31 328.81
  Q 684.14 331.03 680.67 328.78
  C 675.65 325.52 678.06 316.49 679.09 311.23
  Q 679.76 307.84 676.26 307.03
  Q 676.14 307.00 676.12 307.00
  Q 672.49 306.48 671.66 309.68
  C 669.88 316.57 668.55 325.89 672.74 331.62
  Q 677.04 337.50 685.06 337.69"
/>
<path stroke="#7b7979" vector-effect="non-scaling-stroke" d="
  M 724.41 339.39
  C 719.42 336.73 721.40 327.44 722.89 322.70
  Q 724.03 319.04 720.28 317.77
  Q 720.17 317.74 720.12 317.72
  Q 716.40 316.64 715.04 320.38
  Q 712.80 326.54 712.98 332.97
  C 713.45 349.75 730.34 352.47 742.00 344.50
  Q 750.59 338.63 755.14 330.85
  Q 757.03 327.61 753.86 325.45
  Q 753.83 325.43 753.72 325.36
  Q 750.36 323.36 748.22 326.51
  C 743.70 333.14 733.26 344.12 724.41 339.39"
/>
<path stroke="#7b7979" vector-effect="non-scaling-stroke" d="
  M 705.44 389.30
  C 702.16 389.46 699.25 387.98 696.67 385.75
  C 691.07 380.93 685.62 387.83 690.65 392.36
  Q 697.57 398.59 705.87 398.19
  Q 714.17 397.79 720.45 390.92
  C 725.02 385.92 718.93 379.58 713.83 384.92
  C 711.47 387.38 708.72 389.14 705.44 389.30"
/>
<path stroke="#7b7979" vector-effect="non-scaling-stroke" d="
  M 482.39 515.45
  C 489.15 521.68 489.00 531.79 488.28 540.47
  C 487.80 546.20 484.69 553.62 482.44 560.41
  Q 481.04 564.62 475.78 573.39
  Q 475.34 574.12 475.32 574.61
  Q 475.30 575.39 476.12 575.76
  A 1.32 1.31 41.8 0 0 477.34 575.70
  Q 479.94 574.13 481.77 571.76
  Q 489.25 562.02 493.11 550.37
  Q 494.18 547.14 494.74 540.27
  Q 494.86 538.80 496.57 535.73
  A 1.78 1.75 -32.5 0 0 496.79 534.77
  Q 496.59 531.74 495.58 525.01
  Q 495.16 522.20 496.34 519.61
  Q 497.26 517.61 499.02 518.93
  C 503.92 522.61 504.72 534.21 504.15 539.99
  Q 503.19 549.82 498.62 559.53
  C 496.43 564.18 495.36 567.09 494.16 571.77
  Q 493.85 572.98 494.84 572.23
  Q 497.13 570.52 499.34 567.58
  C 508.86 555.00 512.63 538.52 511.07 523.12
  C 509.23 504.84 499.25 485.27 487.69 470.91
  Q 479.35 460.55 473.62 455.17
  Q 463.80 445.95 451.09 435.75
  Q 445.62 431.36 443.05 428.37
  A 2.04 2.04 0.0 0 0 440.43 427.97
  Q 435.94 430.77 431.64 433.65
  Q 430.06 434.70 425.97 439.26
  Q 420.85 444.96 423.78 450.33
  Q 424.98 452.52 429.59 455.98
  Q 436.58 461.23 441.86 466.46
  C 447.61 472.17 451.47 476.28 449.36 484.20
  C 446.45 495.14 444.79 503.39 446.06 513.99
  C 446.68 519.14 448.55 522.78 451.44 527.05
  Q 454.34 531.34 454.97 532.98
  C 457.93 540.62 454.81 552.22 450.53 559.05
  Q 446.18 566.00 445.78 566.79
  A 1.29 1.29 0.0 0 0 447.29 568.60
  L 448.96 568.13
  Q 451.38 567.45 452.76 565.35
  Q 458.82 556.19 463.33 545.87
  C 466.14 539.44 467.06 533.49 465.72 526.66
  C 464.79 521.90 464.18 519.71 464.44 515.73
  A 0.65 0.64 -68.2 0 1 465.50 515.27
  C 472.76 521.40 474.21 533.33 472.17 541.75
  Q 471.68 543.74 469.20 552.77
  C 467.39 559.33 462.14 566.57 457.81 572.56
  Q 455.99 575.07 455.35 577.19
  A 1.33 1.33 0.0 0 0 456.88 578.88
  Q 458.61 578.55 459.85 577.57
  C 468.77 570.58 472.40 561.82 477.42 550.70
  C 480.43 544.02 481.39 535.04 481.01 526.22
  Q 480.74 519.64 480.93 516.04
  A 0.87 0.87 0.0 0 1 482.39 515.45"
/>
<path stroke="#7b7979" vector-effect="non-scaling-stroke" d="
  M 675.9536 491.9110
  A 1.23 0.65 -39.9 0 0 674.5931 492.2013
  A 1.23 0.65 -39.9 0 0 674.0664 493.4890
  A 1.23 0.65 -39.9 0 0 675.4269 493.1987
  A 1.23 0.65 -39.9 0 0 675.9536 491.9110"
/>
<path stroke="#7b7979" vector-effect="non-scaling-stroke" d="
  M 662.6169 527.7727
  A 0.94 0.66 126.8 0 0 663.7085 527.4154
  A 0.94 0.66 126.8 0 0 663.7431 526.2673
  A 0.94 0.66 126.8 0 0 662.6515 526.6246
  A 0.94 0.66 126.8 0 0 662.6169 527.7727"
/>
<path stroke="#918f90" vector-effect="non-scaling-stroke" d="
  M 400.18 690.68
  C 401.34 693.54 401.92 697.48 403.45 700.45
  Q 412.03 717.09 431.64 717.11
  Q 441.35 717.13 457.06 717.13
  Q 460.50 717.13 466.68 718.34
  C 470.50 719.09 475.39 722.13 474.77 726.45
  C 473.96 732.16 467.87 733.02 463.00 732.50
  C 458.94 732.06 453.27 730.77 449.99 732.47
  A 0.74 0.73 -39.2 0 0 449.86 733.69
  C 455.93 738.68 465.84 740.51 473.35 740.00
  Q 477.86 739.70 482.53 737.25
  C 486.48 735.19 488.28 730.52 489.51 726.29
  Q 495.75 704.67 494.01 685.31
  Q 493.36 678.08 491.75 673.32
  C 487.76 661.51 480.10 654.98 467.89 653.63
  Q 456.95 652.43 444.74 652.96
  Q 427.93 653.70 417.26 655.05
  Q 382.14 659.50 360.63 663.48
  Q 357.78 664.01 356.53 665.56
  C 346.32 678.28 343.36 695.73 344.36 711.89
  Q 344.41 712.74 345.18 712.38
  C 350.35 709.94 355.13 708.42 360.68 705.85
  Q 374.18 699.62 388.84 696.14
  Q 389.53 695.98 395.29 693.95
  C 397.13 693.31 397.79 692.14 398.84 690.55
  A 0.76 0.76 0.0 0 1 400.18 690.68"
/>
<path stroke="#7b7979" vector-effect="non-scaling-stroke" d="
  M 600.57 700.25
  Q 601.35 702.83 600.92 707.10
  C 600.56 710.75 603.11 713.27 606.42 714.67
  C 615.87 718.64 621.26 722.61 630.74 728.62
  A 0.66 0.66 0.0 0 0 631.73 728.21
  Q 634.79 715.09 633.60 702.21
  C 633.26 698.56 630.06 684.02 625.64 683.32
  Q 615.42 681.70 607.07 679.23
  Q 589.01 673.89 563.22 666.07
  Q 552.45 662.80 540.59 660.67
  Q 533.31 659.36 526.18 660.29
  C 519.38 661.18 515.44 664.04 512.33 669.90
  C 507.18 679.62 504.94 690.65 503.75 701.82
  C 502.75 711.19 502.63 720.50 504.91 729.17
  C 506.28 734.38 509.52 736.49 514.60 737.22
  C 521.75 738.26 533.17 737.87 539.24 733.44
  A 0.90 0.90 0.0 0 0 538.96 731.85
  Q 530.62 729.45 529.88 729.15
  C 526.00 727.58 524.44 723.61 528.24 720.71
  Q 531.21 718.44 536.26 718.90
  Q 540.88 719.32 554.03 721.19
  C 565.48 722.82 574.64 720.50 585.39 715.13
  C 589.52 713.07 592.24 709.67 594.76 704.93
  Q 596.37 701.91 598.57 699.75
  A 1.21 1.20 -30.8 0 1 600.57 700.25"
/>
</g>
<path fill="#ffffff" d="
  M 523.38 0.00
  Q 540.43 0.74 557.45 1.88
  Q 559.82 2.04 562.04 2.41
  C 565.66 3.02 568.31 2.74 571.81 3.47
  Q 574.52 4.04 577.00 4.04
  C 578.97 4.04 580.84 4.82 582.95 5.03
  Q 586.95 5.45 587.03 5.46
  Q 607.56 8.59 628.75 13.56
  Q 713.30 33.36 785.46 79.19
  Q 857.18 124.74 909.79 189.75
  Q 957.61 248.86 986.27 319.13
  Q 1009.05 374.98 1018.29 436.00
  Q 1018.91 440.12 1018.92 440.17
  Q 1019.33 443.88 1019.46 444.31
  C 1020.25 446.91 1019.88 450.02 1020.56 452.87
  Q 1021.10 455.16 1021.12 458.48
  C 1021.13 460.41 1021.70 462.73 1021.85 464.50
  Q 1023.35 483.09 1024.00 501.74
  L 1024.00 521.65
  Q 1023.33 545.39 1020.93 569.00
  C 1019.86 579.43 1018.04 590.42 1016.23 600.76
  Q 1010.54 633.21 1000.59 664.86
  Q 1000.14 666.31 1000.52 667.00
  Q 1022.44 707.23 1024.00 753.24
  L 1024.00 763.12
  C 1022.28 807.83 1006.16 849.89 976.62 883.17
  Q 948.75 914.58 910.79 931.10
  Q 853.62 955.98 792.17 942.03
  Q 790.54 941.66 789.57 942.27
  Q 759.30 961.45 731.24 974.69
  Q 721.65 979.21 711.78 983.43
  Q 629.82 1018.41 537.98 1023.18
  Q 530.75 1023.56 523.51 1024.00
  L 500.62 1024.00
  Q 472.83 1023.14 463.25 1021.80
  Q 458.10 1021.08 457.75 1021.09
  Q 454.95 1021.11 452.31 1020.44
  C 449.98 1019.85 447.26 1020.21 444.69 1019.53
  C 441.84 1018.77 439.20 1019.05 436.61 1018.40
  Q 436.41 1018.35 430.50 1017.41
  Q 397.08 1012.12 364.55 1002.31
  Q 267.71 973.13 189.14 909.24
  Q 104.95 840.78 55.38 743.55
  C 30.36 694.47 13.50 641.04 5.41 586.23
  C 5.06 583.84 5.19 581.94 4.60 579.97
  C 3.77 577.20 4.17 574.09 3.49 571.27
  Q 2.93 568.97 2.84 565.43
  C 2.78 563.40 2.29 561.33 2.17 559.75
  Q 0.65 541.03 0.00 522.26
  L 0.00 501.87
  Q 0.96 473.92 2.11 464.79
  Q 2.82 459.20 2.91 457.58
  C 3.09 454.20 4.06 451.13 4.00 448.28
  C 3.96 445.95 4.83 443.72 5.06 441.23
  Q 5.25 439.00 5.34 438.39
  Q 16.97 358.71 52.25 286.76
  Q 89.36 211.09 148.64 151.41
  C 216.26 83.32 301.58 35.28 395.08 13.60
  Q 419.98 7.82 430.51 6.50
  C 434.39 6.01 436.75 5.36 440.18 5.08
  Q 442.67 4.88 443.59 4.60
  C 446.37 3.77 449.05 4.13 451.79 3.55
  C 455.52 2.77 458.74 3.03 462.59 2.31
  Q 464.08 2.03 466.93 1.85
  Q 483.69 0.75 500.49 0.00
  L 523.38 0.00
  Z
  M 423.37 269.08
  C 423.15 275.61 418.97 285.65 413.14 289.39
  Q 410.31 291.22 406.07 293.75
  Q 403.99 294.99 405.74 296.28
  Q 405.89 296.39 407.33 296.40
  C 416.32 296.44 423.45 288.41 426.83 280.82
  Q 434.10 264.47 428.49 246.32
  Q 422.30 226.26 400.65 227.42
  A 0.65 0.65 0.0 0 1 400.02 226.50
  Q 411.32 201.73 399.36 180.04
  C 392.19 167.01 380.07 158.30 365.64 153.68
  Q 346.13 147.44 330.45 159.38
  Q 329.80 159.87 329.49 159.12
  Q 317.90 130.68 289.26 120.38
  C 272.63 114.39 255.29 113.37 239.09 120.75
  Q 209.42 134.29 201.95 164.94
  Q 201.72 165.91 201.62 168.20
  Q 201.59 168.99 200.84 168.71
  Q 191.37 165.13 181.34 163.42
  Q 176.77 162.65 166.68 162.81
  Q 158.55 162.94 152.27 164.83
  C 138.31 169.05 124.85 177.06 117.10 188.84
  Q 109.01 201.13 105.61 217.67
  Q 102.60 232.26 105.83 246.00
  Q 107.10 251.37 110.15 256.51
  A 0.27 0.26 71.9 0 1 109.95 256.91
  C 95.90 258.39 82.75 268.39 74.39 279.90
  Q 68.24 288.38 66.26 299.62
  C 64.41 310.14 65.51 318.65 68.07 329.50
  C 71.44 343.76 79.98 355.28 94.66 359.86
  C 98.12 360.94 100.74 359.70 104.16 358.63
  Q 105.78 358.12 104.19 357.53
  Q 100.31 356.09 95.89 354.20
  C 86.36 350.12 79.56 342.38 76.33 332.48
  Q 75.85 331.03 76.96 332.08
  Q 79.42 334.42 82.01 336.91
  Q 88.46 343.10 97.64 346.56
  C 103.22 348.66 108.03 348.86 113.69 348.13
  A 0.59 0.57 87.1 0 1 114.34 348.73
  C 113.90 365.86 123.95 381.39 141.65 383.92
  Q 144.71 384.36 148.91 384.20
  C 156.82 383.91 163.19 381.67 169.22 376.58
  Q 171.58 374.58 168.67 375.65
  C 155.26 380.57 134.34 381.15 126.08 366.46
  Q 121.71 358.69 121.98 349.86
  Q 122.08 346.61 122.29 345.61
  Q 123.80 338.57 128.79 334.17
  Q 133.45 330.08 140.24 329.51
  Q 152.67 328.45 158.13 341.38
  C 162.32 351.31 168.31 361.18 181.14 355.96
  C 187.04 353.56 188.63 345.33 187.75 339.75
  C 186.17 329.74 182.47 319.96 178.78 310.75
  A 1.09 1.09 0.0 0 1 179.34 309.34
  Q 185.59 306.52 191.10 303.85
  Q 207.41 295.96 211.78 279.27
  Q 211.94 278.65 212.56 278.82
  Q 227.52 282.86 240.55 278.01
  C 252.54 273.55 264.01 264.65 270.99 253.30
  C 272.66 250.58 273.79 247.16 274.96 244.42
  Q 275.22 243.83 275.67 244.29
  Q 283.08 251.88 294.23 257.96
  Q 300.05 261.14 310.27 264.23
  Q 323.66 268.29 326.88 268.86
  Q 337.86 270.82 349.59 270.07
  Q 350.13 270.04 350.34 270.53
  Q 356.11 284.31 360.23 296.04
  Q 367.64 317.13 369.92 339.53
  Q 370.69 347.05 370.24 364.81
  C 370.05 372.07 368.69 380.25 367.37 386.39
  C 361.21 414.89 344.03 438.32 315.84 448.29
  Q 293.75 456.09 272.54 453.03
  Q 248.70 449.58 227.10 435.34
  C 216.40 428.28 205.69 419.06 198.30 409.17
  Q 187.97 395.33 183.61 388.77
  Q 181.61 385.76 182.34 389.30
  C 185.88 406.45 196.97 421.82 210.31 433.21
  Q 211.95 434.61 212.98 435.68
  Q 213.29 436.00 212.85 436.11
  Q 205.17 438.01 196.50 444.75
  Q 183.00 455.25 173.71 464.21
  C 144.90 492.03 119.03 521.78 97.53 555.00
  Q 93.41 561.37 87.07 572.04
  Q 65.21 608.80 54.58 650.06
  Q 50.06 667.59 48.58 682.53
  Q 45.75 711.11 54.53 738.78
  Q 55.73 742.57 58.36 748.02
  Q 61.50 754.55 63.22 756.53
  Q 67.21 761.12 70.95 766.13
  Q 71.05 766.26 71.17 766.30
  Q 71.29 766.34 71.43 766.30
  Q 71.72 766.20 71.61 765.92
  Q 68.10 757.54 62.95 741.86
  Q 54.70 716.75 55.79 692.09
  Q 57.08 663.05 67.99 632.48
  Q 82.37 592.23 105.46 557.96
  Q 131.81 518.85 163.06 486.32
  Q 173.53 475.41 184.04 466.55
  Q 191.45 460.31 196.84 457.37
  Q 212.01 449.13 228.38 454.19
  C 239.80 457.72 252.72 462.70 265.25 465.25
  C 295.24 471.35 323.47 465.09 344.92 442.17
  Q 349.77 436.99 351.71 434.75
  A 1.63 1.63 0.0 0 1 353.55 434.30
  Q 369.38 440.53 383.85 451.60
  Q 384.45 452.06 385.94 452.41
  A 1.43 1.42 -84.3 0 0 387.68 450.98
  Q 387.62 448.99 386.24 447.34
  C 378.83 438.43 370.38 430.63 359.47 426.96
  A 0.70 0.70 0.0 0 1 359.12 425.90
  C 370.39 409.79 376.47 391.25 378.07 372.17
  Q 379.86 350.80 377.16 330.22
  A 1.30 1.29 73.2 0 1 377.87 328.89
  C 390.90 322.36 398.15 306.33 396.22 292.18
  A 0.95 0.95 0.0 0 1 396.80 291.17
  C 406.28 287.40 415.66 281.89 421.01 272.17
  Q 422.01 270.35 422.98 268.95
  Q 423.40 268.34 423.37 269.08
  Z
  M 999.17 533.21
  Q 998.77 531.55 999.85 532.90
  C 1015.75 552.72 1014.03 581.00 1000.62 601.86
  Q 986.63 623.63 962.26 632.01
  Q 946.36 637.49 931.38 640.07
  C 926.98 640.83 923.55 642.17 919.98 644.19
  A 0.83 0.82 -49.7 0 0 920.10 645.68
  Q 921.04 646.03 922.75 646.05
  C 928.54 646.11 933.18 646.20 938.97 645.29
  Q 955.63 642.67 970.35 636.60
  Q 985.63 630.30 994.46 622.22
  Q 1018.66 600.06 1020.36 568.26
  Q 1020.92 557.86 1018.38 548.49
  Q 1012.70 527.52 995.19 513.65
  A 0.55 0.55 0.0 0 1 995.07 512.93
  Q 1000.52 504.32 1002.97 493.51
  Q 1009.08 466.51 996.46 442.36
  C 988.50 427.13 973.75 417.19 957.47 412.86
  Q 957.08 412.76 957.28 412.41
  C 959.24 409.12 961.62 405.90 963.32 402.64
  Q 971.12 387.69 972.61 371.84
  C 973.01 367.59 973.64 361.38 973.08 356.39
  Q 970.65 334.96 959.98 319.22
  Q 947.05 300.16 924.41 293.30
  Q 923.47 293.02 924.13 292.29
  Q 929.74 286.11 932.23 279.02
  Q 937.47 264.12 936.37 246.81
  C 935.70 236.25 932.92 227.30 928.67 218.06
  Q 925.63 211.42 921.57 206.52
  Q 917.77 201.93 917.45 201.50
  Q 915.10 198.35 912.41 196.15
  Q 906.27 191.13 903.14 189.38
  Q 885.32 179.45 865.21 180.86
  Q 864.52 180.91 864.54 180.21
  Q 864.74 172.43 862.40 166.90
  C 856.86 153.78 846.85 141.46 833.71 135.14
  Q 819.35 128.23 803.50 127.58
  C 786.18 126.87 770.74 133.05 758.11 144.79
  C 755.84 146.90 753.74 149.83 752.02 152.02
  Q 751.65 152.49 751.11 152.23
  Q 721.92 138.44 691.49 146.24
  Q 675.07 150.45 662.87 161.84
  Q 658.20 166.20 651.73 174.48
  Q 637.73 192.38 639.51 214.69
  Q 639.56 215.24 639.01 215.26
  C 634.74 215.41 630.33 215.18 625.87 215.93
  C 615.31 217.71 605.20 221.09 596.57 227.49
  Q 569.75 247.39 571.22 282.49
  Q 571.57 290.87 575.04 298.89
  A 0.51 0.50 -13.0 0 1 574.60 299.59
  Q 571.00 299.83 564.73 301.94
  C 547.32 307.78 534.88 321.23 531.41 339.06
  C 529.94 346.63 529.40 353.16 531.28 359.78
  A 1.39 1.39 0.0 0 1 530.38 361.48
  Q 511.24 367.82 505.60 386.71
  C 504.33 390.95 503.13 398.88 506.51 401.95
  A 1.44 1.44 0.0 0 0 508.86 401.31
  C 509.87 398.01 510.25 393.86 511.01 391.13
  C 513.98 380.44 523.10 372.23 533.88 368.77
  A 1.70 1.70 0.0 0 1 535.73 369.33
  L 538.72 373.13
  Q 539.14 373.67 538.51 373.95
  Q 536.62 374.78 534.34 375.51
  C 522.75 379.22 516.32 391.13 516.32 402.82
  C 516.31 409.80 519.35 414.64 524.25 419.23
  Q 525.58 420.47 523.76 420.48
  Q 518.33 420.51 514.49 420.54
  C 510.74 420.58 508.32 421.53 505.52 423.34
  A 0.76 0.75 43.8 0 0 505.55 424.62
  C 513.13 429.14 525.30 427.23 534.18 426.93
  Q 553.94 426.25 556.63 425.94
  Q 580.37 423.19 587.23 422.66
  Q 597.89 421.83 608.51 420.60
  C 625.85 418.60 638.01 422.43 650.37 434.91
  Q 655.73 440.33 659.18 442.98
  C 674.49 454.73 691.90 460.27 711.18 460.35
  C 721.68 460.40 730.50 459.35 741.01 457.97
  Q 752.59 456.46 759.08 456.53
  Q 770.45 456.65 781.57 459.53
  Q 785.07 460.44 786.88 461.79
  C 795.48 468.18 804.51 477.85 810.85 484.31
  C 824.55 498.25 836.21 514.34 847.29 531.95
  Q 871.80 570.91 885.63 612.71
  Q 893.52 636.56 897.61 662.51
  Q 902.30 692.27 896.94 724.23
  Q 893.51 744.70 885.75 762.05
  Q 880.61 773.53 876.85 784.42
  Q 876.51 785.41 876.83 786.25
  A 0.37 0.37 0.0 0 0 877.44 786.38
  Q 888.32 775.00 894.33 760.86
  Q 902.48 741.69 905.13 720.93
  Q 906.68 708.70 906.89 704.38
  Q 907.13 699.43 907.00 682.71
  C 906.95 675.90 905.95 669.25 905.27 662.00
  Q 904.63 655.21 900.71 636.33
  Q 900.41 634.85 900.41 633.80
  A 0.85 0.84 -85.6 0 1 901.38 632.96
  C 911.09 634.48 922.13 633.20 930.59 632.06
  C 950.27 629.41 970.14 621.66 984.63 608.88
  C 1004.43 591.42 1007.38 564.91 1001.07 540.57
  Q 999.23 533.46 999.17 533.21
  Z
  M 305.17 344.36
  C 307.36 344.59 309.64 345.33 311.81 345.34
  Q 326.86 345.37 327.49 329.77
  Q 327.75 323.32 325.73 316.83
  Q 324.70 313.52 321.19 314.21
  Q 321.18 314.22 321.05 314.25
  Q 317.58 315.08 318.44 318.50
  C 319.96 324.56 322.63 336.56 314.00 337.60
  C 305.44 338.63 299.21 331.94 297.29 324.07
  C 295.43 316.43 293.96 308.08 298.01 301.10
  C 301.29 295.44 309.44 293.90 315.52 294.31
  C 317.86 294.46 322.39 296.00 325.48 295.65
  C 328.20 295.35 331.66 293.57 330.80 290.30
  C 330.22 288.11 326.82 286.32 324.84 285.66
  Q 317.06 283.10 308.48 285.22
  Q 292.34 289.21 288.67 305.97
  Q 288.21 308.09 288.52 313.87
  Q 288.53 314.01 288.63 320.91
  Q 288.67 324.07 289.33 327.76
  C 290.92 336.57 287.80 344.88 277.11 343.62
  Q 265.47 342.24 259.46 331.14
  Q 257.85 328.16 254.82 329.56
  L 254.54 329.72
  Q 251.67 331.29 252.92 334.32
  C 257.62 345.73 269.64 352.21 281.83 350.88
  C 287.66 350.25 292.05 347.66 294.95 342.73
  A 0.84 0.84 0.0 0 1 296.46 342.84
  C 300.15 351.98 306.84 363.11 316.69 366.65
  A 0.40 0.40 0.0 0 0 317.19 366.11
  C 314.96 361.02 311.38 356.37 307.11 349.89
  Q 307.05 349.80 304.77 344.92
  Q 304.48 344.29 305.17 344.36
  Z
  M 257.05 303.52
  C 261.75 303.81 266.36 305.06 271.38 304.47
  C 273.34 304.25 274.02 303.15 274.43 301.41
  C 275.62 296.35 270.89 293.70 266.52 293.58
  Q 252.42 293.19 242.78 303.01
  Q 239.03 306.83 237.43 310.10
  A 2.29 2.29 0.0 0 0 238.34 313.10
  C 240.51 314.36 242.27 313.22 243.91 311.41
  C 247.23 307.74 252.50 303.23 257.05 303.52
  Z
  M 279.92 395.49
  C 276.73 393.14 277.26 387.85 273.51 387.53
  Q 271.26 387.33 269.60 389.46
  C 267.11 392.66 271.81 399.45 274.05 401.21
  Q 283.56 408.70 296.01 406.46
  Q 299.51 405.83 302.19 404.13
  C 306.53 401.38 303.27 394.60 297.65 397.32
  C 292.61 399.76 284.77 399.07 279.92 395.49
  Z
  M 521.99 465.63
  Q 520.29 457.90 515.24 452.00
  Q 505.89 441.07 496.86 432.35
  C 490.89 426.59 487.53 423.36 481.73 419.74
  Q 457.70 404.76 431.86 396.77
  Q 422.47 393.88 414.84 392.75
  Q 410.07 392.04 406.77 392.79
  Q 406.26 392.90 406.02 393.36
  C 404.06 397.02 408.13 399.17 411.18 399.68
  Q 431.75 403.07 452.31 412.64
  C 467.56 419.73 481.40 426.47 493.05 438.50
  Q 505.49 451.35 515.09 462.95
  Q 517.00 465.27 521.23 467.53
  A 0.65 0.64 14.8 0 0 522.18 466.98
  Q 522.19 466.53 521.99 465.63
  Z
  M 447.21 424.30
  Q 449.56 422.98 451.28 422.50
  Q 453.04 422.01 451.31 421.44
  Q 444.69 419.22 437.26 422.02
  Q 427.45 425.73 419.90 433.19
  Q 399.30 453.58 399.06 483.81
  C 398.92 500.00 409.90 521.48 427.30 524.70
  Q 430.42 525.27 433.13 523.96
  A 2.22 2.22 0.0 0 0 434.21 521.09
  C 433.34 519.05 431.82 518.37 429.58 517.86
  Q 421.20 515.97 415.69 509.24
  A 0.51 0.51 0.0 0 1 416.03 508.41
  Q 416.57 508.35 418.68 508.02
  C 429.02 506.40 436.74 487.11 439.48 478.50
  Q 440.84 474.21 442.16 478.50
  C 443.41 482.58 439.40 491.62 438.54 499.18
  C 438.04 503.55 437.43 507.39 437.91 511.83
  Q 438.50 517.21 438.89 518.89
  C 440.23 524.49 442.61 528.31 445.91 533.36
  Q 446.72 534.59 447.31 536.01
  Q 448.20 538.20 448.10 539.01
  Q 446.91 548.78 442.03 557.27
  Q 437.21 565.67 436.47 567.01
  C 434.43 570.75 432.93 574.76 436.67 577.64
  C 439.12 579.53 442.64 579.22 446.07 578.87
  A 0.70 0.70 0.0 0 1 446.84 579.59
  Q 446.71 582.85 449.01 585.40
  Q 450.78 587.37 454.11 587.57
  C 457.93 587.80 462.40 585.86 465.33 582.93
  Q 465.96 582.29 466.61 582.92
  C 473.31 589.36 481.16 584.95 485.69 578.95
  A 0.69 0.69 0.0 0 1 486.82 578.99
  C 487.61 580.23 488.19 581.35 489.75 581.66
  C 500.71 583.83 510.79 565.54 513.82 557.33
  Q 517.40 547.63 518.58 533.63
  Q 518.87 530.17 518.30 524.95
  Q 517.52 517.70 517.25 516.29
  Q 514.68 502.94 508.35 490.99
  Q 499.20 473.74 487.64 460.41
  Q 482.14 454.07 473.53 446.36
  Q 462.86 436.80 454.10 430.22
  Q 451.10 427.97 447.23 425.89
  A 0.91 0.91 0.0 0 1 447.21 424.30
  Z
  M 676.8731 499.6458
  A 8.38 7.88 81.4 0 0 683.4114 490.1817
  A 8.38 7.88 81.4 0 0 674.3669 483.0742
  A 8.38 7.88 81.4 0 0 667.8286 492.5383
  A 8.38 7.88 81.4 0 0 676.8731 499.6458
  Z
  M 283.25 504.80
  Q 276.50 504.13 265.53 502.54
  Q 260.49 501.81 255.62 502.55
  Q 254.49 502.72 254.40 503.49
  A 0.97 0.97 0.0 0 0 254.93 504.46
  C 261.76 507.89 267.94 508.43 276.94 509.76
  C 291.46 511.89 306.52 510.80 320.65 507.31
  Q 333.02 504.26 344.14 497.39
  C 346.60 495.87 352.57 491.81 352.92 488.55
  Q 352.98 488.03 352.64 487.63
  Q 350.13 484.67 346.89 486.87
  Q 345.60 487.75 341.87 490.62
  Q 336.26 494.97 328.19 497.93
  Q 312.93 503.53 297.40 504.53
  C 293.31 504.79 287.86 505.26 283.25 504.80
  Z
  M 663.9466 534.8437
  A 9.37 8.76 92.1 0 0 673.0441 525.8010
  A 9.37 8.76 92.1 0 0 664.6334 516.1163
  A 9.37 8.76 92.1 0 0 655.5359 525.1590
  A 9.37 8.76 92.1 0 0 663.9466 534.8437
  Z
  M 523.08 594.19
  Q 526.17 602.05 527.55 610.49
  Q 528.37 615.49 528.95 628.09
  C 529.06 630.46 529.67 632.82 530.33 635.08
  Q 531.00 637.37 533.38 637.37
  L 535.70 637.37
  Q 538.28 637.37 537.79 634.84
  Q 536.69 629.16 535.49 617.24
  Q 534.47 607.11 527.87 592.95
  Q 526.75 590.53 523.84 586.77
  Q 521.91 584.27 518.80 584.20
  A 0.61 0.61 0.0 0 0 518.21 585.02
  C 519.33 588.07 521.85 591.07 523.08 594.19
  Z
  M 496.94 731.41
  Q 497.91 732.80 498.82 735.11
  C 500.76 740.11 506.74 743.50 511.60 744.37
  Q 526.74 747.06 541.14 741.60
  Q 545.15 740.08 547.84 737.59
  C 550.94 734.71 550.79 732.42 550.55 728.65
  A 0.34 0.33 2.8 0 1 550.95 728.30
  C 557.14 729.32 565.99 729.44 571.68 728.17
  C 580.28 726.26 589.24 722.38 595.70 716.81
  A 1.39 1.39 0.0 0 1 597.32 716.66
  L 608.75 723.25
  A 1.63 1.63 0.0 0 1 609.53 724.93
  Q 606.13 744.92 604.80 760.51
  C 603.90 771.02 603.09 778.15 604.64 786.11
  Q 604.89 787.40 603.79 788.12
  C 601.68 789.48 597.92 791.77 595.93 788.76
  Q 594.52 786.65 594.49 784.09
  Q 594.38 773.01 595.42 764.02
  Q 598.12 740.70 598.21 739.39
  Q 598.53 734.56 597.60 729.36
  Q 597.48 728.71 597.13 728.29
  A 0.50 0.49 -51.7 0 0 596.30 728.39
  Q 593.28 734.73 591.82 741.58
  Q 588.25 758.31 587.02 775.57
  Q 586.80 778.75 586.91 781.44
  C 587.23 788.91 588.63 796.26 597.06 797.41
  C 605.02 798.51 612.02 792.18 616.41 785.88
  Q 626.30 771.69 632.32 755.87
  Q 640.16 735.25 641.94 712.31
  Q 642.77 701.63 640.97 691.13
  A 1.21 1.20 -16.7 0 1 641.68 689.82
  C 645.61 688.11 648.87 688.37 653.39 689.54
  Q 665.80 692.76 682.91 696.81
  C 699.30 700.70 716.15 703.08 733.12 703.50
  Q 745.03 703.80 750.28 703.90
  Q 762.17 704.12 777.98 700.55
  Q 784.25 699.13 788.72 694.17
  A 0.78 0.78 0.0 0 0 788.10 692.87
  Q 786.55 692.95 784.91 691.72
  Q 784.51 691.41 784.01 691.35
  C 777.57 690.54 770.85 693.39 762.20 696.14
  C 757.38 697.67 750.27 697.20 746.81 697.23
  Q 742.65 697.26 738.71 696.96
  Q 717.67 695.35 712.22 694.60
  C 693.15 691.97 669.43 685.75 647.15 680.00
  C 634.59 676.76 618.61 673.58 605.79 669.98
  C 591.24 665.89 567.76 657.83 548.39 653.88
  Q 536.38 651.44 524.75 652.45
  Q 519.15 652.94 514.10 655.74
  C 507.07 659.64 504.11 667.71 500.90 674.51
  Q 500.02 676.36 499.58 674.36
  C 497.07 662.81 489.68 652.59 478.06 648.56
  Q 472.92 646.78 465.77 646.13
  C 452.89 644.95 439.55 645.80 428.01 646.80
  Q 403.16 648.96 374.62 653.96
  C 371.03 654.58 365.60 655.03 361.10 655.94
  Q 351.58 657.89 351.44 657.91
  Q 281.38 670.07 270.00 672.02
  Q 248.73 675.66 218.93 678.44
  C 207.27 679.53 193.07 679.53 183.25 679.17
  Q 174.39 678.85 166.78 674.51
  C 163.39 672.58 161.71 670.13 160.83 666.66
  Q 160.24 664.30 159.73 666.67
  C 157.55 676.71 169.45 683.30 177.18 685.31
  Q 180.01 686.05 185.67 686.43
  Q 191.80 686.84 194.25 686.81
  Q 213.58 686.58 229.47 684.66
  C 241.79 683.18 260.17 680.86 275.46 678.19
  Q 294.42 674.88 331.27 668.31
  Q 334.31 667.77 337.23 667.62
  A 0.95 0.94 75.0 0 1 338.12 668.14
  C 340.34 672.54 339.08 676.18 338.09 682.84
  Q 337.47 687.08 337.31 691.70
  C 337.14 696.97 336.38 702.78 336.26 707.44
  Q 335.62 732.16 340.15 756.37
  C 341.85 765.44 346.64 786.97 358.12 788.69
  Q 368.21 790.20 374.61 781.52
  Q 381.69 771.93 384.52 760.01
  Q 388.36 743.82 388.28 729.04
  C 388.26 723.97 387.49 720.74 385.59 716.36
  Q 384.59 714.05 384.12 716.52
  Q 382.78 723.47 382.28 729.82
  C 381.15 743.91 378.45 759.11 371.86 772.14
  C 369.58 776.65 365.73 781.51 359.94 781.15
  A 1.06 1.06 0.0 0 1 359.14 779.48
  C 364.00 772.50 365.86 764.30 367.30 755.30
  Q 369.32 742.60 369.85 734.01
  Q 370.58 722.31 370.73 709.52
  A 1.24 1.24 0.0 0 1 371.64 708.34
  L 394.70 701.85
  A 1.42 1.41 74.1 0 1 396.45 702.83
  C 399.32 712.88 407.60 720.21 417.17 723.74
  C 424.28 726.36 433.70 726.22 442.44 726.06
  A 0.72 0.72 0.0 0 1 443.02 727.23
  Q 438.88 732.49 443.04 737.69
  C 448.20 744.16 458.95 747.34 467.00 747.80
  C 480.44 748.56 491.62 745.40 496.30 731.50
  A 0.36 0.36 0.0 0 1 496.94 731.41
  Z
  M 541.10 758.55
  C 540.92 762.21 540.88 765.91 541.08 769.75
  Q 541.29 773.89 540.02 783.05
  C 539.55 786.44 539.82 789.75 539.24 793.16
  Q 536.09 811.53 535.05 820.53
  Q 534.74 823.26 536.12 827.09
  Q 536.28 827.56 536.71 827.79
  Q 539.21 829.16 541.81 828.24
  A 2.06 2.05 -8.9 0 0 543.19 826.36
  Q 543.45 817.11 544.87 807.91
  C 545.63 802.93 545.83 799.25 546.46 794.91
  C 547.26 789.37 546.73 781.21 546.81 775.97
  Q 546.87 771.86 546.40 769.15
  C 545.74 765.37 545.16 760.96 542.51 758.04
  Q 541.19 756.59 541.10 758.55
  Z
  M 454.16 826.01
  C 454.62 829.95 454.44 832.65 455.97 834.81
  A 1.24 1.23 -41.0 0 0 457.88 834.94
  Q 460.01 832.70 460.16 829.50
  Q 460.63 819.36 460.49 806.26
  Q 460.30 787.16 455.45 769.88
  Q 454.57 766.75 451.70 761.88
  Q 449.63 758.35 445.76 759.87
  C 442.32 761.22 443.10 765.67 443.76 768.78
  Q 446.15 780.13 447.67 786.40
  C 450.91 799.79 452.52 812.00 454.16 826.01
  Z
  M 84.30 778.53
  Q 88.34 783.11 92.26 785.90
  C 110.72 799.07 132.65 806.79 154.29 810.42
  Q 170.20 813.09 177.25 813.18
  Q 194.34 813.41 199.99 813.11
  Q 233.50 811.30 254.31 808.04
  Q 276.52 804.57 302.14 800.42
  C 305.13 799.93 308.49 799.64 311.67 799.19
  C 316.26 798.53 322.16 798.35 327.36 796.86
  A 1.32 1.32 0.0 0 0 328.17 795.00
  Q 326.27 791.29 321.65 791.19
  Q 312.16 791.00 306.06 792.06
  C 277.55 796.99 255.25 800.71 228.98 803.55
  Q 211.60 805.43 197.57 805.81
  C 182.14 806.22 165.50 805.87 150.40 802.90
  Q 123.36 797.58 99.37 783.72
  C 93.86 780.54 89.41 778.49 83.98 776.52
  Q 82.60 776.02 83.38 777.40
  Q 83.52 777.65 84.30 778.53
  Z
  M 861.22 803.36
  Q 862.30 802.25 860.77 802.42
  Q 857.16 802.81 852.81 804.33
  Q 838.24 809.41 828.94 812.44
  Q 812.57 817.77 794.72 820.34
  Q 775.84 823.05 770.53 823.13
  Q 764.76 823.21 759.00 823.49
  C 750.58 823.90 745.23 823.54 737.02 823.26
  Q 731.11 823.06 726.57 822.48
  Q 694.51 818.36 671.83 813.41
  Q 647.54 808.11 629.48 805.05
  Q 623.93 804.10 618.78 804.97
  A 1.04 1.03 77.0 0 0 617.96 806.29
  C 619.40 811.10 624.50 812.36 629.29 813.37
  Q 629.50 813.42 687.61 825.32
  Q 721.76 832.31 757.80 831.65
  C 771.24 831.40 785.59 829.54 798.71 827.38
  Q 825.69 822.93 850.69 811.14
  Q 856.16 808.55 861.22 803.36
  Z
  M 159.55 848.50
  C 159.24 852.37 160.15 858.38 160.51 863.46
  A 2.43 2.43 0.0 0 0 163.25 865.70
  L 163.92 865.61
  Q 166.44 865.27 166.34 862.72
  C 165.94 853.43 167.27 843.49 168.49 836.25
  C 169.27 831.63 168.81 825.49 162.45 826.84
  Q 161.95 826.95 161.83 827.45
  C 160.27 834.33 160.11 841.39 159.55 848.50
  Z
  M 840.35 856.27
  C 839.97 853.92 840.81 851.40 840.49 849.17
  C 839.82 844.47 840.53 839.47 839.45 835.24
  Q 838.81 832.73 836.22 832.73
  L 834.23 832.73
  Q 831.87 832.73 832.03 835.09
  C 832.22 837.71 832.71 839.83 832.71 842.71
  Q 832.70 849.71 834.00 859.53
  C 834.60 864.06 835.94 868.15 836.73 873.28
  C 837.14 875.94 838.67 881.09 841.07 883.03
  A 0.71 0.71 0.0 0 0 842.22 882.55
  Q 842.43 880.69 842.17 879.13
  Q 841.05 872.30 841.03 866.26
  C 841.01 862.93 840.69 858.43 840.35 856.27
  Z"
/>
<path fill="#231f20" d="
  M 422.98 268.95
  Q 422.01 270.35 421.01 272.17
  C 415.66 281.89 406.28 287.40 396.80 291.17
  A 0.95 0.95 0.0 0 0 396.22 292.18
  C 398.15 306.33 390.90 322.36 377.87 328.89
  A 1.30 1.29 73.2 0 0 377.16 330.22
  Q 379.86 350.80 378.07 372.17
  C 376.47 391.25 370.39 409.79 359.12 425.90
  A 0.70 0.70 0.0 0 0 359.47 426.96
  C 370.38 430.63 378.83 438.43 386.24 447.34
  Q 387.62 448.99 387.68 450.98
  A 1.43 1.42 -84.3 0 1 385.94 452.41
  Q 384.45 452.06 383.85 451.60
  Q 369.38 440.53 353.55 434.30
  A 1.63 1.63 0.0 0 0 351.71 434.75
  Q 349.77 436.99 344.92 442.17
  C 323.47 465.09 295.24 471.35 265.25 465.25
  C 252.72 462.70 239.80 457.72 228.38 454.19
  Q 212.01 449.13 196.84 457.37
  Q 191.45 460.31 184.04 466.55
  Q 173.53 475.41 163.06 486.32
  Q 131.81 518.85 105.46 557.96
  Q 82.37 592.23 67.99 632.48
  Q 57.08 663.05 55.79 692.09
  Q 54.70 716.75 62.95 741.86
  Q 68.10 757.54 71.61 765.92
  Q 71.72 766.20 71.43 766.30
  Q 71.29 766.34 71.17 766.30
  Q 71.05 766.26 70.95 766.13
  Q 67.21 761.12 63.22 756.53
  Q 61.50 754.55 58.36 748.02
  Q 55.73 742.57 54.53 738.78
  Q 45.75 711.11 48.58 682.53
  Q 50.06 667.59 54.58 650.06
  Q 65.21 608.80 87.07 572.04
  Q 93.41 561.37 97.53 555.00
  C 119.03 521.78 144.90 492.03 173.71 464.21
  Q 183.00 455.25 196.50 444.75
  Q 205.17 438.01 212.85 436.11
  Q 213.29 436.00 212.98 435.68
  Q 211.95 434.61 210.31 433.21
  C 196.97 421.82 185.88 406.45 182.34 389.30
  Q 181.61 385.76 183.61 388.77
  Q 187.97 395.33 198.30 409.17
  C 205.69 419.06 216.40 428.28 227.10 435.34
  Q 248.70 449.58 272.54 453.03
  Q 293.75 456.09 315.84 448.29
  C 344.03 438.32 361.21 414.89 367.37 386.39
  C 368.69 380.25 370.05 372.07 370.24 364.81
  Q 370.69 347.05 369.92 339.53
  Q 367.64 317.13 360.23 296.04
  Q 356.11 284.31 350.34 270.53
  Q 350.13 270.04 349.59 270.07
  Q 337.86 270.82 326.88 268.86
  Q 323.66 268.29 310.27 264.23
  Q 300.05 261.14 294.23 257.96
  Q 283.08 251.88 275.67 244.29
  Q 275.22 243.83 274.96 244.42
  C 273.79 247.16 272.66 250.58 270.99 253.30
  C 264.01 264.65 252.54 273.55 240.55 278.01
  Q 227.52 282.86 212.56 278.82
  Q 211.94 278.65 211.78 279.27
  Q 207.41 295.96 191.10 303.85
  Q 185.59 306.52 179.34 309.34
  A 1.09 1.09 0.0 0 0 178.78 310.75
  C 182.47 319.96 186.17 329.74 187.75 339.75
  C 188.63 345.33 187.04 353.56 181.14 355.96
  C 168.31 361.18 162.32 351.31 158.13 341.38
  Q 152.67 328.45 140.24 329.51
  Q 133.45 330.08 128.79 334.17
  Q 123.80 338.57 122.29 345.61
  Q 122.08 346.61 121.98 349.86
  Q 121.71 358.69 126.08 366.46
  C 134.34 381.15 155.26 380.57 168.67 375.65
  Q 171.58 374.58 169.22 376.58
  C 163.19 381.67 156.82 383.91 148.91 384.20
  Q 144.71 384.36 141.65 383.92
  C 123.95 381.39 113.90 365.86 114.34 348.73
  A 0.59 0.57 87.1 0 0 113.69 348.13
  C 108.03 348.86 103.22 348.66 97.64 346.56
  Q 88.46 343.10 82.01 336.91
  Q 79.42 334.42 76.96 332.08
  Q 75.85 331.03 76.33 332.48
  C 79.56 342.38 86.36 350.12 95.89 354.20
  Q 100.31 356.09 104.19 357.53
  Q 105.78 358.12 104.16 358.63
  C 100.74 359.70 98.12 360.94 94.66 359.86
  C 79.98 355.28 71.44 343.76 68.07 329.50
  C 65.51 318.65 64.41 310.14 66.26 299.62
  Q 68.24 288.38 74.39 279.90
  C 82.75 268.39 95.90 258.39 109.95 256.91
  A 0.27 0.26 71.9 0 0 110.15 256.51
  Q 107.10 251.37 105.83 246.00
  Q 102.60 232.26 105.61 217.67
  Q 109.01 201.13 117.10 188.84
  C 124.85 177.06 138.31 169.05 152.27 164.83
  Q 158.55 162.94 166.68 162.81
  Q 176.77 162.65 181.34 163.42
  Q 191.37 165.13 200.84 168.71
  Q 201.59 168.99 201.62 168.20
  Q 201.72 165.91 201.95 164.94
  Q 209.42 134.29 239.09 120.75
  C 255.29 113.37 272.63 114.39 289.26 120.38
  Q 317.90 130.68 329.49 159.12
  Q 329.80 159.87 330.45 159.38
  Q 346.13 147.44 365.64 153.68
  C 380.07 158.30 392.19 167.01 399.36 180.04
  Q 411.32 201.73 400.02 226.50
  A 0.65 0.65 0.0 0 0 400.65 227.42
  Q 422.30 226.26 428.49 246.32
  Q 434.10 264.47 426.83 280.82
  C 423.45 288.41 416.32 296.44 407.33 296.40
  Q 405.89 296.39 405.74 296.28
  Q 403.99 294.99 406.07 293.75
  Q 410.31 291.22 413.14 289.39
  C 418.97 285.65 423.15 275.61 423.37 269.08
  Q 423.40 268.34 422.98 268.95
  Z
  M 388.85 301.01
  C 389.52 292.19 386.65 283.35 378.28 279.70
  C 373.14 277.46 367.92 281.02 365.68 285.44
  A 1.49 1.48 -42.8 0 0 365.63 286.66
  Q 372.85 304.56 376.21 324.09
  A 0.61 0.61 0.0 0 0 377.21 324.45
  C 382.47 319.82 388.02 312.39 388.52 305.36
  Q 388.58 304.54 388.85 301.01
  Z"
/>
<path fill="#231f20" d="
  M 999.17 533.21
  Q 999.23 533.46 1001.07 540.57
  C 1007.38 564.91 1004.43 591.42 984.63 608.88
  C 970.14 621.66 950.27 629.41 930.59 632.06
  C 922.13 633.20 911.09 634.48 901.38 632.96
  A 0.85 0.84 -85.6 0 0 900.41 633.80
  Q 900.41 634.85 900.71 636.33
  Q 904.63 655.21 905.27 662.00
  C 905.95 669.25 906.95 675.90 907.00 682.71
  Q 907.13 699.43 906.89 704.38
  Q 906.68 708.70 905.13 720.93
  Q 902.48 741.69 894.33 760.86
  Q 888.32 775.00 877.44 786.38
  A 0.37 0.37 0.0 0 1 876.83 786.25
  Q 876.51 785.41 876.85 784.42
  Q 880.61 773.53 885.75 762.05
  Q 893.51 744.70 896.94 724.23
  Q 902.30 692.27 897.61 662.51
  Q 893.52 636.56 885.63 612.71
  Q 871.80 570.91 847.29 531.95
  C 836.21 514.34 824.55 498.25 810.85 484.31
  C 804.51 477.85 795.48 468.18 786.88 461.79
  Q 785.07 460.44 781.57 459.53
  Q 770.45 456.65 759.08 456.53
  Q 752.59 456.46 741.01 457.97
  C 730.50 459.35 721.68 460.40 711.18 460.35
  C 691.90 460.27 674.49 454.73 659.18 442.98
  Q 655.73 440.33 650.37 434.91
  C 638.01 422.43 625.85 418.60 608.51 420.60
  Q 597.89 421.83 587.23 422.66
  Q 580.37 423.19 556.63 425.94
  Q 553.94 426.25 534.18 426.93
  C 525.30 427.23 513.13 429.14 505.55 424.62
  A 0.76 0.75 43.8 0 1 505.52 423.34
  C 508.32 421.53 510.74 420.58 514.49 420.54
  Q 518.33 420.51 523.76 420.48
  Q 525.58 420.47 524.25 419.23
  C 519.35 414.64 516.31 409.80 516.32 402.82
  C 516.32 391.13 522.75 379.22 534.34 375.51
  Q 536.62 374.78 538.51 373.95
  Q 539.14 373.67 538.72 373.13
  L 535.73 369.33
  A 1.70 1.70 0.0 0 0 533.88 368.77
  C 523.10 372.23 513.98 380.44 511.01 391.13
  C 510.25 393.86 509.87 398.01 508.86 401.31
  A 1.44 1.44 0.0 0 1 506.51 401.95
  C 503.13 398.88 504.33 390.95 505.60 386.71
  Q 511.24 367.82 530.38 361.48
  A 1.39 1.39 0.0 0 0 531.28 359.78
  C 529.40 353.16 529.94 346.63 531.41 339.06
  C 534.88 321.23 547.32 307.78 564.73 301.94
  Q 571.00 299.83 574.60 299.59
  A 0.51 0.50 -13.0 0 0 575.04 298.89
  Q 571.57 290.87 571.22 282.49
  Q 569.75 247.39 596.57 227.49
  C 605.20 221.09 615.31 217.71 625.87 215.93
  C 630.33 215.18 634.74 215.41 639.01 215.26
  Q 639.56 215.24 639.51 214.69
  Q 637.73 192.38 651.73 174.48
  Q 658.20 166.20 662.87 161.84
  Q 675.07 150.45 691.49 146.24
  Q 721.92 138.44 751.11 152.23
  Q 751.65 152.49 752.02 152.02
  C 753.74 149.83 755.84 146.90 758.11 144.79
  C 770.74 133.05 786.18 126.87 803.50 127.58
  Q 819.35 128.23 833.71 135.14
  C 846.85 141.46 856.86 153.78 862.40 166.90
  Q 864.74 172.43 864.54 180.21
  Q 864.52 180.91 865.21 180.86
  Q 885.32 179.45 903.14 189.38
  Q 906.27 191.13 912.41 196.15
  Q 915.10 198.35 917.45 201.50
  Q 917.77 201.93 921.57 206.52
  Q 925.63 211.42 928.67 218.06
  C 932.92 227.30 935.70 236.25 936.37 246.81
  Q 937.47 264.12 932.23 279.02
  Q 929.74 286.11 924.13 292.29
  Q 923.47 293.02 924.41 293.30
  Q 947.05 300.16 959.98 319.22
  Q 970.65 334.96 973.08 356.39
  C 973.64 361.38 973.01 367.59 972.61 371.84
  Q 971.12 387.69 963.32 402.64
  C 961.62 405.90 959.24 409.12 957.28 412.41
  Q 957.08 412.76 957.47 412.86
  C 973.75 417.19 988.50 427.13 996.46 442.36
  Q 1009.08 466.51 1002.97 493.51
  Q 1000.52 504.32 995.07 512.93
  A 0.55 0.55 0.0 0 0 995.19 513.65
  Q 1012.70 527.52 1018.38 548.49
  Q 1020.92 557.86 1020.36 568.26
  Q 1018.66 600.06 994.46 622.22
  Q 985.63 630.30 970.35 636.60
  Q 955.63 642.67 938.97 645.29
  C 933.18 646.20 928.54 646.11 922.75 646.05
  Q 921.04 646.03 920.10 645.68
  A 0.83 0.82 -49.7 0 1 919.98 644.19
  C 923.55 642.17 926.98 640.83 931.38 640.07
  Q 946.36 637.49 962.26 632.01
  Q 986.63 623.63 1000.62 601.86
  C 1014.03 581.00 1015.75 552.72 999.85 532.90
  Q 998.77 531.55 999.17 533.21
  Z
  M 784.50 140.86
  Q 784.49 140.86 784.40 140.87
  L 784.39 140.88
  Q 784.39 140.89 784.39 140.91
  Q 784.39 140.93 784.42 140.93
  C 788.76 140.55 792.41 139.67 797.28 139.80
  Q 800.00 139.87 802.79 140.34
  C 824.50 143.97 843.30 159.51 851.54 179.46
  Q 852.17 180.98 852.27 182.57
  Q 852.34 183.69 853.42 183.39
  L 860.31 181.45
  Q 861.43 181.14 860.97 180.07
  Q 854.94 166.26 843.86 153.70
  Q 840.68 150.09 838.33 148.61
  Q 825.40 140.42 809.86 138.03
  Q 802.85 136.95 797.07 137.77
  Q 790.47 138.70 784.50 140.86
  Z
  M 783.7240 141.1525
  A 0.84 0.16 -14.3 0 0 782.8705 141.2050
  A 0.84 0.16 -14.3 0 0 782.0960 141.5675
  A 0.84 0.16 -14.3 0 0 782.9495 141.5150
  A 0.84 0.16 -14.3 0 0 783.7240 141.1525
  Z
  M 917.35 217.38
  Q 925.22 236.79 923.88 258.76
  C 923.26 268.74 920.59 281.64 914.91 290.06
  Q 914.23 291.07 915.41 291.35
  L 919.49 292.32
  A 1.68 1.68 0.0 0 0 921.34 291.51
  C 926.55 282.11 929.01 271.62 929.31 261.00
  C 929.52 253.61 929.97 248.35 928.43 242.01
  C 926.34 233.42 922.65 224.64 917.51 217.30
  Q 917.06 216.67 917.35 217.38
  Z
  M 837.80 343.75
  Q 840.04 356.17 836.84 367.59
  Q 835.98 370.67 835.33 372.94
  Q 835.19 373.42 835.68 373.50
  Q 841.48 374.46 843.29 374.61
  C 855.69 375.64 866.52 369.54 873.15 358.92
  Q 882.67 343.66 872.93 327.75
  C 870.71 324.13 867.11 320.16 862.56 321.11
  Q 856.35 322.40 848.58 322.69
  C 845.93 322.80 843.40 324.53 841.62 325.33
  Q 839.52 326.28 840.21 324.12
  L 840.61 322.83
  Q 840.83 322.16 840.13 322.12
  Q 829.39 321.46 818.83 315.99
  C 798.48 305.45 785.50 285.33 786.07 262.51
  Q 786.09 261.62 785.33 262.09
  C 778.19 266.44 772.17 267.25 761.57 269.34
  Q 749.02 271.81 735.84 269.68
  Q 714.82 266.26 703.16 249.88
  A 0.47 0.46 48.7 0 0 702.45 249.83
  C 699.26 253.14 695.19 254.71 689.99 256.82
  C 681.72 260.18 673.93 261.37 665.17 260.52
  Q 664.86 260.49 664.69 260.74
  Q 638.67 296.37 633.85 340.28
  C 630.11 374.36 638.30 413.56 669.90 432.56
  C 713.86 458.99 766.78 449.51 801.22 412.69
  Q 820.79 391.76 830.16 362.99
  Q 834.24 350.47 836.40 343.66
  Q 837.28 340.88 837.80 343.75
  Z
  M 570.84 310.97
  Q 571.67 310.52 570.72 310.55
  Q 567.84 310.63 564.68 311.88
  Q 545.96 319.25 539.74 338.27
  C 536.76 347.37 536.07 357.37 541.49 366.15
  Q 543.13 368.80 545.44 372.34
  Q 546.20 373.52 545.72 372.20
  Q 543.61 366.37 542.73 360.22
  Q 540.60 345.36 548.11 332.96
  Q 556.83 318.60 570.84 310.97
  Z"
/>
<path fill="#ffffff" d="
  M 784.50 140.86
  Q 790.47 138.70 797.07 137.77
  Q 802.85 136.95 809.86 138.03
  Q 825.40 140.42 838.33 148.61
  Q 840.68 150.09 843.86 153.70
  Q 854.94 166.26 860.97 180.07
  Q 861.43 181.14 860.31 181.45
  L 853.42 183.39
  Q 852.34 183.69 852.27 182.57
  Q 852.17 180.98 851.54 179.46
  C 843.30 159.51 824.50 143.97 802.79 140.34
  Q 800.00 139.87 797.28 139.80
  C 792.41 139.67 788.76 140.55 784.42 140.93
  Q 784.39 140.93 784.39 140.91
  Q 784.39 140.89 784.39 140.88
  L 784.40 140.87
  Q 784.49 140.86 784.50 140.86
  Z"
/>
<ellipse fill="#d2d2d2" cx="0.00" cy="0.00" transform="translate(782.91,141.36) rotate(-14.3)" rx="0.84" ry="0.16"/>
<path fill="#ffffff" d="
  M 917.51 217.30
  C 922.65 224.64 926.34 233.42 928.43 242.01
  C 929.97 248.35 929.52 253.61 929.31 261.00
  C 929.01 271.62 926.55 282.11 921.34 291.51
  A 1.68 1.68 0.0 0 1 919.49 292.32
  L 915.41 291.35
  Q 914.23 291.07 914.91 290.06
  C 920.59 281.64 923.26 268.74 923.88 258.76
  Q 925.22 236.79 917.35 217.38
  Q 917.06 216.67 917.51 217.30
  Z"
/>
<path fill="#d2d2d2" d="
  M 837.80 343.75
  Q 837.28 340.88 836.40 343.66
  Q 834.24 350.47 830.16 362.99
  Q 820.79 391.76 801.22 412.69
  C 766.78 449.51 713.86 458.99 669.90 432.56
  C 638.30 413.56 630.11 374.36 633.85 340.28
  Q 638.67 296.37 664.69 260.74
  Q 664.86 260.49 665.17 260.52
  C 673.93 261.37 681.72 260.18 689.99 256.82
  C 695.19 254.71 699.26 253.14 702.45 249.83
  A 0.47 0.46 48.7 0 1 703.16 249.88
  Q 714.82 266.26 735.84 269.68
  Q 749.02 271.81 761.57 269.34
  C 772.17 267.25 778.19 266.44 785.33 262.09
  Q 786.09 261.62 786.07 262.51
  C 785.50 285.33 798.48 305.45 818.83 315.99
  Q 829.39 321.46 840.13 322.12
  Q 840.83 322.16 840.61 322.83
  L 840.21 324.12
  Q 839.52 326.28 841.62 325.33
  C 843.40 324.53 845.93 322.80 848.58 322.69
  Q 856.35 322.40 862.56 321.11
  C 867.11 320.16 870.71 324.13 872.93 327.75
  Q 882.67 343.66 873.15 358.92
  C 866.52 369.54 855.69 375.64 843.29 374.61
  Q 841.48 374.46 835.68 373.50
  Q 835.19 373.42 835.33 372.94
  Q 835.98 370.67 836.84 367.59
  Q 840.04 356.17 837.80 343.75
  Z
  M 691.30 285.22
  C 697.25 285.61 699.21 290.62 702.97 293.28
  C 708.42 297.15 713.07 291.26 710.04 285.99
  C 705.00 277.21 692.03 275.38 683.62 278.10
  C 680.96 278.96 678.67 279.62 678.54 282.45
  Q 678.38 286.02 682.31 287.11
  Q 682.82 287.25 683.31 287.06
  Q 688.54 285.04 691.30 285.22
  Z
  M 756.57 300.43
  C 757.85 301.65 760.53 304.46 762.49 304.48
  C 764.31 304.49 766.59 303.27 766.74 301.22
  C 766.96 298.20 764.95 296.02 762.57 294.15
  Q 752.81 286.46 740.27 287.87
  C 735.92 288.36 730.22 290.67 729.35 295.26
  C 728.68 298.78 731.19 301.54 734.76 301.46
  C 742.47 301.29 748.95 293.09 756.57 300.43
  Z
  M 685.06 337.69
  A 0.42 0.42 0.0 0 1 685.37 338.38
  Q 680.91 343.57 673.46 349.19
  Q 669.68 352.04 670.12 356.31
  Q 670.17 356.82 670.68 356.89
  Q 673.41 357.24 674.82 356.31
  C 681.89 351.70 688.00 347.19 693.14 340.80
  Q 696.02 337.22 698.63 333.66
  C 702.69 328.12 708.25 317.18 705.49 310.20
  A 1.14 1.13 -2.1 0 0 704.76 309.53
  Q 702.07 308.72 699.65 309.34
  Q 698.71 309.58 698.60 310.54
  C 697.64 318.61 695.94 324.73 688.31 328.81
  Q 684.14 331.03 680.67 328.78
  C 675.65 325.52 678.06 316.49 679.09 311.23
  Q 679.76 307.84 676.26 307.03
  Q 676.14 307.00 676.12 307.00
  Q 672.49 306.48 671.66 309.68
  C 669.88 316.57 668.55 325.89 672.74 331.62
  Q 677.04 337.50 685.06 337.69
  Z
  M 724.41 339.39
  C 719.42 336.73 721.40 327.44 722.89 322.70
  Q 724.03 319.04 720.28 317.77
  Q 720.17 317.74 720.12 317.72
  Q 716.40 316.64 715.04 320.38
  Q 712.80 326.54 712.98 332.97
  C 713.45 349.75 730.34 352.47 742.00 344.50
  Q 750.59 338.63 755.14 330.85
  Q 757.03 327.61 753.86 325.45
  Q 753.83 325.43 753.72 325.36
  Q 750.36 323.36 748.22 326.51
  C 743.70 333.14 733.26 344.12 724.41 339.39
  Z
  M 705.44 389.30
  C 702.16 389.46 699.25 387.98 696.67 385.75
  C 691.07 380.93 685.62 387.83 690.65 392.36
  Q 697.57 398.59 705.87 398.19
  Q 714.17 397.79 720.45 390.92
  C 725.02 385.92 718.93 379.58 713.83 384.92
  C 711.47 387.38 708.72 389.14 705.44 389.30
  Z"
/>
<path fill="#231f20" d="
  M 691.30 285.22
  Q 688.54 285.04 683.31 287.06
  Q 682.82 287.25 682.31 287.11
  Q 678.38 286.02 678.54 282.45
  C 678.67 279.62 680.96 278.96 683.62 278.10
  C 692.03 275.38 705.00 277.21 710.04 285.99
  C 713.07 291.26 708.42 297.15 702.97 293.28
  C 699.21 290.62 697.25 285.61 691.30 285.22
  Z"
/>
<path fill="#ffffff" d="
  M 388.85 301.01
  Q 388.58 304.54 388.52 305.36
  C 388.02 312.39 382.47 319.82 377.21 324.45
  A 0.61 0.61 0.0 0 1 376.21 324.09
  Q 372.85 304.56 365.63 286.66
  A 1.49 1.48 -42.8 0 1 365.68 285.44
  C 367.92 281.02 373.14 277.46 378.28 279.70
  C 386.65 283.35 389.52 292.19 388.85 301.01
  Z"
/>
<path fill="#231f20" d="
  M 304.77 344.92
  Q 307.05 349.80 307.11 349.89
  C 311.38 356.37 314.96 361.02 317.19 366.11
  A 0.40 0.40 0.0 0 1 316.69 366.65
  C 306.84 363.11 300.15 351.98 296.46 342.84
  A 0.84 0.84 0.0 0 0 294.95 342.73
  C 292.05 347.66 287.66 350.25 281.83 350.88
  C 269.64 352.21 257.62 345.73 252.92 334.32
  Q 251.67 331.29 254.54 329.72
  L 254.82 329.56
  Q 257.85 328.16 259.46 331.14
  Q 265.47 342.24 277.11 343.62
  C 287.80 344.88 290.92 336.57 289.33 327.76
  Q 288.67 324.07 288.63 320.91
  Q 288.53 314.01 288.52 313.87
  Q 288.21 308.09 288.67 305.97
  Q 292.34 289.21 308.48 285.22
  Q 317.06 283.10 324.84 285.66
  C 326.82 286.32 330.22 288.11 330.80 290.30
  C 331.66 293.57 328.20 295.35 325.48 295.65
  C 322.39 296.00 317.86 294.46 315.52 294.31
  C 309.44 293.90 301.29 295.44 298.01 301.10
  C 293.96 308.08 295.43 316.43 297.29 324.07
  C 299.21 331.94 305.44 338.63 314.00 337.60
  C 322.63 336.56 319.96 324.56 318.44 318.50
  Q 317.58 315.08 321.05 314.25
  Q 321.18 314.22 321.19 314.21
  Q 324.70 313.52 325.73 316.83
  Q 327.75 323.32 327.49 329.77
  Q 326.86 345.37 311.81 345.34
  C 309.64 345.33 307.36 344.59 305.17 344.36
  Q 304.48 344.29 304.77 344.92
  Z"
/>
<path fill="#231f20" d="
  M 756.57 300.43
  C 748.95 293.09 742.47 301.29 734.76 301.46
  C 731.19 301.54 728.68 298.78 729.35 295.26
  C 730.22 290.67 735.92 288.36 740.27 287.87
  Q 752.81 286.46 762.57 294.15
  C 764.95 296.02 766.96 298.20 766.74 301.22
  C 766.59 303.27 764.31 304.49 762.49 304.48
  C 760.53 304.46 757.85 301.65 756.57 300.43
  Z"
/>
<path fill="#231f20" d="
  M 257.05 303.52
  C 252.50 303.23 247.23 307.74 243.91 311.41
  C 242.27 313.22 240.51 314.36 238.34 313.10
  A 2.29 2.29 0.0 0 1 237.43 310.10
  Q 239.03 306.83 242.78 303.01
  Q 252.42 293.19 266.52 293.58
  C 270.89 293.70 275.62 296.35 274.43 301.41
  C 274.02 303.15 273.34 304.25 271.38 304.47
  C 266.36 305.06 261.75 303.81 257.05 303.52
  Z"
/>
<path fill="#231f20" d="
  M 685.06 337.69
  Q 677.04 337.50 672.74 331.62
  C 668.55 325.89 669.88 316.57 671.66 309.68
  Q 672.49 306.48 676.12 307.00
  Q 676.14 307.00 676.26 307.03
  Q 679.76 307.84 679.09 311.23
  C 678.06 316.49 675.65 325.52 680.67 328.78
  Q 684.14 331.03 688.31 328.81
  C 695.94 324.73 697.64 318.61 698.60 310.54
  Q 698.71 309.58 699.65 309.34
  Q 702.07 308.72 704.76 309.53
  A 1.14 1.13 -2.1 0 1 705.49 310.20
  C 708.25 317.18 702.69 328.12 698.63 333.66
  Q 696.02 337.22 693.14 340.80
  C 688.00 347.19 681.89 351.70 674.82 356.31
  Q 673.41 357.24 670.68 356.89
  Q 670.17 356.82 670.12 356.31
  Q 669.68 352.04 673.46 349.19
  Q 680.91 343.57 685.37 338.38
  A 0.42 0.42 0.0 0 0 685.06 337.69
  Z"
/>
<path fill="#ffffff" d="
  M 570.84 310.97
  Q 556.83 318.60 548.11 332.96
  Q 540.60 345.36 542.73 360.22
  Q 543.61 366.37 545.72 372.20
  Q 546.20 373.52 545.44 372.34
  Q 543.13 368.80 541.49 366.15
  C 536.07 357.37 536.76 347.37 539.74 338.27
  Q 545.96 319.25 564.68 311.88
  Q 567.84 310.63 570.72 310.55
  Q 571.67 310.52 570.84 310.97
  Z"
/>
<path fill="#231f20" d="
  M 724.41 339.39
  C 733.26 344.12 743.70 333.14 748.22 326.51
  Q 750.36 323.36 753.72 325.36
  Q 753.83 325.43 753.86 325.45
  Q 757.03 327.61 755.14 330.85
  Q 750.59 338.63 742.00 344.50
  C 730.34 352.47 713.45 349.75 712.98 332.97
  Q 712.80 326.54 715.04 320.38
  Q 716.40 316.64 720.12 317.72
  Q 720.17 317.74 720.28 317.77
  Q 724.03 319.04 722.89 322.70
  C 721.40 327.44 719.42 336.73 724.41 339.39
  Z"
/>
<path fill="#231f20" d="
  M 705.87 398.19
  Q 697.57 398.59 690.65 392.36
  C 685.62 387.83 691.07 380.93 696.67 385.75
  C 699.25 387.98 702.16 389.46 705.44 389.30
  C 708.72 389.14 711.47 387.38 713.83 384.92
  C 718.93 379.58 725.02 385.92 720.45 390.92
  Q 714.17 397.79 705.87 398.19
  Z"
/>
<path fill="#231f20" d="
  M 279.92 395.49
  C 284.77 399.07 292.61 399.76 297.65 397.32
  C 303.27 394.60 306.53 401.38 302.19 404.13
  Q 299.51 405.83 296.01 406.46
  Q 283.56 408.70 274.05 401.21
  C 271.81 399.45 267.11 392.66 269.60 389.46
  Q 271.26 387.33 273.51 387.53
  C 277.26 387.85 276.73 393.14 279.92 395.49
  Z"
/>
<path fill="#231f20" d="
  M 521.99 465.63
  Q 522.19 466.53 522.18 466.98
  A 0.65 0.64 14.8 0 1 521.23 467.53
  Q 517.00 465.27 515.09 462.95
  Q 505.49 451.35 493.05 438.50
  C 481.40 426.47 467.56 419.73 452.31 412.64
  Q 431.75 403.07 411.18 399.68
  C 408.13 399.17 404.06 397.02 406.02 393.36
  Q 406.26 392.90 406.77 392.79
  Q 410.07 392.04 414.84 392.75
  Q 422.47 393.88 431.86 396.77
  Q 457.70 404.76 481.73 419.74
  C 487.53 423.36 490.89 426.59 496.86 432.35
  Q 505.89 441.07 515.24 452.00
  Q 520.29 457.90 521.99 465.63
  Z"
/>
<path fill="#231f20" d="
  M 447.21 424.30
  A 0.91 0.91 0.0 0 0 447.23 425.89
  Q 451.10 427.97 454.10 430.22
  Q 462.86 436.80 473.53 446.36
  Q 482.14 454.07 487.64 460.41
  Q 499.20 473.74 508.35 490.99
  Q 514.68 502.94 517.25 516.29
  Q 517.52 517.70 518.30 524.95
  Q 518.87 530.17 518.58 533.63
  Q 517.40 547.63 513.82 557.33
  C 510.79 565.54 500.71 583.83 489.75 581.66
  C 488.19 581.35 487.61 580.23 486.82 578.99
  A 0.69 0.69 0.0 0 0 485.69 578.95
  C 481.16 584.95 473.31 589.36 466.61 582.92
  Q 465.96 582.29 465.33 582.93
  C 462.40 585.86 457.93 587.80 454.11 587.57
  Q 450.78 587.37 449.01 585.40
  Q 446.71 582.85 446.84 579.59
  A 0.70 0.70 0.0 0 0 446.07 578.87
  C 442.64 579.22 439.12 579.53 436.67 577.64
  C 432.93 574.76 434.43 570.75 436.47 567.01
  Q 437.21 565.67 442.03 557.27
  Q 446.91 548.78 448.10 539.01
  Q 448.20 538.20 447.31 536.01
  Q 446.72 534.59 445.91 533.36
  C 442.61 528.31 440.23 524.49 438.89 518.89
  Q 438.50 517.21 437.91 511.83
  C 437.43 507.39 438.04 503.55 438.54 499.18
  C 439.40 491.62 443.41 482.58 442.16 478.50
  Q 440.84 474.21 439.48 478.50
  C 436.74 487.11 429.02 506.40 418.68 508.02
  Q 416.57 508.35 416.03 508.41
  A 0.51 0.51 0.0 0 0 415.69 509.24
  Q 421.20 515.97 429.58 517.86
  C 431.82 518.37 433.34 519.05 434.21 521.09
  A 2.22 2.22 0.0 0 1 433.13 523.96
  Q 430.42 525.27 427.30 524.70
  C 409.90 521.48 398.92 500.00 399.06 483.81
  Q 399.30 453.58 419.90 433.19
  Q 427.45 425.73 437.26 422.02
  Q 444.69 419.22 451.31 421.44
  Q 453.04 422.01 451.28 422.50
  Q 449.56 422.98 447.21 424.30
  Z
  M 482.39 515.45
  C 489.15 521.68 489.00 531.79 488.28 540.47
  C 487.80 546.20 484.69 553.62 482.44 560.41
  Q 481.04 564.62 475.78 573.39
  Q 475.34 574.12 475.32 574.61
  Q 475.30 575.39 476.12 575.76
  A 1.32 1.31 41.8 0 0 477.34 575.70
  Q 479.94 574.13 481.77 571.76
  Q 489.25 562.02 493.11 550.37
  Q 494.18 547.14 494.74 540.27
  Q 494.86 538.80 496.57 535.73
  A 1.78 1.75 -32.5 0 0 496.79 534.77
  Q 496.59 531.74 495.58 525.01
  Q 495.16 522.20 496.34 519.61
  Q 497.26 517.61 499.02 518.93
  C 503.92 522.61 504.72 534.21 504.15 539.99
  Q 503.19 549.82 498.62 559.53
  C 496.43 564.18 495.36 567.09 494.16 571.77
  Q 493.85 572.98 494.84 572.23
  Q 497.13 570.52 499.34 567.58
  C 508.86 555.00 512.63 538.52 511.07 523.12
  C 509.23 504.84 499.25 485.27 487.69 470.91
  Q 479.35 460.55 473.62 455.17
  Q 463.80 445.95 451.09 435.75
  Q 445.62 431.36 443.05 428.37
  A 2.04 2.04 0.0 0 0 440.43 427.97
  Q 435.94 430.77 431.64 433.65
  Q 430.06 434.70 425.97 439.26
  Q 420.85 444.96 423.78 450.33
  Q 424.98 452.52 429.59 455.98
  Q 436.58 461.23 441.86 466.46
  C 447.61 472.17 451.47 476.28 449.36 484.20
  C 446.45 495.14 444.79 503.39 446.06 513.99
  C 446.68 519.14 448.55 522.78 451.44 527.05
  Q 454.34 531.34 454.97 532.98
  C 457.93 540.62 454.81 552.22 450.53 559.05
  Q 446.18 566.00 445.78 566.79
  A 1.29 1.29 0.0 0 0 447.29 568.60
  L 448.96 568.13
  Q 451.38 567.45 452.76 565.35
  Q 458.82 556.19 463.33 545.87
  C 466.14 539.44 467.06 533.49 465.72 526.66
  C 464.79 521.90 464.18 519.71 464.44 515.73
  A 0.65 0.64 -68.2 0 1 465.50 515.27
  C 472.76 521.40 474.21 533.33 472.17 541.75
  Q 471.68 543.74 469.20 552.77
  C 467.39 559.33 462.14 566.57 457.81 572.56
  Q 455.99 575.07 455.35 577.19
  A 1.33 1.33 0.0 0 0 456.88 578.88
  Q 458.61 578.55 459.85 577.57
  C 468.77 570.58 472.40 561.82 477.42 550.70
  C 480.43 544.02 481.39 535.04 481.01 526.22
  Q 480.74 519.64 480.93 516.04
  A 0.87 0.87 0.0 0 1 482.39 515.45
  Z"
/>
<path fill="#d2d2d2" d="
  M 482.39 515.45
  A 0.87 0.87 0.0 0 0 480.93 516.04
  Q 480.74 519.64 481.01 526.22
  C 481.39 535.04 480.43 544.02 477.42 550.70
  C 472.40 561.82 468.77 570.58 459.85 577.57
  Q 458.61 578.55 456.88 578.88
  A 1.33 1.33 0.0 0 1 455.35 577.19
  Q 455.99 575.07 457.81 572.56
  C 462.14 566.57 467.39 559.33 469.20 552.77
  Q 471.68 543.74 472.17 541.75
  C 474.21 533.33 472.76 521.40 465.50 515.27
  A 0.65 0.64 -68.2 0 0 464.44 515.73
  C 464.18 519.71 464.79 521.90 465.72 526.66
  C 467.06 533.49 466.14 539.44 463.33 545.87
  Q 458.82 556.19 452.76 565.35
  Q 451.38 567.45 448.96 568.13
  L 447.29 568.60
  A 1.29 1.29 0.0 0 1 445.78 566.79
  Q 446.18 566.00 450.53 559.05
  C 454.81 552.22 457.93 540.62 454.97 532.98
  Q 454.34 531.34 451.44 527.05
  C 448.55 522.78 446.68 519.14 446.06 513.99
  C 444.79 503.39 446.45 495.14 449.36 484.20
  C 451.47 476.28 447.61 472.17 441.86 466.46
  Q 436.58 461.23 429.59 455.98
  Q 424.98 452.52 423.78 450.33
  Q 420.85 444.96 425.97 439.26
  Q 430.06 434.70 431.64 433.65
  Q 435.94 430.77 440.43 427.97
  A 2.04 2.04 0.0 0 1 443.05 428.37
  Q 445.62 431.36 451.09 435.75
  Q 463.80 445.95 473.62 455.17
  Q 479.35 460.55 487.69 470.91
  C 499.25 485.27 509.23 504.84 511.07 523.12
  C 512.63 538.52 508.86 555.00 499.34 567.58
  Q 497.13 570.52 494.84 572.23
  Q 493.85 572.98 494.16 571.77
  C 495.36 567.09 496.43 564.18 498.62 559.53
  Q 503.19 549.82 504.15 539.99
  C 504.72 534.21 503.92 522.61 499.02 518.93
  Q 497.26 517.61 496.34 519.61
  Q 495.16 522.20 495.58 525.01
  Q 496.59 531.74 496.79 534.77
  A 1.78 1.75 -32.5 0 1 496.57 535.73
  Q 494.86 538.80 494.74 540.27
  Q 494.18 547.14 493.11 550.37
  Q 489.25 562.02 481.77 571.76
  Q 479.94 574.13 477.34 575.70
  A 1.32 1.31 41.8 0 1 476.12 575.76
  Q 475.30 575.39 475.32 574.61
  Q 475.34 574.12 475.78 573.39
  Q 481.04 564.62 482.44 560.41
  C 484.69 553.62 487.80 546.20 488.28 540.47
  C 489.00 531.79 489.15 521.68 482.39 515.45
  Z"
/>
<path fill="#231f20" d="
  M 676.8731 499.6458
  A 8.38 7.88 81.4 0 1 667.8286 492.5383
  A 8.38 7.88 81.4 0 1 674.3669 483.0742
  A 8.38 7.88 81.4 0 1 683.4114 490.1817
  A 8.38 7.88 81.4 0 1 676.8731 499.6458
  Z
  M 675.9536 491.9110
  A 1.23 0.65 -39.9 0 0 674.5931 492.2013
  A 1.23 0.65 -39.9 0 0 674.0664 493.4890
  A 1.23 0.65 -39.9 0 0 675.4269 493.1987
  A 1.23 0.65 -39.9 0 0 675.9536 491.9110
  Z"
/>
<path fill="#231f20" d="
  M 283.25 504.80
  C 287.86 505.26 293.31 504.79 297.40 504.53
  Q 312.93 503.53 328.19 497.93
  Q 336.26 494.97 341.87 490.62
  Q 345.60 487.75 346.89 486.87
  Q 350.13 484.67 352.64 487.63
  Q 352.98 488.03 352.92 488.55
  C 352.57 491.81 346.60 495.87 344.14 497.39
  Q 333.02 504.26 320.65 507.31
  C 306.52 510.80 291.46 511.89 276.94 509.76
  C 267.94 508.43 261.76 507.89 254.93 504.46
  A 0.97 0.97 0.0 0 1 254.40 503.49
  Q 254.49 502.72 255.62 502.55
  Q 260.49 501.81 265.53 502.54
  Q 276.50 504.13 283.25 504.80
  Z"
/>
<ellipse fill="#d2d2d2" cx="0.00" cy="0.00" transform="translate(675.01,492.70) rotate(-39.9)" rx="1.23" ry="0.65"/>
<path fill="#231f20" d="
  M 663.9466 534.8437
  A 9.37 8.76 92.1 0 1 655.5359 525.1590
  A 9.37 8.76 92.1 0 1 664.6334 516.1163
  A 9.37 8.76 92.1 0 1 673.0441 525.8010
  A 9.37 8.76 92.1 0 1 663.9466 534.8437
  Z
  M 662.6169 527.7727
  A 0.94 0.66 126.8 0 0 663.7085 527.4154
  A 0.94 0.66 126.8 0 0 663.7431 526.2673
  A 0.94 0.66 126.8 0 0 662.6515 526.6246
  A 0.94 0.66 126.8 0 0 662.6169 527.7727
  Z"
/>
<ellipse fill="#d2d2d2" cx="0.00" cy="0.00" transform="translate(663.18,527.02) rotate(126.8)" rx="0.94" ry="0.66"/>
<path fill="#231f20" d="
  M 523.08 594.19
  C 521.85 591.07 519.33 588.07 518.21 585.02
  A 0.61 0.61 0.0 0 1 518.80 584.20
  Q 521.91 584.27 523.84 586.77
  Q 526.75 590.53 527.87 592.95
  Q 534.47 607.11 535.49 617.24
  Q 536.69 629.16 537.79 634.84
  Q 538.28 637.37 535.70 637.37
  L 533.38 637.37
  Q 531.00 637.37 530.33 635.08
  C 529.67 632.82 529.06 630.46 528.95 628.09
  Q 528.37 615.49 527.55 610.49
  Q 526.17 602.05 523.08 594.19
  Z"
/>
<path fill="#231f20" d="
  M 496.94 731.41
  A 0.36 0.36 0.0 0 0 496.30 731.50
  C 491.62 745.40 480.44 748.56 467.00 747.80
  C 458.95 747.34 448.20 744.16 443.04 737.69
  Q 438.88 732.49 443.02 727.23
  A 0.72 0.72 0.0 0 0 442.44 726.06
  C 433.70 726.22 424.28 726.36 417.17 723.74
  C 407.60 720.21 399.32 712.88 396.45 702.83
  A 1.42 1.41 74.1 0 0 394.70 701.85
  L 371.64 708.34
  A 1.24 1.24 0.0 0 0 370.73 709.52
  Q 370.58 722.31 369.85 734.01
  Q 369.32 742.60 367.30 755.30
  C 365.86 764.30 364.00 772.50 359.14 779.48
  A 1.06 1.06 0.0 0 0 359.94 781.15
  C 365.73 781.51 369.58 776.65 371.86 772.14
  C 378.45 759.11 381.15 743.91 382.28 729.82
  Q 382.78 723.47 384.12 716.52
  Q 384.59 714.05 385.59 716.36
  C 387.49 720.74 388.26 723.97 388.28 729.04
  Q 388.36 743.82 384.52 760.01
  Q 381.69 771.93 374.61 781.52
  Q 368.21 790.20 358.12 788.69
  C 346.64 786.97 341.85 765.44 340.15 756.37
  Q 335.62 732.16 336.26 707.44
  C 336.38 702.78 337.14 696.97 337.31 691.70
  Q 337.47 687.08 338.09 682.84
  C 339.08 676.18 340.34 672.54 338.12 668.14
  A 0.95 0.94 75.0 0 0 337.23 667.62
  Q 334.31 667.77 331.27 668.31
  Q 294.42 674.88 275.46 678.19
  C 260.17 680.86 241.79 683.18 229.47 684.66
  Q 213.58 686.58 194.25 686.81
  Q 191.80 686.84 185.67 686.43
  Q 180.01 686.05 177.18 685.31
  C 169.45 683.30 157.55 676.71 159.73 666.67
  Q 160.24 664.30 160.83 666.66
  C 161.71 670.13 163.39 672.58 166.78 674.51
  Q 174.39 678.85 183.25 679.17
  C 193.07 679.53 207.27 679.53 218.93 678.44
  Q 248.73 675.66 270.00 672.02
  Q 281.38 670.07 351.44 657.91
  Q 351.58 657.89 361.10 655.94
  C 365.60 655.03 371.03 654.58 374.62 653.96
  Q 403.16 648.96 428.01 646.80
  C 439.55 645.80 452.89 644.95 465.77 646.13
  Q 472.92 646.78 478.06 648.56
  C 489.68 652.59 497.07 662.81 499.58 674.36
  Q 500.02 676.36 500.90 674.51
  C 504.11 667.71 507.07 659.64 514.10 655.74
  Q 519.15 652.94 524.75 652.45
  Q 536.38 651.44 548.39 653.88
  C 567.76 657.83 591.24 665.89 605.79 669.98
  C 618.61 673.58 634.59 676.76 647.15 680.00
  C 669.43 685.75 693.15 691.97 712.22 694.60
  Q 717.67 695.35 738.71 696.96
  Q 742.65 697.26 746.81 697.23
  C 750.27 697.20 757.38 697.67 762.20 696.14
  C 770.85 693.39 777.57 690.54 784.01 691.35
  Q 784.51 691.41 784.91 691.72
  Q 786.55 692.95 788.10 692.87
  A 0.78 0.78 0.0 0 1 788.72 694.17
  Q 784.25 699.13 777.98 700.55
  Q 762.17 704.12 750.28 703.90
  Q 745.03 703.80 733.12 703.50
  C 716.15 703.08 699.30 700.70 682.91 696.81
  Q 665.80 692.76 653.39 689.54
  C 648.87 688.37 645.61 688.11 641.68 689.82
  A 1.21 1.20 -16.7 0 0 640.97 691.13
  Q 642.77 701.63 641.94 712.31
  Q 640.16 735.25 632.32 755.87
  Q 626.30 771.69 616.41 785.88
  C 612.02 792.18 605.02 798.51 597.06 797.41
  C 588.63 796.26 587.23 788.91 586.91 781.44
  Q 586.80 778.75 587.02 775.57
  Q 588.25 758.31 591.82 741.58
  Q 593.28 734.73 596.30 728.39
  A 0.50 0.49 -51.7 0 1 597.13 728.29
  Q 597.48 728.71 597.60 729.36
  Q 598.53 734.56 598.21 739.39
  Q 598.12 740.70 595.42 764.02
  Q 594.38 773.01 594.49 784.09
  Q 594.52 786.65 595.93 788.76
  C 597.92 791.77 601.68 789.48 603.79 788.12
  Q 604.89 787.40 604.64 786.11
  C 603.09 778.15 603.90 771.02 604.80 760.51
  Q 606.13 744.92 609.53 724.93
  A 1.63 1.63 0.0 0 0 608.75 723.25
  L 597.32 716.66
  A 1.39 1.39 0.0 0 0 595.70 716.81
  C 589.24 722.38 580.28 726.26 571.68 728.17
  C 565.99 729.44 557.14 729.32 550.95 728.30
  A 0.34 0.33 2.8 0 0 550.55 728.65
  C 550.79 732.42 550.94 734.71 547.84 737.59
  Q 545.15 740.08 541.14 741.60
  Q 526.74 747.06 511.60 744.37
  C 506.74 743.50 500.76 740.11 498.82 735.11
  Q 497.91 732.80 496.94 731.41
  Z
  M 400.18 690.68
  C 401.34 693.54 401.92 697.48 403.45 700.45
  Q 412.03 717.09 431.64 717.11
  Q 441.35 717.13 457.06 717.13
  Q 460.50 717.13 466.68 718.34
  C 470.50 719.09 475.39 722.13 474.77 726.45
  C 473.96 732.16 467.87 733.02 463.00 732.50
  C 458.94 732.06 453.27 730.77 449.99 732.47
  A 0.74 0.73 -39.2 0 0 449.86 733.69
  C 455.93 738.68 465.84 740.51 473.35 740.00
  Q 477.86 739.70 482.53 737.25
  C 486.48 735.19 488.28 730.52 489.51 726.29
  Q 495.75 704.67 494.01 685.31
  Q 493.36 678.08 491.75 673.32
  C 487.76 661.51 480.10 654.98 467.89 653.63
  Q 456.95 652.43 444.74 652.96
  Q 427.93 653.70 417.26 655.05
  Q 382.14 659.50 360.63 663.48
  Q 357.78 664.01 356.53 665.56
  C 346.32 678.28 343.36 695.73 344.36 711.89
  Q 344.41 712.74 345.18 712.38
  C 350.35 709.94 355.13 708.42 360.68 705.85
  Q 374.18 699.62 388.84 696.14
  Q 389.53 695.98 395.29 693.95
  C 397.13 693.31 397.79 692.14 398.84 690.55
  A 0.76 0.76 0.0 0 1 400.18 690.68
  Z
  M 600.57 700.25
  Q 601.35 702.83 600.92 707.10
  C 600.56 710.75 603.11 713.27 606.42 714.67
  C 615.87 718.64 621.26 722.61 630.74 728.62
  A 0.66 0.66 0.0 0 0 631.73 728.21
  Q 634.79 715.09 633.60 702.21
  C 633.26 698.56 630.06 684.02 625.64 683.32
  Q 615.42 681.70 607.07 679.23
  Q 589.01 673.89 563.22 666.07
  Q 552.45 662.80 540.59 660.67
  Q 533.31 659.36 526.18 660.29
  C 519.38 661.18 515.44 664.04 512.33 669.90
  C 507.18 679.62 504.94 690.65 503.75 701.82
  C 502.75 711.19 502.63 720.50 504.91 729.17
  C 506.28 734.38 509.52 736.49 514.60 737.22
  C 521.75 738.26 533.17 737.87 539.24 733.44
  A 0.90 0.90 0.0 0 0 538.96 731.85
  Q 530.62 729.45 529.88 729.15
  C 526.00 727.58 524.44 723.61 528.24 720.71
  Q 531.21 718.44 536.26 718.90
  Q 540.88 719.32 554.03 721.19
  C 565.48 722.82 574.64 720.50 585.39 715.13
  C 589.52 713.07 592.24 709.67 594.76 704.93
  Q 596.37 701.91 598.57 699.75
  A 1.21 1.20 -30.8 0 1 600.57 700.25
  Z"
/>
<path fill="#ffffff" d="
  M 400.18 690.68
  A 0.76 0.76 0.0 0 0 398.84 690.55
  C 397.79 692.14 397.13 693.31 395.29 693.95
  Q 389.53 695.98 388.84 696.14
  Q 374.18 699.62 360.68 705.85
  C 355.13 708.42 350.35 709.94 345.18 712.38
  Q 344.41 712.74 344.36 711.89
  C 343.36 695.73 346.32 678.28 356.53 665.56
  Q 357.78 664.01 360.63 663.48
  Q 382.14 659.50 417.26 655.05
  Q 427.93 653.70 444.74 652.96
  Q 456.95 652.43 467.89 653.63
  C 480.10 654.98 487.76 661.51 491.75 673.32
  Q 493.36 678.08 494.01 685.31
  Q 495.75 704.67 489.51 726.29
  C 488.28 730.52 486.48 735.19 482.53 737.25
  Q 477.86 739.70 473.35 740.00
  C 465.84 740.51 455.93 738.68 449.86 733.69
  A 0.74 0.73 -39.2 0 1 449.99 732.47
  C 453.27 730.77 458.94 732.06 463.00 732.50
  C 467.87 733.02 473.96 732.16 474.77 726.45
  C 475.39 722.13 470.50 719.09 466.68 718.34
  Q 460.50 717.13 457.06 717.13
  Q 441.35 717.13 431.64 717.11
  Q 412.03 717.09 403.45 700.45
  C 401.92 697.48 401.34 693.54 400.18 690.68
  Z"
/>
<path fill="#d2d2d2" d="
  M 600.57 700.25
  A 1.21 1.20 -30.8 0 0 598.57 699.75
  Q 596.37 701.91 594.76 704.93
  C 592.24 709.67 589.52 713.07 585.39 715.13
  C 574.64 720.50 565.48 722.82 554.03 721.19
  Q 540.88 719.32 536.26 718.90
  Q 531.21 718.44 528.24 720.71
  C 524.44 723.61 526.00 727.58 529.88 729.15
  Q 530.62 729.45 538.96 731.85
  A 0.90 0.90 0.0 0 1 539.24 733.44
  C 533.17 737.87 521.75 738.26 514.60 737.22
  C 509.52 736.49 506.28 734.38 504.91 729.17
  C 502.63 720.50 502.75 711.19 503.75 701.82
  C 504.94 690.65 507.18 679.62 512.33 669.90
  C 515.44 664.04 519.38 661.18 526.18 660.29
  Q 533.31 659.36 540.59 660.67
  Q 552.45 662.80 563.22 666.07
  Q 589.01 673.89 607.07 679.23
  Q 615.42 681.70 625.64 683.32
  C 630.06 684.02 633.26 698.56 633.60 702.21
  Q 634.79 715.09 631.73 728.21
  A 0.66 0.66 0.0 0 1 630.74 728.62
  C 621.26 722.61 615.87 718.64 606.42 714.67
  C 603.11 713.27 600.56 710.75 600.92 707.10
  Q 601.35 702.83 600.57 700.25
  Z"
/>
<path fill="#231f20" d="
  M 541.08 769.75
  C 540.88 765.91 540.92 762.21 541.10 758.55
  Q 541.19 756.59 542.51 758.04
  C 545.16 760.96 545.74 765.37 546.40 769.15
  Q 546.87 771.86 546.81 775.97
  C 546.73 781.21 547.26 789.37 546.46 794.91
  C 545.83 799.25 545.63 802.93 544.87 807.91
  Q 543.45 817.11 543.19 826.36
  A 2.06 2.05 -8.9 0 1 541.81 828.24
  Q 539.21 829.16 536.71 827.79
  Q 536.28 827.56 536.12 827.09
  Q 534.74 823.26 535.05 820.53
  Q 536.09 811.53 539.24 793.16
  C 539.82 789.75 539.55 786.44 540.02 783.05
  Q 541.29 773.89 541.08 769.75
  Z"
/>
<path fill="#231f20" d="
  M 454.16 826.01
  C 452.52 812.00 450.91 799.79 447.67 786.40
  Q 446.15 780.13 443.76 768.78
  C 443.10 765.67 442.32 761.22 445.76 759.87
  Q 449.63 758.35 451.70 761.88
  Q 454.57 766.75 455.45 769.88
  Q 460.30 787.16 460.49 806.26
  Q 460.63 819.36 460.16 829.50
  Q 460.01 832.70 457.88 834.94
  A 1.24 1.23 -41.0 0 1 455.97 834.81
  C 454.44 832.65 454.62 829.95 454.16 826.01
  Z"
/>
<path fill="#231f20" d="
  M 84.30 778.53
  Q 83.52 777.65 83.38 777.40
  Q 82.60 776.02 83.98 776.52
  C 89.41 778.49 93.86 780.54 99.37 783.72
  Q 123.36 797.58 150.40 802.90
  C 165.50 805.87 182.14 806.22 197.57 805.81
  Q 211.60 805.43 228.98 803.55
  C 255.25 800.71 277.55 796.99 306.06 792.06
  Q 312.16 791.00 321.65 791.19
  Q 326.27 791.29 328.17 795.00
  A 1.32 1.32 0.0 0 1 327.36 796.86
  C 322.16 798.35 316.26 798.53 311.67 799.19
  C 308.49 799.64 305.13 799.93 302.14 800.42
  Q 276.52 804.57 254.31 808.04
  Q 233.50 811.30 199.99 813.11
  Q 194.34 813.41 177.25 813.18
  Q 170.20 813.09 154.29 810.42
  C 132.65 806.79 110.72 799.07 92.26 785.90
  Q 88.34 783.11 84.30 778.53
  Z"
/>
<path fill="#231f20" d="
  M 861.22 803.36
  Q 856.16 808.55 850.69 811.14
  Q 825.69 822.93 798.71 827.38
  C 785.59 829.54 771.24 831.40 757.80 831.65
  Q 721.76 832.31 687.61 825.32
  Q 629.50 813.42 629.29 813.37
  C 624.50 812.36 619.40 811.10 617.96 806.29
  A 1.04 1.03 77.0 0 1 618.78 804.97
  Q 623.93 804.10 629.48 805.05
  Q 647.54 808.11 671.83 813.41
  Q 694.51 818.36 726.57 822.48
  Q 731.11 823.06 737.02 823.26
  C 745.23 823.54 750.58 823.90 759.00 823.49
  Q 764.76 823.21 770.53 823.13
  Q 775.84 823.05 794.72 820.34
  Q 812.57 817.77 828.94 812.44
  Q 838.24 809.41 852.81 804.33
  Q 857.16 802.81 860.77 802.42
  Q 862.30 802.25 861.22 803.36
  Z"
/>
<path fill="#231f20" d="
  M 160.51 863.46
  C 160.15 858.38 159.24 852.37 159.55 848.50
  C 160.11 841.39 160.27 834.33 161.83 827.45
  Q 161.95 826.95 162.45 826.84
  C 168.81 825.49 169.27 831.63 168.49 836.25
  C 167.27 843.49 165.94 853.43 166.34 862.72
  Q 166.44 865.27 163.92 865.61
  L 163.25 865.70
  A 2.43 2.43 0.0 0 1 160.51 863.46
  Z"
/>
<path fill="#231f20" d="
  M 840.35 856.27
  C 840.69 858.43 841.01 862.93 841.03 866.26
  Q 841.05 872.30 842.17 879.13
  Q 842.43 880.69 842.22 882.55
  A 0.71 0.71 0.0 0 1 841.07 883.03
  C 838.67 881.09 837.14 875.94 836.73 873.28
  C 835.94 868.15 834.60 864.06 834.00 859.53
  Q 832.70 849.71 832.71 842.71
  C 832.71 839.83 832.22 837.71 832.03 835.09
  Q 831.87 832.73 834.23 832.73
  L 836.22 832.73
  Q 838.81 832.73 839.45 835.24
  C 840.53 839.47 839.82 844.47 840.49 849.17
  C 840.81 851.40 839.97 853.92 840.35 856.27
  Z"
/>
</svg>
