<?xml version="1.0" encoding="UTF-8" standalone="no"?>
<!DOCTYPE svg PUBLIC "-//W3C//DTD SVG 1.1//EN" "http://www.w3.org/Graphics/SVG/1.1/DTD/svg11.dtd">
<svg xmlns="http://www.w3.org/2000/svg" version="1.1" viewBox="0.00 0.00 1024.00 1024.00">
<g stroke-width="2.00" fill="none" stroke-linecap="butt">
<path stroke="#918f90" vector-effect="non-scaling-stroke" d="
  M 770.37 69.95
  L 769.86 97.02
  Q 769.85 97.75 769.13 97.73
  L 734.36 97.15
  A 0.61 0.60 0.9 0 1 733.76 96.54
  L 734.12 69.72
  Q 734.16 66.04 730.41 66.25
  Q 730.40 66.26 730.26 66.26
  Q 726.79 66.27 726.75 70.00
  L 726.52 96.14
  Q 726.51 96.80 725.85 96.79
  L 686.37 96.12
  Q 685.16 96.10 685.18 94.89
  L 685.61 69.55
  Q 685.67 65.96 682.05 66.21
  Q 681.83 66.23 681.74 66.22
  Q 678.39 66.07 678.33 70.24
  L 677.93 95.83
  A 0.50 0.50 0.0 0 1 677.42 96.33
  L 641.72 95.73
  A 0.51 0.50 -89.4 0 1 641.23 95.22
  L 641.63 70.07
  Q 641.69 66.43 638.22 66.21
  L 638.08 66.20
  Q 634.46 65.93 634.41 69.26
  L 634.00 95.03
  A 0.79 0.78 0.4 0 1 633.21 95.80
  Q 621.51 95.80 613.34 95.85
  Q 608.55 95.88 608.16 100.74
  Q 607.55 108.29 607.83 115.90
  A 0.66 0.65 -0.8 0 1 607.17 116.57
  L 579.25 116.27
  Q 575.75 116.23 575.48 119.60
  Q 575.47 119.64 575.47 119.74
  Q 575.22 123.44 578.77 123.48
  L 607.39 123.80
  A 0.59 0.58 -89.0 0 1 607.96 124.40
  L 607.41 157.58
  Q 607.40 158.16 606.81 158.15
  L 579.26 157.68
  Q 575.59 157.62 575.44 161.16
  Q 575.43 161.29 575.43 161.30
  Q 575.32 164.89 578.80 164.94
  L 607.21 165.40
  A 0.55 0.54 -88.9 0 1 607.74 165.96
  L 607.15 200.99
  A 0.67 0.67 0.0 0 1 606.48 201.65
  L 578.79 201.37
  Q 575.23 201.33 575.43 205.01
  Q 575.43 205.03 575.44 205.15
  Q 575.60 208.56 579.18 208.60
  L 606.89 208.86
  Q 607.41 208.87 607.42 209.39
  L 607.91 241.96
  A 0.50 0.49 90.0 0 1 607.41 242.47
  L 579.50 242.21
  Q 575.45 242.18 575.47 245.58
  L 575.47 245.95
  Q 575.49 249.32 578.86 249.37
  L 607.55 249.86
  Q 608.07 249.87 608.08 250.39
  Q 608.16 264.26 609.58 277.45
  C 610.14 282.59 613.94 282.95 618.03 283.08
  Q 631.86 283.49 649.31 283.97
  A 0.34 0.33 3.9 0 1 649.64 284.34
  Q 648.76 294.74 649.22 305.25
  Q 649.62 314.61 648.79 340.52
  Q 648.77 341.03 648.27 341.12
  Q 646.97 341.35 644.53 341.25
  Q 620.44 340.26 600.50 340.04
  C 594.38 339.98 593.84 343.13 593.88 348.25
  Q 594.11 377.90 594.96 411.59
  A 0.77 0.76 89.6 0 1 594.19 412.38
  Q 585.22 412.29 575.14 411.89
  C 572.72 411.79 570.02 412.13 567.50 412.20
  C 564.42 412.29 562.50 409.95 559.61 413.17
  Q 559.26 413.56 558.91 413.16
  Q 553.65 407.07 545.83 410.15
  Q 544.83 410.55 545.27 409.57
  Q 547.84 403.93 554.06 405.29
  C 557.11 405.96 559.04 407.91 561.71 409.74
  A 0.80 0.80 0.0 0 0 562.96 409.08
  C 562.98 400.94 553.47 398.35 547.10 400.31
  Q 541.09 402.16 538.99 408.17
  C 535.58 417.93 541.26 428.11 551.62 428.76
  C 558.50 429.19 564.53 425.52 566.22 418.62
  Q 566.34 418.09 566.89 418.13
  Q 578.29 418.94 597.00 418.84
  Q 598.93 418.83 600.36 418.28
  Q 600.84 418.09 601.01 417.61
  Q 601.39 416.51 601.41 413.50
  Q 601.57 380.67 601.14 348.18
  A 0.84 0.84 0.0 0 1 601.99 347.33
  Q 625.20 347.80 644.81 347.66
  C 647.92 347.64 653.99 348.35 654.74 344.24
  Q 655.29 341.18 655.33 340.25
  Q 656.07 321.66 655.38 306.00
  C 655.03 298.06 655.48 289.31 652.81 284.64
  Q 652.47 284.05 653.15 284.07
  C 691.10 284.80 731.52 285.33 770.76 284.17
  Q 778.56 283.93 785.07 282.51
  Q 788.65 281.72 785.17 280.57
  Q 779.90 278.83 773.25 278.73
  Q 762.24 278.57 693.00 278.65
  Q 690.50 278.66 688.00 278.62
  Q 646.53 278.00 627.35 277.16
  C 620.66 276.87 615.50 276.21 615.36 267.77
  Q 614.14 194.62 615.26 118.30
  C 615.38 110.35 617.13 104.12 626.25 103.72
  Q 639.92 103.11 658.77 103.41
  C 685.84 103.84 713.11 103.49 738.55 103.89
  Q 770.04 104.38 781.79 105.35
  Q 788.79 105.92 790.59 111.27
  Q 791.07 112.71 791.53 120.74
  Q 791.88 126.73 792.01 134.25
  Q 792.86 183.46 793.11 232.68
  C 793.19 246.58 793.87 256.10 795.49 270.88
  Q 796.03 275.83 796.83 270.91
  Q 797.97 263.88 798.44 253.18
  Q 798.49 251.96 799.71 251.98
  L 827.48 252.27
  Q 831.04 252.31 830.80 248.62
  Q 830.80 248.58 830.80 248.47
  Q 830.75 245.04 827.00 244.99
  L 799.41 244.69
  A 0.53 0.53 0.0 0 1 798.89 244.16
  L 799.43 212.22
  A 1.13 1.12 1.0 0 1 800.58 211.12
  L 826.76 211.50
  Q 830.48 211.55 830.75 208.08
  Q 830.76 207.94 830.76 207.91
  Q 831.10 204.24 827.50 204.20
  L 800.23 203.91
  A 0.90 0.89 -89.7 0 1 799.35 203.01
  L 799.30 167.70
  A 0.24 0.23 0.0 0 1 799.54 167.47
  L 826.97 167.90
  Q 830.74 167.96 830.76 164.40
  Q 830.76 164.30 830.76 164.25
  Q 830.96 160.72 827.26 160.66
  L 799.80 160.21
  Q 799.18 160.20 799.17 159.58
  L 798.67 126.35
  A 0.39 0.39 0.0 0 1 799.07 125.95
  Q 812.99 126.32 826.99 126.37
  Q 831.08 126.38 830.72 122.44
  C 830.58 120.88 830.43 119.69 828.77 119.43
  C 826.56 119.09 823.06 118.88 820.39 118.90
  Q 811.55 118.99 799.16 118.69
  A 0.81 0.80 -89.6 0 1 798.37 117.88
  Q 798.43 108.06 797.63 102.69
  Q 797.23 100.07 795.58 99.77
  Q 787.74 98.39 777.91 98.40
  A 0.74 0.73 -89.6 0 1 777.18 97.65
  L 777.56 74.21"
/>
<path stroke="#918f90" vector-effect="non-scaling-stroke" d="
  M 394.70 98.92
  Q 389.26 102.20 385.95 107.81
  A 0.95 0.95 0.0 0 0 386.73 109.24
  C 390.29 109.39 394.57 106.22 401.30 102.74
  C 404.16 101.26 407.56 99.35 408.81 96.80
  C 409.77 94.83 408.58 92.90 406.45 93.06
  Q 402.39 93.38 399.10 95.75
  Q 394.85 98.83 394.70 98.92"
/>
<path stroke="#e3e3e3" vector-effect="non-scaling-stroke" d="
  M 335.54 456.95
  Q 339.90 454.62 338.76 450.55
  Q 337.03 444.32 330.47 445.30"
/>
<path stroke="#918f90" vector-effect="non-scaling-stroke" d="
  M 330.47 445.30
  L 317.34 412.07
  Q 316.78 410.68 316.90 412.17
  C 318.04 427.41 323.16 442.86 329.85 456.50
  Q 336.95 470.96 341.05 477.95
  Q 344.03 483.05 340.95 487.62
  Q 339.99 489.05 338.38 489.34
  Q 330.56 490.77 324.56 491.01
  Q 296.42 492.15 267.52 485.52
  C 253.34 482.27 239.71 476.09 226.77 469.45
  Q 222.64 467.34 222.10 463.12
  Q 221.84 461.03 223.38 456.04
  Q 228.42 439.70 231.19 420.51
  Q 232.29 412.83 232.22 405.93
  C 232.16 399.49 232.23 395.39 229.04 390.72
  A 0.60 0.60 0.0 0 0 227.99 390.85
  Q 227.21 392.92 227.21 396.03
  Q 227.22 410.93 225.55 421.33
  Q 222.30 441.56 216.14 459.49
  Q 210.25 476.65 207.47 486.05
  Q 204.77 495.18 202.89 506.95
  A 0.23 0.22 -67.6 0 1 202.54 507.10
  L 191.46 499.18
  Q 190.62 498.58 191.42 497.93
  L 201.67 489.67
  Q 203.68 488.06 203.21 485.53
  Q 203.17 485.36 203.14 485.28
  Q 201.81 482.55 199.82 484.09
  Q 188.92 492.48 185.06 496.56
  Q 178.55 503.43 176.53 506.79
  C 172.05 514.27 163.99 525.28 165.53 530.82
  A 0.88 0.88 0.0 0 0 167.12 531.06
  Q 168.93 528.20 172.76 521.03
  Q 174.56 517.67 180.75 511.75
  Q 185.13 507.57 189.35 504.24
  A 0.80 0.80 0.0 0 1 190.33 504.24
  C 195.93 508.59 201.27 511.67 208.01 514.78
  Q 218.74 519.73 224.97 523.32
  Q 232.81 527.84 234.97 529.85
  Q 243.87 538.16 249.96 549.34
  Q 251.03 551.29 251.23 553.43
  A 0.39 0.39 0.0 0 1 250.68 553.82
  Q 247.19 552.24 244.19 549.71
  Q 239.33 545.61 231.62 538.36
  C 230.11 536.95 228.59 536.19 226.84 535.40
  A 0.34 0.33 -80.0 0 0 226.37 535.73
  C 226.55 538.77 226.73 540.38 228.86 542.87
  C 231.17 545.58 232.67 547.03 233.91 549.48
  C 236.75 555.10 241.47 565.88 240.04 572.16
  A 0.40 0.39 -60.7 0 1 239.37 572.35
  Q 237.29 570.13 235.62 567.28
  C 230.14 557.97 226.33 550.38 221.23 543.80
  Q 219.18 541.15 216.30 540.41
  A 0.51 0.50 -0.3 0 0 215.69 541.02
  C 216.71 544.92 218.03 548.05 220.35 552.05
  Q 225.50 560.95 227.04 571.25
  Q 227.08 571.49 227.08 571.66
  A 0.66 0.65 -68.1 0 1 225.96 572.14
  Q 222.49 568.61 219.52 564.11
  Q 212.46 553.40 207.53 542.12
  A 1.57 1.57 0.0 0 0 205.67 541.24
  C 203.76 541.78 203.15 543.32 203.44 545.22
  Q 204.21 550.20 204.97 555.18
  C 205.46 558.40 206.02 566.05 204.36 568.92
  A 0.52 0.52 0.0 0 1 203.45 568.91
  Q 202.03 566.24 201.08 563.22
  Q 193.82 540.16 192.93 537.51
  Q 192.18 535.30 191.07 534.46
  Q 183.68 528.84 176.09 525.93
  Q 173.84 525.07 175.14 527.10
  C 177.70 531.11 182.03 533.75 186.32 536.92
  Q 188.45 538.50 189.31 541.75
  Q 192.87 555.20 196.89 567.34
  Q 197.33 568.66 197.20 569.26
  C 189.10 605.30 188.06 641.40 187.84 678.24
  Q 187.54 731.36 193.03 784.29
  C 194.27 796.24 196.34 808.69 199.07 820.70
  C 206.67 854.12 223.81 887.93 257.26 901.76
  A 0.26 0.26 0.0 0 1 257.27 902.23
  C 247.64 906.63 236.92 912.08 228.29 919.03
  Q 223.42 922.96 223.92 928.17
  Q 223.97 928.69 223.45 928.73
  C 219.50 929.05 211.29 928.94 205.97 930.83
  Q 203.77 931.61 206.06 932.10
  Q 207.75 932.46 209.56 932.47
  C 221.29 932.51 232.63 932.72 243.20 932.46
  C 256.90 932.12 273.77 932.40 289.58 931.15
  Q 293.47 930.85 298.08 929.92
  A 1.52 1.52 0.0 0 0 299.12 929.12
  Q 300.06 927.23 296.79 926.76
  Q 295.52 926.58 296.01 925.39
  Q 296.17 924.98 296.26 923.86
  Q 296.75 917.42 295.70 910.87
  Q 295.32 908.51 292.86 909.33
  C 289.99 910.29 287.02 912.33 284.34 913.49
  Q 269.55 919.92 254.22 923.75
  C 245.62 925.90 237.88 927.67 230.47 926.95
  A 1.09 1.08 20.9 0 1 229.70 925.23
  C 230.62 923.96 232.19 922.40 233.64 921.39
  Q 240.71 916.46 255.59 908.87
  C 258.44 907.41 260.06 906.55 263.20 907.08
  Q 271.50 908.48 277.88 907.25
  Q 282.25 906.41 285.30 906.36
  C 296.77 906.15 307.97 903.35 317.75 897.48
  C 344.42 881.44 344.27 850.28 338.86 823.43
  C 332.24 790.58 323.06 744.22 316.61 704.32
  Q 312.87 681.21 310.80 658.68
  Q 310.22 652.33 311.86 658.49
  Q 314.25 667.45 316.92 680.43
  Q 318.18 686.61 330.41 752.22
  Q 335.96 781.94 341.67 808.87
  Q 344.81 823.66 346.77 837.80
  C 348.35 849.24 347.35 862.29 341.44 872.44
  A 1.83 1.81 54.3 0 0 341.23 873.77
  Q 342.64 880.01 348.23 883.90
  C 359.55 891.78 373.53 893.83 386.72 891.70
  C 399.22 889.68 411.94 882.61 417.44 870.94
  Q 420.94 863.52 421.58 854.54
  C 423.00 834.63 419.35 813.90 414.67 794.56
  C 408.57 769.40 402.36 749.78 393.03 719.72
  C 388.32 704.53 385.67 689.84 380.79 664.18
  Q 378.53 652.26 377.32 644.49
  Q 368.28 586.25 367.33 527.53
  C 367.20 518.94 366.58 512.79 365.17 504.58
  A 0.44 0.43 -76.0 0 1 365.86 504.16
  Q 373.46 510.09 382.73 512.56
  C 401.66 517.60 414.82 506.13 420.07 488.84
  Q 424.27 474.99 424.62 461.23
  Q 425.59 422.46 410.00 385.27
  C 401.77 365.65 388.58 345.70 374.55 328.94
  A 0.58 0.58 0.0 0 1 374.82 328.02
  C 382.22 325.62 391.16 319.54 391.51 311.01
  Q 391.55 310.18 391.88 310.94
  Q 393.14 313.76 393.09 317.31
  C 392.98 325.72 386.81 327.78 379.48 331.66
  A 1.28 1.28 0.0 0 0 379.37 333.86
  C 380.63 334.72 381.98 335.39 383.71 335.26
  C 392.17 334.61 398.80 328.15 399.89 319.72
  C 400.93 311.68 396.62 304.47 392.73 296.82
  C 390.21 291.87 399.73 286.25 402.43 282.19
  C 408.90 272.49 406.69 262.65 399.72 254.24
  C 392.50 245.53 384.51 240.29 384.42 227.75
  C 384.35 218.24 387.29 208.96 387.98 199.59
  Q 389.17 183.51 388.01 173.29
  C 384.92 146.04 367.99 114.06 336.60 112.59
  C 323.12 111.97 311.16 119.24 306.26 131.67
  A 0.16 0.15 -48.9 0 1 305.98 131.69
  Q 300.45 122.18 290.69 116.13
  C 270.49 103.60 245.52 105.45 225.29 117.27
  C 205.53 128.82 190.32 147.36 182.34 168.07
  Q 180.43 173.03 173.35 192.36
  C 168.77 204.83 160.95 218.51 149.52 225.00
  C 139.50 230.69 131.30 236.02 127.00 246.68
  Q 122.29 258.38 129.20 267.75
  C 133.40 273.45 143.87 278.23 137.90 286.17
  C 134.62 290.54 130.08 295.58 128.47 300.41
  C 124.44 312.49 132.43 323.87 145.05 324.65
  C 148.61 324.87 156.46 324.01 161.07 326.19
  C 165.60 328.34 164.46 333.50 164.63 338.99
  C 164.92 348.78 167.34 353.63 177.69 355.38
  Q 178.39 355.49 177.88 355.98
  Q 170.57 363.07 163.92 369.91
  Q 148.22 386.04 135.11 404.86
  C 125.11 419.20 116.81 435.95 114.23 453.29
  C 111.37 472.42 121.20 491.06 132.82 505.47
  C 142.13 517.01 149.74 525.05 162.13 531.20
  A 0.45 0.45 0.0 0 0 162.69 530.53
  C 158.43 524.81 152.79 518.84 141.65 506.25
  C 129.53 492.55 117.39 472.49 120.20 453.75
  Q 121.98 441.90 127.41 430.65
  C 137.97 408.80 153.02 389.89 170.07 372.58
  Q 200.94 341.23 235.41 317.14
  C 243.69 311.36 251.20 306.03 260.41 303.05
  C 268.00 300.59 273.55 304.66 281.30 308.75
  C 292.94 314.90 307.86 314.68 320.36 310.70
  A 0.52 0.51 72.9 0 1 321.01 311.05
  L 321.97 314.44
  A 0.70 0.69 -21.5 0 1 321.61 315.25
  Q 317.36 317.38 315.68 321.71
  A 1.65 1.61 85.6 0 1 315.03 322.49
  C 310.51 325.27 309.06 328.31 306.81 331.38
  Q 304.49 334.53 303.63 336.82
  Q 299.60 347.50 304.45 358.28
  C 307.34 364.69 312.06 371.50 316.03 376.67
  C 321.27 383.49 324.03 388.90 329.55 397.66
  A 0.71 0.71 0.0 0 1 328.97 398.74
  Q 323.87 398.84 321.10 402.34
  Q 320.79 402.73 320.32 402.91
  L 318.13 403.76
  Q 316.19 404.50 318.13 405.25
  Q 321.00 406.35 324.75 406.20
  Q 340.78 405.56 355.79 400.39
  C 362.75 397.99 371.95 395.05 376.60 389.36
  C 378.68 386.81 378.81 383.24 376.19 381.10
  C 372.23 377.86 364.98 377.50 360.03 378.20
  Q 358.01 378.49 357.96 379.98
  Q 357.96 380.19 357.80 380.31
  L 357.43 380.61
  Q 357.18 380.81 357.19 380.49
  Q 357.26 367.53 358.90 354.49
  C 359.74 347.88 359.87 343.49 358.86 337.45
  Q 358.26 333.89 356.73 331.75
  C 353.65 327.43 346.79 320.38 341.02 320.26
  A 0.88 0.88 0.0 0 1 340.19 319.62
  L 336.09 305.15
  A 1.05 1.05 0.0 0 1 336.41 304.09
  Q 337.75 302.92 338.95 303.81
  C 360.20 319.61 378.11 341.16 391.76 363.55
  C 411.68 396.22 422.72 437.14 417.34 475.34
  Q 415.71 486.88 409.52 496.73
  C 397.87 515.25 378.36 509.34 364.81 497.43
  C 352.29 486.42 342.73 472.10 335.54 456.95"
/>
<path stroke="#757374" vector-effect="non-scaling-stroke" d="
  M 330.47 445.30
  L 335.54 456.95"
/>
<path stroke="#918f90" vector-effect="non-scaling-stroke" d="
  M 399.89 126.25
  Q 400.36 127.50 404.19 126.59
  Q 407.91 125.70 416.48 123.48
  C 419.87 122.61 427.35 120.29 425.93 116.50
  C 424.51 112.70 417.35 115.88 414.22 117.44
  Q 406.30 121.40 402.91 123.18
  Q 399.42 125.01 399.89 126.25"
/>
<path stroke="#e3e3e3" vector-effect="non-scaling-stroke" d="
  M 637.82 182.95
  Q 637.19 193.74 637.32 198.75
  C 637.79 216.87 637.29 235.79 638.20 255.69
  C 638.31 258.03 638.15 259.63 640.97 259.84
  Q 644.98 260.15 649.00 260.19
  Q 678.84 260.49 708.89 260.73"
/>
<path stroke="#918f90" vector-effect="non-scaling-stroke" d="
  M 708.89 260.73
  Q 709.22 262.49 712.50 262.62
  Q 720.63 262.95 728.75 262.47
  C 736.34 262.03 754.11 262.88 769.58 262.55
  Q 774.13 262.45 774.38 257.59
  Q 775.89 228.17 775.64 204.52
  Q 775.61 201.27 775.35 197.25
  Q 775.09 193.25 772.35 193.10"
/>
<path stroke="#e3e3e3" vector-effect="non-scaling-stroke" d="
  M 772.35 193.10
  Q 772.29 168.85 771.66 144.50
  Q 771.58 141.40 770.52 128.00
  C 770.33 125.55 769.96 123.29 767.02 122.77
  Q 761.03 121.70 754.58 121.38
  Q 725.73 119.94 697.00 120.29
  Q 696.32 120.29 696.11 119.49"
/>
<path stroke="#918f90" vector-effect="non-scaling-stroke" d="
  M 696.11 119.49
  Q 697.06 118.98 697.32 118.39
  Q 697.56 117.88 697.04 117.64
  C 693.26 115.92 687.26 115.91 683.57 115.98
  Q 681.51 116.02 649.50 114.97
  Q 646.77 114.88 643.16 115.22
  C 639.21 115.58 636.26 115.51 635.98 120.00
  Q 634.14 149.20 634.44 177.00
  C 634.47 179.41 634.23 183.49 637.82 182.95"
/>
<path stroke="#757374" vector-effect="non-scaling-stroke" d="
  M 696.11 119.49
  Q 691.78 121.73 685.37 121.82
  Q 670.19 122.03 664.28 121.70
  C 656.75 121.28 650.23 121.64 643.25 121.95
  A 0.64 0.62 -89.0 0 0 642.65 122.54
  Q 640.88 148.08 640.79 175.55
  Q 640.78 176.16 640.64 178.82
  Q 640.46 181.88 637.82 182.95"
/>
<path stroke="#757374" vector-effect="non-scaling-stroke" d="
  M 772.35 193.10
  Q 768.80 194.70 768.95 199.01
  C 769.67 218.93 769.02 236.56 768.52 255.71
  Q 768.49 256.62 767.59 256.67
  Q 748.64 257.65 730.27 257.23
  Q 725.76 257.12 716.88 258.02
  Q 714.68 258.24 712.80 259.03
  Q 710.65 259.93 708.89 260.73"
/>
<path stroke="#918f90" vector-effect="non-scaling-stroke" d="
  M 416.24 146.05
  C 413.61 146.20 407.16 147.66 405.75 150.39
  A 1.08 1.06 -44.4 0 0 405.73 151.35
  Q 406.69 153.46 408.74 153.37
  C 412.68 153.21 415.27 153.12 419.42 153.39
  C 421.68 153.54 429.07 153.84 430.49 151.48
  Q 432.26 148.55 429.54 146.92
  C 424.70 144.03 420.71 145.81 416.24 146.05"
/>
<path stroke="#918f90" vector-effect="non-scaling-stroke" d="
  M 835.38 377.39
  C 830.24 380.63 829.16 388.10 833.55 392.50
  Q 834.87 393.82 833.14 393.11
  Q 827.36 390.72 827.38 384.59
  Q 827.39 382.63 827.14 382.13
  C 826.09 379.96 823.72 380.23 821.18 379.91
  Q 819.09 379.65 817.32 379.65
  Q 802.30 379.63 788.88 378.09
  A 1.56 1.56 0.0 0 1 787.50 376.55
  L 787.46 348.67
  Q 787.46 344.59 783.38 344.52
  L 756.53 344.07
  A 0.66 0.65 89.5 0 1 755.89 343.43
  Q 755.61 334.87 756.09 325.75
  Q 756.36 320.41 755.78 301.75
  Q 755.56 294.55 752.66 288.49
  Q 752.37 287.88 751.79 288.34
  A 0.54 0.47 79.8 0 0 751.61 288.64
  Q 750.22 294.94 750.09 303.59
  Q 749.88 318.08 749.58 333.59
  Q 749.46 339.57 749.94 344.57
  C 750.26 347.83 751.09 350.55 755.01 350.50
  Q 769.34 350.32 779.52 350.75
  Q 780.79 350.80 780.75 352.07
  Q 780.32 365.00 780.53 375.36
  C 780.60 378.76 780.96 383.29 784.40 384.10
  Q 788.91 385.16 794.73 385.60
  Q 811.71 386.88 822.12 386.59
  A 0.61 0.60 84.0 0 1 822.74 387.10
  C 824.10 395.94 833.31 402.16 841.79 397.78
  C 851.51 392.78 853.79 379.85 845.33 372.69
  C 839.34 367.63 830.92 368.18 826.32 374.79
  C 824.15 377.91 827.80 380.68 830.35 379.95
  A 2.05 1.90 -72.6 0 0 831.17 379.48
  Q 833.29 377.50 835.24 377.05
  Q 836.32 376.80 835.38 377.39"
/>
<path stroke="#918f90" vector-effect="non-scaling-stroke" d="
  M 687.01 490.98
  Q 687.67 488.31 687.67 485.00
  Q 687.66 476.85 687.70 471.73
  A 0.85 0.83 -1.9 0 1 688.48 470.91
  C 700.75 470.08 717.20 470.31 728.51 469.89
  Q 731.80 469.76 733.16 469.05
  Q 733.60 468.82 733.79 468.36
  Q 734.39 466.86 734.45 465.25
  Q 735.49 438.36 734.91 410.01
  Q 734.83 406.52 734.08 404.01
  A 2.36 2.35 -7.1 0 0 731.92 402.33
  L 703.80 401.15
  A 0.55 0.55 0.0 0 1 703.27 400.63
  Q 702.81 389.93 703.05 383.25
  Q 704.54 341.31 704.25 309.51
  Q 704.18 301.94 701.73 295.21
  Q 700.81 292.68 700.16 295.29
  Q 699.21 299.13 698.89 304.31
  C 698.09 317.56 698.46 337.33 698.11 352.77
  Q 697.49 380.39 697.58 398.25
  Q 697.60 401.41 698.24 404.66
  A 2.20 2.19 0.6 0 0 699.92 406.37
  Q 702.87 407.02 705.04 407.11
  Q 719.80 407.71 727.21 408.14
  A 1.02 1.02 0.0 0 1 728.18 409.14
  Q 728.69 432.49 727.73 461.88
  Q 727.69 463.09 726.48 463.04
  Q 706.01 462.23 685.82 463.03
  Q 679.90 463.26 679.98 468.81
  Q 680.15 480.68 681.74 491.53
  A 0.45 0.43 -15.1 0 1 681.46 492.00
  C 670.38 496.52 666.46 510.90 677.60 518.29
  Q 685.76 523.70 693.69 518.93
  C 700.97 514.55 703.86 503.80 697.39 497.32
  C 695.16 495.09 691.66 497.92 691.43 500.00
  Q 691.38 500.47 691.59 500.97
  Q 691.85 501.61 692.77 503.27
  C 695.43 508.04 692.00 513.34 687.05 514.08
  C 681.34 514.94 675.70 510.46 677.04 504.55
  C 677.94 500.60 681.39 497.61 685.39 496.50
  Q 686.83 496.11 689.16 494.97
  A 1.00 1.00 0.0 0 0 689.31 493.26
  L 687.33 491.85
  A 0.83 0.81 25.3 0 1 687.01 490.98"
/>
<path stroke="#e3e3e3" vector-effect="non-scaling-stroke" d="
  M 274.1022 351.3978
  A 4.13 4.13 0.0 0 0 270.0522 347.1892
  L 269.1924 347.1727
  A 4.13 4.13 0.0 0 0 264.9839 351.2227
  L 264.9378 353.6222
  A 4.13 4.13 0.0 0 0 268.9878 357.8308
  L 269.8476 357.8473
  A 4.13 4.13 0.0 0 0 274.0561 353.7973
  L 274.1022 351.3978"
/>
<path stroke="#918f90" vector-effect="non-scaling-stroke" d="
  M 400.70 422.06
  C 399.38 421.00 398.04 420.67 397.11 418.71
  Q 392.80 409.64 389.13 398.32
  C 387.99 394.81 385.83 388.98 382.10 390.78
  A 1.95 1.95 0.0 0 0 381.16 393.33
  C 384.34 400.50 386.49 407.78 390.40 415.26
  Q 393.83 421.82 395.59 424.37
  Q 397.88 427.68 401.40 429.19
  A 0.61 0.61 0.0 0 0 402.24 428.53
  L 401.31 423.08
  Q 401.20 422.45 400.70 422.06"
/>
<path stroke="#e3e3e3" vector-effect="non-scaling-stroke" d="
  M 152.17 407.35
  L 148.19 412.94
  A 2.24 2.24 0.0 0 0 148.71 416.06
  L 150.04 417.01
  A 5.68 5.67 35.5 0 0 157.96 415.70
  L 157.96 415.70
  A 5.68 5.67 35.5 0 0 156.63 407.78
  L 155.29 406.83
  A 2.24 2.24 0.0 0 0 152.17 407.35"
/>
<path stroke="#918f90" vector-effect="non-scaling-stroke" d="
  M 180.00 452.87
  A 1.50 1.49 -41.3 0 1 180.11 451.29
  Q 192.07 434.71 208.35 421.04
  Q 210.35 419.36 208.32 417.71
  L 208.12 417.55
  A 3.73 3.65 -45.1 0 0 203.45 417.61
  Q 187.36 430.86 175.57 447.28
  C 172.53 451.52 173.49 454.34 176.25 458.44
  C 181.29 465.93 185.92 472.33 193.11 477.87
  Q 197.31 481.09 202.33 480.73
  A 0.39 0.38 65.6 0 0 202.57 480.08
  C 199.24 476.64 194.40 472.98 191.29 469.34
  Q 184.47 461.37 180.00 452.87"
/>
<path stroke="#e3e3e3" vector-effect="non-scaling-stroke" d="
  M 251.5633 443.7199
  A 5.63 4.40 126.6 0 0 258.4524 441.8234
  A 5.63 4.40 126.6 0 0 258.2767 434.6801
  A 5.63 4.40 126.6 0 0 251.3876 436.5766
  A 5.63 4.40 126.6 0 0 251.5633 443.7199"
/>
<path stroke="#e3e3e3" vector-effect="non-scaling-stroke" d="
  M 402.43 468.55
  L 397.51 461.89
  A 2.00 2.00 0.0 0 0 394.71 461.47
  L 394.03 461.98
  A 6.01 5.73 53.5 0 0 392.99 470.22
  L 393.15 470.43
  A 6.01 5.73 53.5 0 0 401.33 471.85
  L 402.01 471.34
  A 2.00 2.00 0.0 0 0 402.43 468.55"
/>
<path stroke="#e3e3e3" vector-effect="non-scaling-stroke" d="
  M 163.6021 482.5741
  A 5.10 4.62 47.4 0 0 163.5508 475.6928
  A 5.10 4.62 47.4 0 0 156.6979 475.0659
  A 5.10 4.62 47.4 0 0 156.7492 481.9472
  A 5.10 4.62 47.4 0 0 163.6021 482.5741"
/>
<path stroke="#918f90" vector-effect="non-scaling-stroke" d="
  M 368.03 918.93
  A 0.30 0.30 0.0 0 1 367.75 919.32
  Q 358.47 919.65 349.41 921.44
  A 0.49 0.48 -6.5 0 0 349.02 921.92
  Q 349.03 922.67 350.02 922.70
  Q 382.86 923.87 412.77 923.69
  Q 422.86 923.63 430.81 921.83
  Q 433.13 921.31 434.09 919.76
  Q 436.42 916.03 435.42 912.87
  C 434.46 909.90 430.75 906.45 428.16 904.45
  Q 417.64 896.37 404.40 892.11
  Q 400.88 890.97 397.64 891.88
  Q 394.85 892.67 397.60 893.99
  Q 398.87 894.59 412.17 900.36
  Q 418.87 903.27 426.40 909.65
  C 427.91 910.92 428.71 912.72 429.10 914.72
  A 0.98 0.97 82.0 0 1 428.23 915.88
  Q 422.63 916.35 417.20 915.08
  C 406.33 912.54 396.11 909.21 378.31 903.68
  C 375.05 902.67 366.76 900.06 366.46 905.65
  Q 366.08 912.85 368.03 918.93"
/>
<path stroke="#918f90" vector-effect="non-scaling-stroke" d="
  M 377.36 153.92
  C 372.47 140.53 362.84 126.91 349.67 121.65
  C 338.51 117.20 326.62 117.44 317.57 125.41
  Q 317.16 125.77 317.68 125.60
  Q 319.22 125.10 322.44 123.94
  C 344.15 116.15 367.45 136.60 377.16 154.01
  Q 377.83 155.21 377.36 153.92"
/>
<path stroke="#918f90" vector-effect="non-scaling-stroke" d="
  M 315.66 174.11
  Q 307.73 166.48 306.08 165.56
  Q 300.22 162.29 294.73 164.22
  Q 285.03 167.62 279.10 177.31
  Q 268.88 194.00 267.37 196.41
  C 261.30 206.17 248.06 223.88 234.27 219.60
  C 230.34 218.38 227.02 213.93 223.17 213.70
  C 220.13 213.52 216.74 214.84 214.73 217.18
  C 206.47 226.86 213.45 236.60 223.53 240.01
  Q 225.59 240.71 232.46 241.84
  Q 232.98 241.93 232.94 241.41
  C 232.66 237.72 232.87 233.69 235.07 230.90
  A 0.52 0.52 0.0 0 1 235.96 231.02
  Q 236.65 232.61 236.86 233.73
  Q 238.80 243.79 240.16 249.51
  Q 245.76 273.09 265.19 287.02
  C 280.06 297.68 299.62 303.12 317.82 299.45
  A 0.52 0.51 -8.1 0 0 318.24 298.90
  C 317.84 293.71 317.28 290.15 318.98 285.76
  C 321.06 280.43 326.23 281.99 328.63 285.91
  Q 330.32 288.68 331.71 291.60
  A 0.59 0.59 0.0 0 0 332.62 291.80
  C 339.26 286.21 343.86 280.38 347.42 272.15
  Q 351.30 263.19 353.29 252.79
  C 358.18 227.07 356.05 199.19 340.98 176.99
  C 338.01 172.61 331.12 164.85 325.30 166.70
  Q 318.83 168.77 316.25 174.00
  Q 316.03 174.46 315.66 174.11"
/>
<path stroke="#918f90" vector-effect="non-scaling-stroke" d="
  M 343.13 337.26
  C 339.47 334.73 338.16 330.11 336.65 325.08
  Q 334.47 317.80 333.42 313.71
  Q 331.78 307.32 329.94 302.57
  Q 326.69 294.16 325.53 291.67
  Q 323.88 288.16 323.63 292.02
  Q 323.42 295.27 323.76 298.53
  Q 325.21 312.41 330.64 327.37
  A 5.28 5.25 48.6 0 1 330.39 331.55
  Q 330.34 331.66 330.28 331.73
  A 1.42 1.38 -40.0 0 1 327.95 331.55
  Q 324.51 325.13 323.96 321.59
  A 0.67 0.67 0.0 0 0 322.80 321.25
  Q 320.66 323.70 320.90 326.74
  Q 321.42 333.27 323.32 339.43
  Q 324.24 342.41 321.65 340.68
  C 318.62 338.66 317.49 334.17 316.38 330.20
  Q 316.00 328.88 315.21 330.00
  L 313.74 332.05
  Q 312.84 333.31 313.10 334.83
  L 315.20 347.14
  A 1.17 1.17 0.0 0 1 313.55 348.39
  C 309.57 346.50 310.15 343.57 308.48 340.28
  Q 308.13 339.59 307.93 340.34
  Q 306.25 346.61 307.72 351.26
  C 310.96 361.50 319.02 371.68 323.62 378.62
  Q 330.61 389.17 333.93 397.75
  Q 334.11 398.21 334.61 398.15
  C 343.19 397.04 348.68 396.31 355.22 393.62
  A 0.43 0.43 0.0 0 0 355.42 393.00
  Q 353.23 389.43 352.57 384.47
  Q 351.54 376.79 352.27 365.25
  C 352.59 360.15 354.52 349.69 354.60 342.58
  C 354.69 334.09 348.77 328.81 342.27 324.65
  Q 341.35 324.07 341.69 325.10
  Q 343.65 330.90 343.79 336.91
  A 0.42 0.42 0.0 0 1 343.13 337.26"
/>
<path stroke="#918f90" vector-effect="non-scaling-stroke" d="
  M 189.13 344.88
  C 182.14 346.86 175.73 345.81 171.48 340.51
  A 0.31 0.31 0.0 0 0 170.93 340.67
  C 170.30 347.88 176.48 349.91 182.80 350.10
  A 3.30 3.27 -64.7 0 0 185.08 349.27
  L 189.41 345.39
  Q 190.37 344.53 189.13 344.88"
/>
<path stroke="#918f90" vector-effect="non-scaling-stroke" d="
  M 359.43 382.96
  L 358.11 381.31
  Q 357.81 380.95 357.79 381.41
  Q 357.67 384.13 358.66 386.27
  Q 358.87 386.74 359.38 386.65
  C 361.16 386.34 370.64 385.20 370.64 385.19
  Q 370.75 385.08 370.73 384.84
  Q 370.69 384.41 370.26 384.36
  L 360.13 383.34
  Q 359.70 383.29 359.43 382.96"
/>
<path stroke="#918f90" vector-effect="non-scaling-stroke" d="
  M 290.97 926.04
  L 290.07 917.86
  Q 290.02 917.42 289.62 917.61
  Q 276.99 923.41 265.27 926.80
  Q 260.26 928.25 265.44 927.73
  Q 265.51 927.72 268.00 927.71
  Q 275.64 927.67 290.43 926.68
  A 0.58 0.57 -5.2 0 0 290.97 926.04"
/>
<path stroke="#918f90" vector-effect="non-scaling-stroke" d="
  M 285.03 205.30
  C 287.91 206.94 290.81 204.51 293.89 206.04
  Q 295.63 206.90 298.53 208.26
  C 301.16 209.49 306.68 210.27 307.56 206.23
  C 308.20 203.33 301.88 200.76 300.15 200.41
  C 293.33 199.03 284.35 199.85 279.44 205.45
  Q 276.58 208.71 280.60 207.01
  Q 281.18 206.77 283.65 205.31
  A 1.37 1.35 44.1 0 1 285.03 205.30"
/>
<path stroke="#918f90" vector-effect="non-scaling-stroke" d="
  M 325.67 208.30
  Q 329.25 207.82 331.31 208.51
  C 333.75 209.34 335.66 210.24 337.69 209.22
  Q 338.15 208.98 338.27 208.48
  C 339.55 203.33 334.31 201.40 330.00 201.35
  Q 323.17 201.29 318.65 205.67
  Q 310.92 213.17 311.94 224.41
  C 312.73 233.00 317.47 249.18 327.56 250.84
  A 0.62 0.61 -9.8 0 0 328.20 249.94
  Q 326.49 246.80 322.54 240.79
  C 316.98 232.35 314.19 219.46 321.13 210.94
  Q 322.98 208.67 325.67 208.30"
/>
<path stroke="#918f90" vector-effect="non-scaling-stroke" d="
  M 326.50 222.04
  C 326.60 225.79 328.58 230.47 333.02 230.01
  C 339.22 229.37 339.30 219.90 335.31 217.06
  C 331.54 214.37 319.02 217.86 318.88 223.35
  A 1.26 1.26 0.0 0 0 320.77 224.47
  L 325.73 221.61
  A 0.52 0.51 74.0 0 1 326.50 222.04"
/>
<path stroke="#918f90" vector-effect="non-scaling-stroke" d="
  M 293.51 223.99
  C 293.61 227.75 295.60 232.43 300.04 231.97
  C 306.24 231.33 306.32 221.85 302.33 219.01
  C 298.56 216.32 286.03 219.81 285.89 225.30
  A 1.26 1.26 0.0 0 0 287.78 226.42
  L 292.74 223.56
  A 0.52 0.51 74.0 0 1 293.51 223.99"
/>
<path stroke="#918f90" vector-effect="non-scaling-stroke" d="
  M 316.7668 278.1099
  A 4.43 3.97 90.3 0 0 320.7599 273.7008
  A 4.43 3.97 90.3 0 0 316.8132 269.2501
  A 4.43 3.97 90.3 0 0 312.8201 273.6592
  A 4.43 3.97 90.3 0 0 316.7668 278.1099"
/>
<path stroke="#918f90" vector-effect="non-scaling-stroke" d="
  M 403.07 918.57
  Q 404.58 918.53 403.13 918.09
  L 373.65 909.04
  Q 372.29 908.63 372.31 910.06
  L 372.40 916.18
  Q 372.41 916.51 372.27 916.95
  L 371.70 918.81
  Q 371.53 919.35 372.10 919.34
  L 403.07 918.57"
/>
</g>
<path fill="#ffffff" d="
  M 523.38 0.00
  Q 539.45 0.71 555.50 1.74
  C 559.08 1.97 564.02 2.92 567.46 2.93
  C 570.05 2.94 572.27 3.79 574.57 3.87
  Q 576.61 3.94 579.97 4.55
  Q 583.73 5.23 587.52 5.74
  Q 620.63 10.19 659.51 21.84
  Q 717.96 39.35 770.37 69.95
  L 769.86 97.02
  Q 769.85 97.75 769.13 97.73
  L 734.36 97.15
  A 0.61 0.60 0.9 0 1 733.76 96.54
  L 734.12 69.72
  Q 734.16 66.04 730.41 66.25
  Q 730.40 66.26 730.26 66.26
  Q 726.79 66.27 726.75 70.00
  L 726.52 96.14
  Q 726.51 96.80 725.85 96.79
  L 686.37 96.12
  Q 685.16 96.10 685.18 94.89
  L 685.61 69.55
  Q 685.67 65.96 682.05 66.21
  Q 681.83 66.23 681.74 66.22
  Q 678.39 66.07 678.33 70.24
  L 677.93 95.83
  A 0.50 0.50 0.0 0 1 677.42 96.33
  L 641.72 95.73
  A 0.51 0.50 -89.4 0 1 641.23 95.22
  L 641.63 70.07
  Q 641.69 66.43 638.22 66.21
  L 638.08 66.20
  Q 634.46 65.93 634.41 69.26
  L 634.00 95.03
  A 0.79 0.78 0.4 0 1 633.21 95.80
  Q 621.51 95.80 613.34 95.85
  Q 608.55 95.88 608.16 100.74
  Q 607.55 108.29 607.83 115.90
  A 0.66 0.65 -0.8 0 1 607.17 116.57
  L 579.25 116.27
  Q 575.75 116.23 575.48 119.60
  Q 575.47 119.64 575.47 119.74
  Q 575.22 123.44 578.77 123.48
  L 607.39 123.80
  A 0.59 0.58 -89.0 0 1 607.96 124.40
  L 607.41 157.58
  Q 607.40 158.16 606.81 158.15
  L 579.26 157.68
  Q 575.59 157.62 575.44 161.16
  Q 575.43 161.29 575.43 161.30
  Q 575.32 164.89 578.80 164.94
  L 607.21 165.40
  A 0.55 0.54 -88.9 0 1 607.74 165.96
  L 607.15 200.99
  A 0.67 0.67 0.0 0 1 606.48 201.65
  L 578.79 201.37
  Q 575.23 201.33 575.43 205.01
  Q 575.43 205.03 575.44 205.15
  Q 575.60 208.56 579.18 208.60
  L 606.89 208.86
  Q 607.41 208.87 607.42 209.39
  L 607.91 241.96
  A 0.50 0.49 90.0 0 1 607.41 242.47
  L 579.50 242.21
  Q 575.45 242.18 575.47 245.58
  L 575.47 245.95
  Q 575.49 249.32 578.86 249.37
  L 607.55 249.86
  Q 608.07 249.87 608.08 250.39
  Q 608.16 264.26 609.58 277.45
  C 610.14 282.59 613.94 282.95 618.03 283.08
  Q 631.86 283.49 649.31 283.97
  A 0.34 0.33 3.9 0 1 649.64 284.34
  Q 648.76 294.74 649.22 305.25
  Q 649.62 314.61 648.79 340.52
  Q 648.77 341.03 648.27 341.12
  Q 646.97 341.35 644.53 341.25
  Q 620.44 340.26 600.50 340.04
  C 594.38 339.98 593.84 343.13 593.88 348.25
  Q 594.11 377.90 594.96 411.59
  A 0.77 0.76 89.6 0 1 594.19 412.38
  Q 585.22 412.29 575.14 411.89
  C 572.72 411.79 570.02 412.13 567.50 412.20
  C 564.42 412.29 562.50 409.95 559.61 413.17
  Q 559.26 413.56 558.91 413.16
  Q 553.65 407.07 545.83 410.15
  Q 544.83 410.55 545.27 409.57
  Q 547.84 403.93 554.06 405.29
  C 557.11 405.96 559.04 407.91 561.71 409.74
  A 0.80 0.80 0.0 0 0 562.96 409.08
  C 562.98 400.94 553.47 398.35 547.10 400.31
  Q 541.09 402.16 538.99 408.17
  C 535.58 417.93 541.26 428.11 551.62 428.76
  C 558.50 429.19 564.53 425.52 566.22 418.62
  Q 566.34 418.09 566.89 418.13
  Q 578.29 418.94 597.00 418.84
  Q 598.93 418.83 600.36 418.28
  Q 600.84 418.09 601.01 417.61
  Q 601.39 416.51 601.41 413.50
  Q 601.57 380.67 601.14 348.18
  A 0.84 0.84 0.0 0 1 601.99 347.33
  Q 625.20 347.80 644.81 347.66
  C 647.92 347.64 653.99 348.35 654.74 344.24
  Q 655.29 341.18 655.33 340.25
  Q 656.07 321.66 655.38 306.00
  C 655.03 298.06 655.48 289.31 652.81 284.64
  Q 652.47 284.05 653.15 284.07
  C 691.10 284.80 731.52 285.33 770.76 284.17
  Q 778.56 283.93 785.07 282.51
  Q 788.65 281.72 785.17 280.57
  Q 779.90 278.83 773.25 278.73
  Q 762.24 278.57 693.00 278.65
  Q 690.50 278.66 688.00 278.62
  Q 646.53 278.00 627.35 277.16
  C 620.66 276.87 615.50 276.21 615.36 267.77
  Q 614.14 194.62 615.26 118.30
  C 615.38 110.35 617.13 104.12 626.25 103.72
  Q 639.92 103.11 658.77 103.41
  C 685.84 103.84 713.11 103.49 738.55 103.89
  Q 770.04 104.38 781.79 105.35
  Q 788.79 105.92 790.59 111.27
  Q 791.07 112.71 791.53 120.74
  Q 791.88 126.73 792.01 134.25
  Q 792.86 183.46 793.11 232.68
  C 793.19 246.58 793.87 256.10 795.49 270.88
  Q 796.03 275.83 796.83 270.91
  Q 797.97 263.88 798.44 253.18
  Q 798.49 251.96 799.71 251.98
  L 827.48 252.27
  Q 831.04 252.31 830.80 248.62
  Q 830.80 248.58 830.80 248.47
  Q 830.75 245.04 827.00 244.99
  L 799.41 244.69
  A 0.53 0.53 0.0 0 1 798.89 244.16
  L 799.43 212.22
  A 1.13 1.12 1.0 0 1 800.58 211.12
  L 826.76 211.50
  Q 830.48 211.55 830.75 208.08
  Q 830.76 207.94 830.76 207.91
  Q 831.10 204.24 827.50 204.20
  L 800.23 203.91
  A 0.90 0.89 -89.7 0 1 799.35 203.01
  L 799.30 167.70
  A 0.24 0.23 0.0 0 1 799.54 167.47
  L 826.97 167.90
  Q 830.74 167.96 830.76 164.40
  Q 830.76 164.30 830.76 164.25
  Q 830.96 160.72 827.26 160.66
  L 799.80 160.21
  Q 799.18 160.20 799.17 159.58
  L 798.67 126.35
  A 0.39 0.39 0.0 0 1 799.07 125.95
  Q 812.99 126.32 826.99 126.37
  Q 831.08 126.38 830.72 122.44
  C 830.58 120.88 830.43 119.69 828.77 119.43
  C 826.56 119.09 823.06 118.88 820.39 118.90
  Q 811.55 118.99 799.16 118.69
  A 0.81 0.80 -89.6 0 1 798.37 117.88
  Q 798.43 108.06 797.63 102.69
  Q 797.23 100.07 795.58 99.77
  Q 787.74 98.39 777.91 98.40
  A 0.74 0.73 -89.6 0 1 777.18 97.65
  L 777.56 74.21
  Q 805.10 91.02 828.61 109.64
  Q 930.01 189.94 982.04 308.97
  Q 1008.20 368.83 1018.71 438.50
  C 1018.95 440.07 1019.00 442.25 1019.41 444.11
  Q 1019.98 446.72 1020.02 448.30
  C 1020.11 451.75 1021.12 454.48 1021.08 457.92
  Q 1021.08 458.44 1021.91 465.06
  Q 1023.01 473.87 1024.00 501.74
  L 1024.00 521.64
  Q 1023.07 550.32 1021.86 559.50
  Q 1021.05 565.63 1021.06 566.53
  C 1021.10 569.24 1020.30 571.59 1020.11 574.33
  Q 1019.82 578.31 1019.35 580.14
  Q 1019.07 581.21 1018.81 584.31
  Q 1018.71 585.57 1018.26 588.47
  Q 998.06 718.72 918.66 822.94
  Q 887.06 864.42 847.99 898.23
  Q 753.40 980.11 632.24 1009.71
  Q 623.76 1011.78 612.70 1014.01
  Q 591.05 1018.37 584.25 1018.88
  Q 580.80 1019.15 580.05 1019.34
  C 576.85 1020.18 574.48 1019.91 571.13 1020.56
  Q 568.96 1020.98 566.35 1021.11
  Q 565.17 1021.17 560.75 1021.80
  Q 551.58 1023.11 523.51 1024.00
  L 500.62 1024.00
  Q 469.82 1023.25 436.43 1018.33
  Q 378.06 1009.71 323.35 987.99
  A 1.17 1.16 38.4 0 0 322.26 988.11
  Q 289.85 1010.14 251.55 1018.80
  Q 233.76 1022.82 215.50 1024.00
  L 196.88 1024.00
  Q 190.29 1023.42 183.75 1022.65
  Q 121.84 1015.33 74.78 976.65
  C 46.03 953.03 24.36 921.71 11.97 887.02
  Q 1.07 856.52 0.00 823.00
  L 0.00 812.88
  Q 2.01 751.82 35.92 701.58
  A 0.99 0.98 -39.1 0 0 36.02 700.65
  Q 14.02 645.01 5.33 585.59
  Q 5.24 584.95 5.05 582.76
  C 4.83 580.31 3.98 578.06 4.01 575.75
  C 4.05 572.88 3.03 569.13 2.86 565.73
  Q 2.79 564.52 2.10 559.19
  Q 0.99 550.60 0.00 522.25
  L 0.00 501.87
  Q 0.96 473.92 2.11 464.79
  Q 2.94 458.22 2.94 457.57
  C 2.91 454.44 4.06 451.20 4.01 448.33
  C 3.97 445.92 4.85 443.67 5.07 441.13
  Q 5.26 438.92 5.36 438.23
  Q 19.35 343.12 66.35 260.05
  C 121.30 162.95 206.67 86.14 309.15 41.89
  Q 350.95 23.83 395.08 13.58
  Q 414.53 9.07 430.26 6.57
  Q 434.12 5.96 435.27 5.75
  Q 437.27 5.38 440.28 5.11
  C 442.80 4.89 444.82 4.04 446.94 4.04
  Q 449.47 4.04 451.79 3.55
  C 455.52 2.76 458.74 3.03 462.59 2.31
  Q 464.08 2.03 466.93 1.85
  Q 483.69 0.75 500.49 0.00
  L 523.38 0.00
  Z
  M 394.70 98.92
  Q 389.26 102.20 385.95 107.81
  A 0.95 0.95 0.0 0 0 386.73 109.24
  C 390.29 109.39 394.57 106.22 401.30 102.74
  C 404.16 101.26 407.56 99.35 408.81 96.80
  C 409.77 94.83 408.58 92.90 406.45 93.06
  Q 402.39 93.38 399.10 95.75
  Q 394.85 98.83 394.70 98.92
  Z
  M 335.54 456.95
  Q 339.90 454.62 338.76 450.55
  Q 337.03 444.32 330.47 445.30
  L 317.34 412.07
  Q 316.78 410.68 316.90 412.17
  C 318.04 427.41 323.16 442.86 329.85 456.50
  Q 336.95 470.96 341.05 477.95
  Q 344.03 483.05 340.95 487.62
  Q 339.99 489.05 338.38 489.34
  Q 330.56 490.77 324.56 491.01
  Q 296.42 492.15 267.52 485.52
  C 253.34 482.27 239.71 476.09 226.77 469.45
  Q 222.64 467.34 222.10 463.12
  Q 221.84 461.03 223.38 456.04
  Q 228.42 439.70 231.19 420.51
  Q 232.29 412.83 232.22 405.93
  C 232.16 399.49 232.23 395.39 229.04 390.72
  A 0.60 0.60 0.0 0 0 227.99 390.85
  Q 227.21 392.92 227.21 396.03
  Q 227.22 410.93 225.55 421.33
  Q 222.30 441.56 216.14 459.49
  Q 210.25 476.65 207.47 486.05
  Q 204.77 495.18 202.89 506.95
  A 0.23 0.22 -67.6 0 1 202.54 507.10
  L 191.46 499.18
  Q 190.62 498.58 191.42 497.93
  L 201.67 489.67
  Q 203.68 488.06 203.21 485.53
  Q 203.17 485.36 203.14 485.28
  Q 201.81 482.55 199.82 484.09
  Q 188.92 492.48 185.06 496.56
  Q 178.55 503.43 176.53 506.79
  C 172.05 514.27 163.99 525.28 165.53 530.82
  A 0.88 0.88 0.0 0 0 167.12 531.06
  Q 168.93 528.20 172.76 521.03
  Q 174.56 517.67 180.75 511.75
  Q 185.13 507.57 189.35 504.24
  A 0.80 0.80 0.0 0 1 190.33 504.24
  C 195.93 508.59 201.27 511.67 208.01 514.78
  Q 218.74 519.73 224.97 523.32
  Q 232.81 527.84 234.97 529.85
  Q 243.87 538.16 249.96 549.34
  Q 251.03 551.29 251.23 553.43
  A 0.39 0.39 0.0 0 1 250.68 553.82
  Q 247.19 552.24 244.19 549.71
  Q 239.33 545.61 231.62 538.36
  C 230.11 536.95 228.59 536.19 226.84 535.40
  A 0.34 0.33 -80.0 0 0 226.37 535.73
  C 226.55 538.77 226.73 540.38 228.86 542.87
  C 231.17 545.58 232.67 547.03 233.91 549.48
  C 236.75 555.10 241.47 565.88 240.04 572.16
  A 0.40 0.39 -60.7 0 1 239.37 572.35
  Q 237.29 570.13 235.62 567.28
  C 230.14 557.97 226.33 550.38 221.23 543.80
  Q 219.18 541.15 216.30 540.41
  A 0.51 0.50 -0.3 0 0 215.69 541.02
  C 216.71 544.92 218.03 548.05 220.35 552.05
  Q 225.50 560.95 227.04 571.25
  Q 227.08 571.49 227.08 571.66
  A 0.66 0.65 -68.1 0 1 225.96 572.14
  Q 222.49 568.61 219.52 564.11
  Q 212.46 553.40 207.53 542.12
  A 1.57 1.57 0.0 0 0 205.67 541.24
  C 203.76 541.78 203.15 543.32 203.44 545.22
  Q 204.21 550.20 204.97 555.18
  C 205.46 558.40 206.02 566.05 204.36 568.92
  A 0.52 0.52 0.0 0 1 203.45 568.91
  Q 202.03 566.24 201.08 563.22
  Q 193.82 540.16 192.93 537.51
  Q 192.18 535.30 191.07 534.46
  Q 183.68 528.84 176.09 525.93
  Q 173.84 525.07 175.14 527.10
  C 177.70 531.11 182.03 533.75 186.32 536.92
  Q 188.45 538.50 189.31 541.75
  Q 192.87 555.20 196.89 567.34
  Q 197.33 568.66 197.20 569.26
  C 189.10 605.30 188.06 641.40 187.84 678.24
  Q 187.54 731.36 193.03 784.29
  C 194.27 796.24 196.34 808.69 199.07 820.70
  C 206.67 854.12 223.81 887.93 257.26 901.76
  A 0.26 0.26 0.0 0 1 257.27 902.23
  C 247.64 906.63 236.92 912.08 228.29 919.03
  Q 223.42 922.96 223.92 928.17
  Q 223.97 928.69 223.45 928.73
  C 219.50 929.05 211.29 928.94 205.97 930.83
  Q 203.77 931.61 206.06 932.10
  Q 207.75 932.46 209.56 932.47
  C 221.29 932.51 232.63 932.72 243.20 932.46
  C 256.90 932.12 273.77 932.40 289.58 931.15
  Q 293.47 930.85 298.08 929.92
  A 1.52 1.52 0.0 0 0 299.12 929.12
  Q 300.06 927.23 296.79 926.76
  Q 295.52 926.58 296.01 925.39
  Q 296.17 924.98 296.26 923.86
  Q 296.75 917.42 295.70 910.87
  Q 295.32 908.51 292.86 909.33
  C 289.99 910.29 287.02 912.33 284.34 913.49
  Q 269.55 919.92 254.22 923.75
  C 245.62 925.90 237.88 927.67 230.47 926.95
  A 1.09 1.08 20.9 0 1 229.70 925.23
  C 230.62 923.96 232.19 922.40 233.64 921.39
  Q 240.71 916.46 255.59 908.87
  C 258.44 907.41 260.06 906.55 263.20 907.08
  Q 271.50 908.48 277.88 907.25
  Q 282.25 906.41 285.30 906.36
  C 296.77 906.15 307.97 903.35 317.75 897.48
  C 344.42 881.44 344.27 850.28 338.86 823.43
  C 332.24 790.58 323.06 744.22 316.61 704.32
  Q 312.87 681.21 310.80 658.68
  Q 310.22 652.33 311.86 658.49
  Q 314.25 667.45 316.92 680.43
  Q 318.18 686.61 330.41 752.22
  Q 335.96 781.94 341.67 808.87
  Q 344.81 823.66 346.77 837.80
  C 348.35 849.24 347.35 862.29 341.44 872.44
  A 1.83 1.81 54.3 0 0 341.23 873.77
  Q 342.64 880.01 348.23 883.90
  C 359.55 891.78 373.53 893.83 386.72 891.70
  C 399.22 889.68 411.94 882.61 417.44 870.94
  Q 420.94 863.52 421.58 854.54
  C 423.00 834.63 419.35 813.90 414.67 794.56
  C 408.57 769.40 402.36 749.78 393.03 719.72
  C 388.32 704.53 385.67 689.84 380.79 664.18
  Q 378.53 652.26 377.32 644.49
  Q 368.28 586.25 367.33 527.53
  C 367.20 518.94 366.58 512.79 365.17 504.58
  A 0.44 0.43 -76.0 0 1 365.86 504.16
  Q 373.46 510.09 382.73 512.56
  C 401.66 517.60 414.82 506.13 420.07 488.84
  Q 424.27 474.99 424.62 461.23
  Q 425.59 422.46 410.00 385.27
  C 401.77 365.65 388.58 345.70 374.55 328.94
  A 0.58 0.58 0.0 0 1 374.82 328.02
  C 382.22 325.62 391.16 319.54 391.51 311.01
  Q 391.55 310.18 391.88 310.94
  Q 393.14 313.76 393.09 317.31
  C 392.98 325.72 386.81 327.78 379.48 331.66
  A 1.28 1.28 0.0 0 0 379.37 333.86
  C 380.63 334.72 381.98 335.39 383.71 335.26
  C 392.17 334.61 398.80 328.15 399.89 319.72
  C 400.93 311.68 396.62 304.47 392.73 296.82
  C 390.21 291.87 399.73 286.25 402.43 282.19
  C 408.90 272.49 406.69 262.65 399.72 254.24
  C 392.50 245.53 384.51 240.29 384.42 227.75
  C 384.35 218.24 387.29 208.96 387.98 199.59
  Q 389.17 183.51 388.01 173.29
  C 384.92 146.04 367.99 114.06 336.60 112.59
  C 323.12 111.97 311.16 119.24 306.26 131.67
  A 0.16 0.15 -48.9 0 1 305.98 131.69
  Q 300.45 122.18 290.69 116.13
  C 270.49 103.60 245.52 105.45 225.29 117.27
  C 205.53 128.82 190.32 147.36 182.34 168.07
  Q 180.43 173.03 173.35 192.36
  C 168.77 204.83 160.95 218.51 149.52 225.00
  C 139.50 230.69 131.30 236.02 127.00 246.68
  Q 122.29 258.38 129.20 267.75
  C 133.40 273.45 143.87 278.23 137.90 286.17
  C 134.62 290.54 130.08 295.58 128.47 300.41
  C 124.44 312.49 132.43 323.87 145.05 324.65
  C 148.61 324.87 156.46 324.01 161.07 326.19
  C 165.60 328.34 164.46 333.50 164.63 338.99
  C 164.92 348.78 167.34 353.63 177.69 355.38
  Q 178.39 355.49 177.88 355.98
  Q 170.57 363.07 163.92 369.91
  Q 148.22 386.04 135.11 404.86
  C 125.11 419.20 116.81 435.95 114.23 453.29
  C 111.37 472.42 121.20 491.06 132.82 505.47
  C 142.13 517.01 149.74 525.05 162.13 531.20
  A 0.45 0.45 0.0 0 0 162.69 530.53
  C 158.43 524.81 152.79 518.84 141.65 506.25
  C 129.53 492.55 117.39 472.49 120.20 453.75
  Q 121.98 441.90 127.41 430.65
  C 137.97 408.80 153.02 389.89 170.07 372.58
  Q 200.94 341.23 235.41 317.14
  C 243.69 311.36 251.20 306.03 260.41 303.05
  C 268.00 300.59 273.55 304.66 281.30 308.75
  C 292.94 314.90 307.86 314.68 320.36 310.70
  A 0.52 0.51 72.9 0 1 321.01 311.05
  L 321.97 314.44
  A 0.70 0.69 -21.5 0 1 321.61 315.25
  Q 317.36 317.38 315.68 321.71
  A 1.65 1.61 85.6 0 1 315.03 322.49
  C 310.51 325.27 309.06 328.31 306.81 331.38
  Q 304.49 334.53 303.63 336.82
  Q 299.60 347.50 304.45 358.28
  C 307.34 364.69 312.06 371.50 316.03 376.67
  C 321.27 383.49 324.03 388.90 329.55 397.66
  A 0.71 0.71 0.0 0 1 328.97 398.74
  Q 323.87 398.84 321.10 402.34
  Q 320.79 402.73 320.32 402.91
  L 318.13 403.76
  Q 316.19 404.50 318.13 405.25
  Q 321.00 406.35 324.75 406.20
  Q 340.78 405.56 355.79 400.39
  C 362.75 397.99 371.95 395.05 376.60 389.36
  C 378.68 386.81 378.81 383.24 376.19 381.10
  C 372.23 377.86 364.98 377.50 360.03 378.20
  Q 358.01 378.49 357.96 379.98
  Q 357.96 380.19 357.80 380.31
  L 357.43 380.61
  Q 357.18 380.81 357.19 380.49
  Q 357.26 367.53 358.90 354.49
  C 359.74 347.88 359.87 343.49 358.86 337.45
  Q 358.26 333.89 356.73 331.75
  C 353.65 327.43 346.79 320.38 341.02 320.26
  A 0.88 0.88 0.0 0 1 340.19 319.62
  L 336.09 305.15
  A 1.05 1.05 0.0 0 1 336.41 304.09
  Q 337.75 302.92 338.95 303.81
  C 360.20 319.61 378.11 341.16 391.76 363.55
  C 411.68 396.22 422.72 437.14 417.34 475.34
  Q 415.71 486.88 409.52 496.73
  C 397.87 515.25 378.36 509.34 364.81 497.43
  C 352.29 486.42 342.73 472.10 335.54 456.95
  Z
  M 399.89 126.25
  Q 400.36 127.50 404.19 126.59
  Q 407.91 125.70 416.48 123.48
  C 419.87 122.61 427.35 120.29 425.93 116.50
  C 424.51 112.70 417.35 115.88 414.22 117.44
  Q 406.30 121.40 402.91 123.18
  Q 399.42 125.01 399.89 126.25
  Z
  M 637.82 182.95
  Q 637.19 193.74 637.32 198.75
  C 637.79 216.87 637.29 235.79 638.20 255.69
  C 638.31 258.03 638.15 259.63 640.97 259.84
  Q 644.98 260.15 649.00 260.19
  Q 678.84 260.49 708.89 260.73
  Q 709.22 262.49 712.50 262.62
  Q 720.63 262.95 728.75 262.47
  C 736.34 262.03 754.11 262.88 769.58 262.55
  Q 774.13 262.45 774.38 257.59
  Q 775.89 228.17 775.64 204.52
  Q 775.61 201.27 775.35 197.25
  Q 775.09 193.25 772.35 193.10
  Q 772.29 168.85 771.66 144.50
  Q 771.58 141.40 770.52 128.00
  C 770.33 125.55 769.96 123.29 767.02 122.77
  Q 761.03 121.70 754.58 121.38
  Q 725.73 119.94 697.00 120.29
  Q 696.32 120.29 696.11 119.49
  Q 697.06 118.98 697.32 118.39
  Q 697.56 117.88 697.04 117.64
  C 693.26 115.92 687.26 115.91 683.57 115.98
  Q 681.51 116.02 649.50 114.97
  Q 646.77 114.88 643.16 115.22
  C 639.21 115.58 636.26 115.51 635.98 120.00
  Q 634.14 149.20 634.44 177.00
  C 634.47 179.41 634.23 183.49 637.82 182.95
  Z
  M 416.24 146.05
  C 413.61 146.20 407.16 147.66 405.75 150.39
  A 1.08 1.06 -44.4 0 0 405.73 151.35
  Q 406.69 153.46 408.74 153.37
  C 412.68 153.21 415.27 153.12 419.42 153.39
  C 421.68 153.54 429.07 153.84 430.49 151.48
  Q 432.26 148.55 429.54 146.92
  C 424.70 144.03 420.71 145.81 416.24 146.05
  Z
  M 835.38 377.39
  C 830.24 380.63 829.16 388.10 833.55 392.50
  Q 834.87 393.82 833.14 393.11
  Q 827.36 390.72 827.38 384.59
  Q 827.39 382.63 827.14 382.13
  C 826.09 379.96 823.72 380.23 821.18 379.91
  Q 819.09 379.65 817.32 379.65
  Q 802.30 379.63 788.88 378.09
  A 1.56 1.56 0.0 0 1 787.50 376.55
  L 787.46 348.67
  Q 787.46 344.59 783.38 344.52
  L 756.53 344.07
  A 0.66 0.65 89.5 0 1 755.89 343.43
  Q 755.61 334.87 756.09 325.75
  Q 756.36 320.41 755.78 301.75
  Q 755.56 294.55 752.66 288.49
  Q 752.37 287.88 751.79 288.34
  A 0.54 0.47 79.8 0 0 751.61 288.64
  Q 750.22 294.94 750.09 303.59
  Q 749.88 318.08 749.58 333.59
  Q 749.46 339.57 749.94 344.57
  C 750.26 347.83 751.09 350.55 755.01 350.50
  Q 769.34 350.32 779.52 350.75
  Q 780.79 350.80 780.75 352.07
  Q 780.32 365.00 780.53 375.36
  C 780.60 378.76 780.96 383.29 784.40 384.10
  Q 788.91 385.16 794.73 385.60
  Q 811.71 386.88 822.12 386.59
  A 0.61 0.60 84.0 0 1 822.74 387.10
  C 824.10 395.94 833.31 402.16 841.79 397.78
  C 851.51 392.78 853.79 379.85 845.33 372.69
  C 839.34 367.63 830.92 368.18 826.32 374.79
  C 824.15 377.91 827.80 380.68 830.35 379.95
  A 2.05 1.90 -72.6 0 0 831.17 379.48
  Q 833.29 377.50 835.24 377.05
  Q 836.32 376.80 835.38 377.39
  Z
  M 687.01 490.98
  Q 687.67 488.31 687.67 485.00
  Q 687.66 476.85 687.70 471.73
  A 0.85 0.83 -1.9 0 1 688.48 470.91
  C 700.75 470.08 717.20 470.31 728.51 469.89
  Q 731.80 469.76 733.16 469.05
  Q 733.60 468.82 733.79 468.36
  Q 734.39 466.86 734.45 465.25
  Q 735.49 438.36 734.91 410.01
  Q 734.83 406.52 734.08 404.01
  A 2.36 2.35 -7.1 0 0 731.92 402.33
  L 703.80 401.15
  A 0.55 0.55 0.0 0 1 703.27 400.63
  Q 702.81 389.93 703.05 383.25
  Q 704.54 341.31 704.25 309.51
  Q 704.18 301.94 701.73 295.21
  Q 700.81 292.68 700.16 295.29
  Q 699.21 299.13 698.89 304.31
  C 698.09 317.56 698.46 337.33 698.11 352.77
  Q 697.49 380.39 697.58 398.25
  Q 697.60 401.41 698.24 404.66
  A 2.20 2.19 0.6 0 0 699.92 406.37
  Q 702.87 407.02 705.04 407.11
  Q 719.80 407.71 727.21 408.14
  A 1.02 1.02 0.0 0 1 728.18 409.14
  Q 728.69 432.49 727.73 461.88
  Q 727.69 463.09 726.48 463.04
  Q 706.01 462.23 685.82 463.03
  Q 679.90 463.26 679.98 468.81
  Q 680.15 480.68 681.74 491.53
  A 0.45 0.43 -15.1 0 1 681.46 492.00
  C 670.38 496.52 666.46 510.90 677.60 518.29
  Q 685.76 523.70 693.69 518.93
  C 700.97 514.55 703.86 503.80 697.39 497.32
  C 695.16 495.09 691.66 497.92 691.43 500.00
  Q 691.38 500.47 691.59 500.97
  Q 691.85 501.61 692.77 503.27
  C 695.43 508.04 692.00 513.34 687.05 514.08
  C 681.34 514.94 675.70 510.46 677.04 504.55
  C 677.94 500.60 681.39 497.61 685.39 496.50
  Q 686.83 496.11 689.16 494.97
  A 1.00 1.00 0.0 0 0 689.31 493.26
  L 687.33 491.85
  A 0.83 0.81 25.3 0 1 687.01 490.98
  Z
  M 274.1022 351.3978
  A 4.13 4.13 0.0 0 0 270.0522 347.1892
  L 269.1924 347.1727
  A 4.13 4.13 0.0 0 0 264.9839 351.2227
  L 264.9378 353.6222
  A 4.13 4.13 0.0 0 0 268.9878 357.8308
  L 269.8476 357.8473
  A 4.13 4.13 0.0 0 0 274.0561 353.7973
  L 274.1022 351.3978
  Z
  M 400.70 422.06
  C 399.38 421.00 398.04 420.67 397.11 418.71
  Q 392.80 409.64 389.13 398.32
  C 387.99 394.81 385.83 388.98 382.10 390.78
  A 1.95 1.95 0.0 0 0 381.16 393.33
  C 384.34 400.50 386.49 407.78 390.40 415.26
  Q 393.83 421.82 395.59 424.37
  Q 397.88 427.68 401.40 429.19
  A 0.61 0.61 0.0 0 0 402.24 428.53
  L 401.31 423.08
  Q 401.20 422.45 400.70 422.06
  Z
  M 152.17 407.35
  L 148.19 412.94
  A 2.24 2.24 0.0 0 0 148.71 416.06
  L 150.04 417.01
  A 5.68 5.67 35.5 0 0 157.96 415.70
  L 157.96 415.70
  A 5.68 5.67 35.5 0 0 156.63 407.78
  L 155.29 406.83
  A 2.24 2.24 0.0 0 0 152.17 407.35
  Z
  M 180.00 452.87
  A 1.50 1.49 -41.3 0 1 180.11 451.29
  Q 192.07 434.71 208.35 421.04
  Q 210.35 419.36 208.32 417.71
  L 208.12 417.55
  A 3.73 3.65 -45.1 0 0 203.45 417.61
  Q 187.36 430.86 175.57 447.28
  C 172.53 451.52 173.49 454.34 176.25 458.44
  C 181.29 465.93 185.92 472.33 193.11 477.87
  Q 197.31 481.09 202.33 480.73
  A 0.39 0.38 65.6 0 0 202.57 480.08
  C 199.24 476.64 194.40 472.98 191.29 469.34
  Q 184.47 461.37 180.00 452.87
  Z
  M 251.5633 443.7199
  A 5.63 4.40 126.6 0 0 258.4524 441.8234
  A 5.63 4.40 126.6 0 0 258.2767 434.6801
  A 5.63 4.40 126.6 0 0 251.3876 436.5766
  A 5.63 4.40 126.6 0 0 251.5633 443.7199
  Z
  M 402.43 468.55
  L 397.51 461.89
  A 2.00 2.00 0.0 0 0 394.71 461.47
  L 394.03 461.98
  A 6.01 5.73 53.5 0 0 392.99 470.22
  L 393.15 470.43
  A 6.01 5.73 53.5 0 0 401.33 471.85
  L 402.01 471.34
  A 2.00 2.00 0.0 0 0 402.43 468.55
  Z
  M 163.6021 482.5741
  A 5.10 4.62 47.4 0 0 163.5508 475.6928
  A 5.10 4.62 47.4 0 0 156.6979 475.0659
  A 5.10 4.62 47.4 0 0 156.7492 481.9472
  A 5.10 4.62 47.4 0 0 163.6021 482.5741
  Z
  M 368.03 918.93
  A 0.30 0.30 0.0 0 1 367.75 919.32
  Q 358.47 919.65 349.41 921.44
  A 0.49 0.48 -6.5 0 0 349.02 921.92
  Q 349.03 922.67 350.02 922.70
  Q 382.86 923.87 412.77 923.69
  Q 422.86 923.63 430.81 921.83
  Q 433.13 921.31 434.09 919.76
  Q 436.42 916.03 435.42 912.87
  C 434.46 909.90 430.75 906.45 428.16 904.45
  Q 417.64 896.37 404.40 892.11
  Q 400.88 890.97 397.64 891.88
  Q 394.85 892.67 397.60 893.99
  Q 398.87 894.59 412.17 900.36
  Q 418.87 903.27 426.40 909.65
  C 427.91 910.92 428.71 912.72 429.10 914.72
  A 0.98 0.97 82.0 0 1 428.23 915.88
  Q 422.63 916.35 417.20 915.08
  C 406.33 912.54 396.11 909.21 378.31 903.68
  C 375.05 902.67 366.76 900.06 366.46 905.65
  Q 366.08 912.85 368.03 918.93
  Z"
/>
<path fill="#231f20" d="
  M 770.37 69.95
  Q 771.34 70.41 771.45 69.61
  A 0.91 0.90 -86.6 0 1 772.32 68.83
  Q 776.97 68.69 777.19 71.51
  Q 777.31 72.97 777.56 74.21
  L 777.18 97.65
  A 0.74 0.73 -89.6 0 0 777.91 98.40
  Q 787.74 98.39 795.58 99.77
  Q 797.23 100.07 797.63 102.69
  Q 798.43 108.06 798.37 117.88
  A 0.81 0.80 -89.6 0 0 799.16 118.69
  Q 811.55 118.99 820.39 118.90
  C 823.06 118.88 826.56 119.09 828.77 119.43
  C 830.43 119.69 830.58 120.88 830.72 122.44
  Q 831.08 126.38 826.99 126.37
  Q 812.99 126.32 799.07 125.95
  A 0.39 0.39 0.0 0 0 798.67 126.35
  L 799.17 159.58
  Q 799.18 160.20 799.80 160.21
  L 827.26 160.66
  Q 830.96 160.72 830.76 164.25
  Q 830.76 164.30 830.76 164.40
  Q 830.74 167.96 826.97 167.90
  L 799.54 167.47
  A 0.24 0.23 -0.0 0 0 799.30 167.70
  L 799.35 203.01
  A 0.90 0.89 -89.7 0 0 800.23 203.91
  L 827.50 204.20
  Q 831.10 204.24 830.76 207.91
  Q 830.76 207.94 830.75 208.08
  Q 830.48 211.55 826.76 211.50
  L 800.58 211.12
  A 1.13 1.12 1.0 0 0 799.43 212.22
  L 798.89 244.16
  A 0.53 0.53 0.0 0 0 799.41 244.69
  L 827.00 244.99
  Q 830.75 245.04 830.80 248.47
  Q 830.80 248.58 830.80 248.62
  Q 831.04 252.31 827.48 252.27
  L 799.71 251.98
  Q 798.49 251.96 798.44 253.18
  Q 797.97 263.88 796.83 270.91
  Q 796.03 275.83 795.49 270.88
  C 793.87 256.10 793.19 246.58 793.11 232.68
  Q 792.86 183.46 792.01 134.25
  Q 791.88 126.73 791.53 120.74
  Q 791.07 112.71 790.59 111.27
  Q 788.79 105.92 781.79 105.35
  Q 770.04 104.38 738.55 103.89
  C 713.11 103.49 685.84 103.84 658.77 103.41
  Q 639.92 103.11 626.25 103.72
  C 617.13 104.12 615.38 110.35 615.26 118.30
  Q 614.14 194.62 615.36 267.77
  C 615.50 276.21 620.66 276.87 627.35 277.16
  Q 646.53 278.00 688.00 278.62
  Q 690.50 278.66 693.00 278.65
  Q 762.24 278.57 773.25 278.73
  Q 779.90 278.83 785.17 280.57
  Q 788.65 281.72 785.07 282.51
  Q 778.56 283.93 770.76 284.17
  C 731.52 285.33 691.10 284.80 653.15 284.07
  Q 652.47 284.05 652.81 284.64
  C 655.48 289.31 655.03 298.06 655.38 306.00
  Q 656.07 321.66 655.33 340.25
  Q 655.29 341.18 654.74 344.24
  C 653.99 348.35 647.92 347.64 644.81 347.66
  Q 625.20 347.80 601.99 347.33
  A 0.84 0.84 0.0 0 0 601.14 348.18
  Q 601.57 380.67 601.41 413.50
  Q 601.39 416.51 601.01 417.61
  Q 600.84 418.09 600.36 418.28
  Q 598.93 418.83 597.00 418.84
  Q 578.29 418.94 566.89 418.13
  Q 566.34 418.09 566.22 418.62
  C 564.53 425.52 558.50 429.19 551.62 428.76
  C 541.26 428.11 535.58 417.93 538.99 408.17
  Q 541.09 402.16 547.10 400.31
  C 553.47 398.35 562.98 400.94 562.96 409.08
  A 0.80 0.80 0.0 0 1 561.71 409.74
  C 559.04 407.91 557.11 405.96 554.06 405.29
  Q 547.84 403.93 545.27 409.57
  Q 544.83 410.55 545.83 410.15
  Q 553.65 407.07 558.91 413.16
  Q 559.26 413.56 559.61 413.17
  C 562.50 409.95 564.42 412.29 567.50 412.20
  C 570.02 412.13 572.72 411.79 575.14 411.89
  Q 585.22 412.29 594.19 412.38
  A 0.77 0.76 89.6 0 0 594.96 411.59
  Q 594.11 377.90 593.88 348.25
  C 593.84 343.13 594.38 339.98 600.50 340.04
  Q 620.44 340.26 644.53 341.25
  Q 646.97 341.35 648.27 341.12
  Q 648.77 341.03 648.79 340.52
  Q 649.62 314.61 649.22 305.25
  Q 648.76 294.74 649.64 284.34
  A 0.34 0.33 3.9 0 0 649.31 283.97
  Q 631.86 283.49 618.03 283.08
  C 613.94 282.95 610.14 282.59 609.58 277.45
  Q 608.16 264.26 608.08 250.39
  Q 608.07 249.87 607.55 249.86
  L 578.86 249.37
  Q 575.49 249.32 575.47 245.95
  L 575.47 245.58
  Q 575.45 242.18 579.50 242.21
  L 607.41 242.47
  A 0.50 0.49 90.0 0 0 607.91 241.96
  L 607.42 209.39
  Q 607.41 208.87 606.89 208.86
  L 579.18 208.60
  Q 575.60 208.56 575.44 205.15
  Q 575.43 205.03 575.43 205.01
  Q 575.23 201.33 578.79 201.37
  L 606.48 201.65
  A 0.67 0.67 0.0 0 0 607.15 200.99
  L 607.74 165.96
  A 0.55 0.54 -88.9 0 0 607.21 165.40
  L 578.80 164.94
  Q 575.32 164.89 575.43 161.30
  Q 575.43 161.29 575.44 161.16
  Q 575.59 157.62 579.26 157.68
  L 606.81 158.15
  Q 607.40 158.16 607.41 157.58
  L 607.96 124.40
  A 0.59 0.58 -89.0 0 0 607.39 123.80
  L 578.77 123.48
  Q 575.22 123.44 575.47 119.74
  Q 575.47 119.64 575.48 119.60
  Q 575.75 116.23 579.25 116.27
  L 607.17 116.57
  A 0.66 0.65 -0.8 0 0 607.83 115.90
  Q 607.55 108.29 608.16 100.74
  Q 608.55 95.88 613.34 95.85
  Q 621.51 95.80 633.21 95.80
  A 0.79 0.78 0.4 0 0 634.00 95.03
  L 634.41 69.26
  Q 634.46 65.93 638.08 66.20
  L 638.22 66.21
  Q 641.69 66.43 641.63 70.07
  L 641.23 95.22
  A 0.51 0.50 -89.4 0 0 641.72 95.73
  L 677.42 96.33
  A 0.50 0.50 0.0 0 0 677.93 95.83
  L 678.33 70.24
  Q 678.39 66.07 681.74 66.22
  Q 681.83 66.23 682.05 66.21
  Q 685.67 65.96 685.61 69.55
  L 685.18 94.89
  Q 685.16 96.10 686.37 96.12
  L 725.85 96.79
  Q 726.51 96.80 726.52 96.14
  L 726.75 70.00
  Q 726.79 66.27 730.26 66.26
  Q 730.40 66.26 730.41 66.25
  Q 734.16 66.04 734.12 69.72
  L 733.76 96.54
  A 0.61 0.60 0.9 0 0 734.36 97.15
  L 769.13 97.73
  Q 769.85 97.75 769.86 97.02
  L 770.37 69.95
  Z"
/>
<path fill="#231f20" d="
  M 399.10 95.75
  Q 402.39 93.38 406.45 93.06
  C 408.58 92.90 409.77 94.83 408.81 96.80
  C 407.56 99.35 404.16 101.26 401.30 102.74
  C 394.57 106.22 390.29 109.39 386.73 109.24
  A 0.95 0.95 0.0 0 1 385.95 107.81
  Q 389.26 102.20 394.70 98.92
  Q 394.85 98.83 399.10 95.75
  Z"
/>
<path fill="#231f20" d="
  M 330.47 445.30
  L 335.54 456.95
  C 342.73 472.10 352.29 486.42 364.81 497.43
  C 378.36 509.34 397.87 515.25 409.52 496.73
  Q 415.71 486.88 417.34 475.34
  C 422.72 437.14 411.68 396.22 391.76 363.55
  C 378.11 341.16 360.20 319.61 338.95 303.81
  Q 337.75 302.92 336.41 304.09
  A 1.05 1.05 0.0 0 0 336.09 305.15
  L 340.19 319.62
  A 0.88 0.88 0.0 0 0 341.02 320.26
  C 346.79 320.38 353.65 327.43 356.73 331.75
  Q 358.26 333.89 358.86 337.45
  C 359.87 343.49 359.74 347.88 358.90 354.49
  Q 357.26 367.53 357.19 380.49
  Q 357.18 380.81 357.43 380.61
  L 357.80 380.31
  Q 357.96 380.19 357.96 379.98
  Q 358.01 378.49 360.03 378.20
  C 364.98 377.50 372.23 377.86 376.19 381.10
  C 378.81 383.24 378.68 386.81 376.60 389.36
  C 371.95 395.05 362.75 397.99 355.79 400.39
  Q 340.78 405.56 324.75 406.20
  Q 321.00 406.35 318.13 405.25
  Q 316.19 404.50 318.13 403.76
  L 320.32 402.91
  Q 320.79 402.73 321.10 402.34
  Q 323.87 398.84 328.97 398.74
  A 0.71 0.71 0.0 0 0 329.55 397.66
  C 324.03 388.90 321.27 383.49 316.03 376.67
  C 312.06 371.50 307.34 364.69 304.45 358.28
  Q 299.60 347.50 303.63 336.82
  Q 304.49 334.53 306.81 331.38
  C 309.06 328.31 310.51 325.27 315.03 322.49
  A 1.65 1.61 85.6 0 0 315.68 321.71
  Q 317.36 317.38 321.61 315.25
  A 0.70 0.69 -21.5 0 0 321.97 314.44
  L 321.01 311.05
  A 0.52 0.51 72.9 0 0 320.36 310.70
  C 307.86 314.68 292.94 314.90 281.30 308.75
  C 273.55 304.66 268.00 300.59 260.41 303.05
  C 251.20 306.03 243.69 311.36 235.41 317.14
  Q 200.94 341.23 170.07 372.58
  C 153.02 389.89 137.97 408.80 127.41 430.65
  Q 121.98 441.90 120.20 453.75
  C 117.39 472.49 129.53 492.55 141.65 506.25
  C 152.79 518.84 158.43 524.81 162.69 530.53
  A 0.45 0.45 0.0 0 1 162.13 531.20
  C 149.74 525.05 142.13 517.01 132.82 505.47
  C 121.20 491.06 111.37 472.42 114.23 453.29
  C 116.81 435.95 125.11 419.20 135.11 404.86
  Q 148.22 386.04 163.92 369.91
  Q 170.57 363.07 177.88 355.98
  Q 178.39 355.49 177.69 355.38
  C 167.34 353.63 164.92 348.78 164.63 338.99
  C 164.46 333.50 165.60 328.34 161.07 326.19
  C 156.46 324.01 148.61 324.87 145.05 324.65
  C 132.43 323.87 124.44 312.49 128.47 300.41
  C 130.08 295.58 134.62 290.54 137.90 286.17
  C 143.87 278.23 133.40 273.45 129.20 267.75
  Q 122.29 258.38 127.00 246.68
  C 131.30 236.02 139.50 230.69 149.52 225.00
  C 160.95 218.51 168.77 204.83 173.35 192.36
  Q 180.43 173.03 182.34 168.07
  C 190.32 147.36 205.53 128.82 225.29 117.27
  C 245.52 105.45 270.49 103.60 290.69 116.13
  Q 300.45 122.18 305.98 131.69
  A 0.16 0.15 -48.9 0 0 306.26 131.67
  C 311.16 119.24 323.12 111.97 336.60 112.59
  C 367.99 114.06 384.92 146.04 388.01 173.29
  Q 389.17 183.51 387.98 199.59
  C 387.29 208.96 384.35 218.24 384.42 227.75
  C 384.51 240.29 392.50 245.53 399.72 254.24
  C 406.69 262.65 408.90 272.49 402.43 282.19
  C 399.73 286.25 390.21 291.87 392.73 296.82
  C 396.62 304.47 400.93 311.68 399.89 319.72
  C 398.80 328.15 392.17 334.61 383.71 335.26
  C 381.98 335.39 380.63 334.72 379.37 333.86
  A 1.28 1.28 0.0 0 1 379.48 331.66
  C 386.81 327.78 392.98 325.72 393.09 317.31
  Q 393.14 313.76 391.88 310.94
  Q 391.55 310.18 391.51 311.01
  C 391.16 319.54 382.22 325.62 374.82 328.02
  A 0.58 0.58 0.0 0 0 374.55 328.94
  C 388.58 345.70 401.77 365.65 410.00 385.27
  Q 425.59 422.46 424.62 461.23
  Q 424.27 474.99 420.07 488.84
  C 414.82 506.13 401.66 517.60 382.73 512.56
  Q 373.46 510.09 365.86 504.16
  A 0.44 0.43 -76.0 0 0 365.17 504.58
  C 366.58 512.79 367.20 518.94 367.33 527.53
  Q 368.28 586.25 377.32 644.49
  Q 378.53 652.26 380.79 664.18
  C 385.67 689.84 388.32 704.53 393.03 719.72
  C 402.36 749.78 408.57 769.40 414.67 794.56
  C 419.35 813.90 423.00 834.63 421.58 854.54
  Q 420.94 863.52 417.44 870.94
  C 411.94 882.61 399.22 889.68 386.72 891.70
  C 373.53 893.83 359.55 891.78 348.23 883.90
  Q 342.64 880.01 341.23 873.77
  A 1.83 1.81 54.3 0 1 341.44 872.44
  C 347.35 862.29 348.35 849.24 346.77 837.80
  Q 344.81 823.66 341.67 808.87
  Q 335.96 781.94 330.41 752.22
  Q 318.18 686.61 316.92 680.43
  Q 314.25 667.45 311.86 658.49
  Q 310.22 652.33 310.80 658.68
  Q 312.87 681.21 316.61 704.32
  C 323.06 744.22 332.24 790.58 338.86 823.43
  C 344.27 850.28 344.42 881.44 317.75 897.48
  C 307.97 903.35 296.77 906.15 285.30 906.36
  Q 282.25 906.41 277.88 907.25
  Q 271.50 908.48 263.20 907.08
  C 260.06 906.55 258.44 907.41 255.59 908.87
  Q 240.71 916.46 233.64 921.39
  C 232.19 922.40 230.62 923.96 229.70 925.23
  A 1.09 1.08 20.9 0 0 230.47 926.95
  C 237.88 927.67 245.62 925.90 254.22 923.75
  Q 269.55 919.92 284.34 913.49
  C 287.02 912.33 289.99 910.29 292.86 909.33
  Q 295.32 908.51 295.70 910.87
  Q 296.75 917.42 296.26 923.86
  Q 296.17 924.98 296.01 925.39
  Q 295.52 926.58 296.79 926.76
  Q 300.06 927.23 299.12 929.12
  A 1.52 1.52 0.0 0 1 298.08 929.92
  Q 293.47 930.85 289.58 931.15
  C 273.77 932.40 256.90 932.12 243.20 932.46
  C 232.63 932.72 221.29 932.51 209.56 932.47
  Q 207.75 932.46 206.06 932.10
  Q 203.77 931.61 205.97 930.83
  C 211.29 928.94 219.50 929.05 223.45 928.73
  Q 223.97 928.69 223.92 928.17
  Q 223.42 922.96 228.29 919.03
  C 236.92 912.08 247.64 906.63 257.27 902.23
  A 0.26 0.26 0.0 0 0 257.26 901.76
  C 223.81 887.93 206.67 854.12 199.07 820.70
  C 196.34 808.69 194.27 796.24 193.03 784.29
  Q 187.54 731.36 187.84 678.24
  C 188.06 641.40 189.10 605.30 197.20 569.26
  Q 197.33 568.66 196.89 567.34
  Q 192.87 555.20 189.31 541.75
  Q 188.45 538.50 186.32 536.92
  C 182.03 533.75 177.70 531.11 175.14 527.10
  Q 173.84 525.07 176.09 525.93
  Q 183.68 528.84 191.07 534.46
  Q 192.18 535.30 192.93 537.51
  Q 193.82 540.16 201.08 563.22
  Q 202.03 566.24 203.45 568.91
  A 0.52 0.52 0.0 0 0 204.36 568.92
  C 206.02 566.05 205.46 558.40 204.97 555.18
  Q 204.21 550.20 203.44 545.22
  C 203.15 543.32 203.76 541.78 205.67 541.24
  A 1.57 1.57 0.0 0 1 207.53 542.12
  Q 212.46 553.40 219.52 564.11
  Q 222.49 568.61 225.96 572.14
  A 0.66 0.65 -68.1 0 0 227.08 571.66
  Q 227.08 571.49 227.04 571.25
  Q 225.50 560.95 220.35 552.05
  C 218.03 548.05 216.71 544.92 215.69 541.02
  A 0.51 0.50 -0.3 0 1 216.30 540.41
  Q 219.18 541.15 221.23 543.80
  C 226.33 550.38 230.14 557.97 235.62 567.28
  Q 237.29 570.13 239.37 572.35
  A 0.40 0.39 -60.7 0 0 240.04 572.16
  C 241.47 565.88 236.75 555.10 233.91 549.48
  C 232.67 547.03 231.17 545.58 228.86 542.87
  C 226.73 540.38 226.55 538.77 226.37 535.73
  A 0.34 0.33 -80.0 0 1 226.84 535.40
  C 228.59 536.19 230.11 536.95 231.62 538.36
  Q 239.33 545.61 244.19 549.71
  Q 247.19 552.24 250.68 553.82
  A 0.39 0.39 0.0 0 0 251.23 553.43
  Q 251.03 551.29 249.96 549.34
  Q 243.87 538.16 234.97 529.85
  Q 232.81 527.84 224.97 523.32
  Q 218.74 519.73 208.01 514.78
  C 201.27 511.67 195.93 508.59 190.33 504.24
  A 0.80 0.80 0.0 0 0 189.35 504.24
  Q 185.13 507.57 180.75 511.75
  Q 174.56 517.67 172.76 521.03
  Q 168.93 528.20 167.12 531.06
  A 0.88 0.88 0.0 0 1 165.53 530.82
  C 163.99 525.28 172.05 514.27 176.53 506.79
  Q 178.55 503.43 185.06 496.56
  Q 188.92 492.48 199.82 484.09
  Q 201.81 482.55 203.14 485.28
  Q 203.17 485.36 203.21 485.53
  Q 203.68 488.06 201.67 489.67
  L 191.42 497.93
  Q 190.62 498.58 191.46 499.18
  L 202.54 507.10
  A 0.23 0.22 -67.6 0 0 202.89 506.95
  Q 204.77 495.18 207.47 486.05
  Q 210.25 476.65 216.14 459.49
  Q 222.30 441.56 225.55 421.33
  Q 227.22 410.93 227.21 396.03
  Q 227.21 392.92 227.99 390.85
  A 0.60 0.60 0.0 0 1 229.04 390.72
  C 232.23 395.39 232.16 399.49 232.22 405.93
  Q 232.29 412.83 231.19 420.51
  Q 228.42 439.70 223.38 456.04
  Q 221.84 461.03 222.10 463.12
  Q 222.64 467.34 226.77 469.45
  C 239.71 476.09 253.34 482.27 267.52 485.52
  Q 296.42 492.15 324.56 491.01
  Q 330.56 490.77 338.38 489.34
  Q 339.99 489.05 340.95 487.62
  Q 344.03 483.05 341.05 477.95
  Q 336.95 470.96 329.85 456.50
  C 323.16 442.86 318.04 427.41 316.90 412.17
  Q 316.78 410.68 317.34 412.07
  L 330.47 445.30
  Z
  M 377.36 153.92
  C 372.47 140.53 362.84 126.91 349.67 121.65
  C 338.51 117.20 326.62 117.44 317.57 125.41
  Q 317.16 125.77 317.68 125.60
  Q 319.22 125.10 322.44 123.94
  C 344.15 116.15 367.45 136.60 377.16 154.01
  Q 377.83 155.21 377.36 153.92
  Z
  M 315.66 174.11
  Q 307.73 166.48 306.08 165.56
  Q 300.22 162.29 294.73 164.22
  Q 285.03 167.62 279.10 177.31
  Q 268.88 194.00 267.37 196.41
  C 261.30 206.17 248.06 223.88 234.27 219.60
  C 230.34 218.38 227.02 213.93 223.17 213.70
  C 220.13 213.52 216.74 214.84 214.73 217.18
  C 206.47 226.86 213.45 236.60 223.53 240.01
  Q 225.59 240.71 232.46 241.84
  Q 232.98 241.93 232.94 241.41
  C 232.66 237.72 232.87 233.69 235.07 230.90
  A 0.52 0.52 0.0 0 1 235.96 231.02
  Q 236.65 232.61 236.86 233.73
  Q 238.80 243.79 240.16 249.51
  Q 245.76 273.09 265.19 287.02
  C 280.06 297.68 299.62 303.12 317.82 299.45
  A 0.52 0.51 -8.1 0 0 318.24 298.90
  C 317.84 293.71 317.28 290.15 318.98 285.76
  C 321.06 280.43 326.23 281.99 328.63 285.91
  Q 330.32 288.68 331.71 291.60
  A 0.59 0.59 0.0 0 0 332.62 291.80
  C 339.26 286.21 343.86 280.38 347.42 272.15
  Q 351.30 263.19 353.29 252.79
  C 358.18 227.07 356.05 199.19 340.98 176.99
  C 338.01 172.61 331.12 164.85 325.30 166.70
  Q 318.83 168.77 316.25 174.00
  Q 316.03 174.46 315.66 174.11
  Z
  M 343.13 337.26
  C 339.47 334.73 338.16 330.11 336.65 325.08
  Q 334.47 317.80 333.42 313.71
  Q 331.78 307.32 329.94 302.57
  Q 326.69 294.16 325.53 291.67
  Q 323.88 288.16 323.63 292.02
  Q 323.42 295.27 323.76 298.53
  Q 325.21 312.41 330.64 327.37
  A 5.28 5.25 48.6 0 1 330.39 331.55
  Q 330.34 331.66 330.28 331.73
  A 1.42 1.38 -40.0 0 1 327.95 331.55
  Q 324.51 325.13 323.96 321.59
  A 0.67 0.67 0.0 0 0 322.80 321.25
  Q 320.66 323.70 320.90 326.74
  Q 321.42 333.27 323.32 339.43
  Q 324.24 342.41 321.65 340.68
  C 318.62 338.66 317.49 334.17 316.38 330.20
  Q 316.00 328.88 315.21 330.00
  L 313.74 332.05
  Q 312.84 333.31 313.10 334.83
  L 315.20 347.14
  A 1.17 1.17 0.0 0 1 313.55 348.39
  C 309.57 346.50 310.15 343.57 308.48 340.28
  Q 308.13 339.59 307.93 340.34
  Q 306.25 346.61 307.72 351.26
  C 310.96 361.50 319.02 371.68 323.62 378.62
  Q 330.61 389.17 333.93 397.75
  Q 334.11 398.21 334.61 398.15
  C 343.19 397.04 348.68 396.31 355.22 393.62
  A 0.43 0.43 0.0 0 0 355.42 393.00
  Q 353.23 389.43 352.57 384.47
  Q 351.54 376.79 352.27 365.25
  C 352.59 360.15 354.52 349.69 354.60 342.58
  C 354.69 334.09 348.77 328.81 342.27 324.65
  Q 341.35 324.07 341.69 325.10
  Q 343.65 330.90 343.79 336.91
  A 0.42 0.42 0.0 0 1 343.13 337.26
  Z
  M 189.13 344.88
  C 182.14 346.86 175.73 345.81 171.48 340.51
  A 0.31 0.31 0.0 0 0 170.93 340.67
  C 170.30 347.88 176.48 349.91 182.80 350.10
  A 3.30 3.27 -64.7 0 0 185.08 349.27
  L 189.41 345.39
  Q 190.37 344.53 189.13 344.88
  Z
  M 359.43 382.96
  L 358.11 381.31
  Q 357.81 380.95 357.79 381.41
  Q 357.67 384.13 358.66 386.27
  Q 358.87 386.74 359.38 386.65
  C 361.16 386.34 370.64 385.20 370.64 385.19
  Q 370.75 385.08 370.73 384.84
  Q 370.69 384.41 370.26 384.36
  L 360.13 383.34
  Q 359.70 383.29 359.43 382.96
  Z
  M 290.97 926.04
  L 290.07 917.86
  Q 290.02 917.42 289.62 917.61
  Q 276.99 923.41 265.27 926.80
  Q 260.26 928.25 265.44 927.73
  Q 265.51 927.72 268.00 927.71
  Q 275.64 927.67 290.43 926.68
  A 0.58 0.57 -5.2 0 0 290.97 926.04
  Z"
/>
<path fill="#231f20" d="
  M 425.93 116.50
  C 427.35 120.29 419.87 122.61 416.48 123.48
  Q 407.91 125.70 404.19 126.59
  Q 400.36 127.50 399.89 126.25
  Q 399.42 125.01 402.91 123.18
  Q 406.30 121.40 414.22 117.44
  C 417.35 115.88 424.51 112.70 425.93 116.50
  Z"
/>
<path fill="#231f20" d="
  M 696.11 119.49
  Q 691.78 121.73 685.37 121.82
  Q 670.19 122.03 664.28 121.70
  C 656.75 121.28 650.23 121.64 643.25 121.95
  A 0.64 0.62 -89.0 0 0 642.65 122.54
  Q 640.88 148.08 640.79 175.55
  Q 640.78 176.16 640.64 178.82
  Q 640.46 181.88 637.82 182.95
  C 634.23 183.49 634.47 179.41 634.44 177.00
  Q 634.14 149.20 635.98 120.00
  C 636.26 115.51 639.21 115.58 643.16 115.22
  Q 646.77 114.88 649.50 114.97
  Q 681.51 116.02 683.57 115.98
  C 687.26 115.91 693.26 115.92 697.04 117.64
  Q 697.56 117.88 697.32 118.39
  Q 697.06 118.98 696.11 119.49
  Z"
/>
<path fill="#ffffff" d="
  M 377.36 153.92
  Q 377.83 155.21 377.16 154.01
  C 367.45 136.60 344.15 116.15 322.44 123.94
  Q 319.22 125.10 317.68 125.60
  Q 317.16 125.77 317.57 125.41
  C 326.62 117.44 338.51 117.20 349.67 121.65
  C 362.84 126.91 372.47 140.53 377.36 153.92
  Z"
/>
<path fill="#c7c7c7" d="
  M 696.11 119.49
  Q 696.32 120.29 697.00 120.29
  Q 725.73 119.94 754.58 121.38
  Q 761.03 121.70 767.02 122.77
  C 769.96 123.29 770.33 125.55 770.52 128.00
  Q 771.58 141.40 771.66 144.50
  Q 772.29 168.85 772.35 193.10
  Q 768.80 194.70 768.95 199.01
  C 769.67 218.93 769.02 236.56 768.52 255.71
  Q 768.49 256.62 767.59 256.67
  Q 748.64 257.65 730.27 257.23
  Q 725.76 257.12 716.88 258.02
  Q 714.68 258.24 712.80 259.03
  Q 710.65 259.93 708.89 260.73
  Q 678.84 260.49 649.00 260.19
  Q 644.98 260.15 640.97 259.84
  C 638.15 259.63 638.31 258.03 638.20 255.69
  C 637.29 235.79 637.79 216.87 637.32 198.75
  Q 637.19 193.74 637.82 182.95
  Q 640.46 181.88 640.64 178.82
  Q 640.78 176.16 640.79 175.55
  Q 640.88 148.08 642.65 122.54
  A 0.64 0.62 -89.0 0 1 643.25 121.95
  C 650.23 121.64 656.75 121.28 664.28 121.70
  Q 670.19 122.03 685.37 121.82
  Q 691.78 121.73 696.11 119.49
  Z"
/>
<path fill="#231f20" d="
  M 416.24 146.05
  C 420.71 145.81 424.70 144.03 429.54 146.92
  Q 432.26 148.55 430.49 151.48
  C 429.07 153.84 421.68 153.54 419.42 153.39
  C 415.27 153.12 412.68 153.21 408.74 153.37
  Q 406.69 153.46 405.73 151.35
  A 1.08 1.06 -44.4 0 1 405.75 150.39
  C 407.16 147.66 413.61 146.20 416.24 146.05
  Z"
/>
<path fill="#ffffff" d="
  M 316.25 174.00
  Q 318.83 168.77 325.30 166.70
  C 331.12 164.85 338.01 172.61 340.98 176.99
  C 356.05 199.19 358.18 227.07 353.29 252.79
  Q 351.30 263.19 347.42 272.15
  C 343.86 280.38 339.26 286.21 332.62 291.80
  A 0.59 0.59 0.0 0 1 331.71 291.60
  Q 330.32 288.68 328.63 285.91
  C 326.23 281.99 321.06 280.43 318.98 285.76
  C 317.28 290.15 317.84 293.71 318.24 298.90
  A 0.52 0.51 -8.1 0 1 317.82 299.45
  C 299.62 303.12 280.06 297.68 265.19 287.02
  Q 245.76 273.09 240.16 249.51
  Q 238.80 243.79 236.86 233.73
  Q 236.65 232.61 235.96 231.02
  A 0.52 0.52 0.0 0 0 235.07 230.90
  C 232.87 233.69 232.66 237.72 232.94 241.41
  Q 232.98 241.93 232.46 241.84
  Q 225.59 240.71 223.53 240.01
  C 213.45 236.60 206.47 226.86 214.73 217.18
  C 216.74 214.84 220.13 213.52 223.17 213.70
  C 227.02 213.93 230.34 218.38 234.27 219.60
  C 248.06 223.88 261.30 206.17 267.37 196.41
  Q 268.88 194.00 279.10 177.31
  Q 285.03 167.62 294.73 164.22
  Q 300.22 162.29 306.08 165.56
  Q 307.73 166.48 315.66 174.11
  Q 316.03 174.46 316.25 174.00
  Z
  M 285.03 205.30
  C 287.91 206.94 290.81 204.51 293.89 206.04
  Q 295.63 206.90 298.53 208.26
  C 301.16 209.49 306.68 210.27 307.56 206.23
  C 308.20 203.33 301.88 200.76 300.15 200.41
  C 293.33 199.03 284.35 199.85 279.44 205.45
  Q 276.58 208.71 280.60 207.01
  Q 281.18 206.77 283.65 205.31
  A 1.37 1.35 44.1 0 1 285.03 205.30
  Z
  M 325.67 208.30
  Q 329.25 207.82 331.31 208.51
  C 333.75 209.34 335.66 210.24 337.69 209.22
  Q 338.15 208.98 338.27 208.48
  C 339.55 203.33 334.31 201.40 330.00 201.35
  Q 323.17 201.29 318.65 205.67
  Q 310.92 213.17 311.94 224.41
  C 312.73 233.00 317.47 249.18 327.56 250.84
  A 0.62 0.61 -9.8 0 0 328.20 249.94
  Q 326.49 246.80 322.54 240.79
  C 316.98 232.35 314.19 219.46 321.13 210.94
  Q 322.98 208.67 325.67 208.30
  Z
  M 326.50 222.04
  C 326.60 225.79 328.58 230.47 333.02 230.01
  C 339.22 229.37 339.30 219.90 335.31 217.06
  C 331.54 214.37 319.02 217.86 318.88 223.35
  A 1.26 1.26 0.0 0 0 320.77 224.47
  L 325.73 221.61
  A 0.52 0.51 74.0 0 1 326.50 222.04
  Z
  M 293.51 223.99
  C 293.61 227.75 295.60 232.43 300.04 231.97
  C 306.24 231.33 306.32 221.85 302.33 219.01
  C 298.56 216.32 286.03 219.81 285.89 225.30
  A 1.26 1.26 0.0 0 0 287.78 226.42
  L 292.74 223.56
  A 0.52 0.51 74.0 0 1 293.51 223.99
  Z
  M 316.7668 278.1099
  A 4.43 3.97 90.3 0 0 320.7599 273.7008
  A 4.43 3.97 90.3 0 0 316.8132 269.2501
  A 4.43 3.97 90.3 0 0 312.8201 273.6592
  A 4.43 3.97 90.3 0 0 316.7668 278.1099
  Z"
/>
<path fill="#231f20" d="
  M 772.35 193.10
  Q 775.09 193.25 775.35 197.25
  Q 775.61 201.27 775.64 204.52
  Q 775.89 228.17 774.38 257.59
  Q 774.13 262.45 769.58 262.55
  C 754.11 262.88 736.34 262.03 728.75 262.47
  Q 720.63 262.95 712.50 262.62
  Q 709.22 262.49 708.89 260.73
  Q 710.65 259.93 712.80 259.03
  Q 714.68 258.24 716.88 258.02
  Q 725.76 257.12 730.27 257.23
  Q 748.64 257.65 767.59 256.67
  Q 768.49 256.62 768.52 255.71
  C 769.02 236.56 769.67 218.93 768.95 199.01
  Q 768.80 194.70 772.35 193.10
  Z"
/>
<path fill="#231f20" d="
  M 285.03 205.30
  A 1.37 1.35 44.1 0 0 283.65 205.31
  Q 281.18 206.77 280.60 207.01
  Q 276.58 208.71 279.44 205.45
  C 284.35 199.85 293.33 199.03 300.15 200.41
  C 301.88 200.76 308.20 203.33 307.56 206.23
  C 306.68 210.27 301.16 209.49 298.53 208.26
  Q 295.63 206.90 293.89 206.04
  C 290.81 204.51 287.91 206.94 285.03 205.30
  Z"
/>
<path fill="#231f20" d="
  M 321.13 210.94
  C 314.19 219.46 316.98 232.35 322.54 240.79
  Q 326.49 246.80 328.20 249.94
  A 0.62 0.61 -9.8 0 1 327.56 250.84
  C 317.47 249.18 312.73 233.00 311.94 224.41
  Q 310.92 213.17 318.65 205.67
  Q 323.17 201.29 330.00 201.35
  C 334.31 201.40 339.55 203.33 338.27 208.48
  Q 338.15 208.98 337.69 209.22
  C 335.66 210.24 333.75 209.34 331.31 208.51
  Q 329.25 207.82 325.67 208.30
  Q 322.98 208.67 321.13 210.94
  Z"
/>
<path fill="#231f20" d="
  M 326.50 222.04
  A 0.52 0.51 74.0 0 0 325.73 221.61
  L 320.77 224.47
  A 1.26 1.26 0.0 0 1 318.88 223.35
  C 319.02 217.86 331.54 214.37 335.31 217.06
  C 339.30 219.90 339.22 229.37 333.02 230.01
  C 328.58 230.47 326.60 225.79 326.50 222.04
  Z"
/>
<path fill="#231f20" d="
  M 293.51 223.99
  A 0.52 0.51 74.0 0 0 292.74 223.56
  L 287.78 226.42
  A 1.26 1.26 0.0 0 1 285.89 225.30
  C 286.03 219.81 298.56 216.32 302.33 219.01
  C 306.32 221.85 306.24 231.33 300.04 231.97
  C 295.60 232.43 293.61 227.75 293.51 223.99
  Z"
/>
<ellipse fill="#231f20" cx="0.00" cy="0.00" transform="translate(316.79,273.68) rotate(90.3)" rx="4.43" ry="3.97"/>
<path fill="#231f20" d="
  M 835.24 377.05
  Q 833.29 377.50 831.17 379.48
  A 2.05 1.90 -72.6 0 1 830.35 379.95
  C 827.80 380.68 824.15 377.91 826.32 374.79
  C 830.92 368.18 839.34 367.63 845.33 372.69
  C 853.79 379.85 851.51 392.78 841.79 397.78
  C 833.31 402.16 824.10 395.94 822.74 387.10
  A 0.61 0.60 84.0 0 0 822.12 386.59
  Q 811.71 386.88 794.73 385.60
  Q 788.91 385.16 784.40 384.10
  C 780.96 383.29 780.60 378.76 780.53 375.36
  Q 780.32 365.00 780.75 352.07
  Q 780.79 350.80 779.52 350.75
  Q 769.34 350.32 755.01 350.50
  C 751.09 350.55 750.26 347.83 749.94 344.57
  Q 749.46 339.57 749.58 333.59
  Q 749.88 318.08 750.09 303.59
  Q 750.22 294.94 751.61 288.64
  A 0.54 0.47 79.8 0 1 751.79 288.34
  Q 752.37 287.88 752.66 288.49
  Q 755.56 294.55 755.78 301.75
  Q 756.36 320.41 756.09 325.75
  Q 755.61 334.87 755.89 343.43
  A 0.66 0.65 89.5 0 0 756.53 344.07
  L 783.38 344.52
  Q 787.46 344.59 787.46 348.67
  L 787.50 376.55
  A 1.56 1.56 0.0 0 0 788.88 378.09
  Q 802.30 379.63 817.32 379.65
  Q 819.09 379.65 821.18 379.91
  C 823.72 380.23 826.09 379.96 827.14 382.13
  Q 827.39 382.63 827.38 384.59
  Q 827.36 390.72 833.14 393.11
  Q 834.87 393.82 833.55 392.50
  C 829.16 388.10 830.24 380.63 835.38 377.39
  Q 836.32 376.80 835.24 377.05
  Z"
/>
<path fill="#ffffff" d="
  M 343.13 337.26
  A 0.42 0.42 0.0 0 0 343.79 336.91
  Q 343.65 330.90 341.69 325.10
  Q 341.35 324.07 342.27 324.65
  C 348.77 328.81 354.69 334.09 354.60 342.58
  C 354.52 349.69 352.59 360.15 352.27 365.25
  Q 351.54 376.79 352.57 384.47
  Q 353.23 389.43 355.42 393.00
  A 0.43 0.43 0.0 0 1 355.22 393.62
  C 348.68 396.31 343.19 397.04 334.61 398.15
  Q 334.11 398.21 333.93 397.75
  Q 330.61 389.17 323.62 378.62
  C 319.02 371.68 310.96 361.50 307.72 351.26
  Q 306.25 346.61 307.93 340.34
  Q 308.13 339.59 308.48 340.28
  C 310.15 343.57 309.57 346.50 313.55 348.39
  A 1.17 1.17 0.0 0 0 315.20 347.14
  L 313.10 334.83
  Q 312.84 333.31 313.74 332.05
  L 315.21 330.00
  Q 316.00 328.88 316.38 330.20
  C 317.49 334.17 318.62 338.66 321.65 340.68
  Q 324.24 342.41 323.32 339.43
  Q 321.42 333.27 320.90 326.74
  Q 320.66 323.70 322.80 321.25
  A 0.67 0.67 0.0 0 1 323.96 321.59
  Q 324.51 325.13 327.95 331.55
  A 1.42 1.38 -40.0 0 0 330.28 331.73
  Q 330.34 331.66 330.39 331.55
  A 5.28 5.25 48.6 0 0 330.64 327.37
  Q 325.21 312.41 323.76 298.53
  Q 323.42 295.27 323.63 292.02
  Q 323.88 288.16 325.53 291.67
  Q 326.69 294.16 329.94 302.57
  Q 331.78 307.32 333.42 313.71
  Q 334.47 317.80 336.65 325.08
  C 338.16 330.11 339.47 334.73 343.13 337.26
  Z"
/>
<path fill="#231f20" d="
  M 687.33 491.85
  L 689.31 493.26
  A 1.00 1.00 0.0 0 1 689.16 494.97
  Q 686.83 496.11 685.39 496.50
  C 681.39 497.61 677.94 500.60 677.04 504.55
  C 675.70 510.46 681.34 514.94 687.05 514.08
  C 692.00 513.34 695.43 508.04 692.77 503.27
  Q 691.85 501.61 691.59 500.97
  Q 691.38 500.47 691.43 500.00
  C 691.66 497.92 695.16 495.09 697.39 497.32
  C 703.86 503.80 700.97 514.55 693.69 518.93
  Q 685.76 523.70 677.60 518.29
  C 666.46 510.90 670.38 496.52 681.46 492.00
  A 0.45 0.43 -15.1 0 0 681.74 491.53
  Q 680.15 480.68 679.98 468.81
  Q 679.90 463.26 685.82 463.03
  Q 706.01 462.23 726.48 463.04
  Q 727.69 463.09 727.73 461.88
  Q 728.69 432.49 728.18 409.14
  A 1.02 1.02 0.0 0 0 727.21 408.14
  Q 719.80 407.71 705.04 407.11
  Q 702.87 407.02 699.92 406.37
  A 2.20 2.19 0.6 0 1 698.24 404.66
  Q 697.60 401.41 697.58 398.25
  Q 697.49 380.39 698.11 352.77
  C 698.46 337.33 698.09 317.56 698.89 304.31
  Q 699.21 299.13 700.16 295.29
  Q 700.81 292.68 701.73 295.21
  Q 704.18 301.94 704.25 309.51
  Q 704.54 341.31 703.05 383.25
  Q 702.81 389.93 703.27 400.63
  A 0.55 0.55 0.0 0 0 703.80 401.15
  L 731.92 402.33
  A 2.36 2.35 -7.1 0 1 734.08 404.01
  Q 734.83 406.52 734.91 410.01
  Q 735.49 438.36 734.45 465.25
  Q 734.39 466.86 733.79 468.36
  Q 733.60 468.82 733.16 469.05
  Q 731.80 469.76 728.51 469.89
  C 717.20 470.31 700.75 470.08 688.48 470.91
  A 0.85 0.83 -1.9 0 0 687.70 471.73
  Q 687.66 476.85 687.67 485.00
  Q 687.67 488.31 687.01 490.98
  A 0.83 0.81 25.3 0 0 687.33 491.85
  Z"
/>
<path fill="#ffffff" d="
  M 171.48 340.51
  C 175.73 345.81 182.14 346.86 189.13 344.88
  Q 190.37 344.53 189.41 345.39
  L 185.08 349.27
  A 3.30 3.27 -64.7 0 1 182.80 350.10
  C 176.48 349.91 170.30 347.88 170.93 340.67
  A 0.31 0.31 0.0 0 1 171.48 340.51
  Z"
/>
<rect fill="#c7c7c7" x="-4.56" y="-5.33" transform="translate(269.52,352.51) rotate(1.1)" width="9.12" height="10.66" rx="4.13"/>
<path fill="#ffffff" d="
  M 360.13 383.34
  L 370.26 384.36
  Q 370.69 384.41 370.73 384.84
  Q 370.75 385.08 370.64 385.19
  C 370.64 385.20 361.16 386.34 359.38 386.65
  Q 358.87 386.74 358.66 386.27
  Q 357.67 384.13 357.79 381.41
  Q 357.81 380.95 358.11 381.31
  L 359.43 382.96
  Q 359.70 383.29 360.13 383.34
  Z"
/>
<path fill="#231f20" d="
  M 397.11 418.71
  C 398.04 420.67 399.38 421.00 400.70 422.06
  Q 401.20 422.45 401.31 423.08
  L 402.24 428.53
  A 0.61 0.61 0.0 0 1 401.40 429.19
  Q 397.88 427.68 395.59 424.37
  Q 393.83 421.82 390.40 415.26
  C 386.49 407.78 384.34 400.50 381.16 393.33
  A 1.95 1.95 0.0 0 1 382.10 390.78
  C 385.83 388.98 387.99 394.81 389.13 398.32
  Q 392.80 409.64 397.11 418.71
  Z"
/>
<path fill="#c7c7c7" d="
  M 152.17 407.35
  A 2.24 2.24 0.0 0 1 155.29 406.83
  L 156.63 407.78
  A 5.68 5.67 35.5 0 1 157.96 415.70
  L 157.96 415.70
  A 5.68 5.67 35.5 0 1 150.04 417.01
  L 148.71 416.06
  A 2.24 2.24 0.0 0 1 148.19 412.94
  L 152.17 407.35
  Z"
/>
<path fill="#231f20" d="
  M 180.00 452.87
  Q 184.47 461.37 191.29 469.34
  C 194.40 472.98 199.24 476.64 202.57 480.08
  A 0.39 0.38 65.6 0 1 202.33 480.73
  Q 197.31 481.09 193.11 477.87
  C 185.92 472.33 181.29 465.93 176.25 458.44
  C 173.49 454.34 172.53 451.52 175.57 447.28
  Q 187.36 430.86 203.45 417.61
  A 3.73 3.65 -45.1 0 1 208.12 417.55
  L 208.32 417.71
  Q 210.35 419.36 208.35 421.04
  Q 192.07 434.71 180.11 451.29
  A 1.50 1.49 -41.3 0 0 180.00 452.87
  Z"
/>
<ellipse fill="#c7c7c7" cx="0.00" cy="0.00" transform="translate(254.92,439.20) rotate(126.6)" rx="5.63" ry="4.40"/>
<path fill="#c7c7c7" d="
  M 335.54 456.95
  L 330.47 445.30
  Q 337.03 444.32 338.76 450.55
  Q 339.90 454.62 335.54 456.95
  Z"
/>
<path fill="#c7c7c7" d="
  M 402.43 468.55
  A 2.00 2.00 0.0 0 1 402.01 471.34
  L 401.33 471.85
  A 6.01 5.73 53.5 0 1 393.15 470.43
  L 392.99 470.22
  A 6.01 5.73 53.5 0 1 394.03 461.98
  L 394.71 461.47
  A 2.00 2.00 0.0 0 1 397.51 461.89
  L 402.43 468.55
  Z"
/>
<ellipse fill="#c7c7c7" cx="0.00" cy="0.00" transform="translate(160.15,478.82) rotate(47.4)" rx="5.10" ry="4.62"/>
<path fill="#231f20" d="
  M 368.03 918.93
  Q 366.08 912.85 366.46 905.65
  C 366.76 900.06 375.05 902.67 378.31 903.68
  C 396.11 909.21 406.33 912.54 417.20 915.08
  Q 422.63 916.35 428.23 915.88
  A 0.98 0.97 82.0 0 0 429.10 914.72
  C 428.71 912.72 427.91 910.92 426.40 909.65
  Q 418.87 903.27 412.17 900.36
  Q 398.87 894.59 397.60 893.99
  Q 394.85 892.67 397.64 891.88
  Q 400.88 890.97 404.40 892.11
  Q 417.64 896.37 428.16 904.45
  C 430.75 906.45 434.46 909.90 435.42 912.87
  Q 436.42 916.03 434.09 919.76
  Q 433.13 921.31 430.81 921.83
  Q 422.86 923.63 412.77 923.69
  Q 382.86 923.87 350.02 922.70
  Q 349.03 922.67 349.02 921.92
  A 0.49 0.48 -6.5 0 1 349.41 921.44
  Q 358.47 919.65 367.75 919.32
  A 0.30 0.30 0.0 0 0 368.03 918.93
  Z
  M 403.07 918.57
  Q 404.58 918.53 403.13 918.09
  L 373.65 909.04
  Q 372.29 908.63 372.31 910.06
  L 372.40 916.18
  Q 372.41 916.51 372.27 916.95
  L 371.70 918.81
  Q 371.53 919.35 372.10 919.34
  L 403.07 918.57
  Z"
/>
<path fill="#ffffff" d="
  M 403.07 918.57
  L 372.10 919.34
  Q 371.53 919.35 371.70 918.81
  L 372.27 916.95
  Q 372.41 916.51 372.40 916.18
  L 372.31 910.06
  Q 372.29 908.63 373.65 909.04
  L 403.13 918.09
  Q 404.58 918.53 403.07 918.57
  Z"
/>
<path fill="#ffffff" d="
  M 290.07 917.86
  L 290.97 926.04
  A 0.58 0.57 -5.2 0 1 290.43 926.68
  Q 275.64 927.67 268.00 927.71
  Q 265.51 927.72 265.44 927.73
  Q 260.26 928.25 265.27 926.80
  Q 276.99 923.41 289.62 917.61
  Q 290.02 917.42 290.07 917.86
  Z"
/>
</svg>
