<?xml version="1.0" encoding="UTF-8" standalone="no"?>
<!DOCTYPE svg PUBLIC "-//W3C//DTD SVG 1.1//EN" "http://www.w3.org/Graphics/SVG/1.1/DTD/svg11.dtd">
<svg xmlns="http://www.w3.org/2000/svg" version="1.1" viewBox="0.00 0.00 1024.00 1024.00">
<g stroke-width="2.00" fill="none" stroke-linecap="butt">
<path stroke="#918f90" vector-effect="non-scaling-stroke" d="
  M 849.38 897.11
  Q 848.25 891.94 843.48 889.20
  Q 840.04 887.22 838.22 886.51
  Q 829.04 882.89 816.29 877.99
  Q 815.00 877.49 813.56 876.32
  Q 813.16 876.00 813.16 875.49
  C 813.13 873.51 813.36 867.62 810.12 868.37
  A 1.53 1.49 16.5 0 0 809.47 868.71
  Q 807.71 870.33 807.31 871.76
  C 806.59 874.40 806.72 878.56 808.65 880.56
  Q 810.78 882.77 815.10 884.43
  Q 817.17 885.22 832.38 890.91
  Q 836.38 892.41 840.01 894.84
  Q 841.95 896.14 839.96 897.34
  Q 839.62 897.55 838.00 897.61
  Q 819.10 898.34 800.13 894.87
  Q 796.55 894.22 790.47 891.91
  Q 785.92 890.18 785.17 885.07
  C 784.42 879.93 784.67 875.32 784.57 870.24
  Q 784.54 868.48 786.54 868.43
  C 795.81 868.19 803.60 866.43 813.54 865.66
  Q 832.98 864.15 851.46 859.91
  Q 858.27 858.34 866.51 854.77
  Q 873.79 851.60 876.19 844.67
  C 878.78 837.16 879.77 826.79 880.17 820.23
  Q 881.52 798.48 881.18 776.76
  Q 880.57 738.42 877.34 702.40
  C 871.88 641.60 865.89 580.82 848.61 522.18
  Q 844.41 507.94 835.40 493.44
  Q 835.14 493.02 835.33 492.55
  Q 850.35 455.56 858.56 417.77
  Q 863.82 393.55 865.49 370.80
  Q 866.63 355.32 866.69 350.80
  Q 867.02 326.37 862.83 308.41
  C 858.81 291.20 850.45 273.34 837.40 262.39
  Q 824.52 251.59 807.08 252.36
  C 798.43 252.75 790.63 255.90 783.41 260.44
  Q 781.23 261.81 783.76 261.34
  C 793.64 259.51 802.48 257.72 811.05 258.32
  Q 829.91 259.65 841.29 275.04
  C 854.00 292.24 858.98 313.13 860.57 334.44
  C 861.30 344.26 861.11 357.53 860.11 367.84
  Q 853.36 437.13 824.92 500.69
  C 822.48 506.15 819.59 510.87 816.53 515.78
  C 815.50 517.44 814.06 519.42 811.78 519.59
  C 802.41 520.27 766.85 515.01 763.85 503.99
  C 762.56 499.27 763.36 492.87 764.41 487.81
  Q 767.18 474.56 774.47 457.99
  Q 785.11 433.85 788.39 425.38
  C 792.40 415.01 796.10 404.65 797.10 393.60
  Q 797.37 390.70 796.64 387.97
  A 0.57 0.56 -31.9 0 0 795.67 387.75
  Q 794.01 389.65 793.05 392.02
  Q 792.77 392.71 792.46 392.04
  L 791.33 389.62
  Q 791.20 389.33 790.89 389.24
  Q 790.68 389.17 790.57 389.19
  Q 790.13 389.23 790.13 389.66
  Q 790.06 394.26 789.82 395.51
  C 788.32 403.61 787.64 408.74 785.37 414.96
  C 780.56 428.14 772.51 446.21 768.97 454.27
  C 766.24 460.50 761.53 464.39 754.64 465.76
  C 745.40 467.60 737.96 467.67 726.97 467.39
  Q 723.49 467.31 720.24 466.28
  C 714.96 464.62 711.92 463.53 708.86 460.10
  Q 701.31 451.64 697.04 441.00
  Q 691.39 426.92 688.19 411.54
  Q 687.50 408.25 689.15 400.91
  A 2.84 2.83 -51.5 0 0 688.95 399.12
  Q 688.66 398.51 688.45 398.42
  Q 687.41 397.99 687.21 398.78
  Q 686.69 400.84 686.32 401.31
  Q 685.89 401.86 685.66 401.21
  Q 685.23 400.01 685.35 398.83
  Q 685.40 398.35 684.94 398.50
  L 684.62 398.61
  Q 684.51 398.65 684.49 398.75
  C 682.10 409.18 683.78 419.21 686.88 429.69
  C 692.53 448.84 701.31 465.48 710.99 486.33
  Q 713.41 491.55 716.20 500.08
  C 717.21 503.18 719.29 509.87 713.74 510.04
  Q 711.36 510.11 703.08 510.05
  Q 699.13 510.02 692.52 511.19
  C 687.46 512.09 676.35 515.02 668.78 514.38
  A 1.96 1.94 -15.0 0 1 667.36 513.57
  Q 663.86 508.62 660.22 501.32
  Q 650.94 482.66 642.71 458.04
  Q 633.52 430.53 626.96 400.45
  Q 620.49 370.77 618.76 343.00
  C 617.74 326.71 619.47 310.95 625.75 295.77
  Q 628.59 288.90 631.76 284.78
  C 637.63 277.12 649.23 270.90 658.94 274.92
  Q 660.90 275.73 666.89 280.46
  C 682.60 292.86 702.63 296.44 721.86 291.10
  C 747.10 284.09 765.71 263.83 771.09 238.23
  A 1.02 1.01 18.7 0 1 772.53 237.52
  Q 775.92 239.15 780.52 239.75
  Q 790.53 241.04 800.21 238.85
  Q 801.42 238.57 800.33 239.15
  C 794.02 242.49 784.59 245.55 777.48 243.85
  Q 776.89 243.71 776.92 244.31
  L 776.94 244.58
  Q 776.95 244.71 777.07 244.75
  Q 786.18 248.16 795.54 246.53
  C 805.16 244.85 814.60 238.39 820.52 230.82
  Q 833.74 213.91 828.80 192.91
  C 826.13 181.56 819.52 173.31 810.99 165.85
  Q 808.01 163.24 808.34 161.34
  Q 809.99 151.96 809.04 141.95
  C 807.63 127.04 797.86 116.69 782.54 116.50
  C 778.85 116.45 775.26 117.75 770.76 118.52
  Q 763.98 119.68 760.28 115.26
  C 756.53 110.78 752.79 104.93 748.94 101.21
  Q 736.97 89.63 720.01 89.16
  Q 701.31 88.64 690.39 103.34
  Q 685.53 109.88 680.69 114.93
  C 675.08 120.78 669.83 120.73 661.55 119.58
  Q 651.85 118.24 648.04 117.93
  Q 639.83 117.28 635.88 117.88
  C 623.34 119.81 613.48 127.51 609.47 139.41
  C 606.30 148.83 606.91 159.83 608.09 170.14
  C 608.79 176.16 609.63 180.35 605.38 183.89
  Q 605.01 184.20 598.14 189.66
  C 586.83 198.65 582.13 214.63 588.55 227.61
  C 596.24 243.17 617.77 251.44 633.96 246.18
  Q 636.97 245.21 638.91 243.83
  Q 641.59 241.92 638.30 241.86
  C 633.64 241.78 628.47 242.48 624.56 242.27
  Q 615.11 241.77 606.67 237.32
  Q 594.22 230.76 591.66 216.84
  Q 591.66 216.79 591.68 216.75
  L 591.85 216.47
  Q 591.96 216.26 592.03 216.49
  C 595.20 226.83 603.09 232.07 613.56 234.22
  Q 628.09 237.19 641.57 232.57
  Q 642.42 232.28 642.62 233.16
  Q 646.21 249.18 654.81 262.64
  A 0.35 0.35 0.0 0 1 654.49 263.18
  Q 646.62 262.73 640.19 267.24
  C 614.90 284.97 610.38 318.69 612.59 347.02
  C 613.63 360.42 615.00 372.97 617.19 385.11
  Q 625.80 432.94 642.85 478.52
  Q 647.59 491.17 652.95 502.45
  C 655.47 507.77 661.24 520.17 667.31 520.91
  Q 670.41 521.30 671.54 521.35
  Q 672.04 521.37 672.16 521.85
  Q 673.86 528.31 671.28 532.50
  Q 667.63 538.40 666.79 540.31
  Q 662.90 549.15 668.26 558.23
  Q 668.87 559.27 672.01 562.85
  Q 672.35 563.24 672.31 563.75
  Q 672.10 566.50 671.60 567.83
  Q 667.72 578.09 666.00 585.33
  C 656.65 624.59 644.77 671.89 637.44 702.95
  C 632.75 722.81 628.76 743.13 625.09 762.82
  Q 622.31 777.74 619.72 798.77
  Q 618.09 811.94 618.46 825.17
  C 618.59 829.71 619.39 835.64 621.06 839.57
  C 624.22 847.00 632.33 851.82 639.71 854.57
  Q 652.23 859.24 665.73 861.70
  Q 666.57 861.85 666.57 862.70
  Q 666.50 871.53 666.34 873.52
  C 666.18 875.39 666.07 876.99 664.24 878.02
  Q 662.55 878.98 660.25 879.73
  Q 639.24 886.64 638.40 886.92
  Q 633.51 888.58 629.12 891.09
  Q 624.53 893.71 625.39 898.36
  Q 625.48 898.86 624.99 899.01
  L 622.16 899.89
  Q 618.90 900.90 621.98 902.45
  Q 623.09 903.01 625.56 903.29
  C 641.33 905.04 657.37 906.02 673.06 901.55
  C 676.13 900.67 678.16 899.09 679.79 896.52
  A 0.62 0.62 0.0 0 0 679.19 895.57
  C 673.81 896.24 665.91 898.46 660.09 899.09
  Q 650.71 900.11 641.25 899.25
  Q 636.39 898.81 631.99 897.10
  A 0.87 0.87 0.0 0 1 631.87 895.54
  Q 636.38 892.94 640.76 891.46
  Q 653.95 887.02 663.06 884.33
  Q 668.27 882.80 669.56 881.32
  C 672.74 877.66 672.64 871.59 672.17 867.18
  A 1.60 1.60 0.0 0 1 673.34 865.46
  C 686.26 861.95 699.92 867.38 712.91 863.52
  Q 713.39 863.38 713.50 862.89
  Q 713.59 862.43 713.26 861.59
  Q 713.05 861.05 713.61 860.88
  Q 714.63 860.58 715.30 860.81
  A 0.88 0.87 6.1 0 1 715.88 861.52
  L 717.58 874.22"
/>
<path stroke="#cecdce" vector-effect="non-scaling-stroke" d="
  M 717.58 874.22
  L 715.93 879.53"
/>
<path stroke="#918f90" vector-effect="non-scaling-stroke" d="
  M 715.93 879.53
  Q 704.31 876.78 693.15 878.78
  Q 687.70 879.75 685.17 884.67
  Q 682.14 890.57 682.10 896.27
  C 682.08 898.18 683.06 899.29 684.85 900.02
  C 689.72 902.01 696.33 902.39 700.84 902.55
  Q 730.10 903.55 761.86 901.32
  Q 767.21 900.95 774.07 900.10
  Q 780.13 899.35 782.60 897.68
  C 784.39 896.46 786.80 896.57 788.65 897.12
  Q 803.37 901.44 813.01 902.24
  Q 819.22 902.76 825.44 903.32
  C 830.56 903.77 836.27 903.47 841.70 903.66"
/>
<path stroke="#918f90" vector-effect="non-scaling-stroke" d="
  M 150.32 149.47
  Q 140.39 163.91 140.97 180.99
  Q 141.12 185.36 141.91 187.53
  Q 142.45 189.00 143.99 189.78
  A 0.77 0.76 -54.0 0 0 144.89 189.63
  Q 146.88 187.59 146.92 185.83
  Q 147.12 176.30 147.57 173.28
  Q 149.38 161.10 156.48 151.74
  C 170.64 133.09 194.11 122.78 217.26 122.08
  C 231.19 121.65 244.80 127.07 256.28 134.91
  Q 257.40 135.67 264.68 141.69
  Q 268.93 145.20 273.55 147.96
  Q 274.86 148.74 274.31 147.31
  Q 271.45 139.86 265.10 134.41
  C 250.69 122.03 233.01 114.99 213.49 116.05
  Q 191.52 117.24 172.26 129.07"
/>
<path stroke="#918f90" vector-effect="non-scaling-stroke" d="
  M 387.07 74.82
  C 382.14 79.70 378.59 83.95 376.06 89.97
  A 0.83 0.83 0.0 0 0 377.10 91.08
  Q 378.40 90.62 379.63 89.37
  C 381.79 87.18 385.35 82.90 388.64 80.05
  Q 395.03 74.50 401.37 68.88
  Q 401.97 68.35 403.23 66.29
  Q 403.65 65.60 403.59 65.17
  Q 403.50 64.39 402.61 64.09
  A 1.76 1.68 -43.2 0 0 401.51 64.08
  Q 395.08 66.08 390.65 70.92
  Q 387.11 74.78 387.07 74.82"
/>
<path stroke="#918f90" vector-effect="non-scaling-stroke" d="
  M 409.04 94.96
  Q 405.07 96.48 401.25 99.95
  A 1.80 1.80 0.0 0 0 401.38 102.73
  C 402.49 103.56 403.67 103.58 405.03 103.09
  Q 405.49 102.93 415.66 99.11
  C 418.77 97.94 423.59 95.72 423.71 92.03
  A 1.38 1.38 0.0 0 0 422.50 90.63
  Q 417.77 90.04 414.12 92.39
  Q 411.75 93.92 409.04 94.96"
/>
<path stroke="#918f90" vector-effect="non-scaling-stroke" d="
  M 439.64 125.79
  L 417.35 121.01
  A 0.16 0.16 0.0 0 0 417.16 121.14
  L 416.82 122.69
  A 11.19 4.95 12.1 0 0 426.73 129.88
  L 427.45 130.03
  A 11.19 4.95 12.1 0 0 439.43 127.54
  L 439.76 125.98
  A 0.16 0.16 0.0 0 0 439.64 125.79"
/>
<path stroke="#918f90" vector-effect="non-scaling-stroke" d="
  M 401.77 200.42
  Q 403.56 195.63 404.13 190.62
  C 408.18 155.14 384.76 129.69 350.23 126.66
  C 339.65 125.73 320.60 129.33 314.87 138.82
  Q 313.66 140.83 315.86 140.03
  C 321.63 137.96 328.09 134.83 333.91 133.42
  Q 353.12 128.77 371.40 137.93
  Q 391.01 147.75 396.44 169.15
  Q 399.01 179.25 397.13 190.28
  C 396.29 195.23 392.58 201.34 388.75 204.44
  Q 388.34 204.77 388.65 205.20
  Q 390.33 207.50 391.52 207.56
  Q 396.30 207.84 398.95 208.13
  C 424.29 210.88 440.54 231.78 438.69 256.87
  Q 438.10 265.02 433.62 273.39
  Q 423.50 292.31 402.04 297.80
  C 392.11 300.33 383.02 299.71 372.75 297.97
  Q 369.71 297.46 365.84 297.57
  Q 364.25 297.62 365.45 298.66
  Q 369.44 302.14 375.52 303.75
  C 399.30 310.03 427.63 298.23 439.32 276.50
  C 451.76 253.38 445.80 226.24 425.43 210.10
  Q 415.04 201.87 402.17 201.05
  A 0.46 0.46 0.0 0 1 401.77 200.42"
/>
<path stroke="#918f90" vector-effect="non-scaling-stroke" d="
  M 364.14 210.26
  C 366.12 209.74 369.83 208.08 369.92 205.55
  C 370.05 202.03 368.60 198.62 366.89 194.51
  C 365.66 191.58 363.29 190.95 360.49 192.13
  Q 358.74 192.86 358.56 192.91
  Q 358.07 193.07 357.81 192.72
  L 354.80 188.77
  A 1.39 1.38 40.6 0 1 354.68 187.28
  C 356.73 183.50 359.32 178.45 353.84 176.23
  Q 347.99 173.87 344.69 172.81
  C 339.90 171.26 337.74 173.73 338.19 178.16
  Q 338.31 179.34 337.14 179.18
  L 332.65 178.59
  Q 331.56 178.45 331.64 177.35
  Q 331.79 175.22 330.81 172.43
  A 2.53 2.53 0.0 0 0 328.73 170.76
  Q 321.25 169.85 314.47 172.18
  C 309.96 173.73 312.08 181.08 313.68 184.15
  Q 313.92 184.60 313.67 185.03
  Q 313.29 185.69 312.46 186.01
  Q 312.01 186.19 311.63 185.88
  C 307.83 182.75 303.91 179.51 299.94 184.97
  Q 296.18 190.12 295.54 193.23
  Q 295.43 193.77 294.89 193.67
  C 290.21 192.85 287.07 191.59 281.82 192.47
  A 1.89 1.57 83.0 0 0 280.54 194.46
  Q 280.55 194.64 281.32 194.71
  C 289.83 195.41 299.85 197.85 303.69 205.97
  A 0.68 0.68 0.0 0 1 303.20 206.93
  C 299.47 207.66 295.96 208.21 293.47 210.67
  A 0.62 0.62 0.0 0 0 293.84 211.73
  Q 295.83 211.97 297.28 211.78
  C 304.26 210.84 311.34 209.55 318.44 210.24
  C 335.53 211.90 349.48 215.12 362.09 225.64
  Q 366.13 229.02 372.57 238.35
  Q 373.52 239.73 375.71 238.40
  Q 375.78 238.36 375.83 238.22
  Q 376.96 235.38 375.84 233.51
  Q 372.61 228.09 369.14 224.90
  Q 368.76 224.56 368.99 224.10
  Q 370.92 220.37 371.01 216.99
  Q 371.21 209.63 364.18 210.47
  A 0.11 0.11 0.0 0 1 364.14 210.26"
/>
<path stroke="#918f90" vector-effect="non-scaling-stroke" d="
  M 246.33 233.97
  Q 250.70 233.13 254.00 231.77
  Q 258.46 229.95 257.73 225.02
  Q 256.99 220.02 254.96 215.05
  C 252.58 209.22 247.42 209.57 242.65 212.00
  A 0.94 0.94 0.0 0 1 241.40 211.63
  L 239.41 208.19
  A 1.00 1.00 0.0 0 1 239.56 206.99
  C 242.80 203.61 246.74 198.82 242.47 194.42
  Q 239.33 191.18 231.60 186.70
  C 226.26 183.60 222.62 189.16 221.17 193.38
  A 0.79 0.78 -74.2 0 1 220.26 193.89
  L 211.11 191.83
  Q 210.70 191.73 210.66 191.32
  C 210.10 185.54 209.13 177.74 201.93 179.12
  Q 196.50 180.17 190.65 182.23
  C 188.66 182.94 186.94 183.45 185.72 185.29
  C 183.73 188.30 186.27 192.97 188.33 195.36
  A 0.60 0.59 -35.2 0 1 188.17 196.26
  L 179.61 201.20
  A 0.26 0.26 0.0 0 1 179.27 201.14
  Q 177.04 198.34 173.73 196.47
  C 170.16 194.45 168.06 195.86 165.34 198.59
  C 161.68 202.28 155.13 209.13 159.22 214.27
  Q 161.89 217.63 167.62 220.68
  Q 168.08 220.92 168.03 221.44
  Q 167.92 222.61 167.39 223.80
  Q 167.18 224.28 166.66 224.22
  C 158.83 223.36 152.65 223.17 152.28 233.24
  Q 152.26 233.77 151.72 233.77
  C 147.13 233.76 143.52 233.51 139.26 235.21
  Q 136.46 236.34 135.23 238.13
  A 1.16 1.16 0.0 0 0 136.14 239.95
  Q 137.18 239.99 138.46 239.67
  Q 153.43 235.92 166.65 243.95
  Q 168.90 245.32 170.82 249.55
  C 171.78 251.67 170.22 254.96 168.96 256.22
  Q 166.69 258.50 164.35 262.30
  Q 162.89 264.67 165.29 266.08
  Q 165.67 266.30 165.70 266.30
  A 4.52 3.85 22.2 0 0 169.71 264.98
  Q 181.88 250.18 201.11 243.86
  Q 219.34 237.87 235.56 238.75
  C 241.52 239.07 249.95 240.48 258.09 242.85
  Q 262.74 244.20 266.77 243.21
  A 0.55 0.55 0.0 0 0 267.01 242.27
  C 262.08 237.69 253.73 236.45 246.32 234.74
  Q 244.53 234.32 246.33 233.97"
/>
<path stroke="#918f90" vector-effect="non-scaling-stroke" d="
  M 95.24 225.56
  C 83.46 244.76 83.38 268.63 96.13 286.96
  C 106.15 301.36 122.82 309.71 140.27 312.47
  Q 159.42 315.50 177.99 308.55
  Q 182.10 307.01 184.76 304.60
  A 1.48 1.47 41.2 0 0 184.60 302.29
  Q 182.69 300.97 179.85 301.64
  C 175.65 302.63 169.26 305.05 164.65 305.94
  Q 139.28 310.83 117.08 297.80
  Q 108.72 292.90 102.52 284.35
  C 93.96 272.54 93.08 255.27 96.38 241.46
  C 102.10 217.50 124.16 204.98 148.12 208.41
  Q 149.51 208.60 148.61 207.53
  C 140.88 198.25 126.30 201.53 116.54 206.51
  Q 102.55 213.64 95.24 225.56"
/>
<path stroke="#918f90" vector-effect="non-scaling-stroke" d="
  M 866.11 236.23
  C 868.37 238.74 869.38 241.42 870.85 243.88
  Q 871.73 245.37 873.42 245.17
  A 1.51 1.50 3.2 0 0 874.72 244.02
  Q 875.31 241.54 874.43 239.70
  C 872.65 235.93 868.49 231.84 863.86 231.85
  A 0.91 0.74 65.2 0 0 863.48 233.31
  Q 863.55 233.38 866.11 236.23"
/>
<path stroke="#918f90" vector-effect="non-scaling-stroke" d="
  M 856.86 248.35
  Q 860.66 252.73 863.64 259.38
  Q 864.44 261.18 866.01 261.83
  A 1.45 1.45 0.0 0 0 867.99 260.71
  C 868.71 256.13 868.16 252.57 864.78 248.94
  C 859.82 243.63 855.10 239.40 847.32 240.46
  Q 845.37 240.73 847.09 241.70
  C 851.10 243.98 854.28 245.38 856.86 248.35"
/>
<path stroke="#918f90" vector-effect="non-scaling-stroke" d="
  M 585.73 275.73
  Q 587.37 271.56 591.54 266.80
  C 593.90 264.12 596.72 261.47 596.93 259.14
  A 1.36 1.36 0.0 0 0 595.46 257.66
  C 590.95 258.04 587.99 259.99 585.62 263.63
  C 584.24 265.76 581.85 269.16 581.10 271.67
  Q 579.62 276.64 580.82 281.70
  A 1.12 1.11 -25.5 0 0 582.58 282.32
  C 584.09 281.18 585.02 277.50 585.73 275.73"
/>
<path stroke="#918f90" vector-effect="non-scaling-stroke" d="
  M 597.90 288.84
  Q 598.71 284.86 601.68 279.96
  C 603.37 277.20 605.47 274.39 605.30 272.28
  A 1.23 1.23 0.0 0 0 603.75 271.19
  C 599.79 272.24 597.45 274.44 595.91 278.06
  C 595.01 280.17 593.41 283.58 593.13 285.94
  Q 592.59 290.61 594.45 294.93
  A 1.01 1.01 0.0 0 0 596.11 295.21
  C 597.28 293.96 597.54 290.53 597.90 288.84"
/>
<path stroke="#918f90" vector-effect="non-scaling-stroke" d="
  M 275.59 349.36
  C 244.30 347.45 206.34 329.07 199.99 294.82
  C 199.42 291.75 199.04 287.46 197.47 284.53
  A 0.97 0.97 0.0 0 0 196.03 284.21
  C 188.88 289.49 196.07 307.62 199.57 313.79
  C 215.30 341.61 248.59 355.72 279.64 356.28
  C 293.42 356.53 307.75 350.58 320.05 343.52
  C 331.30 337.07 342.22 326.07 347.71 314.13
  C 350.06 309.01 350.66 304.86 350.12 299.43
  Q 349.89 297.15 348.98 299.25
  Q 346.80 304.23 344.40 308.91
  C 335.28 326.62 319.30 339.39 300.69 345.62
  Q 287.36 350.08 275.59 349.36"
/>
<path stroke="#918f90" vector-effect="non-scaling-stroke" d="
  M 716.14 316.28
  C 718.90 326.17 728.07 317.86 728.96 312.95
  C 730.07 306.84 723.73 301.75 718.49 305.55
  C 716.09 307.28 715.53 314.08 716.14 316.28"
/>
<path stroke="#918f90" vector-effect="non-scaling-stroke" d="
  M 445.55 784.41
  C 418.37 760.73 404.25 727.39 405.34 691.06
  C 405.84 674.37 408.66 658.52 413.27 641.32
  C 421.11 612.13 425.58 597.43 429.38 575.28
  Q 431.46 563.20 431.65 554.56
  C 432.06 535.35 427.88 515.24 416.53 499.36
  C 397.13 472.22 365.98 466.12 334.54 470.52
  Q 322.48 472.21 301.36 475.87
  Q 282.52 479.13 258.76 478.50
  Q 241.43 478.05 226.58 472.41
  C 191.38 459.05 174.98 422.62 186.56 386.82
  Q 189.22 378.59 195.27 366.27
  Q 195.84 365.11 195.89 364.08
  A 0.65 0.65 0.0 0 0 194.90 363.50
  Q 187.89 367.79 184.03 374.82
  Q 175.34 390.63 174.92 408.53
  C 174.01 446.71 200.32 475.91 237.07 483.66
  C 266.61 489.88 296.35 484.97 326.27 479.50
  Q 343.23 476.39 359.25 477.11
  C 384.47 478.23 406.24 490.63 416.86 514.14
  Q 423.05 527.82 424.28 542.01
  C 427.30 576.86 412.88 611.54 406.13 644.31
  Q 402.52 661.84 401.39 668.67
  Q 395.75 702.75 406.74 736.97
  Q 412.06 753.50 422.54 767.69
  C 450.48 805.49 496.59 824.84 542.35 830.08
  C 555.71 831.61 570.44 830.88 583.54 826.93
  Q 583.68 826.89 583.72 826.76
  Q 583.78 826.62 583.73 826.48
  Q 583.62 826.19 583.32 826.23
  Q 571.75 827.41 566.51 827.31
  C 523.60 826.53 478.17 812.84 445.55 784.41"
/>
<path stroke="#605d5e" vector-effect="non-scaling-stroke" d="
  M 715.93 879.53
  Q 716.75 879.72 716.12 880.81
  A 1.06 1.05 9.6 0 1 715.41 881.31
  Q 708.21 882.61 701.07 883.16
  C 694.68 883.66 690.89 889.07 689.32 894.63
  A 0.66 0.65 13.4 0 0 689.83 895.45
  L 693.64 896.19"
/>
<path stroke="#918f90" vector-effect="non-scaling-stroke" d="
  M 693.64 896.19
  Q 712.83 897.85 723.00 897.47
  C 746.91 896.58 759.28 896.66 776.78 894.17
  A 1.06 1.06 0.0 0 0 777.62 892.73
  C 776.05 888.70 773.62 884.78 770.07 883.28
  Q 768.23 882.50 763.26 882.98
  C 756.83 883.60 751.66 884.42 747.05 882.51
  C 743.28 880.94 743.54 877.97 743.61 873.87
  Q 743.91 857.72 744.80 840.91
  Q 745.52 827.49 745.74 820.94
  C 746.34 803.69 748.00 780.86 748.75 760.73
  Q 750.27 720.14 749.97 682.26
  Q 749.85 667.67 748.50 655.80
  Q 748.28 653.90 747.52 650.65
  C 746.96 648.26 745.74 647.63 743.38 646.93
  Q 735.49 644.56 728.85 645.75"
/>
<path stroke="#605d5e" vector-effect="non-scaling-stroke" d="
  M 728.85 645.75
  L 720.53 647.53
  Q 720.03 647.63 719.85 648.12
  Q 719.09 650.13 719.00 651.27
  Q 717.46 670.61 717.39 689.51
  Q 717.18 748.58 718.79 813.51
  C 719.16 828.44 719.04 837.42 719.03 858.25
  Q 719.02 866.34 717.58 874.22"
/>
<path stroke="#868484" vector-effect="non-scaling-stroke" d="
  M 768.08 216.46
  Q 768.24 214.53 769.20 216.20
  Q 773.31 223.32 772.25 232.31
  A 0.38 0.38 0.0 0 0 772.81 232.69
  C 779.33 229.06 784.38 225.54 787.70 218.96
  Q 789.77 214.85 789.08 210.73
  C 787.65 202.17 779.88 198.79 772.79 204.45
  C 764.31 211.23 755.14 216.70 744.00 210.43
  C 733.62 204.59 728.04 192.02 722.00 183.89
  C 717.43 177.72 710.07 170.51 702.02 169.51
  Q 699.06 169.14 697.82 170.30
  Q 691.67 176.05 683.49 180.99
  C 672.96 187.36 659.79 186.09 649.79 179.35
  A 0.27 0.27 0.0 0 0 649.38 179.50
  Q 642.60 203.19 646.89 226.94
  C 651.77 253.99 668.47 279.00 696.11 285.91
  C 712.71 290.07 730.15 285.38 743.16 274.38
  Q 762.70 257.85 766.31 232.24
  Q 767.51 223.76 768.08 216.46"
/>
<path stroke="#605d5e" vector-effect="non-scaling-stroke" d="
  M 765.6255 515.5530
  A 0.50 0.42 -27.0 0 0 764.9893 515.4058
  A 0.50 0.42 -27.0 0 0 764.7345 516.0070
  A 0.50 0.42 -27.0 0 0 765.3707 516.1542
  A 0.50 0.42 -27.0 0 0 765.6255 515.5530"
/>
<path stroke="#868484" vector-effect="non-scaling-stroke" d="
  M 697.13 532.01
  A 2.42 1.94 -57.7 0 1 697.49 535.22
  Q 691.78 543.52 695.49 552.79
  Q 697.98 559.01 704.37 559.30
  Q 707.19 559.43 705.09 557.54
  Q 696.72 549.95 701.31 540.76
  C 703.08 537.22 707.65 532.92 709.51 530.80
  C 713.76 525.96 711.05 521.17 707.51 517.00
  A 1.40 1.36 74.7 0 0 706.71 516.53
  Q 704.92 516.17 703.78 516.24
  Q 692.56 516.84 683.49 520.22
  Q 680.48 521.34 678.13 524.54
  Q 677.84 524.95 677.85 525.45
  C 677.97 531.72 675.87 534.39 672.74 540.27
  Q 667.48 550.13 675.16 558.32
  Q 677.26 560.55 680.56 561.63
  A 0.38 0.38 0.0 0 0 681.00 561.06
  C 678.05 556.50 675.70 550.40 676.99 545.26
  Q 678.71 538.43 684.08 532.16
  Q 685.18 530.89 685.72 532.48
  L 686.11 533.66
  A 4.24 4.21 53.6 0 1 685.55 537.46
  Q 681.96 542.51 681.67 544.94
  Q 680.45 554.91 688.10 560.44
  Q 690.17 561.93 693.70 561.64
  Q 694.21 561.60 693.87 561.23
  Q 687.76 554.32 688.48 543.73
  C 688.71 540.31 690.91 533.11 694.38 531.94
  Q 696.01 531.39 697.13 532.01"
/>
<path stroke="#918f90" vector-effect="non-scaling-stroke" d="
  M 761.86 534.53
  A 1.02 1.01 76.1 0 1 763.43 535.48
  Q 763.09 538.72 761.62 544.05
  C 760.02 549.88 758.65 560.97 765.51 564.21
  Q 766.97 564.90 766.45 563.37
  C 763.91 555.96 765.24 548.13 767.64 540.15
  Q 768.24 538.14 769.42 536.92
  A 1.16 1.16 0.0 0 1 771.39 537.47
  C 772.56 542.54 769.51 548.05 769.91 553.44
  C 770.30 558.67 771.22 563.83 777.81 564.09
  Q 778.32 564.11 778.11 563.65
  C 776.89 560.94 775.82 557.78 775.79 554.73
  Q 775.71 547.26 778.83 540.88
  Q 780.23 538.01 783.01 538.87
  A 1.36 1.35 -74.2 0 1 783.92 540.50
  Q 782.72 545.20 781.64 550.45
  C 780.51 555.91 782.22 565.46 790.15 562.93
  A 0.71 0.71 0.0 0 0 790.30 561.65
  Q 787.61 560.05 786.41 558.26
  C 783.94 554.59 786.41 543.94 789.04 540.89
  Q 789.99 539.79 790.61 539.58
  C 793.87 538.47 799.14 536.99 801.00 534.02
  Q 803.16 530.58 803.70 527.11
  A 1.17 1.17 0.0 0 0 802.66 525.77
  Q 784.11 523.92 768.49 517.24
  Q 768.01 517.03 767.82 517.52
  Q 766.91 519.87 764.33 522.33
  Q 762.81 523.77 758.11 528.61
  Q 754.19 532.64 752.86 535.62
  C 749.14 543.96 747.92 554.88 754.84 561.72
  Q 755.95 562.81 755.72 561.27
  C 754.41 552.26 755.73 543.43 760.77 535.76
  Q 761.34 534.88 761.86 534.53"
/>
<path stroke="#605d5e" vector-effect="non-scaling-stroke" d="
  M 725.39 533.95
  L 715.83 533.66
  Q 715.35 533.65 715.04 534.03
  Q 710.93 539.08 708.20 544.70
  C 707.13 546.89 710.17 551.38 711.52 553.34
  A 1.78 1.77 74.0 0 0 712.90 554.11
  L 723.78 554.57"
/>
<path stroke="#918f90" vector-effect="non-scaling-stroke" d="
  M 723.78 554.57
  Q 733.12 556.08 742.74 555.81
  Q 743.26 555.80 743.13 555.29
  Q 740.40 544.54 744.54 534.54
  Q 744.74 534.06 744.23 533.99
  Q 734.72 532.67 725.39 533.95"
/>
<path stroke="#cecdce" vector-effect="non-scaling-stroke" d="
  M 723.78 554.57
  C 719.75 547.36 720.95 540.62 725.39 533.95"
/>
<path stroke="#918f90" vector-effect="non-scaling-stroke" d="
  M 798.45 542.19
  Q 796.55 543.13 793.71 544.22
  Q 792.80 544.56 792.18 546.68
  C 791.42 549.25 789.86 553.64 791.85 555.55
  C 793.91 557.52 795.02 558.13 797.89 557.80
  C 800.30 557.53 802.53 557.76 803.67 555.92
  Q 806.69 551.00 807.18 545.45
  C 807.44 542.49 806.22 539.31 802.76 539.95
  C 801.18 540.24 799.63 541.60 798.45 542.19"
/>
<path stroke="#918f90" vector-effect="non-scaling-stroke" d="
  M 733.62 583.62
  L 743.43 583.67
  A 1.47 1.46 -87.9 0 0 744.90 582.30
  Q 745.54 571.97 744.70 563.31
  Q 744.66 562.95 744.30 562.94
  L 731.57 562.57"
/>
<path stroke="#605d5e" vector-effect="non-scaling-stroke" d="
  M 731.57 562.57
  L 721.98 563.01
  Q 721.36 563.04 721.62 563.61
  C 722.17 564.77 722.64 565.92 722.83 567.22
  Q 723.92 574.62 724.69 581.61
  Q 724.86 583.17 726.43 583.25
  L 733.62 583.62"
/>
<path stroke="#cecdce" vector-effect="non-scaling-stroke" d="
  M 731.57 562.57
  C 732.02 569.75 731.83 576.63 733.62 583.62"
/>
<path stroke="#918f90" vector-effect="non-scaling-stroke" d="
  M 730.24 589.69
  A 0.75 0.75 0.0 0 0 729.39 590.45
  L 730.61 637.75
  A 0.75 0.75 0.0 0 0 731.19 638.46
  L 735.15 639.35
  A 0.75 0.75 0.0 0 0 736.07 638.65
  L 738.12 591.42
  A 0.75 0.75 0.0 0 0 737.47 590.64
  L 730.24 589.69"
/>
<path stroke="#918f90" vector-effect="non-scaling-stroke" d="
  M 752.79 785.78
  L 748.90 875.43
  A 2.58 2.57 -0.0 0 0 751.59 878.11
  Q 758.08 877.84 765.49 877.25
  C 771.86 876.75 775.12 879.00 779.18 883.47
  Q 779.88 884.24 779.79 883.20
  Q 779.12 875.13 780.41 866.39
  A 0.93 0.93 0.0 0 0 779.61 865.34
  C 774.37 864.69 767.13 863.32 763.78 859.64
  Q 761.58 857.21 760.71 853.03
  Q 759.08 845.18 758.61 840.71
  Q 755.72 813.29 753.16 785.85
  Q 753.15 785.71 753.04 785.73
  L 752.80 785.77
  Q 752.79 785.77 752.79 785.78"
/>
<path stroke="#868484" vector-effect="non-scaling-stroke" d="
  M 677.34 198.38
  L 679.82 201.16
  A 3.84 3.83 54.1 0 0 684.60 201.93
  L 685.14 201.61
  A 3.01 3.00 56.6 0 0 686.04 197.20
  C 680.87 190.29 672.69 189.78 665.53 193.56
  Q 663.14 194.82 664.00 197.39
  L 664.16 197.86
  A 2.63 2.62 -19.8 0 0 667.59 199.47
  C 670.80 198.23 674.44 196.61 677.05 198.15
  A 1.26 1.11 79.7 0 1 677.34 198.38"
/>
<path stroke="#868484" vector-effect="non-scaling-stroke" d="
  M 711.67 199.09
  C 713.79 199.61 714.85 203.10 717.73 201.22
  C 720.34 199.51 718.66 196.35 716.55 194.97
  C 710.61 191.06 701.76 190.57 697.06 196.29
  Q 695.42 198.29 695.34 200.31
  C 695.21 203.85 698.17 204.47 700.79 202.92
  C 703.76 201.17 706.96 197.93 711.67 199.09"
/>
<path stroke="#868484" vector-effect="non-scaling-stroke" d="
  M 681.04 224.04
  Q 679.88 226.78 676.78 235.72
  Q 676.26 237.21 676.94 238.98
  A 0.78 0.78 0.0 0 0 678.33 239.12
  C 680.45 235.77 692.04 217.42 687.34 215.39
  Q 686.12 214.87 685.84 214.72
  Q 683.68 213.60 682.85 215.59
  A 1.50 1.45 -4.3 0 1 682.23 216.29
  Q 676.44 219.66 670.44 217.58
  C 669.03 217.09 668.44 215.88 667.56 214.56
  Q 667.29 214.16 666.84 213.97
  Q 664.27 212.89 662.74 215.40
  C 661.28 217.79 665.14 221.76 667.15 222.65
  Q 673.55 225.50 680.64 223.59
  A 0.34 0.33 3.8 0 1 681.04 224.04"
/>
<path stroke="#868484" vector-effect="non-scaling-stroke" d="
  M 702.05 227.25
  C 705.68 227.67 711.71 226.83 714.19 223.97
  C 715.96 221.93 714.45 218.98 712.13 219.12
  Q 711.48 219.15 709.45 220.14
  Q 706.14 221.76 702.74 221.36
  Q 699.34 220.96 696.49 218.63
  Q 694.75 217.20 694.12 217.02
  C 691.90 216.35 689.75 218.87 691.00 221.26
  C 692.75 224.61 698.42 226.82 702.05 227.25"
/>
<path stroke="#868484" vector-effect="non-scaling-stroke" d="
  M 700.07 254.98
  C 698.38 256.11 697.01 255.93 695.02 255.56
  C 690.36 254.69 689.95 260.48 693.81 261.41
  Q 699.27 262.73 703.41 259.97
  Q 707.54 257.20 708.42 251.66
  C 709.03 247.73 703.53 245.89 702.54 250.54
  C 702.12 252.52 701.77 253.84 700.07 254.98"
/>
<path stroke="#605d5e" vector-effect="non-scaling-stroke" d="
  M 323.97 174.17
  L 318.25 175.76
  Q 316.53 176.24 317.10 177.93
  L 317.45 178.97
  Q 318.01 180.64 319.71 180.19
  L 326.12 178.50"
/>
<path stroke="#918f90" vector-effect="non-scaling-stroke" d="
  M 326.12 178.50
  L 328.15 178.14
  Q 328.84 178.01 328.61 177.35
  L 327.80 174.92
  Q 327.66 174.52 327.28 174.32
  Q 325.84 173.55 323.97 174.17"
/>
<path stroke="#cecdce" vector-effect="non-scaling-stroke" d="
  M 326.12 178.50
  Q 323.43 177.36 323.97 174.17"
/>
<path stroke="#605d5e" vector-effect="non-scaling-stroke" d="
  M 344.18 180.63
  Q 347.35 182.41 351.28 182.00
  A 0.92 0.92 0.0 0 0 351.78 180.38
  Q 349.28 178.29 345.70 176.94"
/>
<path stroke="#918f90" vector-effect="non-scaling-stroke" d="
  M 345.70 176.94
  Q 344.10 176.00 342.24 176.03
  Q 341.59 176.04 341.44 176.68
  L 340.91 179.06
  A 0.77 0.77 0.0 0 0 341.48 179.98
  L 344.18 180.63"
/>
<path stroke="#cecdce" vector-effect="non-scaling-stroke" d="
  M 345.70 176.94
  Q 346.14 179.55 344.18 180.63"
/>
<path stroke="#868484" vector-effect="non-scaling-stroke" d="
  M 321.10 185.68
  C 314.73 189.04 305.04 198.97 313.30 205.67
  A 1.39 1.38 -26.2 0 0 314.19 205.97
  L 319.82 205.82
  Q 320.32 205.81 320.49 205.34
  Q 322.79 198.90 329.79 197.76"
/>
<path stroke="#605d5e" vector-effect="non-scaling-stroke" d="
  M 329.79 197.76
  Q 339.04 196.74 343.57 204.20
  C 344.54 205.79 345.04 207.91 345.51 209.80
  Q 345.64 210.31 346.14 210.49
  L 351.99 212.55"
/>
<path stroke="#918f90" vector-effect="non-scaling-stroke" d="
  M 351.99 212.55
  Q 352.22 213.43 353.93 213.97
  C 354.97 214.30 355.73 214.83 356.75 213.98
  C 360.36 211.00 356.25 199.36 354.34 195.63
  Q 351.21 189.49 343.03 186.01"
/>
<path stroke="#605d5e" vector-effect="non-scaling-stroke" d="
  M 343.03 186.01
  Q 333.14 180.90 321.10 185.68"
/>
<path stroke="#cecdce" vector-effect="non-scaling-stroke" d="
  M 343.03 186.01
  Q 354.71 198.72 351.99 212.55"
/>
<path stroke="#c3c2c2" vector-effect="non-scaling-stroke" d="
  M 329.79 197.76
  Q 331.33 192.93 331.14 191.47
  Q 330.82 189.16 329.50 188.40
  Q 326.47 186.67 321.10 185.68"
/>
<path stroke="#605d5e" vector-effect="non-scaling-stroke" d="
  M 303.97 194.41
  L 307.70 188.96
  A 0.57 0.57 0.0 0 0 307.55 188.17
  L 306.60 187.52
  A 2.19 1.87 34.4 0 0 303.73 187.82
  L 301.47 191.12
  A 2.19 1.87 34.4 0 0 302.22 193.90
  L 303.18 194.56
  A 0.57 0.57 0.0 0 0 303.97 194.41"
/>
<path stroke="#918f90" vector-effect="non-scaling-stroke" d="
  M 362.53 194.70
  L 360.64 195.41
  A 0.67 0.67 0.0 0 0 360.25 196.28
  L 360.31 196.45
  A 8.16 1.68 69.4 0 0 364.76 203.50
  L 364.76 203.50
  A 8.16 1.68 69.4 0 0 363.46 195.27
  L 363.39 195.09
  A 0.67 0.67 0.0 0 0 362.53 194.70"
/>
<path stroke="#918f90" vector-effect="non-scaling-stroke" d="
  M 325.34 206.64
  C 330.88 207.11 335.01 207.66 340.03 208.92
  Q 341.00 209.16 340.63 208.23
  C 338.00 201.45 329.08 198.71 324.95 205.88
  A 0.51 0.50 -72.3 0 0 325.34 206.64"
/>
<path stroke="#605d5e" vector-effect="non-scaling-stroke" d="
  M 363.47 217.06
  Q 364.31 218.41 365.89 218.84
  Q 366.39 218.98 366.54 218.48
  Q 366.96 217.08 366.85 215.23
  Q 366.84 215.18 366.75 215.03
  Q 366.66 214.87 366.61 214.85
  Q 365.00 213.93 363.56 213.68
  Q 363.05 213.60 362.95 214.11
  Q 362.63 215.72 363.47 217.06"
/>
<path stroke="#918f90" vector-effect="non-scaling-stroke" d="
  M 189.69 188.65
  L 191.30 193.21
  A 1.22 1.22 0.0 0 0 192.86 193.95
  L 193.10 193.87
  A 12.29 3.60 -19.5 0 0 203.48 186.37
  L 203.45 186.30
  A 12.29 3.60 -19.5 0 0 190.67 187.00
  L 190.43 187.09
  A 1.22 1.22 0.0 0 0 189.69 188.65"
/>
<path stroke="#918f90" vector-effect="non-scaling-stroke" d="
  M 227.54 190.31
  L 224.83 194.92
  A 0.84 0.84 0.0 0 0 225.12 196.07
  L 225.29 196.17
  A 12.26 3.14 30.5 0 0 237.45 199.68
  L 237.83 199.05
  A 12.26 3.14 30.5 0 0 228.86 190.12
  L 228.69 190.02
  A 0.84 0.84 0.0 0 0 227.54 190.31"
/>
<path stroke="#605d5e" vector-effect="non-scaling-stroke" d="
  M 212.71 220.63
  C 217.88 223.09 221.60 226.27 222.08 232.44
  Q 222.11 232.93 222.61 232.97
  Q 226.15 233.32 228.88 232.66"
/>
<path stroke="#918f90" vector-effect="non-scaling-stroke" d="
  M 228.88 232.66
  L 236.43 233.37
  A 1.34 1.32 -75.3 0 0 237.77 232.58
  C 241.17 224.78 238.78 216.63 233.45 210.23
  Q 221.13 195.42 202.30 197.93
  Q 181.18 200.74 174.16 220.94
  Q 170.40 231.77 176.48 242.30
  C 177.06 243.30 177.39 244.14 178.75 244.10
  C 182.60 243.99 186.47 241.70 190.75 239.65
  Q 191.21 239.43 191.09 238.93
  Q 189.22 231.55 193.79 225.75
  Q 201.00 216.59 212.71 220.63"
/>
<path stroke="#cecdce" vector-effect="non-scaling-stroke" d="
  M 228.88 232.66
  Q 231.59 227.32 230.33 221.37
  Q 227.52 208.09 217.13 202.14
  Q 214.73 200.77 212.01 200.50
  Q 209.09 200.20 205.60 199.39
  A 2.31 2.30 5.7 0 0 202.77 201.70
  Q 202.80 202.43 203.08 203.42
  C 203.89 206.30 203.82 209.91 205.12 211.50
  Q 208.79 215.97 213.24 219.50
  A 0.50 0.50 0.0 0 1 213.20 220.31
  L 212.71 220.63"
/>
<path stroke="#918f90" vector-effect="non-scaling-stroke" d="
  M 176.34 202.97
  L 170.34 198.85
  A 0.21 0.21 0.0 0 0 170.04 198.90
  L 164.39 207.14
  A 3.70 3.16 -55.5 0 0 164.89 211.98
  L 166.03 212.76
  A 3.70 3.16 -55.5 0 0 170.73 211.50
  L 176.39 203.27
  A 0.21 0.21 0.0 0 0 176.34 202.97"
/>
<path stroke="#918f90" vector-effect="non-scaling-stroke" d="
  M 253.06 225.34
  C 252.58 221.36 252.46 216.39 250.27 214.72
  C 248.65 213.49 246.34 214.38 244.52 214.81
  A 0.96 0.96 0.0 0 0 243.83 216.05
  L 246.96 225.32
  Q 247.38 226.57 248.70 226.62
  L 251.75 226.76
  Q 253.24 226.82 253.06 225.34"
/>
<path stroke="#918f90" vector-effect="non-scaling-stroke" d="
  M 197.55 238.13
  L 215.90 234.06
  A 1.09 1.09 0.0 0 0 216.73 232.76
  L 216.68 232.54
  A 10.29 10.28 77.5 0 0 204.42 224.72
  L 204.01 224.81
  A 10.29 10.28 77.5 0 0 196.20 237.08
  L 196.25 237.30
  A 1.09 1.09 0.0 0 0 197.55 238.13"
/>
<path stroke="#918f90" vector-effect="non-scaling-stroke" d="
  M 164.71 229.94
  Q 157.94 228.31 158.20 232.89
  Q 158.27 234.20 159.55 234.49
  L 161.96 235.03
  Q 163.29 235.33 163.98 234.14
  L 165.43 231.62
  Q 166.19 230.30 164.71 229.94"
/>
<path stroke="#918f90" vector-effect="non-scaling-stroke" d="
  M 722.7630 312.4780
  A 1.79 0.83 -40.9 0 0 720.8666 313.0226
  A 1.79 0.83 -40.9 0 0 720.0570 314.8220
  A 1.79 0.83 -40.9 0 0 721.9534 314.2774
  A 1.79 0.83 -40.9 0 0 722.7630 312.4780"
/>
<path stroke="#cecdce" vector-effect="non-scaling-stroke" d="
  M 693.64 896.19
  C 695.32 881.04 721.02 894.70 723.53 877.26
  Q 725.15 866.07 725.32 855.04
  Q 725.67 831.53 724.13 791.03
  Q 722.62 751.28 722.00 735.02
  Q 721.30 716.72 722.74 687.70
  C 723.46 673.28 723.75 659.53 728.85 645.75"
/>
</g>
<path fill="#ffffff" d="
  M 523.38 0.00
  Q 539.46 0.71 555.50 1.74
  C 559.08 1.97 564.02 2.92 567.46 2.93
  C 570.05 2.94 572.28 3.79 574.57 3.87
  Q 576.55 3.94 579.96 4.54
  Q 581.56 4.82 587.52 5.68
  Q 628.61 11.59 672.47 25.73
  Q 672.95 25.89 673.41 25.66
  Q 721.91 1.64 776.27 0.00
  L 787.08 0.00
  Q 820.90 0.98 850.53 9.89
  Q 923.15 31.74 970.77 90.72
  Q 977.10 98.55 982.63 106.82
  Q 1021.77 165.32 1024.00 236.89
  L 1024.00 246.87
  Q 1022.61 301.78 998.31 350.50
  A 1.50 1.45 -41.8 0 0 998.23 351.64
  Q 1010.86 390.05 1017.24 429.28
  Q 1018.72 438.42 1019.09 441.91
  Q 1019.20 442.98 1019.63 445.06
  C 1020.18 447.69 1019.96 450.51 1020.58 452.97
  C 1021.21 455.45 1020.94 458.89 1021.47 461.84
  Q 1021.68 463.02 1021.85 465.06
  Q 1023.36 483.37 1024.00 501.74
  L 1024.00 521.63
  Q 1021.43 632.16 975.13 730.38
  Q 930.05 825.98 849.38 897.11
  Q 848.25 891.94 843.48 889.20
  Q 840.04 887.22 838.22 886.51
  Q 829.04 882.89 816.29 877.99
  Q 815.00 877.49 813.56 876.32
  Q 813.16 876.00 813.16 875.49
  C 813.13 873.51 813.36 867.62 810.12 868.37
  A 1.53 1.49 16.5 0 0 809.47 868.71
  Q 807.71 870.33 807.31 871.76
  C 806.59 874.40 806.72 878.56 808.65 880.56
  Q 810.78 882.77 815.10 884.43
  Q 817.17 885.22 832.38 890.91
  Q 836.38 892.41 840.01 894.84
  Q 841.95 896.14 839.96 897.34
  Q 839.62 897.55 838.00 897.61
  Q 819.10 898.34 800.13 894.87
  Q 796.55 894.22 790.47 891.91
  Q 785.92 890.18 785.17 885.07
  C 784.42 879.93 784.67 875.32 784.57 870.24
  Q 784.54 868.48 786.54 868.43
  C 795.81 868.19 803.60 866.43 813.54 865.66
  Q 832.98 864.15 851.46 859.91
  Q 858.27 858.34 866.51 854.77
  Q 873.79 851.60 876.19 844.67
  C 878.78 837.16 879.77 826.79 880.17 820.23
  Q 881.52 798.48 881.18 776.76
  Q 880.57 738.42 877.34 702.40
  C 871.88 641.60 865.89 580.82 848.61 522.18
  Q 844.41 507.94 835.40 493.44
  Q 835.14 493.02 835.33 492.55
  Q 850.35 455.56 858.56 417.77
  Q 863.82 393.55 865.49 370.80
  Q 866.63 355.32 866.69 350.80
  Q 867.02 326.37 862.83 308.41
  C 858.81 291.20 850.45 273.34 837.40 262.39
  Q 824.52 251.59 807.08 252.36
  C 798.43 252.75 790.63 255.90 783.41 260.44
  Q 781.23 261.81 783.76 261.34
  C 793.64 259.51 802.48 257.72 811.05 258.32
  Q 829.91 259.65 841.29 275.04
  C 854.00 292.24 858.98 313.13 860.57 334.44
  C 861.30 344.26 861.11 357.53 860.11 367.84
  Q 853.36 437.13 824.92 500.69
  C 822.48 506.15 819.59 510.87 816.53 515.78
  C 815.50 517.44 814.06 519.42 811.78 519.59
  C 802.41 520.27 766.85 515.01 763.85 503.99
  C 762.56 499.27 763.36 492.87 764.41 487.81
  Q 767.18 474.56 774.47 457.99
  Q 785.11 433.85 788.39 425.38
  C 792.40 415.01 796.10 404.65 797.10 393.60
  Q 797.37 390.70 796.64 387.97
  A 0.57 0.56 -31.9 0 0 795.67 387.75
  Q 794.01 389.65 793.05 392.02
  Q 792.77 392.71 792.46 392.04
  L 791.33 389.62
  Q 791.20 389.33 790.89 389.24
  Q 790.68 389.17 790.57 389.19
  Q 790.13 389.23 790.13 389.66
  Q 790.06 394.26 789.82 395.51
  C 788.32 403.61 787.64 408.74 785.37 414.96
  C 780.56 428.14 772.51 446.21 768.97 454.27
  C 766.24 460.50 761.53 464.39 754.64 465.76
  C 745.40 467.60 737.96 467.67 726.97 467.39
  Q 723.49 467.31 720.24 466.28
  C 714.96 464.62 711.92 463.53 708.86 460.10
  Q 701.31 451.64 697.04 441.00
  Q 691.39 426.92 688.19 411.54
  Q 687.50 408.25 689.15 400.91
  A 2.84 2.83 -51.5 0 0 688.95 399.12
  Q 688.66 398.51 688.45 398.42
  Q 687.41 397.99 687.21 398.78
  Q 686.69 400.84 686.32 401.31
  Q 685.89 401.86 685.66 401.21
  Q 685.23 400.01 685.35 398.83
  Q 685.40 398.35 684.94 398.50
  L 684.62 398.61
  Q 684.51 398.65 684.49 398.75
  C 682.10 409.18 683.78 419.21 686.88 429.69
  C 692.53 448.84 701.31 465.48 710.99 486.33
  Q 713.41 491.55 716.20 500.08
  C 717.21 503.18 719.29 509.87 713.74 510.04
  Q 711.36 510.11 703.08 510.05
  Q 699.13 510.02 692.52 511.19
  C 687.46 512.09 676.35 515.02 668.78 514.38
  A 1.96 1.94 -15.0 0 1 667.36 513.57
  Q 663.86 508.62 660.22 501.32
  Q 650.94 482.66 642.71 458.04
  Q 633.52 430.53 626.96 400.45
  Q 620.49 370.77 618.76 343.00
  C 617.74 326.71 619.47 310.95 625.75 295.77
  Q 628.59 288.90 631.76 284.78
  C 637.63 277.12 649.23 270.90 658.94 274.92
  Q 660.90 275.73 666.89 280.46
  C 682.60 292.86 702.63 296.44 721.86 291.10
  C 747.10 284.09 765.71 263.83 771.09 238.23
  A 1.02 1.01 18.7 0 1 772.53 237.52
  Q 775.92 239.15 780.52 239.75
  Q 790.53 241.04 800.21 238.85
  Q 801.42 238.57 800.33 239.15
  C 794.02 242.49 784.59 245.55 777.48 243.85
  Q 776.89 243.71 776.92 244.31
  L 776.94 244.58
  Q 776.95 244.71 777.07 244.75
  Q 786.18 248.16 795.54 246.53
  C 805.16 244.85 814.60 238.39 820.52 230.82
  Q 833.74 213.91 828.80 192.91
  C 826.13 181.56 819.52 173.31 810.99 165.85
  Q 808.01 163.24 808.34 161.34
  Q 809.99 151.96 809.04 141.95
  C 807.63 127.04 797.86 116.69 782.54 116.50
  C 778.85 116.45 775.26 117.75 770.76 118.52
  Q 763.98 119.68 760.28 115.26
  C 756.53 110.78 752.79 104.93 748.94 101.21
  Q 736.97 89.63 720.01 89.16
  Q 701.31 88.64 690.39 103.34
  Q 685.53 109.88 680.69 114.93
  C 675.08 120.78 669.83 120.73 661.55 119.58
  Q 651.85 118.24 648.04 117.93
  Q 639.83 117.28 635.88 117.88
  C 623.34 119.81 613.48 127.51 609.47 139.41
  C 606.30 148.83 606.91 159.83 608.09 170.14
  C 608.79 176.16 609.63 180.35 605.38 183.89
  Q 605.01 184.20 598.14 189.66
  C 586.83 198.65 582.13 214.63 588.55 227.61
  C 596.24 243.17 617.77 251.44 633.96 246.18
  Q 636.97 245.21 638.91 243.83
  Q 641.59 241.92 638.30 241.86
  C 633.64 241.78 628.47 242.48 624.56 242.27
  Q 615.11 241.77 606.67 237.32
  Q 594.22 230.76 591.66 216.84
  Q 591.66 216.79 591.68 216.75
  L 591.85 216.47
  Q 591.96 216.26 592.03 216.49
  C 595.20 226.83 603.09 232.07 613.56 234.22
  Q 628.09 237.19 641.57 232.57
  Q 642.42 232.28 642.62 233.16
  Q 646.21 249.18 654.81 262.64
  A 0.35 0.35 0.0 0 1 654.49 263.18
  Q 646.62 262.73 640.19 267.24
  C 614.90 284.97 610.38 318.69 612.59 347.02
  C 613.63 360.42 615.00 372.97 617.19 385.11
  Q 625.80 432.94 642.85 478.52
  Q 647.59 491.17 652.95 502.45
  C 655.47 507.77 661.24 520.17 667.31 520.91
  Q 670.41 521.30 671.54 521.35
  Q 672.04 521.37 672.16 521.85
  Q 673.86 528.31 671.28 532.50
  Q 667.63 538.40 666.79 540.31
  Q 662.90 549.15 668.26 558.23
  Q 668.87 559.27 672.01 562.85
  Q 672.35 563.24 672.31 563.75
  Q 672.10 566.50 671.60 567.83
  Q 667.72 578.09 666.00 585.33
  C 656.65 624.59 644.77 671.89 637.44 702.95
  C 632.75 722.81 628.76 743.13 625.09 762.82
  Q 622.31 777.74 619.72 798.77
  Q 618.09 811.94 618.46 825.17
  C 618.59 829.71 619.39 835.64 621.06 839.57
  C 624.22 847.00 632.33 851.82 639.71 854.57
  Q 652.23 859.24 665.73 861.70
  Q 666.57 861.85 666.57 862.70
  Q 666.50 871.53 666.34 873.52
  C 666.18 875.39 666.07 876.99 664.24 878.02
  Q 662.55 878.98 660.25 879.73
  Q 639.24 886.64 638.40 886.92
  Q 633.51 888.58 629.12 891.09
  Q 624.53 893.71 625.39 898.36
  Q 625.48 898.86 624.99 899.01
  L 622.16 899.89
  Q 618.90 900.90 621.98 902.45
  Q 623.09 903.01 625.56 903.29
  C 641.33 905.04 657.37 906.02 673.06 901.55
  C 676.13 900.67 678.16 899.09 679.79 896.52
  A 0.62 0.62 0.0 0 0 679.19 895.57
  C 673.81 896.24 665.91 898.46 660.09 899.09
  Q 650.71 900.11 641.25 899.25
  Q 636.39 898.81 631.99 897.10
  A 0.87 0.87 0.0 0 1 631.87 895.54
  Q 636.38 892.94 640.76 891.46
  Q 653.95 887.02 663.06 884.33
  Q 668.27 882.80 669.56 881.32
  C 672.74 877.66 672.64 871.59 672.17 867.18
  A 1.60 1.60 0.0 0 1 673.34 865.46
  C 686.26 861.95 699.92 867.38 712.91 863.52
  Q 713.39 863.38 713.50 862.89
  Q 713.59 862.43 713.26 861.59
  Q 713.05 861.05 713.61 860.88
  Q 714.63 860.58 715.30 860.81
  A 0.88 0.87 6.1 0 1 715.88 861.52
  L 717.58 874.22
  L 715.93 879.53
  Q 704.31 876.78 693.15 878.78
  Q 687.70 879.75 685.17 884.67
  Q 682.14 890.57 682.10 896.27
  C 682.08 898.18 683.06 899.29 684.85 900.02
  C 689.72 902.01 696.33 902.39 700.84 902.55
  Q 730.10 903.55 761.86 901.32
  Q 767.21 900.95 774.07 900.10
  Q 780.13 899.35 782.60 897.68
  C 784.39 896.46 786.80 896.57 788.65 897.12
  Q 803.37 901.44 813.01 902.24
  Q 819.22 902.76 825.44 903.32
  C 830.56 903.77 836.27 903.47 841.70 903.66
  Q 749.18 981.15 632.24 1009.72
  Q 623.80 1011.78 612.72 1014.01
  Q 591.21 1018.33 584.19 1018.89
  Q 580.61 1019.18 579.92 1019.37
  C 576.78 1020.21 574.49 1019.92 571.06 1020.57
  Q 568.80 1020.99 566.42 1021.12
  Q 565.17 1021.19 559.93 1021.88
  Q 550.46 1023.13 523.51 1024.00
  L 500.62 1024.00
  Q 473.71 1023.16 463.75 1021.85
  Q 457.74 1021.06 457.03 1021.06
  C 454.02 1021.07 451.16 1019.98 447.98 1019.98
  C 445.79 1019.99 443.82 1019.19 441.64 1019.01
  C 437.44 1018.67 434.45 1018.01 429.54 1017.23
  Q 396.60 1011.98 364.35 1002.26
  Q 279.44 976.66 208.06 923.94
  Q 126.65 863.80 73.88 776.83
  Q 20.86 689.43 5.32 585.69
  Q 5.22 585.02 5.05 582.78
  C 4.85 580.26 3.95 577.96 3.99 575.53
  C 4.04 572.80 3.12 569.56 2.85 566.16
  Q 2.64 563.54 2.00 558.00
  Q 0.95 548.92 0.00 522.26
  L 0.00 501.87
  Q 0.97 474.02 2.09 465.04
  Q 2.83 459.11 2.89 457.93
  C 3.04 454.47 4.08 451.04 4.01 448.25
  C 3.95 446.01 4.84 443.69 5.04 441.25
  Q 5.22 439.11 5.32 438.42
  Q 11.30 398.88 21.22 365.99
  Q 55.91 251.05 137.42 163.16
  Q 143.70 156.38 150.32 149.47
  Q 140.39 163.91 140.97 180.99
  Q 141.12 185.36 141.91 187.53
  Q 142.45 189.00 143.99 189.78
  A 0.77 0.76 -54.0 0 0 144.89 189.63
  Q 146.88 187.59 146.92 185.83
  Q 147.12 176.30 147.57 173.28
  Q 149.38 161.10 156.48 151.74
  C 170.64 133.09 194.11 122.78 217.26 122.08
  C 231.19 121.65 244.80 127.07 256.28 134.91
  Q 257.40 135.67 264.68 141.69
  Q 268.93 145.20 273.55 147.96
  Q 274.86 148.74 274.31 147.31
  Q 271.45 139.86 265.10 134.41
  C 250.69 122.03 233.01 114.99 213.49 116.05
  Q 191.52 117.24 172.26 129.07
  Q 184.06 118.71 187.18 116.16
  Q 296.80 26.77 437.75 5.36
  Q 437.81 5.35 441.33 5.00
  C 443.23 4.81 445.01 4.05 446.83 4.05
  Q 449.22 4.05 451.98 3.50
  C 455.49 2.79 458.18 3.03 461.75 2.44
  Q 464.05 2.06 466.41 1.90
  Q 483.43 0.74 500.49 0.00
  L 523.38 0.00
  Z
  M 387.07 74.82
  C 382.14 79.70 378.59 83.95 376.06 89.97
  A 0.83 0.83 0.0 0 0 377.10 91.08
  Q 378.40 90.62 379.63 89.37
  C 381.79 87.18 385.35 82.90 388.64 80.05
  Q 395.03 74.50 401.37 68.88
  Q 401.97 68.35 403.23 66.29
  Q 403.65 65.60 403.59 65.17
  Q 403.50 64.39 402.61 64.09
  A 1.76 1.68 -43.2 0 0 401.51 64.08
  Q 395.08 66.08 390.65 70.92
  Q 387.11 74.78 387.07 74.82
  Z
  M 409.04 94.96
  Q 405.07 96.48 401.25 99.95
  A 1.80 1.80 0.0 0 0 401.38 102.73
  C 402.49 103.56 403.67 103.58 405.03 103.09
  Q 405.49 102.93 415.66 99.11
  C 418.77 97.94 423.59 95.72 423.71 92.03
  A 1.38 1.38 0.0 0 0 422.50 90.63
  Q 417.77 90.04 414.12 92.39
  Q 411.75 93.92 409.04 94.96
  Z
  M 439.64 125.79
  L 417.35 121.01
  A 0.16 0.16 0.0 0 0 417.16 121.14
  L 416.82 122.69
  A 11.19 4.95 12.1 0 0 426.73 129.88
  L 427.45 130.03
  A 11.19 4.95 12.1 0 0 439.43 127.54
  L 439.76 125.98
  A 0.16 0.16 0.0 0 0 439.64 125.79
  Z
  M 401.77 200.42
  Q 403.56 195.63 404.13 190.62
  C 408.18 155.14 384.76 129.69 350.23 126.66
  C 339.65 125.73 320.60 129.33 314.87 138.82
  Q 313.66 140.83 315.86 140.03
  C 321.63 137.96 328.09 134.83 333.91 133.42
  Q 353.12 128.77 371.40 137.93
  Q 391.01 147.75 396.44 169.15
  Q 399.01 179.25 397.13 190.28
  C 396.29 195.23 392.58 201.34 388.75 204.44
  Q 388.34 204.77 388.65 205.20
  Q 390.33 207.50 391.52 207.56
  Q 396.30 207.84 398.95 208.13
  C 424.29 210.88 440.54 231.78 438.69 256.87
  Q 438.10 265.02 433.62 273.39
  Q 423.50 292.31 402.04 297.80
  C 392.11 300.33 383.02 299.71 372.75 297.97
  Q 369.71 297.46 365.84 297.57
  Q 364.25 297.62 365.45 298.66
  Q 369.44 302.14 375.52 303.75
  C 399.30 310.03 427.63 298.23 439.32 276.50
  C 451.76 253.38 445.80 226.24 425.43 210.10
  Q 415.04 201.87 402.17 201.05
  A 0.46 0.46 0.0 0 1 401.77 200.42
  Z
  M 364.14 210.26
  C 366.12 209.74 369.83 208.08 369.92 205.55
  C 370.05 202.03 368.60 198.62 366.89 194.51
  C 365.66 191.58 363.29 190.95 360.49 192.13
  Q 358.74 192.86 358.56 192.91
  Q 358.07 193.07 357.81 192.72
  L 354.80 188.77
  A 1.39 1.38 40.6 0 1 354.68 187.28
  C 356.73 183.50 359.32 178.45 353.84 176.23
  Q 347.99 173.87 344.69 172.81
  C 339.90 171.26 337.74 173.73 338.19 178.16
  Q 338.31 179.34 337.14 179.18
  L 332.65 178.59
  Q 331.56 178.45 331.64 177.35
  Q 331.79 175.22 330.81 172.43
  A 2.53 2.53 0.0 0 0 328.73 170.76
  Q 321.25 169.85 314.47 172.18
  C 309.96 173.73 312.08 181.08 313.68 184.15
  Q 313.92 184.60 313.67 185.03
  Q 313.29 185.69 312.46 186.01
  Q 312.01 186.19 311.63 185.88
  C 307.83 182.75 303.91 179.51 299.94 184.97
  Q 296.18 190.12 295.54 193.23
  Q 295.43 193.77 294.89 193.67
  C 290.21 192.85 287.07 191.59 281.82 192.47
  A 1.89 1.57 83.0 0 0 280.54 194.46
  Q 280.55 194.64 281.32 194.71
  C 289.83 195.41 299.85 197.85 303.69 205.97
  A 0.68 0.68 0.0 0 1 303.20 206.93
  C 299.47 207.66 295.96 208.21 293.47 210.67
  A 0.62 0.62 0.0 0 0 293.84 211.73
  Q 295.83 211.97 297.28 211.78
  C 304.26 210.84 311.34 209.55 318.44 210.24
  C 335.53 211.90 349.48 215.12 362.09 225.64
  Q 366.13 229.02 372.57 238.35
  Q 373.52 239.73 375.71 238.40
  Q 375.78 238.36 375.83 238.22
  Q 376.96 235.38 375.84 233.51
  Q 372.61 228.09 369.14 224.90
  Q 368.76 224.56 368.99 224.10
  Q 370.92 220.37 371.01 216.99
  Q 371.21 209.63 364.18 210.47
  A 0.11 0.11 0.0 0 1 364.14 210.26
  Z
  M 246.33 233.97
  Q 250.70 233.13 254.00 231.77
  Q 258.46 229.95 257.73 225.02
  Q 256.99 220.02 254.96 215.05
  C 252.58 209.22 247.42 209.57 242.65 212.00
  A 0.94 0.94 0.0 0 1 241.40 211.63
  L 239.41 208.19
  A 1.00 1.00 0.0 0 1 239.56 206.99
  C 242.80 203.61 246.74 198.82 242.47 194.42
  Q 239.33 191.18 231.60 186.70
  C 226.26 183.60 222.62 189.16 221.17 193.38
  A 0.79 0.78 -74.2 0 1 220.26 193.89
  L 211.11 191.83
  Q 210.70 191.73 210.66 191.32
  C 210.10 185.54 209.13 177.74 201.93 179.12
  Q 196.50 180.17 190.65 182.23
  C 188.66 182.94 186.94 183.45 185.72 185.29
  C 183.73 188.30 186.27 192.97 188.33 195.36
  A 0.60 0.59 -35.2 0 1 188.17 196.26
  L 179.61 201.20
  A 0.26 0.26 0.0 0 1 179.27 201.14
  Q 177.04 198.34 173.73 196.47
  C 170.16 194.45 168.06 195.86 165.34 198.59
  C 161.68 202.28 155.13 209.13 159.22 214.27
  Q 161.89 217.63 167.62 220.68
  Q 168.08 220.92 168.03 221.44
  Q 167.92 222.61 167.39 223.80
  Q 167.18 224.28 166.66 224.22
  C 158.83 223.36 152.65 223.17 152.28 233.24
  Q 152.26 233.77 151.72 233.77
  C 147.13 233.76 143.52 233.51 139.26 235.21
  Q 136.46 236.34 135.23 238.13
  A 1.16 1.16 0.0 0 0 136.14 239.95
  Q 137.18 239.99 138.46 239.67
  Q 153.43 235.92 166.65 243.95
  Q 168.90 245.32 170.82 249.55
  C 171.78 251.67 170.22 254.96 168.96 256.22
  Q 166.69 258.50 164.35 262.30
  Q 162.89 264.67 165.29 266.08
  Q 165.67 266.30 165.70 266.30
  A 4.52 3.85 22.2 0 0 169.71 264.98
  Q 181.88 250.18 201.11 243.86
  Q 219.34 237.87 235.56 238.75
  C 241.52 239.07 249.95 240.48 258.09 242.85
  Q 262.74 244.20 266.77 243.21
  A 0.55 0.55 0.0 0 0 267.01 242.27
  C 262.08 237.69 253.73 236.45 246.32 234.74
  Q 244.53 234.32 246.33 233.97
  Z
  M 95.24 225.56
  C 83.46 244.76 83.38 268.63 96.13 286.96
  C 106.15 301.36 122.82 309.71 140.27 312.47
  Q 159.42 315.50 177.99 308.55
  Q 182.10 307.01 184.76 304.60
  A 1.48 1.47 41.2 0 0 184.60 302.29
  Q 182.69 300.97 179.85 301.64
  C 175.65 302.63 169.26 305.05 164.65 305.94
  Q 139.28 310.83 117.08 297.80
  Q 108.72 292.90 102.52 284.35
  C 93.96 272.54 93.08 255.27 96.38 241.46
  C 102.10 217.50 124.16 204.98 148.12 208.41
  Q 149.51 208.60 148.61 207.53
  C 140.88 198.25 126.30 201.53 116.54 206.51
  Q 102.55 213.64 95.24 225.56
  Z
  M 866.11 236.23
  C 868.37 238.74 869.38 241.42 870.85 243.88
  Q 871.73 245.37 873.42 245.17
  A 1.51 1.50 3.2 0 0 874.72 244.02
  Q 875.31 241.54 874.43 239.70
  C 872.65 235.93 868.49 231.84 863.86 231.85
  A 0.91 0.74 65.2 0 0 863.48 233.31
  Q 863.55 233.38 866.11 236.23
  Z
  M 856.86 248.35
  Q 860.66 252.73 863.64 259.38
  Q 864.44 261.18 866.01 261.83
  A 1.45 1.45 0.0 0 0 867.99 260.71
  C 868.71 256.13 868.16 252.57 864.78 248.94
  C 859.82 243.63 855.10 239.40 847.32 240.46
  Q 845.37 240.73 847.09 241.70
  C 851.10 243.98 854.28 245.38 856.86 248.35
  Z
  M 585.73 275.73
  Q 587.37 271.56 591.54 266.80
  C 593.90 264.12 596.72 261.47 596.93 259.14
  A 1.36 1.36 0.0 0 0 595.46 257.66
  C 590.95 258.04 587.99 259.99 585.62 263.63
  C 584.24 265.76 581.85 269.16 581.10 271.67
  Q 579.62 276.64 580.82 281.70
  A 1.12 1.11 -25.5 0 0 582.58 282.32
  C 584.09 281.18 585.02 277.50 585.73 275.73
  Z
  M 597.90 288.84
  Q 598.71 284.86 601.68 279.96
  C 603.37 277.20 605.47 274.39 605.30 272.28
  A 1.23 1.23 0.0 0 0 603.75 271.19
  C 599.79 272.24 597.45 274.44 595.91 278.06
  C 595.01 280.17 593.41 283.58 593.13 285.94
  Q 592.59 290.61 594.45 294.93
  A 1.01 1.01 0.0 0 0 596.11 295.21
  C 597.28 293.96 597.54 290.53 597.90 288.84
  Z
  M 275.59 349.36
  C 244.30 347.45 206.34 329.07 199.99 294.82
  C 199.42 291.75 199.04 287.46 197.47 284.53
  A 0.97 0.97 0.0 0 0 196.03 284.21
  C 188.88 289.49 196.07 307.62 199.57 313.79
  C 215.30 341.61 248.59 355.72 279.64 356.28
  C 293.42 356.53 307.75 350.58 320.05 343.52
  C 331.30 337.07 342.22 326.07 347.71 314.13
  C 350.06 309.01 350.66 304.86 350.12 299.43
  Q 349.89 297.15 348.98 299.25
  Q 346.80 304.23 344.40 308.91
  C 335.28 326.62 319.30 339.39 300.69 345.62
  Q 287.36 350.08 275.59 349.36
  Z
  M 716.14 316.28
  C 718.90 326.17 728.07 317.86 728.96 312.95
  C 730.07 306.84 723.73 301.75 718.49 305.55
  C 716.09 307.28 715.53 314.08 716.14 316.28
  Z
  M 445.55 784.41
  C 418.37 760.73 404.25 727.39 405.34 691.06
  C 405.84 674.37 408.66 658.52 413.27 641.32
  C 421.11 612.13 425.58 597.43 429.38 575.28
  Q 431.46 563.20 431.65 554.56
  C 432.06 535.35 427.88 515.24 416.53 499.36
  C 397.13 472.22 365.98 466.12 334.54 470.52
  Q 322.48 472.21 301.36 475.87
  Q 282.52 479.13 258.76 478.50
  Q 241.43 478.05 226.58 472.41
  C 191.38 459.05 174.98 422.62 186.56 386.82
  Q 189.22 378.59 195.27 366.27
  Q 195.84 365.11 195.89 364.08
  A 0.65 0.65 0.0 0 0 194.90 363.50
  Q 187.89 367.79 184.03 374.82
  Q 175.34 390.63 174.92 408.53
  C 174.01 446.71 200.32 475.91 237.07 483.66
  C 266.61 489.88 296.35 484.97 326.27 479.50
  Q 343.23 476.39 359.25 477.11
  C 384.47 478.23 406.24 490.63 416.86 514.14
  Q 423.05 527.82 424.28 542.01
  C 427.30 576.86 412.88 611.54 406.13 644.31
  Q 402.52 661.84 401.39 668.67
  Q 395.75 702.75 406.74 736.97
  Q 412.06 753.50 422.54 767.69
  C 450.48 805.49 496.59 824.84 542.35 830.08
  C 555.71 831.61 570.44 830.88 583.54 826.93
  Q 583.68 826.89 583.72 826.76
  Q 583.78 826.62 583.73 826.48
  Q 583.62 826.19 583.32 826.23
  Q 571.75 827.41 566.51 827.31
  C 523.60 826.53 478.17 812.84 445.55 784.41
  Z"
/>
<path fill="#231f20" d="
  M 390.65 70.92
  Q 395.08 66.08 401.51 64.08
  A 1.76 1.68 -43.2 0 1 402.61 64.09
  Q 403.50 64.39 403.59 65.17
  Q 403.65 65.60 403.23 66.29
  Q 401.97 68.35 401.37 68.88
  Q 395.03 74.50 388.64 80.05
  C 385.35 82.90 381.79 87.18 379.63 89.37
  Q 378.40 90.62 377.10 91.08
  A 0.83 0.83 0.0 0 1 376.06 89.97
  C 378.59 83.95 382.14 79.70 387.07 74.82
  Q 387.11 74.78 390.65 70.92
  Z"
/>
<path fill="#231f20" d="
  M 849.38 897.11
  Q 848.60 899.37 853.50 900.28
  Q 856.56 900.84 853.82 902.30
  Q 853.62 902.40 852.50 902.51
  Q 847.09 903.01 841.70 903.66
  C 836.27 903.47 830.56 903.77 825.44 903.32
  Q 819.22 902.76 813.01 902.24
  Q 803.37 901.44 788.65 897.12
  C 786.80 896.57 784.39 896.46 782.60 897.68
  Q 780.13 899.35 774.07 900.10
  Q 767.21 900.95 761.86 901.32
  Q 730.10 903.55 700.84 902.55
  C 696.33 902.39 689.72 902.01 684.85 900.02
  C 683.06 899.29 682.08 898.18 682.10 896.27
  Q 682.14 890.57 685.17 884.67
  Q 687.70 879.75 693.15 878.78
  Q 704.31 876.78 715.93 879.53
  Q 716.75 879.72 716.12 880.81
  A 1.06 1.05 9.6 0 1 715.41 881.31
  Q 708.21 882.61 701.07 883.16
  C 694.68 883.66 690.89 889.07 689.32 894.63
  A 0.66 0.65 13.4 0 0 689.83 895.45
  L 693.64 896.19
  Q 712.83 897.85 723.00 897.47
  C 746.91 896.58 759.28 896.66 776.78 894.17
  A 1.06 1.06 0.0 0 0 777.62 892.73
  C 776.05 888.70 773.62 884.78 770.07 883.28
  Q 768.23 882.50 763.26 882.98
  C 756.83 883.60 751.66 884.42 747.05 882.51
  C 743.28 880.94 743.54 877.97 743.61 873.87
  Q 743.91 857.72 744.80 840.91
  Q 745.52 827.49 745.74 820.94
  C 746.34 803.69 748.00 780.86 748.75 760.73
  Q 750.27 720.14 749.97 682.26
  Q 749.85 667.67 748.50 655.80
  Q 748.28 653.90 747.52 650.65
  C 746.96 648.26 745.74 647.63 743.38 646.93
  Q 735.49 644.56 728.85 645.75
  L 720.53 647.53
  Q 720.03 647.63 719.85 648.12
  Q 719.09 650.13 719.00 651.27
  Q 717.46 670.61 717.39 689.51
  Q 717.18 748.58 718.79 813.51
  C 719.16 828.44 719.04 837.42 719.03 858.25
  Q 719.02 866.34 717.58 874.22
  L 715.88 861.52
  A 0.88 0.87 6.1 0 0 715.30 860.81
  Q 714.63 860.58 713.61 860.88
  Q 713.05 861.05 713.26 861.59
  Q 713.59 862.43 713.50 862.89
  Q 713.39 863.38 712.91 863.52
  C 699.92 867.38 686.26 861.95 673.34 865.46
  A 1.60 1.60 0.0 0 0 672.17 867.18
  C 672.64 871.59 672.74 877.66 669.56 881.32
  Q 668.27 882.80 663.06 884.33
  Q 653.95 887.02 640.76 891.46
  Q 636.38 892.94 631.87 895.54
  A 0.87 0.87 0.0 0 0 631.99 897.10
  Q 636.39 898.81 641.25 899.25
  Q 650.71 900.11 660.09 899.09
  C 665.91 898.46 673.81 896.24 679.19 895.57
  A 0.62 0.62 0.0 0 1 679.79 896.52
  C 678.16 899.09 676.13 900.67 673.06 901.55
  C 657.37 906.02 641.33 905.04 625.56 903.29
  Q 623.09 903.01 621.98 902.45
  Q 618.90 900.90 622.16 899.89
  L 624.99 899.01
  Q 625.48 898.86 625.39 898.36
  Q 624.53 893.71 629.12 891.09
  Q 633.51 888.58 638.40 886.92
  Q 639.24 886.64 660.25 879.73
  Q 662.55 878.98 664.24 878.02
  C 666.07 876.99 666.18 875.39 666.34 873.52
  Q 666.50 871.53 666.57 862.70
  Q 666.57 861.85 665.73 861.70
  Q 652.23 859.24 639.71 854.57
  C 632.33 851.82 624.22 847.00 621.06 839.57
  C 619.39 835.64 618.59 829.71 618.46 825.17
  Q 618.09 811.94 619.72 798.77
  Q 622.31 777.74 625.09 762.82
  C 628.76 743.13 632.75 722.81 637.44 702.95
  C 644.77 671.89 656.65 624.59 666.00 585.33
  Q 667.72 578.09 671.60 567.83
  Q 672.10 566.50 672.31 563.75
  Q 672.35 563.24 672.01 562.85
  Q 668.87 559.27 668.26 558.23
  Q 662.90 549.15 666.79 540.31
  Q 667.63 538.40 671.28 532.50
  Q 673.86 528.31 672.16 521.85
  Q 672.04 521.37 671.54 521.35
  Q 670.41 521.30 667.31 520.91
  C 661.24 520.17 655.47 507.77 652.95 502.45
  Q 647.59 491.17 642.85 478.52
  Q 625.80 432.94 617.19 385.11
  C 615.00 372.97 613.63 360.42 612.59 347.02
  C 610.38 318.69 614.90 284.97 640.19 267.24
  Q 646.62 262.73 654.49 263.18
  A 0.35 0.35 0.0 0 0 654.81 262.64
  Q 646.21 249.18 642.62 233.16
  Q 642.42 232.28 641.57 232.57
  Q 628.09 237.19 613.56 234.22
  C 603.09 232.07 595.20 226.83 592.03 216.49
  Q 591.96 216.26 591.85 216.47
  L 591.68 216.75
  Q 591.66 216.79 591.66 216.84
  Q 594.22 230.76 606.67 237.32
  Q 615.11 241.77 624.56 242.27
  C 628.47 242.48 633.64 241.78 638.30 241.86
  Q 641.59 241.92 638.91 243.83
  Q 636.97 245.21 633.96 246.18
  C 617.77 251.44 596.24 243.17 588.55 227.61
  C 582.13 214.63 586.83 198.65 598.14 189.66
  Q 605.01 184.20 605.38 183.89
  C 609.63 180.35 608.79 176.16 608.09 170.14
  C 606.91 159.83 606.30 148.83 609.47 139.41
  C 613.48 127.51 623.34 119.81 635.88 117.88
  Q 639.83 117.28 648.04 117.93
  Q 651.85 118.24 661.55 119.58
  C 669.83 120.73 675.08 120.78 680.69 114.93
  Q 685.53 109.88 690.39 103.34
  Q 701.31 88.64 720.01 89.16
  Q 736.97 89.63 748.94 101.21
  C 752.79 104.93 756.53 110.78 760.28 115.26
  Q 763.98 119.68 770.76 118.52
  C 775.26 117.75 778.85 116.45 782.54 116.50
  C 797.86 116.69 807.63 127.04 809.04 141.95
  Q 809.99 151.96 808.34 161.34
  Q 808.01 163.24 810.99 165.85
  C 819.52 173.31 826.13 181.56 828.80 192.91
  Q 833.74 213.91 820.52 230.82
  C 814.60 238.39 805.16 244.85 795.54 246.53
  Q 786.18 248.16 777.07 244.75
  Q 776.95 244.71 776.94 244.58
  L 776.92 244.31
  Q 776.89 243.71 777.48 243.85
  C 784.59 245.55 794.02 242.49 800.33 239.15
  Q 801.42 238.57 800.21 238.85
  Q 790.53 241.04 780.52 239.75
  Q 775.92 239.15 772.53 237.52
  A 1.02 1.01 18.7 0 0 771.09 238.23
  C 765.71 263.83 747.10 284.09 721.86 291.10
  C 702.63 296.44 682.60 292.86 666.89 280.46
  Q 660.90 275.73 658.94 274.92
  C 649.23 270.90 637.63 277.12 631.76 284.78
  Q 628.59 288.90 625.75 295.77
  C 619.47 310.95 617.74 326.71 618.76 343.00
  Q 620.49 370.77 626.96 400.45
  Q 633.52 430.53 642.71 458.04
  Q 650.94 482.66 660.22 501.32
  Q 663.86 508.62 667.36 513.57
  A 1.96 1.94 -15.0 0 0 668.78 514.38
  C 676.35 515.02 687.46 512.09 692.52 511.19
  Q 699.13 510.02 703.08 510.05
  Q 711.36 510.11 713.74 510.04
  C 719.29 509.87 717.21 503.18 716.20 500.08
  Q 713.41 491.55 710.99 486.33
  C 701.31 465.48 692.53 448.84 686.88 429.69
  C 683.78 419.21 682.10 409.18 684.49 398.75
  Q 684.51 398.65 684.62 398.61
  L 684.94 398.50
  Q 685.40 398.35 685.35 398.83
  Q 685.23 400.01 685.66 401.21
  Q 685.89 401.86 686.32 401.31
  Q 686.69 400.84 687.21 398.78
  Q 687.41 397.99 688.45 398.42
  Q 688.66 398.51 688.95 399.12
  A 2.84 2.83 -51.5 0 1 689.15 400.91
  Q 687.50 408.25 688.19 411.54
  Q 691.39 426.92 697.04 441.00
  Q 701.31 451.64 708.86 460.10
  C 711.92 463.53 714.96 464.62 720.24 466.28
  Q 723.49 467.31 726.97 467.39
  C 737.96 467.67 745.40 467.60 754.64 465.76
  C 761.53 464.39 766.24 460.50 768.97 454.27
  C 772.51 446.21 780.56 428.14 785.37 414.96
  C 787.64 408.74 788.32 403.61 789.82 395.51
  Q 790.06 394.26 790.13 389.66
  Q 790.13 389.23 790.57 389.19
  Q 790.68 389.17 790.89 389.24
  Q 791.20 389.33 791.33 389.62
  L 792.46 392.04
  Q 792.77 392.71 793.05 392.02
  Q 794.01 389.65 795.67 387.75
  A 0.57 0.56 -31.9 0 1 796.64 387.97
  Q 797.37 390.70 797.10 393.60
  C 796.10 404.65 792.40 415.01 788.39 425.38
  Q 785.11 433.85 774.47 457.99
  Q 767.18 474.56 764.41 487.81
  C 763.36 492.87 762.56 499.27 763.85 503.99
  C 766.85 515.01 802.41 520.27 811.78 519.59
  C 814.06 519.42 815.50 517.44 816.53 515.78
  C 819.59 510.87 822.48 506.15 824.92 500.69
  Q 853.36 437.13 860.11 367.84
  C 861.11 357.53 861.30 344.26 860.57 334.44
  C 858.98 313.13 854.00 292.24 841.29 275.04
  Q 829.91 259.65 811.05 258.32
  C 802.48 257.72 793.64 259.51 783.76 261.34
  Q 781.23 261.81 783.41 260.44
  C 790.63 255.90 798.43 252.75 807.08 252.36
  Q 824.52 251.59 837.40 262.39
  C 850.45 273.34 858.81 291.20 862.83 308.41
  Q 867.02 326.37 866.69 350.80
  Q 866.63 355.32 865.49 370.80
  Q 863.82 393.55 858.56 417.77
  Q 850.35 455.56 835.33 492.55
  Q 835.14 493.02 835.40 493.44
  Q 844.41 507.94 848.61 522.18
  C 865.89 580.82 871.88 641.60 877.34 702.40
  Q 880.57 738.42 881.18 776.76
  Q 881.52 798.48 880.17 820.23
  C 879.77 826.79 878.78 837.16 876.19 844.67
  Q 873.79 851.60 866.51 854.77
  Q 858.27 858.34 851.46 859.91
  Q 832.98 864.15 813.54 865.66
  C 803.60 866.43 795.81 868.19 786.54 868.43
  Q 784.54 868.48 784.57 870.24
  C 784.67 875.32 784.42 879.93 785.17 885.07
  Q 785.92 890.18 790.47 891.91
  Q 796.55 894.22 800.13 894.87
  Q 819.10 898.34 838.00 897.61
  Q 839.62 897.55 839.96 897.34
  Q 841.95 896.14 840.01 894.84
  Q 836.38 892.41 832.38 890.91
  Q 817.17 885.22 815.10 884.43
  Q 810.78 882.77 808.65 880.56
  C 806.72 878.56 806.59 874.40 807.31 871.76
  Q 807.71 870.33 809.47 868.71
  A 1.53 1.49 16.5 0 1 810.12 868.37
  C 813.36 867.62 813.13 873.51 813.16 875.49
  Q 813.16 876.00 813.56 876.32
  Q 815.00 877.49 816.29 877.99
  Q 829.04 882.89 838.22 886.51
  Q 840.04 887.22 843.48 889.20
  Q 848.25 891.94 849.38 897.11
  Z
  M 768.08 216.46
  Q 768.24 214.53 769.20 216.20
  Q 773.31 223.32 772.25 232.31
  A 0.38 0.38 0.0 0 0 772.81 232.69
  C 779.33 229.06 784.38 225.54 787.70 218.96
  Q 789.77 214.85 789.08 210.73
  C 787.65 202.17 779.88 198.79 772.79 204.45
  C 764.31 211.23 755.14 216.70 744.00 210.43
  C 733.62 204.59 728.04 192.02 722.00 183.89
  C 717.43 177.72 710.07 170.51 702.02 169.51
  Q 699.06 169.14 697.82 170.30
  Q 691.67 176.05 683.49 180.99
  C 672.96 187.36 659.79 186.09 649.79 179.35
  A 0.27 0.27 0.0 0 0 649.38 179.50
  Q 642.60 203.19 646.89 226.94
  C 651.77 253.99 668.47 279.00 696.11 285.91
  C 712.71 290.07 730.15 285.38 743.16 274.38
  Q 762.70 257.85 766.31 232.24
  Q 767.51 223.76 768.08 216.46
  Z
  M 765.6255 515.5530
  A 0.50 0.42 -27.0 0 0 764.9893 515.4058
  A 0.50 0.42 -27.0 0 0 764.7345 516.0070
  A 0.50 0.42 -27.0 0 0 765.3707 516.1542
  A 0.50 0.42 -27.0 0 0 765.6255 515.5530
  Z
  M 697.13 532.01
  A 2.42 1.94 -57.7 0 1 697.49 535.22
  Q 691.78 543.52 695.49 552.79
  Q 697.98 559.01 704.37 559.30
  Q 707.19 559.43 705.09 557.54
  Q 696.72 549.95 701.31 540.76
  C 703.08 537.22 707.65 532.92 709.51 530.80
  C 713.76 525.96 711.05 521.17 707.51 517.00
  A 1.40 1.36 74.7 0 0 706.71 516.53
  Q 704.92 516.17 703.78 516.24
  Q 692.56 516.84 683.49 520.22
  Q 680.48 521.34 678.13 524.54
  Q 677.84 524.95 677.85 525.45
  C 677.97 531.72 675.87 534.39 672.74 540.27
  Q 667.48 550.13 675.16 558.32
  Q 677.26 560.55 680.56 561.63
  A 0.38 0.38 0.0 0 0 681.00 561.06
  C 678.05 556.50 675.70 550.40 676.99 545.26
  Q 678.71 538.43 684.08 532.16
  Q 685.18 530.89 685.72 532.48
  L 686.11 533.66
  A 4.24 4.21 53.6 0 1 685.55 537.46
  Q 681.96 542.51 681.67 544.94
  Q 680.45 554.91 688.10 560.44
  Q 690.17 561.93 693.70 561.64
  Q 694.21 561.60 693.87 561.23
  Q 687.76 554.32 688.48 543.73
  C 688.71 540.31 690.91 533.11 694.38 531.94
  Q 696.01 531.39 697.13 532.01
  Z
  M 761.86 534.53
  A 1.02 1.01 76.1 0 1 763.43 535.48
  Q 763.09 538.72 761.62 544.05
  C 760.02 549.88 758.65 560.97 765.51 564.21
  Q 766.97 564.90 766.45 563.37
  C 763.91 555.96 765.24 548.13 767.64 540.15
  Q 768.24 538.14 769.42 536.92
  A 1.16 1.16 0.0 0 1 771.39 537.47
  C 772.56 542.54 769.51 548.05 769.91 553.44
  C 770.30 558.67 771.22 563.83 777.81 564.09
  Q 778.32 564.11 778.11 563.65
  C 776.89 560.94 775.82 557.78 775.79 554.73
  Q 775.71 547.26 778.83 540.88
  Q 780.23 538.01 783.01 538.87
  A 1.36 1.35 -74.2 0 1 783.92 540.50
  Q 782.72 545.20 781.64 550.45
  C 780.51 555.91 782.22 565.46 790.15 562.93
  A 0.71 0.71 0.0 0 0 790.30 561.65
  Q 787.61 560.05 786.41 558.26
  C 783.94 554.59 786.41 543.94 789.04 540.89
  Q 789.99 539.79 790.61 539.58
  C 793.87 538.47 799.14 536.99 801.00 534.02
  Q 803.16 530.58 803.70 527.11
  A 1.17 1.17 0.0 0 0 802.66 525.77
  Q 784.11 523.92 768.49 517.24
  Q 768.01 517.03 767.82 517.52
  Q 766.91 519.87 764.33 522.33
  Q 762.81 523.77 758.11 528.61
  Q 754.19 532.64 752.86 535.62
  C 749.14 543.96 747.92 554.88 754.84 561.72
  Q 755.95 562.81 755.72 561.27
  C 754.41 552.26 755.73 543.43 760.77 535.76
  Q 761.34 534.88 761.86 534.53
  Z
  M 725.39 533.95
  L 715.83 533.66
  Q 715.35 533.65 715.04 534.03
  Q 710.93 539.08 708.20 544.70
  C 707.13 546.89 710.17 551.38 711.52 553.34
  A 1.78 1.77 74.0 0 0 712.90 554.11
  L 723.78 554.57
  Q 733.12 556.08 742.74 555.81
  Q 743.26 555.80 743.13 555.29
  Q 740.40 544.54 744.54 534.54
  Q 744.74 534.06 744.23 533.99
  Q 734.72 532.67 725.39 533.95
  Z
  M 798.45 542.19
  Q 796.55 543.13 793.71 544.22
  Q 792.80 544.56 792.18 546.68
  C 791.42 549.25 789.86 553.64 791.85 555.55
  C 793.91 557.52 795.02 558.13 797.89 557.80
  C 800.30 557.53 802.53 557.76 803.67 555.92
  Q 806.69 551.00 807.18 545.45
  C 807.44 542.49 806.22 539.31 802.76 539.95
  C 801.18 540.24 799.63 541.60 798.45 542.19
  Z
  M 733.62 583.62
  L 743.43 583.67
  A 1.47 1.46 -87.9 0 0 744.90 582.30
  Q 745.54 571.97 744.70 563.31
  Q 744.66 562.95 744.30 562.94
  L 731.57 562.57
  L 721.98 563.01
  Q 721.36 563.04 721.62 563.61
  C 722.17 564.77 722.64 565.92 722.83 567.22
  Q 723.92 574.62 724.69 581.61
  Q 724.86 583.17 726.43 583.25
  L 733.62 583.62
  Z
  M 730.24 589.69
  A 0.75 0.75 0.0 0 0 729.39 590.45
  L 730.61 637.75
  A 0.75 0.75 0.0 0 0 731.19 638.46
  L 735.15 639.35
  A 0.75 0.75 0.0 0 0 736.07 638.65
  L 738.12 591.42
  A 0.75 0.75 0.0 0 0 737.47 590.64
  L 730.24 589.69
  Z
  M 752.79 785.78
  L 748.90 875.43
  A 2.58 2.57 -0.0 0 0 751.59 878.11
  Q 758.08 877.84 765.49 877.25
  C 771.86 876.75 775.12 879.00 779.18 883.47
  Q 779.88 884.24 779.79 883.20
  Q 779.12 875.13 780.41 866.39
  A 0.93 0.93 0.0 0 0 779.61 865.34
  C 774.37 864.69 767.13 863.32 763.78 859.64
  Q 761.58 857.21 760.71 853.03
  Q 759.08 845.18 758.61 840.71
  Q 755.72 813.29 753.16 785.85
  Q 753.15 785.71 753.04 785.73
  L 752.80 785.77
  Q 752.79 785.77 752.79 785.78
  Z"
/>
<path fill="#231f20" d="
  M 414.12 92.39
  Q 417.77 90.04 422.50 90.63
  A 1.38 1.38 0.0 0 1 423.71 92.03
  C 423.59 95.72 418.77 97.94 415.66 99.11
  Q 405.49 102.93 405.03 103.09
  C 403.67 103.58 402.49 103.56 401.38 102.73
  A 1.80 1.80 0.0 0 1 401.25 99.95
  Q 405.07 96.48 409.04 94.96
  Q 411.75 93.92 414.12 92.39
  Z"
/>
<path fill="#231f20" d="
  M 150.32 149.47
  Q 159.27 136.92 172.26 129.07
  Q 191.52 117.24 213.49 116.05
  C 233.01 114.99 250.69 122.03 265.10 134.41
  Q 271.45 139.86 274.31 147.31
  Q 274.86 148.74 273.55 147.96
  Q 268.93 145.20 264.68 141.69
  Q 257.40 135.67 256.28 134.91
  C 244.80 127.07 231.19 121.65 217.26 122.08
  C 194.11 122.78 170.64 133.09 156.48 151.74
  Q 149.38 161.10 147.57 173.28
  Q 147.12 176.30 146.92 185.83
  Q 146.88 187.59 144.89 189.63
  A 0.77 0.76 -54.0 0 1 143.99 189.78
  Q 142.45 189.00 141.91 187.53
  Q 141.12 185.36 140.97 180.99
  Q 140.39 163.91 150.32 149.47
  Z"
/>
<path fill="#231f20" d="
  M 439.64 125.79
  A 0.16 0.16 0.0 0 1 439.76 125.98
  L 439.43 127.54
  A 11.19 4.95 12.1 0 1 427.45 130.03
  L 426.73 129.88
  A 11.19 4.95 12.1 0 1 416.82 122.69
  L 417.16 121.14
  A 0.16 0.16 0.0 0 1 417.35 121.01
  L 439.64 125.79
  Z"
/>
<path fill="#231f20" d="
  M 401.77 200.42
  A 0.46 0.46 0.0 0 0 402.17 201.05
  Q 415.04 201.87 425.43 210.10
  C 445.80 226.24 451.76 253.38 439.32 276.50
  C 427.63 298.23 399.30 310.03 375.52 303.75
  Q 369.44 302.14 365.45 298.66
  Q 364.25 297.62 365.84 297.57
  Q 369.71 297.46 372.75 297.97
  C 383.02 299.71 392.11 300.33 402.04 297.80
  Q 423.50 292.31 433.62 273.39
  Q 438.10 265.02 438.69 256.87
  C 440.54 231.78 424.29 210.88 398.95 208.13
  Q 396.30 207.84 391.52 207.56
  Q 390.33 207.50 388.65 205.20
  Q 388.34 204.77 388.75 204.44
  C 392.58 201.34 396.29 195.23 397.13 190.28
  Q 399.01 179.25 396.44 169.15
  Q 391.01 147.75 371.40 137.93
  Q 353.12 128.77 333.91 133.42
  C 328.09 134.83 321.63 137.96 315.86 140.03
  Q 313.66 140.83 314.87 138.82
  C 320.60 129.33 339.65 125.73 350.23 126.66
  C 384.76 129.69 408.18 155.14 404.13 190.62
  Q 403.56 195.63 401.77 200.42
  Z"
/>
<path fill="#e8e8e8" d="
  M 768.08 216.46
  Q 767.51 223.76 766.31 232.24
  Q 762.70 257.85 743.16 274.38
  C 730.15 285.38 712.71 290.07 696.11 285.91
  C 668.47 279.00 651.77 253.99 646.89 226.94
  Q 642.60 203.19 649.38 179.50
  A 0.27 0.27 0.0 0 1 649.79 179.35
  C 659.79 186.09 672.96 187.36 683.49 180.99
  Q 691.67 176.05 697.82 170.30
  Q 699.06 169.14 702.02 169.51
  C 710.07 170.51 717.43 177.72 722.00 183.89
  C 728.04 192.02 733.62 204.59 744.00 210.43
  C 755.14 216.70 764.31 211.23 772.79 204.45
  C 779.88 198.79 787.65 202.17 789.08 210.73
  Q 789.77 214.85 787.70 218.96
  C 784.38 225.54 779.33 229.06 772.81 232.69
  A 0.38 0.38 0.0 0 1 772.25 232.31
  Q 773.31 223.32 769.20 216.20
  Q 768.24 214.53 768.08 216.46
  Z
  M 677.34 198.38
  L 679.82 201.16
  A 3.84 3.83 54.1 0 0 684.60 201.93
  L 685.14 201.61
  A 3.01 3.00 56.6 0 0 686.04 197.20
  C 680.87 190.29 672.69 189.78 665.53 193.56
  Q 663.14 194.82 664.00 197.39
  L 664.16 197.86
  A 2.63 2.62 -19.8 0 0 667.59 199.47
  C 670.80 198.23 674.44 196.61 677.05 198.15
  A 1.26 1.11 79.7 0 1 677.34 198.38
  Z
  M 711.67 199.09
  C 713.79 199.61 714.85 203.10 717.73 201.22
  C 720.34 199.51 718.66 196.35 716.55 194.97
  C 710.61 191.06 701.76 190.57 697.06 196.29
  Q 695.42 198.29 695.34 200.31
  C 695.21 203.85 698.17 204.47 700.79 202.92
  C 703.76 201.17 706.96 197.93 711.67 199.09
  Z
  M 681.04 224.04
  Q 679.88 226.78 676.78 235.72
  Q 676.26 237.21 676.94 238.98
  A 0.78 0.78 0.0 0 0 678.33 239.12
  C 680.45 235.77 692.04 217.42 687.34 215.39
  Q 686.12 214.87 685.84 214.72
  Q 683.68 213.60 682.85 215.59
  A 1.50 1.45 -4.3 0 1 682.23 216.29
  Q 676.44 219.66 670.44 217.58
  C 669.03 217.09 668.44 215.88 667.56 214.56
  Q 667.29 214.16 666.84 213.97
  Q 664.27 212.89 662.74 215.40
  C 661.28 217.79 665.14 221.76 667.15 222.65
  Q 673.55 225.50 680.64 223.59
  A 0.34 0.33 3.8 0 1 681.04 224.04
  Z
  M 702.05 227.25
  C 705.68 227.67 711.71 226.83 714.19 223.97
  C 715.96 221.93 714.45 218.98 712.13 219.12
  Q 711.48 219.15 709.45 220.14
  Q 706.14 221.76 702.74 221.36
  Q 699.34 220.96 696.49 218.63
  Q 694.75 217.20 694.12 217.02
  C 691.90 216.35 689.75 218.87 691.00 221.26
  C 692.75 224.61 698.42 226.82 702.05 227.25
  Z
  M 700.07 254.98
  C 698.38 256.11 697.01 255.93 695.02 255.56
  C 690.36 254.69 689.95 260.48 693.81 261.41
  Q 699.27 262.73 703.41 259.97
  Q 707.54 257.20 708.42 251.66
  C 709.03 247.73 703.53 245.89 702.54 250.54
  C 702.12 252.52 701.77 253.84 700.07 254.98
  Z"
/>
<path fill="#231f20" d="
  M 364.18 210.47
  Q 371.21 209.63 371.01 216.99
  Q 370.92 220.37 368.99 224.10
  Q 368.76 224.56 369.14 224.90
  Q 372.61 228.09 375.84 233.51
  Q 376.96 235.38 375.83 238.22
  Q 375.78 238.36 375.71 238.40
  Q 373.52 239.73 372.57 238.35
  Q 366.13 229.02 362.09 225.64
  C 349.48 215.12 335.53 211.90 318.44 210.24
  C 311.34 209.55 304.26 210.84 297.28 211.78
  Q 295.83 211.97 293.84 211.73
  A 0.62 0.62 0.0 0 1 293.47 210.67
  C 295.96 208.21 299.47 207.66 303.20 206.93
  A 0.68 0.68 0.0 0 0 303.69 205.97
  C 299.85 197.85 289.83 195.41 281.32 194.71
  Q 280.55 194.64 280.54 194.46
  A 1.89 1.57 83.0 0 1 281.82 192.47
  C 287.07 191.59 290.21 192.85 294.89 193.67
  Q 295.43 193.77 295.54 193.23
  Q 296.18 190.12 299.94 184.97
  C 303.91 179.51 307.83 182.75 311.63 185.88
  Q 312.01 186.19 312.46 186.01
  Q 313.29 185.69 313.67 185.03
  Q 313.92 184.60 313.68 184.15
  C 312.08 181.08 309.96 173.73 314.47 172.18
  Q 321.25 169.85 328.73 170.76
  A 2.53 2.53 0.0 0 1 330.81 172.43
  Q 331.79 175.22 331.64 177.35
  Q 331.56 178.45 332.65 178.59
  L 337.14 179.18
  Q 338.31 179.34 338.19 178.16
  C 337.74 173.73 339.90 171.26 344.69 172.81
  Q 347.99 173.87 353.84 176.23
  C 359.32 178.45 356.73 183.50 354.68 187.28
  A 1.39 1.38 40.6 0 0 354.80 188.77
  L 357.81 192.72
  Q 358.07 193.07 358.56 192.91
  Q 358.74 192.86 360.49 192.13
  C 363.29 190.95 365.66 191.58 366.89 194.51
  C 368.60 198.62 370.05 202.03 369.92 205.55
  C 369.83 208.08 366.12 209.74 364.14 210.26
  A 0.11 0.11 0.0 0 0 364.18 210.47
  Z
  M 323.97 174.17
  L 318.25 175.76
  Q 316.53 176.24 317.10 177.93
  L 317.45 178.97
  Q 318.01 180.64 319.71 180.19
  L 326.12 178.50
  L 328.15 178.14
  Q 328.84 178.01 328.61 177.35
  L 327.80 174.92
  Q 327.66 174.52 327.28 174.32
  Q 325.84 173.55 323.97 174.17
  Z
  M 344.18 180.63
  Q 347.35 182.41 351.28 182.00
  A 0.92 0.92 0.0 0 0 351.78 180.38
  Q 349.28 178.29 345.70 176.94
  Q 344.10 176.00 342.24 176.03
  Q 341.59 176.04 341.44 176.68
  L 340.91 179.06
  A 0.77 0.77 0.0 0 0 341.48 179.98
  L 344.18 180.63
  Z
  M 321.10 185.68
  C 314.73 189.04 305.04 198.97 313.30 205.67
  A 1.39 1.38 -26.2 0 0 314.19 205.97
  L 319.82 205.82
  Q 320.32 205.81 320.49 205.34
  Q 322.79 198.90 329.79 197.76
  Q 339.04 196.74 343.57 204.20
  C 344.54 205.79 345.04 207.91 345.51 209.80
  Q 345.64 210.31 346.14 210.49
  L 351.99 212.55
  Q 352.22 213.43 353.93 213.97
  C 354.97 214.30 355.73 214.83 356.75 213.98
  C 360.36 211.00 356.25 199.36 354.34 195.63
  Q 351.21 189.49 343.03 186.01
  Q 333.14 180.90 321.10 185.68
  Z
  M 303.97 194.41
  L 307.70 188.96
  A 0.57 0.57 0.0 0 0 307.55 188.17
  L 306.60 187.52
  A 2.19 1.87 34.4 0 0 303.73 187.82
  L 301.47 191.12
  A 2.19 1.87 34.4 0 0 302.22 193.90
  L 303.18 194.56
  A 0.57 0.57 0.0 0 0 303.97 194.41
  Z
  M 362.53 194.70
  L 360.64 195.41
  A 0.67 0.67 0.0 0 0 360.25 196.28
  L 360.31 196.45
  A 8.16 1.68 69.4 0 0 364.76 203.50
  L 364.76 203.50
  A 8.16 1.68 69.4 0 0 363.46 195.27
  L 363.39 195.09
  A 0.67 0.67 0.0 0 0 362.53 194.70
  Z
  M 325.34 206.64
  C 330.88 207.11 335.01 207.66 340.03 208.92
  Q 341.00 209.16 340.63 208.23
  C 338.00 201.45 329.08 198.71 324.95 205.88
  A 0.51 0.50 -72.3 0 0 325.34 206.64
  Z
  M 363.47 217.06
  Q 364.31 218.41 365.89 218.84
  Q 366.39 218.98 366.54 218.48
  Q 366.96 217.08 366.85 215.23
  Q 366.84 215.18 366.75 215.03
  Q 366.66 214.87 366.61 214.85
  Q 365.00 213.93 363.56 213.68
  Q 363.05 213.60 362.95 214.11
  Q 362.63 215.72 363.47 217.06
  Z"
/>
<path fill="#ffffff" d="
  M 326.12 178.50
  Q 323.43 177.36 323.97 174.17
  Q 325.84 173.55 327.28 174.32
  Q 327.66 174.52 327.80 174.92
  L 328.61 177.35
  Q 328.84 178.01 328.15 178.14
  L 326.12 178.50
  Z"
/>
<path fill="#9d9b9c" d="
  M 323.97 174.17
  Q 323.43 177.36 326.12 178.50
  L 319.71 180.19
  Q 318.01 180.64 317.45 178.97
  L 317.10 177.93
  Q 316.53 176.24 318.25 175.76
  L 323.97 174.17
  Z"
/>
<path fill="#ffffff" d="
  M 345.70 176.94
  Q 346.14 179.55 344.18 180.63
  L 341.48 179.98
  A 0.77 0.77 0.0 0 1 340.91 179.06
  L 341.44 176.68
  Q 341.59 176.04 342.24 176.03
  Q 344.10 176.00 345.70 176.94
  Z"
/>
<path fill="#9d9b9c" d="
  M 344.18 180.63
  Q 346.14 179.55 345.70 176.94
  Q 349.28 178.29 351.78 180.38
  A 0.92 0.92 0.0 0 1 351.28 182.00
  Q 347.35 182.41 344.18 180.63
  Z"
/>
<path fill="#231f20" d="
  M 246.33 233.97
  Q 244.53 234.32 246.32 234.74
  C 253.73 236.45 262.08 237.69 267.01 242.27
  A 0.55 0.55 0.0 0 1 266.77 243.21
  Q 262.74 244.20 258.09 242.85
  C 249.95 240.48 241.52 239.07 235.56 238.75
  Q 219.34 237.87 201.11 243.86
  Q 181.88 250.18 169.71 264.98
  A 4.52 3.85 22.2 0 1 165.70 266.30
  Q 165.67 266.30 165.29 266.08
  Q 162.89 264.67 164.35 262.30
  Q 166.69 258.50 168.96 256.22
  C 170.22 254.96 171.78 251.67 170.82 249.55
  Q 168.90 245.32 166.65 243.95
  Q 153.43 235.92 138.46 239.67
  Q 137.18 239.99 136.14 239.95
  A 1.16 1.16 0.0 0 1 135.23 238.13
  Q 136.46 236.34 139.26 235.21
  C 143.52 233.51 147.13 233.76 151.72 233.77
  Q 152.26 233.77 152.28 233.24
  C 152.65 223.17 158.83 223.36 166.66 224.22
  Q 167.18 224.28 167.39 223.80
  Q 167.92 222.61 168.03 221.44
  Q 168.08 220.92 167.62 220.68
  Q 161.89 217.63 159.22 214.27
  C 155.13 209.13 161.68 202.28 165.34 198.59
  C 168.06 195.86 170.16 194.45 173.73 196.47
  Q 177.04 198.34 179.27 201.14
  A 0.26 0.26 0.0 0 0 179.61 201.20
  L 188.17 196.26
  A 0.60 0.59 -35.2 0 0 188.33 195.36
  C 186.27 192.97 183.73 188.30 185.72 185.29
  C 186.94 183.45 188.66 182.94 190.65 182.23
  Q 196.50 180.17 201.93 179.12
  C 209.13 177.74 210.10 185.54 210.66 191.32
  Q 210.70 191.73 211.11 191.83
  L 220.26 193.89
  A 0.79 0.78 -74.2 0 0 221.17 193.38
  C 222.62 189.16 226.26 183.60 231.60 186.70
  Q 239.33 191.18 242.47 194.42
  C 246.74 198.82 242.80 203.61 239.56 206.99
  A 1.00 1.00 0.0 0 0 239.41 208.19
  L 241.40 211.63
  A 0.94 0.94 0.0 0 0 242.65 212.00
  C 247.42 209.57 252.58 209.22 254.96 215.05
  Q 256.99 220.02 257.73 225.02
  Q 258.46 229.95 254.00 231.77
  Q 250.70 233.13 246.33 233.97
  Z
  M 189.69 188.65
  L 191.30 193.21
  A 1.22 1.22 0.0 0 0 192.86 193.95
  L 193.10 193.87
  A 12.29 3.60 -19.5 0 0 203.48 186.37
  L 203.45 186.30
  A 12.29 3.60 -19.5 0 0 190.67 187.00
  L 190.43 187.09
  A 1.22 1.22 0.0 0 0 189.69 188.65
  Z
  M 227.54 190.31
  L 224.83 194.92
  A 0.84 0.84 0.0 0 0 225.12 196.07
  L 225.29 196.17
  A 12.26 3.14 30.5 0 0 237.45 199.68
  L 237.83 199.05
  A 12.26 3.14 30.5 0 0 228.86 190.12
  L 228.69 190.02
  A 0.84 0.84 0.0 0 0 227.54 190.31
  Z
  M 212.71 220.63
  C 217.88 223.09 221.60 226.27 222.08 232.44
  Q 222.11 232.93 222.61 232.97
  Q 226.15 233.32 228.88 232.66
  L 236.43 233.37
  A 1.34 1.32 -75.3 0 0 237.77 232.58
  C 241.17 224.78 238.78 216.63 233.45 210.23
  Q 221.13 195.42 202.30 197.93
  Q 181.18 200.74 174.16 220.94
  Q 170.40 231.77 176.48 242.30
  C 177.06 243.30 177.39 244.14 178.75 244.10
  C 182.60 243.99 186.47 241.70 190.75 239.65
  Q 191.21 239.43 191.09 238.93
  Q 189.22 231.55 193.79 225.75
  Q 201.00 216.59 212.71 220.63
  Z
  M 176.34 202.97
  L 170.34 198.85
  A 0.21 0.21 0.0 0 0 170.04 198.90
  L 164.39 207.14
  A 3.70 3.16 -55.5 0 0 164.89 211.98
  L 166.03 212.76
  A 3.70 3.16 -55.5 0 0 170.73 211.50
  L 176.39 203.27
  A 0.21 0.21 0.0 0 0 176.34 202.97
  Z
  M 253.06 225.34
  C 252.58 221.36 252.46 216.39 250.27 214.72
  C 248.65 213.49 246.34 214.38 244.52 214.81
  A 0.96 0.96 0.0 0 0 243.83 216.05
  L 246.96 225.32
  Q 247.38 226.57 248.70 226.62
  L 251.75 226.76
  Q 253.24 226.82 253.06 225.34
  Z
  M 197.55 238.13
  L 215.90 234.06
  A 1.09 1.09 0.0 0 0 216.73 232.76
  L 216.68 232.54
  A 10.29 10.28 77.5 0 0 204.42 224.72
  L 204.01 224.81
  A 10.29 10.28 77.5 0 0 196.20 237.08
  L 196.25 237.30
  A 1.09 1.09 0.0 0 0 197.55 238.13
  Z
  M 164.71 229.94
  Q 157.94 228.31 158.20 232.89
  Q 158.27 234.20 159.55 234.49
  L 161.96 235.03
  Q 163.29 235.33 163.98 234.14
  L 165.43 231.62
  Q 166.19 230.30 164.71 229.94
  Z"
/>
<path fill="#9d9b9c" d="
  M 343.03 186.01
  Q 354.71 198.72 351.99 212.55
  L 346.14 210.49
  Q 345.64 210.31 345.51 209.80
  C 345.04 207.91 344.54 205.79 343.57 204.20
  Q 339.04 196.74 329.79 197.76
  Q 331.33 192.93 331.14 191.47
  Q 330.82 189.16 329.50 188.40
  Q 326.47 186.67 321.10 185.68
  Q 333.14 180.90 343.03 186.01
  Z"
/>
<path fill="#ffffff" d="
  M 189.69 188.65
  A 1.22 1.22 0.0 0 1 190.43 187.09
  L 190.67 187.00
  A 12.29 3.60 -19.5 0 1 203.45 186.30
  L 203.48 186.37
  A 12.29 3.60 -19.5 0 1 193.10 193.87
  L 192.86 193.95
  A 1.22 1.22 0.0 0 1 191.30 193.21
  L 189.69 188.65
  Z"
/>
<path fill="#e8e8e8" d="
  M 321.10 185.68
  Q 326.47 186.67 329.50 188.40
  Q 330.82 189.16 331.14 191.47
  Q 331.33 192.93 329.79 197.76
  Q 322.79 198.90 320.49 205.34
  Q 320.32 205.81 319.82 205.82
  L 314.19 205.97
  A 1.39 1.38 -26.2 0 1 313.30 205.67
  C 305.04 198.97 314.73 189.04 321.10 185.68
  Z"
/>
<path fill="#ffffff" d="
  M 343.03 186.01
  Q 351.21 189.49 354.34 195.63
  C 356.25 199.36 360.36 211.00 356.75 213.98
  C 355.73 214.83 354.97 214.30 353.93 213.97
  Q 352.22 213.43 351.99 212.55
  Q 354.71 198.72 343.03 186.01
  Z"
/>
<path fill="#9d9b9c" d="
  M 303.97 194.41
  A 0.57 0.57 0.0 0 1 303.18 194.56
  L 302.22 193.90
  A 2.19 1.87 34.4 0 1 301.47 191.12
  L 303.73 187.82
  A 2.19 1.87 34.4 0 1 306.60 187.52
  L 307.55 188.17
  A 0.57 0.57 0.0 0 1 307.70 188.96
  L 303.97 194.41
  Z"
/>
<path fill="#ffffff" d="
  M 227.54 190.31
  A 0.84 0.84 0.0 0 1 228.69 190.02
  L 228.86 190.12
  A 12.26 3.14 30.5 0 1 237.83 199.05
  L 237.45 199.68
  A 12.26 3.14 30.5 0 1 225.29 196.17
  L 225.12 196.07
  A 0.84 0.84 0.0 0 1 224.83 194.92
  L 227.54 190.31
  Z"
/>
<path fill="#231f20" d="
  M 677.05 198.15
  C 674.44 196.61 670.80 198.23 667.59 199.47
  A 2.63 2.62 -19.8 0 1 664.16 197.86
  L 664.00 197.39
  Q 663.14 194.82 665.53 193.56
  C 672.69 189.78 680.87 190.29 686.04 197.20
  A 3.01 3.00 56.6 0 1 685.14 201.61
  L 684.60 201.93
  A 3.84 3.83 54.1 0 1 679.82 201.16
  L 677.34 198.38
  A 1.26 1.11 79.7 0 0 677.05 198.15
  Z"
/>
<path fill="#231f20" d="
  M 711.67 199.09
  C 706.96 197.93 703.76 201.17 700.79 202.92
  C 698.17 204.47 695.21 203.85 695.34 200.31
  Q 695.42 198.29 697.06 196.29
  C 701.76 190.57 710.61 191.06 716.55 194.97
  C 718.66 196.35 720.34 199.51 717.73 201.22
  C 714.85 203.10 713.79 199.61 711.67 199.09
  Z"
/>
<path fill="#ffffff" d="
  M 362.53 194.70
  A 0.67 0.67 0.0 0 1 363.39 195.09
  L 363.46 195.27
  A 8.16 1.68 69.4 0 1 364.76 203.50
  L 364.76 203.50
  A 8.16 1.68 69.4 0 1 360.31 196.45
  L 360.25 196.28
  A 0.67 0.67 0.0 0 1 360.64 195.41
  L 362.53 194.70
  Z"
/>
<path fill="#ffffff" d="
  M 228.88 232.66
  Q 231.59 227.32 230.33 221.37
  Q 227.52 208.09 217.13 202.14
  Q 214.73 200.77 212.01 200.50
  Q 209.09 200.20 205.60 199.39
  A 2.31 2.30 5.7 0 0 202.77 201.70
  Q 202.80 202.43 203.08 203.42
  C 203.89 206.30 203.82 209.91 205.12 211.50
  Q 208.79 215.97 213.24 219.50
  A 0.50 0.50 0.0 0 1 213.20 220.31
  L 212.71 220.63
  Q 201.00 216.59 193.79 225.75
  Q 189.22 231.55 191.09 238.93
  Q 191.21 239.43 190.75 239.65
  C 186.47 241.70 182.60 243.99 178.75 244.10
  C 177.39 244.14 177.06 243.30 176.48 242.30
  Q 170.40 231.77 174.16 220.94
  Q 181.18 200.74 202.30 197.93
  Q 221.13 195.42 233.45 210.23
  C 238.78 216.63 241.17 224.78 237.77 232.58
  A 1.34 1.32 -75.3 0 1 236.43 233.37
  L 228.88 232.66
  Z"
/>
<path fill="#9d9b9c" d="
  M 228.88 232.66
  Q 226.15 233.32 222.61 232.97
  Q 222.11 232.93 222.08 232.44
  C 221.60 226.27 217.88 223.09 212.71 220.63
  L 213.20 220.31
  A 0.50 0.50 0.0 0 0 213.24 219.50
  Q 208.79 215.97 205.12 211.50
  C 203.82 209.91 203.89 206.30 203.08 203.42
  Q 202.80 202.43 202.77 201.70
  A 2.31 2.30 5.7 0 1 205.60 199.39
  Q 209.09 200.20 212.01 200.50
  Q 214.73 200.77 217.13 202.14
  Q 227.52 208.09 230.33 221.37
  Q 231.59 227.32 228.88 232.66
  Z"
/>
<path fill="#ffffff" d="
  M 176.34 202.97
  A 0.21 0.21 0.0 0 1 176.39 203.27
  L 170.73 211.50
  A 3.70 3.16 -55.5 0 1 166.03 212.76
  L 164.89 211.98
  A 3.70 3.16 -55.5 0 1 164.39 207.14
  L 170.04 198.90
  A 0.21 0.21 0.0 0 1 170.34 198.85
  L 176.34 202.97
  Z"
/>
<path fill="#231f20" d="
  M 95.24 225.56
  Q 102.55 213.64 116.54 206.51
  C 126.30 201.53 140.88 198.25 148.61 207.53
  Q 149.51 208.60 148.12 208.41
  C 124.16 204.98 102.10 217.50 96.38 241.46
  C 93.08 255.27 93.96 272.54 102.52 284.35
  Q 108.72 292.90 117.08 297.80
  Q 139.28 310.83 164.65 305.94
  C 169.26 305.05 175.65 302.63 179.85 301.64
  Q 182.69 300.97 184.60 302.29
  A 1.48 1.47 41.2 0 1 184.76 304.60
  Q 182.10 307.01 177.99 308.55
  Q 159.42 315.50 140.27 312.47
  C 122.82 309.71 106.15 301.36 96.13 286.96
  C 83.38 268.63 83.46 244.76 95.24 225.56
  Z"
/>
<path fill="#ffffff" d="
  M 340.03 208.92
  C 335.01 207.66 330.88 207.11 325.34 206.64
  A 0.51 0.50 -72.3 0 1 324.95 205.88
  C 329.08 198.71 338.00 201.45 340.63 208.23
  Q 341.00 209.16 340.03 208.92
  Z"
/>
<path fill="#9d9b9c" d="
  M 366.75 215.03
  Q 366.84 215.18 366.85 215.23
  Q 366.96 217.08 366.54 218.48
  Q 366.39 218.98 365.89 218.84
  Q 364.31 218.41 363.47 217.06
  Q 362.63 215.72 362.95 214.11
  Q 363.05 213.60 363.56 213.68
  Q 365.00 213.93 366.61 214.85
  Q 366.66 214.87 366.75 215.03
  Z"
/>
<path fill="#231f20" d="
  M 681.04 224.04
  A 0.34 0.33 3.8 0 0 680.64 223.59
  Q 673.55 225.50 667.15 222.65
  C 665.14 221.76 661.28 217.79 662.74 215.40
  Q 664.27 212.89 666.84 213.97
  Q 667.29 214.16 667.56 214.56
  C 668.44 215.88 669.03 217.09 670.44 217.58
  Q 676.44 219.66 682.23 216.29
  A 1.50 1.45 -4.3 0 0 682.85 215.59
  Q 683.68 213.60 685.84 214.72
  Q 686.12 214.87 687.34 215.39
  C 692.04 217.42 680.45 235.77 678.33 239.12
  A 0.78 0.78 0.0 0 1 676.94 238.98
  Q 676.26 237.21 676.78 235.72
  Q 679.88 226.78 681.04 224.04
  Z"
/>
<path fill="#ffffff" d="
  M 253.06 225.34
  Q 253.24 226.82 251.75 226.76
  L 248.70 226.62
  Q 247.38 226.57 246.96 225.32
  L 243.83 216.05
  A 0.96 0.96 0.0 0 1 244.52 214.81
  C 246.34 214.38 248.65 213.49 250.27 214.72
  C 252.46 216.39 252.58 221.36 253.06 225.34
  Z"
/>
<path fill="#231f20" d="
  M 702.74 221.36
  Q 706.14 221.76 709.45 220.14
  Q 711.48 219.15 712.13 219.12
  C 714.45 218.98 715.96 221.93 714.19 223.97
  C 711.71 226.83 705.68 227.67 702.05 227.25
  C 698.42 226.82 692.75 224.61 691.00 221.26
  C 689.75 218.87 691.90 216.35 694.12 217.02
  Q 694.75 217.20 696.49 218.63
  Q 699.34 220.96 702.74 221.36
  Z"
/>
<path fill="#ffffff" d="
  M 197.55 238.13
  A 1.09 1.09 0.0 0 1 196.25 237.30
  L 196.20 237.08
  A 10.29 10.28 77.5 0 1 204.01 224.81
  L 204.42 224.72
  A 10.29 10.28 77.5 0 1 216.68 232.54
  L 216.73 232.76
  A 1.09 1.09 0.0 0 1 215.90 234.06
  L 197.55 238.13
  Z"
/>
<path fill="#ffffff" d="
  M 164.71 229.94
  Q 166.19 230.30 165.43 231.62
  L 163.98 234.14
  Q 163.29 235.33 161.96 235.03
  L 159.55 234.49
  Q 158.27 234.20 158.20 232.89
  Q 157.94 228.31 164.71 229.94
  Z"
/>
<path fill="#231f20" d="
  M 866.11 236.23
  Q 863.55 233.38 863.48 233.31
  A 0.91 0.74 65.2 0 1 863.86 231.85
  C 868.49 231.84 872.65 235.93 874.43 239.70
  Q 875.31 241.54 874.72 244.02
  A 1.51 1.50 3.2 0 1 873.42 245.17
  Q 871.73 245.37 870.85 243.88
  C 869.38 241.42 868.37 238.74 866.11 236.23
  Z"
/>
<path fill="#231f20" d="
  M 856.86 248.35
  C 854.28 245.38 851.10 243.98 847.09 241.70
  Q 845.37 240.73 847.32 240.46
  C 855.10 239.40 859.82 243.63 864.78 248.94
  C 868.16 252.57 868.71 256.13 867.99 260.71
  A 1.45 1.45 0.0 0 1 866.01 261.83
  Q 864.44 261.18 863.64 259.38
  Q 860.66 252.73 856.86 248.35
  Z"
/>
<path fill="#231f20" d="
  M 703.41 259.97
  Q 699.27 262.73 693.81 261.41
  C 689.95 260.48 690.36 254.69 695.02 255.56
  C 697.01 255.93 698.38 256.11 700.07 254.98
  C 701.77 253.84 702.12 252.52 702.54 250.54
  C 703.53 245.89 709.03 247.73 708.42 251.66
  Q 707.54 257.20 703.41 259.97
  Z"
/>
<path fill="#231f20" d="
  M 585.73 275.73
  C 585.02 277.50 584.09 281.18 582.58 282.32
  A 1.12 1.11 -25.5 0 1 580.82 281.70
  Q 579.62 276.64 581.10 271.67
  C 581.85 269.16 584.24 265.76 585.62 263.63
  C 587.99 259.99 590.95 258.04 595.46 257.66
  A 1.36 1.36 0.0 0 1 596.93 259.14
  C 596.72 261.47 593.90 264.12 591.54 266.80
  Q 587.37 271.56 585.73 275.73
  Z"
/>
<path fill="#231f20" d="
  M 597.90 288.84
  C 597.54 290.53 597.28 293.96 596.11 295.21
  A 1.01 1.01 0.0 0 1 594.45 294.93
  Q 592.59 290.61 593.13 285.94
  C 593.41 283.58 595.01 280.17 595.91 278.06
  C 597.45 274.44 599.79 272.24 603.75 271.19
  A 1.23 1.23 0.0 0 1 605.30 272.28
  C 605.47 274.39 603.37 277.20 601.68 279.96
  Q 598.71 284.86 597.90 288.84
  Z"
/>
<path fill="#231f20" d="
  M 199.99 294.82
  C 206.34 329.07 244.30 347.45 275.59 349.36
  Q 287.36 350.08 300.69 345.62
  C 319.30 339.39 335.28 326.62 344.40 308.91
  Q 346.80 304.23 348.98 299.25
  Q 349.89 297.15 350.12 299.43
  C 350.66 304.86 350.06 309.01 347.71 314.13
  C 342.22 326.07 331.30 337.07 320.05 343.52
  C 307.75 350.58 293.42 356.53 279.64 356.28
  C 248.59 355.72 215.30 341.61 199.57 313.79
  C 196.07 307.62 188.88 289.49 196.03 284.21
  A 0.97 0.97 0.0 0 1 197.47 284.53
  C 199.04 287.46 199.42 291.75 199.99 294.82
  Z"
/>
<path fill="#231f20" d="
  M 728.96 312.95
  C 728.07 317.86 718.90 326.17 716.14 316.28
  C 715.53 314.08 716.09 307.28 718.49 305.55
  C 723.73 301.75 730.07 306.84 728.96 312.95
  Z
  M 722.7630 312.4780
  A 1.79 0.83 -40.9 0 0 720.8666 313.0226
  A 1.79 0.83 -40.9 0 0 720.0570 314.8220
  A 1.79 0.83 -40.9 0 0 721.9534 314.2774
  A 1.79 0.83 -40.9 0 0 722.7630 312.4780
  Z"
/>
<ellipse fill="#ffffff" cx="0.00" cy="0.00" transform="translate(721.41,313.65) rotate(-40.9)" rx="1.79" ry="0.83"/>
<path fill="#231f20" d="
  M 445.55 784.41
  C 478.17 812.84 523.60 826.53 566.51 827.31
  Q 571.75 827.41 583.32 826.23
  Q 583.62 826.19 583.73 826.48
  Q 583.78 826.62 583.72 826.76
  Q 583.68 826.89 583.54 826.93
  C 570.44 830.88 555.71 831.61 542.35 830.08
  C 496.59 824.84 450.48 805.49 422.54 767.69
  Q 412.06 753.50 406.74 736.97
  Q 395.75 702.75 401.39 668.67
  Q 402.52 661.84 406.13 644.31
  C 412.88 611.54 427.30 576.86 424.28 542.01
  Q 423.05 527.82 416.86 514.14
  C 406.24 490.63 384.47 478.23 359.25 477.11
  Q 343.23 476.39 326.27 479.50
  C 296.35 484.97 266.61 489.88 237.07 483.66
  C 200.32 475.91 174.01 446.71 174.92 408.53
  Q 175.34 390.63 184.03 374.82
  Q 187.89 367.79 194.90 363.50
  A 0.65 0.65 0.0 0 1 195.89 364.08
  Q 195.84 365.11 195.27 366.27
  Q 189.22 378.59 186.56 386.82
  C 174.98 422.62 191.38 459.05 226.58 472.41
  Q 241.43 478.05 258.76 478.50
  Q 282.52 479.13 301.36 475.87
  Q 322.48 472.21 334.54 470.52
  C 365.98 466.12 397.13 472.22 416.53 499.36
  C 427.88 515.24 432.06 535.35 431.65 554.56
  Q 431.46 563.20 429.38 575.28
  C 425.58 597.43 421.11 612.13 413.27 641.32
  C 408.66 658.52 405.84 674.37 405.34 691.06
  C 404.25 727.39 418.37 760.73 445.55 784.41
  Z"
/>
<ellipse fill="#9d9b9c" cx="0.00" cy="0.00" transform="translate(765.18,515.78) rotate(-27.0)" rx="0.50" ry="0.42"/>
<path fill="#e8e8e8" d="
  M 697.13 532.01
  Q 696.01 531.39 694.38 531.94
  C 690.91 533.11 688.71 540.31 688.48 543.73
  Q 687.76 554.32 693.87 561.23
  Q 694.21 561.60 693.70 561.64
  Q 690.17 561.93 688.10 560.44
  Q 680.45 554.91 681.67 544.94
  Q 681.96 542.51 685.55 537.46
  A 4.24 4.21 53.6 0 0 686.11 533.66
  L 685.72 532.48
  Q 685.18 530.89 684.08 532.16
  Q 678.71 538.43 676.99 545.26
  C 675.70 550.40 678.05 556.50 681.00 561.06
  A 0.38 0.38 0.0 0 1 680.56 561.63
  Q 677.26 560.55 675.16 558.32
  Q 667.48 550.13 672.74 540.27
  C 675.87 534.39 677.97 531.72 677.85 525.45
  Q 677.84 524.95 678.13 524.54
  Q 680.48 521.34 683.49 520.22
  Q 692.56 516.84 703.78 516.24
  Q 704.92 516.17 706.71 516.53
  A 1.40 1.36 74.7 0 1 707.51 517.00
  C 711.05 521.17 713.76 525.96 709.51 530.80
  C 707.65 532.92 703.08 537.22 701.31 540.76
  Q 696.72 549.95 705.09 557.54
  Q 707.19 559.43 704.37 559.30
  Q 697.98 559.01 695.49 552.79
  Q 691.78 543.52 697.49 535.22
  A 2.42 1.94 -57.7 0 0 697.13 532.01
  Z"
/>
<path fill="#ffffff" d="
  M 761.86 534.53
  Q 761.34 534.88 760.77 535.76
  C 755.73 543.43 754.41 552.26 755.72 561.27
  Q 755.95 562.81 754.84 561.72
  C 747.92 554.88 749.14 543.96 752.86 535.62
  Q 754.19 532.64 758.11 528.61
  Q 762.81 523.77 764.33 522.33
  Q 766.91 519.87 767.82 517.52
  Q 768.01 517.03 768.49 517.24
  Q 784.11 523.92 802.66 525.77
  A 1.17 1.17 0.0 0 1 803.70 527.11
  Q 803.16 530.58 801.00 534.02
  C 799.14 536.99 793.87 538.47 790.61 539.58
  Q 789.99 539.79 789.04 540.89
  C 786.41 543.94 783.94 554.59 786.41 558.26
  Q 787.61 560.05 790.30 561.65
  A 0.71 0.71 0.0 0 1 790.15 562.93
  C 782.22 565.46 780.51 555.91 781.64 550.45
  Q 782.72 545.20 783.92 540.50
  A 1.36 1.35 -74.2 0 0 783.01 538.87
  Q 780.23 538.01 778.83 540.88
  Q 775.71 547.26 775.79 554.73
  C 775.82 557.78 776.89 560.94 778.11 563.65
  Q 778.32 564.11 777.81 564.09
  C 771.22 563.83 770.30 558.67 769.91 553.44
  C 769.51 548.05 772.56 542.54 771.39 537.47
  A 1.16 1.16 0.0 0 0 769.42 536.92
  Q 768.24 538.14 767.64 540.15
  C 765.24 548.13 763.91 555.96 766.45 563.37
  Q 766.97 564.90 765.51 564.21
  C 758.65 560.97 760.02 549.88 761.62 544.05
  Q 763.09 538.72 763.43 535.48
  A 1.02 1.01 76.1 0 0 761.86 534.53
  Z"
/>
<path fill="#ffffff" d="
  M 723.78 554.57
  C 719.75 547.36 720.95 540.62 725.39 533.95
  Q 734.72 532.67 744.23 533.99
  Q 744.74 534.06 744.54 534.54
  Q 740.40 544.54 743.13 555.29
  Q 743.26 555.80 742.74 555.81
  Q 733.12 556.08 723.78 554.57
  Z"
/>
<path fill="#9d9b9c" d="
  M 725.39 533.95
  C 720.95 540.62 719.75 547.36 723.78 554.57
  L 712.90 554.11
  A 1.78 1.77 74.0 0 1 711.52 553.34
  C 710.17 551.38 707.13 546.89 708.20 544.70
  Q 710.93 539.08 715.04 534.03
  Q 715.35 533.65 715.83 533.66
  L 725.39 533.95
  Z"
/>
<path fill="#ffffff" d="
  M 798.45 542.19
  C 799.63 541.60 801.18 540.24 802.76 539.95
  C 806.22 539.31 807.44 542.49 807.18 545.45
  Q 806.69 551.00 803.67 555.92
  C 802.53 557.76 800.30 557.53 797.89 557.80
  C 795.02 558.13 793.91 557.52 791.85 555.55
  C 789.86 553.64 791.42 549.25 792.18 546.68
  Q 792.80 544.56 793.71 544.22
  Q 796.55 543.13 798.45 542.19
  Z"
/>
<path fill="#9d9b9c" d="
  M 731.57 562.57
  C 732.02 569.75 731.83 576.63 733.62 583.62
  L 726.43 583.25
  Q 724.86 583.17 724.69 581.61
  Q 723.92 574.62 722.83 567.22
  C 722.64 565.92 722.17 564.77 721.62 563.61
  Q 721.36 563.04 721.98 563.01
  L 731.57 562.57
  Z"
/>
<path fill="#ffffff" d="
  M 733.62 583.62
  C 731.83 576.63 732.02 569.75 731.57 562.57
  L 744.30 562.94
  Q 744.66 562.95 744.70 563.31
  Q 745.54 571.97 744.90 582.30
  A 1.47 1.46 -87.9 0 1 743.43 583.67
  L 733.62 583.62
  Z"
/>
<path fill="#ffffff" d="
  M 730.24 589.69
  L 737.47 590.64
  A 0.75 0.75 0.0 0 1 738.12 591.42
  L 736.07 638.65
  A 0.75 0.75 0.0 0 1 735.15 639.35
  L 731.19 638.46
  A 0.75 0.75 0.0 0 1 730.61 637.75
  L 729.39 590.45
  A 0.75 0.75 0.0 0 1 730.24 589.69
  Z"
/>
<path fill="#ffffff" d="
  M 693.64 896.19
  C 695.32 881.04 721.02 894.70 723.53 877.26
  Q 725.15 866.07 725.32 855.04
  Q 725.67 831.53 724.13 791.03
  Q 722.62 751.28 722.00 735.02
  Q 721.30 716.72 722.74 687.70
  C 723.46 673.28 723.75 659.53 728.85 645.75
  Q 735.49 644.56 743.38 646.93
  C 745.74 647.63 746.96 648.26 747.52 650.65
  Q 748.28 653.90 748.50 655.80
  Q 749.85 667.67 749.97 682.26
  Q 750.27 720.14 748.75 760.73
  C 748.00 780.86 746.34 803.69 745.74 820.94
  Q 745.52 827.49 744.80 840.91
  Q 743.91 857.72 743.61 873.87
  C 743.54 877.97 743.28 880.94 747.05 882.51
  C 751.66 884.42 756.83 883.60 763.26 882.98
  Q 768.23 882.50 770.07 883.28
  C 773.62 884.78 776.05 888.70 777.62 892.73
  A 1.06 1.06 0.0 0 1 776.78 894.17
  C 759.28 896.66 746.91 896.58 723.00 897.47
  Q 712.83 897.85 693.64 896.19
  Z"
/>
<path fill="#9d9b9c" d="
  M 728.85 645.75
  C 723.75 659.53 723.46 673.28 722.74 687.70
  Q 721.30 716.72 722.00 735.02
  Q 722.62 751.28 724.13 791.03
  Q 725.67 831.53 725.32 855.04
  Q 725.15 866.07 723.53 877.26
  C 721.02 894.70 695.32 881.04 693.64 896.19
  L 689.83 895.45
  A 0.66 0.65 13.4 0 1 689.32 894.63
  C 690.89 889.07 694.68 883.66 701.07 883.16
  Q 708.21 882.61 715.41 881.31
  A 1.06 1.05 9.6 0 0 716.12 880.81
  Q 716.75 879.72 715.93 879.53
  L 717.58 874.22
  Q 719.02 866.34 719.03 858.25
  C 719.04 837.42 719.16 828.44 718.79 813.51
  Q 717.18 748.58 717.39 689.51
  Q 717.46 670.61 719.00 651.27
  Q 719.09 650.13 719.85 648.12
  Q 720.03 647.63 720.53 647.53
  L 728.85 645.75
  Z"
/>
<path fill="#ffffff" d="
  M 752.79 785.78
  Q 752.79 785.77 752.80 785.77
  L 753.04 785.73
  Q 753.15 785.71 753.16 785.85
  Q 755.72 813.29 758.61 840.71
  Q 759.08 845.18 760.71 853.03
  Q 761.58 857.21 763.78 859.64
  C 767.13 863.32 774.37 864.69 779.61 865.34
  A 0.93 0.93 0.0 0 1 780.41 866.39
  Q 779.12 875.13 779.79 883.20
  Q 779.88 884.24 779.18 883.47
  C 775.12 879.00 771.86 876.75 765.49 877.25
  Q 758.08 877.84 751.59 878.11
  A 2.58 2.57 -0.0 0 1 748.90 875.43
  L 752.79 785.78
  Z"
/>
</svg>
