<?xml version="1.0" encoding="UTF-8" standalone="no"?>
<!DOCTYPE svg PUBLIC "-//W3C//DTD SVG 1.1//EN" "http://www.w3.org/Graphics/SVG/1.1/DTD/svg11.dtd">
<svg xmlns="http://www.w3.org/2000/svg" version="1.1" viewBox="0.00 0.00 500.00 500.00">
<g stroke-width="2.00" fill="none" stroke-linecap="butt">
<path stroke="#80dfb1" vector-effect="non-scaling-stroke" d="
  M 21.10 249.64
  L 52.88 299.23
  A 1.68 1.66 -15.9 0 0 54.30 300.01
  L 71.69 300.01
  Q 72.15 300.01 72.15 299.55
  L 72.15 265.76
  Q 72.15 264.08 72.82 265.62
  Q 74.04 268.46 76.41 270.45
  Q 77.21 271.12 76.84 272.10
  C 75.41 275.87 76.75 279.89 76.08 283.39
  Q 75.96 284.01 76.53 284.30
  L 87.01 289.53
  Q 87.31 289.68 87.41 290.01
  Q 88.53 293.68 91.32 297.59
  A 1.44 1.39 22.2 0 1 91.54 298.09
  Q 91.72 299.04 92.18 299.72
  A 0.79 0.78 -23.2 0 0 93.02 300.05
  Q 96.09 299.36 99.50 300.27
  Q 100.31 300.49 104.77 299.42
  Q 105.27 299.30 105.64 299.66
  C 107.22 301.18 108.51 302.33 110.57 303.23
  Q 112.97 304.29 115.23 305.86
  Q 115.66 306.15 116.11 305.91
  C 119.48 304.15 124.11 301.96 126.29 299.42
  Q 126.63 299.01 127.14 299.18
  Q 131.06 300.47 135.47 299.50
  Q 137.20 299.13 138.48 299.92
  Q 138.92 300.19 139.34 299.88
  Q 139.81 299.53 139.85 298.77
  Q 139.88 298.26 140.17 297.85
  Q 143.49 293.14 144.61 289.31
  A 0.92 0.91 -86.8 0 1 145.32 288.67
  Q 148.61 288.06 151.48 285.59
  C 152.29 284.89 153.89 284.19 155.01 283.93
  A 0.58 0.57 -9.3 0 0 155.47 283.30
  C 155.15 280.42 156.18 275.57 154.96 272.05
  Q 154.67 271.22 155.17 270.50
  L 159.58 264.06
  Q 160.03 263.39 160.13 264.20
  C 161.94 280.18 174.21 293.44 188.93 298.80
  C 201.98 303.55 218.93 302.16 230.62 294.39
  A 0.76 0.75 59.8 0 0 230.87 293.42
  L 223.43 278.47
  Q 223.26 278.14 222.94 278.33
  Q 211.45 285.27 198.58 282.10
  C 184.29 278.59 176.11 263.41 182.16 249.65
  C 189.09 233.89 208.91 231.41 222.84 239.67
  Q 223.26 239.92 223.48 239.48
  L 230.89 224.64
  Q 231.14 224.15 230.71 223.81
  Q 227.15 221.01 221.56 219.22
  Q 203.22 213.37 187.15 220.08
  C 171.89 226.45 161.73 239.38 159.87 256.07
  Q 159.81 256.59 159.51 256.16
  L 154.99 249.61
  Q 154.45 248.83 154.76 247.94
  C 155.96 244.42 154.76 240.18 155.36 237.26
  Q 155.45 236.78 155.06 236.50
  C 154.23 235.90 152.83 235.61 151.98 234.98
  Q 148.37 232.30 144.81 231.38
  A 0.83 0.81 -4.9 0 1 144.30 230.96
  L 139.34 220.99
  Q 139.07 220.46 138.48 220.48
  L 126.78 220.92
  Q 126.40 220.93 126.08 220.73
  L 116.34 214.67
  Q 115.81 214.34 115.29 214.68
  C 111.66 217.08 107.98 217.83 105.06 221.36
  Q 104.76 221.73 104.30 221.58
  Q 101.12 220.54 98.55 220.79
  Q 94.51 221.18 92.54 220.70
  Q 92.05 220.58 91.85 221.04
  C 90.35 224.47 88.04 227.36 86.74 231.30
  Q 86.58 231.80 86.11 232.04
  L 77.60 236.27
  Q 77.18 236.48 76.71 236.48
  L 76.45 236.48
  Q 75.71 236.48 75.86 237.21
  Q 76.41 239.90 75.81 244.50
  Q 75.65 245.72 76.73 249.39
  A 0.52 0.52 0.0 0 1 76.57 249.94
  Q 73.98 252.17 72.50 255.67
  A 0.19 0.19 0.0 0 1 72.14 255.60
  L 72.14 218.59
  Q 72.14 218.04 71.59 218.04
  L 53.94 218.04
  Q 53.37 218.04 53.37 218.61
  L 53.37 268.19
  Q 53.37 269.06 52.90 268.32
  L 21.01 218.55
  A 1.12 1.10 73.3 0 0 20.08 218.04
  L 2.44 218.04
  A 0.53 0.53 0.0 0 0 1.91 218.57
  L 1.91 299.58
  A 0.42 0.42 0.0 0 0 2.33 300.00
  L 20.22 300.00
  Q 20.68 300.00 20.68 299.54
  L 20.68 249.76
  Q 20.68 248.98 21.10 249.64"
/>
<path stroke="#80dfb1" vector-effect="non-scaling-stroke" d="
  M 442.17 266.25
  C 437.82 254.45 426.41 247.76 414.02 247.54
  Q 394.59 247.21 385.06 262.40
  Q 384.80 262.82 384.58 262.37
  C 379.26 251.53 369.50 246.13 357.70 247.80
  Q 350.70 248.78 345.50 253.44
  A 0.25 0.25 0.0 0 1 345.08 253.25
  L 345.08 214.91
  A 0.41 0.40 90.0 0 0 344.68 214.50
  L 328.00 214.50
  Q 327.39 214.50 327.39 215.11
  L 327.39 248.00
  Q 327.39 248.46 326.95 248.35
  Q 313.69 245.15 305.76 255.67
  Q 305.09 256.55 305.09 255.45
  L 305.09 249.42
  Q 305.09 249.03 304.69 249.03
  L 287.95 249.03
  Q 287.39 249.03 287.39 249.59
  L 287.39 299.38
  A 0.63 0.63 0.0 0 0 288.02 300.01
  L 304.65 300.01
  A 0.48 0.48 0.0 0 0 305.13 299.53
  Q 305.09 295.09 305.06 277.10
  Q 305.06 271.02 306.49 268.16
  C 309.86 261.45 318.46 261.83 324.25 265.37
  Q 324.65 265.61 324.86 265.19
  L 327.36 260.20
  Q 327.39 260.13 327.39 260.20
  L 327.39 299.44
  A 0.56 0.56 0.0 0 0 327.95 300.00
  L 344.55 300.00
  Q 344.87 300.00 344.87 299.69
  L 344.87 294.96
  Q 344.87 294.09 345.47 294.72
  C 350.11 299.64 356.39 301.86 363.09 301.48
  Q 377.54 300.68 384.48 286.96
  Q 384.77 286.40 385.09 286.94
  Q 390.46 295.98 399.77 299.32
  C 415.51 304.96 436.60 300.17 442.35 282.40
  Q 442.35 282.38 442.34 282.37
  Q 438.14 279.92 442.38 282.39
  Q 442.40 282.40 442.40 282.42
  L 442.40 299.42
  Q 442.40 300.00 442.98 300.00
  L 459.51 300.00
  Q 460.09 300.00 460.09 299.42
  Q 460.07 287.15 460.09 273.60
  Q 460.10 269.28 461.00 267.48
  C 463.07 263.35 467.74 260.56 472.46 261.54
  C 476.76 262.45 479.54 266.79 479.55 271.00
  Q 479.55 280.02 479.56 299.52
  Q 479.56 300.01 480.05 300.01
  L 496.91 300.01
  A 0.39 0.39 0.0 0 0 497.30 299.62
  Q 497.21 276.28 497.37 268.78
  Q 497.62 256.39 489.17 251.43
  C 479.98 246.02 468.95 245.71 460.90 253.82
  Q 460.08 254.66 460.08 253.48
  L 460.08 249.67
  Q 460.08 249.03 459.43 249.03
  L 442.96 249.03
  Q 442.39 249.03 442.39 249.59
  L 442.39 266.21
  Q 442.39 266.86 442.17 266.25"
/>
<path stroke="#80dfb1" vector-effect="non-scaling-stroke" d="
  M 267.45 295.01
  L 267.42 299.46
  Q 267.42 300.00 267.96 300.00
  L 284.29 300.00
  A 0.62 0.61 0.0 0 0 284.91 299.39
  L 284.91 249.59
  Q 284.91 249.03 284.35 249.03
  L 267.74 249.03
  Q 267.29 249.03 267.29 249.49
  L 267.29 252.83
  Q 267.29 253.87 266.51 253.18
  C 257.90 245.47 243.74 245.83 235.23 252.76
  C 214.81 269.36 227.25 306.06 255.62 301.02
  C 258.57 300.49 262.41 298.77 264.32 297.09
  L 266.94 294.79
  Q 267.45 294.54 267.45 295.01"
/>
<path stroke="#80dfb1" vector-effect="non-scaling-stroke" d="
  M 116.33 226.40
  Q 117.94 227.98 119.69 228.64
  Q 120.16 228.81 120.28 228.33
  Q 121.19 224.70 124.28 222.26
  Q 124.64 221.98 124.34 221.64
  C 122.23 219.23 118.45 217.80 116.03 216.18
  A 0.84 0.83 -44.2 0 0 115.12 216.17
  L 107.05 221.34
  Q 105.96 222.04 106.97 222.84
  Q 109.61 224.94 110.06 228.61
  A 0.45 0.44 77.2 0 0 110.64 228.98
  Q 113.40 228.11 115.28 226.38
  A 0.76 0.75 45.8 0 1 116.33 226.40"
/>
<path stroke="#80dfb1" vector-effect="non-scaling-stroke" d="
  M 131.79 230.01
  Q 131.92 229.99 131.97 230.10
  Q 133.32 233.48 134.39 234.50
  Q 134.76 234.85 135.13 234.50
  Q 138.37 231.47 141.70 231.29
  Q 142.89 231.23 142.36 230.16
  L 138.92 223.26
  Q 138.21 221.82 136.63 222.13
  Q 135.03 222.44 131.25 221.91
  Q 130.37 221.78 127.61 222.52
  Q 127.04 222.67 127.28 223.21
  Q 128.57 226.08 127.20 229.74
  Q 127.01 230.27 127.56 230.35
  Q 129.11 230.58 131.79 230.01"
/>
<path stroke="#80dfb1" vector-effect="non-scaling-stroke" d="
  M 97.46 231.35
  A 0.73 0.72 -74.0 0 1 98.34 230.85
  Q 100.73 231.46 103.48 230.94
  A 0.43 0.43 0.0 0 0 103.80 230.36
  Q 102.51 227.04 103.80 224.04
  Q 104.29 222.90 103.04 222.80
  L 93.82 222.09
  A 0.81 0.81 0.0 0 0 93.05 222.51
  C 91.73 225.00 89.16 227.94 88.47 230.95
  Q 88.37 231.38 88.80 231.45
  Q 92.55 232.12 94.98 234.79
  Q 95.30 235.14 95.62 234.79
  Q 96.81 233.42 97.46 231.35"
/>
<path stroke="#80dfb1" vector-effect="non-scaling-stroke" d="
  M 125.93 223.62
  A 0.39 0.39 0.0 0 0 125.35 223.41
  Q 122.44 225.31 121.73 229.10
  A 0.79 0.78 -71.8 0 0 122.15 229.95
  Q 123.33 230.53 124.67 230.30
  A 1.03 1.01 -80.1 0 0 125.40 229.78
  Q 127.00 226.92 125.93 223.62"
/>
<path stroke="#80dfb1" vector-effect="non-scaling-stroke" d="
  M 105.92 230.86
  L 107.97 230.48
  A 0.76 0.76 0.0 0 0 108.58 229.60
  L 108.40 228.67
  A 5.26 1.75 79.5 0 0 105.72 223.82
  L 105.63 223.84
  A 5.26 1.75 79.5 0 0 104.86 229.33
  L 105.04 230.25
  A 0.76 0.76 0.0 0 0 105.92 230.86"
/>
<path stroke="#80dfb1" vector-effect="non-scaling-stroke" d="
  M 110.19 231.56
  C 112.35 232.15 112.97 233.17 114.43 234.61
  Q 114.85 235.02 115.12 234.51
  Q 116.49 232.02 120.30 230.75
  A 0.17 0.17 0.0 0 0 120.32 230.44
  L 115.56 228.06
  Q 115.40 227.99 115.26 228.07
  L 110.11 230.88
  Q 109.30 231.32 110.19 231.56"
/>
<path stroke="#80dfb1" vector-effect="non-scaling-stroke" d="
  M 115.70 237.64
  L 125.70 240.28
  A 0.22 0.22 0.0 0 0 125.97 240.13
  L 126.01 239.96
  A 6.71 5.26 -75.2 0 0 122.64 232.13
  L 122.39 232.06
  A 6.71 5.26 -75.2 0 0 115.59 237.21
  L 115.55 237.37
  A 0.22 0.22 0.0 0 0 115.70 237.64"
/>
<path stroke="#80dfb1" vector-effect="non-scaling-stroke" d="
  M 133.70 237.20
  Q 134.60 237.38 134.07 236.63
  L 130.72 231.84
  Q 130.63 231.71 130.46 231.70
  L 125.15 231.71
  A 0.17 0.17 0.0 0 0 125.04 232.00
  Q 127.87 234.82 128.00 237.65
  Q 128.01 238.22 128.57 238.04
  C 130.51 237.41 131.51 236.77 133.70 237.20"
/>
<path stroke="#80dfb1" vector-effect="non-scaling-stroke" d="
  M 104.94 233.03
  Q 105.55 232.36 104.64 232.42
  L 98.84 232.80
  Q 98.68 232.81 98.59 232.95
  L 95.87 237.47
  A 0.17 0.17 0.0 0 0 96.05 237.72
  Q 99.91 236.76 102.38 238.11
  Q 102.88 238.40 103.01 237.83
  C 103.47 235.85 103.44 234.67 104.94 233.03"
/>
<path stroke="#80dfb1" vector-effect="non-scaling-stroke" d="
  M 105.09 240.19
  L 113.71 237.70
  A 0.22 0.22 0.0 0 0 113.86 237.43
  L 113.83 237.32
  A 6.01 4.68 73.9 0 0 107.67 232.85
  L 107.61 232.86
  A 6.01 4.68 73.9 0 0 104.78 239.93
  L 104.81 240.04
  A 0.22 0.22 0.0 0 0 105.09 240.19"
/>
<path stroke="#80dfb1" vector-effect="non-scaling-stroke" d="
  M 136.04 237.07
  L 137.74 239.04
  A 1.09 1.09 0.0 0 0 139.28 239.15
  L 139.91 238.60
  A 5.93 2.27 -40.9 0 0 142.91 233.00
  L 142.75 232.82
  A 5.93 2.27 -40.9 0 0 136.78 234.98
  L 136.15 235.53
  A 1.09 1.09 0.0 0 0 136.04 237.07"
/>
<path stroke="#80dfb1" vector-effect="non-scaling-stroke" d="
  M 144.49 242.47
  A 0.64 0.63 -83.1 0 1 144.97 243.09
  L 144.97 247.77
  Q 144.97 248.45 145.62 248.26
  Q 149.29 247.17 152.29 248.31
  Q 153.71 248.84 153.71 247.32
  L 153.71 238.90
  Q 153.71 237.69 152.67 237.09
  L 145.80 233.13
  Q 144.45 232.34 144.39 233.91
  Q 144.26 237.26 140.88 240.05
  Q 140.44 240.41 140.89 240.75
  Q 142.64 242.03 144.49 242.47"
/>
<path stroke="#80dfb1" vector-effect="non-scaling-stroke" d="
  M 91.99 239.69
  L 94.31 237.64
  A 0.91 0.91 0.0 0 0 94.39 236.35
  L 94.12 236.05
  A 6.05 2.35 48.5 0 0 88.35 233.08
  L 88.19 233.23
  A 6.05 2.35 48.5 0 0 90.44 239.32
  L 90.70 239.61
  A 0.91 0.91 0.0 0 0 91.99 239.69"
/>
<path stroke="#80dfb1" vector-effect="non-scaling-stroke" d="
  M 86.04 243.75
  A 0.91 0.90 -21.5 0 1 86.45 242.82
  L 89.55 240.83
  Q 89.89 240.62 89.58 240.35
  Q 86.51 237.63 86.49 233.76
  Q 86.49 232.89 85.74 233.33
  L 78.45 237.63
  Q 77.50 238.19 77.50 239.30
  L 77.50 247.70
  Q 77.50 249.33 78.98 248.65
  Q 81.92 247.30 85.37 248.92
  Q 85.85 249.14 85.95 248.63
  Q 86.45 246.05 86.04 243.75"
/>
<path stroke="#80dfb1" vector-effect="non-scaling-stroke" d="
  M 127.37 241.36
  L 133.59 247.61
  A 0.28 0.28 0.0 0 0 133.99 247.61
  L 134.29 247.31
  A 6.22 4.57 -44.9 0 0 135.47 239.68
  L 135.30 239.51
  A 6.22 4.57 -44.9 0 0 127.66 240.67
  L 127.37 240.96
  A 0.28 0.28 0.0 0 0 127.37 241.36"
/>
<path stroke="#80dfb1" vector-effect="non-scaling-stroke" d="
  M 95.99 248.45
  L 103.24 241.04
  A 0.22 0.22 0.0 0 0 103.23 240.73
  L 103.17 240.67
  A 6.25 5.26 44.4 0 0 95.02 240.06
  L 94.83 240.26
  A 6.25 5.26 44.4 0 0 95.61 248.39
  L 95.68 248.45
  A 0.22 0.22 0.0 0 0 95.99 248.45"
/>
<path stroke="#80dfb1" vector-effect="non-scaling-stroke" d="
  M 137.63 241.10
  C 138.20 243.28 137.62 244.33 137.10 246.33
  Q 136.96 246.90 137.54 246.88
  Q 140.39 246.82 143.41 249.49
  A 0.17 0.17 0.0 0 0 143.69 249.35
  L 143.37 244.02
  Q 143.35 243.84 143.21 243.76
  L 138.18 240.69
  Q 137.39 240.21 137.63 241.10"
/>
<path stroke="#80dfb1" vector-effect="non-scaling-stroke" d="
  M 88.08 250.52
  C 89.69 248.94 90.90 248.92 92.90 248.37
  Q 93.47 248.22 93.16 247.72
  Q 91.68 245.26 92.51 241.29
  A 0.17 0.17 0.0 0 0 92.25 241.12
  L 87.76 244.06
  Q 87.62 244.16 87.62 244.33
  L 87.45 250.25
  Q 87.42 251.18 88.08 250.52"
/>
<path stroke="#80dfb1" vector-effect="non-scaling-stroke" d="
  M 134.73 249.24
  L 137.46 259.09
  A 0.21 0.21 0.0 0 0 137.72 259.24
  L 138.10 259.13
  A 6.79 5.16 -15.5 0 0 143.27 252.35
  L 143.18 252.04
  A 6.79 5.16 -15.5 0 0 135.26 248.88
  L 134.88 248.99
  A 0.21 0.21 0.0 0 0 134.73 249.24"
/>
<path stroke="#80dfb1" vector-effect="non-scaling-stroke" d="
  M 152.06 250.49
  A 0.37 0.36 33.3 0 0 151.95 249.92
  Q 148.97 248.52 145.57 249.82
  A 0.75 0.74 -13.4 0 0 145.09 250.58
  Q 145.21 251.82 146.06 252.79
  A 0.97 0.96 -21.7 0 0 146.84 253.12
  Q 149.93 252.99 152.06 250.49"
/>
<path stroke="#80dfb1" vector-effect="non-scaling-stroke" d="
  M 85.40 253.81
  L 86.17 251.72
  A 0.81 0.81 0.0 0 0 85.69 250.68
  L 84.69 250.32
  A 5.17 1.86 20.2 0 0 79.20 250.28
  L 79.16 250.39
  A 5.17 1.86 20.2 0 0 83.37 253.92
  L 84.36 254.29
  A 0.81 0.81 0.0 0 0 85.40 253.81"
/>
<path stroke="#80dfb1" vector-effect="non-scaling-stroke" d="
  M 92.85 259.10
  L 95.01 250.63
  A 0.21 0.21 0.0 0 0 94.86 250.38
  L 94.78 250.36
  A 5.93 4.50 14.3 0 0 87.93 253.25
  L 87.89 253.41
  A 5.93 4.50 14.3 0 0 92.52 259.23
  L 92.60 259.25
  A 0.21 0.21 0.0 0 0 92.85 259.10"
/>
<path stroke="#80dfb1" vector-effect="non-scaling-stroke" d="
  M 149.63 259.76
  Q 147.90 261.76 146.93 264.23
  Q 146.74 264.72 147.26 264.83
  Q 151.23 265.71 153.40 268.68
  Q 154.28 269.89 155.03 268.59
  L 159.38 261.04
  Q 159.65 260.59 159.46 260.10
  Q 157.53 255.08 154.62 251.47
  A 0.89 0.89 0.0 0 0 153.23 251.48
  Q 151.26 253.95 147.60 254.71
  Q 147.06 254.82 147.28 255.33
  Q 148.14 257.37 149.58 258.73
  A 0.75 0.75 0.0 0 1 149.63 259.76"
/>
<path stroke="#80dfb1" vector-effect="non-scaling-stroke" d="
  M 81.72 260.78
  Q 83.42 258.77 84.36 256.30
  Q 84.54 255.81 84.03 255.71
  Q 80.06 254.88 77.87 251.95
  Q 76.98 250.75 76.25 252.05
  L 72.00 259.62
  Q 71.74 260.07 71.94 260.55
  Q 73.91 265.53 76.85 269.09
  A 0.89 0.89 0.0 0 0 78.23 269.06
  Q 80.16 266.58 83.80 265.79
  Q 84.34 265.67 84.11 265.17
  Q 83.23 263.15 81.78 261.81
  A 0.75 0.75 0.0 0 1 81.72 260.78"
/>
<path stroke="#80dfb1" vector-effect="non-scaling-stroke" d="
  M 144.36 264.48
  Q 144.64 265.37 145.05 264.53
  L 147.66 259.21
  Q 147.74 259.07 147.66 258.91
  L 145.05 254.20
  A 0.17 0.17 0.0 0 0 144.74 254.24
  Q 143.62 258.14 141.16 259.63
  Q 140.66 259.93 141.09 260.33
  C 142.61 261.75 143.67 262.33 144.36 264.48"
/>
<path stroke="#80dfb1" vector-effect="non-scaling-stroke" d="
  M 86.81 255.77
  Q 86.53 254.89 86.12 255.71
  L 83.52 260.97
  Q 83.45 261.12 83.52 261.27
  L 86.09 265.93
  A 0.17 0.17 0.0 0 0 86.40 265.90
  Q 87.52 262.04 89.95 260.58
  Q 90.45 260.29 90.02 259.88
  C 88.53 258.48 87.48 257.90 86.81 255.77"
/>
<path stroke="#80dfb1" vector-effect="non-scaling-stroke" d="
  M 137.39 261.26
  L 135.41 269.38
  A 0.45 0.45 0.0 0 0 135.74 269.92
  L 136.07 270.00
  A 6.25 4.55 13.7 0 0 143.22 267.06
  L 143.26 266.91
  A 6.25 4.55 13.7 0 0 138.26 261.01
  L 137.93 260.92
  A 0.45 0.45 0.0 0 0 137.39 261.26"
/>
<path stroke="#80dfb1" vector-effect="non-scaling-stroke" d="
  M 95.71 271.35
  L 92.78 261.41
  A 0.18 0.18 0.0 0 0 92.56 261.29
  L 92.50 261.31
  A 6.34 5.29 -16.4 0 0 87.91 268.17
  L 87.95 268.31
  A 6.34 5.29 -16.4 0 0 95.53 271.59
  L 95.59 271.57
  A 0.18 0.18 0.0 0 0 95.71 271.35"
/>
<path stroke="#80dfb1" vector-effect="non-scaling-stroke" d="
  M 145.73 266.63
  L 144.92 269.02
  A 0.68 0.68 0.0 0 0 145.35 269.88
  L 145.82 270.04
  A 6.31 1.86 18.6 0 0 152.39 270.29
  L 152.44 270.14
  A 6.31 1.86 18.6 0 0 147.05 266.36
  L 146.59 266.21
  A 0.68 0.68 0.0 0 0 145.73 266.63"
/>
<path stroke="#80dfb1" vector-effect="non-scaling-stroke" d="
  M 86.07 270.18
  L 85.66 267.94
  A 0.68 0.68 0.0 0 0 84.86 267.40
  L 84.48 267.47
  A 5.59 1.77 -10.5 0 0 79.31 270.23
  L 79.32 270.33
  A 5.59 1.77 -10.5 0 0 85.14 271.05
  L 85.53 270.98
  A 0.68 0.68 0.0 0 0 86.07 270.18"
/>
<path stroke="#80dfb1" vector-effect="non-scaling-stroke" d="
  M 143.13 269.86
  C 141.50 271.41 140.31 271.41 138.31 271.92
  Q 137.74 272.07 138.04 272.56
  Q 139.47 275.03 138.58 278.96
  A 0.17 0.17 0.0 0 0 138.84 279.14
  L 143.35 276.29
  Q 143.49 276.19 143.50 276.03
  L 143.76 270.15
  Q 143.80 269.22 143.13 269.86"
/>
<path stroke="#80dfb1" vector-effect="non-scaling-stroke" d="
  M 93.55 279.15
  C 92.98 276.97 93.56 275.93 94.08 273.94
  Q 94.23 273.37 93.65 273.39
  Q 90.80 273.44 87.79 270.76
  A 0.17 0.17 0.0 0 0 87.51 270.90
  L 87.82 276.23
  Q 87.84 276.40 87.98 276.48
  L 92.99 279.56
  Q 93.78 280.04 93.55 279.15"
/>
<path stroke="#80dfb1" vector-effect="non-scaling-stroke" d="
  M 134.57 271.12
  L 127.44 278.80
  A 0.27 0.27 0.0 0 0 127.45 279.18
  L 127.71 279.42
  A 6.82 5.40 42.9 0 0 136.38 280.10
  L 136.53 279.94
  A 6.82 5.40 42.9 0 0 135.21 271.34
  L 134.95 271.11
  A 0.27 0.27 0.0 0 0 134.57 271.12"
/>
<path stroke="#80dfb1" vector-effect="non-scaling-stroke" d="
  M 144.65 277.73
  Q 142.80 278.15 141.65 279.08
  Q 141.23 279.42 141.61 279.81
  Q 144.56 282.87 144.76 286.29
  A 1.09 1.09 0.0 0 0 146.43 287.15
  L 153.59 282.56
  Q 153.91 282.36 153.91 281.98
  L 153.91 273.25
  Q 153.91 271.17 152.03 272.04
  Q 149.49 273.21 145.27 271.60
  A 0.18 0.18 0.0 0 0 145.03 271.77
  L 145.03 277.27
  Q 145.03 277.65 144.65 277.73"
/>
<path stroke="#80dfb1" vector-effect="non-scaling-stroke" d="
  M 86.12 277.52
  A 0.73 0.73 0.0 0 1 85.69 276.62
  Q 86.28 274.80 86.06 272.68
  Q 86.01 272.14 85.50 272.30
  Q 82.05 273.35 79.23 272.17
  A 0.86 0.86 0.0 0 0 78.05 272.80
  Q 77.26 277.21 77.95 282.36
  Q 78.01 282.86 78.45 283.12
  L 85.63 287.51
  Q 86.87 288.26 87.06 286.83
  Q 87.52 283.30 90.48 280.72
  Q 90.87 280.39 90.48 280.06
  Q 88.51 278.41 86.12 277.52"
/>
<path stroke="#80dfb1" vector-effect="non-scaling-stroke" d="
  M 103.39 278.99
  L 97.02 273.09
  A 0.27 0.27 0.0 0 0 96.64 273.11
  L 96.54 273.22
  A 5.96 4.59 -47.2 0 0 95.86 280.71
  L 95.89 280.73
  A 5.96 4.59 -47.2 0 0 103.30 279.48
  L 103.41 279.37
  A 0.27 0.27 0.0 0 0 103.39 278.99"
/>
<path stroke="#80dfb1" vector-effect="non-scaling-stroke" d="
  M 125.81 279.61
  L 117.31 282.38
  A 0.27 0.27 0.0 0 0 117.14 282.72
  L 117.26 283.08
  A 6.13 4.65 72.0 0 0 123.57 287.47
  L 123.74 287.42
  A 6.13 4.65 72.0 0 0 126.27 280.15
  L 126.15 279.79
  A 0.27 0.27 0.0 0 0 125.81 279.61"
/>
<path stroke="#80dfb1" vector-effect="non-scaling-stroke" d="
  M 115.53 282.63
  L 105.35 280.13
  A 0.21 0.21 0.0 0 0 105.10 280.28
  L 105.08 280.35
  A 6.68 5.36 -76.2 0 0 108.69 288.12
  L 108.87 288.16
  A 6.68 5.36 -76.2 0 0 115.67 282.95
  L 115.68 282.88
  A 0.21 0.21 0.0 0 0 115.53 282.63"
/>
<path stroke="#80dfb1" vector-effect="non-scaling-stroke" d="
  M 139.11 280.65
  L 136.82 282.68
  A 0.89 0.89 0.0 0 0 136.74 283.93
  L 137.11 284.35
  A 6.21 2.32 48.5 0 0 142.96 287.46
  L 143.11 287.33
  A 6.21 2.32 48.5 0 0 140.74 281.14
  L 140.36 280.72
  A 0.89 0.89 0.0 0 0 139.11 280.65"
/>
<path stroke="#80dfb1" vector-effect="non-scaling-stroke" d="
  M 95.51 284.03
  Q 95.25 282.22 93.13 281.51
  Q 92.61 281.33 92.12 281.58
  Q 89.44 282.95 88.35 286.79
  A 0.95 0.95 0.0 0 0 89.37 288.00
  Q 92.90 287.59 95.25 284.89
  Q 95.58 284.52 95.51 284.03"
/>
<path stroke="#80dfb1" vector-effect="non-scaling-stroke" d="
  M 97.38 282.95
  Q 96.48 282.75 96.99 283.51
  L 100.22 288.37
  Q 100.31 288.50 100.48 288.51
  L 105.77 288.62
  A 0.17 0.17 0.0 0 0 105.90 288.34
  Q 103.13 285.46 103.08 282.64
  Q 103.08 282.06 102.52 282.23
  C 100.57 282.82 99.55 283.43 97.38 282.95"
/>
<path stroke="#80dfb1" vector-effect="non-scaling-stroke" d="
  M 126.20 287.25
  Q 125.58 287.91 126.49 287.86
  L 132.29 287.54
  Q 132.44 287.53 132.54 287.39
  L 135.30 282.90
  A 0.17 0.17 0.0 0 0 135.13 282.65
  Q 131.26 283.57 128.81 282.19
  Q 128.31 281.90 128.17 282.47
  C 127.70 284.44 127.71 285.62 126.20 287.25"
/>
<path stroke="#80dfb1" vector-effect="non-scaling-stroke" d="
  M 133.61 288.96
  A 0.64 0.64 0.0 0 1 132.98 289.44
  L 128.28 289.36
  Q 127.60 289.35 127.78 290.01
  Q 128.82 293.71 127.62 296.71
  Q 127.07 298.13 128.60 298.16
  L 137.06 298.28
  Q 138.28 298.30 138.90 297.27
  L 142.98 290.42
  Q 143.80 289.08 142.22 288.99
  Q 138.85 288.81 136.10 285.37
  Q 135.75 284.92 135.40 285.37
  Q 134.09 287.11 133.61 288.96"
/>
<path stroke="#80dfb1" vector-effect="non-scaling-stroke" d="
  M 120.90 288.89
  C 118.79 288.31 118.19 287.30 116.77 285.89
  Q 116.36 285.48 116.09 285.98
  Q 114.74 288.41 111.00 289.64
  A 0.17 0.16 49.1 0 0 110.98 289.94
  L 115.63 292.30
  Q 115.78 292.37 115.92 292.29
  L 120.98 289.56
  Q 121.78 289.13 120.90 288.89"
/>
<path stroke="#80dfb1" vector-effect="non-scaling-stroke" d="
  M 99.63 290.52
  Q 99.50 290.54 99.44 290.43
  Q 98.03 287.07 96.94 286.07
  Q 96.57 285.72 96.20 286.08
  Q 93.01 289.17 89.68 289.41
  Q 88.49 289.49 89.04 290.55
  L 92.61 297.40
  Q 93.34 298.83 94.92 298.49
  Q 96.52 298.15 100.31 298.62
  Q 101.19 298.73 103.94 297.94
  Q 104.51 297.78 104.26 297.25
  Q 102.92 294.40 104.23 290.71
  Q 104.41 290.17 103.85 290.10
  Q 102.30 289.90 99.63 290.52"
/>
<path stroke="#80dfb1" vector-effect="non-scaling-stroke" d="
  M 125.27 289.42
  L 122.93 289.98
  A 0.74 0.74 0.0 0 0 122.39 290.88
  L 122.52 291.43
  A 5.91 1.78 76.4 0 0 125.64 296.76
  L 125.95 296.68
  A 5.91 1.78 76.4 0 0 126.29 290.52
  L 126.16 289.96
  A 0.74 0.74 0.0 0 0 125.27 289.42"
/>
<path stroke="#80dfb1" vector-effect="non-scaling-stroke" d="
  M 109.37 290.70
  L 106.89 289.81
  A 0.68 0.68 0.0 0 0 106.02 290.22
  L 105.76 290.96
  A 5.58 1.92 -70.4 0 0 105.69 296.86
  L 105.84 296.91
  A 5.58 1.92 -70.4 0 0 109.53 292.30
  L 109.79 291.57
  A 0.68 0.68 0.0 0 0 109.37 290.70"
/>
<path stroke="#80dfb1" vector-effect="non-scaling-stroke" d="
  M 115.02 294.18
  Q 113.42 292.62 111.68 291.97
  Q 111.21 291.80 111.09 292.28
  Q 110.20 295.89 107.15 298.33
  Q 106.79 298.61 107.09 298.94
  C 109.20 301.33 112.96 302.73 115.37 304.33
  A 0.83 0.83 0.0 0 0 116.27 304.33
  L 124.26 299.16
  Q 125.34 298.46 124.34 297.67
  Q 121.70 295.60 121.24 291.95
  A 0.45 0.44 76.9 0 0 120.66 291.59
  Q 117.92 292.47 116.07 294.19
  A 0.75 0.75 0.0 0 1 115.02 294.18"
/>
<path stroke="#80dfb1" vector-effect="non-scaling-stroke" d="
  M 368.48 274.56
  A 11.95 11.95 0.0 0 0 356.53 262.61
  A 11.95 11.95 0.0 0 0 344.58 274.56
  A 11.95 11.95 0.0 0 0 356.53 286.51
  A 11.95 11.95 0.0 0 0 368.48 274.56"
/>
<path stroke="#80dfb1" vector-effect="non-scaling-stroke" d="
  M 424.77 274.56
  A 11.95 11.95 0.0 0 0 412.82 262.61
  A 11.95 11.95 0.0 0 0 400.87 274.56
  A 11.95 11.95 0.0 0 0 412.82 286.51
  A 11.95 11.95 0.0 0 0 424.77 274.56"
/>
<path stroke="#80dfb1" vector-effect="non-scaling-stroke" d="
  M 115.10 219.32
  L 115.10 219.70
  Q 115.10 220.16 115.57 220.17
  Q 116.02 220.18 116.23 219.71
  Q 116.34 219.45 116.23 219.26
  Q 116.01 218.86 115.50 218.89
  Q 115.10 218.92 115.10 219.32"
/>
<path stroke="#80dfb1" vector-effect="non-scaling-stroke" d="
  M 115.5847 224.6156
  A 0.64 0.57 83.3 0 0 116.0761 223.9135
  A 0.64 0.57 83.3 0 0 115.4353 223.3444
  A 0.64 0.57 83.3 0 0 114.9439 224.0465
  A 0.64 0.57 83.3 0 0 115.5847 224.6156"
/>
<path stroke="#80dfb1" vector-effect="non-scaling-stroke" d="
  M 136.6306 225.0442
  A 0.71 0.62 23.6 0 0 136.2282 224.1919
  A 0.71 0.62 23.6 0 0 135.3294 224.4758
  A 0.71 0.62 23.6 0 0 135.7318 225.3281
  A 0.71 0.62 23.6 0 0 136.6306 225.0442"
/>
<path stroke="#80dfb1" vector-effect="non-scaling-stroke" d="
  M 132.9307 228.8404
  A 0.72 0.62 127.6 0 0 133.8612 228.6483
  A 0.72 0.62 127.6 0 0 133.8093 227.6996
  A 0.72 0.62 127.6 0 0 132.8788 227.8917
  A 0.72 0.62 127.6 0 0 132.9307 228.8404"
/>
<path stroke="#80dfb1" vector-effect="non-scaling-stroke" d="
  M 95.40 225.55
  A 0.66 0.66 0.0 0 0 94.74 224.89
  A 0.66 0.66 0.0 0 0 94.08 225.55
  A 0.66 0.66 0.0 0 0 94.74 226.21
  A 0.66 0.66 0.0 0 0 95.40 225.55"
/>
<path stroke="#80dfb1" vector-effect="non-scaling-stroke" d="
  M 96.67 228.95
  Q 96.23 229.23 96.28 229.56
  Q 96.34 230.09 96.86 229.96
  Q 97.30 229.85 97.57 229.54
  A 0.45 0.45 0.0 0 0 97.40 228.82
  Q 97.08 228.70 96.67 228.95"
/>
<path stroke="#80dfb1" vector-effect="non-scaling-stroke" d="
  M 150.41 239.17
  A 0.53 0.53 0.0 0 0 150.86 239.96
  Q 151.43 239.97 151.60 239.38
  A 0.42 0.41 17.5 0 0 151.33 238.87
  Q 150.70 238.66 150.41 239.17"
/>
<path stroke="#80dfb1" vector-effect="non-scaling-stroke" d="
  M 147.09 241.14
  Q 146.59 241.32 146.66 241.92
  Q 146.73 242.52 147.20 242.66
  A 0.55 0.54 -73.1 0 0 147.88 242.29
  Q 148.02 241.79 147.84 241.43
  Q 147.60 240.95 147.09 241.14"
/>
<path stroke="#80dfb1" vector-effect="non-scaling-stroke" d="
  M 79.73 239.72
  Q 79.84 240.10 80.03 240.35
  A 0.52 0.51 39.3 0 0 80.90 240.27
  Q 81.05 239.96 80.94 239.43
  Q 80.88 239.09 80.54 239.05
  Q 80.33 239.03 80.24 239.04
  Q 79.58 239.14 79.73 239.72"
/>
<path stroke="#80dfb1" vector-effect="non-scaling-stroke" d="
  M 83.75 241.51
  Q 83.48 242.10 83.80 242.67
  A 0.45 0.44 42.6 0 0 84.59 242.64
  Q 84.87 242.06 84.71 241.57
  A 0.52 0.52 0.0 0 0 83.75 241.51"
/>
<path stroke="#80dfb1" vector-effect="non-scaling-stroke" d="
  M 267.77 274.56
  A 11.95 11.95 0.0 0 0 255.82 262.61
  A 11.95 11.95 0.0 0 0 243.87 274.56
  A 11.95 11.95 0.0 0 0 255.82 286.51
  A 11.95 11.95 0.0 0 0 267.77 274.56"
/>
<path stroke="#80dfb1" vector-effect="non-scaling-stroke" d="
  M 152.11 258.97
  L 151.87 259.09
  Q 151.29 259.38 151.72 259.86
  Q 151.99 260.17 152.61 260.06
  Q 153.09 259.97 152.87 259.54
  L 152.69 259.16
  Q 152.50 258.78 152.11 258.97"
/>
<path stroke="#80dfb1" vector-effect="non-scaling-stroke" d="
  M 156.25 259.58
  Q 156.04 259.94 156.12 260.29
  A 0.46 0.45 71.7 0 0 156.75 260.61
  Q 157.15 260.43 157.25 260.00
  Q 157.33 259.63 156.98 259.40
  Q 156.52 259.11 156.25 259.58"
/>
<path stroke="#80dfb1" vector-effect="non-scaling-stroke" d="
  M 73.34 260.00
  Q 73.06 260.17 72.97 260.46
  Q 72.82 260.95 73.29 261.15
  Q 73.52 261.25 73.74 261.23
  Q 74.19 261.18 74.19 260.72
  Q 74.19 260.43 74.07 260.21
  A 0.53 0.52 -28.7 0 0 73.34 260.00"
/>
<path stroke="#80dfb1" vector-effect="non-scaling-stroke" d="
  M 77.61 260.57
  Q 77.41 261.13 77.78 261.56
  Q 78.14 261.99 78.46 261.53
  Q 78.70 261.18 78.61 260.65
  Q 78.55 260.24 78.14 260.23
  Q 77.97 260.22 77.80 260.31
  Q 77.67 260.37 77.61 260.57"
/>
<path stroke="#80dfb1" vector-effect="non-scaling-stroke" d="
  M 148.0177 279.5591
  A 0.75 0.58 80.2 0 0 148.4615 278.7213
  A 0.75 0.58 80.2 0 0 147.7623 278.0809
  A 0.75 0.58 80.2 0 0 147.3185 278.9187
  A 0.75 0.58 80.2 0 0 148.0177 279.5591"
/>
<path stroke="#80dfb1" vector-effect="non-scaling-stroke" d="
  M 151.28 280.53
  Q 150.93 281.31 151.43 281.69
  A 0.54 0.53 -68.2 0 0 152.28 281.32
  Q 152.33 280.86 151.95 280.42
  A 0.41 0.40 -53.8 0 0 151.28 280.53"
/>
<path stroke="#80dfb1" vector-effect="non-scaling-stroke" d="
  M 82.70 278.79
  Q 81.64 279.98 83.19 279.89
  Q 83.52 279.88 83.63 279.59
  Q 83.81 279.08 83.34 278.80
  Q 82.91 278.56 82.70 278.79"
/>
<path stroke="#80dfb1" vector-effect="non-scaling-stroke" d="
  M 78.72 281.60
  Q 78.62 282.08 79.12 282.54
  A 0.37 0.37 0.0 0 0 79.72 282.36
  Q 79.93 281.53 79.38 281.27
  A 0.47 0.47 0.0 0 0 78.72 281.60"
/>
<path stroke="#80dfb1" vector-effect="non-scaling-stroke" d="
  M 135.17 291.47
  A 0.63 0.63 0.0 0 0 134.54 290.84
  A 0.63 0.63 0.0 0 0 133.91 291.47
  A 0.63 0.63 0.0 0 0 134.54 292.10
  A 0.63 0.63 0.0 0 0 135.17 291.47"
/>
<path stroke="#80dfb1" vector-effect="non-scaling-stroke" d="
  M 136.13 294.99
  Q 135.93 295.56 136.73 295.86
  A 0.50 0.50 0.0 0 0 137.39 295.52
  Q 137.51 295.00 137.13 294.69
  A 0.64 0.63 -61.5 0 0 136.13 294.99"
/>
<path stroke="#80dfb1" vector-effect="non-scaling-stroke" d="
  M 97.87 293.04
  A 0.75 0.75 0.0 0 0 97.12 292.29
  A 0.75 0.75 0.0 0 0 96.37 293.04
  A 0.75 0.75 0.0 0 0 97.12 293.79
  A 0.75 0.75 0.0 0 0 97.87 293.04"
/>
<path stroke="#80dfb1" vector-effect="non-scaling-stroke" d="
  M 94.02 296.59
  Q 93.91 296.86 94.07 297.10
  Q 94.20 297.27 94.48 297.27
  Q 94.92 297.26 95.10 296.93
  A 0.48 0.46 -40.1 0 0 95.14 296.56
  Q 95.00 296.09 94.57 296.15
  A 0.70 0.67 -82.5 0 0 94.02 296.59"
/>
<path stroke="#80dfb1" vector-effect="non-scaling-stroke" d="
  M 115.22 296.21
  Q 115.04 296.52 115.09 296.71
  A 0.55 0.55 0.0 0 0 115.75 297.09
  Q 116.26 296.97 116.38 296.62
  A 0.45 0.45 0.0 0 0 116.15 296.08
  Q 115.48 295.76 115.22 296.21"
/>
<path stroke="#80dfb1" vector-effect="non-scaling-stroke" d="
  M 116.45 301.01
  A 0.65 0.65 0.0 0 0 115.80 300.36
  A 0.65 0.65 0.0 0 0 115.15 301.01
  A 0.65 0.65 0.0 0 0 115.80 301.66
  A 0.65 0.65 0.0 0 0 116.45 301.01"
/>
</g>
<path fill="#00bf63" d="
  M 500.00 0.00
  L 500.00 500.00
  L 0.00 500.00
  L 0.00 0.00
  L 500.00 0.00
  Z
  M 21.10 249.64
  L 52.88 299.23
  A 1.68 1.66 -15.9 0 0 54.30 300.01
  L 71.69 300.01
  Q 72.15 300.01 72.15 299.55
  L 72.15 265.76
  Q 72.15 264.08 72.82 265.62
  Q 74.04 268.46 76.41 270.45
  Q 77.21 271.12 76.84 272.10
  C 75.41 275.87 76.75 279.89 76.08 283.39
  Q 75.96 284.01 76.53 284.30
  L 87.01 289.53
  Q 87.31 289.68 87.41 290.01
  Q 88.53 293.68 91.32 297.59
  A 1.44 1.39 22.2 0 1 91.54 298.09
  Q 91.72 299.04 92.18 299.72
  A 0.79 0.78 -23.2 0 0 93.02 300.05
  Q 96.09 299.36 99.50 300.27
  Q 100.31 300.49 104.77 299.42
  Q 105.27 299.30 105.64 299.66
  C 107.22 301.18 108.51 302.33 110.57 303.23
  Q 112.97 304.29 115.23 305.86
  Q 115.66 306.15 116.11 305.91
  C 119.48 304.15 124.11 301.96 126.29 299.42
  Q 126.63 299.01 127.14 299.18
  Q 131.06 300.47 135.47 299.50
  Q 137.20 299.13 138.48 299.92
  Q 138.92 300.19 139.34 299.88
  Q 139.81 299.53 139.85 298.77
  Q 139.88 298.26 140.17 297.85
  Q 143.49 293.14 144.61 289.31
  A 0.92 0.91 -86.8 0 1 145.32 288.67
  Q 148.61 288.06 151.48 285.59
  C 152.29 284.89 153.89 284.19 155.01 283.93
  A 0.58 0.57 -9.3 0 0 155.47 283.30
  C 155.15 280.42 156.18 275.57 154.96 272.05
  Q 154.67 271.22 155.17 270.50
  L 159.58 264.06
  Q 160.03 263.39 160.13 264.20
  C 161.94 280.18 174.21 293.44 188.93 298.80
  C 201.98 303.55 218.93 302.16 230.62 294.39
  A 0.76 0.75 59.8 0 0 230.87 293.42
  L 223.43 278.47
  Q 223.26 278.14 222.94 278.33
  Q 211.45 285.27 198.58 282.10
  C 184.29 278.59 176.11 263.41 182.16 249.65
  C 189.09 233.89 208.91 231.41 222.84 239.67
  Q 223.26 239.92 223.48 239.48
  L 230.89 224.64
  Q 231.14 224.15 230.71 223.81
  Q 227.15 221.01 221.56 219.22
  Q 203.22 213.37 187.15 220.08
  C 171.89 226.45 161.73 239.38 159.87 256.07
  Q 159.81 256.59 159.51 256.16
  L 154.99 249.61
  Q 154.45 248.83 154.76 247.94
  C 155.96 244.42 154.76 240.18 155.36 237.26
  Q 155.45 236.78 155.06 236.50
  C 154.23 235.90 152.83 235.61 151.98 234.98
  Q 148.37 232.30 144.81 231.38
  A 0.83 0.81 -4.9 0 1 144.30 230.96
  L 139.34 220.99
  Q 139.07 220.46 138.48 220.48
  L 126.78 220.92
  Q 126.40 220.93 126.08 220.73
  L 116.34 214.67
  Q 115.81 214.34 115.29 214.68
  C 111.66 217.08 107.98 217.83 105.06 221.36
  Q 104.76 221.73 104.30 221.58
  Q 101.12 220.54 98.55 220.79
  Q 94.51 221.18 92.54 220.70
  Q 92.05 220.58 91.85 221.04
  C 90.35 224.47 88.04 227.36 86.74 231.30
  Q 86.58 231.80 86.11 232.04
  L 77.60 236.27
  Q 77.18 236.48 76.71 236.48
  L 76.45 236.48
  Q 75.71 236.48 75.86 237.21
  Q 76.41 239.90 75.81 244.50
  Q 75.65 245.72 76.73 249.39
  A 0.52 0.52 0.0 0 1 76.57 249.94
  Q 73.98 252.17 72.50 255.67
  A 0.19 0.19 0.0 0 1 72.14 255.60
  L 72.14 218.59
  Q 72.14 218.04 71.59 218.04
  L 53.94 218.04
  Q 53.37 218.04 53.37 218.61
  L 53.37 268.19
  Q 53.37 269.06 52.90 268.32
  L 21.01 218.55
  A 1.12 1.10 73.3 0 0 20.08 218.04
  L 2.44 218.04
  A 0.53 0.53 0.0 0 0 1.91 218.57
  L 1.91 299.58
  A 0.42 0.42 0.0 0 0 2.33 300.00
  L 20.22 300.00
  Q 20.68 300.00 20.68 299.54
  L 20.68 249.76
  Q 20.68 248.98 21.10 249.64
  Z
  M 442.17 266.25
  C 437.82 254.45 426.41 247.76 414.02 247.54
  Q 394.59 247.21 385.06 262.40
  Q 384.80 262.82 384.58 262.37
  C 379.26 251.53 369.50 246.13 357.70 247.80
  Q 350.70 248.78 345.50 253.44
  A 0.25 0.25 0.0 0 1 345.08 253.25
  L 345.08 214.91
  A 0.41 0.40 90.0 0 0 344.68 214.50
  L 328.00 214.50
  Q 327.39 214.50 327.39 215.11
  L 327.39 248.00
  Q 327.39 248.46 326.95 248.35
  Q 313.69 245.15 305.76 255.67
  Q 305.09 256.55 305.09 255.45
  L 305.09 249.42
  Q 305.09 249.03 304.69 249.03
  L 287.95 249.03
  Q 287.39 249.03 287.39 249.59
  L 287.39 299.38
  A 0.63 0.63 0.0 0 0 288.02 300.01
  L 304.65 300.01
  A 0.48 0.48 0.0 0 0 305.13 299.53
  Q 305.09 295.09 305.06 277.10
  Q 305.06 271.02 306.49 268.16
  C 309.86 261.45 318.46 261.83 324.25 265.37
  Q 324.65 265.61 324.86 265.19
  L 327.36 260.20
  Q 327.39 260.13 327.39 260.20
  L 327.39 299.44
  A 0.56 0.56 0.0 0 0 327.95 300.00
  L 344.55 300.00
  Q 344.87 300.00 344.87 299.69
  L 344.87 294.96
  Q 344.87 294.09 345.47 294.72
  C 350.11 299.64 356.39 301.86 363.09 301.48
  Q 377.54 300.68 384.48 286.96
  Q 384.77 286.40 385.09 286.94
  Q 390.46 295.98 399.77 299.32
  C 415.51 304.96 436.60 300.17 442.35 282.40
  Q 442.35 282.38 442.34 282.37
  Q 438.14 279.92 442.38 282.39
  Q 442.40 282.40 442.40 282.42
  L 442.40 299.42
  Q 442.40 300.00 442.98 300.00
  L 459.51 300.00
  Q 460.09 300.00 460.09 299.42
  Q 460.07 287.15 460.09 273.60
  Q 460.10 269.28 461.00 267.48
  C 463.07 263.35 467.74 260.56 472.46 261.54
  C 476.76 262.45 479.54 266.79 479.55 271.00
  Q 479.55 280.02 479.56 299.52
  Q 479.56 300.01 480.05 300.01
  L 496.91 300.01
  A 0.39 0.39 0.0 0 0 497.30 299.62
  Q 497.21 276.28 497.37 268.78
  Q 497.62 256.39 489.17 251.43
  C 479.98 246.02 468.95 245.71 460.90 253.82
  Q 460.08 254.66 460.08 253.48
  L 460.08 249.67
  Q 460.08 249.03 459.43 249.03
  L 442.96 249.03
  Q 442.39 249.03 442.39 249.59
  L 442.39 266.21
  Q 442.39 266.86 442.17 266.25
  Z
  M 267.45 295.01
  L 267.42 299.46
  Q 267.42 300.00 267.96 300.00
  L 284.29 300.00
  A 0.62 0.61 0.0 0 0 284.91 299.39
  L 284.91 249.59
  Q 284.91 249.03 284.35 249.03
  L 267.74 249.03
  Q 267.29 249.03 267.29 249.49
  L 267.29 252.83
  Q 267.29 253.87 266.51 253.18
  C 257.90 245.47 243.74 245.83 235.23 252.76
  C 214.81 269.36 227.25 306.06 255.62 301.02
  C 258.57 300.49 262.41 298.77 264.32 297.09
  L 266.94 294.79
  Q 267.45 294.54 267.45 295.01
  Z"
/>
<path fill="#ffffff" d="
  M 21.10 249.64
  Q 20.68 248.98 20.68 249.76
  L 20.68 299.54
  Q 20.68 300.00 20.22 300.00
  L 2.33 300.00
  A 0.42 0.42 0.0 0 1 1.91 299.58
  L 1.91 218.57
  A 0.53 0.53 0.0 0 1 2.44 218.04
  L 20.08 218.04
  A 1.12 1.10 73.3 0 1 21.01 218.55
  L 52.90 268.32
  Q 53.37 269.06 53.37 268.19
  L 53.37 218.61
  Q 53.37 218.04 53.94 218.04
  L 71.59 218.04
  Q 72.14 218.04 72.14 218.59
  L 72.14 255.60
  A 0.19 0.19 0.0 0 0 72.50 255.67
  Q 73.98 252.17 76.57 249.94
  A 0.52 0.52 0.0 0 0 76.73 249.39
  Q 75.65 245.72 75.81 244.50
  Q 76.41 239.90 75.86 237.21
  Q 75.71 236.48 76.45 236.48
  L 76.71 236.48
  Q 77.18 236.48 77.60 236.27
  L 86.11 232.04
  Q 86.58 231.80 86.74 231.30
  C 88.04 227.36 90.35 224.47 91.85 221.04
  Q 92.05 220.58 92.54 220.70
  Q 94.51 221.18 98.55 220.79
  Q 101.12 220.54 104.30 221.58
  Q 104.76 221.73 105.06 221.36
  C 107.98 217.83 111.66 217.08 115.29 214.68
  Q 115.81 214.34 116.34 214.67
  L 126.08 220.73
  Q 126.40 220.93 126.78 220.92
  L 138.48 220.48
  Q 139.07 220.46 139.34 220.99
  L 144.30 230.96
  A 0.83 0.81 -4.9 0 0 144.81 231.38
  Q 148.37 232.30 151.98 234.98
  C 152.83 235.61 154.23 235.90 155.06 236.50
  Q 155.45 236.78 155.36 237.26
  C 154.76 240.18 155.96 244.42 154.76 247.94
  Q 154.45 248.83 154.99 249.61
  L 159.51 256.16
  Q 159.81 256.59 159.87 256.07
  C 161.73 239.38 171.89 226.45 187.15 220.08
  Q 203.22 213.37 221.56 219.22
  Q 227.15 221.01 230.71 223.81
  Q 231.14 224.15 230.89 224.64
  L 223.48 239.48
  Q 223.26 239.92 222.84 239.67
  C 208.91 231.41 189.09 233.89 182.16 249.65
  C 176.11 263.41 184.29 278.59 198.58 282.10
  Q 211.45 285.27 222.94 278.33
  Q 223.26 278.14 223.43 278.47
  L 230.87 293.42
  A 0.76 0.75 59.8 0 1 230.62 294.39
  C 218.93 302.16 201.98 303.55 188.93 298.80
  C 174.21 293.44 161.94 280.18 160.13 264.20
  Q 160.03 263.39 159.58 264.06
  L 155.17 270.50
  Q 154.67 271.22 154.96 272.05
  C 156.18 275.57 155.15 280.42 155.47 283.30
  A 0.58 0.57 -9.3 0 1 155.01 283.93
  C 153.89 284.19 152.29 284.89 151.48 285.59
  Q 148.61 288.06 145.32 288.67
  A 0.92 0.91 -86.8 0 0 144.61 289.31
  Q 143.49 293.14 140.17 297.85
  Q 139.88 298.26 139.85 298.77
  Q 139.81 299.53 139.34 299.88
  Q 138.92 300.19 138.48 299.92
  Q 137.20 299.13 135.47 299.50
  Q 131.06 300.47 127.14 299.18
  Q 126.63 299.01 126.29 299.42
  C 124.11 301.96 119.48 304.15 116.11 305.91
  Q 115.66 306.15 115.23 305.86
  Q 112.97 304.29 110.57 303.23
  C 108.51 302.33 107.22 301.18 105.64 299.66
  Q 105.27 299.30 104.77 299.42
  Q 100.31 300.49 99.50 300.27
  Q 96.09 299.36 93.02 300.05
  A 0.79 0.78 -23.2 0 1 92.18 299.72
  Q 91.72 299.04 91.54 298.09
  A 1.44 1.39 22.2 0 0 91.32 297.59
  Q 88.53 293.68 87.41 290.01
  Q 87.31 289.68 87.01 289.53
  L 76.53 284.30
  Q 75.96 284.01 76.08 283.39
  C 76.75 279.89 75.41 275.87 76.84 272.10
  Q 77.21 271.12 76.41 270.45
  Q 74.04 268.46 72.82 265.62
  Q 72.15 264.08 72.15 265.76
  L 72.15 299.55
  Q 72.15 300.01 71.69 300.01
  L 54.30 300.01
  A 1.68 1.66 -15.9 0 1 52.88 299.23
  L 21.10 249.64
  Z
  M 116.33 226.40
  Q 117.94 227.98 119.69 228.64
  Q 120.16 228.81 120.28 228.33
  Q 121.19 224.70 124.28 222.26
  Q 124.64 221.98 124.34 221.64
  C 122.23 219.23 118.45 217.80 116.03 216.18
  A 0.84 0.83 -44.2 0 0 115.12 216.17
  L 107.05 221.34
  Q 105.96 222.04 106.97 222.84
  Q 109.61 224.94 110.06 228.61
  A 0.45 0.44 77.2 0 0 110.64 228.98
  Q 113.40 228.11 115.28 226.38
  A 0.76 0.75 45.8 0 1 116.33 226.40
  Z
  M 131.79 230.01
  Q 131.92 229.99 131.97 230.10
  Q 133.32 233.48 134.39 234.50
  Q 134.76 234.85 135.13 234.50
  Q 138.37 231.47 141.70 231.29
  Q 142.89 231.23 142.36 230.16
  L 138.92 223.26
  Q 138.21 221.82 136.63 222.13
  Q 135.03 222.44 131.25 221.91
  Q 130.37 221.78 127.61 222.52
  Q 127.04 222.67 127.28 223.21
  Q 128.57 226.08 127.20 229.74
  Q 127.01 230.27 127.56 230.35
  Q 129.11 230.58 131.79 230.01
  Z
  M 97.46 231.35
  A 0.73 0.72 -74.0 0 1 98.34 230.85
  Q 100.73 231.46 103.48 230.94
  A 0.43 0.43 0.0 0 0 103.80 230.36
  Q 102.51 227.04 103.80 224.04
  Q 104.29 222.90 103.04 222.80
  L 93.82 222.09
  A 0.81 0.81 0.0 0 0 93.05 222.51
  C 91.73 225.00 89.16 227.94 88.47 230.95
  Q 88.37 231.38 88.80 231.45
  Q 92.55 232.12 94.98 234.79
  Q 95.30 235.14 95.62 234.79
  Q 96.81 233.42 97.46 231.35
  Z
  M 125.93 223.62
  A 0.39 0.39 0.0 0 0 125.35 223.41
  Q 122.44 225.31 121.73 229.10
  A 0.79 0.78 -71.8 0 0 122.15 229.95
  Q 123.33 230.53 124.67 230.30
  A 1.03 1.01 -80.1 0 0 125.40 229.78
  Q 127.00 226.92 125.93 223.62
  Z
  M 105.92 230.86
  L 107.97 230.48
  A 0.76 0.76 0.0 0 0 108.58 229.60
  L 108.40 228.67
  A 5.26 1.75 79.5 0 0 105.72 223.82
  L 105.63 223.84
  A 5.26 1.75 79.5 0 0 104.86 229.33
  L 105.04 230.25
  A 0.76 0.76 0.0 0 0 105.92 230.86
  Z
  M 110.19 231.56
  C 112.35 232.15 112.97 233.17 114.43 234.61
  Q 114.85 235.02 115.12 234.51
  Q 116.49 232.02 120.30 230.75
  A 0.17 0.17 0.0 0 0 120.32 230.44
  L 115.56 228.06
  Q 115.40 227.99 115.26 228.07
  L 110.11 230.88
  Q 109.30 231.32 110.19 231.56
  Z
  M 115.70 237.64
  L 125.70 240.28
  A 0.22 0.22 0.0 0 0 125.97 240.13
  L 126.01 239.96
  A 6.71 5.26 -75.2 0 0 122.64 232.13
  L 122.39 232.06
  A 6.71 5.26 -75.2 0 0 115.59 237.21
  L 115.55 237.37
  A 0.22 0.22 0.0 0 0 115.70 237.64
  Z
  M 133.70 237.20
  Q 134.60 237.38 134.07 236.63
  L 130.72 231.84
  Q 130.63 231.71 130.46 231.70
  L 125.15 231.71
  A 0.17 0.17 0.0 0 0 125.04 232.00
  Q 127.87 234.82 128.00 237.65
  Q 128.01 238.22 128.57 238.04
  C 130.51 237.41 131.51 236.77 133.70 237.20
  Z
  M 104.94 233.03
  Q 105.55 232.36 104.64 232.42
  L 98.84 232.80
  Q 98.68 232.81 98.59 232.95
  L 95.87 237.47
  A 0.17 0.17 0.0 0 0 96.05 237.72
  Q 99.91 236.76 102.38 238.11
  Q 102.88 238.40 103.01 237.83
  C 103.47 235.85 103.44 234.67 104.94 233.03
  Z
  M 105.09 240.19
  L 113.71 237.70
  A 0.22 0.22 0.0 0 0 113.86 237.43
  L 113.83 237.32
  A 6.01 4.68 73.9 0 0 107.67 232.85
  L 107.61 232.86
  A 6.01 4.68 73.9 0 0 104.78 239.93
  L 104.81 240.04
  A 0.22 0.22 0.0 0 0 105.09 240.19
  Z
  M 136.04 237.07
  L 137.74 239.04
  A 1.09 1.09 0.0 0 0 139.28 239.15
  L 139.91 238.60
  A 5.93 2.27 -40.9 0 0 142.91 233.00
  L 142.75 232.82
  A 5.93 2.27 -40.9 0 0 136.78 234.98
  L 136.15 235.53
  A 1.09 1.09 0.0 0 0 136.04 237.07
  Z
  M 144.49 242.47
  A 0.64 0.63 -83.1 0 1 144.97 243.09
  L 144.97 247.77
  Q 144.97 248.45 145.62 248.26
  Q 149.29 247.17 152.29 248.31
  Q 153.71 248.84 153.71 247.32
  L 153.71 238.90
  Q 153.71 237.69 152.67 237.09
  L 145.80 233.13
  Q 144.45 232.34 144.39 233.91
  Q 144.26 237.26 140.88 240.05
  Q 140.44 240.41 140.89 240.75
  Q 142.64 242.03 144.49 242.47
  Z
  M 91.99 239.69
  L 94.31 237.64
  A 0.91 0.91 0.0 0 0 94.39 236.35
  L 94.12 236.05
  A 6.05 2.35 48.5 0 0 88.35 233.08
  L 88.19 233.23
  A 6.05 2.35 48.5 0 0 90.44 239.32
  L 90.70 239.61
  A 0.91 0.91 0.0 0 0 91.99 239.69
  Z
  M 86.04 243.75
  A 0.91 0.90 -21.5 0 1 86.45 242.82
  L 89.55 240.83
  Q 89.89 240.62 89.58 240.35
  Q 86.51 237.63 86.49 233.76
  Q 86.49 232.89 85.74 233.33
  L 78.45 237.63
  Q 77.50 238.19 77.50 239.30
  L 77.50 247.70
  Q 77.50 249.33 78.98 248.65
  Q 81.92 247.30 85.37 248.92
  Q 85.85 249.14 85.95 248.63
  Q 86.45 246.05 86.04 243.75
  Z
  M 127.37 241.36
  L 133.59 247.61
  A 0.28 0.28 0.0 0 0 133.99 247.61
  L 134.29 247.31
  A 6.22 4.57 -44.9 0 0 135.47 239.68
  L 135.30 239.51
  A 6.22 4.57 -44.9 0 0 127.66 240.67
  L 127.37 240.96
  A 0.28 0.28 0.0 0 0 127.37 241.36
  Z
  M 95.99 248.45
  L 103.24 241.04
  A 0.22 0.22 0.0 0 0 103.23 240.73
  L 103.17 240.67
  A 6.25 5.26 44.4 0 0 95.02 240.06
  L 94.83 240.26
  A 6.25 5.26 44.4 0 0 95.61 248.39
  L 95.68 248.45
  A 0.22 0.22 0.0 0 0 95.99 248.45
  Z
  M 137.63 241.10
  C 138.20 243.28 137.62 244.33 137.10 246.33
  Q 136.96 246.90 137.54 246.88
  Q 140.39 246.82 143.41 249.49
  A 0.17 0.17 0.0 0 0 143.69 249.35
  L 143.37 244.02
  Q 143.35 243.84 143.21 243.76
  L 138.18 240.69
  Q 137.39 240.21 137.63 241.10
  Z
  M 88.08 250.52
  C 89.69 248.94 90.90 248.92 92.90 248.37
  Q 93.47 248.22 93.16 247.72
  Q 91.68 245.26 92.51 241.29
  A 0.17 0.17 0.0 0 0 92.25 241.12
  L 87.76 244.06
  Q 87.62 244.16 87.62 244.33
  L 87.45 250.25
  Q 87.42 251.18 88.08 250.52
  Z
  M 134.73 249.24
  L 137.46 259.09
  A 0.21 0.21 0.0 0 0 137.72 259.24
  L 138.10 259.13
  A 6.79 5.16 -15.5 0 0 143.27 252.35
  L 143.18 252.04
  A 6.79 5.16 -15.5 0 0 135.26 248.88
  L 134.88 248.99
  A 0.21 0.21 0.0 0 0 134.73 249.24
  Z
  M 152.06 250.49
  A 0.37 0.36 33.3 0 0 151.95 249.92
  Q 148.97 248.52 145.57 249.82
  A 0.75 0.74 -13.4 0 0 145.09 250.58
  Q 145.21 251.82 146.06 252.79
  A 0.97 0.96 -21.7 0 0 146.84 253.12
  Q 149.93 252.99 152.06 250.49
  Z
  M 85.40 253.81
  L 86.17 251.72
  A 0.81 0.81 0.0 0 0 85.69 250.68
  L 84.69 250.32
  A 5.17 1.86 20.2 0 0 79.20 250.28
  L 79.16 250.39
  A 5.17 1.86 20.2 0 0 83.37 253.92
  L 84.36 254.29
  A 0.81 0.81 0.0 0 0 85.40 253.81
  Z
  M 92.85 259.10
  L 95.01 250.63
  A 0.21 0.21 0.0 0 0 94.86 250.38
  L 94.78 250.36
  A 5.93 4.50 14.3 0 0 87.93 253.25
  L 87.89 253.41
  A 5.93 4.50 14.3 0 0 92.52 259.23
  L 92.60 259.25
  A 0.21 0.21 0.0 0 0 92.85 259.10
  Z
  M 149.63 259.76
  Q 147.90 261.76 146.93 264.23
  Q 146.74 264.72 147.26 264.83
  Q 151.23 265.71 153.40 268.68
  Q 154.28 269.89 155.03 268.59
  L 159.38 261.04
  Q 159.65 260.59 159.46 260.10
  Q 157.53 255.08 154.62 251.47
  A 0.89 0.89 0.0 0 0 153.23 251.48
  Q 151.26 253.95 147.60 254.71
  Q 147.06 254.82 147.28 255.33
  Q 148.14 257.37 149.58 258.73
  A 0.75 0.75 0.0 0 1 149.63 259.76
  Z
  M 81.72 260.78
  Q 83.42 258.77 84.36 256.30
  Q 84.54 255.81 84.03 255.71
  Q 80.06 254.88 77.87 251.95
  Q 76.98 250.75 76.25 252.05
  L 72.00 259.62
  Q 71.74 260.07 71.94 260.55
  Q 73.91 265.53 76.85 269.09
  A 0.89 0.89 0.0 0 0 78.23 269.06
  Q 80.16 266.58 83.80 265.79
  Q 84.34 265.67 84.11 265.17
  Q 83.23 263.15 81.78 261.81
  A 0.75 0.75 0.0 0 1 81.72 260.78
  Z
  M 144.36 264.48
  Q 144.64 265.37 145.05 264.53
  L 147.66 259.21
  Q 147.74 259.07 147.66 258.91
  L 145.05 254.20
  A 0.17 0.17 0.0 0 0 144.74 254.24
  Q 143.62 258.14 141.16 259.63
  Q 140.66 259.93 141.09 260.33
  C 142.61 261.75 143.67 262.33 144.36 264.48
  Z
  M 86.81 255.77
  Q 86.53 254.89 86.12 255.71
  L 83.52 260.97
  Q 83.45 261.12 83.52 261.27
  L 86.09 265.93
  A 0.17 0.17 0.0 0 0 86.40 265.90
  Q 87.52 262.04 89.95 260.58
  Q 90.45 260.29 90.02 259.88
  C 88.53 258.48 87.48 257.90 86.81 255.77
  Z
  M 137.39 261.26
  L 135.41 269.38
  A 0.45 0.45 0.0 0 0 135.74 269.92
  L 136.07 270.00
  A 6.25 4.55 13.7 0 0 143.22 267.06
  L 143.26 266.91
  A 6.25 4.55 13.7 0 0 138.26 261.01
  L 137.93 260.92
  A 0.45 0.45 0.0 0 0 137.39 261.26
  Z
  M 95.71 271.35
  L 92.78 261.41
  A 0.18 0.18 0.0 0 0 92.56 261.29
  L 92.50 261.31
  A 6.34 5.29 -16.4 0 0 87.91 268.17
  L 87.95 268.31
  A 6.34 5.29 -16.4 0 0 95.53 271.59
  L 95.59 271.57
  A 0.18 0.18 0.0 0 0 95.71 271.35
  Z
  M 145.73 266.63
  L 144.92 269.02
  A 0.68 0.68 0.0 0 0 145.35 269.88
  L 145.82 270.04
  A 6.31 1.86 18.6 0 0 152.39 270.29
  L 152.44 270.14
  A 6.31 1.86 18.6 0 0 147.05 266.36
  L 146.59 266.21
  A 0.68 0.68 0.0 0 0 145.73 266.63
  Z
  M 86.07 270.18
  L 85.66 267.94
  A 0.68 0.68 0.0 0 0 84.86 267.40
  L 84.48 267.47
  A 5.59 1.77 -10.5 0 0 79.31 270.23
  L 79.32 270.33
  A 5.59 1.77 -10.5 0 0 85.14 271.05
  L 85.53 270.98
  A 0.68 0.68 0.0 0 0 86.07 270.18
  Z
  M 143.13 269.86
  C 141.50 271.41 140.31 271.41 138.31 271.92
  Q 137.74 272.07 138.04 272.56
  Q 139.47 275.03 138.58 278.96
  A 0.17 0.17 0.0 0 0 138.84 279.14
  L 143.35 276.29
  Q 143.49 276.19 143.50 276.03
  L 143.76 270.15
  Q 143.80 269.22 143.13 269.86
  Z
  M 93.55 279.15
  C 92.98 276.97 93.56 275.93 94.08 273.94
  Q 94.23 273.37 93.65 273.39
  Q 90.80 273.44 87.79 270.76
  A 0.17 0.17 0.0 0 0 87.51 270.90
  L 87.82 276.23
  Q 87.84 276.40 87.98 276.48
  L 92.99 279.56
  Q 93.78 280.04 93.55 279.15
  Z
  M 134.57 271.12
  L 127.44 278.80
  A 0.27 0.27 0.0 0 0 127.45 279.18
  L 127.71 279.42
  A 6.82 5.40 42.9 0 0 136.38 280.10
  L 136.53 279.94
  A 6.82 5.40 42.9 0 0 135.21 271.34
  L 134.95 271.11
  A 0.27 0.27 0.0 0 0 134.57 271.12
  Z
  M 144.65 277.73
  Q 142.80 278.15 141.65 279.08
  Q 141.23 279.42 141.61 279.81
  Q 144.56 282.87 144.76 286.29
  A 1.09 1.09 0.0 0 0 146.43 287.15
  L 153.59 282.56
  Q 153.91 282.36 153.91 281.98
  L 153.91 273.25
  Q 153.91 271.17 152.03 272.04
  Q 149.49 273.21 145.27 271.60
  A 0.18 0.18 0.0 0 0 145.03 271.77
  L 145.03 277.27
  Q 145.03 277.65 144.65 277.73
  Z
  M 86.12 277.52
  A 0.73 0.73 0.0 0 1 85.69 276.62
  Q 86.28 274.80 86.06 272.68
  Q 86.01 272.14 85.50 272.30
  Q 82.05 273.35 79.23 272.17
  A 0.86 0.86 0.0 0 0 78.05 272.80
  Q 77.26 277.21 77.95 282.36
  Q 78.01 282.86 78.45 283.12
  L 85.63 287.51
  Q 86.87 288.26 87.06 286.83
  Q 87.52 283.30 90.48 280.72
  Q 90.87 280.39 90.48 280.06
  Q 88.51 278.41 86.12 277.52
  Z
  M 103.39 278.99
  L 97.02 273.09
  A 0.27 0.27 0.0 0 0 96.64 273.11
  L 96.54 273.22
  A 5.96 4.59 -47.2 0 0 95.86 280.71
  L 95.89 280.73
  A 5.96 4.59 -47.2 0 0 103.30 279.48
  L 103.41 279.37
  A 0.27 0.27 0.0 0 0 103.39 278.99
  Z
  M 125.81 279.61
  L 117.31 282.38
  A 0.27 0.27 0.0 0 0 117.14 282.72
  L 117.26 283.08
  A 6.13 4.65 72.0 0 0 123.57 287.47
  L 123.74 287.42
  A 6.13 4.65 72.0 0 0 126.27 280.15
  L 126.15 279.79
  A 0.27 0.27 0.0 0 0 125.81 279.61
  Z
  M 115.53 282.63
  L 105.35 280.13
  A 0.21 0.21 0.0 0 0 105.10 280.28
  L 105.08 280.35
  A 6.68 5.36 -76.2 0 0 108.69 288.12
  L 108.87 288.16
  A 6.68 5.36 -76.2 0 0 115.67 282.95
  L 115.68 282.88
  A 0.21 0.21 0.0 0 0 115.53 282.63
  Z
  M 139.11 280.65
  L 136.82 282.68
  A 0.89 0.89 0.0 0 0 136.74 283.93
  L 137.11 284.35
  A 6.21 2.32 48.5 0 0 142.96 287.46
  L 143.11 287.33
  A 6.21 2.32 48.5 0 0 140.74 281.14
  L 140.36 280.72
  A 0.89 0.89 0.0 0 0 139.11 280.65
  Z
  M 95.51 284.03
  Q 95.25 282.22 93.13 281.51
  Q 92.61 281.33 92.12 281.58
  Q 89.44 282.95 88.35 286.79
  A 0.95 0.95 0.0 0 0 89.37 288.00
  Q 92.90 287.59 95.25 284.89
  Q 95.58 284.52 95.51 284.03
  Z
  M 97.38 282.95
  Q 96.48 282.75 96.99 283.51
  L 100.22 288.37
  Q 100.31 288.50 100.48 288.51
  L 105.77 288.62
  A 0.17 0.17 0.0 0 0 105.90 288.34
  Q 103.13 285.46 103.08 282.64
  Q 103.08 282.06 102.52 282.23
  C 100.57 282.82 99.55 283.43 97.38 282.95
  Z
  M 126.20 287.25
  Q 125.58 287.91 126.49 287.86
  L 132.29 287.54
  Q 132.44 287.53 132.54 287.39
  L 135.30 282.90
  A 0.17 0.17 0.0 0 0 135.13 282.65
  Q 131.26 283.57 128.81 282.19
  Q 128.31 281.90 128.17 282.47
  C 127.70 284.44 127.71 285.62 126.20 287.25
  Z
  M 133.61 288.96
  A 0.64 0.64 0.0 0 1 132.98 289.44
  L 128.28 289.36
  Q 127.60 289.35 127.78 290.01
  Q 128.82 293.71 127.62 296.71
  Q 127.07 298.13 128.60 298.16
  L 137.06 298.28
  Q 138.28 298.30 138.90 297.27
  L 142.98 290.42
  Q 143.80 289.08 142.22 288.99
  Q 138.85 288.81 136.10 285.37
  Q 135.75 284.92 135.40 285.37
  Q 134.09 287.11 133.61 288.96
  Z
  M 120.90 288.89
  C 118.79 288.31 118.19 287.30 116.77 285.89
  Q 116.36 285.48 116.09 285.98
  Q 114.74 288.41 111.00 289.64
  A 0.17 0.16 49.1 0 0 110.98 289.94
  L 115.63 292.30
  Q 115.78 292.37 115.92 292.29
  L 120.98 289.56
  Q 121.78 289.13 120.90 288.89
  Z
  M 99.63 290.52
  Q 99.50 290.54 99.44 290.43
  Q 98.03 287.07 96.94 286.07
  Q 96.57 285.72 96.20 286.08
  Q 93.01 289.17 89.68 289.41
  Q 88.49 289.49 89.04 290.55
  L 92.61 297.40
  Q 93.34 298.83 94.92 298.49
  Q 96.52 298.15 100.31 298.62
  Q 101.19 298.73 103.94 297.94
  Q 104.51 297.78 104.26 297.25
  Q 102.92 294.40 104.23 290.71
  Q 104.41 290.17 103.85 290.10
  Q 102.30 289.90 99.63 290.52
  Z
  M 125.27 289.42
  L 122.93 289.98
  A 0.74 0.74 0.0 0 0 122.39 290.88
  L 122.52 291.43
  A 5.91 1.78 76.4 0 0 125.64 296.76
  L 125.95 296.68
  A 5.91 1.78 76.4 0 0 126.29 290.52
  L 126.16 289.96
  A 0.74 0.74 0.0 0 0 125.27 289.42
  Z
  M 109.37 290.70
  L 106.89 289.81
  A 0.68 0.68 0.0 0 0 106.02 290.22
  L 105.76 290.96
  A 5.58 1.92 -70.4 0 0 105.69 296.86
  L 105.84 296.91
  A 5.58 1.92 -70.4 0 0 109.53 292.30
  L 109.79 291.57
  A 0.68 0.68 0.0 0 0 109.37 290.70
  Z
  M 115.02 294.18
  Q 113.42 292.62 111.68 291.97
  Q 111.21 291.80 111.09 292.28
  Q 110.20 295.89 107.15 298.33
  Q 106.79 298.61 107.09 298.94
  C 109.20 301.33 112.96 302.73 115.37 304.33
  A 0.83 0.83 0.0 0 0 116.27 304.33
  L 124.26 299.16
  Q 125.34 298.46 124.34 297.67
  Q 121.70 295.60 121.24 291.95
  A 0.45 0.44 76.9 0 0 120.66 291.59
  Q 117.92 292.47 116.07 294.19
  A 0.75 0.75 0.0 0 1 115.02 294.18
  Z"
/>
<path fill="#ffffff" d="
  M 442.39 266.21
  L 442.39 249.59
  Q 442.39 249.03 442.96 249.03
  L 459.43 249.03
  Q 460.08 249.03 460.08 249.67
  L 460.08 253.48
  Q 460.08 254.66 460.90 253.82
  C 468.95 245.71 479.98 246.02 489.17 251.43
  Q 497.62 256.39 497.37 268.78
  Q 497.21 276.28 497.30 299.62
  A 0.39 0.39 0.0 0 1 496.91 300.01
  L 480.05 300.01
  Q 479.56 300.01 479.56 299.52
  Q 479.55 280.02 479.55 271.00
  C 479.54 266.79 476.76 262.45 472.46 261.54
  C 467.74 260.56 463.07 263.35 461.00 267.48
  Q 460.10 269.28 460.09 273.60
  Q 460.07 287.15 460.09 299.42
  Q 460.09 300.00 459.51 300.00
  L 442.98 300.00
  Q 442.40 300.00 442.40 299.42
  L 442.40 282.42
  Q 442.40 282.40 442.38 282.39
  Q 438.14 279.92 442.34 282.37
  Q 442.35 282.38 442.35 282.40
  C 436.60 300.17 415.51 304.96 399.77 299.32
  Q 390.46 295.98 385.09 286.94
  Q 384.77 286.40 384.48 286.96
  Q 377.54 300.68 363.09 301.48
  C 356.39 301.86 350.11 299.64 345.47 294.72
  Q 344.87 294.09 344.87 294.96
  L 344.87 299.69
  Q 344.87 300.00 344.55 300.00
  L 327.95 300.00
  A 0.56 0.56 0.0 0 1 327.39 299.44
  L 327.39 260.20
  Q 327.39 260.13 327.36 260.20
  L 324.86 265.19
  Q 324.65 265.61 324.25 265.37
  C 318.46 261.83 309.86 261.45 306.49 268.16
  Q 305.06 271.02 305.06 277.10
  Q 305.09 295.09 305.13 299.53
  A 0.48 0.48 0.0 0 1 304.65 300.01
  L 288.02 300.01
  A 0.63 0.63 0.0 0 1 287.39 299.38
  L 287.39 249.59
  Q 287.39 249.03 287.95 249.03
  L 304.69 249.03
  Q 305.09 249.03 305.09 249.42
  L 305.09 255.45
  Q 305.09 256.55 305.76 255.67
  Q 313.69 245.15 326.95 248.35
  Q 327.39 248.46 327.39 248.00
  L 327.39 215.11
  Q 327.39 214.50 328.00 214.50
  L 344.68 214.50
  A 0.41 0.40 90.0 0 1 345.08 214.91
  L 345.08 253.25
  A 0.25 0.25 0.0 0 0 345.50 253.44
  Q 350.70 248.78 357.70 247.80
  C 369.50 246.13 379.26 251.53 384.58 262.37
  Q 384.80 262.82 385.06 262.40
  Q 394.59 247.21 414.02 247.54
  C 426.41 247.76 437.82 254.45 442.17 266.25
  Q 442.39 266.86 442.39 266.21
  Z
  M 368.48 274.56
  A 11.95 11.95 0.0 0 0 356.53 262.61
  A 11.95 11.95 0.0 0 0 344.58 274.56
  A 11.95 11.95 0.0 0 0 356.53 286.51
  A 11.95 11.95 0.0 0 0 368.48 274.56
  Z
  M 424.77 274.56
  A 11.95 11.95 0.0 0 0 412.82 262.61
  A 11.95 11.95 0.0 0 0 400.87 274.56
  A 11.95 11.95 0.0 0 0 412.82 286.51
  A 11.95 11.95 0.0 0 0 424.77 274.56
  Z"
/>
<path fill="#00bf63" d="
  M 116.33 226.40
  A 0.76 0.75 45.8 0 0 115.28 226.38
  Q 113.40 228.11 110.64 228.98
  A 0.45 0.44 77.2 0 1 110.06 228.61
  Q 109.61 224.94 106.97 222.84
  Q 105.96 222.04 107.05 221.34
  L 115.12 216.17
  A 0.84 0.83 -44.2 0 1 116.03 216.18
  C 118.45 217.80 122.23 219.23 124.34 221.64
  Q 124.64 221.98 124.28 222.26
  Q 121.19 224.70 120.28 228.33
  Q 120.16 228.81 119.69 228.64
  Q 117.94 227.98 116.33 226.40
  Z
  M 115.10 219.32
  L 115.10 219.70
  Q 115.10 220.16 115.57 220.17
  Q 116.02 220.18 116.23 219.71
  Q 116.34 219.45 116.23 219.26
  Q 116.01 218.86 115.50 218.89
  Q 115.10 218.92 115.10 219.32
  Z
  M 115.5847 224.6156
  A 0.64 0.57 83.3 0 0 116.0761 223.9135
  A 0.64 0.57 83.3 0 0 115.4353 223.3444
  A 0.64 0.57 83.3 0 0 114.9439 224.0465
  A 0.64 0.57 83.3 0 0 115.5847 224.6156
  Z"
/>
<path fill="#ffffff" d="
  M 115.10 219.32
  Q 115.10 218.92 115.50 218.89
  Q 116.01 218.86 116.23 219.26
  Q 116.34 219.45 116.23 219.71
  Q 116.02 220.18 115.57 220.17
  Q 115.10 220.16 115.10 219.70
  L 115.10 219.32
  Z"
/>
<path fill="#00bf63" d="
  M 131.79 230.01
  Q 129.11 230.58 127.56 230.35
  Q 127.01 230.27 127.20 229.74
  Q 128.57 226.08 127.28 223.21
  Q 127.04 222.67 127.61 222.52
  Q 130.37 221.78 131.25 221.91
  Q 135.03 222.44 136.63 222.13
  Q 138.21 221.82 138.92 223.26
  L 142.36 230.16
  Q 142.89 231.23 141.70 231.29
  Q 138.37 231.47 135.13 234.50
  Q 134.76 234.85 134.39 234.50
  Q 133.32 233.48 131.97 230.10
  Q 131.92 229.99 131.79 230.01
  Z
  M 136.6306 225.0442
  A 0.71 0.62 23.6 0 0 136.2282 224.1919
  A 0.71 0.62 23.6 0 0 135.3294 224.4758
  A 0.71 0.62 23.6 0 0 135.7318 225.3281
  A 0.71 0.62 23.6 0 0 136.6306 225.0442
  Z
  M 132.9307 228.8404
  A 0.72 0.62 127.6 0 0 133.8612 228.6483
  A 0.72 0.62 127.6 0 0 133.8093 227.6996
  A 0.72 0.62 127.6 0 0 132.8788 227.8917
  A 0.72 0.62 127.6 0 0 132.9307 228.8404
  Z"
/>
<path fill="#00bf63" d="
  M 97.46 231.35
  Q 96.81 233.42 95.62 234.79
  Q 95.30 235.14 94.98 234.79
  Q 92.55 232.12 88.80 231.45
  Q 88.37 231.38 88.47 230.95
  C 89.16 227.94 91.73 225.00 93.05 222.51
  A 0.81 0.81 0.0 0 1 93.82 222.09
  L 103.04 222.80
  Q 104.29 222.90 103.80 224.04
  Q 102.51 227.04 103.80 230.36
  A 0.43 0.43 0.0 0 1 103.48 230.94
  Q 100.73 231.46 98.34 230.85
  A 0.73 0.72 -74.0 0 0 97.46 231.35
  Z
  M 95.40 225.55
  A 0.66 0.66 0.0 0 0 94.74 224.89
  A 0.66 0.66 0.0 0 0 94.08 225.55
  A 0.66 0.66 0.0 0 0 94.74 226.21
  A 0.66 0.66 0.0 0 0 95.40 225.55
  Z
  M 96.67 228.95
  Q 96.23 229.23 96.28 229.56
  Q 96.34 230.09 96.86 229.96
  Q 97.30 229.85 97.57 229.54
  A 0.45 0.45 0.0 0 0 97.40 228.82
  Q 97.08 228.70 96.67 228.95
  Z"
/>
<ellipse fill="#ffffff" cx="0.00" cy="0.00" transform="translate(115.51,223.98) rotate(83.3)" rx="0.64" ry="0.57"/>
<path fill="#00bf63" d="
  M 125.93 223.62
  Q 127.00 226.92 125.40 229.78
  A 1.03 1.01 -80.1 0 1 124.67 230.30
  Q 123.33 230.53 122.15 229.95
  A 0.79 0.78 -71.8 0 1 121.73 229.10
  Q 122.44 225.31 125.35 223.41
  A 0.39 0.39 0.0 0 1 125.93 223.62
  Z"
/>
<path fill="#00bf63" d="
  M 105.92 230.86
  A 0.76 0.76 0.0 0 1 105.04 230.25
  L 104.86 229.33
  A 5.26 1.75 79.5 0 1 105.63 223.84
  L 105.72 223.82
  A 5.26 1.75 79.5 0 1 108.40 228.67
  L 108.58 229.60
  A 0.76 0.76 0.0 0 1 107.97 230.48
  L 105.92 230.86
  Z"
/>
<ellipse fill="#ffffff" cx="0.00" cy="0.00" transform="translate(135.98,224.76) rotate(23.6)" rx="0.71" ry="0.62"/>
<circle fill="#ffffff" cx="94.74" cy="225.55" r="0.66"/>
<ellipse fill="#ffffff" cx="0.00" cy="0.00" transform="translate(133.37,228.27) rotate(127.6)" rx="0.72" ry="0.62"/>
<path fill="#00bf63" d="
  M 114.43 234.61
  C 112.97 233.17 112.35 232.15 110.19 231.56
  Q 109.30 231.32 110.11 230.88
  L 115.26 228.07
  Q 115.40 227.99 115.56 228.06
  L 120.32 230.44
  A 0.17 0.17 0.0 0 1 120.30 230.75
  Q 116.49 232.02 115.12 234.51
  Q 114.85 235.02 114.43 234.61
  Z"
/>
<path fill="#ffffff" d="
  M 96.67 228.95
  Q 97.08 228.70 97.40 228.82
  A 0.45 0.45 0.0 0 1 97.57 229.54
  Q 97.30 229.85 96.86 229.96
  Q 96.34 230.09 96.28 229.56
  Q 96.23 229.23 96.67 228.95
  Z"
/>
<path fill="#00bf63" d="
  M 115.70 237.64
  A 0.22 0.22 0.0 0 1 115.55 237.37
  L 115.59 237.21
  A 6.71 5.26 -75.2 0 1 122.39 232.06
  L 122.64 232.13
  A 6.71 5.26 -75.2 0 1 126.01 239.96
  L 125.97 240.13
  A 0.22 0.22 0.0 0 1 125.70 240.28
  L 115.70 237.64
  Z"
/>
<path fill="#00bf63" d="
  M 133.70 237.20
  C 131.51 236.77 130.51 237.41 128.57 238.04
  Q 128.01 238.22 128.00 237.65
  Q 127.87 234.82 125.04 232.00
  A 0.17 0.17 0.0 0 1 125.15 231.71
  L 130.46 231.70
  Q 130.63 231.71 130.72 231.84
  L 134.07 236.63
  Q 134.60 237.38 133.70 237.20
  Z"
/>
<path fill="#00bf63" d="
  M 104.94 233.03
  C 103.44 234.67 103.47 235.85 103.01 237.83
  Q 102.88 238.40 102.38 238.11
  Q 99.91 236.76 96.05 237.72
  A 0.17 0.17 0.0 0 1 95.87 237.47
  L 98.59 232.95
  Q 98.68 232.81 98.84 232.80
  L 104.64 232.42
  Q 105.55 232.36 104.94 233.03
  Z"
/>
<path fill="#00bf63" d="
  M 105.09 240.19
  A 0.22 0.22 0.0 0 1 104.81 240.04
  L 104.78 239.93
  A 6.01 4.68 73.9 0 1 107.61 232.86
  L 107.67 232.85
  A 6.01 4.68 73.9 0 1 113.83 237.32
  L 113.86 237.43
  A 0.22 0.22 0.0 0 1 113.71 237.70
  L 105.09 240.19
  Z"
/>
<path fill="#00bf63" d="
  M 136.04 237.07
  A 1.09 1.09 0.0 0 1 136.15 235.53
  L 136.78 234.98
  A 5.93 2.27 -40.9 0 1 142.75 232.82
  L 142.91 233.00
  A 5.93 2.27 -40.9 0 1 139.91 238.60
  L 139.28 239.15
  A 1.09 1.09 0.0 0 1 137.74 239.04
  L 136.04 237.07
  Z"
/>
<path fill="#00bf63" d="
  M 144.49 242.47
  Q 142.64 242.03 140.89 240.75
  Q 140.44 240.41 140.88 240.05
  Q 144.26 237.26 144.39 233.91
  Q 144.45 232.34 145.80 233.13
  L 152.67 237.09
  Q 153.71 237.69 153.71 238.90
  L 153.71 247.32
  Q 153.71 248.84 152.29 248.31
  Q 149.29 247.17 145.62 248.26
  Q 144.97 248.45 144.97 247.77
  L 144.97 243.09
  A 0.64 0.63 -83.1 0 0 144.49 242.47
  Z
  M 150.41 239.17
  A 0.53 0.53 0.0 0 0 150.86 239.96
  Q 151.43 239.97 151.60 239.38
  A 0.42 0.41 17.5 0 0 151.33 238.87
  Q 150.70 238.66 150.41 239.17
  Z
  M 147.09 241.14
  Q 146.59 241.32 146.66 241.92
  Q 146.73 242.52 147.20 242.66
  A 0.55 0.54 -73.1 0 0 147.88 242.29
  Q 148.02 241.79 147.84 241.43
  Q 147.60 240.95 147.09 241.14
  Z"
/>
<path fill="#00bf63" d="
  M 91.99 239.69
  A 0.91 0.91 0.0 0 1 90.70 239.61
  L 90.44 239.32
  A 6.05 2.35 48.5 0 1 88.19 233.23
  L 88.35 233.08
  A 6.05 2.35 48.5 0 1 94.12 236.05
  L 94.39 236.35
  A 0.91 0.91 0.0 0 1 94.31 237.64
  L 91.99 239.69
  Z"
/>
<path fill="#00bf63" d="
  M 86.04 243.75
  Q 86.45 246.05 85.95 248.63
  Q 85.85 249.14 85.37 248.92
  Q 81.92 247.30 78.98 248.65
  Q 77.50 249.33 77.50 247.70
  L 77.50 239.30
  Q 77.50 238.19 78.45 237.63
  L 85.74 233.33
  Q 86.49 232.89 86.49 233.76
  Q 86.51 237.63 89.58 240.35
  Q 89.89 240.62 89.55 240.83
  L 86.45 242.82
  A 0.91 0.90 -21.5 0 0 86.04 243.75
  Z
  M 79.73 239.72
  Q 79.84 240.10 80.03 240.35
  A 0.52 0.51 39.3 0 0 80.90 240.27
  Q 81.05 239.96 80.94 239.43
  Q 80.88 239.09 80.54 239.05
  Q 80.33 239.03 80.24 239.04
  Q 79.58 239.14 79.73 239.72
  Z
  M 83.75 241.51
  Q 83.48 242.10 83.80 242.67
  A 0.45 0.44 42.6 0 0 84.59 242.64
  Q 84.87 242.06 84.71 241.57
  A 0.52 0.52 0.0 0 0 83.75 241.51
  Z"
/>
<path fill="#00bf63" d="
  M 127.37 241.36
  A 0.28 0.28 0.0 0 1 127.37 240.96
  L 127.66 240.67
  A 6.22 4.57 -44.9 0 1 135.30 239.51
  L 135.47 239.68
  A 6.22 4.57 -44.9 0 1 134.29 247.31
  L 133.99 247.61
  A 0.28 0.28 0.0 0 1 133.59 247.61
  L 127.37 241.36
  Z"
/>
<path fill="#00bf63" d="
  M 95.99 248.45
  A 0.22 0.22 0.0 0 1 95.68 248.45
  L 95.61 248.39
  A 6.25 5.26 44.4 0 1 94.83 240.26
  L 95.02 240.06
  A 6.25 5.26 44.4 0 1 103.17 240.67
  L 103.23 240.73
  A 0.22 0.22 0.0 0 1 103.24 241.04
  L 95.99 248.45
  Z"
/>
<path fill="#ffffff" d="
  M 150.41 239.17
  Q 150.70 238.66 151.33 238.87
  A 0.42 0.41 17.5 0 1 151.60 239.38
  Q 151.43 239.97 150.86 239.96
  A 0.53 0.53 0.0 0 1 150.41 239.17
  Z"
/>
<path fill="#ffffff" d="
  M 80.24 239.04
  Q 80.33 239.03 80.54 239.05
  Q 80.88 239.09 80.94 239.43
  Q 81.05 239.96 80.90 240.27
  A 0.52 0.51 39.3 0 1 80.03 240.35
  Q 79.84 240.10 79.73 239.72
  Q 79.58 239.14 80.24 239.04
  Z"
/>
<path fill="#00bf63" d="
  M 137.63 241.10
  Q 137.39 240.21 138.18 240.69
  L 143.21 243.76
  Q 143.35 243.84 143.37 244.02
  L 143.69 249.35
  A 0.17 0.17 0.0 0 1 143.41 249.49
  Q 140.39 246.82 137.54 246.88
  Q 136.96 246.90 137.10 246.33
  C 137.62 244.33 138.20 243.28 137.63 241.10
  Z"
/>
<path fill="#ffffff" d="
  M 147.09 241.14
  Q 147.60 240.95 147.84 241.43
  Q 148.02 241.79 147.88 242.29
  A 0.55 0.54 -73.1 0 1 147.20 242.66
  Q 146.73 242.52 146.66 241.92
  Q 146.59 241.32 147.09 241.14
  Z"
/>
<path fill="#ffffff" d="
  M 83.75 241.51
  A 0.52 0.52 0.0 0 1 84.71 241.57
  Q 84.87 242.06 84.59 242.64
  A 0.45 0.44 42.6 0 1 83.80 242.67
  Q 83.48 242.10 83.75 241.51
  Z"
/>
<path fill="#00bf63" d="
  M 88.08 250.52
  Q 87.42 251.18 87.45 250.25
  L 87.62 244.33
  Q 87.62 244.16 87.76 244.06
  L 92.25 241.12
  A 0.17 0.17 0.0 0 1 92.51 241.29
  Q 91.68 245.26 93.16 247.72
  Q 93.47 248.22 92.90 248.37
  C 90.90 248.92 89.69 248.94 88.08 250.52
  Z"
/>
<path fill="#ffffff" d="
  M 266.94 294.79
  L 264.32 297.09
  C 262.41 298.77 258.57 300.49 255.62 301.02
  C 227.25 306.06 214.81 269.36 235.23 252.76
  C 243.74 245.83 257.90 245.47 266.51 253.18
  Q 267.29 253.87 267.29 252.83
  L 267.29 249.49
  Q 267.29 249.03 267.74 249.03
  L 284.35 249.03
  Q 284.91 249.03 284.91 249.59
  L 284.91 299.39
  A 0.62 0.61 0.0 0 1 284.29 300.00
  L 267.96 300.00
  Q 267.42 300.00 267.42 299.46
  L 267.45 295.01
  Q 267.45 294.54 266.94 294.79
  Z
  M 267.77 274.56
  A 11.95 11.95 0.0 0 0 255.82 262.61
  A 11.95 11.95 0.0 0 0 243.87 274.56
  A 11.95 11.95 0.0 0 0 255.82 286.51
  A 11.95 11.95 0.0 0 0 267.77 274.56
  Z"
/>
<path fill="#00bf63" d="
  M 134.73 249.24
  A 0.21 0.21 0.0 0 1 134.88 248.99
  L 135.26 248.88
  A 6.79 5.16 -15.5 0 1 143.18 252.04
  L 143.27 252.35
  A 6.79 5.16 -15.5 0 1 138.10 259.13
  L 137.72 259.24
  A 0.21 0.21 0.0 0 1 137.46 259.09
  L 134.73 249.24
  Z"
/>
<path fill="#00bf63" d="
  M 152.06 250.49
  Q 149.93 252.99 146.84 253.12
  A 0.97 0.96 -21.7 0 1 146.06 252.79
  Q 145.21 251.82 145.09 250.58
  A 0.75 0.74 -13.4 0 1 145.57 249.82
  Q 148.97 248.52 151.95 249.92
  A 0.37 0.36 33.3 0 1 152.06 250.49
  Z"
/>
<path fill="#00bf63" d="
  M 85.40 253.81
  A 0.81 0.81 0.0 0 1 84.36 254.29
  L 83.37 253.92
  A 5.17 1.86 20.2 0 1 79.16 250.39
  L 79.20 250.28
  A 5.17 1.86 20.2 0 1 84.69 250.32
  L 85.69 250.68
  A 0.81 0.81 0.0 0 1 86.17 251.72
  L 85.40 253.81
  Z"
/>
<path fill="#00bf63" d="
  M 92.85 259.10
  A 0.21 0.21 0.0 0 1 92.60 259.25
  L 92.52 259.23
  A 5.93 4.50 14.3 0 1 87.89 253.41
  L 87.93 253.25
  A 5.93 4.50 14.3 0 1 94.78 250.36
  L 94.86 250.38
  A 0.21 0.21 0.0 0 1 95.01 250.63
  L 92.85 259.10
  Z"
/>
<path fill="#00bf63" d="
  M 149.63 259.76
  A 0.75 0.75 0.0 0 0 149.58 258.73
  Q 148.14 257.37 147.28 255.33
  Q 147.06 254.82 147.60 254.71
  Q 151.26 253.95 153.23 251.48
  A 0.89 0.89 0.0 0 1 154.62 251.47
  Q 157.53 255.08 159.46 260.10
  Q 159.65 260.59 159.38 261.04
  L 155.03 268.59
  Q 154.28 269.89 153.40 268.68
  Q 151.23 265.71 147.26 264.83
  Q 146.74 264.72 146.93 264.23
  Q 147.90 261.76 149.63 259.76
  Z
  M 152.11 258.97
  L 151.87 259.09
  Q 151.29 259.38 151.72 259.86
  Q 151.99 260.17 152.61 260.06
  Q 153.09 259.97 152.87 259.54
  L 152.69 259.16
  Q 152.50 258.78 152.11 258.97
  Z
  M 156.25 259.58
  Q 156.04 259.94 156.12 260.29
  A 0.46 0.45 71.7 0 0 156.75 260.61
  Q 157.15 260.43 157.25 260.00
  Q 157.33 259.63 156.98 259.40
  Q 156.52 259.11 156.25 259.58
  Z"
/>
<path fill="#00bf63" d="
  M 81.72 260.78
  A 0.75 0.75 0.0 0 0 81.78 261.81
  Q 83.23 263.15 84.11 265.17
  Q 84.34 265.67 83.80 265.79
  Q 80.16 266.58 78.23 269.06
  A 0.89 0.89 0.0 0 1 76.85 269.09
  Q 73.91 265.53 71.94 260.55
  Q 71.74 260.07 72.00 259.62
  L 76.25 252.05
  Q 76.98 250.75 77.87 251.95
  Q 80.06 254.88 84.03 255.71
  Q 84.54 255.81 84.36 256.30
  Q 83.42 258.77 81.72 260.78
  Z
  M 73.34 260.00
  Q 73.06 260.17 72.97 260.46
  Q 72.82 260.95 73.29 261.15
  Q 73.52 261.25 73.74 261.23
  Q 74.19 261.18 74.19 260.72
  Q 74.19 260.43 74.07 260.21
  A 0.53 0.52 -28.7 0 0 73.34 260.00
  Z
  M 77.61 260.57
  Q 77.41 261.13 77.78 261.56
  Q 78.14 261.99 78.46 261.53
  Q 78.70 261.18 78.61 260.65
  Q 78.55 260.24 78.14 260.23
  Q 77.97 260.22 77.80 260.31
  Q 77.67 260.37 77.61 260.57
  Z"
/>
<path fill="#00bf63" d="
  M 144.36 264.48
  C 143.67 262.33 142.61 261.75 141.09 260.33
  Q 140.66 259.93 141.16 259.63
  Q 143.62 258.14 144.74 254.24
  A 0.17 0.17 0.0 0 1 145.05 254.20
  L 147.66 258.91
  Q 147.74 259.07 147.66 259.21
  L 145.05 264.53
  Q 144.64 265.37 144.36 264.48
  Z"
/>
<path fill="#00bf63" d="
  M 86.81 255.77
  C 87.48 257.90 88.53 258.48 90.02 259.88
  Q 90.45 260.29 89.95 260.58
  Q 87.52 262.04 86.40 265.90
  A 0.17 0.17 0.0 0 1 86.09 265.93
  L 83.52 261.27
  Q 83.45 261.12 83.52 260.97
  L 86.12 255.71
  Q 86.53 254.89 86.81 255.77
  Z"
/>
<path fill="#ffffff" d="
  M 152.11 258.97
  Q 152.50 258.78 152.69 259.16
  L 152.87 259.54
  Q 153.09 259.97 152.61 260.06
  Q 151.99 260.17 151.72 259.86
  Q 151.29 259.38 151.87 259.09
  L 152.11 258.97
  Z"
/>
<path fill="#ffffff" d="
  M 156.25 259.58
  Q 156.52 259.11 156.98 259.40
  Q 157.33 259.63 157.25 260.00
  Q 157.15 260.43 156.75 260.61
  A 0.46 0.45 71.7 0 1 156.12 260.29
  Q 156.04 259.94 156.25 259.58
  Z"
/>
<path fill="#ffffff" d="
  M 73.34 260.00
  A 0.53 0.52 -28.7 0 1 74.07 260.21
  Q 74.19 260.43 74.19 260.72
  Q 74.19 261.18 73.74 261.23
  Q 73.52 261.25 73.29 261.15
  Q 72.82 260.95 72.97 260.46
  Q 73.06 260.17 73.34 260.00
  Z"
/>
<path fill="#ffffff" d="
  M 77.80 260.31
  Q 77.97 260.22 78.14 260.23
  Q 78.55 260.24 78.61 260.65
  Q 78.70 261.18 78.46 261.53
  Q 78.14 261.99 77.78 261.56
  Q 77.41 261.13 77.61 260.57
  Q 77.67 260.37 77.80 260.31
  Z"
/>
<path fill="#00bf63" d="
  M 137.39 261.26
  A 0.45 0.45 0.0 0 1 137.93 260.92
  L 138.26 261.01
  A 6.25 4.55 13.7 0 1 143.26 266.91
  L 143.22 267.06
  A 6.25 4.55 13.7 0 1 136.07 270.00
  L 135.74 269.92
  A 0.45 0.45 0.0 0 1 135.41 269.38
  L 137.39 261.26
  Z"
/>
<path fill="#00bf63" d="
  M 95.71 271.35
  A 0.18 0.18 0.0 0 1 95.59 271.57
  L 95.53 271.59
  A 6.34 5.29 -16.4 0 1 87.95 268.31
  L 87.91 268.17
  A 6.34 5.29 -16.4 0 1 92.50 261.31
  L 92.56 261.29
  A 0.18 0.18 0.0 0 1 92.78 261.41
  L 95.71 271.35
  Z"
/>
<circle fill="#00bf63" cx="255.82" cy="274.56" r="11.95"/>
<circle fill="#00bf63" cx="356.53" cy="274.56" r="11.95"/>
<circle fill="#00bf63" cx="412.82" cy="274.56" r="11.95"/>
<path fill="#00bf63" d="
  M 145.73 266.63
  A 0.68 0.68 0.0 0 1 146.59 266.21
  L 147.05 266.36
  A 6.31 1.86 18.6 0 1 152.44 270.14
  L 152.39 270.29
  A 6.31 1.86 18.6 0 1 145.82 270.04
  L 145.35 269.88
  A 0.68 0.68 0.0 0 1 144.92 269.02
  L 145.73 266.63
  Z"
/>
<path fill="#00bf63" d="
  M 86.07 270.18
  A 0.68 0.68 0.0 0 1 85.53 270.98
  L 85.14 271.05
  A 5.59 1.77 -10.5 0 1 79.32 270.33
  L 79.31 270.23
  A 5.59 1.77 -10.5 0 1 84.48 267.47
  L 84.86 267.40
  A 0.68 0.68 0.0 0 1 85.66 267.94
  L 86.07 270.18
  Z"
/>
<path fill="#00bf63" d="
  M 143.13 269.86
  Q 143.80 269.22 143.76 270.15
  L 143.50 276.03
  Q 143.49 276.19 143.35 276.29
  L 138.84 279.14
  A 0.17 0.17 0.0 0 1 138.58 278.96
  Q 139.47 275.03 138.04 272.56
  Q 137.74 272.07 138.31 271.92
  C 140.31 271.41 141.50 271.41 143.13 269.86
  Z"
/>
<path fill="#00bf63" d="
  M 93.55 279.15
  Q 93.78 280.04 92.99 279.56
  L 87.98 276.48
  Q 87.84 276.40 87.82 276.23
  L 87.51 270.90
  A 0.17 0.17 0.0 0 1 87.79 270.76
  Q 90.80 273.44 93.65 273.39
  Q 94.23 273.37 94.08 273.94
  C 93.56 275.93 92.98 276.97 93.55 279.15
  Z"
/>
<path fill="#00bf63" d="
  M 134.57 271.12
  A 0.27 0.27 0.0 0 1 134.95 271.11
  L 135.21 271.34
  A 6.82 5.40 42.9 0 1 136.53 279.94
  L 136.38 280.10
  A 6.82 5.40 42.9 0 1 127.71 279.42
  L 127.45 279.18
  A 0.27 0.27 0.0 0 1 127.44 278.80
  L 134.57 271.12
  Z"
/>
<path fill="#00bf63" d="
  M 145.03 277.27
  L 145.03 271.77
  A 0.18 0.18 0.0 0 1 145.27 271.60
  Q 149.49 273.21 152.03 272.04
  Q 153.91 271.17 153.91 273.25
  L 153.91 281.98
  Q 153.91 282.36 153.59 282.56
  L 146.43 287.15
  A 1.09 1.09 0.0 0 1 144.76 286.29
  Q 144.56 282.87 141.61 279.81
  Q 141.23 279.42 141.65 279.08
  Q 142.80 278.15 144.65 277.73
  Q 145.03 277.65 145.03 277.27
  Z
  M 148.0177 279.5591
  A 0.75 0.58 80.2 0 0 148.4615 278.7213
  A 0.75 0.58 80.2 0 0 147.7623 278.0809
  A 0.75 0.58 80.2 0 0 147.3185 278.9187
  A 0.75 0.58 80.2 0 0 148.0177 279.5591
  Z
  M 151.28 280.53
  Q 150.93 281.31 151.43 281.69
  A 0.54 0.53 -68.2 0 0 152.28 281.32
  Q 152.33 280.86 151.95 280.42
  A 0.41 0.40 -53.8 0 0 151.28 280.53
  Z"
/>
<path fill="#00bf63" d="
  M 86.12 277.52
  Q 88.51 278.41 90.48 280.06
  Q 90.87 280.39 90.48 280.72
  Q 87.52 283.30 87.06 286.83
  Q 86.87 288.26 85.63 287.51
  L 78.45 283.12
  Q 78.01 282.86 77.95 282.36
  Q 77.26 277.21 78.05 272.80
  A 0.86 0.86 0.0 0 1 79.23 272.17
  Q 82.05 273.35 85.50 272.30
  Q 86.01 272.14 86.06 272.68
  Q 86.28 274.80 85.69 276.62
  A 0.73 0.73 0.0 0 0 86.12 277.52
  Z
  M 82.70 278.79
  Q 81.64 279.98 83.19 279.89
  Q 83.52 279.88 83.63 279.59
  Q 83.81 279.08 83.34 278.80
  Q 82.91 278.56 82.70 278.79
  Z
  M 78.72 281.60
  Q 78.62 282.08 79.12 282.54
  A 0.37 0.37 0.0 0 0 79.72 282.36
  Q 79.93 281.53 79.38 281.27
  A 0.47 0.47 0.0 0 0 78.72 281.60
  Z"
/>
<path fill="#00bf63" d="
  M 103.39 278.99
  A 0.27 0.27 0.0 0 1 103.41 279.37
  L 103.30 279.48
  A 5.96 4.59 -47.2 0 1 95.89 280.73
  L 95.86 280.71
  A 5.96 4.59 -47.2 0 1 96.54 273.22
  L 96.64 273.11
  A 0.27 0.27 0.0 0 1 97.02 273.09
  L 103.39 278.99
  Z"
/>
<ellipse fill="#ffffff" cx="0.00" cy="0.00" transform="translate(147.89,278.82) rotate(80.2)" rx="0.75" ry="0.58"/>
<path fill="#ffffff" d="
  M 82.70 278.79
  Q 82.91 278.56 83.34 278.80
  Q 83.81 279.08 83.63 279.59
  Q 83.52 279.88 83.19 279.89
  Q 81.64 279.98 82.70 278.79
  Z"
/>
<path fill="#00bf63" d="
  M 125.81 279.61
  A 0.27 0.27 0.0 0 1 126.15 279.79
  L 126.27 280.15
  A 6.13 4.65 72.0 0 1 123.74 287.42
  L 123.57 287.47
  A 6.13 4.65 72.0 0 1 117.26 283.08
  L 117.14 282.72
  A 0.27 0.27 0.0 0 1 117.31 282.38
  L 125.81 279.61
  Z"
/>
<path fill="#00bf63" d="
  M 115.53 282.63
  A 0.21 0.21 0.0 0 1 115.68 282.88
  L 115.67 282.95
  A 6.68 5.36 -76.2 0 1 108.87 288.16
  L 108.69 288.12
  A 6.68 5.36 -76.2 0 1 105.08 280.35
  L 105.10 280.28
  A 0.21 0.21 0.0 0 1 105.35 280.13
  L 115.53 282.63
  Z"
/>
<path fill="#ffffff" d="
  M 151.28 280.53
  A 0.41 0.40 -53.8 0 1 151.95 280.42
  Q 152.33 280.86 152.28 281.32
  A 0.54 0.53 -68.2 0 1 151.43 281.69
  Q 150.93 281.31 151.28 280.53
  Z"
/>
<path fill="#00bf63" d="
  M 139.11 280.65
  A 0.89 0.89 0.0 0 1 140.36 280.72
  L 140.74 281.14
  A 6.21 2.32 48.5 0 1 143.11 287.33
  L 142.96 287.46
  A 6.21 2.32 48.5 0 1 137.11 284.35
  L 136.74 283.93
  A 0.89 0.89 0.0 0 1 136.82 282.68
  L 139.11 280.65
  Z"
/>
<path fill="#ffffff" d="
  M 78.72 281.60
  A 0.47 0.47 0.0 0 1 79.38 281.27
  Q 79.93 281.53 79.72 282.36
  A 0.37 0.37 0.0 0 1 79.12 282.54
  Q 78.62 282.08 78.72 281.60
  Z"
/>
<path fill="#00bf63" d="
  M 95.25 284.89
  Q 92.90 287.59 89.37 288.00
  A 0.95 0.95 0.0 0 1 88.35 286.79
  Q 89.44 282.95 92.12 281.58
  Q 92.61 281.33 93.13 281.51
  Q 95.25 282.22 95.51 284.03
  Q 95.58 284.52 95.25 284.89
  Z"
/>
<path fill="#00bf63" d="
  M 97.38 282.95
  C 99.55 283.43 100.57 282.82 102.52 282.23
  Q 103.08 282.06 103.08 282.64
  Q 103.13 285.46 105.90 288.34
  A 0.17 0.17 0.0 0 1 105.77 288.62
  L 100.48 288.51
  Q 100.31 288.50 100.22 288.37
  L 96.99 283.51
  Q 96.48 282.75 97.38 282.95
  Z"
/>
<path fill="#00bf63" d="
  M 126.20 287.25
  C 127.71 285.62 127.70 284.44 128.17 282.47
  Q 128.31 281.90 128.81 282.19
  Q 131.26 283.57 135.13 282.65
  A 0.17 0.17 0.0 0 1 135.30 282.90
  L 132.54 287.39
  Q 132.44 287.53 132.29 287.54
  L 126.49 287.86
  Q 125.58 287.91 126.20 287.25
  Z"
/>
<path fill="#00bf63" d="
  M 133.61 288.96
  Q 134.09 287.11 135.40 285.37
  Q 135.75 284.92 136.10 285.37
  Q 138.85 288.81 142.22 288.99
  Q 143.80 289.08 142.98 290.42
  L 138.90 297.27
  Q 138.28 298.30 137.06 298.28
  L 128.60 298.16
  Q 127.07 298.13 127.62 296.71
  Q 128.82 293.71 127.78 290.01
  Q 127.60 289.35 128.28 289.36
  L 132.98 289.44
  A 0.64 0.64 0.0 0 0 133.61 288.96
  Z
  M 135.17 291.47
  A 0.63 0.63 0.0 0 0 134.54 290.84
  A 0.63 0.63 0.0 0 0 133.91 291.47
  A 0.63 0.63 0.0 0 0 134.54 292.10
  A 0.63 0.63 0.0 0 0 135.17 291.47
  Z
  M 136.13 294.99
  Q 135.93 295.56 136.73 295.86
  A 0.50 0.50 0.0 0 0 137.39 295.52
  Q 137.51 295.00 137.13 294.69
  A 0.64 0.63 -61.5 0 0 136.13 294.99
  Z"
/>
<path fill="#00bf63" d="
  M 120.90 288.89
  Q 121.78 289.13 120.98 289.56
  L 115.92 292.29
  Q 115.78 292.37 115.63 292.30
  L 110.98 289.94
  A 0.17 0.16 49.1 0 1 111.00 289.64
  Q 114.74 288.41 116.09 285.98
  Q 116.36 285.48 116.77 285.89
  C 118.19 287.30 118.79 288.31 120.90 288.89
  Z"
/>
<path fill="#00bf63" d="
  M 99.63 290.52
  Q 102.30 289.90 103.85 290.10
  Q 104.41 290.17 104.23 290.71
  Q 102.92 294.40 104.26 297.25
  Q 104.51 297.78 103.94 297.94
  Q 101.19 298.73 100.31 298.62
  Q 96.52 298.15 94.92 298.49
  Q 93.34 298.83 92.61 297.40
  L 89.04 290.55
  Q 88.49 289.49 89.68 289.41
  Q 93.01 289.17 96.20 286.08
  Q 96.57 285.72 96.94 286.07
  Q 98.03 287.07 99.44 290.43
  Q 99.50 290.54 99.63 290.52
  Z
  M 97.87 293.04
  A 0.75 0.75 0.0 0 0 97.12 292.29
  A 0.75 0.75 0.0 0 0 96.37 293.04
  A 0.75 0.75 0.0 0 0 97.12 293.79
  A 0.75 0.75 0.0 0 0 97.87 293.04
  Z
  M 94.02 296.59
  Q 93.91 296.86 94.07 297.10
  Q 94.20 297.27 94.48 297.27
  Q 94.92 297.26 95.10 296.93
  A 0.48 0.46 -40.1 0 0 95.14 296.56
  Q 95.00 296.09 94.57 296.15
  A 0.70 0.67 -82.5 0 0 94.02 296.59
  Z"
/>
<path fill="#00bf63" d="
  M 125.27 289.42
  A 0.74 0.74 0.0 0 1 126.16 289.96
  L 126.29 290.52
  A 5.91 1.78 76.4 0 1 125.95 296.68
  L 125.64 296.76
  A 5.91 1.78 76.4 0 1 122.52 291.43
  L 122.39 290.88
  A 0.74 0.74 0.0 0 1 122.93 289.98
  L 125.27 289.42
  Z"
/>
<path fill="#00bf63" d="
  M 109.37 290.70
  A 0.68 0.68 0.0 0 1 109.79 291.57
  L 109.53 292.30
  A 5.58 1.92 -70.4 0 1 105.84 296.91
  L 105.69 296.86
  A 5.58 1.92 -70.4 0 1 105.76 290.96
  L 106.02 290.22
  A 0.68 0.68 0.0 0 1 106.89 289.81
  L 109.37 290.70
  Z"
/>
<circle fill="#ffffff" cx="134.54" cy="291.47" r="0.63"/>
<path fill="#00bf63" d="
  M 115.02 294.18
  A 0.75 0.75 0.0 0 0 116.07 294.19
  Q 117.92 292.47 120.66 291.59
  A 0.45 0.44 76.9 0 1 121.24 291.95
  Q 121.70 295.60 124.34 297.67
  Q 125.34 298.46 124.26 299.16
  L 116.27 304.33
  A 0.83 0.83 0.0 0 1 115.37 304.33
  C 112.96 302.73 109.20 301.33 107.09 298.94
  Q 106.79 298.61 107.15 298.33
  Q 110.20 295.89 111.09 292.28
  Q 111.21 291.80 111.68 291.97
  Q 113.42 292.62 115.02 294.18
  Z
  M 115.22 296.21
  Q 115.04 296.52 115.09 296.71
  A 0.55 0.55 0.0 0 0 115.75 297.09
  Q 116.26 296.97 116.38 296.62
  A 0.45 0.45 0.0 0 0 116.15 296.08
  Q 115.48 295.76 115.22 296.21
  Z
  M 116.45 301.01
  A 0.65 0.65 0.0 0 0 115.80 300.36
  A 0.65 0.65 0.0 0 0 115.15 301.01
  A 0.65 0.65 0.0 0 0 115.80 301.66
  A 0.65 0.65 0.0 0 0 116.45 301.01
  Z"
/>
<circle fill="#ffffff" cx="97.12" cy="293.04" r="0.75"/>
<path fill="#ffffff" d="
  M 136.13 294.99
  A 0.64 0.63 -61.5 0 1 137.13 294.69
  Q 137.51 295.00 137.39 295.52
  A 0.50 0.50 0.0 0 1 136.73 295.86
  Q 135.93 295.56 136.13 294.99
  Z"
/>
<path fill="#ffffff" d="
  M 115.22 296.21
  Q 115.48 295.76 116.15 296.08
  A 0.45 0.45 0.0 0 1 116.38 296.62
  Q 116.26 296.97 115.75 297.09
  A 0.55 0.55 0.0 0 1 115.09 296.71
  Q 115.04 296.52 115.22 296.21
  Z"
/>
<path fill="#ffffff" d="
  M 94.02 296.59
  A 0.70 0.67 -82.5 0 1 94.57 296.15
  Q 95.00 296.09 95.14 296.56
  A 0.48 0.46 -40.1 0 1 95.10 296.93
  Q 94.92 297.26 94.48 297.27
  Q 94.20 297.27 94.07 297.10
  Q 93.91 296.86 94.02 296.59
  Z"
/>
<circle fill="#ffffff" cx="115.80" cy="301.01" r="0.65"/>
</svg>
