<?xml version="1.0" encoding="UTF-8" standalone="no"?>
<!DOCTYPE svg PUBLIC "-//W3C//DTD SVG 1.1//EN" "http://www.w3.org/Graphics/SVG/1.1/DTD/svg11.dtd">
<svg xmlns="http://www.w3.org/2000/svg" version="1.1" viewBox="0.00 0.00 500.00 500.00">
<path fill="#ffffff" d="
  M 227.64 286.52
  C 223.10 275.40 224.89 262.42 233.62 254.13
  C 242.57 245.63 256.95 245.21 266.76 253.26
  Q 267.25 253.66 267.25 253.03
  L 267.25 249.62
  Q 267.25 249.04 267.83 249.04
  L 284.50 249.04
  Q 284.95 249.04 284.95 249.49
  L 284.95 299.53
  Q 284.95 300.00 284.48 300.00
  L 268.07 300.00
  A 0.64 0.63 -90.0 0 1 267.44 299.36
  L 267.44 294.99
  Q 267.44 294.29 266.93 294.78
  Q 259.61 301.88 250.24 301.54
  Q 235.25 301.00 228.17 287.62
  A 0.05 0.03 29.2 0 0 228.09 287.63
  Q 228.10 287.67 228.09 287.69
  Q 228.08 287.71 228.09 287.75
  Q 229.50 290.74 230.65 292.75
  A 1.53 1.53 0.0 0 1 230.10 294.83
  C 218.43 301.81 203.06 303.49 190.25 299.29
  C 175.11 294.32 162.03 280.73 160.13 264.23
  Q 159.98 262.88 159.38 264.11
  Q 157.69 267.61 155.25 270.07
  Q 154.56 270.77 154.86 271.70
  C 156.10 275.51 155.11 279.77 155.42 283.20
  Q 155.47 283.74 154.94 283.86
  C 153.86 284.11 152.15 284.98 151.28 285.72
  Q 148.48 288.10 145.32 288.61
  Q 144.81 288.69 144.66 289.20
  Q 143.62 292.79 140.38 297.49
  Q 140.11 297.89 140.03 298.36
  Q 139.87 299.32 139.37 299.86
  Q 139.00 300.25 138.54 299.99
  Q 137.28 299.29 136.48 299.44
  Q 131.02 300.47 127.02 299.22
  Q 126.51 299.06 126.16 299.46
  C 123.53 302.50 119.52 303.78 116.47 305.82
  A 1.26 1.25 -42.5 0 1 115.00 305.76
  Q 113.28 304.40 111.29 303.58
  C 108.76 302.55 107.58 301.49 105.61 299.64
  Q 105.24 299.29 104.76 299.44
  Q 101.25 300.55 97.58 300.01
  C 95.55 299.70 94.56 299.78 92.83 300.03
  Q 92.33 300.10 92.11 299.65
  L 87.21 289.96
  A 1.27 1.27 0.0 0 0 86.64 289.39
  L 76.36 284.26
  Q 75.87 284.02 75.98 283.49
  C 76.13 282.70 76.45 281.51 76.35 280.78
  Q 75.61 275.45 76.92 271.32
  Q 77.01 271.02 76.77 270.81
  Q 73.98 268.43 72.47 265.12
  A 0.19 0.19 0.0 0 0 72.11 265.20
  L 72.11 299.44
  Q 72.11 300.00 71.56 300.00
  L 53.81 300.00
  Q 53.36 300.00 53.12 299.62
  L 21.26 249.89
  Q 20.69 248.99 20.69 250.05
  L 20.69 299.53
  Q 20.69 300.00 20.22 300.00
  L 2.45 300.00
  Q 1.91 300.00 1.91 299.45
  L 1.91 218.57
  Q 1.91 218.05 2.43 218.05
  L 20.20 218.05
  Q 20.69 218.05 20.96 218.47
  L 52.78 268.15
  Q 53.33 269.01 53.33 267.99
  L 53.33 218.60
  A 0.55 0.55 0.0 0 1 53.88 218.05
  L 71.55 218.05
  A 0.56 0.56 0.0 0 1 72.11 218.61
  L 72.11 254.88
  Q 72.11 256.24 72.71 255.02
  Q 74.04 252.33 76.21 250.25
  Q 76.89 249.60 76.51 248.73
  Q 75.77 247.06 75.86 245.20
  Q 76.11 239.80 75.90 237.53
  Q 75.87 237.08 76.26 236.87
  L 86.12 231.65
  Q 86.48 231.46 86.67 231.09
  L 91.71 220.97
  Q 91.95 220.50 92.46 220.61
  Q 94.87 221.15 95.25 221.08
  Q 99.96 220.17 104.34 221.56
  Q 104.82 221.72 105.15 221.33
  Q 107.69 218.34 110.27 217.28
  Q 114.01 215.75 115.28 214.63
  Q 115.71 214.26 116.19 214.56
  L 126.39 220.95
  Q 126.73 221.16 127.12 221.07
  Q 131.40 220.06 136.25 220.78
  Q 136.83 220.86 138.36 220.48
  Q 138.87 220.36 139.11 220.82
  L 144.49 231.07
  Q 144.64 231.36 144.95 231.45
  C 148.96 232.61 151.32 234.83 154.85 236.39
  Q 155.31 236.59 155.28 237.10
  C 155.24 237.96 154.85 239.41 155.05 240.65
  Q 155.75 245.04 154.52 248.88
  Q 154.36 249.39 154.75 249.75
  Q 157.66 252.43 159.38 256.29
  Q 159.68 256.99 159.78 256.23
  Q 161.49 241.98 169.94 232.44
  C 183.55 217.05 203.77 212.85 223.21 219.77
  Q 227.41 221.27 230.83 223.89
  Q 231.15 224.13 230.97 224.49
  L 223.41 239.63
  A 0.32 0.32 0.0 0 1 222.96 239.77
  Q 208.87 231.33 193.82 237.73
  Q 186.88 240.68 183.20 247.66
  Q 175.78 261.72 185.84 274.26
  C 194.50 285.06 211.73 285.30 222.67 278.41
  Q 223.20 278.07 223.49 278.63
  L 227.49 286.58
  A 0.08 0.08 0.0 0 0 227.64 286.52
  Z
  M 116.31 226.37
  Q 117.71 227.74 119.49 228.52
  Q 120.00 228.75 120.17 228.21
  Q 121.48 224.22 123.73 222.66
  Q 125.32 221.57 123.64 220.62
  L 116.26 216.38
  Q 115.86 216.14 115.45 216.35
  C 111.73 218.20 108.58 219.42 106.64 221.80
  Q 106.31 222.22 106.72 222.54
  Q 109.58 224.79 110.05 228.51
  A 0.49 0.49 0.0 0 0 110.69 228.92
  Q 113.41 228.05 115.31 226.34
  A 0.73 0.73 0.0 0 1 116.31 226.37
  Z
  M 132.41 230.78
  Q 132.94 232.93 134.40 234.63
  A 0.42 0.41 -42.8 0 0 135.01 234.65
  Q 138.14 231.55 141.65 231.30
  Q 143.25 231.18 142.45 229.79
  L 138.59 223.10
  Q 137.92 221.95 136.60 222.15
  Q 135.05 222.40 131.50 221.86
  Q 130.57 221.71 127.63 222.52
  Q 127.07 222.68 127.29 223.21
  Q 128.61 226.37 127.14 229.86
  Q 126.95 230.30 127.42 230.30
  L 131.78 230.30
  Q 132.29 230.30 132.41 230.78
  Z
  M 97.45 231.34
  A 0.71 0.70 14.4 0 1 98.29 230.85
  Q 100.68 231.41 103.38 230.89
  A 0.47 0.47 0.0 0 0 103.73 230.25
  Q 102.41 226.89 103.79 223.66
  Q 103.99 223.20 103.52 223.00
  C 100.78 221.88 97.55 222.31 93.55 222.47
  Q 93.11 222.48 92.88 222.87
  L 88.59 229.86
  Q 87.62 231.44 89.47 231.63
  Q 92.09 231.90 95.04 234.68
  Q 95.43 235.05 95.76 234.62
  Q 96.91 233.14 97.45 231.34
  Z
  M 122.10 229.78
  L 124.46 230.61
  A 0.71 0.71 0.0 0 0 125.36 230.17
  L 125.58 229.56
  A 5.64 1.89 -70.6 0 0 125.67 223.61
  L 125.54 223.57
  A 5.64 1.89 -70.6 0 0 121.88 228.26
  L 121.66 228.87
  A 0.71 0.71 0.0 0 0 122.10 229.78
  Z
  M 105.90 230.83
  L 107.97 230.46
  A 0.71 0.71 0.0 0 0 108.54 229.63
  L 108.38 228.70
  A 5.32 1.71 79.8 0 0 105.75 223.77
  L 105.65 223.78
  A 5.32 1.71 79.8 0 0 104.91 229.32
  L 105.08 230.26
  A 0.71 0.71 0.0 0 0 105.90 230.83
  Z
  M 114.40 234.54
  Q 114.75 234.99 115.07 234.52
  Q 117.03 231.61 120.39 230.72
  A 0.11 0.11 0.0 0 0 120.42 230.52
  L 115.73 228.04
  A 0.52 0.51 43.4 0 0 115.25 228.05
  L 110.11 230.87
  Q 109.65 231.12 110.11 231.36
  C 112.60 232.65 113.08 232.89 114.40 234.54
  Z
  M 115.67 237.62
  L 125.73 240.26
  A 0.18 0.18 0.0 0 0 125.95 240.13
  L 125.98 240.00
  A 6.78 5.25 -75.3 0 0 122.63 232.11
  L 122.38 232.04
  A 6.78 5.25 -75.3 0 0 115.58 237.27
  L 115.54 237.40
  A 0.18 0.18 0.0 0 0 115.67 237.62
  Z
  M 128.73 238.03
  C 130.62 237.13 131.15 237.13 133.92 237.06
  Q 134.44 237.05 134.14 236.63
  L 130.79 231.89
  A 0.52 0.51 -17.3 0 0 130.37 231.68
  L 125.13 231.84
  A 0.11 0.11 0.0 0 0 125.06 232.03
  Q 127.66 234.28 128.14 237.71
  Q 128.22 238.27 128.73 238.03
  Z
  M 102.96 237.77
  C 103.17 235.70 103.44 235.25 104.82 232.86
  Q 105.07 232.42 104.56 232.46
  L 98.81 232.85
  A 0.51 0.50 -76.0 0 0 98.41 233.10
  L 95.84 237.64
  A 0.11 0.11 0.0 0 0 95.96 237.79
  Q 99.22 236.74 102.38 238.11
  Q 102.90 238.33 102.96 237.77
  Z
  M 105.07 240.17
  L 113.73 237.71
  A 0.21 0.21 0.0 0 0 113.87 237.45
  L 113.84 237.34
  A 6.02 4.68 74.1 0 0 107.69 232.83
  L 107.63 232.85
  A 6.02 4.68 74.1 0 0 104.78 239.92
  L 104.81 240.03
  A 0.21 0.21 0.0 0 0 105.07 240.17
  Z
  M 136.02 237.10
  L 137.74 239.06
  A 1.10 1.10 0.0 0 0 139.29 239.16
  L 139.94 238.60
  A 5.88 2.29 -41.2 0 0 142.85 233.00
  L 142.71 232.84
  A 5.88 2.29 -41.2 0 0 136.77 234.99
  L 136.13 235.55
  A 1.10 1.10 0.0 0 0 136.02 237.10
  Z
  M 144.96 243.35
  L 144.96 247.79
  Q 144.96 248.38 145.52 248.23
  Q 149.11 247.28 152.73 248.35
  Q 153.21 248.49 153.33 248.01
  C 154.12 244.78 153.54 241.43 153.67 239.22
  Q 153.77 237.70 152.44 236.94
  L 146.02 233.23
  Q 144.39 232.28 144.30 234.17
  Q 144.15 237.43 140.76 240.05
  A 0.38 0.37 44.5 0 0 140.77 240.65
  Q 142.43 241.89 144.19 242.35
  Q 144.96 242.56 144.96 243.35
  Z
  M 91.95 239.69
  L 94.29 237.63
  A 0.91 0.91 0.0 0 0 94.37 236.34
  L 94.11 236.04
  A 6.05 2.35 48.6 0 0 88.35 233.06
  L 88.17 233.22
  A 6.05 2.35 48.6 0 0 90.40 239.31
  L 90.67 239.61
  A 0.91 0.91 0.0 0 0 91.95 239.69
  Z
  M 86.35 242.56
  Q 88.12 242.02 89.57 240.89
  Q 90.00 240.56 89.63 240.18
  Q 86.89 237.28 86.61 234.70
  Q 86.43 232.88 84.87 233.84
  L 77.99 238.08
  Q 77.61 238.30 77.60 238.74
  C 77.46 242.68 77.04 245.86 78.15 248.56
  Q 78.35 249.02 78.80 248.82
  Q 81.98 247.46 85.29 248.75
  A 0.47 0.46 16.2 0 0 85.92 248.41
  Q 86.43 245.74 85.87 243.39
  A 0.70 0.69 75.5 0 1 86.35 242.56
  Z
  M 127.31 241.35
  L 133.64 247.63
  A 0.25 0.25 0.0 0 0 134.00 247.63
  L 134.18 247.45
  A 6.45 4.60 -45.2 0 0 135.46 239.63
  L 135.30 239.47
  A 6.45 4.60 -45.2 0 0 127.50 240.81
  L 127.31 240.99
  A 0.25 0.25 0.0 0 0 127.31 241.35
  Z
  M 95.97 248.45
  L 103.22 241.02
  A 0.20 0.20 0.0 0 0 103.22 240.73
  L 103.15 240.67
  A 6.27 5.29 44.3 0 0 94.97 240.08
  L 94.83 240.22
  A 6.27 5.29 44.3 0 0 95.63 248.39
  L 95.69 248.45
  A 0.20 0.20 0.0 0 0 95.97 248.45
  Z
  M 137.17 246.25
  Q 136.97 246.78 137.53 246.83
  Q 141.01 247.09 143.43 249.56
  A 0.11 0.11 0.0 0 0 143.61 249.48
  L 143.44 244.20
  A 0.52 0.51 -76.3 0 0 143.20 243.80
  L 138.23 240.74
  Q 137.79 240.47 137.81 240.98
  C 137.92 243.77 137.95 244.30 137.17 246.25
  Z
  M 92.82 248.32
  Q 93.38 248.24 93.14 247.73
  Q 91.61 244.58 92.53 241.23
  A 0.11 0.11 0.0 0 0 92.37 241.11
  L 87.88 243.91
  A 0.52 0.51 -16.5 0 0 87.65 244.33
  L 87.50 250.18
  Q 87.48 250.70 87.92 250.43
  C 90.28 248.93 90.73 248.63 92.82 248.32
  Z
  M 134.72 249.25
  L 137.43 259.08
  A 0.21 0.21 0.0 0 0 137.69 259.23
  L 138.05 259.13
  A 6.85 5.16 -15.4 0 0 143.29 252.34
  L 143.21 252.05
  A 6.85 5.16 -15.4 0 0 135.23 248.89
  L 134.87 248.99
  A 0.21 0.21 0.0 0 0 134.72 249.25
  Z
  M 145.15 250.50
  L 145.59 252.65
  A 0.66 0.66 0.0 0 0 146.36 253.17
  L 146.81 253.08
  A 5.80 1.72 -11.4 0 0 152.16 250.25
  L 152.14 250.17
  A 5.80 1.72 -11.4 0 0 146.12 249.63
  L 145.67 249.72
  A 0.66 0.66 0.0 0 0 145.15 250.50
  Z
  M 85.33 253.95
  L 86.19 251.56
  A 0.68 0.68 0.0 0 0 85.78 250.69
  L 85.12 250.45
  A 5.70 1.88 19.9 0 0 79.13 250.28
  L 79.08 250.41
  A 5.70 1.88 19.9 0 0 83.80 254.12
  L 84.46 254.36
  A 0.68 0.68 0.0 0 0 85.33 253.95
  Z
  M 92.83 259.11
  L 94.97 250.60
  A 0.21 0.21 0.0 0 0 94.81 250.34
  L 94.73 250.32
  A 5.88 4.53 14.1 0 0 87.92 253.28
  L 87.89 253.42
  A 5.88 4.53 14.1 0 0 92.49 259.24
  L 92.57 259.26
  A 0.21 0.21 0.0 0 0 92.83 259.11
  Z
  M 149.62 259.77
  Q 147.87 261.72 146.91 264.13
  Q 146.70 264.66 147.26 264.80
  Q 151.43 265.90 153.26 268.56
  Q 154.22 269.95 155.06 268.49
  L 159.36 261.05
  Q 159.62 260.60 159.43 260.11
  Q 157.45 254.95 154.74 251.63
  Q 153.87 250.56 153.02 251.65
  Q 151.25 253.95 147.59 254.65
  Q 147.06 254.76 147.26 255.26
  Q 148.02 257.15 149.60 258.85
  A 0.68 0.68 0.0 0 1 149.62 259.77
  Z
  M 81.69 260.77
  Q 83.41 258.81 84.33 256.40
  Q 84.54 255.87 83.98 255.74
  Q 79.82 254.69 77.97 252.07
  Q 76.99 250.70 76.18 252.16
  L 71.99 259.61
  Q 71.74 260.06 71.93 260.55
  Q 73.96 265.66 76.70 268.92
  Q 77.58 269.98 78.41 268.88
  Q 80.14 266.57 83.77 265.83
  Q 84.30 265.72 84.09 265.22
  Q 83.31 263.35 81.72 261.68
  A 0.68 0.68 0.0 0 1 81.69 260.77
  Z
  M 141.15 260.37
  C 142.89 261.62 143.16 262.09 144.60 264.55
  Q 144.86 265.00 145.09 264.52
  L 147.68 259.17
  A 0.53 0.52 43.7 0 0 147.66 258.69
  L 144.91 254.07
  A 0.11 0.11 0.0 0 0 144.71 254.10
  Q 143.99 257.55 141.15 259.69
  Q 140.69 260.03 141.15 260.37
  Z
  M 90.00 259.85
  C 88.29 258.59 88.03 258.12 86.64 255.67
  Q 86.38 255.22 86.15 255.69
  L 83.52 260.96
  A 0.53 0.51 44.4 0 0 83.53 261.44
  L 86.20 266.05
  A 0.11 0.11 0.0 0 0 86.40 266.02
  Q 87.16 262.61 90.00 260.53
  Q 90.46 260.19 90.00 259.85
  Z
  M 137.36 261.22
  L 135.41 269.41
  A 0.43 0.43 0.0 0 0 135.73 269.93
  L 136.03 270.00
  A 6.32 4.58 13.4 0 0 143.24 267.01
  L 143.27 266.89
  A 6.32 4.58 13.4 0 0 138.18 260.97
  L 137.88 260.90
  A 0.43 0.43 0.0 0 0 137.36 261.22
  Z
  M 95.70 271.34
  L 92.75 261.44
  A 0.20 0.20 0.0 0 0 92.50 261.30
  L 92.42 261.32
  A 6.30 5.30 -16.6 0 0 87.90 268.20
  L 87.94 268.34
  A 6.30 5.30 -16.6 0 0 95.49 271.62
  L 95.57 271.59
  A 0.20 0.20 0.0 0 0 95.70 271.34
  Z
  M 267.76 274.56
  A 11.94 11.94 0.0 0 0 255.82 262.62
  A 11.94 11.94 0.0 0 0 243.88 274.56
  A 11.94 11.94 0.0 0 0 255.82 286.50
  A 11.94 11.94 0.0 0 0 267.76 274.56
  Z
  M 145.69 266.63
  L 144.89 269.04
  A 0.67 0.67 0.0 0 0 145.32 269.88
  L 145.82 270.05
  A 6.30 1.86 18.3 0 0 152.39 270.26
  L 152.44 270.11
  A 6.30 1.86 18.3 0 0 147.04 266.37
  L 146.53 266.20
  A 0.67 0.67 0.0 0 0 145.69 266.63
  Z
  M 86.08 270.18
  L 85.69 267.97
  A 0.69 0.69 0.0 0 0 84.89 267.42
  L 84.43 267.50
  A 5.50 1.74 -10.1 0 0 79.32 270.18
  L 79.34 270.31
  A 5.50 1.74 -10.1 0 0 85.06 271.06
  L 85.53 270.98
  A 0.69 0.69 0.0 0 0 86.08 270.18
  Z
  M 138.43 271.96
  Q 137.88 272.04 138.11 272.54
  Q 139.58 275.67 138.63 278.95
  A 0.11 0.11 0.0 0 0 138.79 279.07
  L 143.25 276.36
  A 0.51 0.50 -15.8 0 0 143.48 275.96
  L 143.69 270.19
  Q 143.72 269.68 143.28 269.94
  C 140.94 271.40 140.49 271.68 138.43 271.96
  Z
  M 94.02 274.00
  Q 94.23 273.47 93.66 273.43
  Q 90.17 273.17 87.73 270.70
  A 0.11 0.11 0.0 0 0 87.54 270.78
  L 87.72 276.08
  A 0.52 0.51 -76.4 0 0 87.97 276.49
  L 92.97 279.55
  Q 93.41 279.82 93.39 279.31
  C 93.27 276.51 93.24 275.97 94.02 274.00
  Z
  M 134.57 271.02
  L 127.38 278.87
  A 0.22 0.22 0.0 0 0 127.39 279.18
  L 127.62 279.39
  A 6.95 5.42 42.5 0 0 136.41 280.09
  L 136.57 279.91
  A 6.95 5.42 42.5 0 0 135.11 271.22
  L 134.88 271.01
  A 0.22 0.22 0.0 0 0 134.57 271.02
  Z
  M 144.55 277.72
  Q 142.80 277.96 141.64 279.15
  Q 141.29 279.51 141.64 279.88
  Q 144.42 282.79 144.80 286.43
  A 0.91 0.90 -17.8 0 0 146.15 287.12
  L 152.80 283.28
  Q 153.91 282.63 153.91 281.35
  L 153.91 273.07
  Q 153.91 271.22 152.21 271.96
  Q 149.32 273.23 145.51 271.68
  Q 145.02 271.48 145.02 272.01
  L 145.02 277.19
  Q 145.02 277.65 144.55 277.72
  Z
  M 86.11 277.60
  A 0.66 0.66 0.0 0 1 85.71 276.81
  Q 86.26 274.65 86.03 272.71
  Q 85.97 272.19 85.47 272.34
  Q 82.06 273.44 79.51 272.31
  Q 78.29 271.78 78.05 273.09
  Q 77.29 277.14 77.99 282.40
  Q 78.05 282.90 78.48 283.16
  L 85.54 287.46
  Q 86.92 288.31 87.09 286.70
  Q 87.41 283.61 90.42 280.76
  Q 90.83 280.38 90.41 280.03
  Q 88.49 278.44 86.11 277.60
  Z
  M 103.42 279.00
  L 97.00 273.09
  A 0.23 0.23 0.0 0 0 96.67 273.11
  L 96.58 273.20
  A 6.04 4.56 -47.4 0 0 95.85 280.74
  L 95.90 280.78
  A 6.04 4.56 -47.4 0 0 103.34 279.42
  L 103.43 279.32
  A 0.23 0.23 0.0 0 0 103.42 279.00
  Z
  M 125.80 279.60
  L 117.27 282.40
  A 0.26 0.26 0.0 0 0 117.10 282.73
  L 117.21 283.07
  A 6.16 4.66 71.8 0 0 123.56 287.47
  L 123.73 287.41
  A 6.16 4.66 71.8 0 0 126.24 280.10
  L 126.12 279.76
  A 0.26 0.26 0.0 0 0 125.80 279.60
  Z
  M 115.50 282.61
  L 105.38 280.11
  A 0.22 0.22 0.0 0 0 105.11 280.27
  L 105.09 280.37
  A 6.66 5.36 -76.1 0 0 108.69 288.12
  L 108.83 288.15
  A 6.66 5.36 -76.1 0 0 115.63 282.98
  L 115.66 282.88
  A 0.22 0.22 0.0 0 0 115.50 282.61
  Z
  M 139.13 280.63
  L 136.83 282.64
  A 0.88 0.88 0.0 0 0 136.75 283.89
  L 137.14 284.34
  A 6.20 2.30 48.7 0 0 142.96 287.48
  L 143.13 287.33
  A 6.20 2.30 48.7 0 0 140.76 281.16
  L 140.37 280.71
  A 0.88 0.88 0.0 0 0 139.13 280.63
  Z
  M 95.43 283.50
  L 93.53 281.37
  A 0.88 0.88 0.0 0 0 92.28 281.30
  L 91.57 281.93
  A 6.09 2.21 -41.7 0 0 88.50 287.63
  L 88.63 287.78
  A 6.09 2.21 -41.7 0 0 94.65 285.38
  L 95.36 284.75
  A 0.88 0.88 0.0 0 0 95.43 283.50
  Z
  M 102.44 282.10
  C 100.51 282.96 99.97 282.95 97.16 282.94
  Q 96.65 282.94 96.94 283.37
  L 100.20 288.25
  A 0.52 0.51 -15.9 0 0 100.62 288.48
  L 105.93 288.45
  A 0.11 0.11 0.0 0 0 106.00 288.26
  Q 103.42 285.92 103.03 282.43
  Q 102.96 281.87 102.44 282.10
  Z
  M 128.08 282.58
  C 127.86 284.67 127.59 285.13 126.19 287.55
  Q 125.94 287.99 126.46 287.96
  L 132.28 287.56
  A 0.52 0.51 -76.0 0 0 132.69 287.31
  L 135.29 282.72
  A 0.11 0.11 0.0 0 0 135.16 282.56
  Q 131.87 283.62 128.66 282.24
  Q 128.14 282.01 128.08 282.58
  Z
  M 132.69 289.45
  L 128.23 289.38
  Q 127.64 289.37 127.78 289.94
  Q 128.68 293.56 127.54 297.18
  Q 127.40 297.66 127.88 297.79
  C 131.11 298.63 134.48 298.10 136.70 298.27
  Q 138.22 298.39 139.01 297.07
  L 142.84 290.68
  Q 143.82 289.06 141.92 288.94
  Q 138.65 288.74 136.07 285.29
  A 0.38 0.38 0.0 0 0 135.47 285.29
  Q 134.20 286.94 133.71 288.70
  Q 133.48 289.47 132.69 289.45
  Z
  M 116.89 285.99
  Q 116.55 285.56 116.24 286.01
  Q 114.31 288.81 111.05 289.65
  A 0.10 0.10 0.0 0 0 111.02 289.84
  L 115.55 292.28
  A 0.51 0.50 43.8 0 0 116.01 292.28
  L 121.02 289.58
  Q 121.47 289.35 121.03 289.11
  C 118.62 287.84 118.16 287.60 116.89 285.99
  Z
  M 99.00 289.77
  Q 98.43 287.63 96.93 285.96
  A 0.42 0.41 -43.8 0 0 96.32 285.95
  Q 93.26 289.11 89.76 289.42
  Q 88.16 289.57 88.98 290.95
  L 92.97 297.56
  Q 93.66 298.69 94.97 298.47
  Q 96.52 298.19 100.07 298.66
  Q 101.01 298.79 103.93 297.93
  Q 104.48 297.76 104.25 297.23
  Q 102.88 294.10 104.28 290.59
  Q 104.46 290.14 103.99 290.15
  L 99.63 290.24
  Q 99.12 290.25 99.00 289.77
  Z
  M 125.26 289.43
  L 122.88 290.03
  A 0.73 0.73 0.0 0 0 122.35 290.92
  L 122.47 291.39
  A 6.04 1.91 75.8 0 0 125.80 296.78
  L 125.90 296.76
  A 6.04 1.91 75.8 0 0 126.27 290.43
  L 126.15 289.96
  A 0.73 0.73 0.0 0 0 125.26 289.43
  Z
  M 109.33 290.65
  L 106.89 289.79
  A 0.72 0.72 0.0 0 0 105.98 290.23
  L 105.75 290.87
  A 5.69 1.92 -70.7 0 0 105.69 296.87
  L 105.85 296.93
  A 5.69 1.92 -70.7 0 0 109.55 292.20
  L 109.77 291.56
  A 0.72 0.72 0.0 0 0 109.33 290.65
  Z
  M 115.03 294.18
  Q 113.65 292.81 111.88 292.04
  Q 111.37 291.81 111.20 292.34
  Q 109.89 296.31 107.65 297.85
  Q 106.07 298.93 107.73 299.88
  L 115.06 304.11
  Q 115.46 304.35 115.87 304.14
  C 119.57 302.31 122.71 301.11 124.64 298.74
  Q 124.97 298.33 124.56 298.01
  Q 121.72 295.76 121.26 292.07
  A 0.49 0.48 77.8 0 0 120.63 291.66
  Q 117.92 292.52 116.03 294.21
  A 0.73 0.72 -42.9 0 1 115.03 294.18
  Z"
/>
<path fill="#ffffff" d="
  M 442.39 265.68
  L 442.39 249.62
  Q 442.39 249.04 442.98 249.04
  L 459.56 249.04
  Q 460.07 249.04 460.07 249.55
  L 460.07 253.68
  Q 460.07 254.76 460.82 253.98
  Q 468.06 246.31 478.60 247.80
  C 489.46 249.33 497.09 255.15 497.25 266.77
  Q 497.38 276.46 497.24 299.48
  Q 497.24 300.00 496.72 300.00
  L 480.21 300.00
  Q 479.61 300.00 479.60 299.39
  Q 479.50 292.97 479.55 271.27
  C 479.57 262.89 470.96 258.23 464.16 263.65
  Q 459.87 267.07 460.06 272.50
  Q 460.16 275.27 460.00 299.48
  Q 460.00 300.00 459.48 300.00
  L 442.94 300.00
  Q 442.40 300.00 442.40 299.46
  L 442.40 284.11
  Q 442.40 282.72 441.84 284.00
  C 435.15 299.19 418.99 304.02 403.60 300.47
  Q 391.43 297.67 385.10 286.96
  Q 384.78 286.42 384.49 286.98
  Q 377.83 300.03 364.44 301.41
  C 357.27 302.15 350.41 300.02 345.50 294.70
  A 0.35 0.34 23.8 0 0 344.90 294.93
  L 344.90 299.57
  Q 344.90 299.99 344.48 299.99
  L 327.72 299.99
  A 0.33 0.33 0.0 0 1 327.39 299.66
  L 327.39 261.26
  Q 327.39 260.12 326.88 261.14
  L 324.89 265.12
  Q 324.64 265.62 324.17 265.32
  Q 319.25 262.21 313.53 263.08
  C 306.99 264.07 304.96 270.08 305.02 276.03
  Q 305.17 290.28 305.02 299.49
  Q 305.01 300.00 304.50 300.00
  L 288.05 300.00
  Q 287.41 300.00 287.41 299.36
  L 287.41 249.44
  A 0.40 0.40 0.0 0 1 287.81 249.04
  L 304.56 249.04
  Q 305.08 249.04 305.08 249.55
  L 305.08 255.53
  Q 305.08 256.41 305.62 255.71
  Q 313.74 245.23 326.94 248.31
  Q 327.38 248.41 327.38 247.96
  L 327.38 215.04
  Q 327.38 214.45 327.97 214.45
  L 344.52 214.45
  Q 345.08 214.45 345.08 215.01
  L 345.08 253.04
  Q 345.08 253.84 345.69 253.33
  C 351.90 248.17 359.00 246.46 367.02 248.08
  C 375.94 249.89 380.23 254.95 384.74 262.37
  Q 384.99 262.78 385.21 262.36
  C 396.62 241.48 433.04 242.52 441.98 265.75
  Q 442.39 266.83 442.39 265.68
  Z
  M 368.46 274.56
  A 11.94 11.94 0.0 0 0 356.52 262.62
  A 11.94 11.94 0.0 0 0 344.58 274.56
  A 11.94 11.94 0.0 0 0 356.52 286.50
  A 11.94 11.94 0.0 0 0 368.46 274.56
  Z
  M 424.76 274.56
  A 11.94 11.94 0.0 0 0 412.82 262.62
  A 11.94 11.94 0.0 0 0 400.88 274.56
  A 11.94 11.94 0.0 0 0 412.82 286.50
  A 11.94 11.94 0.0 0 0 424.76 274.56
  Z"
/>
<circle fill="#ffffff" cx="115.56" cy="219.55" r="0.51"/>
<circle fill="#ffffff" cx="115.55" cy="224.00" r="0.58"/>
<ellipse fill="#ffffff" cx="0.00" cy="0.00" transform="translate(135.90,224.72) rotate(13.7)" rx="0.70" ry="0.52"/>
<path fill="#ffffff" d="
  M 94.13 225.35
  A 0.41 0.41 0.0 0 1 94.53 224.93
  Q 94.91 224.93 95.18 225.24
  Q 95.43 225.53 95.18 225.82
  Q 94.94 226.09 94.66 226.10
  Q 94.35 226.11 94.25 225.86
  Q 94.14 225.60 94.13 225.35
  Z"
/>
<ellipse fill="#ffffff" cx="0.00" cy="0.00" transform="translate(133.38,228.38) rotate(38.7)" rx="0.65" ry="0.52"/>
<ellipse fill="#ffffff" cx="0.00" cy="0.00" transform="translate(96.92,229.38) rotate(-9.5)" rx="0.75" ry="0.53"/>
<path fill="#ffffff" d="
  M 150.48 238.94
  Q 151.04 238.68 151.42 238.97
  Q 151.95 239.38 151.37 239.72
  L 150.96 239.96
  A 0.32 0.32 0.0 0 1 150.52 239.84
  L 150.31 239.48
  Q 150.11 239.12 150.48 238.94
  Z"
/>
<path fill="#ffffff" d="
  M 79.82 239.76
  Q 80.09 238.26 80.98 239.57
  Q 81.15 239.82 80.91 240.18
  Q 80.59 240.63 80.18 240.26
  Q 79.79 239.92 79.82 239.76
  Z"
/>
<path fill="#ffffff" d="
  M 83.92 241.30
  A 0.47 0.47 0.0 0 1 84.66 241.34
  Q 85.03 241.89 84.83 242.40
  A 0.57 0.57 0.0 0 1 83.88 242.59
  Q 83.32 242.00 83.92 241.30
  Z"
/>
<path fill="#ffffff" d="
  M 147.10 241.38
  A 0.39 0.38 69.1 0 1 147.58 241.60
  Q 147.87 242.29 147.30 242.51
  A 0.39 0.37 67.2 0 1 146.81 242.30
  Q 146.51 241.57 147.10 241.38
  Z"
/>
<path fill="#ffffff" d="
  M 151.93 259.23
  Q 152.22 259.01 152.47 259.14
  A 0.28 0.28 0.0 0 1 152.46 259.64
  Q 152.15 259.80 151.94 259.65
  A 0.26 0.26 0.0 0 1 151.93 259.23
  Z"
/>
<path fill="#ffffff" d="
  M 156.35 259.44
  A 0.46 0.46 0.0 0 1 157.13 259.56
  Q 157.31 260.00 157.00 260.42
  A 0.47 0.46 42.3 0 1 156.27 260.45
  Q 155.90 259.99 156.35 259.44
  Z"
/>
<circle fill="#ffffff" cx="73.44" cy="260.54" r="0.50"/>
<circle fill="#ffffff" cx="147.83" cy="278.84" r="0.58"/>
<path fill="#ffffff" d="
  M 82.64 278.90
  Q 83.04 278.69 83.50 279.03
  A 0.43 0.43 0.0 0 1 83.42 279.77
  Q 83.13 279.90 82.66 279.88
  Q 82.00 279.86 82.30 279.28
  Q 82.43 279.01 82.64 278.90
  Z"
/>
<path fill="#ffffff" d="
  M 151.27 280.62
  Q 151.51 280.22 151.91 280.46
  Q 152.24 280.64 152.33 281.03
  A 0.62 0.61 77.4 0 1 151.87 281.77
  Q 151.50 281.86 151.24 281.51
  Q 150.96 281.13 151.27 280.62
  Z"
/>
<circle fill="#ffffff" cx="79.40" cy="281.88" r="0.50"/>
<circle fill="#ffffff" cx="134.55" cy="291.44" r="0.56"/>
<path fill="#ffffff" d="
  M 96.83 292.56
  Q 97.01 292.05 97.28 292.59
  Q 97.33 292.69 97.23 292.83
  Q 97.07 293.06 96.91 292.83
  Q 96.80 292.67 96.83 292.56
  Z"
/>
<circle fill="#ffffff" cx="136.77" cy="295.24" r="0.66"/>
<path fill="#ffffff" d="
  M 94.10 296.67
  Q 94.38 295.23 95.05 296.42
  Q 95.17 296.63 94.86 297.13
  A 0.36 0.36 0.0 0 1 94.26 297.15
  Q 94.06 296.86 94.10 296.67
  Z"
/>
<circle fill="#ffffff" cx="115.64" cy="296.46" r="0.47"/>
<path fill="#ffffff" d="
  M 115.58 300.54
  Q 115.79 300.47 116.04 300.59
  A 0.47 0.46 -70.8 0 1 116.29 301.11
  Q 116.23 301.38 116.02 301.52
  A 0.39 0.39 0.0 0 1 115.45 301.39
  Q 115.30 301.10 115.36 300.83
  Q 115.41 300.59 115.58 300.54
  Z"
/>
</svg>
