<?xml version="1.0" encoding="UTF-8" standalone="no"?>
<!DOCTYPE svg PUBLIC "-//W3C//DTD SVG 1.1//EN" "http://www.w3.org/Graphics/SVG/1.1/DTD/svg11.dtd">
<svg xmlns="http://www.w3.org/2000/svg" version="1.1" viewBox="0.00 0.00 1000.00 1000.00">
<g stroke-width="2.00" fill="none" stroke-linecap="butt">
<path stroke="#918f90" vector-effect="non-scaling-stroke" d="
  M 923.88 642.48
  Q 937.14 623.27 939.58 600.34
  Q 940.48 591.81 940.16 586.20
  C 939.01 566.42 925.66 544.50 903.52 545.06
  Q 882.27 545.59 868.76 561.32
  A 0.45 0.45 0.0 0 1 867.97 561.08
  C 867.14 553.90 863.88 550.06 857.71 546.67
  Q 853.32 544.27 851.04 543.43
  Q 830.70 536.03 806.72 532.81
  C 762.09 526.81 715.89 527.37 671.32 535.78
  Q 653.77 539.09 638.71 545.42
  Q 634.87 547.03 630.67 549.92
  C 627.33 552.21 623.44 557.30 625.16 561.59
  C 627.75 568.02 637.59 571.86 643.98 573.79
  Q 662.50 579.36 686.31 581.16
  Q 714.97 583.33 744.50 582.89
  Q 792.41 582.17 836.88 565.15
  Q 843.91 562.46 855.70 554.05
  Q 856.12 553.74 856.62 553.89
  L 860.84 555.14
  Q 861.30 555.28 861.18 555.74
  Q 860.02 560.43 860.40 565.25
  Q 862.16 587.42 862.65 596.11
  C 864.74 632.98 861.20 672.18 853.60 707.30
  C 847.62 734.94 838.14 762.61 821.49 785.48
  Q 811.91 798.65 800.62 805.37
  C 780.38 817.40 755.83 821.49 732.57 819.14
  C 724.48 818.32 713.24 815.82 705.45 814.65
  A 1.04 1.03 88.3 0 1 704.60 813.84
  Q 702.87 805.33 695.91 799.99
  A 0.64 0.63 37.5 0 1 695.79 799.09
  C 698.85 795.15 700.47 790.61 700.31 785.63
  Q 700.27 784.45 700.49 783.42
  Q 700.59 782.93 701.03 782.70
  C 710.09 777.99 714.78 769.80 714.55 759.48
  Q 714.41 753.29 711.87 747.53
  A 0.37 0.37 0.0 0 1 712.10 747.02
  C 727.34 742.65 727.64 724.53 715.70 716.40
  Q 715.28 716.10 715.62 715.71
  C 720.96 709.58 716.41 701.74 710.56 698.15
  C 702.46 693.19 692.36 690.56 682.97 688.88
  Q 654.45 683.77 625.44 687.91
  C 611.98 689.83 597.59 694.68 590.09 706.62
  Q 589.82 707.05 589.32 707.09
  C 575.96 708.39 562.36 716.90 556.77 729.08
  Q 553.40 736.44 555.11 743.75
  Q 556.16 748.24 562.26 751.90
  Q 562.61 752.10 562.31 752.37
  Q 556.12 757.78 556.24 766.49
  Q 556.28 769.60 556.28 769.96
  Q 556.29 770.47 555.81 770.65
  C 543.73 775.14 538.55 789.10 545.08 800.26
  C 545.94 801.72 547.61 803.03 548.79 804.44
  Q 549.06 804.76 548.86 805.13
  C 546.87 808.80 545.64 813.36 546.35 817.52
  Q 546.76 819.88 546.92 821.01
  Q 546.99 821.53 546.47 821.59
  C 542.43 822.05 503.53 827.28 506.72 834.76
  C 509.08 840.29 528.52 840.54 533.75 840.63
  Q 582.02 841.39 583.05 841.40
  C 605.85 841.65 626.37 841.33 648.26 838.87
  C 657.76 837.80 665.70 837.71 675.27 836.51
  Q 685.49 835.24 692.86 830.48
  A 1.70 1.63 29.0 0 1 693.81 830.23
  Q 715.64 831.32 739.76 829.35
  C 749.96 828.51 762.68 826.23 772.56 824.27
  Q 801.32 818.57 820.32 799.34
  Q 831.47 788.06 838.40 775.19
  Q 849.82 753.99 856.58 730.37
  Q 862.22 710.64 864.44 698.49
  Q 872.68 653.46 871.87 607.32
  Q 871.63 593.99 871.62 590.32
  Q 871.60 584.04 872.60 581.37
  Q 877.75 567.69 890.35 560.55
  C 895.52 557.61 901.09 556.92 907.07 556.06
  C 909.37 555.73 911.70 556.29 913.63 557.43
  C 924.23 563.68 930.46 576.91 930.82 589.04
  Q 931.03 596.38 929.28 606.32
  Q 923.86 637.18 900.56 657.37
  Q 897.08 660.38 890.40 664.46
  Q 883.74 668.53 879.06 672.69
  A 0.41 0.40 33.8 0 0 879.20 673.37
  Q 879.40 673.44 879.76 673.42
  C 892.61 672.46 903.66 664.87 912.47 655.90"
/>
<path stroke="#918f90" vector-effect="non-scaling-stroke" d="
  M 68.03 634.80
  C 77.12 649.90 90.56 661.38 107.85 666.26
  Q 119.80 669.63 129.25 663.92
  Q 129.75 663.62 129.54 663.09
  A 0.98 0.98 0.0 0 0 128.82 662.50
  C 121.47 661.11 116.25 660.41 111.33 658.78
  Q 88.99 651.34 75.85 630.53
  Q 62.50 609.38 58.00 583.58
  C 54.76 565.03 56.07 545.93 64.10 528.62
  Q 68.61 518.90 75.19 513.21
  C 86.78 503.15 102.09 502.93 115.08 511.35
  C 119.83 514.43 124.29 521.53 127.00 525.84
  Q 127.42 526.49 127.37 527.27
  Q 123.26 598.68 141.65 669.44
  Q 146.92 689.74 153.70 706.43
  C 160.78 723.89 170.67 740.21 181.89 755.30
  C 190.27 766.57 199.77 776.49 210.10 785.62
  Q 210.53 786.00 209.99 786.18
  Q 209.56 786.33 206.59 786.67
  Q 177.40 789.96 152.09 796.62
  C 145.96 798.23 138.02 800.56 134.29 804.84
  A 2.20 2.20 0.0 0 0 134.46 807.91
  C 137.06 810.32 145.93 811.25 149.63 811.64
  Q 163.69 813.10 179.39 813.59
  Q 200.85 814.25 241.01 814.98
  C 254.52 815.23 268.86 814.83 284.17 815.02
  Q 295.70 815.16 300.92 814.77
  Q 308.30 814.22 317.52 812.69
  C 361.24 805.44 385.31 771.24 397.98 731.72
  Q 407.19 702.99 410.72 670.25
  Q 413.07 648.37 413.48 633.75
  Q 414.87 584.33 418.93 537.22
  C 420.39 520.36 420.61 512.50 421.77 490.31
  Q 421.79 489.91 421.38 489.92
  Q 421.25 489.92 421.11 489.98
  Q 420.89 490.10 420.75 490.43
  Q 418.60 495.75 417.33 500.33
  Q 411.75 520.40 409.78 539.77
  Q 405.56 581.36 404.60 623.26
  Q 403.92 653.02 399.98 681.75
  C 393.13 731.60 373.87 793.00 315.78 803.29
  C 294.99 806.97 272.48 806.19 252.77 798.98
  C 235.13 792.53 219.76 782.27 206.53 768.59
  C 185.80 747.14 169.02 720.83 158.93 692.22
  Q 151.54 671.24 146.64 648.46
  Q 132.39 582.26 138.44 510.53
  Q 139.27 500.69 139.19 498.05
  Q 139.16 496.81 138.87 495.72
  A 0.36 0.36 0.0 0 1 139.38 495.30
  Q 164.81 507.63 193.77 512.49
  Q 234.59 519.34 276.27 518.44
  Q 285.06 518.25 296.24 517.32
  Q 328.28 514.65 359.88 509.11
  Q 379.89 505.60 397.33 500.23
  Q 400.52 499.25 403.40 497.95
  C 408.83 495.50 416.47 491.66 412.44 484.51
  C 407.51 475.75 389.38 470.70 380.10 468.66
  Q 352.69 462.61 324.34 461.26
  Q 263.42 458.35 205.65 469.14
  Q 178.48 474.21 153.03 483.04
  Q 146.02 485.47 138.19 489.93
  Q 137.16 490.51 136.47 491.49
  Q 132.84 496.65 131.29 503.08
  Q 131.17 503.59 130.74 503.28
  C 129.19 502.13 127.31 500.60 125.71 499.77
  Q 110.68 491.92 93.84 494.09
  C 84.65 495.27 77.63 498.62 70.65 504.67
  C 48.48 523.86 44.46 556.83 48.71 584.27
  Q 52.25 607.19 65.05 630.06"
/>
<path stroke="#918f90" vector-effect="non-scaling-stroke" d="
  M 384.35 245.18
  A 0.46 0.46 0.0 0 1 385.03 245.60
  C 384.87 254.82 378.58 263.56 371.52 269.53
  C 361.41 278.08 349.73 284.63 338.16 290.64
  C 317.55 301.33 290.26 314.29 270.32 331.25
  Q 257.85 341.84 251.06 357.79
  C 241.37 380.51 248.21 406.57 268.55 420.99
  Q 272.22 423.59 275.71 424.89
  A 0.77 0.77 0.0 0 0 276.71 423.93
  Q 275.27 419.36 272.43 415.61
  Q 267.14 408.62 263.35 401.93
  Q 252.06 382.00 261.30 361.03
  Q 266.01 350.33 272.94 343.43
  Q 283.98 332.44 298.39 324.10
  C 316.58 313.57 335.80 304.28 348.24 297.76
  Q 365.67 288.62 378.18 277.96
  C 390.00 267.88 396.66 255.44 394.71 239.86
  A 1.50 1.50 0.0 0 1 395.37 238.43
  C 414.36 225.77 427.45 205.80 427.83 182.75
  C 427.94 175.89 426.05 168.89 422.74 163.32
  C 414.98 150.29 408.20 140.12 407.74 126.26
  C 407.36 114.85 414.08 105.72 421.10 96.39
  Q 426.42 89.32 434.03 84.87
  Q 435.96 83.74 433.73 83.61
  Q 431.21 83.46 428.32 84.36
  C 416.48 88.06 406.58 99.13 401.67 110.44
  C 393.11 130.13 403.11 149.48 413.59 165.71
  C 417.31 171.49 419.16 177.39 418.79 184.52
  C 417.84 203.20 407.24 218.29 392.70 229.91
  A 0.48 0.47 57.8 0 1 391.98 229.74
  C 387.97 221.40 381.57 214.93 373.22 210.83
  C 358.09 203.40 337.89 203.92 323.99 213.98
  C 313.77 221.38 308.88 235.17 316.79 245.68
  C 323.80 254.98 337.66 257.67 349.03 256.26
  Q 367.35 254.00 384.35 245.18"
/>
<path stroke="#918f90" vector-effect="non-scaling-stroke" d="
  M 688.05 368.34
  C 707.01 367.20 725.86 361.73 741.58 351.14
  Q 750.44 345.17 754.16 336.70
  C 759.72 324.01 755.14 309.36 743.27 302.71
  C 730.43 295.52 713.83 298.80 702.19 307.46
  C 687.04 318.75 675.45 337.41 675.80 356.66
  A 0.77 0.76 -86.5 0 1 674.94 357.43
  Q 663.20 355.81 652.79 349.68
  C 622.87 332.07 627.82 296.63 636.95 268.90
  C 644.20 246.87 651.18 229.23 653.75 209.07
  C 656.67 186.13 650.08 163.05 630.83 149.16
  C 624.71 144.74 616.62 142.40 608.92 144.00
  A 0.87 0.87 0.0 0 0 608.61 145.57
  Q 610.96 147.16 612.59 148.92
  C 615.43 151.96 617.39 153.15 621.49 156.27
  C 637.95 168.77 643.78 190.15 641.07 210.14
  Q 638.98 225.51 634.16 241.21
  C 628.02 261.22 624.05 274.10 620.92 291.89
  C 616.05 319.47 623.79 346.32 649.71 360.14
  C 658.58 364.87 667.34 366.89 677.16 368.21
  Q 677.65 368.28 677.82 368.74
  C 685.63 390.60 705.55 401.43 724.93 413.66
  C 740.42 423.43 755.42 437.64 753.36 457.61
  C 752.12 469.61 748.13 481.89 746.32 492.30
  Q 746.25 492.71 746.28 493.00
  A 0.71 0.71 0.0 0 0 747.57 493.31
  C 759.07 476.06 768.31 451.99 757.12 432.14
  C 745.01 410.66 722.82 403.73 702.82 387.82
  Q 692.85 379.89 687.46 369.36
  Q 686.97 368.40 688.05 368.34"
/>
<path stroke="#918f90" vector-effect="non-scaling-stroke" d="
  M 150.78 529.97
  C 158.62 536.81 165.77 540.13 176.08 543.48
  Q 198.68 550.83 218.81 552.74
  C 250.49 555.74 278.73 557.16 306.33 552.32
  Q 311.67 551.39 316.08 549.77
  A 1.61 1.61 0.0 0 0 316.89 547.41
  C 314.95 544.32 309.20 544.95 306.26 545.31
  C 276.20 549.00 246.66 548.66 216.67 545.73
  C 201.80 544.29 188.87 541.57 176.71 537.57
  Q 172.37 536.14 155.20 529.78
  Q 152.99 528.96 151.09 529.06
  Q 149.81 529.13 150.78 529.97"
/>
<path stroke="#918f90" vector-effect="non-scaling-stroke" d="
  M 632.21 668.52
  C 631.10 662.34 630.73 655.67 630.68 650.25
  Q 630.66 648.13 630.62 611.75
  C 630.61 598.76 629.49 583.86 623.83 571.84
  Q 622.91 569.90 621.27 568.71
  A 1.27 1.22 -29.8 0 0 620.39 568.49
  C 617.48 568.86 616.82 572.31 617.44 574.80
  Q 619.51 583.06 620.94 589.78
  Q 622.14 595.41 622.58 607.75
  Q 622.87 615.88 623.27 640.49
  Q 623.35 645.57 623.99 660.49
  Q 624.36 669.35 627.45 678.40
  C 628.57 681.69 630.70 684.04 633.52 685.55
  A 0.79 0.79 0.0 0 0 634.68 684.82
  C 634.61 683.14 634.55 680.42 634.11 678.24
  Q 632.71 671.29 632.21 668.52"
/>
<path stroke="#918f90" vector-effect="non-scaling-stroke" d="
  M 727.84 609.70
  A 0.39 0.36 33.3 0 0 727.60 609.74
  Q 727.45 609.82 727.42 609.95
  Q 727.31 610.33 727.66 610.52
  Q 735.63 614.72 745.32 615.70
  C 771.81 618.36 798.83 614.21 823.90 607.40
  Q 833.06 604.91 841.24 607.98
  C 845.77 609.68 850.34 598.26 853.28 592.47
  A 1.29 1.28 17.4 0 0 852.31 590.62
  Q 849.25 590.20 846.12 591.85
  C 824.39 603.30 799.89 607.79 775.32 610.94
  C 764.64 612.32 755.11 611.91 743.01 611.52
  Q 735.60 611.29 727.84 609.70"
/>
<path stroke="#918f90" vector-effect="non-scaling-stroke" d="
  M 381.38 236.33
  C 377.17 229.62 369.80 222.78 362.01 220.21
  C 347.49 215.41 328.22 216.80 321.85 233.27
  Q 321.21 234.93 321.40 235.90
  C 323.74 247.77 341.71 249.29 350.97 247.68
  Q 367.90 244.71 381.12 237.34
  A 0.72 0.71 -30.8 0 0 381.38 236.33"
/>
<path stroke="#918f90" vector-effect="non-scaling-stroke" d="
  M 688.66 357.23
  A 0.61 0.60 84.5 0 0 689.30 357.77
  Q 714.52 356.07 735.42 342.73
  C 740.57 339.44 744.75 335.15 746.16 329.45
  C 748.25 321.00 743.94 313.25 736.04 309.72
  Q 733.50 308.59 729.97 308.92
  C 716.33 310.20 704.54 318.35 697.10 329.61
  C 691.79 337.65 687.59 347.53 688.66 357.23"
/>
<path stroke="#918f90" vector-effect="non-scaling-stroke" d="
  M 65.99 631.57
  Q 65.84 630.40 65.05 630.06"
/>
<path stroke="#918f90" vector-effect="non-scaling-stroke" d="
  M 140.10 493.38
  Q 147.55 495.39 152.43 496.71
  Q 153.68 497.05 155.51 496.52
  Q 215.41 479.39 276.85 474.92
  Q 286.40 474.23 296.83 474.02
  Q 342.30 473.13 386.76 480.03
  Q 390.00 480.53 386.85 479.62
  Q 373.55 475.76 358.45 473.62
  C 328.13 469.32 297.46 468.71 267.32 470.33
  Q 219.90 472.89 174.07 485.60
  Q 164.61 488.22 155.19 490.94
  Q 147.55 493.15 140.15 493.01
  Q 138.61 492.98 140.10 493.38"
/>
<path stroke="#918f90" vector-effect="non-scaling-stroke" d="
  M 848.13 552.91
  Q 849.45 552.49 849.50 552.45
  Q 850.48 551.62 849.26 551.21
  Q 828.60 544.21 805.79 540.98
  Q 743.37 532.15 678.06 542.99
  Q 658.94 546.16 644.87 551.84
  Q 638.41 554.45 634.52 558.26
  Q 633.94 558.84 634.11 559.29
  A 0.59 0.59 0.0 0 0 634.86 559.63
  Q 655.74 551.90 679.50 548.20
  Q 715.53 542.58 754.58 543.81
  Q 799.12 545.23 841.98 553.37
  C 844.35 553.82 845.84 553.63 848.13 552.91"
/>
<path stroke="#918f90" vector-effect="non-scaling-stroke" d="
  M 607.56 701.07
  C 601.86 703.76 594.40 709.60 591.15 715.55
  Q 590.90 716.01 591.25 716.41
  Q 592.06 717.32 594.01 718.08
  C 608.43 723.68 623.46 723.98 638.54 722.64
  Q 655.34 721.15 667.05 719.91
  C 678.35 718.70 693.08 716.35 705.39 712.15
  Q 707.62 711.39 709.65 709.90
  A 1.84 1.83 -41.2 0 0 709.84 707.10
  Q 705.17 702.62 696.37 699.91
  C 683.08 695.82 669.44 694.24 655.55 693.68
  C 639.83 693.04 621.84 694.34 607.56 701.07"
/>
<path stroke="#918f90" vector-effect="non-scaling-stroke" d="
  M 575.05 720.17
  Q 574.85 719.53 574.28 719.87
  C 567.30 724.03 561.31 730.63 560.61 738.70
  C 559.58 750.63 583.33 752.24 590.54 752.51
  Q 607.95 753.15 625.06 752.13
  C 649.46 750.68 672.60 748.17 694.62 742.10
  Q 701.10 740.32 702.97 738.72
  C 707.83 734.54 710.87 726.29 707.62 720.33
  A 1.36 1.36 0.0 0 0 706.06 719.67
  Q 693.49 723.17 679.94 724.63
  Q 669.65 725.73 644.79 729.28
  Q 626.39 731.91 605.77 731.42
  C 597.70 731.22 578.03 730.10 575.05 720.17"
/>
<path stroke="#918f90" vector-effect="non-scaling-stroke" d="
  M 687.61 751.19
  Q 696.08 760.10 694.49 772.01
  Q 694.41 772.61 694.98 772.40
  C 699.26 770.82 702.23 769.04 702.43 763.97
  Q 702.75 755.78 698.03 748.71
  Q 697.88 748.49 697.62 748.55
  L 687.69 750.94
  Q 687.43 751.00 687.61 751.19"
/>
<path stroke="#918f90" vector-effect="non-scaling-stroke" d="
  M 603.31 768.05
  Q 601.39 765.08 601.14 763.62
  Q 601.05 763.08 600.52 762.97
  Q 599.30 762.73 597.85 763.21
  Q 596.76 763.56 597.03 764.67
  L 597.77 767.75
  Q 598.12 769.22 599.64 769.22
  L 602.67 769.22
  Q 604.06 769.22 603.31 768.05"
/>
<path stroke="#918f90" vector-effect="non-scaling-stroke" d="
  M 581.69 768.26
  C 580.86 766.86 580.43 765.47 580.30 763.93
  Q 580.25 763.34 579.66 763.34
  L 576.35 763.34
  A 0.69 0.69 0.0 0 0 575.66 764.03
  Q 575.65 766.25 576.48 768.07
  Q 576.95 769.09 578.07 769.09
  L 581.22 769.09
  Q 582.17 769.09 581.69 768.26"
/>
<path stroke="#918f90" vector-effect="non-scaling-stroke" d="
  M 686.44 781.80
  Q 659.39 784.78 630.70 783.87
  Q 617.04 783.43 603.60 782.64
  Q 598.79 782.35 593.93 782.97
  Q 579.35 784.83 569.25 784.74
  C 563.56 784.68 557.08 784.44 553.01 782.06
  A 0.83 0.82 28.2 0 0 551.86 782.40
  C 545.10 795.60 554.78 801.93 566.25 804.20
  Q 578.39 806.60 590.75 806.77
  Q 633.17 807.33 671.25 799.69
  C 681.06 797.72 688.54 793.21 688.26 781.95
  Q 688.25 781.57 687.87 781.62
  Q 686.85 781.76 686.44 781.80"
/>
<path stroke="#918f90" vector-effect="non-scaling-stroke" d="
  M 675.75 829.59
  Q 675.34 830.21 676.08 830.16
  C 678.03 830.04 679.84 829.52 681.57 828.23
  Q 691.32 820.93 687.81 808.44
  A 0.63 0.63 0.0 0 0 687.12 807.99
  L 677.90 809.19
  A 0.84 0.84 0.0 0 0 677.24 810.37
  Q 681.74 820.35 675.75 829.59"
/>
<path stroke="#918f90" vector-effect="non-scaling-stroke" d="
  M 565.78 820.22
  Q 566.58 820.22 566.46 819.43
  Q 565.88 815.72 561.51 815.70
  Q 560.63 815.69 560.84 816.55
  L 561.46 819.13
  Q 561.72 820.22 562.85 820.22
  L 565.78 820.22"
/>
<path stroke="#918f90" vector-effect="non-scaling-stroke" d="
  M 570.38 817.19
  Q 569.95 817.72 570.35 819.03
  Q 570.73 820.24 571.51 820.88
  Q 572.28 821.53 573.54 821.68
  Q 574.91 821.84 575.34 821.31
  Q 575.77 820.79 575.37 819.48
  Q 574.99 818.27 574.21 817.62
  Q 573.44 816.98 572.18 816.83
  Q 570.81 816.67 570.38 817.19"
/>
<path stroke="#918f90" vector-effect="non-scaling-stroke" d="
  M 639.57 704.11
  C 643.19 704.91 648.54 702.88 653.01 701.51
  A 0.99 0.99 0.0 0 0 653.68 700.35
  Q 653.58 699.86 652.82 699.40
  C 650.03 697.68 640.77 698.31 638.52 701.12
  A 1.87 1.87 0.0 0 0 639.57 704.11"
/>
<path stroke="#918f90" vector-effect="non-scaling-stroke" d="
  M 621.4554 706.8637
  A 7.63 2.84 -2.0 0 0 613.7309 704.2917
  A 7.63 2.84 -2.0 0 0 606.2046 707.3963
  A 7.63 2.84 -2.0 0 0 613.9291 709.9683
  A 7.63 2.84 -2.0 0 0 621.4554 706.8637"
/>
<path stroke="#918f90" vector-effect="non-scaling-stroke" d="
  M 680.11 708.77
  L 691.40 710.25
  A 0.84 0.84 0.0 0 0 692.34 709.53
  L 692.37 709.26
  A 4.41 3.71 7.5 0 0 688.49 705.01
  L 684.28 704.45
  A 4.41 3.71 7.5 0 0 679.43 707.56
  L 679.39 707.82
  A 0.84 0.84 0.0 0 0 680.11 708.77"
/>
<path stroke="#918f90" vector-effect="non-scaling-stroke" d="
  M 653.4270 715.7075
  A 7.79 2.95 1.6 0 0 645.7224 712.5412
  A 7.79 2.95 1.6 0 0 637.8530 715.2725
  A 7.79 2.95 1.6 0 0 645.5576 718.4388
  A 7.79 2.95 1.6 0 0 653.4270 715.7075"
/>
</g>
<path fill="#ffffff" d="
  M 1000.00 488.50
  L 1000.00 589.79
  Q 998.51 590.86 995.06 592.34
  Q 954.51 609.82 923.88 642.48
  Q 937.14 623.27 939.58 600.34
  Q 940.48 591.81 940.16 586.20
  C 939.01 566.42 925.66 544.50 903.52 545.06
  Q 882.27 545.59 868.76 561.32
  A 0.45 0.45 0.0 0 1 867.97 561.08
  C 867.14 553.90 863.88 550.06 857.71 546.67
  Q 853.32 544.27 851.04 543.43
  Q 830.70 536.03 806.72 532.81
  C 762.09 526.81 715.89 527.37 671.32 535.78
  Q 653.77 539.09 638.71 545.42
  Q 634.87 547.03 630.67 549.92
  C 627.33 552.21 623.44 557.30 625.16 561.59
  C 627.75 568.02 637.59 571.86 643.98 573.79
  Q 662.50 579.36 686.31 581.16
  Q 714.97 583.33 744.50 582.89
  Q 792.41 582.17 836.88 565.15
  Q 843.91 562.46 855.70 554.05
  Q 856.12 553.74 856.62 553.89
  L 860.84 555.14
  Q 861.30 555.28 861.18 555.74
  Q 860.02 560.43 860.40 565.25
  Q 862.16 587.42 862.65 596.11
  C 864.74 632.98 861.20 672.18 853.60 707.30
  C 847.62 734.94 838.14 762.61 821.49 785.48
  Q 811.91 798.65 800.62 805.37
  C 780.38 817.40 755.83 821.49 732.57 819.14
  C 724.48 818.32 713.24 815.82 705.45 814.65
  A 1.04 1.03 88.3 0 1 704.60 813.84
  Q 702.87 805.33 695.91 799.99
  A 0.64 0.63 37.5 0 1 695.79 799.09
  C 698.85 795.15 700.47 790.61 700.31 785.63
  Q 700.27 784.45 700.49 783.42
  Q 700.59 782.93 701.03 782.70
  C 710.09 777.99 714.78 769.80 714.55 759.48
  Q 714.41 753.29 711.87 747.53
  A 0.37 0.37 0.0 0 1 712.10 747.02
  C 727.34 742.65 727.64 724.53 715.70 716.40
  Q 715.28 716.10 715.62 715.71
  C 720.96 709.58 716.41 701.74 710.56 698.15
  C 702.46 693.19 692.36 690.56 682.97 688.88
  Q 654.45 683.77 625.44 687.91
  C 611.98 689.83 597.59 694.68 590.09 706.62
  Q 589.82 707.05 589.32 707.09
  C 575.96 708.39 562.36 716.90 556.77 729.08
  Q 553.40 736.44 555.11 743.75
  Q 556.16 748.24 562.26 751.90
  Q 562.61 752.10 562.31 752.37
  Q 556.12 757.78 556.24 766.49
  Q 556.28 769.60 556.28 769.96
  Q 556.29 770.47 555.81 770.65
  C 543.73 775.14 538.55 789.10 545.08 800.26
  C 545.94 801.72 547.61 803.03 548.79 804.44
  Q 549.06 804.76 548.86 805.13
  C 546.87 808.80 545.64 813.36 546.35 817.52
  Q 546.76 819.88 546.92 821.01
  Q 546.99 821.53 546.47 821.59
  C 542.43 822.05 503.53 827.28 506.72 834.76
  C 509.08 840.29 528.52 840.54 533.75 840.63
  Q 582.02 841.39 583.05 841.40
  C 605.85 841.65 626.37 841.33 648.26 838.87
  C 657.76 837.80 665.70 837.71 675.27 836.51
  Q 685.49 835.24 692.86 830.48
  A 1.70 1.63 29.0 0 1 693.81 830.23
  Q 715.64 831.32 739.76 829.35
  C 749.96 828.51 762.68 826.23 772.56 824.27
  Q 801.32 818.57 820.32 799.34
  Q 831.47 788.06 838.40 775.19
  Q 849.82 753.99 856.58 730.37
  Q 862.22 710.64 864.44 698.49
  Q 872.68 653.46 871.87 607.32
  Q 871.63 593.99 871.62 590.32
  Q 871.60 584.04 872.60 581.37
  Q 877.75 567.69 890.35 560.55
  C 895.52 557.61 901.09 556.92 907.07 556.06
  C 909.37 555.73 911.70 556.29 913.63 557.43
  C 924.23 563.68 930.46 576.91 930.82 589.04
  Q 931.03 596.38 929.28 606.32
  Q 923.86 637.18 900.56 657.37
  Q 897.08 660.38 890.40 664.46
  Q 883.74 668.53 879.06 672.69
  A 0.41 0.40 33.8 0 0 879.20 673.37
  Q 879.40 673.44 879.76 673.42
  C 892.61 672.46 903.66 664.87 912.47 655.90
  C 890.75 684.44 877.40 718.30 872.59 753.83
  C 867.32 792.70 870.63 832.81 879.32 870.94
  A 1.35 1.35 0.0 0 1 878.96 872.20
  L 821.91 929.25
  A 1.70 1.69 -57.3 0 1 820.12 929.64
  Q 786.34 917.16 750.48 913.10
  C 721.88 909.86 692.21 911.24 664.73 919.95
  C 624.70 932.65 594.29 960.66 576.12 998.15
  A 1.50 1.49 -76.9 0 1 574.78 998.99
  L 420.42 998.99
  A 1.52 1.51 73.1 0 1 419.16 998.31
  Q 414.69 991.44 410.66 985.60
  Q 395.10 963.10 374.09 945.44
  Q 323.34 902.79 255.82 904.49
  C 219.72 905.40 184.15 915.21 151.18 929.71
  A 1.50 1.50 0.0 0 1 149.51 929.40
  L 92.22 872.11
  A 0.70 0.69 28.8 0 1 92.03 871.47
  Q 105.41 811.35 101.18 750.08
  Q 99.07 719.57 91.05 690.29
  Q 85.17 668.81 75.00 648.39
  Q 71.61 641.57 68.03 634.80
  C 77.12 649.90 90.56 661.38 107.85 666.26
  Q 119.80 669.63 129.25 663.92
  Q 129.75 663.62 129.54 663.09
  A 0.98 0.98 0.0 0 0 128.82 662.50
  C 121.47 661.11 116.25 660.41 111.33 658.78
  Q 88.99 651.34 75.85 630.53
  Q 62.50 609.38 58.00 583.58
  C 54.76 565.03 56.07 545.93 64.10 528.62
  Q 68.61 518.90 75.19 513.21
  C 86.78 503.15 102.09 502.93 115.08 511.35
  C 119.83 514.43 124.29 521.53 127.00 525.84
  Q 127.42 526.49 127.37 527.27
  Q 123.26 598.68 141.65 669.44
  Q 146.92 689.74 153.70 706.43
  C 160.78 723.89 170.67 740.21 181.89 755.30
  C 190.27 766.57 199.77 776.49 210.10 785.62
  Q 210.53 786.00 209.99 786.18
  Q 209.56 786.33 206.59 786.67
  Q 177.40 789.96 152.09 796.62
  C 145.96 798.23 138.02 800.56 134.29 804.84
  A 2.20 2.20 0.0 0 0 134.46 807.91
  C 137.06 810.32 145.93 811.25 149.63 811.64
  Q 163.69 813.10 179.39 813.59
  Q 200.85 814.25 241.01 814.98
  C 254.52 815.23 268.86 814.83 284.17 815.02
  Q 295.70 815.16 300.92 814.77
  Q 308.30 814.22 317.52 812.69
  C 361.24 805.44 385.31 771.24 397.98 731.72
  Q 407.19 702.99 410.72 670.25
  Q 413.07 648.37 413.48 633.75
  Q 414.87 584.33 418.93 537.22
  C 420.39 520.36 420.61 512.50 421.77 490.31
  Q 421.79 489.91 421.38 489.92
  Q 421.25 489.92 421.11 489.98
  Q 420.89 490.10 420.75 490.43
  Q 418.60 495.75 417.33 500.33
  Q 411.75 520.40 409.78 539.77
  Q 405.56 581.36 404.60 623.26
  Q 403.92 653.02 399.98 681.75
  C 393.13 731.60 373.87 793.00 315.78 803.29
  C 294.99 806.97 272.48 806.19 252.77 798.98
  C 235.13 792.53 219.76 782.27 206.53 768.59
  C 185.80 747.14 169.02 720.83 158.93 692.22
  Q 151.54 671.24 146.64 648.46
  Q 132.39 582.26 138.44 510.53
  Q 139.27 500.69 139.19 498.05
  Q 139.16 496.81 138.87 495.72
  A 0.36 0.36 0.0 0 1 139.38 495.30
  Q 164.81 507.63 193.77 512.49
  Q 234.59 519.34 276.27 518.44
  Q 285.06 518.25 296.24 517.32
  Q 328.28 514.65 359.88 509.11
  Q 379.89 505.60 397.33 500.23
  Q 400.52 499.25 403.40 497.95
  C 408.83 495.50 416.47 491.66 412.44 484.51
  C 407.51 475.75 389.38 470.70 380.10 468.66
  Q 352.69 462.61 324.34 461.26
  Q 263.42 458.35 205.65 469.14
  Q 178.48 474.21 153.03 483.04
  Q 146.02 485.47 138.19 489.93
  Q 137.16 490.51 136.47 491.49
  Q 132.84 496.65 131.29 503.08
  Q 131.17 503.59 130.74 503.28
  C 129.19 502.13 127.31 500.60 125.71 499.77
  Q 110.68 491.92 93.84 494.09
  C 84.65 495.27 77.63 498.62 70.65 504.67
  C 48.48 523.86 44.46 556.83 48.71 584.27
  Q 52.25 607.19 65.05 630.06
  Q 52.57 610.70 38.14 596.36
  Q 21.71 580.04 0.00 567.06
  L 0.00 457.06
  Q 19.06 448.01 28.83 442.79
  Q 57.05 427.73 79.67 406.17
  C 109.83 377.42 127.12 339.79 124.16 297.53
  C 121.82 264.21 108.97 233.80 92.28 205.13
  A 0.75 0.73 -37.9 0 1 92.40 204.23
  L 178.78 117.85
  A 0.79 0.79 0.0 0 1 179.69 117.70
  Q 219.59 137.50 264.00 139.47
  Q 309.60 141.48 350.30 122.79
  C 373.32 112.21 394.68 97.22 412.27 79.52
  C 418.96 72.80 423.50 68.33 429.12 61.72
  Q 452.25 34.48 469.52 3.54
  Q 470.06 2.58 471.10 1.54
  A 1.23 1.23 0.0 0 1 471.97 1.18
  L 558.04 1.18
  A 0.48 0.47 77.2 0 1 558.47 1.46
  Q 578.14 45.42 607.09 80.55
  C 630.13 108.52 658.84 132.90 692.53 145.21
  C 727.21 157.90 764.53 156.34 799.05 143.54
  Q 818.61 136.30 835.69 126.18
  Q 842.29 122.28 849.32 117.87
  A 1.16 1.15 -38.6 0 1 850.75 118.03
  L 907.90 175.19
  Q 908.35 175.63 908.23 176.25
  Q 899.02 225.10 898.15 275.50
  Q 897.67 302.93 900.41 330.33
  C 903.48 361.00 910.65 391.69 924.32 419.46
  Q 934.19 439.51 949.40 455.85
  Q 969.88 477.84 1000.00 488.50
  Z
  M 384.35 245.18
  A 0.46 0.46 0.0 0 1 385.03 245.60
  C 384.87 254.82 378.58 263.56 371.52 269.53
  C 361.41 278.08 349.73 284.63 338.16 290.64
  C 317.55 301.33 290.26 314.29 270.32 331.25
  Q 257.85 341.84 251.06 357.79
  C 241.37 380.51 248.21 406.57 268.55 420.99
  Q 272.22 423.59 275.71 424.89
  A 0.77 0.77 0.0 0 0 276.71 423.93
  Q 275.27 419.36 272.43 415.61
  Q 267.14 408.62 263.35 401.93
  Q 252.06 382.00 261.30 361.03
  Q 266.01 350.33 272.94 343.43
  Q 283.98 332.44 298.39 324.10
  C 316.58 313.57 335.80 304.28 348.24 297.76
  Q 365.67 288.62 378.18 277.96
  C 390.00 267.88 396.66 255.44 394.71 239.86
  A 1.50 1.50 0.0 0 1 395.37 238.43
  C 414.36 225.77 427.45 205.80 427.83 182.75
  C 427.94 175.89 426.05 168.89 422.74 163.32
  C 414.98 150.29 408.20 140.12 407.74 126.26
  C 407.36 114.85 414.08 105.72 421.10 96.39
  Q 426.42 89.32 434.03 84.87
  Q 435.96 83.74 433.73 83.61
  Q 431.21 83.46 428.32 84.36
  C 416.48 88.06 406.58 99.13 401.67 110.44
  C 393.11 130.13 403.11 149.48 413.59 165.71
  C 417.31 171.49 419.16 177.39 418.79 184.52
  C 417.84 203.20 407.24 218.29 392.70 229.91
  A 0.48 0.47 57.8 0 1 391.98 229.74
  C 387.97 221.40 381.57 214.93 373.22 210.83
  C 358.09 203.40 337.89 203.92 323.99 213.98
  C 313.77 221.38 308.88 235.17 316.79 245.68
  C 323.80 254.98 337.66 257.67 349.03 256.26
  Q 367.35 254.00 384.35 245.18
  Z
  M 688.05 368.34
  C 707.01 367.20 725.86 361.73 741.58 351.14
  Q 750.44 345.17 754.16 336.70
  C 759.72 324.01 755.14 309.36 743.27 302.71
  C 730.43 295.52 713.83 298.80 702.19 307.46
  C 687.04 318.75 675.45 337.41 675.80 356.66
  A 0.77 0.76 -86.5 0 1 674.94 357.43
  Q 663.20 355.81 652.79 349.68
  C 622.87 332.07 627.82 296.63 636.95 268.90
  C 644.20 246.87 651.18 229.23 653.75 209.07
  C 656.67 186.13 650.08 163.05 630.83 149.16
  C 624.71 144.74 616.62 142.40 608.92 144.00
  A 0.87 0.87 0.0 0 0 608.61 145.57
  Q 610.96 147.16 612.59 148.92
  C 615.43 151.96 617.39 153.15 621.49 156.27
  C 637.95 168.77 643.78 190.15 641.07 210.14
  Q 638.98 225.51 634.16 241.21
  C 628.02 261.22 624.05 274.10 620.92 291.89
  C 616.05 319.47 623.79 346.32 649.71 360.14
  C 658.58 364.87 667.34 366.89 677.16 368.21
  Q 677.65 368.28 677.82 368.74
  C 685.63 390.60 705.55 401.43 724.93 413.66
  C 740.42 423.43 755.42 437.64 753.36 457.61
  C 752.12 469.61 748.13 481.89 746.32 492.30
  Q 746.25 492.71 746.28 493.00
  A 0.71 0.71 0.0 0 0 747.57 493.31
  C 759.07 476.06 768.31 451.99 757.12 432.14
  C 745.01 410.66 722.82 403.73 702.82 387.82
  Q 692.85 379.89 687.46 369.36
  Q 686.97 368.40 688.05 368.34
  Z
  M 150.78 529.97
  C 158.62 536.81 165.77 540.13 176.08 543.48
  Q 198.68 550.83 218.81 552.74
  C 250.49 555.74 278.73 557.16 306.33 552.32
  Q 311.67 551.39 316.08 549.77
  A 1.61 1.61 0.0 0 0 316.89 547.41
  C 314.95 544.32 309.20 544.95 306.26 545.31
  C 276.20 549.00 246.66 548.66 216.67 545.73
  C 201.80 544.29 188.87 541.57 176.71 537.57
  Q 172.37 536.14 155.20 529.78
  Q 152.99 528.96 151.09 529.06
  Q 149.81 529.13 150.78 529.97
  Z
  M 632.21 668.52
  C 631.10 662.34 630.73 655.67 630.68 650.25
  Q 630.66 648.13 630.62 611.75
  C 630.61 598.76 629.49 583.86 623.83 571.84
  Q 622.91 569.90 621.27 568.71
  A 1.27 1.22 -29.8 0 0 620.39 568.49
  C 617.48 568.86 616.82 572.31 617.44 574.80
  Q 619.51 583.06 620.94 589.78
  Q 622.14 595.41 622.58 607.75
  Q 622.87 615.88 623.27 640.49
  Q 623.35 645.57 623.99 660.49
  Q 624.36 669.35 627.45 678.40
  C 628.57 681.69 630.70 684.04 633.52 685.55
  A 0.79 0.79 0.0 0 0 634.68 684.82
  C 634.61 683.14 634.55 680.42 634.11 678.24
  Q 632.71 671.29 632.21 668.52
  Z
  M 727.84 609.70
  A 0.39 0.36 33.3 0 0 727.60 609.74
  Q 727.45 609.82 727.42 609.95
  Q 727.31 610.33 727.66 610.52
  Q 735.63 614.72 745.32 615.70
  C 771.81 618.36 798.83 614.21 823.90 607.40
  Q 833.06 604.91 841.24 607.98
  C 845.77 609.68 850.34 598.26 853.28 592.47
  A 1.29 1.28 17.4 0 0 852.31 590.62
  Q 849.25 590.20 846.12 591.85
  C 824.39 603.30 799.89 607.79 775.32 610.94
  C 764.64 612.32 755.11 611.91 743.01 611.52
  Q 735.60 611.29 727.84 609.70
  Z"
/>
<path fill="#231f20" d="
  M 384.35 245.18
  Q 367.35 254.00 349.03 256.26
  C 337.66 257.67 323.80 254.98 316.79 245.68
  C 308.88 235.17 313.77 221.38 323.99 213.98
  C 337.89 203.92 358.09 203.40 373.22 210.83
  C 381.57 214.93 387.97 221.40 391.98 229.74
  A 0.48 0.47 57.8 0 0 392.70 229.91
  C 407.24 218.29 417.84 203.20 418.79 184.52
  C 419.16 177.39 417.31 171.49 413.59 165.71
  C 403.11 149.48 393.11 130.13 401.67 110.44
  C 406.58 99.13 416.48 88.06 428.32 84.36
  Q 431.21 83.46 433.73 83.61
  Q 435.96 83.74 434.03 84.87
  Q 426.42 89.32 421.10 96.39
  C 414.08 105.72 407.36 114.85 407.74 126.26
  C 408.20 140.12 414.98 150.29 422.74 163.32
  C 426.05 168.89 427.94 175.89 427.83 182.75
  C 427.45 205.80 414.36 225.77 395.37 238.43
  A 1.50 1.50 0.0 0 0 394.71 239.86
  C 396.66 255.44 390.00 267.88 378.18 277.96
  Q 365.67 288.62 348.24 297.76
  C 335.80 304.28 316.58 313.57 298.39 324.10
  Q 283.98 332.44 272.94 343.43
  Q 266.01 350.33 261.30 361.03
  Q 252.06 382.00 263.35 401.93
  Q 267.14 408.62 272.43 415.61
  Q 275.27 419.36 276.71 423.93
  A 0.77 0.77 0.0 0 1 275.71 424.89
  Q 272.22 423.59 268.55 420.99
  C 248.21 406.57 241.37 380.51 251.06 357.79
  Q 257.85 341.84 270.32 331.25
  C 290.26 314.29 317.55 301.33 338.16 290.64
  C 349.73 284.63 361.41 278.08 371.52 269.53
  C 378.58 263.56 384.87 254.82 385.03 245.60
  A 0.46 0.46 0.0 0 0 384.35 245.18
  Z
  M 381.38 236.33
  C 377.17 229.62 369.80 222.78 362.01 220.21
  C 347.49 215.41 328.22 216.80 321.85 233.27
  Q 321.21 234.93 321.40 235.90
  C 323.74 247.77 341.71 249.29 350.97 247.68
  Q 367.90 244.71 381.12 237.34
  A 0.72 0.71 -30.8 0 0 381.38 236.33
  Z"
/>
<path fill="#231f20" d="
  M 688.05 368.34
  Q 686.97 368.40 687.46 369.36
  Q 692.85 379.89 702.82 387.82
  C 722.82 403.73 745.01 410.66 757.12 432.14
  C 768.31 451.99 759.07 476.06 747.57 493.31
  A 0.71 0.71 0.0 0 1 746.28 493.00
  Q 746.25 492.71 746.32 492.30
  C 748.13 481.89 752.12 469.61 753.36 457.61
  C 755.42 437.64 740.42 423.43 724.93 413.66
  C 705.55 401.43 685.63 390.60 677.82 368.74
  Q 677.65 368.28 677.16 368.21
  C 667.34 366.89 658.58 364.87 649.71 360.14
  C 623.79 346.32 616.05 319.47 620.92 291.89
  C 624.05 274.10 628.02 261.22 634.16 241.21
  Q 638.98 225.51 641.07 210.14
  C 643.78 190.15 637.95 168.77 621.49 156.27
  C 617.39 153.15 615.43 151.96 612.59 148.92
  Q 610.96 147.16 608.61 145.57
  A 0.87 0.87 0.0 0 1 608.92 144.00
  C 616.62 142.40 624.71 144.74 630.83 149.16
  C 650.08 163.05 656.67 186.13 653.75 209.07
  C 651.18 229.23 644.20 246.87 636.95 268.90
  C 627.82 296.63 622.87 332.07 652.79 349.68
  Q 663.20 355.81 674.94 357.43
  A 0.77 0.76 -86.5 0 0 675.80 356.66
  C 675.45 337.41 687.04 318.75 702.19 307.46
  C 713.83 298.80 730.43 295.52 743.27 302.71
  C 755.14 309.36 759.72 324.01 754.16 336.70
  Q 750.44 345.17 741.58 351.14
  C 725.86 361.73 707.01 367.20 688.05 368.34
  Z
  M 688.66 357.23
  A 0.61 0.60 84.5 0 0 689.30 357.77
  Q 714.52 356.07 735.42 342.73
  C 740.57 339.44 744.75 335.15 746.16 329.45
  C 748.25 321.00 743.94 313.25 736.04 309.72
  Q 733.50 308.59 729.97 308.92
  C 716.33 310.20 704.54 318.35 697.10 329.61
  C 691.79 337.65 687.59 347.53 688.66 357.23
  Z"
/>
<path fill="#ffffff" d="
  M 362.01 220.21
  C 369.80 222.78 377.17 229.62 381.38 236.33
  A 0.72 0.71 -30.8 0 1 381.12 237.34
  Q 367.90 244.71 350.97 247.68
  C 341.71 249.29 323.74 247.77 321.40 235.90
  Q 321.21 234.93 321.85 233.27
  C 328.22 216.80 347.49 215.41 362.01 220.21
  Z"
/>
<path fill="#ffffff" d="
  M 688.66 357.23
  C 687.59 347.53 691.79 337.65 697.10 329.61
  C 704.54 318.35 716.33 310.20 729.97 308.92
  Q 733.50 308.59 736.04 309.72
  C 743.94 313.25 748.25 321.00 746.16 329.45
  C 744.75 335.15 740.57 339.44 735.42 342.73
  Q 714.52 356.07 689.30 357.77
  A 0.61 0.60 84.5 0 1 688.66 357.23
  Z"
/>
<path fill="#231f20" d="
  M 68.03 634.80
  L 65.99 631.57
  Q 65.84 630.40 65.05 630.06
  Q 52.25 607.19 48.71 584.27
  C 44.46 556.83 48.48 523.86 70.65 504.67
  C 77.63 498.62 84.65 495.27 93.84 494.09
  Q 110.68 491.92 125.71 499.77
  C 127.31 500.60 129.19 502.13 130.74 503.28
  Q 131.17 503.59 131.29 503.08
  Q 132.84 496.65 136.47 491.49
  Q 137.16 490.51 138.19 489.93
  Q 146.02 485.47 153.03 483.04
  Q 178.48 474.21 205.65 469.14
  Q 263.42 458.35 324.34 461.26
  Q 352.69 462.61 380.10 468.66
  C 389.38 470.70 407.51 475.75 412.44 484.51
  C 416.47 491.66 408.83 495.50 403.40 497.95
  Q 400.52 499.25 397.33 500.23
  Q 379.89 505.60 359.88 509.11
  Q 328.28 514.65 296.24 517.32
  Q 285.06 518.25 276.27 518.44
  Q 234.59 519.34 193.77 512.49
  Q 164.81 507.63 139.38 495.30
  A 0.36 0.36 0.0 0 0 138.87 495.72
  Q 139.16 496.81 139.19 498.05
  Q 139.27 500.69 138.44 510.53
  Q 132.39 582.26 146.64 648.46
  Q 151.54 671.24 158.93 692.22
  C 169.02 720.83 185.80 747.14 206.53 768.59
  C 219.76 782.27 235.13 792.53 252.77 798.98
  C 272.48 806.19 294.99 806.97 315.78 803.29
  C 373.87 793.00 393.13 731.60 399.98 681.75
  Q 403.92 653.02 404.60 623.26
  Q 405.56 581.36 409.78 539.77
  Q 411.75 520.40 417.33 500.33
  Q 418.60 495.75 420.75 490.43
  Q 420.89 490.10 421.11 489.98
  Q 421.25 489.92 421.38 489.92
  Q 421.79 489.91 421.77 490.31
  C 420.61 512.50 420.39 520.36 418.93 537.22
  Q 414.87 584.33 413.48 633.75
  Q 413.07 648.37 410.72 670.25
  Q 407.19 702.99 397.98 731.72
  C 385.31 771.24 361.24 805.44 317.52 812.69
  Q 308.30 814.22 300.92 814.77
  Q 295.70 815.16 284.17 815.02
  C 268.86 814.83 254.52 815.23 241.01 814.98
  Q 200.85 814.25 179.39 813.59
  Q 163.69 813.10 149.63 811.64
  C 145.93 811.25 137.06 810.32 134.46 807.91
  A 2.20 2.20 0.0 0 1 134.29 804.84
  C 138.02 800.56 145.96 798.23 152.09 796.62
  Q 177.40 789.96 206.59 786.67
  Q 209.56 786.33 209.99 786.18
  Q 210.53 786.00 210.10 785.62
  C 199.77 776.49 190.27 766.57 181.89 755.30
  C 170.67 740.21 160.78 723.89 153.70 706.43
  Q 146.92 689.74 141.65 669.44
  Q 123.26 598.68 127.37 527.27
  Q 127.42 526.49 127.00 525.84
  C 124.29 521.53 119.83 514.43 115.08 511.35
  C 102.09 502.93 86.78 503.15 75.19 513.21
  Q 68.61 518.90 64.10 528.62
  C 56.07 545.93 54.76 565.03 58.00 583.58
  Q 62.50 609.38 75.85 630.53
  Q 88.99 651.34 111.33 658.78
  C 116.25 660.41 121.47 661.11 128.82 662.50
  A 0.98 0.98 0.0 0 1 129.54 663.09
  Q 129.75 663.62 129.25 663.92
  Q 119.80 669.63 107.85 666.26
  C 90.56 661.38 77.12 649.90 68.03 634.80
  Z
  M 140.10 493.38
  Q 147.55 495.39 152.43 496.71
  Q 153.68 497.05 155.51 496.52
  Q 215.41 479.39 276.85 474.92
  Q 286.40 474.23 296.83 474.02
  Q 342.30 473.13 386.76 480.03
  Q 390.00 480.53 386.85 479.62
  Q 373.55 475.76 358.45 473.62
  C 328.13 469.32 297.46 468.71 267.32 470.33
  Q 219.90 472.89 174.07 485.60
  Q 164.61 488.22 155.19 490.94
  Q 147.55 493.15 140.15 493.01
  Q 138.61 492.98 140.10 493.38
  Z"
/>
<path fill="#ffffff" d="
  M 140.10 493.38
  Q 138.61 492.98 140.15 493.01
  Q 147.55 493.15 155.19 490.94
  Q 164.61 488.22 174.07 485.60
  Q 219.90 472.89 267.32 470.33
  C 297.46 468.71 328.13 469.32 358.45 473.62
  Q 373.55 475.76 386.85 479.62
  Q 390.00 480.53 386.76 480.03
  Q 342.30 473.13 296.83 474.02
  Q 286.40 474.23 276.85 474.92
  Q 215.41 479.39 155.51 496.52
  Q 153.68 497.05 152.43 496.71
  Q 147.55 495.39 140.10 493.38
  Z"
/>
<path fill="#231f20" d="
  M 150.78 529.97
  Q 149.81 529.13 151.09 529.06
  Q 152.99 528.96 155.20 529.78
  Q 172.37 536.14 176.71 537.57
  C 188.87 541.57 201.80 544.29 216.67 545.73
  C 246.66 548.66 276.20 549.00 306.26 545.31
  C 309.20 544.95 314.95 544.32 316.89 547.41
  A 1.61 1.61 0.0 0 1 316.08 549.77
  Q 311.67 551.39 306.33 552.32
  C 278.73 557.16 250.49 555.74 218.81 552.74
  Q 198.68 550.83 176.08 543.48
  C 165.77 540.13 158.62 536.81 150.78 529.97
  Z"
/>
<path fill="#231f20" d="
  M 923.88 642.48
  L 912.47 655.90
  C 903.66 664.87 892.61 672.46 879.76 673.42
  Q 879.40 673.44 879.20 673.37
  A 0.41 0.40 33.8 0 1 879.06 672.69
  Q 883.74 668.53 890.40 664.46
  Q 897.08 660.38 900.56 657.37
  Q 923.86 637.18 929.28 606.32
  Q 931.03 596.38 930.82 589.04
  C 930.46 576.91 924.23 563.68 913.63 557.43
  C 911.70 556.29 909.37 555.73 907.07 556.06
  C 901.09 556.92 895.52 557.61 890.35 560.55
  Q 877.75 567.69 872.60 581.37
  Q 871.60 584.04 871.62 590.32
  Q 871.63 593.99 871.87 607.32
  Q 872.68 653.46 864.44 698.49
  Q 862.22 710.64 856.58 730.37
  Q 849.82 753.99 838.40 775.19
  Q 831.47 788.06 820.32 799.34
  Q 801.32 818.57 772.56 824.27
  C 762.68 826.23 749.96 828.51 739.76 829.35
  Q 715.64 831.32 693.81 830.23
  A 1.70 1.63 29.0 0 0 692.86 830.48
  Q 685.49 835.24 675.27 836.51
  C 665.70 837.71 657.76 837.80 648.26 838.87
  C 626.37 841.33 605.85 841.65 583.05 841.40
  Q 582.02 841.39 533.75 840.63
  C 528.52 840.54 509.08 840.29 506.72 834.76
  C 503.53 827.28 542.43 822.05 546.47 821.59
  Q 546.99 821.53 546.92 821.01
  Q 546.76 819.88 546.35 817.52
  C 545.64 813.36 546.87 808.80 548.86 805.13
  Q 549.06 804.76 548.79 804.44
  C 547.61 803.03 545.94 801.72 545.08 800.26
  C 538.55 789.10 543.73 775.14 555.81 770.65
  Q 556.29 770.47 556.28 769.96
  Q 556.28 769.60 556.24 766.49
  Q 556.12 757.78 562.31 752.37
  Q 562.61 752.10 562.26 751.90
  Q 556.16 748.24 555.11 743.75
  Q 553.40 736.44 556.77 729.08
  C 562.36 716.90 575.96 708.39 589.32 707.09
  Q 589.82 707.05 590.09 706.62
  C 597.59 694.68 611.98 689.83 625.44 687.91
  Q 654.45 683.77 682.97 688.88
  C 692.36 690.56 702.46 693.19 710.56 698.15
  C 716.41 701.74 720.96 709.58 715.62 715.71
  Q 715.28 716.10 715.70 716.40
  C 727.64 724.53 727.34 742.65 712.10 747.02
  A 0.37 0.37 0.0 0 0 711.87 747.53
  Q 714.41 753.29 714.55 759.48
  C 714.78 769.80 710.09 777.99 701.03 782.70
  Q 700.59 782.93 700.49 783.42
  Q 700.27 784.45 700.31 785.63
  C 700.47 790.61 698.85 795.15 695.79 799.09
  A 0.64 0.63 37.5 0 0 695.91 799.99
  Q 702.87 805.33 704.60 813.84
  A 1.04 1.03 88.3 0 0 705.45 814.65
  C 713.24 815.82 724.48 818.32 732.57 819.14
  C 755.83 821.49 780.38 817.40 800.62 805.37
  Q 811.91 798.65 821.49 785.48
  C 838.14 762.61 847.62 734.94 853.60 707.30
  C 861.20 672.18 864.74 632.98 862.65 596.11
  Q 862.16 587.42 860.40 565.25
  Q 860.02 560.43 861.18 555.74
  Q 861.30 555.28 860.84 555.14
  L 856.62 553.89
  Q 856.12 553.74 855.70 554.05
  Q 843.91 562.46 836.88 565.15
  Q 792.41 582.17 744.50 582.89
  Q 714.97 583.33 686.31 581.16
  Q 662.50 579.36 643.98 573.79
  C 637.59 571.86 627.75 568.02 625.16 561.59
  C 623.44 557.30 627.33 552.21 630.67 549.92
  Q 634.87 547.03 638.71 545.42
  Q 653.77 539.09 671.32 535.78
  C 715.89 527.37 762.09 526.81 806.72 532.81
  Q 830.70 536.03 851.04 543.43
  Q 853.32 544.27 857.71 546.67
  C 863.88 550.06 867.14 553.90 867.97 561.08
  A 0.45 0.45 0.0 0 0 868.76 561.32
  Q 882.27 545.59 903.52 545.06
  C 925.66 544.50 939.01 566.42 940.16 586.20
  Q 940.48 591.81 939.58 600.34
  Q 937.14 623.27 923.88 642.48
  Z
  M 848.13 552.91
  Q 849.45 552.49 849.50 552.45
  Q 850.48 551.62 849.26 551.21
  Q 828.60 544.21 805.79 540.98
  Q 743.37 532.15 678.06 542.99
  Q 658.94 546.16 644.87 551.84
  Q 638.41 554.45 634.52 558.26
  Q 633.94 558.84 634.11 559.29
  A 0.59 0.59 0.0 0 0 634.86 559.63
  Q 655.74 551.90 679.50 548.20
  Q 715.53 542.58 754.58 543.81
  Q 799.12 545.23 841.98 553.37
  C 844.35 553.82 845.84 553.63 848.13 552.91
  Z
  M 607.56 701.07
  C 601.86 703.76 594.40 709.60 591.15 715.55
  Q 590.90 716.01 591.25 716.41
  Q 592.06 717.32 594.01 718.08
  C 608.43 723.68 623.46 723.98 638.54 722.64
  Q 655.34 721.15 667.05 719.91
  C 678.35 718.70 693.08 716.35 705.39 712.15
  Q 707.62 711.39 709.65 709.90
  A 1.84 1.83 -41.2 0 0 709.84 707.10
  Q 705.17 702.62 696.37 699.91
  C 683.08 695.82 669.44 694.24 655.55 693.68
  C 639.83 693.04 621.84 694.34 607.56 701.07
  Z
  M 575.05 720.17
  Q 574.85 719.53 574.28 719.87
  C 567.30 724.03 561.31 730.63 560.61 738.70
  C 559.58 750.63 583.33 752.24 590.54 752.51
  Q 607.95 753.15 625.06 752.13
  C 649.46 750.68 672.60 748.17 694.62 742.10
  Q 701.10 740.32 702.97 738.72
  C 707.83 734.54 710.87 726.29 707.62 720.33
  A 1.36 1.36 0.0 0 0 706.06 719.67
  Q 693.49 723.17 679.94 724.63
  Q 669.65 725.73 644.79 729.28
  Q 626.39 731.91 605.77 731.42
  C 597.70 731.22 578.03 730.10 575.05 720.17
  Z
  M 687.61 751.19
  Q 696.08 760.10 694.49 772.01
  Q 694.41 772.61 694.98 772.40
  C 699.26 770.82 702.23 769.04 702.43 763.97
  Q 702.75 755.78 698.03 748.71
  Q 697.88 748.49 697.62 748.55
  L 687.69 750.94
  Q 687.43 751.00 687.61 751.19
  Z
  M 603.31 768.05
  Q 601.39 765.08 601.14 763.62
  Q 601.05 763.08 600.52 762.97
  Q 599.30 762.73 597.85 763.21
  Q 596.76 763.56 597.03 764.67
  L 597.77 767.75
  Q 598.12 769.22 599.64 769.22
  L 602.67 769.22
  Q 604.06 769.22 603.31 768.05
  Z
  M 581.69 768.26
  C 580.86 766.86 580.43 765.47 580.30 763.93
  Q 580.25 763.34 579.66 763.34
  L 576.35 763.34
  A 0.69 0.69 0.0 0 0 575.66 764.03
  Q 575.65 766.25 576.48 768.07
  Q 576.95 769.09 578.07 769.09
  L 581.22 769.09
  Q 582.17 769.09 581.69 768.26
  Z
  M 686.44 781.80
  Q 659.39 784.78 630.70 783.87
  Q 617.04 783.43 603.60 782.64
  Q 598.79 782.35 593.93 782.97
  Q 579.35 784.83 569.25 784.74
  C 563.56 784.68 557.08 784.44 553.01 782.06
  A 0.83 0.82 28.2 0 0 551.86 782.40
  C 545.10 795.60 554.78 801.93 566.25 804.20
  Q 578.39 806.60 590.75 806.77
  Q 633.17 807.33 671.25 799.69
  C 681.06 797.72 688.54 793.21 688.26 781.95
  Q 688.25 781.57 687.87 781.62
  Q 686.85 781.76 686.44 781.80
  Z
  M 675.75 829.59
  Q 675.34 830.21 676.08 830.16
  C 678.03 830.04 679.84 829.52 681.57 828.23
  Q 691.32 820.93 687.81 808.44
  A 0.63 0.63 0.0 0 0 687.12 807.99
  L 677.90 809.19
  A 0.84 0.84 0.0 0 0 677.24 810.37
  Q 681.74 820.35 675.75 829.59
  Z
  M 565.78 820.22
  Q 566.58 820.22 566.46 819.43
  Q 565.88 815.72 561.51 815.70
  Q 560.63 815.69 560.84 816.55
  L 561.46 819.13
  Q 561.72 820.22 562.85 820.22
  L 565.78 820.22
  Z
  M 570.38 817.19
  Q 569.95 817.72 570.35 819.03
  Q 570.73 820.24 571.51 820.88
  Q 572.28 821.53 573.54 821.68
  Q 574.91 821.84 575.34 821.31
  Q 575.77 820.79 575.37 819.48
  Q 574.99 818.27 574.21 817.62
  Q 573.44 816.98 572.18 816.83
  Q 570.81 816.67 570.38 817.19
  Z"
/>
<path fill="#ffffff" d="
  M 848.13 552.91
  C 845.84 553.63 844.35 553.82 841.98 553.37
  Q 799.12 545.23 754.58 543.81
  Q 715.53 542.58 679.50 548.20
  Q 655.74 551.90 634.86 559.63
  A 0.59 0.59 0.0 0 1 634.11 559.29
  Q 633.94 558.84 634.52 558.26
  Q 638.41 554.45 644.87 551.84
  Q 658.94 546.16 678.06 542.99
  Q 743.37 532.15 805.79 540.98
  Q 828.60 544.21 849.26 551.21
  Q 850.48 551.62 849.50 552.45
  Q 849.45 552.49 848.13 552.91
  Z"
/>
<path fill="#231f20" d="
  M 632.21 668.52
  Q 632.71 671.29 634.11 678.24
  C 634.55 680.42 634.61 683.14 634.68 684.82
  A 0.79 0.79 0.0 0 1 633.52 685.55
  C 630.70 684.04 628.57 681.69 627.45 678.40
  Q 624.36 669.35 623.99 660.49
  Q 623.35 645.57 623.27 640.49
  Q 622.87 615.88 622.58 607.75
  Q 622.14 595.41 620.94 589.78
  Q 619.51 583.06 617.44 574.80
  C 616.82 572.31 617.48 568.86 620.39 568.49
  A 1.27 1.22 -29.8 0 1 621.27 568.71
  Q 622.91 569.90 623.83 571.84
  C 629.49 583.86 630.61 598.76 630.62 611.75
  Q 630.66 648.13 630.68 650.25
  C 630.73 655.67 631.10 662.34 632.21 668.52
  Z"
/>
<path fill="#231f20" d="
  M 727.84 609.70
  Q 735.60 611.29 743.01 611.52
  C 755.11 611.91 764.64 612.32 775.32 610.94
  C 799.89 607.79 824.39 603.30 846.12 591.85
  Q 849.25 590.20 852.31 590.62
  A 1.29 1.28 17.4 0 1 853.28 592.47
  C 850.34 598.26 845.77 609.68 841.24 607.98
  Q 833.06 604.91 823.90 607.40
  C 798.83 614.21 771.81 618.36 745.32 615.70
  Q 735.63 614.72 727.66 610.52
  Q 727.31 610.33 727.42 609.95
  Q 727.45 609.82 727.60 609.74
  A 0.39 0.36 33.3 0 1 727.84 609.70
  Z"
/>
<path fill="#ffffff" d="
  M 65.99 631.57
  Q 65.18 630.80 65.05 630.06
  Q 65.84 630.40 65.99 631.57
  Z"
/>
<path fill="#ffffff" d="
  M 591.15 715.55
  C 594.40 709.60 601.86 703.76 607.56 701.07
  C 621.84 694.34 639.83 693.04 655.55 693.68
  C 669.44 694.24 683.08 695.82 696.37 699.91
  Q 705.17 702.62 709.84 707.10
  A 1.84 1.83 -41.2 0 1 709.65 709.90
  Q 707.62 711.39 705.39 712.15
  C 693.08 716.35 678.35 718.70 667.05 719.91
  Q 655.34 721.15 638.54 722.64
  C 623.46 723.98 608.43 723.68 594.01 718.08
  Q 592.06 717.32 591.25 716.41
  Q 590.90 716.01 591.15 715.55
  Z
  M 639.57 704.11
  C 643.19 704.91 648.54 702.88 653.01 701.51
  A 0.99 0.99 0.0 0 0 653.68 700.35
  Q 653.58 699.86 652.82 699.40
  C 650.03 697.68 640.77 698.31 638.52 701.12
  A 1.87 1.87 0.0 0 0 639.57 704.11
  Z
  M 621.4554 706.8637
  A 7.63 2.84 -2.0 0 0 613.7309 704.2917
  A 7.63 2.84 -2.0 0 0 606.2046 707.3963
  A 7.63 2.84 -2.0 0 0 613.9291 709.9683
  A 7.63 2.84 -2.0 0 0 621.4554 706.8637
  Z
  M 680.11 708.77
  L 691.40 710.25
  A 0.84 0.84 0.0 0 0 692.34 709.53
  L 692.37 709.26
  A 4.41 3.71 7.5 0 0 688.49 705.01
  L 684.28 704.45
  A 4.41 3.71 7.5 0 0 679.43 707.56
  L 679.39 707.82
  A 0.84 0.84 0.0 0 0 680.11 708.77
  Z
  M 653.4270 715.7075
  A 7.79 2.95 1.6 0 0 645.7224 712.5412
  A 7.79 2.95 1.6 0 0 637.8530 715.2725
  A 7.79 2.95 1.6 0 0 645.5576 718.4388
  A 7.79 2.95 1.6 0 0 653.4270 715.7075
  Z"
/>
<path fill="#231f20" d="
  M 653.01 701.51
  C 648.54 702.88 643.19 704.91 639.57 704.11
  A 1.87 1.87 0.0 0 1 638.52 701.12
  C 640.77 698.31 650.03 697.68 652.82 699.40
  Q 653.58 699.86 653.68 700.35
  A 0.99 0.99 0.0 0 1 653.01 701.51
  Z"
/>
<ellipse fill="#231f20" cx="0.00" cy="0.00" transform="translate(613.83,707.13) rotate(-2.0)" rx="7.63" ry="2.84"/>
<path fill="#231f20" d="
  M 680.11 708.77
  A 0.84 0.84 0.0 0 1 679.39 707.82
  L 679.43 707.56
  A 4.41 3.71 7.5 0 1 684.28 704.45
  L 688.49 705.01
  A 4.41 3.71 7.5 0 1 692.37 709.26
  L 692.34 709.53
  A 0.84 0.84 0.0 0 1 691.40 710.25
  L 680.11 708.77
  Z"
/>
<ellipse fill="#231f20" cx="0.00" cy="0.00" transform="translate(645.64,715.49) rotate(1.6)" rx="7.79" ry="2.95"/>
<path fill="#ffffff" d="
  M 575.05 720.17
  C 578.03 730.10 597.70 731.22 605.77 731.42
  Q 626.39 731.91 644.79 729.28
  Q 669.65 725.73 679.94 724.63
  Q 693.49 723.17 706.06 719.67
  A 1.36 1.36 0.0 0 1 707.62 720.33
  C 710.87 726.29 707.83 734.54 702.97 738.72
  Q 701.10 740.32 694.62 742.10
  C 672.60 748.17 649.46 750.68 625.06 752.13
  Q 607.95 753.15 590.54 752.51
  C 583.33 752.24 559.58 750.63 560.61 738.70
  C 561.31 730.63 567.30 724.03 574.28 719.87
  Q 574.85 719.53 575.05 720.17
  Z"
/>
<path fill="#ffffff" d="
  M 687.61 751.19
  Q 687.43 751.00 687.69 750.94
  L 697.62 748.55
  Q 697.88 748.49 698.03 748.71
  Q 702.75 755.78 702.43 763.97
  C 702.23 769.04 699.26 770.82 694.98 772.40
  Q 694.41 772.61 694.49 772.01
  Q 696.08 760.10 687.61 751.19
  Z"
/>
<path fill="#ffffff" d="
  M 603.31 768.05
  Q 604.06 769.22 602.67 769.22
  L 599.64 769.22
  Q 598.12 769.22 597.77 767.75
  L 597.03 764.67
  Q 596.76 763.56 597.85 763.21
  Q 599.30 762.73 600.52 762.97
  Q 601.05 763.08 601.14 763.62
  Q 601.39 765.08 603.31 768.05
  Z"
/>
<path fill="#ffffff" d="
  M 580.30 763.93
  C 580.43 765.47 580.86 766.86 581.69 768.26
  Q 582.17 769.09 581.22 769.09
  L 578.07 769.09
  Q 576.95 769.09 576.48 768.07
  Q 575.65 766.25 575.66 764.03
  A 0.69 0.69 0.0 0 1 576.35 763.34
  L 579.66 763.34
  Q 580.25 763.34 580.30 763.93
  Z"
/>
<path fill="#ffffff" d="
  M 686.44 781.80
  Q 686.85 781.76 687.87 781.62
  Q 688.25 781.57 688.26 781.95
  C 688.54 793.21 681.06 797.72 671.25 799.69
  Q 633.17 807.33 590.75 806.77
  Q 578.39 806.60 566.25 804.20
  C 554.78 801.93 545.10 795.60 551.86 782.40
  A 0.83 0.82 28.2 0 1 553.01 782.06
  C 557.08 784.44 563.56 784.68 569.25 784.74
  Q 579.35 784.83 593.93 782.97
  Q 598.79 782.35 603.60 782.64
  Q 617.04 783.43 630.70 783.87
  Q 659.39 784.78 686.44 781.80
  Z"
/>
<path fill="#ffffff" d="
  M 675.75 829.59
  Q 681.74 820.35 677.24 810.37
  A 0.84 0.84 0.0 0 1 677.90 809.19
  L 687.12 807.99
  A 0.63 0.63 0.0 0 1 687.81 808.44
  Q 691.32 820.93 681.57 828.23
  C 679.84 829.52 678.03 830.04 676.08 830.16
  Q 675.34 830.21 675.75 829.59
  Z"
/>
<path fill="#ffffff" d="
  M 565.78 820.22
  L 562.85 820.22
  Q 561.72 820.22 561.46 819.13
  L 560.84 816.55
  Q 560.63 815.69 561.51 815.70
  Q 565.88 815.72 566.46 819.43
  Q 566.58 820.22 565.78 820.22
  Z"
/>
<path fill="#ffffff" d="
  M 574.21 817.62
  Q 574.99 818.27 575.37 819.48
  Q 575.77 820.79 575.34 821.31
  Q 574.91 821.84 573.54 821.68
  Q 572.28 821.53 571.51 820.88
  Q 570.73 820.24 570.35 819.03
  Q 569.95 817.72 570.38 817.19
  Q 570.81 816.67 572.18 816.83
  Q 573.44 816.98 574.21 817.62
  Z"
/>
</svg>
